<?xml version="1.0" encoding="UTF-8"?> <svg xmlns="http://www.w3.org/2000/svg" width="712" height="117" viewBox="0 0 712 117" fill="none"> <path d="M711.613 116.27V37.9927H697.158V103.04H671.065V116.27H711.613Z" fill="#FA007A"></path> <path d="M536.163 23.9675L537.265 38.3C542.533 38.545 547.678 38.6675 552.578 38.6675C568.258 38.79 585.898 35.605 596.433 32.665L596.065 18.455C584.183 22.2525 567.645 24.825 552.455 24.825C548.045 24.825 541.43 24.58 536.163 23.9675ZM583.815 5.59249L566.91 4C566.543 13.4325 563.848 24.825 560.908 33.645C556.13 46.875 545.105 68.3125 534.08 81.7875L548.903 89.3825C559.315 74.9275 570.34 52.1425 575.975 34.5025C579.283 24.09 582.223 12.085 583.815 5.59249ZM612.603 43.8125H597.168C597.78 56.675 599.128 79.215 599.128 86.565C599.128 93.425 596.433 98.08 588.103 98.08C581.365 98.08 577.445 94.895 577.445 90.3625C577.445 86.075 582.1 83.0125 589.205 83.0125C607.703 83.0125 621.668 95.63 630.488 103.838L638.573 90.6075C628.405 81.42 611.5 70.64 590.063 70.64C573.035 70.64 562.99 79.95 562.99 91.8325C562.99 105.308 574.995 112.168 590.185 112.168C607.703 112.168 613.828 103.225 613.828 91.8325C613.828 84.9725 612.725 66.72 612.48 59.4925C612.358 54.1025 612.235 48.9575 612.603 43.8125ZM633.673 50.305L642.37 37.32C636 32.7875 620.933 24.58 612.113 20.7825L604.15 32.7875C612.603 36.585 626.568 44.5475 633.673 50.305Z" fill="#201B19"></path> <path d="M432.242 35.4225V47.06H517.38V35.4225H432.242ZM433.222 71.1925V82.7075H500.475V71.1925H433.222ZM448.902 27.3375V66.2925H499.617V27.3375H485.162V55.145H462.745V27.3375H448.902ZM496.677 71.1925V73.03C486.755 92.63 459.192 101.328 427.832 104.023C430.16 107.085 432.855 112.598 433.957 116.273C468.38 111.985 498.025 101.818 511.255 75.235L502.067 70.58L499.495 71.1925H496.677ZM458.335 80.135L445.717 84.6675C459.437 102.92 482.1 112.72 511.867 116.395C513.705 112.72 517.38 106.84 520.442 103.778C492.267 101.328 469.36 93.855 458.335 80.135ZM459.07 1V19.375H474.382V1H459.07ZM422.32 12.025V25.1325H517.992V12.025H422.32ZM415.092 12.025V46.57C415.092 64.5775 414.357 90.18 404.067 107.575C407.497 109.168 413.622 113.21 416.195 115.66C427.342 96.6725 429.18 66.5375 429.18 46.57V12.025H415.092Z" fill="#201B19"></path> <path d="M339.756 14.5775C350.291 29.155 370.748 47.1625 389.368 58.1875C392.063 53.7775 395.371 48.8775 399.168 45.325C379.813 36.26 359.723 18.9875 346.616 0H331.671C322.606 15.435 302.761 35.1575 281.936 46.6725C285.121 49.6125 289.286 54.88 291.246 58.31C311.213 46.4275 329.711 29.155 339.756 14.5775ZM313.908 38.3425V51.94H366.093V38.3425H313.908ZM297.126 63.7V77.5425H368.053V63.7H297.126ZM365.603 63.7V65.2925C361.193 76.3175 351.761 96.6525 343.921 112.088L359.601 116.253C367.073 100.695 376.016 81.4625 382.018 66.395L370.258 62.965L367.686 63.7H365.603Z" fill="#201B19"></path> <path d="M219.561 6.47L200.818 5C201.186 7.94001 201.063 12.9625 200.451 17.495C199.593 24.7225 196.776 38.1975 193.713 49.7125C189.058 66.8625 179.748 92.465 172.521 104.838L189.548 110.595C196.286 96.0175 204.493 71.0275 208.903 53.8775C212.211 41.3825 215.273 26.4375 216.988 18.1075C217.601 15.4125 218.703 9.9 219.561 6.47ZM188.323 24.845C183.301 24.845 179.258 24.6 172.888 23.865L173.378 39.1775C177.666 39.4225 182.198 39.6675 188.201 39.6675C202.043 39.6675 221.276 37.585 236.466 34.0325V18.72C220.541 22.5175 203.268 24.845 188.323 24.845ZM226.788 43.5875V57.92C234.506 56.94 242.101 56.5725 250.553 56.5725C257.903 56.5725 265.376 57.43 271.623 58.165L271.868 43.465C264.763 42.73 257.413 42.3625 250.431 42.3625C242.468 42.3625 233.648 42.8525 226.788 43.5875ZM233.403 74.335L218.826 72.9875C217.846 77.765 216.743 83.645 216.743 89.4025C216.743 101.775 227.768 108.758 248.471 108.758C258.271 108.758 266.478 108.023 273.338 107.043L273.951 91.485C265.253 93.0775 256.801 93.935 248.593 93.935C235.363 93.935 231.811 89.8925 231.811 84.5025C231.811 81.8075 232.546 77.8875 233.403 74.335Z" fill="#201B19"></path> <path d="M122.25 5H105.59C106.08 7.3275 106.325 11.125 106.325 13.33C106.325 20.3125 106.202 35.87 106.202 47.63C106.202 59.5125 107.55 81.44 107.55 88.79C107.55 95.895 103.14 97.7325 96.6475 97.7325C88.195 97.7325 83.9075 94.915 83.9075 90.26C83.9075 85.9725 88.685 82.665 97.26 82.665C118.207 82.665 135.97 94.5475 147.607 105.573L156.427 91.8525C146.26 83.2775 126.17 70.0475 99.22 70.0475C80.4775 70.0475 69.085 78.745 69.085 91.1175C69.085 104.103 79.375 111.575 98.975 111.575C115.022 111.575 122.985 103.49 122.985 92.955C122.985 83.2775 121.025 61.105 121.025 47.63C121.025 37.34 121.147 19.945 121.392 13.6975C121.515 10.5125 121.882 7.45 122.25 5ZM71.4125 16.3925L71.6575 30.48C79.7425 31.46 93.9525 32.5625 101.792 32.5625C120.167 32.5625 139.645 31.0925 152.14 29.3775L152.262 15.4125C134.377 18.23 118.33 19.0875 101.67 19.0875C94.1975 19.0875 80.11 17.8625 71.4125 16.3925ZM70.6775 42.8525L70.9225 57.3075C79.0075 58.2875 92.85 58.9 100.077 58.9C123.352 58.9 136.705 58.165 153.61 56.205L153.732 41.75C138.665 43.71 122.862 45.18 100.2 45.18C93.7075 45.18 78.7625 44.3225 70.6775 42.8525Z" fill="#201B19"></path> <path d="M0 0.752441V79.0299H14.455V13.9824H40.5475V0.752441H0Z" fill="#FA007A"></path> </svg> 