<?xml version="1.0" encoding="UTF-8"?> <svg xmlns="http://www.w3.org/2000/svg" width="109" height="95" viewBox="0 0 109 95" fill="none"> <path d="M93.4738 65.7749L108.668 55.3974L86.1548 49.7747C85.8807 40.8728 82.6927 31.6104 76.4889 22.5272L63.7558 31.2239C67.2591 36.3532 69.5755 41.3529 70.739 46.0431L42.9672 39.1541C48.2522 25.9852 48.1921 16.9371 42.8641 9.13625C35.9305 -1.01551 23.1954 -2.66029 11.7463 5.15943C0.190169 13.0522 -3.15392 26.3059 3.92568 36.6714C7.93989 42.5487 13.5783 45.7497 24.4944 48.6368C16.4515 62.5924 15.5734 74.632 22.0691 84.1426C31.0463 97.2864 48.6262 98.443 65.6394 86.823C75.0555 80.3919 81.2219 72.4192 84.2166 63.4786L93.4738 65.7749ZM16.2648 28.0871C13.1264 23.4921 14.1178 18.7405 18.8259 15.5249C23.3199 12.4555 27.9266 13.2269 31.065 17.8219C34.7142 23.1649 35.0316 29.3732 31.7641 36.3062C22.7939 33.9706 18.8923 31.9341 16.2648 28.0871ZM34.9964 73.4327C30.8362 67.3417 31.0878 60.588 35.6245 51.3778L70.7807 60.1185C69.0792 65.6685 65.359 70.5601 59.4739 74.5795C49.4158 81.4492 40.1784 81.0198 34.9964 73.4327Z" fill="#FA007A"></path> </svg> 