<?xml version="1.0" encoding="UTF-8"?> <svg xmlns="http://www.w3.org/2000/svg" width="100" height="115" viewBox="0 0 100 115" fill="none"> <path d="M30.6489 98.2622L41.5816 114.223L47.4613 90.5442C56.8205 90.2433 66.5546 86.8783 76.096 80.3427L66.9341 66.9673C61.546 70.658 56.2926 73.1006 51.3629 74.3305L58.5667 45.1212C72.4201 50.6591 81.9333 50.5831 90.1277 44.9701C100.791 37.6656 102.503 24.2734 94.2647 12.2468C85.9497 0.107733 72.0099 -3.38946 61.1216 4.06884C54.9478 8.29777 51.5903 14.2306 48.5702 25.712C33.8857 17.2754 21.2259 16.3693 11.2355 23.2124C-2.57133 32.6699 -3.76241 51.1553 8.47911 69.0266C15.2543 78.9177 23.6456 85.3898 33.0501 88.5258L30.6489 98.2622ZM70.1647 17.0302C74.9915 13.7239 79.9888 14.7595 83.3764 19.7051C86.61 24.4258 85.8055 29.2704 80.9787 32.5767C75.3662 36.4211 68.8391 36.7637 61.545 33.338C63.988 23.9033 66.1237 19.7982 70.1647 17.0302ZM22.5144 36.7892C28.9127 32.4065 36.0139 32.6614 45.7041 37.4182L36.5639 74.3943C30.7262 72.6133 25.5778 68.7087 21.3433 62.5268C14.1062 51.9613 14.5445 42.2483 22.5144 36.7892Z" fill="#FA007A"></path> </svg> 