<?xml version="1.0" encoding="UTF-8"?> <svg xmlns="http://www.w3.org/2000/svg" width="191" height="192" viewBox="0 0 191 192" fill="none"> <path d="M156.854 160.295L190.812 148.447L151.188 126.374C155.203 109.434 153.902 90.3314 146.819 70.0314L118.362 79.9609C122.362 91.4244 124.188 102.039 123.995 111.483L75.0925 84.3426C91.7708 62.1812 96.2639 45.0752 90.1807 27.641C82.2642 4.95267 59.0681 -4.63508 33.4803 4.29312C7.65345 13.3048 -5.40523 36.6143 2.67794 59.7802C7.26118 72.9156 16.2721 81.827 35.4029 92.8332C13.1193 115.075 5.33256 137.349 12.7491 158.604C22.9989 187.98 55.5865 199.113 93.6094 185.846C114.654 178.503 130.35 166.596 140.553 151.248L156.854 160.295ZM30.3346 49.8623C26.7514 39.5928 31.0414 31.1305 41.5635 27.4591C51.6073 23.9545 59.9082 27.7557 63.4915 38.0251C67.658 49.9663 65.0962 61.8442 55.4001 73.2644C39.6607 64.2896 33.3346 58.4599 30.3346 49.8623ZM42.5979 144.974C37.848 131.361 41.7613 118.744 55.0119 103.673L116.908 138.067C110.871 147.674 101.36 155.012 88.2075 159.601C65.7286 167.444 48.5144 161.931 42.5979 144.974Z" fill="#FA007A"></path> </svg> 