<?xml version="1.0" encoding="UTF-8"?> <svg xmlns="http://www.w3.org/2000/svg" width="161" height="147" viewBox="0 0 161 147" fill="none"> <path d="M136.342 108.513L160.596 94.7425L127.292 83.4249C127.995 69.943 124.341 55.5509 116.109 41.0514L95.7826 52.5918C100.431 60.7798 103.304 68.6231 104.473 75.8542L63.3838 61.9639C73.0193 42.7334 74.0634 29.0574 66.9932 16.6049C57.7923 0.399591 38.7605 -3.68244 20.4842 6.69427C2.03709 17.1679 -4.67703 36.77 4.71755 53.3165C10.0444 62.6985 18.1604 68.2412 34.2886 73.9719C20.3882 94.0449 17.5516 112.122 26.1714 127.304C38.0841 148.286 64.4959 152.238 91.6541 136.818C106.685 128.284 117 117.014 122.646 103.883L136.342 108.513ZM24.4342 41.8964C20.2696 34.5614 22.3633 27.5078 29.8788 23.2408C37.0526 19.1677 43.9149 20.9108 48.0795 28.2458C52.9221 36.7749 52.6228 46.1933 46.8172 56.2566C33.5593 51.6032 27.9209 48.0374 24.4342 41.8964ZM47.0432 112.747C41.5227 103.024 42.7499 92.8528 50.7583 79.5086L102.77 97.1223C99.5039 105.293 93.2704 112.216 83.876 117.549C67.8202 126.665 53.9196 124.858 47.0432 112.747Z" fill="#FA007A"></path> </svg> 