<?xml version="1.0" encoding="UTF-8"?> <svg xmlns="http://www.w3.org/2000/svg" width="296" height="382" viewBox="0 0 296 382" fill="none"> <path d="M218.273 364.85L281.408 381.767L244.442 308.09C267.793 286.744 285.371 256.712 295.484 218.97L242.575 204.793C236.864 226.106 228.755 243.922 218.81 257.914L173.084 167.136C220.801 150.891 245.042 129.784 253.727 97.3696C265.03 55.1867 239.981 17.0648 192.407 4.31747C144.389 -8.54899 100.936 13.1216 89.3953 56.1925C82.8515 80.6142 87.279 103.217 104.769 139.313C48.5479 149.948 14.075 175.452 3.48596 214.971C-11.1483 269.587 26.4313 319.633 97.1249 338.575C136.251 349.059 172.008 347.218 203.03 334.59L218.273 364.85ZM141.089 69.5681C146.206 50.4747 161.303 42.1466 180.866 47.3884C199.54 52.3921 208.126 66.5903 203.01 85.6836C197.061 107.885 181.067 123.112 154.823 130.357C140.351 100.78 136.806 85.5532 141.089 69.5681ZM62.2689 225.011C69.0506 199.701 87.8307 184.745 123.149 175.648L180.981 290.609C162.088 298.873 140.296 300.172 115.842 293.62C74.0484 282.421 53.8215 256.537 62.2689 225.011Z" fill="#FA007A"></path> </svg> 