<?xml version="1.0" encoding="UTF-8"?> <svg xmlns="http://www.w3.org/2000/svg" width="131" height="158" viewBox="0 0 131 158" fill="none"> <path d="M51.3749 138.607L68.7898 157.878L72.3569 125.316C84.7555 123.234 97.1021 117.007 108.622 106.596L94.0282 90.4467C87.5227 96.3257 80.9718 100.52 74.6339 103.042L78.9686 62.8839C98.3963 67.7623 111.04 65.9512 120.934 57.0102C133.81 45.3747 133.679 27.2485 120.557 12.7275C107.312 -1.92924 88.1359 -4.07681 74.9892 7.80368C67.535 14.54 64.1341 23.0372 62.1795 38.8564C41.125 30.2707 24.118 31.3405 12.0556 42.2411C-4.61483 57.3061 -2.87706 82.1154 16.6227 103.693C27.4151 115.636 39.7432 122.739 52.8198 125.221L51.3749 138.607ZM89.351 23.4236C95.1789 18.157 102.014 18.6367 107.41 24.608C112.561 30.3078 112.361 36.8983 106.534 42.1649C99.7569 48.2888 91.1341 49.9177 80.8135 46.6709C82.3682 33.6786 84.4719 27.8329 89.351 23.4236ZM29.5026 58.278C37.228 51.2967 46.7222 50.3596 60.4701 54.9469L54.9549 105.787C46.8676 104.467 39.3158 100.197 32.5706 92.7329C21.0424 79.9761 19.8798 66.974 29.5026 58.278Z" fill="#FA007A"></path> </svg> 