<svg xmlns="http://www.w3.org/2000/svg" width="149" height="590" fill="none"><path fill="#201B19" fill-rule="evenodd" d="M137.011.705c5.707 1.434 9.345 3.485 10.759 6.067 1.117 2.04 1.23 4.72 1.23 29.267 0 73.779-1.06 334.741-1.421 349.893-.227 9.527-1.956 39.302-3.843 66.168a268012.73 268012.73 0 0 0-5.85 83.489c-2.843 40.71-3.83 53.151-4.273 53.866-.7 1.13-2.758.438-4.41-1.484-10.135-11.785-12.916-15.222-17.161-21.203-15.453-21.777-26.542-43.244-34.36-66.515-6.806-20.263-7.684-30.641-7.44-87.993l.175-41.571-1.866-3.565c-1.026-1.961-1.868-3.831-1.87-4.157-.004-.326-1.377-2.986-3.051-5.91-3.88-6.773-9.826-21.842-10.753-27.247-.62-3.618-1.06-12.709-.849-17.51.039-.866 1.363-2.974 2.944-4.685 2.85-3.083 2.871-3.146 2.493-7.314-.21-2.312-.548-4.369-.75-4.57-.203-.203-4.61 2.784-9.794 6.637-5.184 3.851-9.578 7.003-9.765 7.003-.926 0 .043-1.911 4.229-8.345 2.512-3.862 4.419-7.172 4.235-7.354-.182-.183-1.885.78-3.783 2.14-6.458 4.629-6.537 3.299-.506-8.561 2.483-4.884 4.515-9.079 4.515-9.324 0-.245-6.09 3.612-13.532 8.571-7.443 4.958-13.833 9.016-14.2 9.016-2.024 0-.535-2.7 8.993-16.305 9.568-13.662 11.709-16.961 10.999-16.948-.314.007-19.416 2.633-23.255 3.197-4.604.677-4.23-.781.938-3.651 4.281-2.379 14.322-8.484 19.138-11.637 1.063-.696 1.808-1.39 1.655-1.543-.153-.152-7.587-1.834-16.52-3.739-8.933-1.904-17.101-3.647-18.152-3.873-1.05-.225-1.91-.617-1.91-.869s8.049-2.883 17.887-5.846c41.86-12.605 57.533-17.622 58.434-18.705.62-.745-.41-1.223-5.298-2.458-11.465-2.895-23.933-9.829-31.82-17.697-4.074-4.063-10.028-12.065-10.028-13.476 0-1.717 1.746-1.363 5.758 1.163 8.931 5.626 17.248 9.044 29.061 11.945 5.997 1.472 23.148 2.65 26.472 1.818 3.062-.767 6.522-11.573 5.618-17.546-.491-3.243-3.887-9.97-6.972-13.812-1.255-1.564-2.282-3.35-2.282-3.97 0-.62 1.454-2.459 3.23-4.086 4.67-4.276 7.19-9.931 7.185-16.123-.005-7.565-1.03-9.978-8.608-20.254l-1.652-2.24 3.322-10.232c6.214-19.143 7.708-30.449 6.32-47.826-.866-10.847-1.935-16.707-4.77-26.148-1.748-5.824-2.2-6.58-6.823-11.432-5.492-5.764-6.54-7.373-6.54-10.036 0-2.423 2.712-3.514 13.875-5.58 11.069-2.05 13.719-2.653 22.537-5.123 8.997-2.52 16.688-3.138 22.105-1.777Zm.933 2.708c4.126 1.289 6.996 3.158 7.984 5.199.489 1.01 1.006 5.68 1.186 10.716l.32 8.925-2.343-.453c-1.288-.248-13.836-.643-27.883-.877l-25.54-.424-5.197-5.549c-5.257-5.611-6.193-7.593-3.983-8.44.67-.255 6.465-1.543 12.882-2.862 6.415-1.318 13.449-2.874 15.629-3.46 12.282-3.292 14.651-3.75 19.183-3.707 2.709.026 6.202.445 7.762.932Zm8.39 28.512c.513 1.333-.055 96.437-.579 96.96-.207.206-.847.195-1.422-.024-.906-.347-1.011-3.296-.791-22.362.332-28.66.764-45.046 1.349-51.137.3-3.126.163-6.215-.375-8.454-.467-1.94-.92-6.06-1.006-9.157-.112-4-.446-5.812-1.155-6.259-.715-.451-.353-.632 1.283-.64 1.434-.006 2.434.392 2.696 1.073Zm-39.36 96.704c4.394.706 12.944 1.488 19 1.739 6.057.252 10.589.69 10.072.975-.516.285-3.356.921-6.31 1.413-4.817.803-6.645.734-17.713-.67-11.549-1.465-15.468-2.544-15.468-4.26 0-.831.471-.794 10.419.803Zm38.481 3.254c.538.868-1.445 1.507-14.496 4.669-8.974 2.174-10.879 2.431-13.893 1.876-4.138-.761-4.912-.516 12.484-3.955 6.877-1.36 13.172-2.656 13.988-2.88.817-.224 1.679-.093 1.917.29Zm-38.133 1.27c9.906 1.278 10.603 1.62 5.557 2.724-7.16 1.567-12.065 1.071-13.709-1.383-.668-.998-.674-2.518-.01-2.411.286.047 3.959.527 8.162 1.07Zm38.552 5.428c0 3.788-.281 4.192-2.362 3.395-.84-.321-.923-.719-.364-1.759.396-.739.632-1.877.525-2.529-.108-.652.05-1.575.349-2.051 1.152-1.831 1.852-.717 1.852 2.944Zm-18.755 3.163c10.124 1.476 18.486 2.693 18.581 2.705.096.012.174 1.113.174 2.447 0 2.764-.12 2.795-6.599 1.735-2.292-.375-8.857-1.157-14.587-1.739-19.457-1.974-24.66-2.851-24.66-4.158 0-1.683 3.512-3.81 6.172-3.74 1.381.037 10.795 1.275 20.919 2.75Zm-22.576 4.499c.382.152 7.884 1.07 16.671 2.039 8.788.969 18.009 2.13 20.492 2.579l4.515.817-4.515.583c-6.888.888-43.762-.109-43.762-1.184 0-.471.343-1.839.763-3.039.645-1.846 1.1-2.173 2.952-2.127 1.204.03 2.502.18 2.884.332Zm20.318 7.754 21.013.194v4.83l-15.803-.006c-21.438-.007-35.499-1.609-34.602-3.941.215-.559.391-1.147.391-1.306 0-.16 1.798-.217 3.994-.127 2.197.089 13.451.25 25.007.356Zm-22.395 8.305c4.963 2.474 9.154 4.618 9.313 4.766.962.889-1.131.543-7.583-1.254a36730.81 36730.81 0 0 0-10.94-3.047c-2.006-.557-3.63-1.239-3.61-1.514.022-.275.885-1.163 1.918-1.974l1.879-1.474 9.023 4.497Zm43.408 8.844c0 5.525-.274 10.046-.61 10.046-1.091 0-2.302-1.995-1.751-2.885.296-.477.495-4.544.441-9.037-.079-6.724.082-8.171.912-8.171.834 0 1.008 1.728 1.008 10.047Zm-47.583-5.157c2.675.738 8.56 2.289 13.08 3.447 13.987 3.583 33.153 11.988 33.691 14.776.2 1.036-.365.915-3.818-.817-4.13-2.073-14.889-5.712-24.892-8.42-17.639-4.777-24.66-7.578-24.66-9.839 0-.81 1.078-.671 6.6.853Zm4.863 6.962c3.438 1.028 12.071 3.6 19.184 5.716 11.82 3.517 21.39 7.044 20.691 7.627-.154.129-3.226-.054-6.826-.404-7.17-.699-17.882-3.692-30.503-8.525-8.516-3.261-9.411-3.787-9.037-5.312.194-.786 1.428-.616 6.491.898Zm3.473 6.58c4.203 1.624 9.594 3.515 11.983 4.203 2.387.688 4.341 1.489 4.341 1.78 0 .622-19.016.719-22.062.111-1.972-.393-2.11-.637-2.438-4.33-.192-2.152-.15-4.094.094-4.314.242-.22 3.879.928 8.082 2.55Zm-64.478 10.312c6.206 3.147 16.19 6.522 24.884 8.411 4.947 1.075 9.419 1.187 40.739 1.018 25.437-.137 35.594.031 36.67.605 1.362.726 1.47 1.271 1.286 6.47l-.201 5.677H74.674l-5.905-1.977c-12.204-4.087-24.694-11.938-30.738-19.323-4.02-4.912-3.885-4.941 4.118-.881Zm96.929-1.467c5.166.868 7.225 2.108 5.002 3.013-3.293 1.341-44.084-.337-45.694-1.88-.329-.316-.388-.914-.132-1.328.63-1.017 34.575-.855 40.824.195Zm-29.325 4.313c5.54.495 15.855.876 22.923.85 13.479-.051 13.067-.141 12.591 2.723-.089.534-49.451.359-49.989-.177-.165-.164.093-1.243.573-2.399.614-1.479 1.31-2.07 2.35-1.998.814.057 6.012.507 11.552 1.001Zm35.253 22.27c.642.221.868 2.963.868 10.514v10.215l-14.748 9.647c-8.11 5.305-16.238 10.639-18.06 11.851-1.822 1.213-3.313 1.908-3.313 1.544 0-.364 1.25-3.141 2.778-6.173 1.529-3.032 2.779-5.987 2.779-6.567 0-1.974-1.039-1.057-2.319 2.048-.702 1.703-2.291 3.962-3.53 5.02-1.814 1.549-53.194 40.426-63.832 48.3-2.33 1.725-2.63 1.813-1.965.574.431-.803 1.835-2.341 3.121-3.42 8.802-7.378 56.449-51.097 50.812-46.622-1.146.91-2.56 2.133-3.142 2.72-1.564 1.574-12.025 10.861-18.392 16.327-3.056 2.625-8.996 7.959-13.198 11.853-4.203 3.895-8.579 7.797-9.725 8.671-2.58 1.97-2.673 2.093 8.364-11.179 13.698-16.471 20.563-24.954 20.196-24.954-.19 0-5.755 6.469-12.366 14.377-6.612 7.907-12.184 14.532-12.384 14.723-.2.191-2.494 2.918-5.099 6.063-2.605 3.144-4.883 5.716-5.064 5.716-.417 0-.512.153 7.28-11.779 7.904-12.101 14.008-21.885 14.008-22.45 0-1.178-3.177.766-23.457 14.348-24.476 16.393-23.779 15.94-23.779 15.461 0-.189 1.43-1.369 3.18-2.621 1.748-1.253 2.84-2.39 2.427-2.528-.814-.27.536-2.196 4.706-6.714 3.65-3.954 14.38-16.439 19.208-22.349 3.902-4.777 4.221-5.007 6.395-4.6 2.598.486 3.29-.869.726-1.422-.86-.186-3.594-.801-6.078-1.367-2.483-.567-8.578-1.839-13.545-2.828-19.524-3.885-20.059-4.368-5.21-4.689 7.475-.162 6.418-.243-5.21-.403-8.023-.11-15.212-.443-15.976-.741l-1.39-.542 1.39-.397c.764-.219 7.71-1.884 15.437-3.7 7.727-1.817 13.93-3.422 13.786-3.566-.145-.144-7.812 1.475-17.039 3.598-17.999 4.141-18.089 4.158-18.089 3.274 0-.322 2.423-1.308 5.384-2.19 12.267-3.653 16.497-4.937 30.737-9.325a5974.563 5974.563 0 0 1 21.534-6.6c3.63-1.097 9.725-2.976 13.546-4.175 6.648-2.086 7.557-2.192 21.186-2.465 29.881-.6 46.225-.766 47.062-.478ZM84.3 223.392c-2.024.895-21.11 5.124-21.475 4.759-.27-.268 17.245-4.511 21.226-5.142 1.624-.257 1.64-.232.249.383Zm12.602 7.448c-3.192 2.908-19.094 16.601-24.709 21.275-1.31 1.09-6.133 4.967-10.718 8.615a4531.094 4531.094 0 0 0-11.461 9.142c-6.835 5.489-22.345 16.75-22.65 16.444-.18-.178 2.504-2.426 5.963-4.994 3.459-2.569 6.913-5.461 7.674-6.427.761-.966 5.055-5.675 9.54-10.466 4.486-4.791 12.376-13.236 17.534-18.768 15.339-16.453 16.556-17.7 16.928-17.329.195.195-1.751 2.53-4.326 5.188-10.668 11.015-35.526 37.992-35.526 38.555 0 .867 30.335-23.067 36.156-28.526.609-.571 2.18-1.978 3.489-3.127 1.31-1.149 5.11-4.5 8.446-7.448 3.336-2.948 6.305-5.346 6.6-5.329.293.017-1.03 1.455-2.94 3.195Zm-35.644-2.06c-.5.2-1.1.175-1.33-.055-.231-.23.178-.394.91-.364.81.034.974.198.42.419Zm-2.778.693c-.501.2-1.1.175-1.331-.055-.231-.23.179-.394.911-.364.81.033.974.198.42.419Zm-3.474.692c-.5.201-1.1.176-1.33-.054-.231-.23.179-.394.91-.364.81.033.975.197.42.418Zm-2.778.693c-.501.201-1.1.176-1.331-.054-.23-.23.18-.394.911-.364.81.033.974.197.42.418Zm-3.603.913c-2.375.759-4.202.759-2.431 0 .764-.328 2.014-.586 2.778-.575 1.117.016 1.049.129-.347.575Zm-4.69 1.151c-.477.193-1.259.193-1.736 0-.478-.192-.087-.349.869-.349.955 0 1.345.157.868.349Zm73.533 1.862c-1.528 1.861-16.767 15.215-17.027 14.919-.278-.313 15.23-14.525 16.866-15.457.991-.564 1.011-.498.161.538Zm-19.524 1.406c0 .143-.547.689-1.216 1.212-1.101.862-1.126.837-.262-.262.908-1.154 1.478-1.52 1.478-.95Zm47.527 1.645c.222.221.403.796.403 1.277 0 1.374-19.736 23.099-20.383 22.436-.177-.182 1.529-3.137 3.792-6.566 2.263-3.43 4.75-7.536 5.526-9.125 1.036-2.123 2.584-3.623 5.834-5.656 2.434-1.522 4.607-2.587 4.828-2.366Zm-80.87 4.329c0 .381-1.484.688-3.3.682-2.385-.007-3.01-.197-2.257-.682 1.374-.886 5.557-.886 5.557 0Zm81.263 3.596c-.007 2.023-.241 4.032-.521 4.464-.672 1.032-18.31 12.725-19.196 12.725-.376 0 2.59-3.351 6.592-7.448s8.225-8.564 9.386-9.928c3.378-3.972 3.751-3.953 3.739.187Zm-99.51-3.116c-.676.176-1.614.164-2.084-.026s.083-.333 1.229-.319c1.146.014 1.53.169.855.345Zm41.518 5.755c-.691.763-1.414 1.386-1.605 1.386-.19 0 .219-.623.91-1.386.691-.762 1.414-1.385 1.605-1.385.19 0-.219.623-.91 1.385Zm40.636.363c0 .548-13.314 14.95-21.763 23.54-4.352 4.426-5.988 5.734-5.635 4.505.64-2.224 1.598-3.422 9.884-12.354 3.772-4.066 7.974-8.643 9.338-10.171 2.298-2.576 8.176-6.544 8.176-5.52Zm-87.525.85c0 .286-2.735 2.124-6.078 4.085-6.535 3.834-13.371 7.371-13.371 6.919 0-.154 2.266-1.625 5.036-3.27 2.77-1.645 6.816-4.174 8.992-5.622 3.85-2.561 5.422-3.174 5.421-2.112Zm88.575 1.905c-4.595 7.407-5.616 8.637-7.186 8.649-1.616.012-1.614.002.462-2.586 1.146-1.429 3.417-3.846 5.048-5.37 2.7-2.523 2.85-2.586 1.676-.693Zm-84.233-1.254c.668.174 1.216.566 1.216.871 0 .958-22.02 10.868-22.682 10.208-.173-.172 1.813-1.49 4.411-2.931a380.711 380.711 0 0 0 9.713-5.623c2.743-1.652 5.244-2.967 5.557-2.922.313.044 1.117.223 1.785.397Zm40.81.453c0 .108-.988 1.112-2.197 2.231-2.193 2.031-2.194 2.032-.868.158 1.107-1.562 3.065-3.088 3.065-2.389Zm-34.558.932c2.405.627 2.845.017-15.031 20.834-5.32 6.197-9.8 11.14-9.954 10.986-.155-.153 2.492-4.288 5.88-9.186 3.388-4.899 7.989-11.558 10.223-14.797 6.087-8.825 5.86-8.625 8.882-7.837Zm93.928 1.565c.339.548-.057 6.248-.46 6.622-.438.406-10.285.713-10.285.321 0-.771 10.404-7.493 10.745-6.943Zm-102.156 2.739c-2.166 3.668-3.298 4.26-10.077 5.276-6.56.983-8.423.893-5.41-.262.913-.349 4.63-1.936 8.26-3.526 3.629-1.59 7.037-3.079 7.574-3.31.701-.301.603.213-.347 1.822Zm72.192 2.321a128.434 128.434 0 0 1-3.719 4c-.947.963-2.918 3.095-4.381 4.739-1.462 1.644-2.811 2.837-2.997 2.651-.186-.185.596-2.162 1.741-4.392 1.672-3.26 2.883-4.563 6.179-6.652 5.029-3.188 5.768-3.268 3.177-.346Zm-6.92-1.229c-.223.581-.842 1.055-1.374 1.055-1.356 0-1.204-.517.406-1.377 1.121-.598 1.299-.539.968.322Zm-45.08 9.44c-3.079 5.18-6.113 9.63-6.567 9.63-.306 0-.689-1.133-.85-2.518-.335-2.852.46-3.859 5.093-6.456 1.735-.973 2.668-1.236 2.324-.656Zm34.181 1.566c1.98.434 3.818 1.011 4.086 1.283.267.273-.537 2.817-1.787 5.655-1.35 3.062-2.085 5.647-1.812 6.36.255.66.597 1.077.762.927.164-.149 2.805-2.735 5.867-5.746l5.566-5.473 17.412-.069 17.412-.07-.198 5.841-.198 5.842-8.335-.287c-11.875-.408-15.576-.294-16.376.503-.732.731 7.604 14.032 10.192 16.26 1.488 1.282 8.615 2.488 8.615 1.458 0-.359-1.242-1.211-2.758-1.893-1.517-.682-3.196-1.743-3.731-2.357-1.452-1.666-3.985-8.97-3.265-9.413.343-.212 2.288.165 4.321.838 4.006 1.325 5.091 3.197 3.038 5.244-1.536 1.533-1.422 1.659 1.943 2.162 4.327.647 6.797 3.41 7.249 8.107.344 3.564.305 3.655-2.703 6.29-1.679 1.471-4.408 3.329-6.064 4.128-2.748 1.328-3.721 1.412-11.114.965-9.646-.584-11.889-1.426-18.349-6.895-2.579-2.183-4.688-3.551-4.688-3.042 0 1.25 9.545 10.535 12.156 11.823 3.779 1.866 19.495 3.292 23.745 2.155.841-.225 2.545-2.068 3.821-4.133 1.267-2.051 2.534-3.734 2.817-3.742.509-.014-.002 11.914-.59 13.772-.253.8-2.215.896-11.23.551-15.315-.587-32.227-4.294-43.423-9.52-3.88-1.811-4.702-2.521-5.644-4.869-2.476-6.171-4.248-20.792-3.523-29.048l.458-5.197 6.144-4.677c3.38-2.572 6.244-4.642 6.365-4.599.121.043 1.84.433 3.82.866Zm-42.894 7.446c.74 3.446.716 3.535-2.255 8.114-2.154 3.319-4.416 5.656-7.992 8.255-2.742 1.995-4.987 3.29-4.987 2.877 0-.412 2.26-5.043 5.022-10.288 3.646-6.926 5.63-9.937 7.242-10.99l2.22-1.453.75 3.485Zm90.351 12.05c0 .688-.689 1.039-2.042 1.039-2.312 0-3.373-1.026-1.717-1.659 1.946-.745 3.759-.446 3.759.62Zm0 6.236c0 1.494-.28 2.334-.694 2.078-.382-.235-.695-1.171-.695-2.078 0-.908.313-1.843.695-2.079.414-.256.694.584.694 2.079Zm-17.848 7.024c.265.265.483 2.72.483 5.455 0 4.099-.246 5.195-1.394 6.232-.767.691-1.607 1.044-1.869.783-.514-.511.999-10.605 1.807-12.066.27-.487.707-.668.973-.404Zm-3.009.424c-.156 1.433-4.145 11.259-4.571 11.259-.323 0-.884-.842-1.246-1.87-.562-1.594-.281-2.44 1.9-5.716 1.408-2.116 2.87-3.846 3.248-3.846.378 0 .679.077.669.173Zm-66.18 7.625c.305.479 1.705 1.725 3.11 2.769 2.158 1.604 2.675 2.519 3.327 5.885.425 2.193.928 4.714 1.12 5.604.548 2.549-.908 1.136-2.93-2.845-2.722-5.359-4.476-7.433-6.286-7.433-.884 0-1.606.312-1.606.693 0 .381.282.693.628.693.346 0 .479 1.792.295 3.984-.342 4.094 1.761 14.007 4.213 19.853 1.768 4.217 2.177 2.331.545-2.515-3.16-9.384-4.398-17.603-2.986-19.826.428-.674 1.09-.033 2.42 2.34 2.093 3.735 2.247 5.051.811 6.944-1.8 2.374-1.177 3.601.73 1.438.963-1.091 1.816-1.871 1.896-1.732.08.14.678.889 1.33 1.667 1.078 1.288 1.093 1.713.165 4.787-1.165 3.864-1.406 13.174-.323 12.506.382-.235.717-2.514.744-5.064.027-2.549.306-5.259.62-6.021.532-1.29.606-1.301 1.077-.149.475 1.164.34 3.309-.77 12.1-.315 2.508-.215 3.638.325 3.638.438 0 .792-1.145.804-2.598.032-3.869 1.095-1.398 1.668 3.877.541 4.969-.142 5.183-2.408.752-1.18-2.307-2.754-3.647-2.754-2.343 0 .982 2.429 5.014 4.073 6.761 1.227 1.303 2.06 3.247 2.526 5.889.749 4.251 2.342 5.362 3.172 2.212.354-1.341.562-1.488.924-.651 1.16 2.689 3.105 9.939 2.799 10.434-.465.75-2.413-.007-4.244-1.649-1.955-1.754-12.516-23.08-15.815-31.937-3.956-10.621-5.164-25.074-2.418-28.921 1.568-2.195 2.364-2.478 3.217-1.142Zm12.711 8.861c1.72 1.111 3.372 2.108 3.672 2.215.665.238 1.004 4.631 1.894 24.557.856 19.185.854 19.288-.356 16.154-.515-1.333-.96-3.438-.99-4.676-.07-3.014-1.262-2.87-1.844.225-.257 1.362-.706 2.219-1 1.905-.293-.314-1.21-6.34-2.038-13.389-1.486-12.647-3.184-24.462-3.955-27.528-.534-2.123.729-1.976 4.617.537Zm11.229 5.591c2.546 1.086 7.235 2.732 10.42 3.656l5.79 1.68-3.341 1.443c-4.433 1.914-12.984 7.465-12.984 8.429 0 .963.21.865 4.948-2.335 4.267-2.882 9.672-4.617 14.425-4.629l3.05-.009-.439 3.638c-.241 2.001-.44 4.105-.443 4.677-.004.88-1.332 1.004-8.688.808-10.316-.276-10.688.016-7.088 5.549 4.26 6.547 6.992 8.567 12.631 9.338 1.726.236 3.138.646 3.138.912 0 .465-4.677-.045-9.725-1.059-1.686-.339-2.218-.266-1.736.237.382.399 3.351 1.161 6.599 1.691l5.904.966.807 7.581c.443 4.169 1.319 10.501 1.945 14.07.627 3.569.998 6.63.825 6.802-.654.653-18.286 1.009-20.943.423-2.628-.579-2.887-.874-4.77-5.432-1.583-3.83-2.178-6.809-2.895-14.518-.943-10.129-2.714-45.331-2.299-45.688.132-.113 2.322.684 4.869 1.77Zm35.349 10.399c3.227 1.572 9.404 4.329 13.727 6.129 4.322 1.8 7.851 3.555 7.841 3.899-.058 2.191-6.154-.175-22.3-8.656-8.958-4.705-8.372-5.804.732-1.372Zm13.161-.644c4.012.335 8.975.782 11.032.992l3.737.382-.379 3.672c-.404 3.897-1.857 7.363-4.126 9.841-.761.83-1.245 1.92-1.077 2.423.184.551 1.11-.244 2.332-2.003 3.235-4.657 4.191-3.642 1.6 1.698-1.554 3.201-1.295 4.807.412 2.557.904-1.192 1.015-.396 1.034 7.459.021 8.316-.062 8.854-1.522 9.873-2.537 1.773-3.531 1.428-2.389-.826 1.324-2.613 1.939-8.309 1.228-11.362-.325-1.391-1.548-3.729-2.719-5.197-1.171-1.467-2.325-3.47-2.565-4.451-.39-1.597-.127-1.903 2.528-2.944 1.873-.733 2.72-1.403 2.302-1.819-.364-.362-4.725-2.341-9.691-4.397-9.462-3.917-13.546-5.845-13.546-6.396 0-.397 2.246-.302 11.809.498Zm-19.797.403c4.541 1.768 9.334 5.708 12.751 10.48 1.201 1.676 2.184 2.576 2.184 2.001 0-.577-.942-2.231-2.093-3.675-1.151-1.445-2.011-2.703-1.911-2.794.101-.092 3.222 1.276 6.936 3.038 5.718 2.714 6.818 3.503 7.179 5.142.235 1.065 1.545 3.565 2.911 5.555 3.629 5.287 3.912 10.034.954 16.025-1.93 3.913-2.772 4.791-7.657 7.99-6.283 4.114-15.515 8.337-18.253 8.35-1.699.008-1.93-.324-2.659-3.825-.878-4.22-2.748-22.596-2.366-23.257.132-.228 2.763-.609 5.847-.846 3.084-.237 6.143-.765 6.797-1.173.921-.575.564-.66-1.59-.378-6.291.824-11.077 1.066-9.725.49.764-.326 3.727-.803 6.584-1.06 2.857-.257 5.514-.81 5.904-1.229.513-.551-.113-.639-2.25-.318-1.629.245-5.38.606-8.336.803-4.923.329-5.177.284-3.017-.529 2.964-1.116 5.039-4.704 4.442-7.681-.36-1.795-.245-2.033.788-1.637.664.254 1.479.463 1.81.463.331 0 2.494 1.57 4.806 3.489 4.257 3.534 5.498 3.902 2.641.783l-1.563-1.706 1.564.384c2.764.679.884-.923-3.519-3-2.32-1.094-5.909-2.367-7.975-2.828-2.066-.461-3.897-1.207-4.07-1.657-.173-.449-.22-2.542-.104-4.65l.211-3.832 2.779 1.082Zm-4.515 3.274c0 2.541-.303 4.503-.695 4.503-.392 0-.695-1.962-.695-4.503 0-2.541.303-4.504.695-4.504.392 0 .695 1.963.695 4.504Zm-8.336 9.137c0 3.27 2.394 6.803 5.557 8.202l2.431 1.075-3.227-.35c-5.38-.583-8.804-2.358-11.771-6.102-3.88-4.897-3.687-5.38 2.148-5.38h4.862v2.555Zm13.496-.774c1.14 1.137 1.386 2.883.67 4.744-.682 1.773-1.487 1.264-1.828-1.155-.175-1.239-.555-2.798-.845-3.465-.662-1.522.527-1.595 2.003-.124Zm-3.473 0c1.268 1.266 1.381 2.621.372 4.5-.772 1.439-4.143 1.888-4.143.551 0-.435-.547-1.189-1.216-1.677-1.138-.83-1.108-1 .468-2.674 1.943-2.063 2.989-2.225 4.519-.7Zm-7.052-.665c.727.725.618 5.813-.124 5.813-1.188 0-2.11-3.95-1.209-5.18.457-.623 1.057-.909 1.333-.633Zm6.059 2.695c0 .713-.455 1.053-1.215.907-1.465-.281-1.372-1.511.137-1.824.629-.131 1.078.251 1.078.917Zm2.423 4.489c.769 1.241-.18 1.727-3.213 1.648-2.766-.073-4.772-1.167-3.841-2.096.268-.267.857-.116 1.309.335 1.029 1.027 3.495 1.063 4.494.067.544-.543.894-.529 1.251.046Zm-2.191 6.759c.181.291.548 3.804.817 7.805.268 4.002.924 9.614 1.456 12.472.533 2.858.959 5.82.947 6.582-.045 3.014-1.232-.823-2.356-7.622-2.063-12.481-2.484-21.861-.864-19.237ZM75.89 374.664c.865.652 1.35 2.813 1.904 8.496 1.364 13.99 3.6 22.921 9.368 37.415 6.272 15.762 6.71 17.969 6.656 33.603-.054 15.743-1.507 21.254-6.612 25.073l-1.563 1.168-.021-15.372c-.03-20.549-1.322-30.148-5.161-38.32-6.27-13.344-7.687-20.914-7.387-39.45.133-8.211.477-13.098.933-13.249.398-.132 1.245.154 1.883.636Zm5.561 10.133c1.305 3.662 1.554 7.489.589 9.009-.392.616-.896-1.127-1.447-4.994-1.028-7.23-.75-8.533.858-4.015Zm9.415 20.881c3.45 7.05 7.75 15.108 9.558 17.906l3.288 5.088-.431 10.155-.431 10.155-2.773 2.598c-1.526 1.429-3.05 2.598-3.389 2.598-.339 0-.811-3.351-1.05-7.448-.514-8.833-1.864-14.167-6.53-25.809-5.107-12.741-6.659-18.345-6.102-22.046 1.052-6.999 1.15-6.915 7.86 6.803ZM74.89 417.803c.883 2.287 2.802 6.807 4.263 10.047 3.68 8.15 5.148 20.413 4.799 40.034-.242 13.587-.286 13.937-1.93 15.682-.924.982-1.764 1.702-1.866 1.601-.102-.101-.327-9.999-.502-21.996-.174-11.996-.662-23.715-1.085-26.041-.422-2.328-1.877-6.625-3.232-9.552-2.128-4.594-2.437-5.909-2.259-9.627l.206-4.305 1.606 4.157Zm.385 13.71c.625 1.634 1.493 5.608 1.928 8.834 1.05 7.773 1.209 45.367.197 46.377-.985.984-2.913-8.939-3.79-19.501-.82-9.894-.874-38.681-.073-38.681.33 0 1.112 1.337 1.737 2.971Zm34.131 2.662c1.528 2.012 7.368 8.27 12.977 13.908 10.169 10.221 11.063 11.655 3.512 5.628-9.197-7.339-19.876-19.252-19.492-21.744.187-1.212.679-.851 3.003 2.208Zm-13.199 44.033c.765.171 3.734 1.049 6.6 1.95 10.323 3.247 16.359 4.593 23.347 5.206 3.911.342 8.228 1.089 9.594 1.658 2.109.879 2.485 1.368 2.485 3.231 0 2.406.199 2.394-5.46.323-1.666-.609-6.667-1.39-11.114-1.735-5.829-.453-10.315-1.298-16.074-3.03-9.316-2.802-11.126-3.203-15.108-3.347-1.624-.058-2.953-.308-2.953-.556 0-.247.877-1.287 1.949-2.311 1.86-1.778 3.496-2.115 6.734-1.389Zm-3.079 5.807c2.127.312 7.559 1.683 12.071 3.048 5.837 1.764 10.472 2.664 16.065 3.119 4.325.352 9.13 1.018 10.679 1.481 2.647.791 2.817.999 2.817 3.462 0 1.442-.308 2.811-.683 3.043-.376.231-3.198-.372-6.272-1.34-4.013-1.265-8.374-1.96-15.467-2.465-16.344-1.163-24.245-2.816-27.418-5.732-1.97-1.811-1.975-2.908-.02-4.274 1.673-1.169 2.391-1.199 8.228-.342Zm-10.138 7.772c1.056 2.751 5.186 11.505 9.178 19.454 3.992 7.948 8.519 17.302 10.059 20.785 3.025 6.839 11.191 30.278 10.715 30.753-.289.288-4.211-5.583-11.729-17.561-7.718-12.297-18.116-35.791-22.714-51.324-1.179-3.981-1.187-4.348-.115-5.264 2.399-2.049 2.682-1.855 4.606 3.157Zm4.637.514c1.84 1.072 10.435 2.681 16.69 3.125 7.933.563 8.698.778 9.153 2.569.218.861 2.615 5.41 5.326 10.109 2.71 4.699 5.905 11.031 7.098 14.072l2.17 5.528-1.176 7.407c-.647 4.073-1.488 12.863-1.868 19.532-.939 16.475-1.431 20.882-2.297 20.594-1.927-.641-7.607-12.511-11.156-23.31-4.79-14.58-8.321-22.794-17.673-41.121-9.734-19.071-10.347-20.88-6.267-18.505Zm50.073 1.762c.216.216.248 2.321.071 4.677-1.054 14.044-1.82 19.744-3.698 27.495-1.264 5.215-2.372 12.245-2.786 17.668-1.634 21.441-3.115 33.983-4.223 35.77-.473.765-.761.704-1.509-.316-.762-1.039-.778-3.117-.089-11.775.46-5.783 1.151-15.035 1.535-20.561.53-7.605 1.46-13.329 3.829-23.557 1.722-7.431 3.685-17.175 4.363-21.652 1.155-7.618 1.517-8.737 2.507-7.749Zm-2.232 35.694c.025 3-3.702 55.016-3.965 55.332-.14.17-.914-.349-1.72-1.152-1.451-1.448-1.455-1.528-.348-8.623 1.225-7.856 2.224-17.766 2.921-28.986.6-9.64 3.061-22.744 3.112-16.571Z" clip-rule="evenodd"/></svg>