<svg xmlns="http://www.w3.org/2000/svg" width="229" height="376" fill="none"><path d="M10.072 23.786C7.507 20.49.902 4.354.742.996c-.02-.423 4.442.798 9.912 2.713 12.85 4.498 21.694 5.599 49.177 6.128 12.656.244 22.78 1.147 23.133 2.063 1.129 2.916 29.509 22.569 46.195 31.987 8.96 5.058 23.305 11.691 31.877 14.74 18.278 6.504 55.247 16.887 58.772 16.508 1.346-.144 4.296 1.024 6.556 2.598 2.26 1.572 3.251 2.917 2.2 2.986-1.05.07-2.389-.575-2.977-1.432-.587-.857-1.836-1.522-2.773-1.478-1.077.052-.928.936.404 2.394 1.764 1.932 1.552 2.34-1.295 2.474-1.872.09-3.439-.56-3.481-1.443-.042-.883-.28-2.114-.531-2.734-.252-.62-10.725-4.014-23.275-7.538-29.796-8.37-46.95-14.87-65.742-24.913-15.367-8.212-38.603-23.793-44.235-29.661-1.65-1.72-3.477-2.607-4.056-1.972-1.585 1.745 21.314 20.854 34.652 28.916 22.185 13.411 75.387 33.562 94.617 35.838 5.908.699 6.826 1.326 6.711 4.585-.074 2.076-.668 3.48-1.32 3.118-1.376-.764-2.813 1.463-3.574 5.532-.293 1.566-1.184 5.773-1.98 9.349a528.88 528.88 0 0 0-2.759 13.402c-.721 3.793-1.891 6.926-2.602 6.96-1.897.089 3.725-24.825 8.455-37.469.756-2.02-1.097-2.85-9.226-4.131-16.191-2.55-28.064-6.5-54.036-17.98-31.899-14.1-50.788-26.155-68.34-43.613l-6.751-6.715-20.13-.544c-26.787-.725-41.77-3.11-48.209-7.672C.964.346 7.233 14.847 19.037 33.89c26.166 42.215 56.898 128.578 58.609 164.706l.421 8.914 14.866 12.614c33.269 28.227 75.786 84.895 98.83 131.721 3.742 7.606 8.099 13.825 11.579 16.528 3.069 2.383 4.832 4.399 3.918 4.478-4.632.402-12.448-9.373-20.398-25.51-4.687-9.51-9.078-17.989-9.76-18.841-.682-.852-4.009-6.124-7.392-11.714-3.383-5.591-7.781-12.621-9.773-15.624a576.343 576.343 0 0 1-6.327-9.758c-12.091-19.223-62.212-73.104-73.655-79.182-3.86-2.048-4.246-3.177-5.02-14.641-.463-6.831-2.331-18.815-4.157-26.628-3.514-15.054-17.196-59.6-19.932-64.894-.892-1.727-3.473-8.12-5.735-14.206-5.844-15.725-20.092-45.003-26.395-54.24-2.944-4.315-5.373-8.263-5.398-8.777-.024-.512-1.486-2.784-3.246-5.05Z" fill="#FA007A"/><path d="M39.983 40.023c-2.45 2.115-2.51 2.062-.636-.578 1.139-1.602 2.343-2.926 2.675-2.942 1.321-.062.535 1.295-2.04 3.52ZM214.56 132.49c.08-5.819 4.769-26.814 8.737-39.111 1.973-6.116 3.864-10.87 4.204-10.56.338.309-.633 4.387-2.162 9.063-1.527 4.675-4.489 17.441-6.584 28.366-2.095 10.925-7.374 31.253-11.731 45.173-4.915 15.697-8.218 29.597-8.697 36.605-1.61 23.527 3.522 102.953 9.169 141.925 4.008 27.653 4.362 31.965 2.627 32.047-.994.048-1.76-1.184-1.705-2.734.367-10.103-1.545-12.792-6.601-9.287-2.517 1.743-3.813-5.157-9.671-51.471-1.723-13.631-4.03-46.16-5.126-72.287l-1.992-47.502 4.57-13.746c2.513-7.56 4.367-14.333 4.119-15.05-.248-.719.437-.812 1.523-.21 1.357.752 1.602.25.785-1.611-.685-1.562-.517-2.332.398-1.825 1.581.876 12.194-22.757 13.609-30.302.41-2.185-.176-4.988-1.305-6.229-1.778-1.956-1.582-1.994 1.473-.287 2.889 1.615 3.326 2.799 2.434 6.578-.639 2.705-.471 4.579.405 4.538.82-.039 1.504-.975 1.521-2.083Z" fill="#FA007A"/><path d="M203.273 131.382c-1.717 3.3-2.121 1.532-.915-4.009.445-2.046.932-3.517 1.082-3.268.15.25 1.398 1.806 2.774 3.459 1.376 1.653 1.619 2.531.54 1.951-1.106-.594-2.624.22-3.481 1.867ZM196.309 157.255c-.086-1.811 3.826-18.999 4.669-20.522 2.667-4.81 2.585 3.611-.089 9.167-.952 1.978-1.662 5.046-1.578 6.816.084 1.772-.549 3.702-1.406 4.289-.856.588-1.575.699-1.596.25Z" fill="#FA007A"/><path fill-rule="evenodd" clip-rule="evenodd" d="M43.354 198.505c-.355.681-.89 6.859-1.19 13.733l-.547 12.493 7.096 11.065c3.902 6.084 7.125 11.72 7.163 12.526.129 2.727 8.074 1.104 11.15-2.278 3.788-4.166 3.763-4.48-1.556-20.253-3.377-10.016-6.005-14.635-11.8-20.755-7.416-7.833-9.086-8.89-10.316-6.531Zm.52 14.046c.453-5.329.62-10.762.371-12.078-.249-1.315 2.92.987 7.047 5.115 5.816 5.823 8.568 10.438 12.26 20.568 2.616 7.182 4.796 13.856 4.842 14.83.117 2.456-2.527 2.364-2.864-.099-.963-7.023-8.559-24.451-13.22-30.335-3.043-3.84-5.859-6.966-6.257-6.947-.4.019.543 1.604 2.095 3.52 6.751 8.343 8.88 14.448 8.852 25.381-.016 5.938-.51 10.808-1.096 10.821-.588.014-3.72-4.726-6.96-10.534-5.498-9.853-5.837-11.206-5.07-20.242Z" fill="#FA007A"/></svg>