<?xml version="1.0" encoding="UTF-8"?> <svg xmlns="http://www.w3.org/2000/svg" width="417" height="381" viewBox="0 0 417 381" fill="none"> <path fill-rule="evenodd" clip-rule="evenodd" d="M137.122 4.5943C136.383 4.80241 135.623 6.68318 135.435 8.77336C135.129 12.15 135.944 13.588 142.728 21.6391C156.398 37.8615 162.361 49.1364 163.314 60.5596C163.719 65.4107 164.196 66.7161 165.439 66.3672C166.32 66.1198 166.627 65.5919 166.122 65.1943C165.616 64.7967 165.033 62.574 164.825 60.2551C163.871 49.6409 156.884 36.5012 143.71 20.5533C137.81 13.408 136.201 10.7567 136.64 8.90074C137.499 5.27595 141.124 5.72172 156.504 11.3404C172.208 17.0777 174.247 17.4468 175.523 14.7823C176.392 12.97 176.747 12.7674 178.806 12.9146C179.236 12.9446 178.977 12.5017 178.231 11.9283C177.148 11.0971 177.349 10.687 179.223 9.89734C181.334 9.00817 182.434 9.83569 190.127 18.1021C202.297 31.1751 219.623 46.3868 228.093 51.4348C232.079 53.8099 235.858 55.8013 236.492 55.8595C237.126 55.9177 242.948 62.9209 249.429 71.4208C263.974 90.4991 281.865 111.124 301.31 131.228C303.679 133.678 308.818 139.348 312.73 143.828C316.642 148.308 323.009 155.014 326.879 158.731C330.749 162.447 334.504 166.931 335.221 168.693C335.939 170.456 339.814 176.029 343.832 181.079C347.85 186.128 350.897 190.781 350.603 191.418C350.309 192.056 351.715 193.292 353.727 194.165C357.213 195.678 360.927 200.91 360.659 203.929C360.591 204.692 357.024 202.973 351.881 199.701C341.662 193.198 329.549 188.201 317.191 185.392C308.516 183.419 308.237 183.264 306.925 179.719C305.205 175.07 305.319 174.138 307.528 174.804C317.935 177.942 333.699 183.519 337.961 185.571C340.888 186.98 343.836 188.005 344.511 187.846C345.945 187.511 331.929 181.14 325.215 179.072C322.692 178.296 318.799 177.042 316.562 176.286C314.326 175.528 310.747 174.439 308.61 173.863C304.938 172.875 304.563 172.36 301.835 164.575C300.247 160.043 298.78 155.265 298.576 153.957C297.864 149.398 295.134 147.775 285.049 145.916C266.557 142.507 246.475 136.648 227.733 129.194C222.238 127.009 217.569 125.206 217.358 125.186C217.146 125.167 217.03 124.542 217.098 123.798C217.48 119.631 177.821 70.889 170.193 66.1503C169.268 65.5751 171.092 67.8104 174.248 71.117C189.797 87.4137 216.302 121.049 216.02 124.125C215.785 126.68 209.331 120.515 201.843 110.584C194.222 100.478 177.284 81.0297 168.557 72.3684C166.809 70.6325 165.709 68.7723 166.114 68.2355C166.54 67.6704 166.146 67.4576 165.18 67.7285C162.721 68.4205 163.031 69.1285 167.73 73.5469C170.074 75.7525 171.8 77.7152 171.565 77.91C170.593 78.7177 133.249 63.6059 123.781 58.5751C114.527 53.6558 112.941 53.1297 107.354 53.1227L101.171 53.1142L93.1938 45.1898C88.8054 40.8312 79.7699 30.8318 73.1156 22.9682L61.0149 8.67215L53.0808 6.67667C48.7168 5.57872 42.4684 3.73803 39.1952 2.58657C35.9229 1.4352 33.0687 0.638962 32.8542 0.817881C32.2598 1.31106 34.5154 9.86945 36.4199 14.3428C37.3465 16.5217 38.7709 20.4826 39.584 23.1445C43.8343 37.0542 43.5839 36.6424 49.6207 39.6689C60.4918 45.1203 64.8132 47.8001 64.3681 48.813C63.3385 51.1572 52.7598 55.8767 44.8248 57.5315C40.1339 58.5099 28.2459 60.1269 18.4061 61.1249C3.92099 62.5932 0.48351 63.2644 0.347089 64.6474C0.255468 65.5882 5.0461 71.0227 11.0163 76.7485C21.0246 86.3459 25.8736 91.9782 43.2448 114.176C46.7416 118.646 50.6207 122.627 51.8651 123.024C53.1093 123.421 58.7039 124.654 64.2971 125.766C89.7797 130.827 126.421 143.858 140.25 152.778C143.71 155.01 146.394 155.726 154.863 156.675C165.678 157.887 183.163 163.379 187.76 167.009C190.792 169.402 205.494 197.207 211.521 211.947C215.191 220.923 216.654 226.241 217.418 233.385L218.433 242.886L229.903 251.377C243.556 261.486 269.093 287.923 279.419 302.637C281.193 305.167 282.705 305.971 287.283 306.827C290.4 307.409 297.029 309.676 302.016 311.865C307.002 314.053 312.58 316.177 314.41 316.584C317.686 317.311 346.444 334.472 363.856 346.089C377.555 355.229 398.187 369.738 399.79 371.359C400.581 372.158 403.568 374.771 406.428 377.163C411.397 381.321 411.722 381.442 413.775 379.905C416.016 378.227 417.011 374.54 415.266 374.38C414.713 374.329 414.443 374.934 414.667 375.725C414.891 376.516 414.332 377.67 413.425 378.291C412.052 379.23 410.611 377.941 404.831 370.613C388.059 349.349 372.104 325.982 356.325 299.575C350.102 289.162 344.767 280.385 344.47 280.07C343.702 279.258 347.799 287.893 349.137 289.907C353.562 296.565 358.542 306.687 357.847 307.609C357.352 308.265 357.491 308.482 358.185 308.137C359.592 307.44 363.462 312.993 362.477 314.299C362.102 314.796 362.442 316.418 363.233 317.903C364.024 319.388 364.309 320.584 363.865 320.56C363.422 320.537 363.834 321.068 364.781 321.742C365.727 322.415 366.459 323.437 366.407 324.012C366.354 324.587 365.757 324.668 365.08 324.193C364.365 323.691 364.176 323.757 364.628 324.352C365.058 324.914 365.909 325.42 366.522 325.477C367.134 325.533 367.682 326.433 367.738 327.476C367.827 329.089 367.616 329.148 366.331 327.87C365.5 327.043 364.566 326.578 364.256 326.837C363.947 327.096 363.623 326.125 363.537 324.68C363.452 323.235 362.939 321.854 362.398 321.612C361.856 321.369 361.691 320.804 362.029 320.355C362.368 319.906 361.667 318.577 360.474 317.401C359.279 316.225 358.213 314.56 358.104 313.703C357.995 312.844 357.486 311.945 356.971 311.705C356.456 311.465 356.283 310.94 356.587 310.537C356.89 310.135 356.459 309.743 355.63 309.667C354.434 309.557 354.488 310.227 355.895 312.915C358.705 318.286 360.301 323.342 359.515 324.383C359.118 324.91 359.35 325.264 360.032 325.168C360.713 325.073 361.613 325.732 362.031 326.632C362.449 327.533 364.77 332.282 367.19 337.186C369.61 342.091 371.279 346.36 370.9 346.674C370.523 346.988 370.709 347.291 371.313 347.346C371.919 347.402 372.623 348.183 372.878 349.082C373.255 350.416 372.98 350.48 371.385 349.431C370.311 348.724 369.475 347.668 369.529 347.084C369.582 346.5 369.166 346.251 368.604 346.53C368.041 346.81 367.327 346.529 367.016 345.906C366.706 345.284 366.026 344.986 365.505 345.245C364.985 345.503 364.326 345.247 364.041 344.677C363.756 344.106 363.991 343.407 364.563 343.123C365.135 342.839 365.857 343.115 366.167 343.738C366.478 344.36 367.269 344.603 367.925 344.277C368.686 343.899 368.768 344.148 368.151 344.965C367.505 345.822 367.614 346.032 368.481 345.602C370.067 344.814 364.887 336.387 362.889 336.504C359.559 336.7 358.657 337.982 360.308 340.175C361.817 342.18 362.056 342.219 363.99 340.771C365.127 339.919 366.014 339.704 365.96 340.293C365.906 340.881 365.187 341.825 364.362 342.389C362.41 343.723 351.216 336.578 352.505 334.821C352.967 334.189 352.496 334.241 351.456 334.936C349.714 336.099 349.143 335.636 349.713 333.525C349.839 333.062 349.445 332.931 348.838 333.232C348.232 333.534 341.366 329.839 333.582 325.024C324.004 319.097 317.578 315.823 313.7 314.89C310.549 314.132 305.967 312.371 303.52 310.976C301.072 309.58 296.925 307.686 294.303 306.766C291.682 305.845 289.591 304.52 289.655 303.819C289.854 301.656 278.101 285.913 271.242 279.154C247.552 255.809 238.553 245.091 226.274 225.596C222.728 219.965 219.702 215.46 219.55 215.586C219.398 215.711 219.899 218.687 220.663 222.199C221.426 225.71 222.551 231.285 223.163 234.586L224.275 240.587L240.265 254.312C258.294 269.787 279.668 292.268 278.535 294.562C278.141 295.359 278.183 295.832 278.629 295.613C279.076 295.394 281.591 297.473 284.22 300.231L289 305.249L285.781 304.974C283.961 304.82 281.891 303.808 281.016 302.647C278.518 299.329 279.401 298.597 282.259 301.616L284.886 304.391L282.656 301.344C281.428 299.668 280.068 298.473 279.633 298.69C278.253 299.375 275.549 294.865 276.519 293.497C277.021 292.788 277.027 292.511 276.531 292.881C275.427 293.707 270.896 289.46 257.262 274.816C244.929 261.569 237.836 254.904 231.454 250.568C220.207 242.925 219.161 241.702 218.926 235.92C218.435 223.851 213.081 209.28 200.127 184.757C195.977 176.901 189.627 165.734 186.015 159.941C182.403 154.147 176.571 144.674 173.054 138.889C165.828 127.001 166.6 128.088 153.141 110.815C142.708 97.4248 134.122 84.3944 135.163 83.5304C135.497 83.2526 139.65 86.1574 144.391 89.986C155.973 99.3369 168.477 107.941 181.687 115.651C193.705 122.665 214.886 133.318 218.512 134.171C219.777 134.468 223.242 135.718 226.213 136.947C229.183 138.176 231.815 139.015 232.06 138.811C232.306 138.606 228.988 136.999 224.687 135.239C195.619 123.345 169.23 107.855 143.677 87.6886C134.309 80.295 133.282 79.079 135.801 78.3717C136.851 78.0761 141.514 80.9785 148.009 85.9705C170.49 103.251 200.328 120.077 226.775 130.386C246.029 137.892 264.013 143.061 287.607 147.87L293.66 149.103L291.341 151.027C288.255 153.587 281.346 152.773 262.283 147.605C254.267 145.431 247.366 143.662 246.948 143.673C243.741 143.758 269.432 151.158 283.148 154.099C289.139 155.384 289.569 155.332 290.811 153.164C292.251 150.648 294.562 150.352 295.866 152.518C296.324 153.279 298.321 158.754 300.306 164.685C304.91 178.452 319.547 216.379 322.472 222.124C323.701 224.537 326.381 230.428 328.429 235.215C332.657 245.106 333.868 247.497 348.264 274.386C359.707 295.758 373.19 317.939 385.868 336.247C397.65 353.261 412.571 373.074 413.205 372.548C413.504 372.301 411.614 369.444 409.006 366.2C404.021 360.002 384.467 332.523 378.984 324.01C360.223 294.883 341.134 260.364 329.049 233.704C320.268 214.336 309.708 188.155 309.887 186.2C309.964 185.369 310.864 185.142 312.302 185.59C313.562 185.984 317.824 187.08 321.772 188.028C331.538 190.37 343.638 195.694 352.198 201.415C356.11 204.029 359.801 206.213 360.399 206.268C363.429 206.546 360.613 197.936 356.046 192.957C346.707 182.777 338.887 172.937 337.072 169.085C335.933 166.669 331.196 160.991 326.545 156.467C321.894 151.943 315.538 145.206 312.42 141.499C309.302 137.79 302.451 130.219 297.195 124.674C279.826 106.347 263.017 86.8455 250.735 70.7756C243.451 61.2433 237.606 54.5777 236.078 54.059C232.564 52.8655 223.304 47.052 217.611 42.4639C212.582 38.4104 197.199 23.9332 193.052 19.3511C180.916 5.94043 180.384 5.70232 175.645 11.5947C173.923 13.7363 171.891 15.4314 171.131 15.3616C170.371 15.2919 167.242 14.1086 164.176 12.7305C161.109 11.3534 154.991 9.11908 150.58 7.76595C139.507 4.36686 138.65 4.16486 137.122 4.5943ZM142.073 11.853C144.649 14.5022 148.773 19.1124 151.236 22.0994C153.7 25.0853 155.755 27.1054 155.802 26.5892C155.916 25.3474 139.754 7.25383 138.422 7.13149C137.854 7.07938 139.496 9.20379 142.073 11.853ZM34.3002 2.94517C34.2472 3.52256 36.648 11.1848 39.6341 19.9733C44.9038 35.4747 45.1893 36.0173 49.2298 38.1727C51.5208 39.395 56.3089 42.0497 59.8702 44.0712C64.8599 46.9044 68.244 48.0127 74.6236 48.9037C79.1767 49.5402 85.6847 50.5737 89.0857 51.2017L95.2693 52.3434L92.2893 49.1731C90.6498 47.4305 86.1432 43.1259 82.2728 39.6084C71.1464 29.4954 69.87 28.0892 64.7042 20.2578C59.9568 13.0616 59.6515 12.8141 53.3257 11.0405C45.2057 8.76347 35.8219 5.0585 36.5819 4.42895C36.8961 4.16824 39.2512 4.8873 41.815 6.02589C44.3788 7.16552 48.2215 8.18738 50.3528 8.2963C53.8838 8.47835 53.9542 8.43047 51.1509 7.76538C49.4585 7.36328 44.9959 5.87787 41.2352 4.46422C37.1807 2.94101 34.3574 2.32217 34.3002 2.94517ZM159.724 33.8747C160.159 34.6652 162.001 38.8548 163.819 43.1853C165.638 47.5149 167.171 50.6965 167.227 50.2533C167.409 48.8138 162.459 37.0915 160.672 34.7333C159.716 33.4705 159.289 33.0832 159.724 33.8747ZM90.7039 44.9925C94.3612 49.1072 97.7543 52.5141 98.2444 52.5643C99.2266 52.6649 90.6597 43.2019 86.6096 39.7128C85.2042 38.5018 87.0466 40.8777 90.7039 44.9925ZM167.662 53.7209C167.916 55.1816 168.276 58.2722 168.462 60.5891L168.801 64.8016L169.217 61.1811C169.446 59.1898 169.086 56.0992 168.417 54.3129C167.443 51.7104 167.293 51.5932 167.662 53.7209ZM63.689 51.871C56.424 56.8791 45.0833 59.7379 23.814 61.9256C8.18842 63.5328 1.3781 64.7191 1.27425 65.85C1.23332 66.2958 1.55527 66.6933 1.98866 66.7331C3.37095 66.86 21.8914 85.5704 27.5968 92.6047C30.62 96.3319 36.6617 104.087 41.0228 109.839C46.0702 116.496 49.5076 120.14 50.4813 119.865C51.3226 119.629 51.7068 119.839 51.3346 120.332C50.4026 121.567 52.8638 122.386 62.4841 124.041C72.3871 125.745 98.7637 133.236 111.755 138.037C122.677 142.071 138.278 149.548 142.691 152.861C144.385 154.132 146.116 154.886 146.538 154.536C148.441 152.956 172.788 158.02 180.975 161.696C184.005 163.057 186.613 164.064 186.768 163.933C186.924 163.802 186.262 162.517 185.296 161.077C184.33 159.637 180.927 157.328 177.735 155.948C172.706 153.773 174.609 153.743 180.017 155.912C181.592 156.544 181.355 155.647 178.797 151.308C177.05 148.344 174.067 143.19 172.167 139.853C168.625 133.63 164.898 128.449 154.053 114.669C145.716 104.078 138.468 93.5827 134.202 85.9259C130.725 79.6868 130.708 79.586 132.844 77.6266C134.476 76.13 135.748 75.8642 138.038 76.5438C139.707 77.04 141.293 77.8567 141.564 78.3603C142.926 80.897 161.826 94.1783 178.041 103.992C189.783 111.1 192.256 112.514 199.451 116.236C201.102 117.09 203.275 118.313 204.281 118.953C207.701 121.128 206.984 119.416 202.121 113.794C199.454 110.708 197.584 108.874 197.966 109.717C198.435 110.75 198.287 110.968 197.512 110.386C196.881 109.912 196.719 109.055 197.151 108.482C197.585 107.907 192.686 101.411 186.228 93.9968C176.522 82.8538 174.1 80.6182 172.08 80.9313C170.579 81.1635 169.686 80.8422 169.755 80.0948C169.816 79.4262 169.035 78.9394 168.02 79.0114C167.005 79.0844 165.608 78.7126 164.915 78.1848C164.224 77.6582 160.602 76.0055 156.868 74.5117C149.833 71.6966 148.114 71.0359 137.922 67.2296C134.578 65.9807 131.439 64.4756 130.945 63.8846C130.452 63.2947 129.323 62.7427 128.437 62.6582C127.552 62.5738 123.79 60.5819 120.079 58.2309C115.239 55.1659 112.81 54.1734 111.492 54.7246C110.421 55.1719 103.395 54.5519 94.6631 53.2379C69.7094 49.4832 67.3064 49.3775 63.689 51.871ZM74.365 52.2899C74.8644 52.8103 77.3206 54.0593 79.8224 55.0636C82.3241 56.0689 85.486 57.5886 86.8488 58.4413C90.5952 60.7861 104.952 67.4972 108.706 68.6594C112.297 69.771 112.769 69.4474 110.92 67.1399C110.264 66.3207 108.128 63.2688 106.176 60.3581C104.099 57.2602 101.771 54.9882 100.563 54.8773C99.1549 54.748 98.6428 55.1996 98.9539 56.2975C99.6121 58.6264 93.3278 57.8392 84.0019 54.4271C75.8118 51.4297 72.9244 50.7893 74.365 52.2899ZM9.98351 68.6379C12.6471 70.6763 23.0047 82.2115 32.9996 94.2716C51.4354 116.517 58.3002 123.892 44.9461 107.107C25.8519 83.1064 9.5166 65.3336 6.27913 65.0363C5.65242 64.9788 7.3199 66.5996 9.98351 68.6379ZM165.708 80.6023C164.774 81.0654 165.11 81.7569 166.811 82.8759C168.156 83.7614 169.39 85.2525 169.555 86.1906C169.719 87.1288 169.92 86.6611 170.003 85.152C170.109 83.1996 169.701 82.5338 168.587 82.8466C167.625 83.1179 167.334 82.8727 167.833 82.2108C168.881 80.8226 167.448 79.7387 165.708 80.6023ZM172.776 83.3305C171.569 83.9472 171.561 84.2036 172.73 84.7783C173.541 85.1779 174.209 84.8524 174.286 84.0221C174.359 83.2208 174.379 82.5693 174.331 82.5732C174.283 82.5783 173.583 82.9185 172.776 83.3305ZM176.29 85.4825C175.953 85.762 176.527 87.0106 177.565 88.2558C180.008 91.1844 180.691 90.6168 178.554 87.433C177.647 86.0796 176.628 85.202 176.29 85.4825ZM171.23 86.8546C171.21 87.0733 172.108 87.5823 173.224 87.9858C174.341 88.3894 175.032 88.272 174.758 87.7263C174.282 86.772 171.305 86.0367 171.23 86.8546ZM177.027 92.2132C177.534 93.4097 178.182 94.41 178.468 94.4363C178.754 94.4625 178.574 93.5051 178.066 92.3086C177.559 91.1122 176.911 90.1119 176.625 90.0856C176.339 90.0594 176.519 91.0167 177.027 92.2132ZM180.662 91.2737C179.916 91.662 179.684 92.752 180.071 94.0607C180.419 95.2426 180.791 95.6301 180.897 94.9206C181.002 94.2121 181.841 93.7006 182.76 93.785C184.034 93.902 184.23 94.6036 183.579 96.7349C183.11 98.2724 183.033 98.9751 183.407 98.2954C183.911 97.38 184.597 97.395 186.052 98.3523C187.889 99.5611 187.895 99.7958 186.131 102.01C183.947 104.751 184.362 105.143 187.071 102.897C188.54 101.679 189.11 101.641 189.651 102.723C190.033 103.488 190.635 103.728 190.99 103.258C191.961 101.971 182.098 90.5265 180.662 91.2737ZM176.452 95.4261C177.093 96.1999 177.902 96.5952 178.25 96.3052C178.6 96.0153 178.076 95.3829 177.087 94.899C175.658 94.2012 175.527 94.3084 176.452 95.4261ZM181.765 101.488C181.688 102.318 182.047 102.789 182.559 102.534C183.072 102.279 183.263 101.612 182.983 101.051C182.267 99.6177 181.925 99.74 181.765 101.488ZM190.167 105.572C189.457 106.161 194.812 111.66 196.14 111.706C196.459 111.717 195.936 111.011 194.977 110.136C193.687 108.961 193.597 108.454 194.632 108.191C195.401 107.995 195.69 107.399 195.276 106.868C194.861 106.336 194.076 106.491 193.532 107.213C192.735 108.269 192.388 108.176 191.741 106.727C191.3 105.74 190.593 105.22 190.167 105.572ZM136.01 105.173C135.958 105.743 136.41 106.255 137.015 106.31C137.62 106.366 137.87 105.918 137.569 105.316C137.268 104.713 136.816 104.201 136.563 104.178C136.311 104.155 136.062 104.602 136.01 105.173ZM197.378 112.166C196.415 113.13 196.702 113.463 198.641 113.641C200.58 113.819 200.923 113.544 200.151 112.421C199.603 111.623 199.034 110.959 198.888 110.946C198.743 110.933 198.063 111.482 197.378 112.166ZM54.3893 120.211C52.3099 121.581 52.3206 121.601 54.6662 120.722C56.01 120.218 57.1284 119.589 57.1527 119.325C57.2255 118.532 56.6651 118.711 54.3893 120.211ZM64.3721 120.6C66.9025 121.293 70.6123 121.982 72.6161 122.132C75.5952 122.355 75.326 122.171 71.1369 121.12C64.0997 119.355 58.1571 118.899 64.3721 120.6ZM77.2203 123.353C77.7711 123.633 82.3658 124.958 87.4306 126.299C92.4955 127.64 98.0202 129.109 99.7077 129.564C102.282 130.257 102.432 130.199 100.638 129.201C98.2641 127.88 80.911 123.064 78.0452 122.93C77.0402 122.883 76.6695 123.074 77.2203 123.353ZM106.31 131.858C118.347 136.599 135.775 144.437 139.915 146.971C142.584 148.604 144.946 149.792 145.164 149.61C146.803 148.25 115.486 133.353 106.876 131.397L102.769 130.464L106.31 131.858ZM223.9 141.935C223.805 142.472 226.508 146.021 229.906 149.821C233.303 153.621 236.039 157.213 235.985 157.802C235.862 159.149 231.623 160.156 218.842 161.878C201.614 164.199 201.642 164.199 197.879 161.893C195.969 160.724 193.237 159.656 191.808 159.519C189.88 159.336 190.548 160 194.405 162.099C201.231 165.812 201.435 166.2 196.796 166.634L192.871 167.002L197.021 169.884C200.883 172.565 201.735 172.752 209.262 172.575C213.712 172.47 219.994 171.873 223.222 171.247C226.45 170.623 232.213 170.295 236.03 170.519C239.847 170.744 242.752 170.492 242.487 169.962C241.772 168.53 214.556 167.724 209.547 168.987C203.613 170.482 201.315 170.126 201.533 167.75C201.632 166.67 202.448 165.581 203.347 165.329C206.93 164.321 234.272 165.2 242.462 166.584C250.352 167.919 251.591 168.442 255.491 172.091C257.862 174.31 260.539 176.233 261.441 176.366C262.342 176.5 265.406 176.96 268.249 177.39L273.418 178.17L268.38 175.966C258.46 171.625 241.979 159.65 233.232 150.425C229.798 146.805 226.515 143.798 225.936 143.745C225.357 143.691 224.701 143.044 224.477 142.304C224.255 141.565 223.994 141.399 223.9 141.935ZM230.608 153.582C231.538 154.817 232.533 155.849 232.819 155.875C233.105 155.902 232.577 154.912 231.648 153.677C230.718 152.442 229.723 151.41 229.437 151.384C229.151 151.357 229.679 152.347 230.608 153.582ZM289.483 157.298C289.377 158.458 304.958 197.912 312.554 215.715C318.372 229.353 322.95 239.193 333.645 261.044C334.603 263.001 335.62 264.623 335.906 264.649C336.192 264.675 335.52 262.85 334.414 260.592C324.802 240.976 309.002 204.966 300.634 183.605C290.772 158.429 289.628 155.727 289.483 157.298ZM151.621 149.181C143.959 149.276 147.682 150.665 156.685 151.071C163.313 151.369 164.984 151.197 162.771 150.446C159.448 149.318 157.592 149.107 151.621 149.181ZM380.379 177.626C379.917 182.701 380.238 188.818 381.269 194.596C382.701 202.627 383.292 203.988 386.593 206.845C388.635 208.613 390.582 210.084 390.919 210.115C391.256 210.146 391.712 208.221 391.931 205.837C392.33 201.488 386.972 181.577 384.485 178.164C383.811 177.24 383.056 175.167 382.807 173.558C381.974 168.172 381.107 169.624 380.379 177.626ZM166.273 152.256C166.253 152.475 167.371 152.98 168.759 153.379C170.145 153.778 171.07 153.683 170.813 153.168C170.359 152.259 166.347 151.455 166.273 152.256ZM381.526 182.176C380.848 189.566 383.522 201.167 386.732 204.762C388.272 206.486 389.791 207.921 390.108 207.95C391.433 208.072 391.143 201.402 389.66 197.675C388.78 195.462 387.462 190.883 386.73 187.502C386 184.121 384.624 180.511 383.674 179.481C382.03 177.698 381.925 177.83 381.526 182.176ZM382.705 181.284C382.593 182.217 383.239 185.099 384.141 187.688C386.259 193.765 386.477 191.919 384.463 184.957C383.609 182.004 382.818 180.351 382.705 181.284ZM351.812 191.89C352.113 192.492 352.827 193.028 353.399 193.081C353.97 193.133 354.192 192.683 353.891 192.081C353.59 191.478 352.876 190.942 352.304 190.89C351.733 190.837 351.511 191.287 351.812 191.89ZM386.614 195.608C386.561 196.178 386.908 197.386 387.383 198.292C387.858 199.198 388.29 199.473 388.342 198.903C388.395 198.333 388.049 197.125 387.573 196.219C387.098 195.313 386.666 195.038 386.614 195.608ZM388.206 202.549C388.075 203.974 388.257 204.579 388.611 203.893C388.965 203.207 389.072 202.041 388.849 201.301C388.626 200.563 388.337 201.123 388.206 202.549ZM181.783 198.134C184.216 201.179 187.849 206.134 189.856 209.144C192.972 213.819 194.308 214.886 199.007 216.439C202.033 217.44 205.241 218.599 206.135 219.015C207.03 219.431 204.906 216.183 201.415 211.798C197.291 206.619 195.331 203.293 195.819 202.305C196.353 201.224 198.278 203.341 202.486 209.641C205.741 214.513 208.361 218.953 208.31 219.509C208.259 220.064 208.685 220.562 209.256 220.614C211.162 220.789 210.516 218.684 207.36 214.432C205.642 212.117 202.701 207.759 200.824 204.748C196.921 198.484 189.125 193.69 181.718 193.002L177.361 192.597L181.783 198.134ZM181.188 195.597C181.836 196.538 182.896 197.169 183.546 196.998C184.196 196.828 186.986 197.773 189.746 199.1C195.581 201.903 195.261 201.814 195.367 200.665C195.462 199.624 188.467 196.195 183.46 194.828C180.446 194.005 180.16 194.102 181.188 195.597ZM193.666 206.72C192.815 207.154 192.462 207.608 192.884 207.727C193.306 207.846 194.107 208.104 194.666 208.298C195.225 208.493 196.025 208.759 196.446 208.887C196.867 209.016 196.247 209.719 195.069 210.448C193.891 211.178 193.235 212.145 193.612 212.597C194.612 213.795 203.324 216.738 203.4 215.903C203.436 215.515 201.609 213.111 199.34 210.563C196.398 207.258 194.771 206.157 193.666 206.72ZM371.286 281.52C371.453 284.946 372.315 286.535 375.799 289.84C379.736 293.572 380.233 293.782 381.562 292.281C383.359 290.248 382.607 288.251 377.724 282.091C372.967 276.087 371.014 275.914 371.286 281.52ZM372.623 280.303C372.642 280.736 374.872 283.41 377.58 286.246C382.207 291.094 381.84 289.812 376.58 282.757C374.363 279.785 372.552 278.661 372.623 280.303ZM372.219 283.54C372.167 284.11 372.565 284.908 373.104 285.313C373.643 285.718 374.128 285.582 374.18 285.012C374.232 284.442 373.834 283.644 373.295 283.239C372.755 282.834 372.271 282.97 372.219 283.54ZM285.255 290.138C284.917 290.587 285.3 291.014 286.107 291.089C286.915 291.163 287.369 290.812 287.119 290.31C286.869 289.808 286.484 289.381 286.266 289.361C286.048 289.341 285.592 289.691 285.255 290.138ZM404.33 307.648C398.413 311.244 400.732 318.687 407.976 319.352C409.606 319.502 411.095 320.327 411.348 321.224C412.21 324.268 413.481 321.978 414.048 316.358C414.453 312.344 414.158 310.239 413.023 309.046C410.241 306.124 407.55 305.691 404.33 307.648ZM309.279 310.767C309.203 311.597 309.561 312.068 310.074 311.813C310.587 311.558 310.778 310.891 310.498 310.33C309.782 308.897 309.44 309.019 309.279 310.767ZM363.21 314.953C363.603 317.079 371.404 329.657 372.016 329.151C372.62 328.648 369.217 322.445 365.353 317.007C364.041 315.161 363.077 314.238 363.21 314.953ZM322.452 311.895C322.432 312.109 323.176 313.001 324.104 313.876C325.634 315.315 325.674 315.283 324.533 313.52C323.333 311.668 322.53 311.041 322.452 311.895ZM347.639 315.334C347.563 316.164 347.921 316.635 348.434 316.38C348.947 316.125 349.138 315.458 348.857 314.897C348.142 313.464 347.799 313.586 347.639 315.334ZM328.64 319.296C328.256 319.806 328.36 320.535 328.871 320.919C329.382 321.302 330.113 321.199 330.497 320.69C330.882 320.18 330.778 319.451 330.267 319.067C329.756 318.684 329.025 318.787 328.64 319.296ZM335.808 321.016C335.43 321.517 335.497 322.208 335.955 322.552C336.412 322.896 336.85 322.498 336.927 321.668C337.087 319.92 336.773 319.738 335.808 321.016ZM338.736 322.163C338.785 323.066 339.547 323.979 340.428 324.192C341.374 324.42 341.994 323.905 341.942 322.936C341.892 322.034 341.13 321.12 340.25 320.908C339.304 320.68 338.684 321.195 338.736 322.163ZM349.996 322.852C350.375 323.39 350.144 324.37 349.484 325.03C348.757 325.756 348.646 326.501 349.201 326.918C349.706 327.297 350.702 327.022 351.417 326.308C352.408 325.316 352.313 324.638 351.012 323.442C350.076 322.579 349.619 322.315 349.996 322.852ZM350.464 330.228C350.387 331.059 350.746 331.53 351.258 331.274C351.771 331.019 351.963 330.352 351.682 329.791C350.967 328.358 350.624 328.481 350.464 330.228ZM355.618 330.579C354.441 332.124 353.982 334.212 354.828 334.178C355.208 334.162 355.745 334.262 356.02 334.399C358.763 335.767 359.774 335.384 359.867 332.942C359.974 330.123 357.16 328.558 355.618 330.579ZM355.743 331.337C355.45 331.724 355.855 332.681 356.642 333.464C357.428 334.247 358.123 334.717 358.187 334.508C359.098 331.504 359.028 330.886 357.761 330.77C356.943 330.695 356.035 330.95 355.743 331.337ZM366.925 333.708C366.484 334.336 366.539 334.537 367.045 334.158C367.551 333.778 368.507 334.006 369.169 334.665C370.003 335.495 370.61 335.548 371.146 334.838C371.57 334.274 371.778 333.764 371.605 333.703C368.9 332.766 367.586 332.767 366.925 333.708ZM190.514 319.717C187.759 320.222 185.271 320.354 184.985 320.011C184.7 319.668 184.419 319.896 184.362 320.516C184.305 321.137 186.003 323.435 188.134 325.621C191.372 328.943 193.291 329.909 199.806 331.496C206.451 333.114 207.983 333.191 210.19 332.022C213.487 330.275 213.501 329.649 210.313 326.108C208.007 323.548 205.827 322.42 197.555 319.514C196.438 319.122 193.27 319.213 190.514 319.717ZM190.634 321.315L185.845 322.715L189.935 325.846C192.203 327.582 195.54 329.116 197.43 329.29C199.303 329.462 202.425 330.222 204.37 330.978C207.274 332.11 208.157 332.073 209.32 330.767C211.318 328.523 208.936 324.642 205.235 324.111C196.358 322.842 196.136 322.779 198.284 322.16C200.209 321.604 200.231 321.499 198.594 320.694C196.404 319.617 196.45 319.614 190.634 321.315ZM371.042 336.796C370.664 337.296 370.731 337.987 371.189 338.331C371.646 338.675 372.084 338.278 372.161 337.447C372.321 335.7 372.007 335.517 371.042 336.796ZM360.425 337.959C360.102 338.387 360.423 339.322 361.139 340.034C362.125 341.014 362.795 340.978 363.891 339.882C364.687 339.087 365.168 338.384 364.959 338.319C361.827 337.373 360.922 337.301 360.425 337.959ZM190.674 323.117C191.65 323.47 193.288 323.621 194.311 323.451C195.335 323.283 194.537 322.994 192.536 322.811C190.535 322.627 189.698 322.765 190.674 323.117ZM361.452 339.315C361.708 339.826 362.377 340.017 362.939 339.738C364.375 339.025 364.252 338.683 362.5 338.522C361.668 338.446 361.196 338.803 361.452 339.315ZM206.882 326.371C206.862 326.586 207.606 327.478 208.534 328.352C210.064 329.792 210.104 329.759 208.963 327.997C207.763 326.145 206.961 325.518 206.882 326.371ZM373.838 344.181C376.169 348.24 376.394 348.415 376.587 346.308C376.663 345.478 376.23 345.045 375.623 345.346C374.941 345.685 374.876 345.176 375.453 344.01C375.964 342.974 376.02 342.427 375.577 342.795C375.133 343.163 374.097 342.818 373.274 342.029C372.452 341.24 372.705 342.208 373.838 344.181Z" fill="#FA007A"></path> </svg> 