<svg xmlns="http://www.w3.org/2000/svg" width="195" height="133" fill="none"><path fill-rule="evenodd" clip-rule="evenodd" d="M13.728 2.816c15.333 3.408 38.053 4.656 50.175 2.755l9.609-1.505L86.544 18.13c14.037 15.15 32.856 33.411 53.701 52.108 7.186 6.445 16.778 16.309 21.316 21.918 4.538 5.61 13.84 15.616 20.669 22.234 8.621 8.354 12.508 13.122 12.713 15.589.233 2.809-.209 3.4-2.105 2.816-1.319-.407-6.73-2.059-12.025-3.672-9.483-2.887-14.319-4.903-34.031-14.189-5.486-2.583-16.163-7.205-23.727-10.27-12.219-4.952-19.551-7.407-48.819-16.357-4.16-1.273-8.8-3.354-10.314-4.626-3.76-3.162-19.77-13.226-32.66-20.531-6.197-3.511-10.646-6.933-10.628-8.174.017-1.174 1.24-3.683 2.72-5.575 1.48-1.893 2.704-4.76 2.72-6.37.07-6.765-6.748-18.26-20.157-33.983C.254 2.41-1.254-.36 1.007.037c.567.1 6.292 1.35 12.721 2.779Zm48.085 4.839C50.098 9.918 37.606 9.258 18.497 5.37 6.235 2.875 4.412 2.488 4.146 2.967c-.054.098-.044.231-.044.39 0 .411 2.94 4.288 6.532 8.615 8.12 9.779 14.61 20.014 16.964 26.747 1.645 4.706 1.54 5.494-1.222 9.235-5.374 7.274-4.449 8.538 12.45 17.001 17.727 8.877 27.817 12.8 26.263 10.21-.752-1.253-.467-1.24 1.127.05 1.31 1.061 1.882 3.056 1.48 5.161-.697 3.646 1.597 4.798 2.881 1.448.644-1.676 2.65-1.478 12.868 1.267 16.839 4.522 23.161 6.776 44.424 15.84 10.21 4.354 20.112 8.39 22.003 8.968 1.891.58 4.659 1.9 6.151 2.933 4.191 2.904 4.585 2.361 3.296-4.543-1.125-6.031-.223-10.48 1.21-5.965 1.105 3.482 19.753 20.851 24.532 22.849 2.477 1.035 4.892 2.512 5.366 3.28 2.766 4.478-17.377-2.62-32.923-11.603-7.276-4.205-13.514-7.644-13.861-7.644-.346 0-6.876-2.809-14.511-6.243-15.135-6.809-27.765-11.29-44.213-15.687-12.435-3.325-13.438-3.409-13.418-1.123.01 1.009 6.69 3.651 16.159 6.39 19.885 5.75 41.047 13.95 64.053 24.816 13.976 6.6 36.753 15.244 40.173 15.244 2.896 0-1.453-5.774-12.561-16.667-7.247-7.107-16.524-17.36-20.615-22.783-4.091-5.423-7.975-10.068-8.631-10.322-2.91-1.13-29.143-25.818-52.511-49.419L72.082 5.673l-10.27 1.982Zm42.986 37.797 11.381 11.19-11.366-9.978c-10.973-9.632-13.68-12.401-12.13-12.401.404 0 5.855 5.035 12.115 11.189Zm-65.63 12.977C56.012 68.487 63.235 73.09 63.235 73.767c0 .314-.465.307-1.032-.013-12.526-7.09-37.473-22.02-37.473-22.428 0-1.24 2.655.066 14.44 7.103Zm87.443 6c10.949 8.401 26.135 22.467 25.232 23.37-.37.37-4.523-3.05-9.229-7.599-4.707-4.55-10.724-9.894-13.371-11.876-7.213-5.402-13.167-10.558-12.258-10.615.442-.027 4.774 2.996 9.626 6.72Zm29.371 28.403c1.298 1.98 2.085 3.878 1.748 4.214-.336.336-1.672-1.01-2.969-2.992-1.298-1.98-2.085-3.878-1.748-4.214.336-.336 1.672 1.01 2.969 2.992Z" fill="#FA007A"/></svg>