<svg xmlns="http://www.w3.org/2000/svg" width="85" height="134" fill="none"><path fill-rule="evenodd" clip-rule="evenodd" d="M76.637 7.883c-8.256 8.7-12.245 11.829-22.645 17.761-4.441 2.534-7.184 4.851-8.65 7.309-4.752 7.961-16.99 25.608-24.044 34.671-5.647 7.256-7.837 10.892-8.932 14.836-.799 2.874-2.222 7.387-3.162 10.029-1.948 5.467-1.187 6.957 1.87 3.665 1.146-1.235 9.574-8.931 18.73-17.103 18.647-16.643 26.961-24.21 30.14-27.429 1.184-1.2 6.14-8.648 11.012-16.552 7.64-12.394 8.968-15.14 9.654-19.968.437-3.078 1.613-7.634 2.613-10.122 1-2.49 1.674-4.696 1.498-4.903-.176-.207-3.813 3.306-8.084 7.806Zm1.677.133c-6.63 7.37-17.43 15.868-23.486 18.485-4.57 1.973-6.112 3.243-8.2 6.748-6.956 11.684-20.173 30.553-25.81 36.848-3.851 4.303-5.597 7.661-7.759 14.933-1.205 4.054-2.603 8.144-3.105 9.09-.907 1.706 26.898-22.104 34.581-29.613 2.204-2.154 6.987-6.566 10.629-9.804 3.642-3.238 7.225-7.19 7.96-8.78.737-1.592 4.56-8.083 8.498-14.425 5.506-8.867 7.236-12.45 7.49-15.513.18-2.19 1.082-5.9 2.003-8.242.92-2.342 1.591-4.266 1.49-4.275-.102-.008-2.032 2.038-4.291 4.548Zm-.252 2.125c-.352.733-.505 1.888-.339 2.568.167.68.62.095 1.01-1.301.758-2.725.377-3.445-.671-1.267Zm-2.48 7.613c-.51 1.905-1.854 4.98-2.985 6.833-2.557 4.193-1.998 4.472.859.429 2.04-2.89 4.61-10.596 3.56-10.683-.278-.023-.925 1.517-1.435 3.421Zm-9.86 17.07c-2.236 3.347-4.755 6.984-5.598 8.082-.842 1.098-1.3 2.016-1.018 2.04.812.067 11.573-15.155 11.105-15.708-.232-.273-2.25 2.24-4.488 5.587ZM54.168 49.936l-1.86 2.472 2.34-1.904c1.286-1.047 2.123-2.16 1.859-2.471-.264-.313-1.316.544-2.34 1.903Zm-5.802 5.7c-4.867 3.66-12.74 11.184-11.016 10.528 1.378-.524 15.817-13.226 15.074-13.26-.22-.011-2.046 1.219-4.058 2.732ZM30.686 71.529c-2.253 2.171-4.626 4.43-5.272 5.017-2.92 2.652-11.355 11.538-12.107 12.752-.92 1.486 1.335-.603 9.005-8.337 2.797-2.82 7.155-6.975 9.684-9.232 2.529-2.256 4.19-4.113 3.692-4.126-.498-.012-2.749 1.754-5.002 3.926Zm23.633 39.095a.944.944 0 0 0 .86 1.015.944.944 0 0 0 1.013-.861.942.942 0 0 0-.859-1.014.942.942 0 0 0-1.014.86Zm-26.134 2.558c-.361.49-.21.927.335.972.545.045 1.026-.34 1.07-.855.042-.516-.109-.953-.336-.972-.228-.019-.708.366-1.07.855Zm.844 8.207c-1.28.517-2.73 1.475-3.226 2.131-2.626 3.477.268 9.31 4.806 9.685 4.874.403 15.797-5.713 14.557-8.15-.31-.609-.941-.914-1.405-.677-1.027.523-5.506-1.877-5.421-2.907.091-1.1-6.641-1.16-9.311-.082Zm-27.612 1.436c-2.084 2.13-.579 6.209 2.734 7.409 2.07.75 3.342.626 5.167-.506 3.658-2.268 3.591-3.232-.396-5.751-4.353-2.75-5.733-2.962-7.505-1.152Z" fill="#FA007A"/></svg>