<svg xmlns="http://www.w3.org/2000/svg" width="184" height="167" fill="none"><path d="M10.732 79.46C9.8 81.77 2.22 84.393.486 83.007.045 82.651.778 81.75 2.116 81c20.568-11.52 50.08-32.427 63.498-44.988 7.479-7 7.672-7.072 24.107-9.068 9.112-1.105 24.527-4.178 34.256-6.829 9.727-2.65 18.328-4.7 19.109-4.559.781.143.574 2.985-.461 6.317-1.034 3.331-1.7 6.653-1.478 7.383.221.73-7.718 6.851-17.645 13.603-17.614 11.983-26.353 19.194-39.647 32.722l-6.537 6.651-8.323-1.76c-13.62-2.881-35.289-3.63-47.091-1.63-6.076 1.032-10.51 1.204-9.855.384 3.405-4.255 38.89-4.463 58.882-.345 6.08 1.251 6.75 1.016 10.524-3.699 6.082-7.6 21.17-20.097 39.648-32.84 18.264-12.596 18.689-12.953 16.417-13.79-2.007-.74-21.129 11.192-33.593 20.96l-9.547 7.485 7.522-8.16c4.255-4.615 10.264-9.561 13.835-11.389 4.399-2.251 7.107-4.663 8.945-7.966 1.803-3.238 3.77-5.022 6.224-5.644 1.973-.5 4.635-2.184 5.913-3.742 2.118-2.578 1.72-2.643-4.456-.73-18.953 5.873-41.314 10.414-51.978 10.555-4.916.064-6.68 1.122-14.943 8.957-5.154 4.886-17.01 14.115-26.348 20.508-9.338 6.393-17.723 12.304-18.632 13.136-.91.832-3.249 2.181-5.198 3.002-1.949.819-3.988 2.59-4.532 3.935Z" fill="#FA007A"/><path d="M37.503 71.413c-3.495.635-9 1.59-12.236 2.12-3.324.546-4.564.376-2.851-.392 1.665-.747 7.412-2.103 12.771-3.013 8.255-1.402 9.782-1.221 9.988 1.18.166 1.906-.01 2.2-.536.893-.467-1.162-3.339-1.479-7.136-.788ZM62.222 73.801c-5.931-.587-11.135-1.348-11.565-1.692-1.038-.83 6.542-.613 14.25.407 10.677 1.416 8.612 2.404-2.685 1.285ZM90.837 58.98c4.086-2.697-5.323 6.798-11.444 11.548-3.023 2.346-2.47 1.49 1.974-3.057 3.394-3.472 7.655-7.293 9.47-8.491ZM158.445 8.71c-1.634.182-3.538-.638-4.23-1.822-.694-1.184-.405-3.222.641-4.53 2.64-3.299 6.894-1.64 6.709 2.612-.125 2.894-.598 3.461-3.12 3.74ZM180.058 20.478c-1.132 1.415-2.666 1.804-3.734.95-1.074-.86-1.035-2.114.097-3.075 2.874-2.443 5.885-.684 3.637 2.125ZM182.94 24.831c-.656-.525-1.261-1.576-1.344-2.337-.086-.76.329-1.436.918-1.501.589-.066 1.194.986 1.344 2.336.165 1.488-.197 2.08-.918 1.502ZM101.108 153.421c1.503 13.549-12.422 17.728-15.58 4.675-.84-3.475 4.27-8.846 8.91-9.361 5.043-.559 6.176.236 6.67 4.686Z" fill="#FA007A"/></svg>