<svg xmlns="http://www.w3.org/2000/svg" width="60" height="80" fill="none"><g clip-path="url(#a)"><path fill-rule="evenodd" clip-rule="evenodd" d="M-3.442 9.304c1.74-.158 4.615 1.71 7.202 1.67 3.495-.056 6.878-2.364 9.783-6.673 2.126-3.156 3.35-3.986 6.25-4.233 3.307-.28 3.909.117 7.248 4.788 4.15 5.805 7.043 6.977 12.885 5.22 4.966-1.497 7.545-.72 9.366 2.817 1.127 2.193 1.187 3.619.29 6.995-1.534 5.779-.212 8.982 5.325 12.896 6.81 4.814 6.79 9.87-.057 14.213-5.349 3.392-6.633 6.347-5.401 12.426 1.28 6.322.82 8.038-2.643 9.837-2.413 1.254-3.677 1.305-7.417.3-5.803-1.56-8.49-.38-12.366 5.428-4.309 6.46-10.454 6.707-13.75.554-1.6-2.986-5.905-6.645-8.214-6.653-3.274-.012-4.462.593-6.694 1.193-1.329.357-1.851.663-3.59.663-3.028-.33-3.997-1.06-5.044-3.367-.937-2.067-.384-4.607.544-7.718 1.642-5.507-.43-10.516-5.316-12.858-4.366-2.092-5.998-5.755-4.298-9.806.688-1.64 3.023-3.038 5.039-4.557 1.64-1.236 2.93-2.144 3.973-3.939 1.714-2.948 1.774-3.814.619-8.998-.788-3.534-1.065-6.305 1.582-8.206 1.624-1.403 2.944-1.833 4.684-1.992ZM37.355 34.89c-1.989-5.233-3.432-7.214-8.598-9.066-4.754-1.704-6.047-1.519-9.814-.57-6.842 2.604-10.803 10.45-8.015 15.869 2.532 4.918 5.049 6.502 9.784 6.153 2.369-.173 4.48-.845 4.692-1.493.269-.823-.856-1.01-3.741-.62-3.386.455-4.57.135-6.606-1.785-3.693-3.486-3.437-9.282.588-13.327 2.85-2.864 3.81-3.652 9.08-3.214 4.753.396 5.716 1.554 7.691 4.018 3.419 4.262 4.728 9.862 3.312 14.171-3.703 11.275-17.415 15.908-27.868 9.415-4.036-2.505-5.937-1.604-2.508 1.19 5.2 4.235 15.994 5.218 22.228 2.023 9.164-4.698 13.13-13.936 9.775-22.764Z" fill="#201B19"/></g><defs><clipPath id="a"><path fill="#fff" transform="matrix(-1 0 0 1 60 0)" d="M0 0h60v80H0z"/></clipPath></defs></svg>