<svg xmlns="http://www.w3.org/2000/svg" width="314" height="140" fill="none"><path d="M23.873 139.014H8.367V14.986H0v-14h32.24v14h-8.367v124.028ZM57.42 139.014H41.708V.986H57.42V60.14h6.938V.986h15.711v138.028H64.358V74.338H57.42v64.676ZM107.834 15.183v44.958h10.611v14.197h-10.611v50.479h13.671v14.197H92.123V.986h29.382v14.197h-13.671ZM170 18.535v102.93c0 1.709.136 2.892.408 3.549.408.526 1.224.789 2.449.789h1.02c1.224 0 2.04-.263 2.449-.789.408-.657.612-1.84.612-3.549V78.873h14.487v44.366c0 6.573-1.02 11.043-3.061 13.409-2.04 2.235-6.121 3.352-12.243 3.352h-6.325c-6.121 0-10.27-1.117-12.447-3.352-2.04-2.366-3.061-6.836-3.061-13.409V16.761c0-6.573 1.021-10.977 3.061-13.212C159.526 1.183 163.675 0 169.796 0h6.325c6.122 0 10.203 1.183 12.243 3.55 2.041 2.234 3.061 6.638 3.061 13.21v38.451h-14.487V18.535c0-1.709-.204-2.826-.612-3.352-.409-.657-1.225-.986-2.449-.986h-1.02c-1.225 0-2.041.329-2.449.986-.272.526-.408 1.643-.408 3.352ZM218.82.986v120.479c0 1.709.204 2.892.612 3.549.408.526 1.224.789 2.449.789h.816c1.224 0 2.04-.263 2.448-.789.408-.657.613-1.84.613-3.549V.985h14.691V123.24c0 6.573-1.088 11.043-3.265 13.409-2.04 2.235-6.121 3.352-12.243 3.352h-6.325c-6.122 0-10.27-1.117-12.447-3.352-2.04-2.366-3.061-6.836-3.061-13.409V.986h15.712ZM252.332 139.014V.986h15.711v123.831h11.631v14.197h-27.342ZM305.634 139.014h-15.508V14.986h-8.365v-14H314v14h-8.366v124.028Z" fill="#201B19"/></svg>