<svg xmlns="http://www.w3.org/2000/svg" width="110" height="112" fill="none"><path fill-rule="evenodd" clip-rule="evenodd" d="M14.1 39.196c-4.208-2.364-8.844-7.965-9.99-12.07-1.324-4.742.202-12.263 3.261-16.067 6.927-8.613 21.081-9.785 30.93-2.563 10.404 7.63 11.34 20.787 2.045 28.713-6.837 5.828-17.915 6.667-26.245 1.987Zm1.673-2.118C8.768 32.972 5.348 26.129 6.789 19.104c3.033-14.778 25.147-17.413 34.16-4.07 3.937 5.828 4.066 11.266.4 16.834-5.176 7.86-16.96 10.26-25.576 5.21ZM99.3 36.24c-2.707-3.6-2.265-6.855 1.013-7.451 5.442-.993 9.291 7.072 4.648 9.739-2.343 1.344-3.185 1.003-5.66-2.288Z" fill="#201B19"/><path d="M33.995 94.67c.04.418 2.748 4.098 6.018 8.177 3.27 4.079 6.168 7.393 6.44 7.364 1.265-.135 30.08-19.304 30.38-20.21.4-1.206-10.382-14.707-12.042-15.08-.62-.139-6.354 3.161-12.741 7.334-6.388 4.173-13.08 8.502-14.871 9.622-1.792 1.118-3.224 2.375-3.184 2.793Z" fill="#201B19"/></svg>