<svg xmlns="http://www.w3.org/2000/svg" width="236" height="160" fill="none"><path fill-rule="evenodd" clip-rule="evenodd" d="M125.592 157.139c-4.323-4.198 2.28-14.166 16.997-25.659 15.776-12.32 47.304-28.634 66.052-34.178 11.106-3.286 21.951-3.738 24.933-1.04 5.136 4.647-.422 13.391-16.387 25.783-32.295 25.069-82.22 44.197-91.595 35.094ZM20.228 128.315c-9.298-4.54-13.487-11.97-15.85-28.114-.655-4.484-1.821-11.358-2.59-15.276C-.802 71.742.677 66.671 12.746 47.35c7.322-11.722 13.768-19.48 21.479-25.844C40.562 16.274 53.956 7.19 60.09 3.96 68.39-.407 76.218-.57 82.179 3.505c3.286 2.245 8.254 10.18 8.482 13.546.083 1.233.85 5.568 1.703 9.635 1.39 6.622 2.403 17.994 1.888 21.2-.595 3.703-.166 19.741.633 23.727.515 2.562 2.907 8.751 5.316 13.754 6.784 14.089 7.549 17.542 5.79 26.115-1.247 6.076-1.978 7.794-4.722 11.101-4.162 5.013-11.208 9.044-18.048 10.326-4.857.91-6.916.749-20.865-1.627-14.225-2.424-16.1-2.562-23.203-1.709-9.048 1.087-14.92.696-18.925-1.258Zm1.599-2.255c-4.614-1.839-10.222-8.296-12.002-13.817-1.895-5.879-6.383-34.415-6.105-38.816.13-2.05 1.403-6.242 2.856-9.404 3.422-7.45 13.168-23.026 15.238-24.355.89-.572 1.447-1.27 1.238-1.548-.721-.96 3.578-5.778 4.91-5.504.83.17 1.412-.42 1.539-1.558.23-2.064 3.532-5.35 5.64-5.614.767-.096 1.527-.814 1.69-1.596.372-1.773 16.772-13.343 24.782-17.481 3.743-1.934 6.781-2.915 8.153-2.633 1.203.247 2.27.042 2.373-.454.285-1.393 7.619 1.185 9.916 3.487 5.817 5.827 9.443 23.32 9.082 43.809-.308 17.416.943 24.497 6.243 35.362 5.646 11.578 7.164 17.117 6.444 23.526-.499 4.442-.799 5.155-2.063 4.896-1.668-.343-2.469 1.681-.979 2.473 1.544.821-3.669 6.781-8.704 9.951-7.412 4.666-12.032 4.957-30.13 1.897-13.893-2.35-16.222-2.53-22.721-1.762-9.3 1.101-12.935.921-17.4-.859Zm121.156 16.115c1.973-3.885 9.345-9.515 21.739-16.601 14.449-8.262 27.421-13.673 39.415-16.44 9.873-2.278 14.377-1.925 13.761 1.078-1.094 5.33-23.056 19.361-42.704 27.281-13.191 5.317-25.496 8.349-30.071 7.41-3.026-.621-3.138-.763-2.14-2.728Zm-127.27-33.82c.091-.44.572-.716 1.069-.614.497.102.83.545.74.985-.09.439-.57.715-1.068.613-.497-.102-.83-.545-.74-.984Zm7.561-.114c.09-.439.571-.715 1.069-.613.497.102.83.545.74.985-.09.439-.571.715-1.068.613-.498-.102-.83-.545-.74-.985Zm70.183 14.705c-.591-.787.481-1.867 1.621-1.633.469.096.74.714.605 1.373-.253 1.235-1.393 1.368-2.226.26Zm-50.953-16.585c.09-.44.774-.674 1.52-.521.746.153 1.282.638 1.192 1.077-.09.44-.774.674-1.52.521-.746-.153-1.282-.638-1.192-1.077Zm50.252 10.568c-.834-1.109-.241-1.97 1.156-1.683.746.153 1.287.617 1.202 1.03-.207 1.008-1.767 1.439-2.358.653Zm-39.24-9.141c.09-.439.571-.715 1.069-.613.497.102.83.545.74.984-.09.44-.571.716-1.068.614-.497-.102-.83-.545-.74-.985ZM37.9 101.253c.09-.439.57-.715 1.068-.613.497.102.83.545.74.984-.09.44-.57.716-1.068.614-.497-.103-.83-.546-.74-.985Zm10.472 2.404c-.833-1.108-.24-1.969 1.157-1.682.746.153 1.287.616 1.202 1.03-.207 1.007-1.767 1.439-2.359.652Zm51.085 5.235c.09-.44.774-.674 1.52-.521.746.153 1.283.638 1.192 1.077-.09.44-.774.674-1.52.521-.745-.153-1.282-.638-1.192-1.077Zm-36.398-8.191c-.276-.637-.212-1.323.14-1.526.956-.549 1.623.684.948 1.752-.473.749-.686.705-1.088-.226Zm6.061.976c.863-1.367 2.86-1.212 2.57.198-.142.695-.903 1.133-1.69.971-.788-.162-1.184-.687-.88-1.169ZM7.396 87.801c-.592-.786.48-1.867 1.62-1.633.47.096.74.714.606 1.373-.254 1.235-1.393 1.368-2.226.26Zm6.733.734c.142-.695.903-1.132 1.69-.97 1.597.327.966 1.99-.811 2.14-.627.052-1.022-.474-.88-1.17Zm84.495 13.827c-.592-.787.48-1.867 1.621-1.633.468.096.74.714.605 1.373-.254 1.235-1.393 1.368-2.226.26Zm-41.3-10.187c-.834-1.109-.242-1.97 1.156-1.683.745.153 1.286.617 1.201 1.03-.206 1.008-1.767 1.44-2.358.653Zm6.704 1.121c.09-.44.774-.674 1.52-.52.746.153 1.283.637 1.192 1.077-.09.44-.774.673-1.52.52-.745-.153-1.282-.638-1.192-1.077ZM7.803 81.225c-.591-.787.481-1.867 1.621-1.633.469.096.74.714.605 1.373-.253 1.235-1.392 1.368-2.226.26Zm44.221 1.699c.136-.659.653-1.115 1.15-1.013.498.102.794.725.659 1.384-.136.66-.653 1.115-1.15 1.013-.498-.102-.794-.725-.659-1.384Zm6.247 1.698c.09-.44.774-.673 1.52-.52.746.153 1.283.638 1.192 1.077-.09.44-.774.674-1.52.52-.746-.153-1.282-.637-1.192-1.077Zm-4.935-8.089c.15-.732.684-1.112 1.186-.845.502.267.843.827.758 1.244-.086.417-.62.798-1.187.846-.566.047-.907-.512-.757-1.245Zm20.136 2.884c.09-.44.546-.72 1.014-.624.469.096 1.029.585 1.246 1.088.217.502-.24.783-1.015.624-.775-.159-1.335-.648-1.245-1.088Zm7.478.286c.136-.659.653-1.115 1.15-1.012.498.102.794.724.659 1.383-.136.66-.653 1.115-1.15 1.013-.498-.102-.794-.725-.659-1.384ZM23.155 62.916c.143-.695.903-1.132 1.69-.97.788.16 1.184.687.88 1.168-.863 1.367-2.86 1.213-2.57-.198Zm24.91 5.76c-.591-.787.481-1.867 1.621-1.633.469.096.74.714.605 1.373-.253 1.235-1.392 1.368-2.226.26Zm40.23 5.713c-.832-1.108-.24-1.969 1.157-1.682.746.153 1.287.616 1.202 1.03-.206 1.008-1.767 1.439-2.358.653ZM30.318 60.154c.135-.659.653-1.114 1.15-1.012.497.102.793.724.658 1.383-.135.66-.653 1.115-1.15 1.013-.497-.102-.793-.724-.658-1.384ZM16.262 55.19c.09-.44.774-.674 1.52-.52.745.152 1.282.637 1.192 1.076-.09.44-.774.674-1.52.52-.746-.152-1.283-.637-1.192-1.076Zm33.532 6.465c.15-.732.685-1.112 1.187-.845.502.267.843.827.757 1.244-.085.417-.62.798-1.186.846-.567.047-.908-.512-.758-1.245Zm-22.932-7.62c.09-.44.774-.673 1.52-.52.746.153 1.283.638 1.192 1.077-.09.44-.774.673-1.52.52-.746-.153-1.282-.637-1.192-1.077Zm7.148-2.695c.09-.44.571-.715 1.069-.613.497.102.83.545.74.984-.09.44-.571.715-1.068.613-.498-.102-.83-.545-.74-.984Zm25.97 2c.09-.44.571-.715 1.069-.613.497.102.83.545.74.984-.09.44-.571.715-1.068.613-.497-.102-.83-.545-.74-.984Zm19.232 2.698c.15-.732.685-1.112 1.187-.845.502.267.843.827.757 1.244-.086.417-.62.798-1.186.846-.567.047-.908-.512-.758-1.245Zm-25.068-6.393c.09-.44.57-.716 1.068-.614.497.102.83.545.74.985-.09.44-.57.715-1.068.613-.497-.102-.83-.545-.74-.984Zm54.272 10.644c-.514-.835-.69-2.71-.391-4.165.665-3.24 2.76-4.845 5.574-4.267 4 .82 4.24 5.862.416 8.714-2.64 1.97-4.263 1.889-5.599-.282ZM86.115 54.54c.09-.44.774-.673 1.52-.52.746.153 1.282.637 1.192 1.077-.09.44-.774.673-1.52.52-.746-.153-1.282-.637-1.192-1.077Zm-28.03-10.33c.151-.733.685-1.113 1.187-.846s.843.827.758 1.244c-.086.417-.62.798-1.187.845-.567.048-.908-.511-.757-1.244Zm26.465 4.182c.09-.44.774-.674 1.52-.52.746.152 1.282.637 1.192 1.076-.09.44-.774.674-1.52.52-.746-.152-1.282-.637-1.192-1.076Zm-32.22-8.278c.091-.439.572-.715 1.069-.613.497.102.83.545.74.984-.09.44-.57.716-1.068.614-.497-.102-.83-.545-.74-.985Zm3.525-4.803c-.591-.787.481-1.867 1.621-1.633.468.096.74.714.605 1.373-.254 1.235-1.393 1.368-2.226.26ZM72.127 21.7c.09-.44.57-.716 1.068-.614.497.102.83.545.74.984-.09.44-.57.716-1.068.614-.497-.102-.83-.545-.74-.985Zm-1.813-9.53c.09-.44.774-.674 1.52-.52.746.152 1.282.637 1.192 1.076-.09.44-.774.674-1.52.521-.746-.153-1.282-.638-1.192-1.077Zm4.846-5.25c.15-.732.684-1.112 1.186-.845.502.267.843.828.758 1.245-.086.417-.62.797-1.187.845-.566.048-.907-.512-.757-1.244Z" fill="#201B19"/></svg>