<svg xmlns="http://www.w3.org/2000/svg" width="117" height="247" fill="none"><path fill-rule="evenodd" clip-rule="evenodd" d="M12.962 233.317C2.129 227.622-2.287 217.252 2.17 207.981c2.507-5.213 6.608-8.501 12.664-10.155 11.286-3.082 23.888 2.721 27.472 12.65 2.153 5.963 1.894 10.238-.91 15.058-2.682 4.608-7.523 8.076-12.992 9.304-4.349.978-12.153.209-15.443-1.521Zm63.462 5.055c-2.679-4.42-4.931-8.411-5.004-8.872-.163-1.018 30.89-15.41 32.526-15.075.915.188 6.901 9.224 10.637 16.061.41.749-4.596 3.477-15.813 8.617-9.026 4.137-16.651 7.472-16.944 7.412-.292-.06-2.724-3.725-5.402-8.143Zm-62.844-7.618c-15.139-7.569-12.619-27.832 3.866-31.082 7.532-1.485 16.826 2.483 20.832 8.893 2.618 4.19 3.047 6.773 1.958 11.807-2.258 10.445-15.901 15.759-26.656 10.382Zm76.932-56.088c-7.635-5.614-13.752-12.391-24.26-26.88-18.824-25.954-31.482-54.16-30.17-67.227.405-4.024.777-4.804 2.862-6.001 3.048-1.75 7.476-.425 13.569 4.062 21.35 15.725 52.241 67.103 54.219 90.176.502 5.863-.631 8.918-3.729 10.055-3.367 1.235-6.586.157-12.49-4.185Zm-7.096-16.56C69.195 145.259 49.515 106.7 50.431 93.477c.337-4.85 1.498-4.946 6.604-.546 13.067 11.259 30.941 44.153 33.688 61.995 1.13 7.349-1.45 8.471-7.307 3.18Zm3.55-108.612c-4.336-1.907-7.627-4.738-10.2-8.779-4.365-6.853-4.023-14.19.94-20.237 10.533-12.827 33.235-8.792 38.248 6.798 3.973 12.358-5.568 24.066-19.597 24.046-4.645-.007-5.731-.218-9.39-1.828Zm2.301-2.026c-7.581-2.792-11.869-8.036-12.538-15.337-.965-10.512 9.886-18.702 21.63-16.323 5.619 1.137 8.142 2.528 11.592 6.39 9.2 10.3 1.994 25.75-12.372 26.529-2.6.14-4.744.206-4.767.144-.022-.062-1.618-.693-3.545-1.403ZM60.545 7.748c-.863-1.854-.792-2.961.326-5.136C62.064.295 62.744-.114 65.021.12c4.927.505 5.776 5.581 1.47 8.794-2.902 2.165-4.545 1.842-5.946-1.165Z" fill="#201B19"/></svg>