<svg xmlns="http://www.w3.org/2000/svg" width="63" height="66" fill="none"><path fill-rule="evenodd" clip-rule="evenodd" d="M7.51 17.721c-2.53 3.443-5.833 10.35-6.62 15.13-1.753 10.64 2.442 20.834 11.329 27.523 2.515 1.893 4.208 2.74 7.83 3.918 5.1 1.659 7.724 1.868 12.998 1.036 8.47-1.335 16.265-6.615 21.855-14.805 3.058-4.48 4.36-7.156 5.834-11.985 2.146-7.033 2.57-11.124 1.812-17.525C61.028 8.16 52.014-.009 39.395.03c-1.61.005-3.121.108-3.357.228 0 0-4.426.813-6.217 1.347-1.473.44-4.208 1.552-6.079 2.472 0 0-.78.22-3.086 1.575-2.305 1.355-1.745 1.105-2.78 1.836-.581.41-2.25 1.783-3.71 3.051-1.46 1.269-2.11 1.87-3.238 2.975-.56.549-3.418 4.207-3.418 4.207ZM45.106 2.78c2.358.633 6.265 2.656 8.514 4.408 1.674 1.304 2.276 2.114 3.875 5.215 2.437 4.73 3.163 7.957 3.081 13.695-.078 5.457-.329 6.93-2.07 12.164-2.234 6.717-5.545 12.026-10.93 17.524-2.256 2.304-8.613 5.883-12.272 6.91-3.398.953-8.992 1.005-12.798.12-2.88-.67-9.33-3.964-10.801-5.515-.422-.444-1.01-.918-1.306-1.053-1.044-.476-4.472-5.846-5.915-9.268-1.168-2.77-1.49-4.19-1.656-7.326-.274-5.159.321-8.484 2.364-13.205 2.06-4.762 3.916-7.648 6.996-10.873 5.026-5.265 6.85-6.605 13.063-9.593 5.301-2.55 6.092-2.817 9.774-3.305 4.41-.584 7.65-.552 10.081.102Z" fill="#FA007A"/><path d="M22.01 26.293c-1.206.785-2.7 2.126-3.318 2.982-.98 1.355-1.024 1.625-.342 2.1.952.662 1.12.586 2.57-1.17.63-.762 1.78-1.835 2.553-2.383 1.147-.813 1.345-1.178 1.07-1.977-.334-.965-.37-.959-2.532.448Z" fill="#FA007A"/><path fill-rule="evenodd" clip-rule="evenodd" d="M44.328 22.167c-2.286-2.655-6.717-4.972-10.365-5.42-6.458-.792-12.612 1.481-17.486 6.46-3.157 3.224-4.568 5.544-5.563 9.142-1.559 5.634-1.092 9.627 1.715 14.687 1.758 3.168 2.233 3.726 4.784 5.626 3.315 2.468 7.674 3.77 12.002 3.587 3.925-.167 9.357-2.642 12.54-5.714 2.329-2.247 5.341-7.156 5.997-9.772.736-2.935.939-6.69.509-9.43-.45-2.875-2.358-7.103-4.133-9.166Zm-12.769-3.228c4.934.126 7.92 1.358 10.818 4.464 2.296 2.46 4.08 6.81 4.124 10.05.02 1.532-.458 4.323-.458 4.323s-1.066 5.257-3.365 8.489c-2.041 2.87-2.558 3.34-5.72 5.2-2.586 1.523-3.361 1.681-3.361 1.681s-2.678.582-4.258.692c-5.111.357-8.875-1.235-12.384-4.334-1.357-1.198-1.935-2.093-3.125-4.84-1.949-4.499-2.09-7.724-.535-12.248 1.538-4.473 3.66-7.407 7.102-9.817 4.028-2.82 6.921-3.768 11.162-3.66Z" fill="#FA007A"/><path d="M39.233 23.536c-2.09-1.506-2.863-1.572-3.212-.272-.276 1.027-.234 1.095.945 1.524.68.247 1.35.674 1.49.949.267.524 2.087-.177 2.138-.824.017-.206-.596-.826-1.36-1.377ZM37.067 34.27c-.209.107-.249.451-.088.765.16.314.462.484.671.377.209-.107.249-.451.088-.765-.16-.314-.462-.483-.671-.377ZM38.06 38.56c-.313.16-.482.462-.375.671.107.21.451.25.764.09.314-.16.483-.463.376-.672-.107-.21-.45-.25-.764-.09ZM42.33 37.67c-.459-.148-.876.499-.631.978.1.197.439.227.752.067.588-.3.526-.834-.12-1.044ZM41.259 33.568c-.313.16-.483.462-.376.672.107.209.451.249.765.089.313-.16.482-.462.375-.672-.107-.209-.45-.25-.764-.089ZM45.23 32.609c-.585.595-.283 1.473.388 1.13a.678.678 0 0 0 .294-.909c-.17-.331-.476-.431-.682-.221ZM44.709 28.288c-.66-.215-1.028.175-.725.77.16.314.548.44.862.28.593-.304.524-.836-.137-1.05ZM40.455 29.182c-.348.178-.477.476-.288.663.19.186.508.256.706.155.198-.102.328-.4.288-.663-.04-.263-.358-.333-.706-.155ZM38.639 42.582c-.331.169-.43.476-.22.682.594.586 1.472.285 1.129-.387a.678.678 0 0 0-.91-.295ZM34.862 43.551c-.313.16-.482.463-.375.672.107.21.45.25.764.09s.483-.463.376-.672c-.107-.21-.451-.25-.765-.09ZM31.06 44.148c-.187.19-.256.507-.155.706.102.198.4.328.663.289.262-.04.332-.358.154-.707-.178-.348-.477-.478-.663-.288ZM31.854 48.446c-.209.107-.297.355-.197.552.1.197.408.377.683.4.275.022.364-.227.197-.553-.166-.326-.474-.505-.683-.399ZM35.662 47.46c-.209.107-.249.451-.088.765.16.314.462.483.67.377.21-.107.25-.451.09-.765-.161-.314-.463-.483-.672-.377ZM39.876 46.746c-.325.167-.505.474-.398.683.107.21.355.299.552.198.197-.1.376-.408.398-.683.022-.275-.226-.364-.552-.198ZM28.108 49.24c-.66-.214-1.027.176-.724.77.16.314.548.44.861.28.594-.303.524-.835-.137-1.05ZM23.855 50.135c-.314.16-.483.462-.376.671.107.21.451.25.764.09.314-.16.483-.463.376-.672-.107-.21-.45-.25-.764-.09ZM42.862 41.863c-.209.107-.249.451-.088.765.16.314.462.483.671.377.209-.107.249-.451.088-.765-.16-.314-.462-.483-.671-.377Z" fill="#FA007A"/><path fill-rule="evenodd" clip-rule="evenodd" d="M53.62 7.188c-2.249-1.752-6.156-3.775-8.514-4.408-2.431-.654-5.67-.686-10.081-.102-3.682.488-4.473.755-9.774 3.305-6.213 2.988-8.037 4.328-13.063 9.593-3.08 3.226-4.936 6.111-6.996 10.873-2.043 4.72-2.638 8.046-2.364 13.205.167 3.135.488 4.557 1.656 7.326 1.443 3.422 4.87 8.792 5.915 9.268.297.135.884.609 1.306 1.053 1.47 1.551 7.921 4.845 10.801 5.515 3.806.885 9.4.833 12.798-.12 3.66-1.027 10.016-4.606 12.272-6.91 5.385-5.498 8.696-10.807 10.93-17.524 1.741-5.234 1.992-6.707 2.07-12.164.082-5.738-.644-8.965-3.081-13.695-1.599-3.1-2.2-3.911-3.874-5.215Zm-19.657 9.56c3.648.447 8.079 2.764 10.364 5.419 1.776 2.063 3.683 6.291 4.134 9.166.43 2.74.227 6.495-.509 9.43-.656 2.616-3.668 7.525-5.997 9.772-3.183 3.072-8.615 5.547-12.54 5.714-4.328.184-8.687-1.119-12.002-3.587-2.551-1.9-3.026-2.458-4.784-5.626-2.807-5.06-3.274-9.053-1.715-14.687.995-3.598 2.406-5.918 5.563-9.142 4.874-4.979 11.028-7.252 17.486-6.46Z" fill="#FAF5E5"/><path fill-rule="evenodd" clip-rule="evenodd" d="M42.377 23.403c-2.898-3.106-5.884-4.338-10.818-4.464-4.24-.108-7.134.84-11.162 3.66-3.442 2.41-5.564 5.343-7.102 9.817-1.554 4.524-1.414 7.75.535 12.248 1.19 2.747 1.768 3.642 3.125 4.84 3.509 3.099 7.273 4.691 12.385 4.334 1.579-.11 4.257-.692 4.257-.692s.775-.157 3.362-1.68c3.16-1.86 3.677-2.331 5.72-5.201 2.298-3.232 3.364-8.49 3.364-8.49s.478-2.79.458-4.321c-.044-3.241-1.828-7.59-4.124-10.05Zm1.607 5.655c-.303-.595.064-.985.725-.77.66.214.73.746.137 1.05a.642.642 0 0 1-.861-.28Zm1.634 4.682c-.67.342-.973-.536-.388-1.131.206-.21.513-.11.682.221.169.331.037.74-.294.91Zm-9.597-10.476c.349-1.3 1.123-1.234 3.212.272.765.551 1.378 1.17 1.361 1.377-.05.647-1.87 1.348-2.138.824-.14-.275-.81-.701-1.49-.949-1.18-.43-1.221-.497-.945-1.524Zm4.146 6.58c-.19-.186-.06-.484.288-.662.349-.178.666-.108.706.155.04.263-.09.561-.288.663-.198.1-.516.031-.706-.155Zm.716 4.396c-.107-.21.063-.512.376-.672.313-.16.657-.12.764.09.107.209-.062.51-.375.67-.314.161-.658.12-.765-.088Zm.816 4.408c-.245-.48.172-1.126.631-.977.647.21.709.744.121 1.044-.313.16-.652.13-.752-.067Zm1.075 3.98c-.16-.314-.12-.658.088-.765.209-.106.511.063.671.377.16.314.121.658-.088.764-.209.107-.511-.062-.671-.376Zm-5.795-7.593c-.16-.314-.12-.658.088-.764.209-.107.511.062.671.376.16.314.121.658-.088.765-.209.107-.511-.063-.671-.377Zm.706 4.196c-.107-.209.062-.511.376-.671.313-.16.657-.12.764.09.107.208-.062.51-.376.67-.313.16-.657.12-.764-.089Zm.733 4.033c-.21-.206-.11-.513.22-.682a.678.678 0 0 1 .91.295c.343.672-.535.973-1.13.387Zm1.06 4.165c-.107-.209.073-.516.398-.683.326-.166.574-.077.552.198-.022.275-.201.583-.398.683-.197.1-.445.012-.552-.198Zm-4.991-3.206c-.107-.21.062-.511.375-.672.314-.16.658-.12.765.09.107.209-.062.511-.376.671-.313.16-.657.12-.764-.089Zm1.087 4.002c-.16-.314-.121-.658.088-.765.209-.106.51.063.671.377.16.314.12.658-.088.765-.209.106-.511-.063-.671-.377Zm-16.882-18.95c.618-.856 2.112-2.197 3.319-2.982 2.162-1.407 2.198-1.413 2.531-.448.276.799.078 1.165-1.069 1.977-.773.548-1.922 1.62-2.553 2.384-1.45 1.755-1.618 1.83-2.57 1.169-.682-.475-.638-.745.342-2.1Zm12.213 15.579c-.101-.199-.032-.517.154-.706.186-.19.485-.06.663.288.178.35.108.667-.154.707-.263.04-.561-.09-.663-.29Zm.752 4.144c-.1-.197-.012-.445.197-.552.21-.106.517.073.683.4.167.325.078.574-.197.551-.275-.022-.582-.202-.683-.399Zm-4.273 1.012c-.303-.594.064-.984.724-.77.661.215.73.747.137 1.05a.642.642 0 0 1-.861-.28Zm-3.905.796c-.107-.21.062-.511.376-.671.313-.16.657-.12.764.089.107.209-.062.511-.376.671-.313.16-.657.12-.764-.089Z" fill="#FAF5E5"/></svg>