<svg xmlns="http://www.w3.org/2000/svg" width="256" height="278" fill="none"><path fill="#FA007A" d="M99.82 195.791c-.178.371-.159.713.11.938.527.437 1.092.83 1.614 1.221.391.757.187 1.457-.346 1.911-1.722 1.454-3.592 2.741-5.27 4.232-2.488 2.209-5.41 3.754-8.13 5.606a5.755 5.755 0 0 1-3.453 1.027l.137-.048c-.665 1.04-1.145 2.151-1.294 3.376.354 1.529 1.937 1.297 2.87 1.999a15.228 15.228 0 0 0 2.702 1.584c1.112.515 2.284.884 3.401 1.315 1.781-.006 3.544.156 5.255-.05 4.173-.498 8.192-1.499 11.932-3.633 4.884-2.805 7.172-4.031 11.462-7.278 3.616-2.737 7.435-5.184 10.997-7.991 1.368-1.08 2.704-2.166 3.967-3.375 1.496-1.44 3.127-2.814 5.024-3.737 1.28-.622 2.403-1.521 3.334-2.495 1.473-1.538 3.168-2.698 4.931-3.834 1.752-1.132 3.352-2.496 5.042-3.719 2.12-1.535 4.287-3.003 6.625-4.188.252-.124.647.039.976.065l-.228.093c.29-.44.482-.988.873-1.291 1.375-1.077 2.746-2.182 4.247-3.066 1.828-1.07 3.475-2.349 5.111-3.66 4.22-3.394 8.737-6.401 12.838-9.949 2.387-1.45 4.766-2.904 7.163-4.341 1.803-1.073 3.591-2.171 5.445-3.132 1.237-.643 2.236-1.523 3.207-2.469a49.682 49.682 0 0 1-.031-1.014c.508-.072 1.012-.137 1.527-.206.172-1.144-1.186-.998-1.474-1.75-.179-.339-.196-.725.093-.98 1.202-1.046 2.043-2.361 2.855-3.707.722-1.197 2.061-1.887 2.611-3.254.461-1.146 1.42-1.958 2.196-2.901.988-1.201 1.652-2.679 2.478-4.072.362-.317.795-.635 1.146-1.019.357-.399.55-.911.411-1.443-.126-.506-.282-1.02-.537-1.475-.856-1.524-1.663-3.094-2.679-4.501-1.852-2.554-3.438-5.26-5.027-7.976-.52-.889-1.208-1.684-1.653-2.291-.765-.525-1.296-.35-1.715-.06-3.765 2.535-7.769 4.709-11.475 7.341-1.171.833-2.358 1.5-3.79 1.69-1.889-.371-3.233-1.278-3.434-3.565.693-2.78 2.43-5.235 3.876-7.829 2.122-1.411 2.474-4.249 4.596-5.659.612-1.057 1.22-2.124 1.77-3.071.1-1.634-.803-2.804-1.273-4.107-.233-.63-.597-1.224-.358-1.942.962-.214 1.644.41 2.589.925 2.231 2.639 4.874 5.185 7.11 8.089 3.088 4.014 6.159 8.045 9.233 12.069 1.384 1.812 2.466 3.812 3.566 5.795.602 1.086 1.349 2.049 2.114 2.994.418.516 1.106.819 1.621 1.189.414-.188.726-.327 1.038-.467l4.554-9.501a453.956 453.956 0 0 1-.004-3.684c.004-2.969.125-5.927 1.089-8.778.109-1.947.687-3.773 1.488-5.537.151-.313.36-.66.348-.981-.073-1.657.678-3.06 1.272-4.519.849-2.1 2.075-4.072 2.124-6.441.802-1.947 1.611-3.891 2.372-5.735.262-2.355.787-4.584.48-7.09-.434-1.47-.917-3.148-1.416-4.85.29-.86.563-1.686.853-2.528.202-1.446-.924-2.626-.875-4.19.36-.422.787-.928 1.224-1.437-.016-2.252-.055-2.244-1.618-5.088-.55-.334-1.292-.778-2.292-1.38-.434-.629-1.035-1.477-1.64-2.337.24-.244.43-.513.689-.67.707-.45.816-1.134.638-1.823-.17-.67-.418-1.358-.799-1.935-1.334-2.042-2.483-4.215-4.014-6.14-1.198-1.504-2.441-2.968-3.559-4.529-1.947-2.721-4.589-4.759-6.897-7.127-.719-.73-1.845-1.051-2.574-1.778-2.16-2.148-4.9-3.322-7.511-4.73-1.533-.823-3.159-1.471-4.376-2.844-.548-.613-1.499-.876-2.29-1.255-7.275-3.487-14.549-6.974-21.828-10.454-.477-.229-.945-.55-1.445-.623-3.362-.48-6.202-2.324-9.283-3.538-.324-.129-.661-.229-.864-.3-3.326-.446-5.983.638-8.509 3.276l-2.44 5.089c-.254 2.14.039 4.033.581 5.844-.228.33-.421.605-.725 1.038-1.064.209-2.262.44-3.742.73-2.414 1.491-5.475 2.54-7.223 5.418-.447.732-1.137 1.313-1.929 2.196l-2.173 4.534c-.075.98-.161 2.017-.239 3.058.151 1.238.517 2.395 1.325 3.378 1.27.969 2.736 1.549 4.209 2.132.655.261 1.334.727 1.973.674 1.821-.144 3.401.745 5.127.985 4.332.613 8.669.85 13.026.81 2.315-.022 4.532-.37 6.652-1.484.918-.945 2.301-1.51 3.041-3.145.077-.927.184-2.138.297-3.416a328.7 328.7 0 0 0-1.454-2.836c-.664-.222-1.31-.575-1.978-.624-1.61-.114-3.108-.464-4.421-1.435-.079.348-.277.542-.589.515-.109-.008-.299-.143-.286-.19.153-.628.568-.306.909-.23.075-.157.124-.388.254-.457 1.239-.685 2.588-.994 3.998-1.029 1.395-.04 2.794-.054 4.448-.085 1.401.514 3.033 1.112 4.551 1.673 2.721-1.106 3.82-3.727 6.664-5.896 1.127-.687 3.26-1.426 5.515-1.67.39.1.737.162 1.068.276 1.677.541 3.314 1.22 4.683 2.332 1.21.984 2.29 2.133 3.351 3.281.947 1.024 1.796 2.14 2.655 3.236 1.884 2.394 3.082 5.142 3.418 8.134.323 2.872 1.287 5.412 2.881 7.771.363.542.687 1.145.375 1.96-1.74-.282-3.189-1.371-4.997-1.896-.738.023-1.607.045-2.656.077l-2.168 1.853c-.236 2.09-.139 3.709.292 4.856 1.06 1.043 2.581 1.562 3.968 2.27 1.401.715 2.839 1.37 4.243 2.043 1.678 2.294 1.897 4.871 1.69 7.77l-2.231 4.654c-.739.593-1.559 1.243-2.532 2.03-1.345.32-2.907.561-4.379 1.074-1.465.516-2.841 1.303-4.107 1.897-2.192-.236-3.686-1.653-5.664-2.224-1.8.812-3.705 1.66-5.659 2.538-1.015-.075-2.059-.146-3.177-.226-2.496-1.117-5.046-2.287-7.62-3.39-1.918-.822-3.715-1.955-5.911-2.053-.662-.027-1.305-.476-1.946-.748-1.769-.77-3.532-1.553-5.212-2.288-1.156-.037-2.203-.066-3.299-.1-.813.233-1.646.473-1.77.51-.985.703-3.693 3.831-4.034 4.395-.54.907-.889 2.002-1.624 2.693-1.708 1.61-2.686 3.648-3.766 5.646-.754 1.391-2.207 2.229-2.825 3.756-.523 1.292-1.317 2.472-1.996 3.706-2.096 1.959-3.13 4.61-4.525 7.027-2.252 2.286-3.441 5.24-4.968 7.988-.172.303-.311.666-.562.879-1.691 1.39-2.403 3.424-3.43 5.237-.433.757-.765 1.579-1.128 2.335-2.39 2.044-3.568 4.776-4.671 7.552l-.066-.155c.367.167.756.178.938-.093.787-1.148 1.362-2.512 2.343-3.444 1.048-.997 1.767-2.151 2.508-3.33.268-.432.647-.803 1.016-1.17 1.853-1.855 3.631-3.755 4.811-6.144.226-.47.482-.987.873-1.291 1.295-1.018 1.935-2.464 2.726-3.821.261-.453.453-1.019.837-1.326 1.594-1.243 2.267-3.085 3.255-4.724.357-.6.668-1.284 1.18-1.714 1.112-.948 1.667-2.234 2.368-3.44.694-1.21 1.219-2.598 2.157-3.586 1.118-1.182 1.834-2.548 2.582-3.925.837-1.545 1.47-3.231 2.518-4.614 1.045-1.375 2.039-2.809 3.178-4.235.996-.285 1.979-.673 2.994-.818.893-.124 1.715.226 2.091 1.178-.461.524-.909 1.037-1.44 1.632.382.429.638.937 1.04 1.139 4.721 2.307 9.47 4.574 14.215 6.831.307.147.667.162 1.029.248 1.015-.162 2.048-.324 2.986-.47 2.53.607 4.67 1.79 6.708 3.188.691.787 1.516 1.498 2.032 2.377.626 1.071 2.039 1.433 2.353 2.934-.89 1.93-1.864 3.98-2.773 6.06-.991 2.25-1.951 4.508-3.219 6.495-.72.662-1.324 1.32-2.019 1.837-1.551 1.132-3.053 2.384-4.746 3.247-2.65 1.36-5.202 2.863-7.749 4.394-3.745 2.255-5.407 3.693-8.435 6.94-1.445 1.552-2.702 3.15-3.545 5.129-.681 1.603-1.653 3.083-2.494 4.617-1.756 1.323-2.353 3.447-3.366 4.829-1.574 1.656-2.908 3.033-4.21 4.433-1.552 1.684-3.306 3.167-5.321 4.191-2.822 1.426-5.861 2.283-9.044 2.361-.378-.821-.035-1.463.481-1.917 1.965-1.723 3.76-3.623 5.492-5.572 1.27-1.425 2.726-2.69 3.821-4.278 1.111-1.606 2.859-2.548 4.143-3.966.705-.775 1.667-1.41 2.094-2.301.57-1.19 2.091-1.347 2.452-2.629-.13-1.228-.327-2.427-1.15-3.671-.714-.448-1.679-.866-2.636-1.264a3.798 3.798 0 0 0-1.011-.248c-.475-.052-.948-.034-1.33-.041-.3-.416-.503-.688-.781-1.076-.593.286-1.213.575-1.774.85-.674 1.167-1.293 2.221-1.76 3.031-2.045 1.781-3.889 3.378-5.725 4.978-.589 1.12-1.847 1.552-2.569 2.6-.776 1.126-2.072 1.837-2.837 3.031-.183.289-.575.268-.942.083-.434.905-.672 1.949-1.702 2.454-.242-.94.213-1.633.865-2.189.191-.162.6-.063.917-.086.444-1.146.833-2.414 1.8-3.152 1.271-.969 1.877-2.545 3.278-3.346.948-1.466 2.218-2.671 3.302-4.019.98-1.222 2.444-2.028 3.051-3.551a14.41 14.41 0 0 0 3.131-4.136c.147-.306.368-.621.644-.813 1.019-.738 1.602-1.827 2.35-2.783.848-1.093 2.079-1.87 2.662-3.195 2.787-2.854 5.229-6.048 8.549-8.366 1.107-.776 2.373-1.405 3.105-2.64-1.279-4.48-2.394-6.54-4.446-8.145-.813.873-1.6 1.784-2.463 2.615-1.395 1.339-1.781 3.441-3.484 4.545-.269.178-.433.537-.611.837-1.253 2.083-2.23 4.323-3.978 6.123-.827.848-1.305 2.065-1.814 3.181-.596 1.318-1.992 1.963-2.6 3.25-.987 2.095-2.73 3.591-4.222 5.278-.343.388-.861.683-1.063 1.121-.822 1.789-2.442 2.958-3.458 4.566-1.034 1.643-2.727 2.707-3.61 4.458-.219.439-.848.654-1.12 1.076-.965 1.466-2.455 2.452-3.406 3.942-1.381 2.17-4.858 6.297-6.596 8.041-1.721 1.726-3.493 3.392-5.437 4.871-.995.759-2.074 1.293-3.316 1.452-.674.089-1.366.09-1.981.129-1.064.831-2.056 1.548-2.979 2.341-.53.447-.948 1.009-1.428 1.516-2.498 2.633-5.139 5.145-7.536 7.879-.156.18-.627.085-.949.115l.218-.106c-.564.992-1.094 2.009-1.7 2.981-.27.432-.773.532-1.286.47l.196-.099c-.56.986-1.102 1.988-1.7 2.946-.266.425-.762.546-1.272.495l.182-.088c-.876 1.499-1.431 3.223-3.07 4.156-.44.753-.819 1.562-1.33 2.264-.715.98-1.603 1.826-2.297 2.817-.694 1.008-1.04 2.315-1.881 3.139-1.955 1.903-2.862 4.361-4.01 6.703-.462.945-.71 1.939-.867 2.995-.167 1.19-.675 2.341-1.118 3.794-.118 1.784-.257 3.865-.422 6.275.21 1.407.63 3.09 1.475 4.599.714.43 1.361.232 2.043-.002.492-.167 1.014-.233 1.447-.332.576.188 1.178.284 1.206.92.012.269-.287.599-.51.825-.246.241-.601.36-.87.574a5.254 5.254 0 0 0-.716.743c-.343.423-.358.749-.204 1.945.82.428 1.716.13 2.52.244 1.57.436 2.783 1.561 4.346 1.864.153.029.338-.084.542-.144.01-.495.026-1.004.04-1.708l1.885-3.935c1.912-1.538 2.963-3.602 4.659-5.13 1.675-1.502 3.148-3.241 5.033-4.687.593-.067 1.274-.135 1.95-.213-.008-.347-.021-.704-.037-1.237.407-.357.877-.824 1.397-1.233 1.5-1.191 3.101-2.247 4.298-3.795.308-.404.802-.667 1.221-.975 2.664-1.975 5.022-4.298 7.413-6.58 2.018-1.925 4.062-3.794 6.328-5.434.549-.394.924-1.03 1.413-1.593.865-.488 1.771-1.009 2.738-1.563.545-.808 1.117-1.655 1.669-2.478.404.054.824-.017 1.039.156.795.644 1.226 1.719 2.34 1.99l-.179.063c.041-.322.183-.675.115-.971-.163-.665-.432-1.311-.684-2.046.411-.346.773-.681 1.153-.981 1.375-1.058 2.768-2.1 4.313-2.929 1.563-.828 2.416-2.479 3.856-3.455 1.573-1.069 3.007-2.415 5.294-2.616 1.919.218 3.577 1.566 5.409 2.479.447 1.169-.235 2.026-.763 3.035-4.279 3.901-8.667 7.828-12.912 11.912-.473.457-1.209.639-1.755.92-.613-.258-1.096-.455-1.577-.659l.2-.071c-.617.94.303 2.074-.212 2.783-.266.372-.337.557-.47.651-3.438 2.366-6.376 5.332-9.404 8.158-3.819 3.561-8.099 6.514-12.167 9.736-.96.759-2.119 1.202-3.649 1.232l-3.145-1.263.183-.07-.05-.006Zm25.39.661c.288-.563.44-1.227 1.153-1.454.08 1.169.09 1.183-1.234 1.24-.219.403-.414.827-.68 1.199-.297.419-.71.476-1.169.246-.202.421-.357.89-.637 1.255-.242.323-.557.303-.667.075-.058-.133-.108-.323-.064-.451.24-.683.694-.991 1.434-.724l.097-1.847c.158-.038.333-.147.457-.096.445.151.876.367 1.307.547l.003.01Zm-8.037 5.965-2.15 2.327c-.896.517-1.914.906-2.677 1.583-2.634 2.332-5.642 4.037-8.754 5.595-.463.234-.944.451-1.333.641-.937.164-1.805.275-2.646.476-1.018.24-2.012.578-3.019.85-.503.136-1.02.229-1.531.344-.54.118-1.273-.251-1.199-.645.059-.322.112-.744.328-.921 2.706-2.209 5.532-4.247 8.988-5.132 1.717-.439 3.194-1.362 4.677-2.264a277.626 277.626 0 0 0 5.3-3.306c1.039-.668 2.112-1.206 3.365-1.315.685.434.64 1.131.661 1.764l-.01.003Zm55.55-182.372c-.024-.169-.109-.359-.062-.494.318-.9 1.089-1.266 1.908-1.548.812-.286 1.641-.555 2.446-.02.125.086.247.416.233.427-1.496 1.019-2.006 1.204-4.529 1.642l.004-.007Zm-10.514-2.725c.385-.219.794-.487 1.233-.69.382-.175.659-.077.752.186.056.158.119.338.086.48-.174.635-.411 1.24-1.078 1.534-.315.147-.648.128-.879-.176-.174-.223-.249-.54-.304-.83-.023-.133.101-.301.186-.515l.004.01Zm-4.523-4.42c-.387-.564-.236-1.061.154-1.4.526-.458 1.198-.635 2.051-.568-.067.45-.137.89-.207 1.364-.718.217-1.372.412-1.998.603ZM93.113 183.056c.236-.273.482-.348.662-.156.097.108.19.336.138.425-.145.247-.353.462-.558.671-.049.046-.294-.027-.294-.045.002-.297.04-.594.06-.892l-.008-.003Zm1.299 3.743-.378.038.108-.316.27.278Zm44.165-4.505-.36.074.115-.349.241.282.004-.007Zm-15.32-43.571-.359.108.149-.419.21.311Zm18.158-14.648.37-.059-.118.337-.245-.275-.007-.003ZM67.925 208.605c-.05.326-.204.682-.128.981.219.841.533 1.667.77 2.377-.134 1.049-.587 1.884-1.253 2.397-2.918 2.23-5.555 4.77-8.261 7.234-.512.465-1.142.811-1.75 1.238-1.573.667-3.21 1.267-4.868 1.638-2.018-.801-2.708-2.815-4.16-4.027-1.028-.651-2.227-1.147-3.047-1.996-.734-.755-1.571-1.384-2.262-2.136-.979-1.048-1.984-1.985-3.283-2.547-1.032-.442-1.567-1.373-2.332-2.064-1.363-.811-2.723-1.612-4.072-2.417-.925-1.398-2.394-2.006-3.826-2.675-.951-.447-1.897-.997-2.904-1.217-1.53-.338-3.048-.716-4.57-1.068-1.689-.389-3.472-.288-5.356.114l-1.975 1.359c-.273.334-.545.572-.7.875-.7 1.408-1.37 2.84-1.964 4.081-.12 3.186.141 6.504.783 9.956.78 1.698 1.472 3.309 2.257 4.869 1.736 3.417 3.208 6.998 5.805 9.917.349.387.64.841.887 1.293 2.096 3.871 5.097 7.08 7.654 10.611 1.143 1.583 2.803 2.598 4.05 4.054.425.502 1.196.705 1.806 1.041l-.151.059c.046-.17.19-.399.122-.493-.569-.843-1.023-1.832-1.79-2.445-1.794-1.447-2.985-3.386-4.4-5.133-1.418-1.758-2.822-3.527-3.978-5.501-.964-1.645-2.222-3.116-3.375-4.642a5.518 5.518 0 0 1-1.05-2.361c.194-.276.387-.551.626-.902 1.308.286 2.638.748 3.996.821 1.401.075 2.568 1.204 4.028.773.108-.334.215-.65.323-.967a44.957 44.957 0 0 0-4.355-6.488c-2.064-2.585-3.99-5.278-6.026-7.885-1.32-1.685-2.235-3.525-2.613-5.881.091-.464.225-1.145.388-1.961-.262-.476-.58-1.058-.933-1.692.413-.275.833-.548 1.165-.765 1.445-.219 2.415.701 3.538 1.117 1.142.416 2.212 1.034 3.146 1.482.916.044 1.613.071 2.288.106l5.03 2.411c.487.54.84.937 1.336 1.491 1.785 1.03 3.778 2.1 5.881 2.977l-.193.074c-.037-.325.05-.818-.125-.946-.987-.701-2.036-1.309-3.308-2.094-.249-.321-.678-.868-1.159-1.493-1.611-.843-3.332-1.694-4.995-2.631-.392-.223-.363-.595-.107-.691.162-.063.342-.073.649-.128 1.924.975 3.938 2.002 5.838 2.974.415.523.743.935 1.177 1.476.467.268 1.042.657 1.676.944 1.154.518 1.873 1.502 2.777 2.304 1.03.905 2.325 1.438 3.217 2.611.708.936 2.032 1.263 2.774 2.312 1.303 1.851 3.184 3.174 4.682 4.856.313.352.894.455 1.422.708.566-.395 1.084-.892 1.691-1.153 5.373-2.325 9.611-6.14 13.59-10.29.594-.618 1.155-1.278 1.778-1.882.741-.723 1.306-1.609 1.404-2.764-.044-.108-.06-.352-.184-.421-1.045-.597-2.105-1.166-3.167-1.746l.063-.022.003-.007Z"/><path fill="#FA007A" d="M51.108 241.401c-.247.442-.494.885-.713 1.288-.462.287-.886.548-1.295.799-.117 1.706 1.578 2.045 2.38 3.28l-.104 1.607c.147.351.394.969.658 1.586.203.474.32.942.113 1.448l-.067-.208c.734.607 1.1 1.544.89 2.312-.42 1.516-.006 3.1-.55 4.583-.227.619-.187 1.34-.273 2.105-.308.203-.734.49-1.122.751-.708.782-.413 2.16-1.714 2.57-.327-.323-.669-.671-1.147-1.154l-1.745-.162c-2.535-2.407-5.1-4.697-7.49-7.149-1.133-1.165-2.377-1.972-3.873-2.487l.151-.059c-.174.363-.22.77.05.936 1.225.736 1.997 1.868 2.835 2.971.835 1.11 1.788 2.137 2.862 3.406 2.252.877 3.93 3.006 6.159 4.372.56.347.915 1.034 1.361 1.546 1.703 1.237 3.805 1.824 5.204 3.512.419.498 1.172.736 1.795 1.044 2.516 1.223 5.045 2.418 7.574 3.631 1.028.159 2.049.333 3.083.478 2.104.29 4.171.255 6.12-.757.493-.263.806-.622.81-1.233-.82-.595-1.558.086-2.337.177-.864.103-1.732.213-2.604.242-.866.032-1.736-.035-2.6-.063-1.126-.373-1.385-1.532-2.034-2.316-.426-.52-.653-1.234-.88-1.895-1.4-4.151-3.602-7.95-5.255-11.994-.722-1.766-1.704-3.447-2.738-5.056-.969-1.507-1.574-3.059-1.738-4.856-.143-1.567-.514-3.113-1.255-4.529-.146-.28-.485-.451-.74-.67l.198-.063.031.007ZM120.214 121.548c-.377-.163-.738-.161-.942.118-.915 1.271-1.616 2.714-3.195 3.596-.679 2.366-2.815 3.788-4.271 5.729-.415.555-1.041.947-1.438 1.502-.909 1.273-1.625 2.639-2.869 3.717-1.017.88-1.363 2.441-2.626 3.23-.272.167-.429.548-.6.851-.702 1.207-1.325 2.416-2.469 3.358-.92.751-1.394 2.049-2.318 2.789-1.395 1.12-1.773 3.095-3.463 3.898-1.016 1.187-2.175 2.288-3.012 3.596-.954 1.48-2.522 2.411-3.308 4.051-.356.741-1.314 1.167-1.775 1.875-.97 1.473-2.43 2.473-3.423 3.96-.945 1.423-2.594 2.377-3.55 3.804-1.37 2.034-3.427 3.511-4.446 5.802-.579 1.3-2.137 1.789-2.643 3.212-.416 1.159-1.195 2.109-2.186 2.897-.391.303-.622.841-.873 1.29a75.576 75.576 0 0 0-4.537 9.502c-.698 1.786-.534 3.802-1.357 5.573-.01 1.573-.139 3.159.018 4.715.17 1.73.622 3.437 1.573 4.944.08.126.313.151.47.226l-.095.033c.165-.49.532-.999.471-1.457-.274-2.078-.666-4.15-1.057-6.477.098-.443.281-1.118.373-1.802.072-.517.014-1.053.013-1.527.54-2.258 1.946-4.169 2.055-6.536.029-.644.422-1.411.899-1.875 1.798-1.776 2.629-4.113 3.81-6.247.51-.92.987-1.858 1.576-2.961.394-.346 1.074-.703 1.421-1.264 1.294-2.115 3.145-3.709 4.78-5.511.701-.768 1.173-1.752 1.913-2.475.752-.727 1.619-1.31 2.133-2.273.254-.475.763-.66 1.334-.518l-.182.088c.56-1.003 1.09-2.019 1.693-3.002.275-.446.772-.532 1.28-.438l-.197.099c.556-1.014 1.072-2.055 1.675-3.037.275-.447.794-.505 1.308-.407l-.218.106c.788-1.551 1.478-3.175 3.096-4.1.575-1.109 1.66-1.764 2.408-2.703.862-1.085 1.474-2.361 2.695-3.135.776-1.582 2.2-2.671 3.159-4.104.865-1.295 1.463-2.779 2.869-3.647.719-1.847 2.476-2.881 3.51-4.489 1.124-1.741 2.855-3.032 3.714-4.987 1.489-1.004 2.053-2.785 3.317-3.959.786-.727 1.42-1.519 1.882-2.464.533-1.094 1.041-2.209 1.56-3.31l.066.154-.021-.01ZM169.101 175.283c.32.083.695.307.951.21a14.393 14.393 0 0 0 2.382-1.076c1.814-1.041 3.598-2.149 5.386-3.229 3.139-1.888 6.249-3.825 9.425-5.642 1.968-1.126 3.787-2.489 5.961-3.296 1.458-.537 2.829-1.388 4.126-2.265 3.345-2.245 6.99-3.943 10.528-5.823 5.245-2.789 10.272-5.928 15.288-8.915.87-1.871.841-3.602.072-5.233-.666-1.407-1.582-2.696-2.423-4.011a.654.654 0 0 0-.94-.178c-.237.184-.507.528-.506.8 0 1.92.095 3.841.095 5.761.001.509-.199 1.018-.32 1.6-2.748 3.302-6.796 4.745-10.331 7.039-.273.386-.574.812-.936 1.331-2.977 1.641-6.017 3.357-9.097 4.992-1.538.815-2.716 2.248-4.52 2.576-1.025 1.042-2.303 1.552-3.706 1.826-3.412 2.44-7.454 3.816-10.783 6.393-.545.423-1.067.909-1.666 1.244-1.208.692-2.411 1.43-3.708 1.904-1.858.679-3.326 1.895-4.793 3.128-.241.209-.319.61-.473.913l-.022-.063.01.014ZM86.497 223.293l2.964 1.421c1.97-.089 4.063-.086 6.124-.308 4.554-.49 8.851-1.832 12.813-4.193 2.667-.956 4.858-2.694 7.107-4.351 4.763-3.502 9.631-6.857 14.264-10.527l4.518-3.576c.265-.644.533-1.278.798-1.923l.061.222c-.336.041-.75-.026-.995.155-2.965 2.146-5.753 4.544-8.989 6.306-.603.325-1.207.78-1.601 1.328-.967 1.324-2.381 1.988-3.688 2.851-1.595 1.059-3.062 2.311-4.594 3.461-3.23 2.422-6.674 4.471-10.53 5.752a410.668 410.668 0 0 0-4.97 1.702c-2.501.87-5.046 1.298-7.709 1.223-1.718-.053-3.447.153-5.176.271-.12.012-.226.251-.344.387l-.056-.193.003-.008Z"/><path fill="#FA007A" d="M86.552 223.486c-2.573-1.286-5.153-2.575-7.865-3.936-.088-.367-.19-.828-.3-1.293l.066.172c-.316-.055-.662-.229-.936-.15-.486.135-.99.349-1.392.656-2.44 1.89-4.933 3.728-7.257 5.761-1.92 1.683-3.716 3.53-5.398 5.45-1.013 1.163-2.245 2.106-3.197 3.324-.094.122-.305.143-.512.228-.458-.123-.959-.249-1.456-.382l.19-.067c-.03.17-.09.351-.073.517a.888.888 0 0 0 .181.464c3.182 3.909 6.252 7.905 8.822 12.249.382.648.929 1.006 1.618 1.214l-.077.033c.068-.16.217-.343.186-.48a10.672 10.672 0 0 0-2.023-4.17 195.82 195.82 0 0 1-4.076-5.407c-.3-.416-.52-.907-.701-1.388-.122-.313-.096-.677-.145-1.034.484-1.503 1.204-2.841 2.42-3.95.752-.692 1.28-1.63 2.01-2.587 1.053-.88 2.382-1.768 3.401-2.927.937-1.059 2.022-1.915 3.126-2.736 1.246-.919 2.337-2.079 3.858-2.674 1.411.089 2.563.957 3.844 1.466 1.612.641 3.214 1.321 4.832 1.948.303.119.598-.152.794-.505l.056.194.004.01ZM169.123 175.346c-.326-.015-.688-.119-.972-.019-1.329.45-2.312 1.478-3.506 2.159-.746.423-1.43.954-2.19 1.352-.249.135-.644-.01-.976-.029l.228-.093c-.258.447-.422 1.008-.806 1.315-1.213.978-2.434 1.971-3.771 2.75-3.767 2.174-7.035 5.025-10.473 7.646-1.791 1.36-3.564 2.754-5.336 4.131-2.188 1.695-4.312 3.456-6.179 5.506l-.061-.222c.488.172.964.348 1.558.554 1.518-1.157 3.043-2.311 4.558-3.478 4.701-3.629 9.395-7.26 14.099-10.878 1.662-1.273 3.308-2.569 5.18-3.548.585-.307.995-.943 1.753-1.684a1965.44 1965.44 0 0 1 5.96-3.604l.912-1.903.022.063v-.018Z"/><path fill="#FA007A" d="M58.306 233.315c.823-1.735 1.485-3.609 2.82-4.986 1-1.028 1.823-2.123 2.46-3.361.59-1.138 1.886-1.577 2.426-2.72.225-.471.433-.959.644-1.436l.07.165c-.163-.061-.32-.154-.487-.172-.142-.015-.339.013-.444.103-1.764 1.652-4.003 2.63-5.865 4.139-.663.542-1.351 1.027-1.949 1.67-1.35 1.465-1.397 1.416-3.896 1.639 1.034 1.372 2.032 2.762 3.118 4.08.303.373.86.544 1.296.805l-.19.067-.003.007ZM73.968 264.017c.814.477.793 1.344.968 2.112.167.729-.075 1.033-.989 1.331-.148.052-.321.013-.487.012l.193-.056c-.319 1.03.21 2.029.096 3.053.633-.101 1.465-1.484 2.498-4.15.017-.877.039-1.91.061-3.109-1.078-3.69-2.518-7.413-3.902-11.162-.485-1.328-1.306-2.449-2.112-3.563-.275-.377-.875-.516-1.324-.766l.077-.033c-.06.163-.224.357-.18.483.433 1.128.75 2.332 1.378 3.343 1.212 1.948 1.856 4.133 2.792 6.185.711 1.569 1.026 3.324 1.498 4.917-.188.612-.339 1.109-.49 1.606l-.074-.21-.003.007Z"/><path fill="#FA007A" d="M66.646 220.816c.166.018.387.124.492.052 1.259-.817 2.054-2.128 3.197-3.087.474-.404.631-1.17.932-1.78l.074.193c-.318.023-.712-.069-.939.094-.688.485-1.308 1.065-2.29 1.891-.346.684-.873 1.747-1.4 2.809l-.07-.165.004-.007ZM99.64 195.854c.178-.371.18-.703-.072-.947-.804-.753-.814-.749-2.265-.849.502 1.074 1.583 1.285 2.52 1.725l-.183.071ZM126.241 169.879c-.282.644-.01 1.082.526 1.426l-.215.064c.382-.668.13-1.112-.5-1.423l.179-.064.01-.003Z"/><path fill="#FAF5E5" d="M120.14 121.39c-.519 1.101-1.027 2.216-1.56 3.31-.462.945-1.095 1.737-1.882 2.464-1.26 1.167-1.828 2.954-3.317 3.959-.848 1.951-2.59 3.246-3.714 4.987-1.044 1.612-2.791 2.641-3.509 4.488-1.407.869-2.004 2.353-2.87 3.647-.959 1.434-2.383 2.522-3.159 4.105-1.221.773-1.836 2.056-2.695 3.135-.744.932-1.825 1.597-2.408 2.703-1.617.925-2.301 2.552-3.096 4.099.322-.03.793.065.95-.115 2.396-2.734 5.034-5.239 7.535-7.879.48-.507.905-1.065 1.428-1.516.93-.79 1.915-1.51 2.98-2.341.621-.035 1.307-.04 1.98-.129 1.242-.158 2.321-.693 3.316-1.452 1.937-1.482 3.716-3.145 5.437-4.871 1.738-1.744 5.215-5.871 6.596-8.04.951-1.491 2.441-2.477 3.406-3.943.279-.418.901-.637 1.12-1.076.883-1.75 2.576-2.815 3.61-4.458 1.012-1.601 2.636-2.777 3.459-4.566.211-.442.719-.733 1.063-1.121 1.491-1.686 3.234-3.183 4.221-5.278.608-1.287 2.004-1.932 2.6-3.25.505-1.108.987-2.332 1.814-3.181 1.748-1.8 2.725-4.04 3.978-6.122.178-.3.342-.66.611-.838 1.703-1.103 2.089-3.206 3.484-4.545.863-.83 1.65-1.742 2.463-2.615 2.052 1.606 3.164 3.673 4.446 8.145-.732 1.235-1.994 1.857-3.105 2.64-3.319 2.318-5.758 5.523-8.549 8.366-.59 1.322-1.821 2.099-2.662 3.195-.744.967-1.323 2.048-2.35 2.783-.269.195-.49.51-.644.813a14.513 14.513 0 0 1-3.131 4.136c-.611 1.531-2.071 2.329-3.051 3.551-1.084 1.348-2.351 2.546-3.302 4.019-1.393.805-2.007 2.377-3.278 3.346-.967.738-1.356 2.006-1.8 3.152l-.07-.182c.371.177.763.199.942-.084.758-1.197 2.061-1.904 2.838-3.031.718-1.041 1.979-1.479 2.569-2.599 1.843-1.597 3.679-3.198 5.725-4.979.467-.81 1.089-1.87 1.759-3.031.558-.267 1.182-.564 1.775-.85.274.378.481.66.781 1.076.371.012.851-.004 1.329.041.344.033.688.12 1.012.248.968.394 1.925.809 2.636 1.264.833 1.241 1.026 2.447 1.149 3.672-.368 1.278-1.881 1.438-2.452 2.629-.43.898-1.392 1.533-2.093 2.301-1.288 1.425-3.039 2.356-4.144 3.965-1.094 1.588-2.55 2.854-3.821 4.279-1.731 1.948-3.523 3.842-5.492 5.572-.515.454-.858 1.096-.481 1.917 3.184-.079 6.223-.936 9.045-2.362 2.012-1.017 3.768-2.506 5.32-4.19 1.295-1.404 2.63-2.781 4.211-4.434 1.013-1.381 1.617-3.502 3.366-4.829.841-1.534 1.813-3.014 2.493-4.616.844-1.98 2.101-3.578 3.545-5.129 3.029-3.247 4.691-4.686 8.435-6.941 2.541-1.534 5.1-3.034 7.749-4.393 1.697-.87 3.196-2.115 4.746-3.248.702-.514 1.296-1.167 2.02-1.837 1.268-1.987 2.227-4.244 3.219-6.495.916-2.077 1.893-4.133 2.773-6.06-.315-1.5-1.727-1.862-2.353-2.934-.52-.889-1.348-1.593-2.033-2.376-2.037-1.398-4.174-2.589-6.707-3.19-.938.147-1.974.317-2.986.472-.362-.086-.723-.102-1.029-.248a1497.359 1497.359 0 0 1-14.215-6.832c-.406-.194-.658-.71-1.04-1.138.524-.6.982-1.116 1.44-1.633-.384-.955-1.199-1.302-2.091-1.177-1.015.144-2.002.54-2.994.817-1.136 1.42-2.123 2.857-3.178 4.236-1.045 1.375-1.682 3.069-2.518 4.613-.748 1.377-1.464 2.744-2.583 3.925-.938.988-1.459 2.369-2.157 3.586-.694 1.21-1.256 2.492-2.367 3.44-.509.44-.819 1.125-1.181 1.714-.987 1.64-1.667 3.478-3.255 4.725-.391.303-.576.872-.837 1.325-.79 1.357-1.438 2.8-2.725 3.822-.391.303-.644.831-.873 1.291-1.177 2.381-2.958 4.288-4.811 6.144-.369.366-.748.737-1.017 1.169-.743 1.186-1.46 2.333-2.507 3.33-.981.932-1.556 2.296-2.343 3.444-.186.279-.572.261-.939.094Zm36.566-11.829c-1.3-.597-1.283-.615-1.571-2.427.63-.198 1.273-.407 1.832-.586 1.105.748 1.122.748 1.114 1.13-.005.523-.049 1.054-.489 1.405-.258.209-.592.321-.886.478Z"/><path fill="#FA007A" d="M156.703 109.569c.302-.154.628-.269.886-.478.44-.351.488-.889.49-1.405.008-.382-.01-.382-1.115-1.13-.555.172-1.198.381-1.831.586.295 1.815.267 1.837 1.57 2.427Z"/></svg>