<svg xmlns="http://www.w3.org/2000/svg" width="187" height="220" fill="none"><path d="M37.169 86.539c-.608.49-1.2.34-1.793-.06a204.793 204.793 0 0 0-2.964-1.94c-.593-.371-1.216-.682-2.016-1.127-.845 1.912-1.63 3.646-2.445 5.454 2.534 1.378 5.053 2.341 7.128 4.09-.519 1.097-1.17.919-1.852.593l-4.669-2.134c-.207-.09-.444-.148-.74-.252-.356.548-.697 1.097-1.038 1.63-.385.623-.474 1.245-.282 2.016.223.948.148 1.986.193 2.978.03.756 0 1.512 0 2.446 2.356.252 4.624.459 6.877.741 2.223.281 4.49.504 6.417 1.808-.341 1.097-1.023.963-1.66.874-1.112-.148-2.223-.385-3.335-.474-2.593-.207-5.187-.356-7.78-.504-.341-.015-.682.089-1.245.163-.297 1.527-.623 3.068-.904 4.609-.163.875-.104 1.793-.386 2.623-.992 2.964-2.252 5.825-4.075 8.403-.43.623-.963 1.216-1.571 1.675-2.905 2.253-4.698 5.35-6.017 8.625-.874 2.179-2.208 3.972-3.394 5.914-.533.889-.948 1.852-1.452 2.845.726.296.785.948.444 1.838-.815.103-1.57.459-1.763 1.63.089.222.252.593.46 1.082-.386.518-.786 1.067-1.379 1.852-.578-.948-1.023-1.66-1.482-2.401.326-.548.593-.993.904-1.511-.252-.311-.489-.623-.756-.949.104-.133.193-.281.326-.4 1.616-1.645 3.053-3.423 3.987-5.543.148-.34.015-.815.015-1.407.904-1.423 2.475-2.683 3.142-4.639-.386-.311-.697-.549-1.038-.83.386-1.201 1.378-1.823 2.386-2.431.311.252.593.489 1.112.934-.09-.8-.134-1.289-.163-1.645 1.778-1.927 3.497-3.764 5.201-5.632.238-.252.4-.592.534-.918 1.112-2.846 2.771-5.484 3.409-8.507.222-1.038.4-2.075.563-3.127.133-.86.178-1.749.281-2.816-1.111-.148-2.252-.43-3.379-.415-3.72.03-7.44.148-11.144.296-1.868.074-3.735.297-5.617.282 6.699-1.63 13.516-1.734 20.555-1.675l.504-4.757c-.593-.237-.993-.415-1.541-.622 1.037-1.63 2.03-3.172 3.127-4.891a146.066 146.066 0 0 0-25.98-6.565c8.73.37 17.147 2.297 25.402 5.32.785-1.838 1.467-3.423 2.179-5.098.266-.089.592-.193 1.037-.326-.49-.563-.89-1.112-.193-1.69-1.096-.607-1.778-.103-2.652.578.074-.696.118-1.156.192-1.778-2.638-1.912-5.81-2.905-8.773-4.253-2.935-1.334-6.002-2.357-8.996-3.572 6.92.593 12.79 4.239 18.925 6.773 1.971-1.423 3.853-3.913 4.165-5.424-.79.059-1.808.489-3.053 1.289.133-.296.178-.667.385-.89 1.17-1.244 2.416-2.43 3.572-3.69.533-.577.933-1.274 1.57-2.148-2.4-.356-4.445-.741-6.52-.934-5.691-.519-11.308-1.482-16.895-2.638-2.712-.563-5.44-1.023-8.033-2-.711-.267-1.452-.475-2.104-.86-.4-.237-.623-.756-1.082-1.334l1.57-1.378c.401.133.727.252 1.053.37.104-.06.252-.104.282-.178.222-.681.696-1.067 1.378-1.215 1.6-.34 3.201-.74 4.817-1.052 2.37-.46 4.742-.934 7.128-1.245 3.542-.474 7.114-.904 10.67-1.23 4.284-.4 8.567-.667 13.042-1.008.104-.578.297-1.304.37-2.045.193-1.927.341-3.868.475-5.81.163-2.193.667-4.297 1.408-6.357.178-.504.696-.92 1.141-1.26.593-.474 1.274-.83 1.912-1.245.563-1.141-1.304-2.979.963-3.453-.074-5.246.311-10.3 1.823-15.265.637-2.119.785-4.401 1.245-6.58.252-1.2.667-2.371 1.037-3.557.208-.652.549-1.17 1.26-1.096.163-2.624 1.704-4.595 2.786-6.7.993-.192 1.245.446 1.497 1.038.534 1.26 1.29 2.327 2.282 3.32 1.361 2.108 2.24 3.438 3.361 6.936 1.5 3.172 2.078 5.943 3.723 9.559.415-.193.8-.297 1.067-.534.534-.46 1.067-.948 1.497-1.497 1.527-1.985 3.601-2.386 5.943-2.341.904.015 1.808-.37 2.727-.504 4.105-.578 8.225-.726 12.36-.652 2.949.044 5.913-.089 8.862.015 3.527.133 7.069.444 10.597.711.652.045 1.437.074 1.556 1.186.281-.311.474-.549.8-.92 1.052.238 2.193.505 3.335.742.696.148 1.067.474 1.378 1.17.296.668.993 1.171 1.571 1.69.711.637 1.467 1.215 2.238 1.853.563-.312 1.096-.608 1.674-.934.549-.845-.089-2.253 1.201-2.83-.549-1.082.429-1.78.726-2.639.474-1.363 1.245-2.638 1.763-4.001.475-1.26.801-2.564 1.171-3.794 2.49-1.882 3.35-4.935 5.528-7.262.385.652.815 1.141 1.008 1.72.711 2.104 1.289 4.267 2.03 6.357.178.49.756.845 1.23 1.349 0 .756-.044 1.645 0 2.52.045.814.519 1.778.223 2.4-.401.815.074 1.6-.415 2.312.444.326.815.608 1.185.89-.074.044-.148.103-.237.147.371.682.756 1.364 1.082 2.075.252.534.548 1.082.593 1.645.104 1.275 0 2.564.074 3.839.074 1.289 0 2.667.43 3.823.504 1.349.385 2.608.326 3.305.504 1.779.844 2.979 1.185 4.194-.074.015-.148.045-.207.06.059.103.089.251.178.296 2.356 1.26 2.623 3.646 2.979 5.869.444 2.786.592 5.616.889 8.595.474.045.978.134 1.497.134 3.542.014 7.098 0 10.64.044 5.38.089 10.701.712 15.962 1.808 2.208.46 4.401 1.082 6.565 1.749 1.111.34 2.134.948 3.157 1.423-.015.963-.593 1.245-1.201 1.511-3.512 1.556-7.202 2.594-10.952 3.394-2.238.49-4.49.919-6.699 1.527-3.764 1.022-7.602 1.66-11.485 2.074-.815.09-1.63.237-2.445.4-1.512.297-2.001 1.542-1.038 2.727a9.492 9.492 0 0 0 1.912 1.779c.652.445.978.963 1.111 1.823-.414.252-.815.504-1.23.74.771 1.424 1.482 2.757 2.223 4.061.697 1.23 1.349 2.416 1.542 3.883.118.89.904 1.705 1.378 2.55 5.617-3.557 19.088-8.24 23.075-7.93-2.001.638-3.72 1.171-5.424 1.75-5.513 1.896-10.908 4.075-16.08 6.772-.815.43-1.423 1.23-2.208 1.942 1.082 2.104 2.697 3.927 2.801 6.55.859-.06 1.63-.03 2.356-.193 2.223-.518 4.417-1.215 6.654-1.645 2.935-.563 5.914-.889 8.848-1.407 2.608-.445 5.202-.786 7.855-.8.978 0 1.956-.194 2.949-.223.489-.015.993.148 1.467.326-4.876 1.17-9.9 1.126-14.776 2.341-4.816 1.186-9.751 1.972-14.805 2.965 0 .889-.089 1.585.015 2.267.326 2.016.711 4.031 1.097 6.18h5.661c.281.356.504.667.845 1.097.281-.415.474-.727.755-1.156.371.192.756.385 1.038.518 1.763-.859 3.631-.355 5.409-.296 1.882.059 3.764.311 5.647.534 1.852.222 3.705.518 5.542 1.067-1.541 0-3.097.044-4.638 0-2.401-.089-4.802-.297-7.188-.341-4.002-.045-8.003 0-12.004.015-.282 0-.578.059-.949.103a82.92 82.92 0 0 0-.563 1.942c1.289.741 1.2 2.075 1.349 3.26.118.934.326 1.764.726 2.653.489 1.097.474 2.401.741 3.601.474 2.179.993 4.357 1.511 6.536.06.281.178.563.356.785 1.704 2.105 3.498 4.105 5.661 5.751 1.067.815 1.69 1.882 1.808 3.275.03.43.371.83.578 1.245.727 1.482 1.468 2.949 2.179 4.431.104.207.074.533.222.652 1.645 1.304 2.297 3.216 3.246 5.068-.296.415-.637.875-.904 1.245a4776.54 4776.54 0 0 1-4.935-7.41c.415-.815.089-1.645-.534-2.43-1.037-1.29-2.03-2.609-3.053-3.913-.148-.192-.444-.341-.459-.518-.104-1.586-1.408-2.238-2.401-3.083-1.897-1.63-2.831-3.898-3.972-6.002-.518-.963-.281-2.312-.711-3.349-1.097-2.638-.904-5.469-1.408-8.24-1.912-.979-.534-3.157-1.793-4.713-2.431.222-5.069.444-7.692.711-1.467.148-2.934.415-4.401.504-.638.044-1.305-.222-1.883-.341-.177-1.215.519-1.541 1.201-1.719 1.26-.326 2.534-.637 3.809-.785 2.875-.312 5.75-.519 8.625-.771.163-.015.326-.104.726-.222-.548-2.194.371-4.654-1.482-6.67-1.437-.044-2.534.83-3.735 1.394-.637.296-1.244.681-1.911.904-.816.266-.934.163-1.734-.8.533-1.275 1.674-1.912 2.86-2.431 1.186-.519 2.401-.934 3.705-1.438-.193-.548-.356-1.022-.548-1.556.222-.385.444-.77.711-1.26-.608-1.067-1.215-2.134-1.853-3.26-2.074.756-3.63 2-5.216 3.201-1.823 1.364-3.335 3.157-5.617 3.883-.445.148-.771.741-1.2.815-.83.134-1.468-.267-1.749-1.215 4.031-4.105 8.877-6.995 13.916-9.811-.415-1.022-.726-1.956-1.156-2.83-.949-1.957-1.942-3.869-2.935-5.81-.103-.193-.207-.415-.385-.548-1.215-.949-1.66-2.105-.978-3.528-.845-1.007-1.645-1.941-2.475-2.934-.504-.104-1.126-.222-1.882-.37-.563.444-1.245.992-1.882 1.511-.86-.133-1.808-.267-2.742-.415-.252.474-.415.77-.652 1.186-.889-.045-1.867.074-2.757-.163-1.126-.297-2.089-.193-2.578.178-1.69.133-2.905.207-4.12.355-2.638.311-5.261.727-7.885 1.008a431.73 431.73 0 0 1-10.744 1.008c-1.527.118-3.068.06-4.609.104-3.186.089-6.373.281-9.56.296-2.77 0-5.557-.34-8.313-.252-5.084.148-10.152-.06-15.22-.089-3.35-.015-6.684-.415-10.034-.637-.296-.015-.592-.045-.889-.03-3.334.178-6.595-.356-9.885-.77-1.497-.178-3.023-.178-4.994-.267-.519-.074-1.482-.341-2.46-.356-1.853-.03-3.676-.148-5.454-.77-.652-.238-1.364-.238-2.075-.356-.415.489-.741.889-1.097 1.319.178.444.356.874.46 1.14-.49.846-.875 1.542-1.275 2.239l-.015-.06c-1.052 1.26-2.09 2.52-2.934 3.528v3.008c.563.282 1.304.623 1.986 1.038 1.156.71 2.297 1.422 3.379 2.237.311.223.37.786.533 1.186l-.177.963.148-.059Zm105.415-31.596c-.311-3.453-.607-6.655-.904-9.856-3.181.514-5.088.47-5.72-.133 1.956-.252 3.719-.49 5.676-.741-.163-1.171-.267-2.268-.46-3.35-.148-.844-.533-1.467-1.437-1.852-2.223-.934-4.357-2.06-6.254-3.587a45.536 45.536 0 0 0-2.579-1.852c-1.571-1.052-3.32-1.882-4.713-3.127-3.601-3.201-7.632-5.973-10.567-9.885-.696-.919-1.63-1.408-2.682-1.571-2.742-.43-5.483-.993-8.255-1.097-5.305-.192-10.611-.133-15.931-.148-2.401 0-4.787.015-7.188 0-.445 0-.875-.237-1.082-.296-2 .474-3.78 1.111-5.365.578-1.141.326-2.016.756-2.905.815-1.793.104-3.156.845-4.179 2.297a17.406 17.406 0 0 1-3.794 3.942c-.756.563-1.437 1.23-2.149 1.853-2.934 2.564-5.883 5.112-9.351 6.965-.474.252-.949.519-1.334.86-2.045 1.852-4.357 3.23-6.906 4.223-.89.341-1.334.934-1.482 1.794-.208 1.215-.415 2.445-.519 3.675-.252 2.697-.43 5.41-.652 8.121-.06.697-.178 1.379-.282 2.105 2.994 1.511 6.136 1.986 9.263 2.312.148.652.237 1.111.37 1.556.015.06.178.074.341.133.178-.474.356-.948.564-1.497.578.03 1.111.06 1.63.104 2.993.297 5.987.682 8.995.904 2.95.222 5.899.326 8.863.4 4.653.119 9.307.208 13.946.223 4.49.014 8.966-.045 13.456-.134 3.898-.074 7.781-.252 11.664-.385 2.608-.089 5.231.222 7.943-.37-.089.563-.148.918-.192 1.244 1.437.667 1.571-.652 2.03-1.156 3.764-.43 7.395-.785 10.982-1.289 3.66-.504 7.291-1.156 11.159-1.793v.015ZM21.119 65.79c.281-.074.666-.282 1.007-.252 2.179.178 4.357.267 6.506.637 3.616.638 7.218 1.082 10.893 1.141 2.83.045 5.647.386 8.477.475 1.215.044 2.43-.178 3.72-.297.4.134.919.4 1.453.445 3.245.207 6.476.385 9.722.533 3.482.163 6.965.282 10.448.445 1.17.06 2.356.252 3.527.222 5.424-.148 10.848-.355 16.272-.533 2.194-.074 4.372-.074 6.566-.163 7.558-.297 15.131-.578 22.689-.949 4.002-.193 8.018-.474 12.004-.889 4.698-.49 9.382-1.067 14.05-1.808a498.316 498.316 0 0 0 18.11-3.275c3.053-.623 6.032-1.616 9.055-2.416 1.334-.356 2.683-.622 4.016-.934 0-.133-.029-.266-.044-.385-11.367-3.987-23.208-4.001-35.005-4.238-.119.251-.222.4-.282.578-.059.222-.089.459-.118.696-.267 2.386-.341 2.534-2.712 2.905-4.787.74-9.559 1.526-14.361 2.075-4.98.563-9.989.978-14.998 1.274-4.239.252-8.507.311-12.76.341-7.988.06-15.96.06-23.948.06h-.001c-1.586 0-3.172-.09-4.772-.149-3.231-.104-6.477-.074-9.693-.34-3.883-.327-7.75-.846-11.619-1.38-2.045-.28-4.06-.755-6.076-1.2-1.541-.34-2.905-.978-3.468-2.608-1.111 0-2.104.045-3.112 0-1.69-.074-3.335.237-5.01.415-3.986.4-7.973.83-11.96 1.304-2.163.267-4.297.786-6.46.993-3.306.311-6.492 1.097-9.693 1.897-.608.148-1.245.282-1.63.919 4.92 1.156 5.765 1.467 6.358 2.4.31-.162.652-.503.933-.444 3.646.652 7.292 1.349 10.938 2.06.31.06.592.267.963.445h.015Zm29.403-33.138c.326-.252.593-.46.815-.622-.074-.741-.148-1.364-.223-2.12.667.49.49 1.542 1.275 1.542.948-.993 1.778-1.882 2.742-2.905.474-.207 1.126-.49 1.763-.756.149-.504.282-.963.415-1.437.326.059.652.133 1.142.222.518-.89 1.052-1.793 1.674-2.846.519.09 1.2.193 2.105.341.444-.489.978-1.082 1.348-1.511-.978-3.705-2.267-7.04-3.468-10.39-1.26-3.497-3.497-6.253-5.38-9.499-.34 1.023-.503 1.838-.859 2.579-1.023 2.164-2.549 4.135-2.638 6.669 0 .06-.03.118-.06.163-.71.8-.77 1.808-.859 2.816-.074.756-.237 1.511-.37 2.267-.415 2.327-1.008 4.624-1.23 6.966-.208 2.341-1.082 4.609-.741 7.01.03.163-.06.355-.119.503-.444.964 0 1.75.252 2.594.119.015.252.044.37.06.386-.757.786-1.527 1.201-2.357.222.178.46.385.874.726l-.03-.015Zm80.354-29.077c-.355.43-.681.667-.785.978-.623 2.045-2.579 3.394-2.92 5.587-.044.297-.444.534-.637.83-.637.979-1.482 1.897-1.808 2.964-.786 2.58-2.03 5.04-2.179 7.796 0 .118.03.222.06.37h.637c.03.534.059 1.067.104 1.749.711-.237 1.17-.385 1.615-.534.148.86.267 1.601.385 2.327 1.868.03 2.372 1.438 2.89 2.372 1.408.889 2.549 1.615 3.676 2.341-.134.37-.252.711-.475 1.393.904-.533 1.497-.89 2.164-1.29.178.89.341 1.631.593 2.846.697-.77 1.067-1.2 1.541-1.719.504 1.349.978 2.594 1.556 4.15.119-5.024-.503-9.633-1.689-14.168a19.992 19.992 0 0 1-.4-1.882c-.163-.993-.252-1.986-.445-2.965a393.648 393.648 0 0 0-1.778-8.284c-.371-1.66-.801-3.32-2.105-4.831v-.03Z" fill="#FA1B7A"/><path d="M21.119 65.79c.281-.073.666-.28 1.007-.251 2.179.178 4.357.267 6.506.637 3.616.638 7.218 1.082 10.893 1.141 2.83.045 5.647.386 8.477.475 1.215.044 2.43-.178 3.72-.297.4.134.919.4 1.453.445 3.245.207 6.476.385 9.722.533 3.482.163 6.965.282 10.448.445 1.17.06 2.356.252 3.527.222 5.424-.148 10.848-.355 16.272-.533 2.194-.074 4.372-.074 6.566-.163 7.558-.297 15.131-.578 22.689-.949 4.002-.193 8.018-.474 12.004-.889 4.698-.49 9.382-1.067 14.05-1.808a498.316 498.316 0 0 0 18.11-3.275c3.053-.623 6.032-1.616 9.055-2.416 1.334-.356 2.683-.622 4.016-.934 0-.133-.029-.266-.044-.385-11.367-3.987-23.208-4.001-35.005-4.238-.119.251-.222.4-.282.578-.059.222-.089.459-.118.696-.267 2.386-.341 2.534-2.712 2.905-4.787.74-9.559 1.526-14.361 2.075-4.98.563-9.989.978-14.998 1.274-4.239.252-8.507.311-12.76.341-7.988.06-15.96.06-23.948.06h-.001c-1.586 0-3.172-.09-4.772-.149-3.231-.104-6.477-.074-9.693-.34-3.883-.327-7.75-.846-11.619-1.38-2.045-.28-4.06-.755-6.076-1.2-1.541-.34-2.905-.978-3.468-2.608-1.111 0-2.104.045-3.112 0-1.69-.074-3.335.237-5.01.415-3.986.4-7.973.83-11.96 1.304-2.163.267-4.297.786-6.46.993-3.306.311-6.492 1.097-9.693 1.897-.608.148-1.245.282-1.63.919 4.92 1.156 5.765 1.467 6.358 2.4.31-.162.652-.503.933-.444 3.646.652 7.292 1.349 10.938 2.06.31.06.592.267.963.445h.015Z" fill="#FA1B7A"/><path fill-rule="evenodd" clip-rule="evenodd" d="m90.893 148.932-1.26.252h-7.232c-.542-.319-1.052-.627-1.543-.922-1.175-.707-2.235-1.345-3.333-1.909-2.134-1.112-4.282-2.179-6.49-3.142-1.004-.43-2.056-.761-3.105-1.09-.47-.148-.938-.295-1.401-.451-.874-.297-1.764-.608-2.653-.919-.166-.05-.327-.104-.518-.169-.15-.05-.317-.107-.52-.172.267 1.467.905 2.164 2.209 2.386 1.215.208 2.445.519 3.572 1.008 3.349 1.482 6.669 3.038 9.974 4.609 1.319.637 2.386 1.556 3.23 2.905H79.72c-.8-.015-1.408.311-1.645 1.082-.252.815-.252 1.704.533 2.252a5.126 5.126 0 0 0 1.764.741c.549.112 1.119.147 1.685.182.26.016.519.032.775.055-.37.178-.711.178-1.067.178-.138 0-.277-.003-.415-.006-.277-.007-.553-.014-.83.006-1.126.104-2.104.83-2.253 1.704-.163 1.008.267 1.72 1.2 2.135.076.028.122.104.175.194.031.051.064.107.108.161-.386.074-.682.134-.964.193-.1.026-.202.051-.305.076a8.016 8.016 0 0 0-.554.146c-1.023.341-1.438.949-1.349 1.986.074.949.548 1.452 1.57 1.616.274.042.552.065.9.094.256.021.55.046.909.083-.495.067-.981.099-1.453.129-1.618.105-3.08.199-4.238 1.679l.317-1.259.231-.919c-.03-.015-.059-.026-.088-.037-.03-.011-.06-.022-.09-.037-.592.756-1.185 1.511-1.808 2.312-.105-.179-.184-.318-.258-.448l-.186-.323c-.38.332-.742.664-1.126 1.017l-.623.569c-.096-.352-.179-.644-.265-.947-.074-.259-.15-.526-.239-.846-.548.77-.933 1.304-1.511 2.104v-1.304c-.712.415-1.394.815-2.223 1.304l-.118-.437a26.766 26.766 0 0 1-.12-.452c-1.185 1.274-2.119 2.223-3.512 3.008.297-.711.49-1.17.756-1.778-.317.135-.53.374-.73.6-.304.344-.58.655-1.152.511.12-.283.24-.557.36-.827.13-.294.257-.583.38-.877-.044-.03-.088-.055-.133-.081-.044-.026-.089-.052-.133-.082-.338.464-.677.926-1.022 1.397a614.64 614.64 0 0 0-1.868 2.56v-1.423h-1.008c.113-.472.216-.915.315-1.342.11-.469.214-.919.323-1.37-.119-.059-.238-.133-.356-.207-.326 2.193-1.941 3.171-3.587 4.164a18.986 18.986 0 0 0-.593-.375l-.207-.129c.036-.299.072-.575.11-.876.043-.324.088-.678.142-1.124-.354.473-.635.961-.909 1.435-.607 1.053-1.174 2.037-2.41 2.64-.075-.815-.12-1.408-.164-2.015-.578 1.274-1.185 2.371-2.815 2.682.059-.622.103-1.111.148-1.719-.71.366-1.377.698-2.065 1.041l-.707.352c-.036-.217-.077-.417-.121-.628-.028-.135-.057-.274-.086-.424l-.163-.03c-.152.111-.3.222-.447.332-.439.329-.861.646-1.317.913-.4.222-.918.504-1.304.43-1.319-.252-2.4.207-3.364.993-2.528 1.846-.339 1.682-.565 1.38.07-.014.138-.04.2-.064.213-.082.361-.139.346.387 0 .079.052.055.132.019.098-.045.237-.109.368-.019 4.535 3.023 6.292 3.825 11.257 6.062 1.17.519 2.593.727 3.72-.133 0 0 1.066.711-.653 1.26l-.03.4c.381.123.766.237 1.152.351.77.227 1.541.454 2.272.76.493.206.944.256 1.378.203.23.588 4.804 10.744 8.738 19.483 2.906 6.454 5.464 12.135 5.666 12.614.607 1.438 5.24 2.837 6.796 2.822.734-.009 1.338.033 1.97.077.389.027.788.054 1.234.071 1.45.046 2.885.025 4.323.004 1.355-.02 2.712-.04 4.085-.004 1.882.06 3.764.06 5.647.03a72.773 72.773 0 0 0 3.369-.139l.706-.039c.21-.012.589-.008 1.085-.003 1.992.019 5.873.057 8.237-.819 4.048-1.5 11.352-33.008 11.352-33.008.898-.288 1.737-.558 2.594-.802.265-.077.537-.135.812-.194.85-.183 1.731-.372 2.537-1.111-.786-.252-1.378-.444-2.356-.77.306 0 .567-.018.795-.033.401-.027.698-.047.953.048 1.408.489 2.653.029 3.928-.519 5.231-2.253 10.225-4.92 15.042-7.944.299-.185.576-.399.852-.612.121-.093.241-.187.363-.277a1.383 1.383 0 0 0-.052-.111c-.018-.037-.037-.074-.051-.111-.397.097-.794.198-1.182.297-.382.097-.756.193-1.116.281a98.253 98.253 0 0 1-1.808-.949l-.103.208c.12.166.235.339.351.513.069.105.14.211.212.317-1.586.859-2.431.874-3.053.044.029-.296.059-.622.089-.963l-.741-.193-.741-.193c.231.473.431.901.648 1.367l.374.797h-1.808c-.474-.504-.904-.963-1.319-1.408-.563.445-1.022.801-1.497 1.156l-.563-.269c-.39-.186-.774-.37-1.185-.561.059.341.089.534.163 1.023a650.6 650.6 0 0 0-.8-.642c-.521-.417-.961-.769-1.394-1.122a3.651 3.651 0 0 1-.252.237l.003.008c.281.709.562 1.418.916 2.319-1.719-.118-2.875-.904-4.253-1.897.098.401.169.707.236.994.054.232.104.45.164.696l-.28-.03a55.267 55.267 0 0 1-1.202-.133c.185-1.732-.619-1.458-1.348-1.211-.207.071-.408.139-.579.158a202.968 202.968 0 0 0-1.067-.844h-2.771c-.04.024-.149.104-.281.201-.112.082-.24.176-.356.258-1.749-.133-3.083-.874-4.298-1.971.096.252.196.5.296.748.1.249.2.497.297.749-.074.089-.163.178-.252.267a70.333 70.333 0 0 0-.718-.378 32.983 32.983 0 0 1-1.846-1.015c-.444-.26-.875-.541-1.306-.823-.506-.33-1.012-.66-1.54-.956-.16-.09-.387-.052-.619-.013a2.775 2.775 0 0 1-.329.043c.028.24.044.428.059.608l.03.325c-1.554-.362-2.519-1.387-3.54-2.473a28.806 28.806 0 0 0-.847-.876c-.034.295-.059.529-.081.743-.027.249-.05.469-.082.724-.604-.399-1.163-.76-1.728-1.125l-.895-.579c1.823-1.126 1.867-2.623.267-3.631-.519-.326-1.156-.519-1.764-.652-.506-.114-1.026-.162-1.55-.212a26.99 26.99 0 0 1-.688-.07c.4-.207.786-.237 1.186-.266.889-.06 1.437-.489 1.571-1.393.148-1.008-.267-1.794-1.201-2.105-.48-.157-.98-.262-1.477-.366-.255-.054-.51-.107-.76-.167 2.326-1.542 2.297-2.549-.149-4.298 2.372-1.334 2.564-1.853 1.512-4.194.15-.247.299-.498.446-.749.97-1.649 1.949-3.314 3.956-4.009.289-.099.579-.2.869-.301 1.863-.647 3.741-1.299 5.651-1.773.362-.09.723-.171 1.084-.252 1.312-.295 2.61-.586 3.807-1.26.285-.171.652-.219.983-.262l.04-.005a415.65 415.65 0 0 1 2.59-.332c2.289-.29 4.585-.581 6.865-.957.161-.026.324-.051.488-.075 1.325-.199 2.694-.405 3.617-1.526.298.059.586.112.867.164.642.118 1.247.23 1.845.385.615.169 1.064-.112 1.511-.392.296-.185.592-.37.934-.423.191-.031.388-.047.587-.064l.288-.025c.83-.079 1.661-.162 2.492-.245 1.69-.169 3.382-.338 5.081-.467l.03-.002c.967-.073 1.857-.141 2.356-1.035.455.055.897.113 1.33.17a50.94 50.94 0 0 0 2.479.289c.702.059 1.41.08 2.116.101.531.015 1.061.03 1.589.062.963.06 1.704-.192 1.793-1.334.374.098.726.195 1.065.289.643.177 1.238.341 1.84.467.184.036.37.096.56.156.664.213 1.368.437 2.152-.289-2.719-1.712-5.667-2.17-8.624-2.631a93.83 93.83 0 0 1-1.958-.318c-.124.294-.228.544-.311.745-.076.184-.135.327-.178.425-.768.045-1.521.086-2.264.127-1.48.081-2.92.16-4.36.259-.282.015-.564.163-.816.311-1.882 1.126-3.423.978-5.305-.533.266-.018.512-.04.781-.064.196-.018.404-.036.642-.055-2.816-2.268-7.277-3.69-9.056-2.905.741.667 1.527 1.082 2.461 1.275.781.148 1.562.382 2.333.612l.231.069c.081.021.135.126.189.233.025.048.05.097.077.138-.295.049-.572.089-.839.128a38.86 38.86 0 0 0-.628.094c-.015.089-.03.193-.044.297.978.533 1.956 1.082 3.053 1.704-1.66.86-4.491 1.289-6.388 1.037l-4.046-.578c-.682-.103-1.319-.089-1.63.816.161.169.327.356.502.551.115.129.234.262.358.397-.795.165-1.598.237-2.394.309-1.565.14-3.103.279-4.498 1.114-.667-.563-1.304-.489-2.119-.178-1.912.726-3.898 1.304-5.869 1.867-.198.058-.398.109-.595.159-.867.221-1.676.428-1.954 1.116l-.489.071c-2.948.423-5.6.804-7.188 3.515l.055.528.094.895c-.356-.252-.549-.385-.742-.519v.002c-.252.355-.504.71-.77 1.095-1.09-.036-2.17.045-3.238.125-1.563.118-3.103.234-4.617-.021Zm-30.732 34.59c0 2.516 13.339 29.233 13.339 29.233.5 2.47 13.269 3.309 20.841.5 6.739-2.5 18.013-31.115 16.47-33-3.645-2.615-8.151-6.633-8.477-6.929-2-1.794-3.423-4.017-4.772-6.403a192.31 192.31 0 0 0-2.8-.385c-.912-.119-1.82-.23-2.728-.341a336.04 336.04 0 0 1-2.727-.341c-.117-.019-.222-.13-.343-.258-.063-.065-.13-.136-.205-.201.156-.182.303-.35.454-.522.194-.22.395-.448.628-.723-.827.016-1.63-.025-2.419-.066-1.36-.071-2.676-.139-3.998.096.563.298 1.184.478 1.81.66 1.337.388 2.702.785 3.6 2.348-.303.062-.58.127-.839.188-.49.116-.924.218-1.37.257-1.704.148-3.409.281-5.128.355-1.378.06-2.312.682-3.038 1.838-.297.473-3.853 2.997-7.76 5.77-4.656 3.305-9.81 6.963-10.538 7.924Zm28.743-31.498c-2.353.746-2.366.75-4.947-.202l-.014.014c-.208-.429-.415-.844-.653-1.319.065-.029.122-.062.176-.093.108-.061.2-.114.299-.114a741.79 741.79 0 0 1 5.554-.152l2.745-.07 1.333-.049c.852-.033 1.701-.065 2.55-.085.682-.015 1.363.045 2.06.4a2.874 2.874 0 0 0-.2.057 1.274 1.274 0 0 1-.363.077c-2.95-.193-5.706.637-8.463 1.511l-.077.025Zm1.81 11.829 5.327-.912.024-.004-.227-.045c-1.953-.386-3.886-.769-6.012-.341.34.503.592.873.888 1.302Zm-6.371-3.806c1.63-.297 3.245-.519 5.216-.163l-.32.188c-.684.404-1.27.749-1.977 1.16l-.778-.215c-.699-.194-1.446-.4-2.186-.615l.045-.355Zm5.794-5.795c1.438.963 3.305.889 4.654 0h-4.654Zm5.272 4.467a2.346 2.346 0 0 0-.025.305c-.343-.035-.693.011-1.043.057-.813.107-1.625.214-2.351-.709l3.423.311-.004.036Zm-8.25-2.97c-.81.662-1.527.617-2.15-.133.344.02.657.04.97.06.376.024.751.049 1.18.073Z" fill="#FA1B7A"/><path d="M81.287 88.347c.119-.948.8-1.156 1.497-1.378 5.41-1.675 10.922-1.63 16.465-.904 1.319.178 2.653.548 3.557 1.749-.741 1.63-2.342 1.986-3.69 2.593-1.23.549-2.594.8-3.853 1.275-2.253.844-4.52.726-6.773.192-1.6-.385-3.172-.933-4.728-1.482-1.067-.385-2-.993-2.46-2.045h-.015ZM91.5 118.358c.549.949.904 1.542 1.275 2.164h1.615c.549.83-1.526 1.23.297 2.179.785.089 2.06.222 3.675.415.178.118.667.444 1.186.785 1.511-.489 3.008-1.037 4.535-1.423 1.511-.385 3.067-.681 4.846-.474-.445 1.112-1.482.934-2.045 1.438.444.37.889.741 1.408 1.17 2.074-.029 4.149.238 6.12 1.809-.43.266-.815.681-1.022.607-2.816-.993-5.721-.593-8.596-.622-.104 0-.207-.104-.459-.237.207-.356.4-.712.637-1.127-.148-.059-.311-.163-.445-.148-1.008.222-1.912.904-3.156.474l1.6-1.007-.133-.312-4.846 2.001c-.415-.697-.786-1.349-1.245-2.134-.727 1.126-1.497.859-2.179.4-.622.252-1.156.652-1.704.667-2.594.089-5.187.074-7.78.104.044-.119.073-.237.118-.341-1.052-.608-2.075-1.26-3.157-1.793-1.111-.549-2.208-1.067-3.053-2.564 2.386.504 4.06 1.897 6.343 2.445-.415-.608-.711-1.037-1.082-1.571 1.75-.548 2.342 1.008 3.557 1.63 1.156-1.422 2.327-2.845 3.69-4.535Zm-.03 5.84c1.409-.371 1.72-.682 1.423-1.631-.296-.933-.83-1.793-1.289-2.756-1.615.933-2.356 2.149-2.312 4.001.43.148.86.311 1.29.46.222-.712.4-1.245.652-2.031.103.845.177 1.379.252 1.942l-.015.015Z" fill="#FA1B7A"/><path d="M91.47 124.198c1.409-.371 1.72-.682 1.423-1.631-.296-.933-.83-1.793-1.289-2.756-1.615.933-2.356 2.149-2.312 4.001.43.148.86.311 1.29.46.222-.712.4-1.245.652-2.031.103.845.177 1.379.252 1.942l-.015.015ZM33.213 136.364c-1.527 0-2.994-.044-4.476.015-.756.03-1.512.163-2.253.341-.948.237-1.748.148-2.193-.563-1.526.207-2.934.415-4.342.563-.074 0-.193-.356-.297-.563 3.78-1.927 7.751-3.646 11.545-2.757v1.141c.623 0 1.156.03 1.675 0 1.57-.118 3.038.149 4.387.993 1.407.89 2.815.697 4.475-.281-.652-.045-1.037-.074-1.422-.104-.045-.118-.09-.237-.134-.341.608-.385 1.186-.844 1.823-1.156.845-.415 1.749-.696 2.623-1.067.92-.385 1.72-.889 2.52-1.526 1.57-1.26 3.527-1.853 5.542-2.12.134-.014.312.134.697.327-.326.326-.519.696-.815.785-1.141.311-2.297.534-3.453.8-.549.134-1.082.312-1.6.741.562.134 1.14.267 1.703.4l.06.341c-1.2.46-2.49.801-3.587 1.438-1.067.622-1.97 1.556-3.038 2.43 1.127.356 2.12.667 3.364 1.053-1.319.726-2.504.518-3.645.503-2.06-.029-4.12-.177-6.18-.251-1.127-.045-2.253 0-2.994-1.156l.015.014ZM126.933 74.15c3.868-.03 6.061 1.867 7.84 4.742 1.971 3.172 1.082 7.025-.815 9.218-1.438 1.645-3.35 2.579-5.439 3.127-4.328 1.141-7.84-1.097-9.47-4.58-2.179-4.653.252-8.684 3.068-10.536 1.585-1.038 3.112-2.179 4.816-1.986v.015Zm.667 1.452c-3.779.074-7.884 3.112-7.899 7.114 0 3.26 2.089 7.513 6.876 7.469 4.15-.045 7.781-3.424 7.855-7.129.074-3.72-3.379-7.44-6.847-7.454h.015ZM48.878 82.997c.03-4.698 4.194-9.425 9.174-9.1 4.49.297 8.773 4.047 8.625 9.47-.118 4.373-4.253 8.493-8.625 8.211-5.35-.34-9.307-2.845-9.174-8.596v.015Zm3.424-5.587c-.608 1.245-1.053 2.075-1.438 2.92-1.215 2.667-.77 5.705 1.156 7.543 3.127 2.979 9.633 3.794 12.345-1.927 1.364-2.86 1.067-5.75-1.022-8.225-1.794-2.104-5.202-3.038-7.9-2.015-1.185.444-2.252 1.215-3.141 1.704ZM84.06 84.123c-.681.548-1.378 1.081-1.941 1.54-1.052-.118-2-.221-2.92-.325 1.171-.786 2.416-1.586 3.631-2.43 1.2-.83 2.386-1.69 3.69-2.624.282.637.475 1.082.712 1.6.844-.118 1.66-.251 2.475-.355.578-.074 1.185-.207 1.763-.163 2.342.193 4.683.504 6.995-.326.252-.089.578.03.92.06.266.459.533.903.874 1.481 2.252.697 4.905.89 6.343 3.38-1.705-1.275-3.646-1.379-5.647-1.542-1.941-.163-3.838-.815-5.765-1.082-1.008-.133-2.09 0-3.112.208-.89.177-1.72.444-2.356-.09-1.586.505-3.009.964-4.506 1.438a48.258 48.258 0 0 0-1.126-.77h-.03ZM60.125 125.679c1.823-.652 3.75-.608 5.735-.712.09-.37.178-.741.312-1.304 1.2-.059 2.4-.133 3.616-.193.03-.074.059-.163.089-.237-1.112-.4-2.223-.785-3.439-1.23.593-.711 1.29-.578 1.868-.504 2.341.282 4.698.489 6.876 1.542 1.141.548 2.164.518 2.846-.638 1.66-.163 2.904.623 4.283 1.334-.564.43-1.067.815-1.527 1.171-.83-.222-1.586-.445-2.742-.756.52.667.771.963 1.127 1.423-1.66.074-2.846-.949-4.357-1.275.044.267.089.401.103.534v.667c-1.081-.104-2.119-.193-2.92-.282-.844.386-1.496.919-2.148.949-3.216.089-6.432.044-9.648.044l-.074-.504v-.029ZM128.951 126.879c-1.053.311-1.912.563-2.861.845.475.207.964.429 1.586.696v1.912c.148.178.371.43.563.652-.311.608-3.705 0-4.95-.845.252-.904 1.245-.474 1.882-1.067-1.541-.874-3.379-.074-4.831-.919.119-.37.208-.637.326-.992-1.838-.252-3.705.489-5.498 0-.03-.178-.045-.356-.074-.519.444-.148.889-.415 1.348-.445 3.231-.252 6.462-.785 9.708-.415.889.104 1.882.074 2.801 1.082v.015ZM62.287 139.773c-.192.563-.355.978-.548 1.526-1.408-.341-2.786-.474-3.987-1.023-1.245-.548-2.46-.726-3.764-.741-.474 0-1.067.075-1.378-.177-1.912-1.438-3.913-.801-5.899-.371-.43.089-.43.089-1.215-.459.49-.741 1.215-1.216 2.03-1.26 2.46-.133 4.906-.711 7.38-.222.342.074.801.074.994.311 1.156 1.349 2.86 1.274 4.327 1.763.608.208 1.23.386 2.06.653ZM34.5 85.754s.94-1.673 1-2c0 0 2.943 1.659 3.417 2 1.511 1.111 3.023 2.237 4.475 3.408.49.4.86.963 1.23 1.482.386.563.371 1.097-.459 1.586-.355-.237-.785-.49-1.2-.786-1.63-1.14-3.276-2.282-4.906-3.423-3.557-1.766-3.557-2.267-3.557-2.267Z" fill="#FA1B7A"/><path d="M53.902 129.873c-.06-.652-.09-.978-.119-1.423H50.76c.222-.844.756-.904 1.26-1.007 5.068-.979 9.558-1.038 11.544 0-.919.222-1.541.459-2.193.518-.756.074-1.527-.044-2.297 0-.86.045-1.645.089-2.401.8-.637.578-1.69.712-2.786 1.112h.015ZM89.766 113.304c1.26-.682 2.593-.608 3.868-.563.355 0 .711.578 1.096.934-1.748 1.185-3.705 1.037-4.964-.371ZM34.367 74.58v.059a803.091 803.091 0 0 0 3.705-2.89l.223.282c-1.127 1.333-2.623 2.237-4.283 3.556.207-.592.281-.8.34-1.007h.015ZM143.727 69.97c1.778.37 1.985.548 2.697 2.312-.712-.623-1.112-.978-1.512-1.32-.385-.325-.785-.651-1.185-.978v-.014ZM149.061 78.24c-.444-.608-.874-1.2-1.319-1.808 1.052.177 1.438.815 1.319 1.808ZM52.464 36.714c2.757-.46 5.632-.445 8.077-2.268h-4.15c-.014-.148-.03-.296-.059-.43.534-.088 1.067-.207 1.615-.251 1.586-.119 3.187-.163 4.772-.312.549-.059 1.053-.34 1.571-.874l-3.764-.711c0-.119 0-.252.015-.37 2.03-.638 4.357.325 6.313-1.053-1.052-.252-2.09-.504-3.408-.815 1.482-1.082 3.142 0 4.372-1.156l-3.305-.222c0-.163-.015-.326-.03-.49.712-.118 1.423-.251 2.134-.37.697-.119 1.379-.222 2.179-.34.37-.846.77-1.616 1.082-2.446.237-.623.504-1.067 1.422-.77 0 .77.119 1.6-.03 2.37-.429 2.312-.948 4.624-1.466 6.921-.193.875-.742 1.423-1.601 1.72-4.624 1.6-9.381 2.386-14.257 2.445-.489 0-.993-.119-1.497-.193v-.43l.015.045ZM113.212 23.54c1.141.71.593 2.044 1.334 2.785a58.7 58.7 0 0 1-.875.934c.208.282.4.548.667.89.771-1.735 2.134-1.216 3.379-1.186.045.118.074.252.119.37-.593.193-1.186.386-2.12.682 1.616.845 3.335-.104 5.024 1.052-1.348.208-2.341.356-3.542.534.43.548.741.933.978 1.23 1.527.267 2.92-.37 4.298.34-.948.208-1.882.416-2.86.623.667.593.667.578 2.505.519.918-.03 1.852 0 3.127 0-1.082 1.111-2.327.444-3.498 1.274 2.134.474 3.987-.637 5.943.119-.978.815-2.104.578-3.409.963 2.861 1.32 5.706 1.423 8.64 2.134-1.496.697-2.801.297-4.031.163-2.519-.252-5.038-.652-7.528-1.111a26.225 26.225 0 0 1-4.268-1.141c-2.164-.8-3.468-2.342-3.765-4.713-.192-1.512-.548-3.009-.785-4.52-.104-.667-.311-1.438.682-1.957l-.015.015ZM114.635 55.462c.059-.994.118-1.957.207-3.305-.874-1.734.267-4.002-.103-6.18h-9.307v6.802c.948 0 1.734.015 2.534 0 1.763-.06 3.542-.133 5.305-.193.697-.03 1.156.193.993 1.082-1.452.741-3.038.282-4.52.474-1.452.178-2.919.208-4.431.297-.282.46-.548.89-.815 1.334-1.349-1.023-1.452-1.764-.296-2.816-.89-.415-1.067-1.23-.86-2.03.341-1.364.119-2.683.059-4.032-.059-1.6.193-2.09 1.794-2.267 2.163-.237 4.357-.267 6.535-.326 1.408-.03 2.816.03 4.239.074.222 0 .429.163.711.267.03 2.756.385 5.498-.385 8.21-.178.608-.045 1.29-.134 1.942-.089.681-.4 1.111-1.496.666h-.03ZM77.285 41.856c-7.825.653-15.664.623-23.504.282-2.416-.104-4.802-.489-7.203-.785-.178-.015-.326-.282-.756-.682.652-.163 1.052-.37 1.438-.341 4.831.193 9.663.43 14.494.608 4.846.163 9.677.266 14.524.4.34 0 .666.089 1.007.118v.4Z" fill="#FA1B7A"/><path fill-rule="evenodd" clip-rule="evenodd" d="m86.523 124.15.064.108-.064-.108ZM99.153 123.109l-.09-.088.09.088ZM92.004 115.733l.944-1.38c.123-.092.25-.18.377-.266.342-.23.696-.441 1.041-.647.97-.578 1.867-1.114 2.228-1.897 1.242-2.608.52-5.438-.533-8.052-.862-2.136-2.133-4.584-4.402-4.736-.309.345-.672.961-1.048 1.599-.484.819-.989 1.674-1.422 2.033-.54.46-1.148.833-1.76 1.208a29.8 29.8 0 0 0-.82.514c-2.628 1.767-3.18 4.763-1.081 7.155.926 1.071 4.18 1.248 6.017 3.089l.459 1.38Zm3.403-4.986c.992-3.825.105-6.874-2.985-9.271l-.696.51-.003.002c-1.16.85-2.255 1.652-3.294 2.475-3.268 2.55-3.049 4.907.864 7.183.041-.425.052-.86.063-1.298.044-1.824.09-3.702 2.37-5.09l-.134.537-.001.005c-.214.857-.345 1.384-.522 1.916-.474 1.407-.69 2.788.634 3.793 1.264.92 2.416.177 3.677-.772l.028.01Z" fill="#FA1B7A"/><path d="M103.114 121.968a84.24 84.24 0 0 1-.595-.383 40.305 40.305 0 0 0-.926-.59c-1.366-.678-2.162-.442-3.779.824.404.381.8.765 1.249 1.202l.09.088.783.76c-.807-.029-1.398-.041-1.942-.053l-.678-.016.03.017c-.237 2.011.944 2.827 2.412 3.21 1.355.379 2.724.657 4.148.946.5.102 1.006.205 1.522.314.238-2.675-.438-4.796-2.314-6.319Z" fill="#FAF5E5"/><path d="M96.955 121.308c1.121-.951 2.096-1.586 3.338-1.025.448.209.878.453 1.3.712.181.09.373.196.578.319.343.204.657.422.943.654l.152.096c-1.244-1.894-2.516-2.801-3.833-2.796-1.566.297-2.478 2.04-2.478 2.04Z" fill="#FA1B7A"/><path d="M88.452 123.942c.755-1.878-.17-2.976-1.487-3.732-1.208-.722-2.456-1.35-3.754-2.004-.456-.23-.918-.462-1.387-.703-1.072 2.902-.78 5.415 1.316 7.585 1.413 1.464 2.193 1.561 4.337.659-.29-.474-.57-.948-.89-1.489l-.064-.108-.002-.003c-.17-.289-.353-.598-.555-.937.772.24 1.338.408 1.86.563l.003.001h.002l.645.192-.024-.024ZM95.407 110.747c.992-3.825.105-6.874-2.985-9.271l-.696.51-.003.002c-1.16.85-2.255 1.652-3.294 2.475-3.268 2.55-3.049 4.907.864 7.183.041-.425.052-.86.063-1.298.044-1.824.09-3.702 2.37-5.09l-.134.537-.001.005c-.214.857-.345 1.384-.522 1.916-.474 1.407-.69 2.788.634 3.793 1.264.92 2.416.177 3.677-.772l.028.01Z" fill="#FAF5E5"/><path fill-rule="evenodd" clip-rule="evenodd" d="m91.545 114.353.459 1.38.944-1.38c.123-.092.25-.18.377-.266.023-.131.047-.256.071-.373-.16-1.804-.928-.642-1.434.123-.194.294-.35.529-.417.516Zm4.97 7.209c.265-.156.44-.254.44-.254 1.121-.951 2.096-1.586 3.338-1.025.448.209.878.453 1.3.712-1.366-.678-2.162-.442-3.779.824.404.381.8.765 1.249 1.202l.09.088.783.76c-.807-.029-1.398-.041-1.942-.053l-.678-.016.03.017c-.237 2.011.944 2.827 2.412 3.21 1.355.379 2.724.657 4.148.946.5.102 1.006.205 1.522.314.238-2.675-.438-4.796-2.314-6.319l.152.096c-1.244-1.894-2.516-2.801-3.833-2.796.268-.05.555-.059.86-.009 2.852.461 4.675 2.126 5.854 4.888.806 1.853 1.151 3.989.545 5.848-1.18-.305-2.352-.515-3.516-.723-1.087-.194-2.167-.386-3.24-.655-1.782-.425-5.474-3.294-5.929-5.065-.107-.395 1.66-1.49 2.507-1.99Zm6.599.406a84.24 84.24 0 0 1-.595-.383 40.305 40.305 0 0 0-.926-.59c.181.09.373.196.578.319.343.204.657.422.943.654Z" fill="#FA1B7A"/><path fill-rule="evenodd" clip-rule="evenodd" d="M82.994 142.455c1.316 1.097 3.874.609 5.02-.757.275-.357.508-.758.74-1.159.117-.201.234-.402.355-.597-.283 2.201.204 4.323.692 6.454.562 2.451.551 3.359.551 3.359h1.194s-.17-1.813-.633-4.496c-.56-3.39-.244-3.902 2.728-4.853.4.256.776.554 1.139.841.743.589 1.43 1.134 2.15 1.183 2.413.195 4.411-1.219 6.141-2.829 1.413-1.317 2.948-3.049 2.387-4.878-.362-.139-.953-.24-1.564-.345-.786-.135-1.606-.276-2.017-.509-.521-.286-.995-.653-1.471-1.021-.215-.166-.43-.332-.649-.491-2.168-1.537-4.678-1.073-5.92 1.292-.561 1.049-.878 2.391-.829 3.561.049 1.22-.317 1.903-1.462 2.366.936-1.6.873-3.294.81-4.982a34.119 34.119 0 0 1-.03-1.262 153.23 153.23 0 0 0-.244-6.683c-.073-1.536 1.758-3.554 1.925-3.097-.107-.395 1.66-1.49 2.507-1.99.266-.158.441-.254.441-.254s.912-1.743 2.478-2.04c-1.16.005-2.355.718-3.599 2.089-.55.599-1.315.994-2.239 1.47-.466.241-.973.503-1.513.822.326-1.567.547-3.661.753-5.612.158-1.503.308-2.921.49-3.95a9.622 9.622 0 0 0-.377.266l-.944 1.38-.46-1.38s.173 6.955-.412 9.565l-.024.115c-.134.646-.264 1.274-1.414.86.007-.144.017-.295.026-.449.023-.368.047-.758.047-1.136.025-1.83-.755-3.171-2.363-4.049a725.624 725.624 0 0 1-5.274-3l-.769-.439c-1.072 1.634-1.608 3.488-1.315 5.488.414 2.975 2.29 4.854 4.921 6.049 1.925.878 3.29-.025 4.46-1.732.153.222.312.414.454.585.265.319.471.567.471.805-.015 1.068-.005 2.137.006 3.199.023 2.405.045 4.778-.225 7.045h-3.021c-.098-2.146-1.657-5.488-3.826-4.829-1.422.419-2.8.953-4.249 1.515-.66.256-1.335.518-2.037.778 1.316 3.146 3.46 5.61 5.994 7.732Zm20.564-6.318c-.95 3.147-3.07 4.756-6.36 5.122v-.024c-1.12-.707-2.046-1.39-1.705-2.659.39-1.341 1.535-1.585 2.778-1.634.469-.02.92-.075 1.656-.164l.464-.055c-1.769-1.377-3.252-.851-4.692-.339-.346.122-.69.244-1.034.339.609-3.756 2.388-4.635 5.36-2.83.955.57 1.911 1.191 2.923 1.848l.003.002.607.394ZM86.965 120.21c1.316.756 2.242 1.854 1.487 3.732l.024.024-.645-.192h-.002l-.002-.001c-.523-.155-1.09-.323-1.86-.563l.554.937.002.003.064.108c.32.541.6 1.015.89 1.489-2.144.902-2.924.805-4.337-.659-2.095-2.17-2.388-4.683-1.316-7.585.469.241.93.473 1.387.703 1.298.654 2.546 1.282 3.754 2.004Zm-5.604 19.027c1.047 1.1 3.917 2.717 5.56 1.537l-1.145-1.214c-.176-.299-.373-.502-.591-.726-.262-.27-.555-.571-.877-1.108.616.189 1.084.537 1.517.859.367.273.709.528 1.096.652l-.047-.206c-.41-1.805-.905-3.992-2.673-4.435-1.294-.324-1.676-.192-2.912.236-.519.18-1.188.412-2.138.684.75 2.253.86 2.364 1.889 3.396.098.099.205.206.321.325Z" fill="#FA1B7A"/><path d="M72.724 47.578c-1.852 2.697-2.208 6.194-4.772 8.388-.133.118-.415.06-.919.103.445-1.393.741-2.623 1.216-3.793.963-2.401 2.03-4.758 3.023-7.144.296-.696.46-1.511 1.719-1.289.06.608.133 1.215.207 1.927 2.046 1.69 4.92 1.793 7.144 3.29-2.757.637-5.128-.608-7.633-1.482h.015ZM90.506 44.702v2.075c2.283 1.32 5.232.726 7.647 2.623-2.964.326-5.498-.4-8.121-.904-1.912 2.401-2.979 5.41-5.29 7.707-.801-1.141-.386-2.06.073-2.92.712-1.349 1.556-2.638 2.297-3.972a64.986 64.986 0 0 0 1.957-3.942c.281-.622.548-1.037 1.452-.652l-.015-.015ZM110.645 31.57c-1.511.12-3.038.282-4.549.342-7.677.296-15.354.578-23.03.86-3.01.103-6.018.236-9.026.296-.786.014-1.571-.178-2.327-.49 12.982-.518 25.935-1.6 38.917-1.348 0 .118 0 .222.015.34ZM57.13 38.759c.978.104 1.971.282 2.95.282 2.015 0 4.016-.074 6.031-.134 1.067-.03 2.12-.133 3.186-.148l24.839-.356h1.2v.386c-1.674.118-3.364.31-5.053.34-4.135.075-8.27.03-12.405.104-4.313.09-8.625.178-12.923.445-2.253.133-4.476.222-6.699-.193-.385-.074-.755-.207-1.14-.326 0-.133.014-.281.029-.415l-.015.015ZM108.054 21.568c-10.937-.044-21.86.163-32.782.89-.282.014-.563-.045-.963-.09 2.92-1.66 29.566-2.045 33.745-.8ZM73.805 28.622c10.374-.104 20.718-1.23 31.374-.8-2.697.934-29.448 1.675-31.374.8ZM105.532 36.077c-10.686.564-21.356 1.2-32.056.8-.252 0-.49-.222-.697-.489 10.938.09 21.845-.889 32.753-.31ZM42.162 53.52c2.149.326 3.957.52 5.72.875 1.72.34 3.469.37 5.203.8 1.719.43 3.616.015 5.424.208 1.674.178 3.408.207 5.038.815-6.505.37-12.923-.03-19.295-1.334-.652-.133-1.408-.178-2.075-1.364h-.015ZM74.072 25.465a614.278 614.278 0 0 1 30.47-.088c-2.816.252-5.588.83-8.448.37-1.126-.178-2.327.222-3.497.237-4.017.06-8.033.09-12.05.104-1.822 0-3.66 0-5.483-.03-.34 0-.666-.133-1.007-.207v-.4l.014.014ZM119.139 41.234c.163-.118.341-.355.504-.355 6.402-.297 12.789-.563 19.192-.83l.133.34c-.282.193-.563.52-.86.564-1.17.178-2.341.311-3.512.355-4.594.164-9.188.267-13.783.386-.518 0-1.022-.06-1.541-.09l-.119-.37h-.014ZM61.902 52.72c-1.749.06-3.512.282-5.261.163-4.002-.267-7.988-.682-11.975-1.067-.77-.074-1.585-.237-2.045-1.141 6.52.563 12.894 1.097 19.266 1.645v.4h.015ZM119.998 55.298c7.054-.667 14.109-1.334 21.578-2.045-.622.43-.904.697-1.23.815a6.871 6.871 0 0 1-1.719.385c-4.639.37-9.263.756-13.901 1.053-1.571.103-3.142.014-4.713.014 0-.074 0-.148-.015-.237v.015ZM122.34 52.201c1.363-.518 18.066-2.297 19.177-2.045-.667.697-1.452.904-2.238.993a137.95 137.95 0 0 1-6.506.623c-3.068.207-6.135.355-9.203.503-.341.015-.682-.044-1.23-.074ZM43.6 48.392c1.215-.385 13.471.118 14.672.563-1.35.652-10.241.83-13.22.267-.563-.104-1.141-.208-1.452-.83ZM141.475 46.88c-1.734 1.348-10.567 2.43-15.057 1.956 5.217-1.215 10.167-1.29 15.057-1.956ZM43.572 45.962c3.305-.222 6.595.045 10.241.578-2.475.771-8.536.445-10.24-.578ZM43.777 43.072c1.408-.622 5.336-.207 6.67.548-2.357.534-4.536.326-6.67-.548ZM134.82 43.264c1.808-.785 3.705-.608 5.78-.8-.178.385-.222.696-.356.726-1.793.504-3.601.578-5.424.074ZM107.27 41.709c2.193-.504 4.416-.504 6.639-.385-1.067.755-3.172.86-6.639.385ZM118.323 41.323c-1.171.608-2.357.815-3.839.133 1.453-.726 2.638-.696 3.839-.133ZM135.485 45.31c-1.156.711-2.357.622-3.557.193 1.171-.356 2.312-.86 3.557-.193ZM103.206 38.137c-1.141.593-2.327.86-3.513 0h3.513ZM108.215 38.107h4.905v.282h-4.905v-.282ZM173.837 57.773c-.489.282-.963.578-1.467.815-2.312 1.127-4.787 1.69-7.292 2.164-4.001.756-8.018 1.526-12.034 2.208-4.905.83-9.855 1.126-14.82 1.275-1.171.03-2.341.059-3.512.044-.563 0-1.112-.074-1.675-.118v-.386c1.601-.148 3.201-.385 4.802-.43 9.959-.326 19.74-2.045 29.462-4.09 1.779-.37 3.483-1.111 5.232-1.675.37-.118.741-.177 1.111-.281.074.148.148.311.208.46l-.015.014ZM49.38 66.236c-.49.06-.978.192-1.453.178-3.408-.045-6.832-.208-10.24-.178-7.78.074-15.339-1.586-22.971-2.742-1.779-.267-3.498-1.052-5.217-1.63-.356-.119-.652-.415-.919-.919.296 0 .608-.074.86 0 1.334.46 2.608 1.082 3.971 1.438 1.408.37 2.876.563 4.328.74 5.735.712 11.456 1.527 17.206 2.06 4.283.386 8.61.386 12.908.564.504.015.993.089 1.497.133v.326l.03.03Z" fill="#FA1B7A"/><path d="M156.129 59.834c1.497-.238 2.994-.46 4.49-.727 1.497-.266 2.994-.563 4.476-1.052-1.349-.696-2.934.37-4.209-.622 2.357-.549 4.713-1.082 7.321-1.69-.37 1.408-1.689 1.052-2.312 1.912.801.533 1.542.178 2.268-.044.756-.223 1.497-.475 2.579-.83-1.749 2-8.27 3.379-14.613 3.038v.014ZM11.87 60.53c4.697 1.2 9.528 1.527 14.523 2.268-2.95.948-12.449-.549-14.524-2.268ZM21.86 60.515c-3.216.756-6.536.223-7.87-1.215 1.408-.296 2.564.386 3.78.578 1.215.193 2.445.37 4.09.623v.014ZM129.452 82.938c-.045 1.615-.993 2.578-2.505 2.549-1.541-.03-2.43-.92-2.416-2.416.015-1.541 1.038-2.49 2.609-2.445 1.393.03 2.356.992 2.312 2.326v-.014ZM56.463 80.463c2.52-.49 3.676.978 3.764 2.282.075 1.111-.592 2.104-1.778 2.578-1.037.4-2.267.09-2.86-.74-.697-.964-.697-1.927 0-2.935.267-.385.563-.756.874-1.2v.015Z" fill="#FA1B7A"/><path d="M144 174.485c.551 0 2.629-.263 2.444-1.095-.077-.349-1.511-.065-.823-.24.572-.145 1.192-.266 1.744-.473.605-.227-.071-.092-.071-.24 0-.198 1.143-.747 1.271-.843.404-.305 1.226-.857 1.478-1.31.102-.184-.48-.117-.551-.11-.651.065 1.164-.75 1.322-.824.677-.313 1.333-.639 2.03-.907.242-.093-1.029.042-.778-.026.838-.229 1.663-.589 2.464-.927.191-.081 1.634-.682 1.381-.701-.739-.054-1.531-.037-2.237.201-.986.333.459-.139.687-.233 1.085-.449 2.111-1.034 3.177-1.524.667-.306.022-.317-.363-.317-.499 0-1.982.205-1.491.116 1.194-.217 2.414-.909 3.475-1.465.607-.318 1.579-.72 2.029-1.271.155-.188-2.217-.009-2.457.065-.397.122-1.433.744-1.867.635-.26-.065.415-.34.635-.492a36.295 36.295 0 0 1 1.893-1.245c.59-.357 1.213-.762 1.861-1.005.246-.093.203-.584.37-.798.116-.149.293-.156.467-.194a11.2 11.2 0 0 0 1.984-.649c.98-.418 1.947-.912 2.956-1.257.06-.021.241-.08.182-.059a11.7 11.7 0 0 0-1.498.674c-.38.201-.933.622-1.381.649-.442.026.633-.621.985-.888.927-.704 2.095-1.317 2.918-2.14.609-.609-1.605.657-2.321 1.135-.287.191-1.293.911-.441.188 1.329-1.129 2.685-2.244 3.981-3.411.35-.315.83-.826.058-.343-.617.386-2.424 1.613-1.796 1.244 1.172-.687 2.205-1.681 3.281-2.509.095-.072 1.431-.956.817-.674-.215.099-1.688 1.001-1.323.635.858-.857 1.935-1.481 2.646-2.483.287-.405-.129-.322-.428-.331-.533-.015.831-1.675.972-1.88a59.667 59.667 0 0 0 1.818-2.908M40 175.755c-.595 0-2.838-.286-2.638-1.187.084-.378 1.632-.071.889-.26-.617-.157-1.287-.288-1.883-.513-.653-.246.077-.098.077-.26 0-.213-1.234-.809-1.371-.913-.436-.33-1.324-.928-1.596-1.419-.11-.199.518-.127.595-.119.702.07-1.257-.813-1.428-.892-.73-.34-1.438-.693-2.19-.983-.261-.101 1.11.045.84-.029-.905-.247-1.795-.638-2.66-1.004-.206-.088-1.763-.738-1.49-.759.798-.059 1.653-.04 2.415.218 1.063.361-.496-.151-.742-.253-1.17-.486-2.278-1.12-3.429-1.65-.72-.332-.024-.345.392-.345.538 0 2.139.223 1.61.127-1.29-.235-2.606-.986-3.751-1.588-.656-.344-1.704-.78-2.19-1.376-.167-.205 2.393-.01 2.652.07.428.132 1.546.806 2.015.688.28-.07-.448-.368-.686-.534a39.58 39.58 0 0 0-2.043-1.348c-.637-.386-1.31-.826-2.009-1.089-.265-.1-.219-.632-.398-.864-.126-.162-.317-.169-.504-.211a11.978 11.978 0 0 1-2.142-.702c-1.058-.453-2.102-.988-3.19-1.363a3.272 3.272 0 0 0-.196-.063c.56.203 1.09.451 1.616.731.41.217 1.007.673 1.49.702.477.028-.683-.672-1.063-.962-1-.763-2.26-1.427-3.149-2.318-.657-.66 1.732.711 2.505 1.229.31.207 1.395.987.476.204-1.434-1.224-2.898-2.432-4.297-3.695-.378-.342-.896-.895-.063-.372.667.418 2.617 1.747 1.939 1.348-1.265-.744-2.38-1.822-3.54-2.718-.103-.079-1.545-1.037-.883-.731.232.108 1.822 1.085 1.428.689-.926-.929-2.088-1.605-2.855-2.69-.31-.44.14-.349.462-.359.575-.016-.897-1.814-1.05-2.037-.41-.596-1.61-2.515-1.962-3.15-.081-.148 1.344 1.649 1.416 1.682.155.071-1.056-2.879-.919-2.932" stroke="#FA1B7A" stroke-linecap="square"/></svg>