<svg xmlns="http://www.w3.org/2000/svg" width="735" height="158" fill="none"><path d="M5.888 47.393c-1.784 0-3.212-.535-4.282-1.604C.536 44.719 0 43.293 0 41.51V10.17c0-1.64.535-2.96 1.606-3.958 1.142-1.07 2.462-1.605 3.96-1.605h16.166c1.213 0 2.07.321 2.569.963.57.57.856 1.32.856 2.246 0 .856-.32 1.605-.963 2.247-.571.642-1.392.963-2.462.963H10.277c-1.856 0-2.783.926-2.783 2.78v5.884c0 1.854.856 2.781 2.569 2.781H20.66c1.213 0 2.07.32 2.57.963.57.641.856 1.39.856 2.246 0 .784-.322 1.533-.964 2.246-.57.642-1.391.963-2.462.963H10.063c-1.713 0-2.57.891-2.57 2.674v6.525c0 1.854.893 2.781 2.677 2.781h12.632c1.213 0 2.07.357 2.57 1.07.57.642.856 1.39.856 2.246 0 .856-.321 1.605-.964 2.247-.57.641-1.391.962-2.462.962H5.888ZM53.22 48.463c-1.213 0-2.39-.32-3.533-.963-1.07-.57-1.82-1.462-2.248-2.674L34.593 8.992c-.143-.57-.214-1.034-.214-1.39 0-1.07.357-1.926 1.07-2.568.714-.641 1.535-.962 2.463-.962.642 0 1.284.142 1.927.428.713.285 1.248.82 1.605 1.604l10.813 31.555c.214.57.57.856 1.07.856.5 0 .857-.285 1.07-.856L65.853 6.104c.357-.784.857-1.32 1.499-1.604.714-.286 1.392-.428 2.034-.428.928 0 1.748.32 2.462.962.714.642 1.07 1.498 1.07 2.568 0 .356-.07.82-.213 1.39L59 44.826c-.5 1.212-1.285 2.104-2.355 2.674a6.551 6.551 0 0 1-3.426.963ZM101.323 48.463c-4.14 0-7.922-.963-11.347-2.888a22.758 22.758 0 0 1-8.03-8.023C79.949 34.13 78.95 30.28 78.95 26c0-4.493 1-8.415 2.998-11.767 1.998-3.351 4.674-5.954 8.029-7.808 3.425-1.926 7.208-2.888 11.347-2.888 4.139 0 7.851.962 11.133 2.888 3.355 1.854 5.995 4.457 7.923 7.808 1.998 3.352 2.997 7.274 2.997 11.767 0 4.279-.999 8.13-2.997 11.552-1.928 3.352-4.568 6.026-7.923 8.023-3.282 1.925-6.994 2.888-11.133 2.888Zm0-6.525c2.855 0 5.352-.713 7.494-2.14 2.212-1.497 3.925-3.458 5.138-5.883 1.213-2.424 1.82-5.063 1.82-7.915 0-4.564-1.356-8.344-4.068-11.339-2.712-2.995-6.173-4.492-10.384-4.492-4.282 0-7.78 1.497-10.491 4.492-2.712 2.995-4.068 6.775-4.068 11.339 0 2.852.607 5.49 1.82 7.915s2.926 4.386 5.139 5.884c2.212 1.426 4.746 2.139 7.6 2.139ZM138.972 47.393c-1.785 0-3.212-.534-4.283-1.604-1.07-1.07-1.605-2.496-1.605-4.279V7.602c0-1.213.392-2.104 1.178-2.675.856-.57 1.747-.855 2.675-.855.928 0 1.749.285 2.463.855.785.57 1.177 1.462 1.177 2.675V37.98c0 1.07.214 1.819.643 2.247.428.356 1.141.534 2.141.534h11.026c1.142 0 1.963.357 2.462 1.07.571.713.856 1.462.856 2.246 0 .856-.285 1.64-.856 2.354-.499.642-1.32.962-2.462.962h-15.415ZM196.941 7.602c0-1.141.392-1.997 1.177-2.568.786-.641 1.642-.962 2.57-.962.928 0 1.748.285 2.462.855.785.57 1.178 1.462 1.178 2.675v23.425c0 4.208-.893 7.595-2.677 10.162-1.784 2.568-4.067 4.422-6.851 5.563a22.92 22.92 0 0 1-8.778 1.711c-3.426 0-6.531-.57-9.314-1.712-2.712-1.14-4.853-2.994-6.423-5.562-1.57-2.638-2.355-6.061-2.355-10.269V7.602c0-1.213.392-2.068 1.177-2.568.786-.57 1.642-.855 2.57-.855.928 0 1.748.285 2.462.855.784.5 1.178 1.355 1.178 2.568V30.92c0 3.78.928 6.561 2.782 8.344 1.928 1.711 4.568 2.567 7.923 2.567 2.997 0 5.567-.856 7.707-2.567 2.141-1.783 3.212-4.528 3.212-8.237V7.602ZM229.005 48.463c-1.142 0-2.07-.32-2.783-.963-.642-.642-.964-1.462-.964-2.46V13.913c0-1.783-.927-2.675-2.782-2.675h-6.745c-2.212 0-3.319-1.105-3.319-3.316 0-2.21 1.107-3.316 3.319-3.316h26.442c.999 0 1.82.321 2.462.963.642.57.964 1.355.964 2.353 0 .999-.322 1.819-.964 2.46-.642.571-1.463.856-2.462.856h-6.638c-1.855 0-2.783.892-2.783 2.675V45.04c0 .998-.356 1.819-1.07 2.46-.643.642-1.534.963-2.677.963ZM258.009 48.463c-.928 0-1.784-.32-2.57-.963-.784-.57-1.177-1.426-1.177-2.567V7.602c0-1.213.393-2.104 1.177-2.675.786-.57 1.642-.855 2.57-.855.999 0 1.856.285 2.569.855.785.57 1.178 1.462 1.178 2.675v37.331c0 1.141-.393 1.997-1.178 2.567-.713.642-1.57.963-2.569.963ZM294.379 48.463c-4.139 0-7.922-.963-11.347-2.888a22.761 22.761 0 0 1-8.029-8.023c-1.998-3.423-2.997-7.273-2.997-11.552 0-4.493.999-8.415 2.997-11.767 1.998-3.351 4.675-5.954 8.029-7.808 3.425-1.926 7.208-2.888 11.347-2.888 4.139 0 7.851.962 11.134 2.888 3.354 1.854 5.995 4.457 7.922 7.808 1.998 3.352 2.997 7.274 2.997 11.767 0 4.279-.999 8.13-2.997 11.552-1.927 3.352-4.568 6.026-7.922 8.023-3.283 1.925-6.995 2.888-11.134 2.888Zm0-6.525c2.856 0 5.353-.713 7.494-2.14 2.213-1.497 3.925-3.458 5.138-5.883 1.214-2.424 1.821-5.063 1.821-7.915 0-4.564-1.357-8.344-4.069-11.339-2.712-2.995-6.173-4.492-10.384-4.492-4.282 0-7.779 1.497-10.491 4.492-2.712 2.995-4.068 6.775-4.068 11.339 0 2.852.607 5.49 1.82 7.915 1.214 2.425 2.926 4.386 5.139 5.884 2.212 1.426 4.746 2.139 7.6 2.139ZM329.884 48.463c-.928 0-1.784-.285-2.57-.856-.785-.57-1.177-1.426-1.177-2.567V8.992c0-1.64.499-2.852 1.499-3.637 1.07-.855 2.211-1.283 3.425-1.283 1.855 0 3.212.713 4.068 2.139l17.664 27.705c.356.57.749.855 1.177.855.642 0 .964-.499.964-1.497l-.429-25.78c0-1.14.393-1.996 1.178-2.567.785-.57 1.641-.855 2.569-.855.928 0 1.784.285 2.569.855.786.57 1.178 1.427 1.178 2.568v36.262c0 1.568-.464 2.745-1.392 3.53a4.828 4.828 0 0 1-3.211 1.176c-.856 0-1.713-.214-2.57-.642-.784-.356-1.462-.962-2.033-1.818L335.45 19.047c-.357-.57-.749-.856-1.177-.856-.643 0-.964.5-.964 1.498l.321 25.351c0 1.141-.392 1.997-1.178 2.567-.713.57-1.57.856-2.568.856ZM362.729 130.03l8.014-16.188 11.765-.056 15.949 39.075h-13.66l-9.475-23.221-12.593 25.398-12.594-25.398-9.475 23.221H327l15.95-39.075 11.764.056 8.015 16.188ZM424.267 154.536c-1.922.037-3.922-.13-6.001-.502a32.19 32.19 0 0 1-6.119-1.619 32.454 32.454 0 0 1-5.646-2.903 21.938 21.938 0 0 1-4.659-4.075 19.406 19.406 0 0 1-3.198-5.415c-.763-2.009-1.144-4.242-1.144-6.698 0-2.456.381-4.689 1.144-6.699.764-2.046 1.817-3.851 3.159-5.414a21.149 21.149 0 0 1 4.659-4.131 29.733 29.733 0 0 1 5.645-2.847 32.23 32.23 0 0 1 6.119-1.619 30.94 30.94 0 0 1 6.041-.502 30.93 30.93 0 0 1 6.04.502c2.105.335 4.145.875 6.119 1.619 2 .744 3.882 1.693 5.645 2.847a20.775 20.775 0 0 1 4.698 4.131c1.343 1.563 2.395 3.368 3.158 5.414.79 2.01 1.185 4.243 1.185 6.699 0 2.456-.395 4.689-1.185 6.698a18.207 18.207 0 0 1-3.197 5.415 21.509 21.509 0 0 1-4.698 4.075 30.694 30.694 0 0 1-5.645 2.903 31.226 31.226 0 0 1-6.12 1.619c-2.079.372-4.079.539-6 .502Zm-12.752-21.212c0 1.675.329 3.144.987 4.41a9.213 9.213 0 0 0 2.763 3.07c1.185.781 2.54 1.377 4.067 1.786 1.552.41 3.198.614 4.935.614 1.737 0 3.381-.204 4.934-.614 1.553-.409 2.908-1.005 4.067-1.786a9.038 9.038 0 0 0 2.802-3.07c.685-1.266 1.027-2.735 1.027-4.41 0-1.675-.342-3.126-1.027-4.354a8.4 8.4 0 0 0-2.802-3.07c-1.159-.819-2.514-1.433-4.067-1.842-1.553-.41-3.197-.614-4.934-.614s-3.383.204-4.935.614c-1.527.409-2.882 1.023-4.067 1.842a8.546 8.546 0 0 0-2.763 3.07c-.658 1.228-.987 2.679-.987 4.354ZM486.542 113.786c4.056 0 7.462.577 10.225 1.731 2.788 1.153 5.042 2.94 6.754 5.359 1.736 2.381 2.988 5.433 3.748 9.154.759 3.722 1.143 8.169 1.143 13.342v9.489h-11.845v-9.489c0-3.573-.284-6.55-.868-8.932-.576-2.382-1.469-4.261-2.68-5.638-1.21-1.414-2.754-2.4-4.624-2.958-1.837-.596-4.041-.893-6.587-.893h-14.689v27.91h-11.844v-39.075h31.267ZM538.548 154.536c-1.92.037-3.924-.13-6.002-.502a32.27 32.27 0 0 1-6.119-1.619 32.426 32.426 0 0 1-5.643-2.903 22.031 22.031 0 0 1-4.658-4.075 19.213 19.213 0 0 1-3.197-5.415c-.768-2.009-1.144-4.242-1.144-6.698 0-2.456.376-4.689 1.144-6.699.759-2.046 1.811-3.851 3.155-5.414a21.257 21.257 0 0 1 4.658-4.131 30.016 30.016 0 0 1 5.643-2.847 32.29 32.29 0 0 1 6.119-1.619 31.033 31.033 0 0 1 6.044-.502c1.945-.037 3.965.13 6.043.502a31.31 31.31 0 0 1 6.119 1.619 28.333 28.333 0 0 1 5.643 2.847 20.894 20.894 0 0 1 4.7 4.131c1.344 1.563 2.396 3.368 3.155 5.414.793 2.01 1.186 4.243 1.186 6.699 0 2.456-.393 4.689-1.186 6.698a18.102 18.102 0 0 1-3.197 5.415 21.45 21.45 0 0 1-4.7 4.075 30.455 30.455 0 0 1-5.643 2.903 31.319 31.319 0 0 1-6.118 1.619c-2.079.372-4.082.539-6.002.502Zm-12.755-21.212c0 1.675.333 3.144.993 4.41a9.18 9.18 0 0 0 2.763 3.07c1.185.781 2.538 1.377 4.065 1.786 1.553.41 3.197.614 4.934.614 1.736 0 3.38-.204 4.933-.614 1.553-.409 2.913-1.005 4.065-1.786a9.037 9.037 0 0 0 2.805-3.07c.685-1.266 1.027-2.735 1.027-4.41 0-1.675-.342-3.126-1.027-4.354a8.4 8.4 0 0 0-2.805-3.07c-1.152-.819-2.512-1.433-4.065-1.842-1.553-.41-3.197-.614-4.933-.614-1.737 0-3.381.204-4.934.614-1.527.409-2.88 1.023-4.065 1.842a8.519 8.519 0 0 0-2.763 3.07c-.66 1.228-.993 2.679-.993 4.354ZM582.029 133.324c0 1.935.351 3.554 1.069 4.856a8.593 8.593 0 0 0 2.88 3.07c1.235.745 2.654 1.284 4.265 1.619 1.603.298 3.298.447 5.093.447 2.053 0 4.14-.168 6.277-.503a81.49 81.49 0 0 0 6.035-1.172c1.895-.484 3.598-.986 5.092-1.507 1.503-.521 2.638-.968 3.398-1.34v10.885c-.977.708-2.196 1.359-3.673 1.954-1.444.596-3.08 1.117-4.892 1.563-1.795.447-3.715.8-5.768 1.061a49.88 49.88 0 0 1-6.278.391c-2.178 0-4.382-.149-6.594-.447a35.444 35.444 0 0 1-6.311-1.451 29.656 29.656 0 0 1-5.643-2.68 20.19 20.19 0 0 1-4.583-4.019c-1.319-1.6-2.371-3.442-3.155-5.526-.768-2.122-1.177-4.522-1.227-7.201.075-2.68.501-5.061 1.26-7.145.768-2.122 1.803-3.964 3.122-5.527a18.54 18.54 0 0 1 4.583-4.019 25.765 25.765 0 0 1 5.643-2.679 32.443 32.443 0 0 1 6.311-1.507 49.693 49.693 0 0 1 12.872-.056c2.053.26 3.973.614 5.768 1.06 1.812.447 3.448.968 4.892 1.563 1.477.596 2.696 1.247 3.673 1.954v10.885c-.76-.372-1.895-.818-3.398-1.339-1.494-.521-3.197-1.005-5.092-1.452a65.62 65.62 0 0 0-6.035-1.228 40.446 40.446 0 0 0-6.277-.502c-1.795 0-3.49.167-5.093.502-1.611.298-3.03.837-4.265 1.619-1.211.744-2.171 1.768-2.88 3.07-.718 1.265-1.069 2.866-1.069 4.801ZM620.277 113.786h11.846v27.911h32.764v11.164h-44.61v-39.075ZM681.257 141.697H716v11.164h-46.588v-39.075h44.618v11.165h-32.773v2.791h27.239v11.164h-27.239v2.791ZM463.52 48.556c-.213 1.015-1.2 1.522-2.96 1.522-1.44 0-2.48-.32-3.12-.961a49.161 49.161 0 0 0-1.12-3.283c-.48-1.335-1.04-2.857-1.68-4.565-.32-2.082-.64-3.55-.96-4.405-.267-.854-.613-1.494-1.04-1.922-.8.054-1.947.16-3.44.32a83.373 83.373 0 0 0-4.72.481c-1.653.16-3.2.4-4.64.721-1.44.267-2.48.56-3.12.88a144.708 144.708 0 0 1-.96 4.405 93.756 93.756 0 0 1-1.36 5.126c-.16.533-.533.907-1.12 1.12-.587.268-1.307.401-2.16.401-.853 0-1.6-.16-2.24-.48-.587-.267-.88-.694-.88-1.282 0-1.067.64-4.244 1.92-9.53-.053-.213-.08-.533-.08-.96 0-.694.08-1.549.24-2.563.213-1.068.427-2.082.64-3.043.213-.961.4-1.789.56-2.483.213-.694.32-1.067.32-1.12l2.56-7.128c.107-.694.373-1.628.8-2.803.48-1.175.987-2.376 1.52-3.604.533-1.228 1.04-2.376 1.52-3.443.48-1.121.8-1.976.96-2.563.48-1.762 1.76-2.643 3.84-2.643 1.707 0 2.8.641 3.28 1.922l.48.881c.32.588.747 1.335 1.28 2.243a71.872 71.872 0 0 1 1.68 3.043 63.97 63.97 0 0 1 1.76 3.123c.533.96.987 1.842 1.36 2.643.373.747.587 1.254.64 1.521.427 1.015.96 2.19 1.6 3.524a95.426 95.426 0 0 0 2.32 4.324c.533.694 1.013 1.629 1.44 2.803a37.86 37.86 0 0 1 1.28 3.444c.373 1.174.693 2.242.96 3.203.267.96.507 1.602.72 1.922 0 .374.107.96.32 1.762.267.747.507 1.548.72 2.402.267.854.507 1.655.72 2.403.213.747.32 1.281.32 1.601 0 .267-.053.614-.16 1.041Zm-14-20.18a52.206 52.206 0 0 0-1.2-3.284 20.18 20.18 0 0 0-1.2-2.723 80.537 80.537 0 0 0-1.52-3.043l-2.24-4.484c-1.227 2.242-2.107 4.831-2.64 7.768a26.283 26.283 0 0 0-2.4 6.967c1.653-.48 2.987-.72 4-.72.373 0 .64.026.8.08.907-.214 2-.321 3.28-.321 1.28 0 2.32-.08 3.12-.24ZM504.731 44.953c0 .96-.427 1.868-1.28 2.722-.854.801-1.707 1.202-2.56 1.202-.427 0-.774-.134-1.04-.4-.054 0-.294-.268-.72-.801a60.103 60.103 0 0 1-1.52-2.003c-.587-.8-1.227-1.655-1.92-2.562a152.44 152.44 0 0 1-1.92-2.563 90.892 90.892 0 0 0-1.44-1.922c-.32-.534-.454-.774-.4-.72-.107-.32-.374-.828-.8-1.522a38.313 38.313 0 0 0-1.44-2.162 54.83 54.83 0 0 0-1.36-2.163c-.427-.694-.667-1.12-.72-1.28-.107 0-.4.052-.88.16-.48.053-1.014.133-1.6.24-.587.053-1.2.133-1.84.24-.587.053-1.04.08-1.36.08h-.4c-.16 1.655-.294 3.016-.4 4.084-.107 1.068-.16 1.869-.16 2.403v2.482c0 2.883-.24 6.006-.72 9.37-.64.96-1.574 1.441-2.8 1.441-1.067 0-2-.294-2.8-.88-.747-.535-1.12-1.496-1.12-2.884v-1.521c.053-.64.08-1.282.08-1.922.053-.64.08-1.202.08-1.682.053-.534.08-.88.08-1.041v-.4l.56-12.093c.053-.694.053-1.548 0-2.563 0-1.014.053-2.188.16-3.523l.64-4.805c.32-1.655.48-3.07.48-4.244 0-.374-.027-.721-.08-1.041 0-.374-.027-.748-.08-1.122l.24-2.802c.053-1.282.293-2.323.72-3.124.426-.8 1.44-1.2 3.04-1.2 1.12 0 2.24.186 3.36.56 1.066-.107 2-.16 2.8-.16h2.16c.533 0 1.013.026 1.44.08.426 0 .853.053 1.28.16.426.053.906.16 1.44.32a25.1 25.1 0 0 1 1.92.48l3.52 2.403c1.973 1.548 3.28 3.097 3.92 4.645a11.826 11.826 0 0 1 1.04 4.885c0 1.174-.054 2.189-.16 3.043-.054.8-.32 1.602-.8 2.402-.48.801-1.227 1.629-2.24 2.483-1.014.854-2.454 1.922-4.32 3.203 1.226 1.549 2.613 3.844 4.16 6.887.96.748 2.88 3.79 5.76 9.13Zm-9.84-25.547c.053-.213.08-.507.08-.88 0-.534-.054-1.068-.16-1.602a4.249 4.249 0 0 0-.72-1.682c-.374-.587-.934-1.148-1.68-1.682-.694-.587-1.68-1.147-2.96-1.681-1.12-.427-2.054-.64-2.8-.64a9.21 9.21 0 0 1-.88.16c-.32.106-.72.213-1.2.32-.48.053-1.014.133-1.6.24.053.32.08.64.08.96 0 .268-.054.802-.16 1.602-.054.801-.16 1.95-.32 3.444-.16 1.495-.347 3.577-.56 6.246.213.054.426.08.64.08h.64c1.013 0 2.133-.133 3.36-.4a31.72 31.72 0 0 0 3.6-1.121c1.12-.48 2.106-1.014 2.96-1.602.853-.587 1.413-1.174 1.68-1.761ZM543.586 14.521c-.746.32-1.572.48-2.479.48-.266 0-.667-.026-1.201-.08a80.505 80.505 0 0 0-1.599-.16 19.8 19.8 0 0 0-1.76-.24c-.533-.106-.934-.16-1.201-.16-1.706 0-3.36.24-4.96.72a129.9 129.9 0 0 1 .8 5.927c.214 1.922.4 3.737.56 5.446.16 1.655.267 3.176.32 4.564.054 1.335.08 2.483.08 3.444 0 2.402-.026 4.484-.08 6.246 0 1.709-.132 3.15-.399 4.325-.266 1.12-.694 1.948-1.281 2.482-.586.534-1.44.801-2.56.801-1.066 0-1.865-.267-2.399-.8a5.535 5.535 0 0 1-1.041-2.003c-.16-.8-.24-1.628-.24-2.482.054-.855.081-1.575.081-2.163 0-1.014.079-1.922.239-2.722.16-.855.24-1.655.24-2.403 0-.374-.106-1.708-.32-4.004-.213-2.35-.32-5.285-.32-8.809a14.81 14.81 0 0 0-.399-3.444 52.454 52.454 0 0 0-.721-3.363l-4.719.32c-1.92.16-3.253.454-4 .881-1.12 0-2.081-.32-2.881-.96-.8-.641-1.2-1.469-1.2-2.483 0-1.015.454-2.136 1.36-3.364.267-.053 1.468-.24 3.601-.56 2.134-.374 5.2-.935 9.2-1.682l4-.48c1.28-.16 2.507-.24 3.68-.24h1.199l9.44.64c1.12.64 1.681 1.842 1.681 3.604 0 .96-.241 1.868-.721 2.722ZM585.691 37.025c-.16.64-.56 1.414-1.2 2.322-.587.907-1.334 1.842-2.24 2.803a22.16 22.16 0 0 1-2.96 2.482c-1.014.748-2 1.282-2.96 1.602-2.774 1.228-5.894 1.842-9.36 1.842a48.02 48.02 0 0 1-2.96-.08c-.8-.054-1.6-.214-2.4-.48-.8-.268-1.6-.695-2.4-1.282-.8-.587-1.707-1.442-2.72-2.563-1.12-1.174-2-2.322-2.64-3.443-.64-1.175-1.12-2.296-1.44-3.364a17.212 17.212 0 0 1-.64-3.043 26.222 26.222 0 0 1-.16-2.722c0-1.762.213-3.845.64-6.247.426-2.402 1.573-5.339 3.44-8.809a114.144 114.144 0 0 0 1.6-3.043c.373-.748.586-1.255.64-1.522l4.96-3.043c1.706-1.014 3.333-1.815 4.88-2.402 1.546-.64 3.253-.961 5.12-.961h2.4c1.066 0 2.106.133 3.12.4 1.066.214 2 .64 2.8 1.281.8.588 1.2 1.469 1.2 2.643 0 1.976-1.174 3.123-3.52 3.444.053 0-.107-.027-.48-.08-.374-.054-.88-.107-1.52-.16-.64-.054-1.36-.107-2.16-.16-.8-.054-1.6-.08-2.4-.08-1.387 0-2.8.4-4.24 1.2-1.387.748-3.094 2.056-5.12 3.925-1.067 2.242-1.867 4.004-2.4 5.285-.48 1.228-.72 2.055-.72 2.483-.587 1.067-.88 2.642-.88 4.724 0 3.844.693 6.62 2.08 8.329 1.386 1.655 3.28 2.482 5.68 2.482 1.546 0 3.946-.427 7.2-1.28 1.973-1.175 3.68-3.044 5.12-5.607.906-.907 1.84-1.361 2.8-1.361 1.013 0 1.92.4 2.72 1.201.8.801 1.2 1.709 1.2 2.723a.716.716 0 0 1-.08.32v.24ZM620.002 37.986c1.546.32 2.32 1.521 2.32 3.603 0 1.121-.267 2.002-.8 2.643-.534.64-1.227.96-2.08.96-.267 0-.774-.026-1.52-.08a30.478 30.478 0 0 0-2.4-.24 43.159 43.159 0 0 0-2.48-.24c-.8-.106-1.36-.16-1.68-.16h-.88c-.267 0-.534.027-.8.08a46.027 46.027 0 0 1-3.2-.32l-3.52-.64a60.402 60.402 0 0 1-3.04-.801c-.854-.267-1.36-.508-1.52-.721-.534-1.602-.8-3.737-.8-6.407v-1.281c0-.48.026-.961.08-1.442l.48-5.685a9.79 9.79 0 0 0 .08-1.202v-2.162c0-.32-.054-.614-.16-.88.373-2.03.64-3.711.8-5.046.16-1.388.24-2.456.24-3.203v-.641c0-.747.32-3.123.96-7.127.8-1.709 2.026-2.563 3.68-2.563 1.013 0 1.866.4 2.56 1.201.693.748 1.04 1.789 1.04 3.124a32.458 32.458 0 0 0-.64 2.802 106.01 106.01 0 0 0-.48 4.005v.64c0 .48-.054 1.228-.16 2.242a71.453 71.453 0 0 1-.24 3.044 154.16 154.16 0 0 1-.32 2.802c-.054.801-.08 1.255-.08 1.362 0 .587.026.96.08 1.121a238.25 238.25 0 0 0-.48 5.606c-.107 1.495-.16 2.642-.16 3.443 0 .534.026.881.08 1.041 2.773.32 4.613.48 5.52.48h1.28c.48-.053.96-.08 1.44-.08 2.026 0 4.293.241 6.8.721ZM665.143 21.409c-.427 3.737-.8 6.993-1.12 9.77-.32 2.776-.933 5.018-1.84 6.726-.96 1.762-2 3.204-3.12 4.325s-2.267 2.002-3.44 2.643c-1.173.64-2.347 1.094-3.52 1.361-1.12.213-2.187.32-3.2.32-1.6 0-3.013-.16-4.24-.48a11.073 11.073 0 0 1-3.44-1.762c-1.013-.854-1.973-1.975-2.88-3.363-.907-1.442-1.84-3.257-2.8-5.446-.96-3.844-1.547-7.18-1.76-10.01-.213-2.83-.32-5.58-.32-8.249 0-.907-.027-1.922-.08-3.043 0-1.174.08-2.269.24-3.283.213-1.068.587-1.949 1.12-2.643.587-.747 1.44-1.121 2.56-1.121 2.08 0 3.44 1.121 4.08 3.363-.16.961-.24 2.616-.24 4.965v2.323c0 .8.027 1.682.08 2.643.053 2.402.08 4.11.08 5.125 0 .96.027 1.681.08 2.162.053.427.133.854.24 1.281.107.374.293 1.175.56 2.403.533 1.601.987 2.856 1.36 3.764.373.854.773 1.548 1.2 2.082.427.48.96.854 1.6 1.12a52.57 52.57 0 0 0 2.64.722c1.547-.374 2.827-.935 3.84-1.682a7.804 7.804 0 0 0 2.48-2.803c.64-1.175 1.093-2.536 1.36-4.084.267-1.548.453-3.284.56-5.206 0-1.387.027-2.722.08-4.004.107-1.28.213-2.455.32-3.523a57.482 57.482 0 0 1-.08-2.803V12.84c0-.64-.027-1.201-.08-1.682v.88c0-1.974.213-3.736.64-5.285 1.12-.64 2.213-.96 3.28-.96.96 0 1.707.213 2.24.64.533.374.933.881 1.2 1.522.267.587.427 1.281.48 2.082.053.747.08 1.495.08 2.242 0 .32-.027.801-.08 1.442a105.06 105.06 0 0 0-.16 2.002c0 .694-.027 1.361-.08 2.002a19.21 19.21 0 0 0-.08 1.441v1.201c.053.32.107.668.16 1.041ZM713.633 33.581v.56c0 1.87-.72 3.925-2.16 6.167-1.44 2.189-3.893 4.298-7.36 6.327-1.333.8-2.56 1.414-3.68 1.841-1.12.48-2.267.881-3.44 1.202-1.12.373-2.32.72-3.6 1.04-1.28.321-2.72.748-4.32 1.282h-4.08c-1.28-.107-2.24-.347-2.88-.72-.64-.321-1.093-.775-1.36-1.362-.267-.534-.4-1.201-.4-2.002v-3.764c0-.32.027-.667.08-1.041a4.53 4.53 0 0 1-.08-.881v-1.121c0-3.63.107-6.46.32-8.489.267-2.029.4-3.604.4-4.725 0-.64-.027-1.334-.08-2.082v-2.482c.107-1.442.24-3.07.4-4.885.16-1.816.293-3.844.4-6.087-.053-.427-.187-.987-.4-1.681a25.432 25.432 0 0 0-.72-2.163 20.173 20.173 0 0 0-.64-1.922l-.24-.88c0-.855.533-1.682 1.6-2.483 1.12-.8 2.667-1.255 4.64-1.361 2.72-1.228 5.253-1.842 7.6-1.842h.96c.427-.054.96-.027 1.6.08.64.107 1.387.347 2.24.72.907.32 1.893.855 2.96 1.602l3.28 2.643 1.2 2.563c.48 1.12.72 2.242.72 3.363 0 2.563-.96 4.992-2.88 7.287 3.627 1.549 5.84 2.803 6.64 3.764.427.588.853 1.362 1.28 2.323.427.96.773 2.162 1.04 3.603l.96 5.606Zm-14.72-23.864c-.053-.16-.213-.4-.48-.721-.213-.374-.533-.72-.96-1.041a4.74 4.74 0 0 0-1.52-.881c-.587-.267-1.253-.4-2-.4-2.293 0-3.973.453-5.04 1.36-.107.375-.16.802-.16 1.282v1.682c0 .64-.053 1.415-.16 2.322-.053.854-.213 1.869-.48 3.043-.32 1.282-.48 2.083-.48 2.403 3.36-.587 6.107-1.575 8.24-2.963 2.133-1.388 3.2-2.91 3.2-4.565 0-.267-.027-.507-.08-.72 0-.268-.027-.534-.08-.801Zm7.04 25.706c.213-.64.32-1.388.32-2.242 0-1.602-.267-2.99-.8-4.165-.533-1.227-1.253-2.215-2.16-2.963-.853-.747-1.867-1.308-3.04-1.681-1.173-.374-2.4-.56-3.68-.56-.533 0-1.227.106-2.08.32-.8.213-1.653.453-2.56.72a63.37 63.37 0 0 0-2.4.801c-.693.213-1.173.347-1.44.4v1.842c0 1.442-.027 2.723-.08 3.844a532.125 532.125 0 0 0-.32 7.448 502.526 502.526 0 0 0-.16 5.526h.4c1.227 0 2.773-.32 4.64-.962l6-2.162c.64-.213 1.36-.56 2.16-1.04a24.47 24.47 0 0 0 2.24-1.682 29.873 29.873 0 0 0 1.84-1.842c.587-.588.96-1.121 1.12-1.602ZM11.552 157.283v-42.34H2v-4.779h24.879v4.779h-9.552v42.34h-5.775ZM36.672 136.08v21.203h-5.775v-47.119h5.775v21.204h12.736v-21.204h5.775v47.119h-5.775V136.08H36.672ZM79.562 131.031v4.712H66.9v16.761h15.55v4.779H61.125v-47.119H82.45v4.779H66.9v16.088h12.662ZM104.414 157.283h-5.183v-47.119h7.33l11.995 34.06v-34.06h5.109v47.119h-5.998l-13.253-38.099v38.099ZM148.035 131.031v4.712h-12.662v16.761h15.549v4.779h-21.324v-47.119h21.324v4.779h-15.549v16.088h12.662ZM170.052 157.283h-7.922l-7.109-47.119h5.628l6.072 40.119 5.775-40.052h5.701l5.702 40.119 5.849-40.186h5.035l-7.034 47.119h-7.626l-4.961-31.974-5.11 31.974ZM210.332 109.693c3.952 0 6.868 1.077 8.737 3.231 1.879 2.109 2.814 4.958 2.814 8.548v1.279h-5.479v-1.548c0-2.154-.463-3.814-1.407-4.981-.935-1.167-2.444-1.75-4.517-1.75-2.073 0-3.573.583-4.517 1.75-.935 1.167-1.407 2.805-1.407 4.914 0 1.75.426 3.276 1.259 4.577.889 1.302 1.981 2.513 3.258 3.635a77.25 77.25 0 0 0 4.147 3.231 29.315 29.315 0 0 1 4.22 3.433 16.66 16.66 0 0 1 3.184 4.308c.889 1.571 1.333 3.455 1.333 5.654 0 3.59-.963 6.462-2.888 8.616-1.869 2.11-4.813 3.164-8.811 3.164-3.999 0-6.933-1.054-8.811-3.164-1.87-2.154-2.814-5.026-2.814-8.616v-2.692h5.405v2.962c0 2.154.5 3.814 1.481 4.981.99 1.167 2.517 1.75 4.591 1.75 2.073 0 3.609-.583 4.591-1.75.99-1.167 1.48-2.827 1.48-4.981 0-1.751-.444-3.254-1.332-4.51-.833-1.302-1.898-2.491-3.184-3.568a47.086 47.086 0 0 0-4.147-3.231 37.422 37.422 0 0 1-4.146-3.5 19.14 19.14 0 0 1-3.258-4.241c-.833-1.616-1.259-3.523-1.259-5.722 0-3.634.944-6.507 2.814-8.616 1.879-2.109 4.766-3.163 8.663-3.163ZM232.481 146.177c0 2.154.463 3.836 1.407 5.048.981 1.167 2.536 1.75 4.664 1.75 2.074 0 3.573-.583 4.517-1.75.981-1.212 1.481-2.894 1.481-5.048v-36.013h5.405v35.743c0 3.59-.944 6.485-2.813 8.684-1.879 2.154-4.813 3.231-8.812 3.231-3.952 0-6.867-1.077-8.737-3.231-1.879-2.199-2.814-5.094-2.814-8.684v-35.743h5.702v36.013ZM260.74 157.283h-5.183v-47.119h7.339l11.986 34.06v-34.06h5.119v47.119h-5.998l-13.263-38.099v38.099Z" fill="#201B19"/></svg>