<svg xmlns="http://www.w3.org/2000/svg" width="135" height="151" fill="none"><path fill-rule="evenodd" clip-rule="evenodd" d="M102.468 147.546c-13.336-7.262-15.086-23.59-3.384-31.576 7.127-4.864 15.569-5.37 23.67-1.419 20.305 9.906 12.352 37.139-10.454 35.799-2.94-.173-5.344-.324-5.341-.335.002-.012-2.019-1.124-4.491-2.469Zm3.447-1.218c-7.161-2.917-11.775-9.365-11.785-16.472-.009-6.401 5.873-13.187 12.733-14.688 8.373-1.833 15.148.247 20.447 6.279 3.708 4.22 4.985 8.406 4.012 13.148-2.198 10.709-14.252 16.275-25.407 11.733Zm-50.608-16.952c-1.775-1.752-6.065-7.77-9.533-13.375-8.752-14.141-13.672-20.054-20.323-24.424-14.82-9.733-17.508-11.89-20.66-16.582-6.691-9.958-5.816-24.163 2.534-41.131 7.278-14.792 9.823-21.38 10.65-27.575.529-3.95 1.112-5.81 1.78-5.676.549.109 4.695 2.835 9.216 6.058 6.472 4.614 10.513 6.783 19.013 10.204 12.868 5.178 19.158 9.416 24.476 16.492 7.68 10.22 10.45 23.069 8.292 38.46-1.568 11.185-18.756 59.671-21.444 60.496-.426.13-2.225-1.196-4-2.947Zm-1.71-6.722c-2.232-3.092-6.353-9.329-9.156-13.863-6.963-11.264-10.543-14.9-22.102-22.448-11.145-7.28-14.38-10.22-16.714-15.188C.927 61.153 2.675 49.7 11.685 31.43c3.26-6.611 6.684-14.988 7.856-19.223L21.617 4.7l7.186 5.072c5.297 3.738 10.02 6.21 17.966 9.404 13.127 5.274 18.761 9.25 24.178 17.06 7.65 11.033 9.412 22.573 5.95 38.96-2.597 12.29-17.059 53.524-18.657 53.196-.32-.065-2.41-2.648-4.643-5.739Z" fill="#201B19"/></svg>