<svg xmlns="http://www.w3.org/2000/svg" width="123" height="48" fill="none"><path fill-rule="evenodd" clip-rule="evenodd" d="M4.313 45.76c-4.682-2.117-5.569-6.046-2.292-10.155C15.33 18.913 83.715-2.84 112.036.61c6.984.85 9.812 2.52 10.464 6.176.932 5.229-11.325 14.58-29.216 22.289-31.44 13.547-77.007 22.092-88.97 16.684Zm22.814-18.197c-6.149 3.731-7.63 5.52-5.638 6.812 5.605 3.636 36.27-.45 57.877-7.712 10.329-3.471 23.813-10.444 24.242-12.535.406-1.975-3.461-3.216-10.03-3.218-19.523-.005-52.706 8.31-66.451 16.653Z" fill="#201B19"/></svg>