<svg xmlns="http://www.w3.org/2000/svg" width="181" height="141" fill="none"><path fill-rule="evenodd" clip-rule="evenodd" d="M85.462 136.42c-7.3-5.429-9.953-13.056-10.267-29.533-.208-10.815-2.681-21.08-6.751-28.01-1.405-2.393-5.498-8.139-9.097-12.769-5.845-7.52-6.6-8.956-7.089-13.455-.79-7.306 1.751-15.99 6.203-21.189 5.911-6.903 13.546-8.67 26.305-6.085 13.871 2.81 28.511 10.158 38.322 19.235 7.186 6.649 7.628 6.895 15.758 8.77 25.774 5.938 43.585 25.207 41.073 44.434-2.107 16.127-16.017 26.183-46.768 33.812-7.633 1.894-9.466 2.42-17.211 4.94-14.409 4.687-24.037 4.64-30.478-.15Zm1.097-2.52c-1.767-1.39-4.112-4.3-5.211-6.468-1.909-3.761-1.914-3.976-.116-4.676 1.308-.509 1.602-.974.962-1.516-.508-.431-1.353-.651-1.88-.49-1.293.396-2.188-2.403-2.092-6.543.055-2.307.412-3.349 1.1-3.208.56.115 1.138-.369 1.283-1.075.153-.747-.28-1.215-1.036-1.121-.944.118-1.367-1.595-1.546-6.263-.135-3.55-1.443-10.212-2.92-14.884-2.35-7.435-3.634-9.723-10.629-18.938-4.375-5.766-8.397-11.786-8.938-13.379-1.494-4.405-.098-13.72 2.82-18.817 3.066-5.348 7.49-8.31 13.99-9.364 4.54-.737 6.108-.57 14.53 1.549 14.894 3.748 26.342 9.784 35.203 18.562 5.775 5.72 7.098 6.413 17.153 8.964 10.491 2.663 14.18 4.333 21.523 9.744 7.149 5.269 13.537 13.638 15.647 20.501 1.394 4.533 1.416 6.194.171 12.43-1.273 6.365-1.858 7.687-5.065 11.447-5.254 6.158-16.453 12.291-28.741 15.739a1736.767 1736.767 0 0 0-20.029 5.779c-23.664 7.012-29.43 7.335-36.179 2.027Zm21.068-3.097c.863-1.366 2.86-1.212 2.57.199-.143.696-.903 1.133-1.691.971-.787-.162-1.183-.688-.879-1.17Zm-4.199-5.642c-.436-1.01 1.185-1.671 1.869-.761.703.936.321 1.985-.651 1.786-.468-.096-1.016-.558-1.218-1.025Zm-10.26-2.996c.09-.439.774-.674 1.52-.52.745.153 1.282.637 1.192 1.077-.09.439-.775.673-1.52.52-.746-.153-1.283-.638-1.193-1.077Zm-3.537-5.721c.09-.439.57-.715 1.068-.613.497.102.83.545.74.984-.09.44-.571.716-1.068.614-.497-.102-.83-.545-.74-.985Zm39.875 7.699c.289-1.411 2.186-.766 2.44.829.09.563-.481.891-1.268.729-.788-.162-1.315-.863-1.172-1.558Zm7.711-.846c.15-.733.684-1.113 1.186-.846.502.267.843.828.758 1.245-.086.417-.62.797-1.187.845-.566.048-.907-.512-.757-1.244Zm6.16-7.061c.135-.659.856-1.073 1.602-.92.746.153 1.245.818 1.11 1.477-.135.659-.856 1.073-1.602.92-.746-.153-1.246-.818-1.11-1.477Zm8.006.649c-.834-1.108-.241-1.969 1.156-1.682.746.153 1.287.616 1.202 1.03-.207 1.007-1.767 1.439-2.358.652Zm-47.624-14.191c.09-.439.774-.673 1.52-.52.746.153 1.282.638 1.192 1.077-.09.439-.774.674-1.52.52-.746-.153-1.283-.637-1.192-1.077Zm29.996.745c.15-.732.684-1.112 1.186-.845.502.267.843.827.758 1.244-.086.417-.62.798-1.187.846-.566.047-.907-.512-.757-1.245Zm-29.403-7.345c.275-.436.886-.713 1.359-.616.473.097.925.593 1.006 1.101.081.509-.53.786-1.359.616-.829-.17-1.281-.666-1.006-1.101Zm21.254 1.144c.085-.414.607-.89 1.16-1.06.553-.17.89.252.75.937-.141.684-.663 1.162-1.16 1.06-.497-.102-.835-.524-.75-.938Zm6.852-.37c.275-.436.886-.714 1.359-.617.473.097.925.593 1.006 1.102.081.508-.529.786-1.359.616-.829-.17-1.281-.666-1.006-1.102Zm-34.754-7.649c-.833-1.108-.24-1.969 1.157-1.682.746.153 1.287.616 1.202 1.03-.207 1.007-1.767 1.439-2.359.652Zm26.511 1.024c.09-.44.774-.673 1.52-.52.746.153 1.282.637 1.192 1.077-.09.44-.774.673-1.52.52-.746-.153-1.282-.638-1.192-1.077ZM98.57 82.066c.136-.659.653-1.114 1.15-1.012.498.102.794.724.659 1.383-.136.66-.653 1.115-1.15 1.013-.498-.102-.794-.725-.659-1.384Zm-24.54-6.03c-.834-1.109-.242-1.97 1.156-1.683.746.154 1.287.617 1.202 1.03-.207 1.008-1.767 1.44-2.358.653Zm89.138 12.628c.15-.733.684-1.112 1.186-.846.502.268.843.828.758 1.245-.086.417-.62.798-1.187.845-.566.048-.908-.511-.757-1.244ZM83.772 71.537c.136-.659.653-1.115 1.15-1.013.498.102.794.725.659 1.384-.136.66-.653 1.115-1.15 1.013-.498-.102-.794-.725-.659-1.384Zm-7.816-2.177c.862-1.366 2.86-1.212 2.57.199-.143.695-.904 1.132-1.691.97-.788-.161-1.184-.687-.88-1.169Zm97.471 19.814c.143-.696.903-1.133 1.691-.971 1.596.327.966 1.99-.812 2.14-.627.053-1.022-.474-.879-1.17ZM86.174 66.577c-.606-1.405.732-1.956 1.683-.692.531.707.455 1.157-.232 1.367-.563.173-1.215-.131-1.45-.675Zm6.8 1.438c.091-.44.775-.674 1.521-.521.746.153 1.282.638 1.192 1.077-.09.44-.774.674-1.52.52-.746-.152-1.282-.637-1.192-1.076Zm34.684 5.453c.09-.44.774-.674 1.52-.52.746.152 1.282.637 1.192 1.076-.09.44-.774.674-1.52.52-.746-.152-1.282-.637-1.192-1.076ZM67.486 60.129c.863-1.366 2.86-1.212 2.57.2-.143.695-.903 1.132-1.69.97-.788-.162-1.184-.688-.88-1.17Zm71.061 13.076c-.217-.502.24-.783 1.014-.624.775.159 1.336.648 1.246 1.088-.09.44-.546.72-1.015.624-.468-.096-1.028-.586-1.245-1.088Zm-35.903-7.924c-.852-1.132-.277-1.999 1.135-1.709.746.153 1.246.818 1.11 1.477-.256 1.247-1.394 1.365-2.245.232Zm-7.07-2.283c-.851-1.132-.275-1.999 1.137-1.71.746.154 1.245.819 1.11 1.478-.256 1.247-1.395 1.365-2.246.232Zm37.211 6.782c-.833-1.109-.241-1.97 1.157-1.683.746.154 1.287.617 1.202 1.03-.207 1.008-1.767 1.44-2.359.653Zm16.732 2.763c.136-.66.653-1.115 1.15-1.013.498.102.794.725.659 1.384-.136.659-.653 1.115-1.15 1.013-.498-.102-.794-.725-.659-1.384ZM73.738 56.158c.15-.732.685-1.112 1.187-.845.502.267.843.827.757 1.244-.085.417-.62.798-1.186.845-.567.048-.908-.511-.758-1.244Zm69.484 13.266c-.833-1.108-.241-1.969 1.157-1.682.746.153 1.286.616 1.202 1.03-.207 1.007-1.767 1.439-2.359.652Zm-23.87-5.986c.091-.439.775-.673 1.521-.52.745.153 1.282.638 1.192 1.077-.09.44-.774.674-1.52.52-.746-.153-1.283-.637-1.193-1.077Zm-6.986-2.682c.15-.733.684-1.113 1.186-.846.502.267.843.828.758 1.245-.086.417-.62.797-1.187.845-.566.048-.908-.512-.757-1.244ZM69.216 50.65c.09-.44.774-.673 1.52-.52.746.153 1.282.638 1.192 1.077-.09.44-.774.674-1.52.52-.746-.153-1.282-.637-1.192-1.077Zm6.408-3.68c.09-.439.774-.673 1.52-.52.746.153 1.282.638 1.192 1.077-.09.44-.774.674-1.52.52-.746-.152-1.282-.637-1.192-1.077ZM5.063 24.081c-5.044-8.399-5.128-8.656-3.188-9.718C7.575 11.243 31.951.547 32.911.744c.958.197 9.325 12.89 10.62 16.112.276.683-.898 1.78-3.004 2.806-7.5 3.655-29.235 13.274-29.742 13.163-.298-.064-2.872-3.999-5.722-8.744Zm63.261 8.843c.275-.436.886-.713 1.359-.616.473.097.925.593 1.006 1.101.081.509-.53.786-1.359.616-.829-.17-1.281-.666-1.006-1.101Z" fill="#201B19"/></svg>