<svg xmlns="http://www.w3.org/2000/svg" width="145" height="164" fill="none"><path fill-rule="evenodd" clip-rule="evenodd" d="M73.196 161.369c-6.13-3.07-11.305-8.804-14.34-15.889-1.291-3.013-3.288-7.169-4.438-9.238-2.916-5.247-6.02-14.552-8.795-26.361-4.851-20.643-8.283-28.129-18.305-39.931C16.63 57.364 13.665 51.843 12.51 42.37c-1.858-15.24 9.243-29.739 25.363-33.126 3.35-.704 9.907-1.284 14.572-1.29 15.7-.02 20.621-.67 30.594-4.042 16.255-5.498 23.576-4.97 33.441 2.415 6.211 4.649 10.211 10.684 15.56 23.473 2.306 5.51 5.811 13.245 7.791 17.19 6.439 12.83 6.446 21.333.029 42.729-8.048 26.84-13.701 36.541-33.991 58.332-12.988 13.95-23.147 18.09-32.674 13.317Zm-1.61-4.107c-5.088-3.648-8.104-8.102-13.76-20.319-5.11-11.038-6.189-14.213-9.271-27.293-4.97-21.084-6.583-24.558-19.015-40.948C18.083 53.6 15.985 49.623 15.253 41.63c-.819-8.961 3.25-18.047 10.786-24.08 6.825-5.464 14.77-7.37 29.668-7.118 12.943.219 16.488-.3 28.652-4.185 12.477-3.985 16.511-4.462 22.053-2.608 9.602 3.214 15.7 10.45 22.992 27.286 2.83 6.533 6.154 13.838 7.389 16.233 3.465 6.727 5.117 12.596 5.117 18.178 0 6.88-4.164 23.177-10.13 39.647-1.916 5.288-2.68 6.499-4.13 6.534-2.086.051-2.764 1.902-.974 2.66 3.107 1.313-18.501 29.175-30.935 39.887-8.694 7.49-16.692 8.549-24.155 3.199ZM1.7 141.592c-3.5-2.817 1.481-8.787 6.475-7.762 4.433.91 4.198 4.793-.453 7.463-3.414 1.961-3.925 1.986-6.022.299Zm62.26.773c.135-.659.653-1.115 1.15-1.013.497.102.793.725.658 1.384-.135.659-.653 1.115-1.15 1.013-.497-.102-.794-.725-.658-1.384Zm9.86-2.139c.15-.732.685-1.112 1.187-.845.502.267.843.827.757 1.244-.085.417-.62.798-1.186.845-.567.048-.908-.511-.758-1.244Zm-6.904-3.082c.15-.732.684-1.112 1.186-.845.502.267.843.827.757 1.244-.085.417-.62.798-1.186.845-.567.048-.908-.511-.757-1.244Zm16.847.544c.09-.439.774-.674 1.52-.52.746.153 1.282.637 1.192 1.077-.09.439-.774.673-1.52.52-.746-.153-1.282-.638-1.192-1.077Zm28.593-10.781c.09-.44.774-.674 1.52-.521.746.153 1.283.638 1.192 1.077-.09.44-.774.674-1.52.521-.746-.153-1.282-.638-1.192-1.077ZM61.89 111.138c.15-.732.684-1.112 1.186-.845.502.267.843.827.758 1.244-.086.417-.62.798-1.187.846-.566.047-.907-.512-.757-1.245Zm10.213 1.618c.275-.436.886-.714 1.359-.617.472.098.925.593 1.006 1.102.081.509-.53.786-1.359.616-.829-.17-1.281-.666-1.006-1.101Zm39.675 7.788c.151-.732.685-1.112 1.187-.845.502.267.843.827.757 1.244-.085.417-.62.798-1.186.846-.567.047-.908-.512-.758-1.245Zm7.725-.912c.135-.659.653-1.114 1.15-1.012.497.102.793.724.658 1.383s-.653 1.115-1.15 1.013c-.497-.102-.793-.725-.658-1.384Zm-63.204-13.387c.09-.44.774-.674 1.52-.521.746.153 1.282.638 1.192 1.077-.09.44-.774.674-1.52.521-.746-.153-1.282-.638-1.192-1.077Zm11.013 1.427c.09-.439.57-.715 1.068-.613.497.102.83.545.74.984-.09.44-.57.716-1.068.614-.497-.102-.83-.545-.74-.985Zm51.113 6.628c-.592-.786.481-1.866 1.621-1.632.468.096.74.713.605 1.373-.254 1.235-1.393 1.368-2.226.259Zm-30.157-7.738c.15-.733.684-1.112 1.186-.845.502.267.843.827.757 1.244-.085.417-.62.798-1.186.845-.567.048-.908-.511-.757-1.244Zm-6.965-1.908c.275-.436.886-.713 1.359-.616.472.097.925.593 1.006 1.101.081.509-.53.787-1.359.616-.829-.17-1.281-.665-1.006-1.101Zm36.221 1.669c.09-.44.571-.716 1.068-.614.497.103.83.545.74.985-.09.439-.571.715-1.068.613-.497-.102-.83-.545-.74-.984ZM82.51 97.888c.136-.659.856-1.073 1.602-.92.746.153 1.246.818 1.11 1.477-.135.659-.856 1.073-1.601.92-.746-.153-1.246-.818-1.11-1.477Zm42.938 9.483c-.833-1.108-.241-1.969 1.156-1.682.746.153 1.287.616 1.202 1.03-.207 1.007-1.767 1.439-2.358.652ZM76.264 96.19c.09-.44.57-.715 1.068-.613.497.102.83.545.74.984-.09.44-.57.715-1.068.613-.497-.102-.83-.545-.74-.984Zm49.302 4.134c.862-1.366 2.859-1.212 2.57.199-.143.696-.904 1.132-1.691.971-.787-.162-1.184-.688-.879-1.17ZM70.411 87.982c.143-.696.904-1.132 1.69-.971 1.597.328.967 1.99-.81 2.14-.628.053-1.023-.473-.88-1.17Zm6.829 2.049c-.592-.787.48-1.867 1.62-1.633.469.096.74.714.606 1.373-.254 1.235-1.393 1.368-2.226.26Zm-5.422-8.906c.09-.439.774-.673 1.52-.52.746.153 1.283.638 1.192 1.077-.09.44-.774.674-1.52.52-.746-.153-1.282-.637-1.192-1.077Zm20.15 2.818c.142-.696.713-1.024 1.268-.729 1.575.838 1.5 2.615-.097 2.287-.786-.161-1.314-.862-1.171-1.558Zm7.828 1.514c-.833-1.108-.241-1.969 1.157-1.682.745.153 1.286.616 1.201 1.03-.206 1.007-1.766 1.439-2.358.652Zm32.347 4.72c.091-.44.547-.721 1.015-.625.469.096 1.028.586 1.246 1.088.217.502-.24.783-1.015.624-.775-.159-1.336-.648-1.246-1.088ZM41.725 68.132c.862-1.366 2.86-1.212 2.57.199-.143.695-.904 1.132-1.691.97-.788-.161-1.184-.687-.88-1.169Zm24.72 5.507c-.852-1.132-.276-1.999 1.136-1.709.746.153 1.245.818 1.11 1.477-.256 1.247-1.395 1.365-2.246.232Zm40.125 4.472c.863-1.367 2.86-1.213 2.57.198-.142.696-.904 1.132-1.69.97-.788-.16-1.184-.686-.88-1.168ZM48.3 65.776c-.592-.787.48-1.867 1.62-1.633.469.096.74.714.605 1.373-.253 1.235-1.392 1.368-2.226.26Zm66.161 12.746c-.591-.786.481-1.867 1.621-1.633.469.096.74.714.605 1.373-.253 1.235-1.392 1.368-2.226.26ZM35.025 61.342c-.833-1.108-.241-1.97 1.157-1.682.746.153 1.287.616 1.202 1.03-.207 1.007-1.767 1.439-2.359.652Zm33.156 5.37c.143-.696.904-1.132 1.69-.97.788.161 1.184.687.88 1.168-.863 1.367-2.86 1.213-2.57-.198Zm-22.919-7.686c.09-.44.774-.674 1.52-.52.746.152 1.283.637 1.193 1.077-.09.439-.775.673-1.52.52-.746-.153-1.283-.638-1.193-1.077Zm-24.8-6.817c.275-.436.886-.714 1.359-.617.472.098.925.593 1.006 1.102.081.509-.53.786-1.359.616-.829-.17-1.281-.666-1.006-1.101ZM52.41 56.33c.09-.439.57-.715 1.068-.613.497.102.83.545.74.985-.09.439-.57.715-1.068.613-.497-.102-.83-.545-.74-.984Zm-24.905-7.192c.136-.659.653-1.115 1.15-1.013.498.102.794.725.658 1.384-.135.66-.652 1.115-1.15 1.013-.497-.102-.793-.725-.658-1.384Zm50.966 8.746c.14-.685.617-.94 1.059-.566.441.373.733 1.017.648 1.43-.085.415-.56.669-1.058.567-.497-.102-.79-.746-.649-1.431Zm19.14 3.145c.136-.66.653-1.115 1.15-1.013.498.102.794.725.659 1.384-.136.659-.653 1.114-1.15 1.013-.498-.103-.794-.725-.659-1.384Zm-24.986-6.793c.135-.66.653-1.115 1.15-1.013.497.102.793.725.658 1.384-.135.659-.653 1.115-1.15 1.013-.497-.102-.793-.725-.658-1.384Zm31.971 4.896c.135-.659.856-1.073 1.602-.92.746.153 1.245.818 1.11 1.477-.135.659-.856 1.073-1.602.92-.746-.153-1.246-.818-1.11-1.477ZM39.091 43.191c.15-.733.684-1.113 1.186-.846.502.267.843.828.757 1.245-.085.417-.62.797-1.186.845-.567.048-.908-.512-.758-1.244Zm36.573 5.425c.09-.44.774-.674 1.52-.52.746.152 1.282.637 1.192 1.076-.09.44-.774.674-1.52.52-.746-.152-1.282-.637-1.192-1.076Zm27.835 5.157c-.852-1.132-.277-1.999 1.135-1.71.746.154 1.246.818 1.11 1.477-.256 1.248-1.394 1.366-2.245.233Zm-33.384-7.961c-.255-.59.017-1.349.604-1.686.713-.409 1.223-.256 1.532.46.255.59-.017 1.348-.604 1.685-.713.41-1.223.256-1.532-.46Zm-32.103-7.953c-.591-.787.481-1.867 1.621-1.633.469.096.74.714.605 1.373-.253 1.235-1.392 1.368-2.226.26Zm72.827 13.813c.09-.44.57-.715 1.068-.613.497.102.83.545.74.984-.09.44-.571.716-1.068.614-.498-.102-.831-.545-.74-.985ZM45.251 36.13c.135-.659.856-1.073 1.602-.92.745.153 1.245.818 1.11 1.477-.136.659-.857 1.073-1.602.92-.746-.153-1.246-.818-1.11-1.477Zm89.586 17.97c.09-.44.57-.715 1.068-.613.497.102.83.545.74.984-.09.44-.571.715-1.068.613-.497-.102-.831-.545-.74-.984ZM74.235 40.275c-.852-1.132-.276-2 1.136-1.71.746.154 1.245.818 1.11 1.477-.256 1.248-1.395 1.366-2.246.233ZM44.59 30.167c.15-.732.684-1.112 1.186-.845.502.267.843.827.758 1.244-.086.417-.62.798-1.187.846-.566.047-.907-.512-.757-1.245Zm87.86 17.2c.15-.733.684-1.113 1.186-.846.502.267.843.828.758 1.245-.086.416-.62.797-1.187.845-.566.048-.907-.512-.757-1.244ZM51.877 29.859c-.852-1.132-.277-2 1.135-1.71.746.154 1.246.818 1.11 1.477-.255 1.248-1.394 1.366-2.245.233Zm71.729 13.034c-.833-1.109-.241-1.97 1.157-1.683.746.153 1.287.617 1.202 1.03-.207 1.008-1.767 1.44-2.359.653ZM43.457 22.796c.275-.435.886-.713 1.359-.616.473.097.925.593 1.006 1.102.081.508-.53.786-1.359.616-.829-.17-1.28-.666-1.006-1.102Zm7.375-.089c.09-.439.774-.673 1.52-.52.746.153 1.282.638 1.192 1.077-.09.44-.774.674-1.52.52-.746-.153-1.282-.637-1.192-1.077Zm71.032 12.851c.275-.435.886-.713 1.359-.616.473.097.925.593 1.006 1.101.081.51-.53.787-1.359.617-.829-.17-1.281-.666-1.006-1.102ZM58.556 21.795c.09-.44.774-.673 1.52-.52.746.153 1.283.638 1.192 1.077-.09.44-.774.674-1.52.52-.745-.153-1.282-.637-1.192-1.077Zm31.253 4.687c.275-.436.886-.713 1.359-.616.472.097.925.593 1.006 1.101.081.509-.53.787-1.359.616-.829-.17-1.281-.666-1.006-1.101Zm-38.165-9.135c-.592-.786.48-1.867 1.62-1.633.469.096.74.714.605 1.373-.253 1.235-1.392 1.369-2.225.26Zm37.152-.584c.135-.66.653-1.115 1.15-1.013.497.102.794.725.658 1.384-.135.66-.653 1.115-1.15 1.013-.497-.102-.793-.725-.658-1.384Zm4.305-4.273c-.833-1.108-.24-1.969 1.157-1.682.746.153 1.287.616 1.202 1.03-.207 1.007-1.767 1.439-2.358.652ZM87.14 7.525c.863-1.366 2.86-1.212 2.57.199-.143.696-.904 1.132-1.69.97-.788-.16-1.184-.687-.88-1.169Z" fill="#201B19"/></svg>