<svg xmlns="http://www.w3.org/2000/svg" width="566" height="692" fill="none"><path fill-rule="evenodd" clip-rule="evenodd" d="M564.365 685.805c-3.214 5.816-12.155 7.099-17.483 2.509-2.586-2.228-20.025-23.149-49.243-59.079a11012.83 11012.83 0 0 0-20.696-25.33 22683.346 22683.346 0 0 1-23.107-28.251 12361.975 12361.975 0 0 0-19.133-23.379 99521.87 99521.87 0 0 1-33.745-41.2s-13.347-16.052-29.15-36.017c-12.872-15.658-28.322-34.505-34.332-41.881-55.459-68.048-86.091-104.739-86.091-104.739s-22.392-28.141-82.057-101.086a82766.862 82766.862 0 0 1-35.027-42.866c-11.597-14.2-32.021-39.189-45.388-55.531C-3.254 16.28 1.141 21.859.611 16.877c-.646-6.08.39-8.329 5.818-12.641C11.515.196 16.485-.822 21.02 1.245c1.847.842 14.853 16.083 34.59 40.53 33.95 42.055 33.207 41.137 73.386 90.863a328995.848 328995.848 0 0 1 124.367 154.08c20.548 25.491 56.856 70.489 69.784 86.487 7.707 9.538 24.705 30.57 37.773 46.738 13.068 16.169 27.054 33.516 31.082 38.55 0 0 79.28 97.819 86.598 107.118 3.977 5.055 56.626 70.362 75.623 93.805 7.521 10.341 7.931 11.356 10.17 15.354 2.239 3.997 1.166 8.876-.027 11.035Zm-12.461 1.764c4.324 1.139 5.717.641 8.768-3.138 4.171-5.166 2.906-8.052-11.15-25.411a62076.597 62076.597 0 0 1-49.071-60.79 92702.708 92702.708 0 0 0-59.436-73.626 50583.142 50583.142 0 0 1-60.541-74.993 47835.821 47835.821 0 0 0-24.378-30.239 31457.948 31457.948 0 0 1-27.429-34.048 8613.777 8613.777 0 0 0-21.444-26.553c-5.422-6.676-38-47.029-72.395-89.672-34.394-42.643-65.917-81.699-70.05-86.793-4.134-5.093-16.982-21-28.549-35.349-11.569-14.348-21.296-26.061-21.615-26.027-.321.034-5.086 1.994-10.59 4.356-6.941 2.978-9.742 4.655-9.139 5.471.88 1.193 40.171 49.365 65.723 80.581a45411.868 45411.868 0 0 1 63.035 77.223c5.338 6.562 16.891 20.697 25.674 31.411 17.981 21.935 64.644 79.044 80.615 98.659 5.79 7.112 14.915 18.292 20.277 24.846a90089.622 90089.622 0 0 1 77.333 94.708c6.973 8.562 19.243 23.57 27.267 33.353 8.024 9.782 24.443 29.849 36.486 44.595 55.582 68.052 57.832 70.704 60.609 71.436Z" fill="#201B19"/><path d="M560.672 684.431c-3.051 3.779-4.444 4.277-8.768 3.138-2.777-.732-5.027-3.384-60.609-71.436a33518.522 33518.522 0 0 0-36.486-44.595 15122.204 15122.204 0 0 1-27.267-33.353 90089.622 90089.622 0 0 0-77.333-94.708 16152.563 16152.563 0 0 1-20.277-24.846c-15.971-19.615-62.634-76.724-80.615-98.659a13665.306 13665.306 0 0 1-25.674-31.411 45411.868 45411.868 0 0 0-63.035-77.223c-25.552-31.216-64.843-79.388-65.723-80.581-.603-.816 2.198-2.493 9.139-5.471 5.504-2.362 10.269-4.322 10.59-4.356.319-.034 10.046 11.679 21.615 26.027a20040.755 20040.755 0 0 0 28.549 35.349c4.133 5.094 35.656 44.15 70.05 86.793 34.395 42.643 66.973 82.996 72.395 89.672a8613.777 8613.777 0 0 1 21.444 26.553c6.372 7.926 18.715 23.247 27.429 34.048a47835.821 47835.821 0 0 1 24.378 30.239c14.037 17.436 36.693 45.5 60.541 74.993a92702.708 92702.708 0 0 1 59.436 73.626 62076.597 62076.597 0 0 0 49.071 60.79c14.056 17.359 15.321 20.245 11.15 25.411Z" fill="#FAF5E5"/></svg>