<svg xmlns="http://www.w3.org/2000/svg" width="453" height="746" fill="none"><path fill-rule="evenodd" clip-rule="evenodd" d="M450.413 741.201c-3.933 5.162-12.755 5.13-17.251-.063-2.182-2.521-16.059-25.22-39.183-64.097-3.45-5.8-10.829-18.14-16.396-27.422a21690.549 21690.549 0 0 1-18.312-30.588 12386.924 12386.924 0 0 0-15.164-25.314 98300.886 98300.886 0 0 1-26.749-44.614s-10.614-17.411-23.046-38.953c-10.212-16.962-22.461-37.373-27.22-45.356-43.914-73.648-68.296-113.463-68.296-113.463s-17.636-30.379-64.917-109.358a77072.99 77072.99 0 0 1-27.752-46.407 104844.06 104844.06 0 0 0-35.962-60.12C-2.874 13.45.58 19.466.777 14.576c.24-5.967 1.56-7.992 7.42-11.388 5.49-3.18 10.438-3.457 14.524-.815 1.666 1.077 12.066 17.655 27.661 44.088 26.826 45.47 26.24 44.477 57.993 98.245a318591.59 318591.59 0 0 1 98.266 166.59c16.231 27.557 44.917 76.206 55.135 93.505l29.853 50.539c10.328 17.484 21.377 36.237 24.553 41.674 0 0 62.699 105.807 68.448 115.834 3.124 5.451 44.712 76.051 59.735 101.408 5.797 11.063 6.049 12.102 7.644 16.284 1.595 4.181-.135 8.743-1.596 10.661Zm-12.293-.069c4.017 1.716 5.434 1.433 8.921-1.785 4.765-4.399 3.953-7.368-7.161-26.143-5.264-8.894-22.713-38.47-38.773-65.725a90845.213 90845.213 0 0 0-46.964-79.604 50448.797 50448.797 0 0 1-47.837-81.083 44037.503 44037.503 0 0 0-19.256-32.69 29396.23 29396.23 0 0 1-21.663-36.805 8507.514 8507.514 0 0 0-16.945-28.709c-4.291-7.224-30.033-50.854-57.205-96.955-27.171-46.101-52.078-88.328-55.348-93.838-3.27-5.51-13.423-22.71-22.56-38.222-9.139-15.511-16.873-28.213-17.186-28.226-.314-.013-5.198 1.204-10.853 2.703-7.132 1.89-10.077 3.113-9.61 3.987.681 1.278 31.798 53.419 52.05 87.22a44459.369 44459.369 0 0 1 49.93 83.592c4.225 7.101 13.379 22.404 20.342 34.007 14.256 23.755 51.226 85.581 63.869 106.809 4.584 7.695 11.811 19.798 16.061 26.894a88434.336 88434.336 0 0 1 61.259 102.523c5.521 9.266 15.243 25.515 21.606 36.11a33786.731 33786.731 0 0 1 28.915 48.285c44.032 73.67 45.83 76.553 48.408 77.655Z" fill="#201B19"/><path d="M447.041 739.347c-3.487 3.218-4.904 3.501-8.921 1.785-2.578-1.102-4.376-3.985-48.408-77.655a33786.731 33786.731 0 0 0-28.915-48.285 14683.312 14683.312 0 0 1-21.606-36.11 88434.336 88434.336 0 0 0-61.259-102.523c-4.25-7.096-11.477-19.199-16.061-26.894-12.643-21.228-49.613-83.054-63.869-106.809a13408.773 13408.773 0 0 1-20.342-34.007 44459.369 44459.369 0 0 0-49.93-83.592c-20.252-33.801-51.369-85.942-52.05-87.22-.467-.874 2.478-2.097 9.61-3.987 5.654-1.499 10.539-2.716 10.853-2.703.313.013 8.047 12.715 17.186 28.226 9.137 15.512 19.29 32.712 22.56 38.222 3.27 5.51 28.177 47.737 55.348 93.838 27.172 46.101 52.914 89.731 57.205 96.955a8507.514 8507.514 0 0 1 16.945 28.709 29396.23 29396.23 0 0 0 21.663 36.805c6.884 11.677 15.55 26.387 19.256 32.69a50448.797 50448.797 0 0 0 47.837 81.083c9.769 16.528 30.903 52.35 46.964 79.604a60422.865 60422.865 0 0 0 38.773 65.725c11.114 18.775 11.926 21.744 7.161 26.143Z" fill="#FAF5E5"/></svg>