<svg xmlns="http://www.w3.org/2000/svg" width="623" height="918" fill="none"><path fill-rule="evenodd" clip-rule="evenodd" d="m404.882.958 15.914-.565c24.574-.87 30.063-.463 39.553 2.945 4.505 1.617 11.982 3.964 16.616 5.216 14.927 4.033 17.528 5.453 25.559 13.955 4.444 4.706 8.674 10.35 10.815 14.431 1.933 3.687 3.287 6.704 3.01 6.704-.276 0-1.622-2.217-2.989-4.926-3.273-6.482-9.454-14.46-15.245-19.68-3.665-3.302-6.584-4.844-13.546-7.157-4.88-1.622-9.754-2.949-10.832-2.949-1.076 0-4.582-1.07-7.79-2.377-10.706-4.364-16.203-5.134-35.125-4.922l-17.515.196 7.489 2.538c9.424 3.193 18.255 7.25 18.255 8.386 0 .334.006.574-.111.686-.29.28-1.336-.228-5.097-2.027-7.111-3.4-16.166-6.862-22.876-8.746L404.882.958Zm-20.912 19.09c11.946-5.614 12.519-5.779 22.205-6.377 13.578-.84 29.112-.84 29.63 0 .234.38-7.681.884-17.589 1.12-19.867.473-23.423 1.27-37.674 8.422-3.604 1.81-11.187 5.27-16.85 7.688-5.664 2.418-11.209 4.849-12.322 5.4-5.696 2.824-38.538 30.948-36.847 31.552.443.159 4.736-1.381 9.541-3.422 10.509-4.464 19.129-7.2 29.82-9.467 4.388-.93 10.18-2.81 12.872-4.176 2.691-1.367 4.893-2.297 4.893-2.066 0 .98-14.111 8.124-14.981 7.585-1.131-.701-23.28 5.896-34.635 10.315-13.363 5.2-13.445 5.14-4.681-3.468 19.239-18.896 33.741-29.196 50.347-35.76 2.205-.87 9.526-4.177 16.271-7.346Zm-56.565 51.407c6.571-3.362 15.528-8.025 19.904-10.363 7.669-4.095 10.766-5.306 8.847-3.459-.489.471-9.947 5.54-21.017 11.262-14.309 7.398-21.053 11.42-23.33 13.92-9.008 9.883-50.646 51.642-47.901 48.043 1.755-2.303 11.866-12.881 22.467-23.506 10.601-10.626 21.482-21.674 24.179-24.552 3.882-4.144 7.388-6.504 16.851-11.345Zm2.117 6.454c0-.804 7.534-5.335 18.255-10.977 5.664-2.98 10.719-5.421 11.234-5.424.515-.003-4.119 2.657-10.298 5.91-6.178 3.253-13.024 7.05-15.212 8.438-2.188 1.387-3.979 2.312-3.979 2.053Zm133.665-11.968c-1.201.998-1.703.772-3.118-1.408-1.055-1.624-1.187-2.194-.352-1.524.733.59 2.137 1.223 3.118 1.407 1.574.297 1.616.475.352 1.525ZM322.969 85.6c.773-.847 4.764-3.457 8.871-5.8 4.106-2.343 7.582-4.26 7.723-4.26 1.152 0-.722 1.323-6.53 4.608-3.733 2.112-7.84 4.549-9.128 5.416-2.096 1.41-2.193 1.415-.936.036Zm1.454 3.154c-.291-.471 1.685-2.15 4.392-3.731 5.259-3.073 5.388-3.133 5.388-2.507 0 .225-1.668 1.348-3.706 2.496-2.039 1.148-3.492 2.438-3.228 2.864.263.427-.244.499-1.128.159-1.09-.42-1.389-.266-.93.48.373.603.467 1.097.209 1.097-.257 0-.706-.386-.997-.858Zm18.673 18.654c-.514 0-.304-.409.468-.909.773-.5 1.826-.909 2.341-.909.515 0 .304.409-.468.909-.773.5-1.826.909-2.341.909Zm2.605 1.836c-.403-.039.953-.852 3.012-1.807 3.297-1.529 4.024-1.889 4.178-1.721.055.061.035.192.035.361 0 .591-6.117 3.272-7.225 3.167Zm83.521 8.512c-1.425 0-1.92-1.984-.78-3.126.342-.345 1.08-.592 1.638-.552.565.041.497.283-.156.547-.643.261-1.17.886-1.17 1.388 0 .504.421.655.936.336.515-.319.936-.132.936.414s-.632.993-1.404.993Zm-7.999 10.815c-.492.304-.895-.527-.895-1.847 0-1.896.443-2.378 2.107-2.292 1.688.088 1.768.196.399.551-.983.255-1.497.993-1.211 1.738.272.712.093 1.545-.4 1.85Zm38.891 2.097 2.809-.716c1.544-.394 2.938-.766 3.098-.827.159-.061.029.311-.29.827-.318.516-1.712.889-3.097.828l-2.52-.112Zm-3.535 3.037c-.532 0-.203-.847.733-1.882.934-1.036 1.902-1.678 2.15-1.43.629.631-1.706 3.312-2.883 3.312Zm-41.945 8.912c-.284-.516-.566-2.626-.626-4.69l-.109-3.753.713 3.438c.393 1.89 1.403 4.489 2.243 5.775 1.425 2.179 1.42 2.322-.074 2.102-.881-.13-1.608-.618-1.616-1.084-.008-.468-.247-1.272-.531-1.788Zm1.95-4.497c0-1.224.281-2.508.624-2.851.984-.986 1.423-.73.715.417-.354.574-.214 1.313.309 1.642.606.381.48 1.039-.348 1.808-1.083 1.009-1.3.839-1.3-1.016Zm60.594 3.301c-.646-1.689-2.433-3.902-3.97-4.918-3.415-2.257-2.336-2.493 1.215-.268 1.398.876 2.598 1.615 2.666 1.642.069.027.382 1.527.694 3.333l.569 3.284-1.174-3.073Zm.747 4.299c-.287.289-1.042.001-1.678-.641-.918-.927-.81-1.034.524-.525.923.353 1.443.877 1.154 1.166Zm-55.969 3.553c-.297.298-1.009-.336-1.581-1.408-.98-1.835-.901-1.886 1.328-.868 1.304.595 2.37 1.455 2.37 1.91 0 .456.527.761 1.17.676 2.201-.286 3.511.071 3.511.955 0 1.074-3.487.498-5.097-.841-.638-.531-1.404-.722-1.701-.424Zm-15.202 11.506c-1.03 0-2.715-.362-3.744-.806l-1.873-.806h1.873c1.029 0 2.714.363 3.744.806l1.872.806h-1.872Zm-19.603 15.906c-.79-1.903-1.717-6.492-2.061-10.196-.595-6.418-.54-6.693 1.158-5.814.981.508 4.311 1.149 7.4 1.424 12.883 1.15 23.519 8.345 28.753 19.452 3.9 8.277 4.065 10.163.991 11.366-4.207 1.648-15.294.391-21.61-2.45-6.302-2.834-12.514-8.686-14.631-13.782Zm5.169-7.846c-.556.344-1.012.179-1.012-.367 0-1.64 7.072-1.123 12.507.914 8.445 3.167 14.845 9.868 18.418 19.287l.899 2.368-6.634-.451c-3.65-.249-6.816-.632-7.037-.853-.22-.221.237-1.626 1.015-3.121 1.774-3.41 1.775-4.483.007-7.911-2.785-5.398-10.342-7.018-14.623-3.136-1.541 1.398-1.704 1.316-2.358-1.184-.386-1.477-.582-3.47-.436-4.429.162-1.056-.133-1.497-.746-1.117Zm34.505 11.881c-.921-2.062-3.445-5.673-5.609-8.025-4.683-5.092-4.092-5.566 1.238-.995 2.106 1.806 4.174 3.284 4.596 3.284.422 0 .797 1.161.833 2.58.059 2.286.157 2.366.871.703.983-2.295 1.142-.798.34 3.217l-.595 2.983-1.674-3.747Zm-28.027-1.627c-2.264-.494-2.281-.553-.523-1.84.998-.733 2.731-1.331 3.85-1.331 2.401 0 6.97 4.27 6.97 6.515 0 1.887-2.735 5.807-2.779 3.984-.017-.676-.408-.995-.87-.709-.461.286-.778-.834-.702-2.489.107-2.343-.278-3.079-1.734-3.317-1.03-.168-2.925-.534-4.212-.813Zm30.995 6.562c-.057-1.097.179-3.412.526-5.145.345-1.733.765-2.736.931-2.228.167.508-.07 2.823-.526 5.145-.456 2.322-.875 3.325-.931 2.228Zm-96.609-2.926c.21-.126-.381-1.075-1.316-2.111-1.479-1.637-1.505-1.882-.206-1.882 1.957 0 2.168.421 3.536 7.061 1.102 5.346 1.039 5.887-1.234 10.646-2.061 4.316-2.519 4.771-3.291 3.269-1.084-2.106-.508-4.042 1.805-6.075 2.757-2.424 2.113-6.978-.682-4.816-.5.388-.163.003.749-.853 2.183-2.052 2.105-2.277-.758-2.151-1.792.078-3.154 1.243-5.277 4.514-1.574 2.425-3.067 4.204-3.318 3.952-.702-.704 5.625-9.121 7.735-10.288a178.82 178.82 0 0 0 2.257-1.266Zm102.768 2.34c-.235.902-.428.164-.428-1.642 0-1.806.193-2.544.428-1.642.235.903.235 2.381 0 3.284Zm2.288-1.028c-.88 1.517-1.008 1.39-1.033-1.036-.021-2.018.252-2.487 1.005-1.732.741.742.748 1.525.028 2.768Zm-6.029 1.948c-.238.913-.448.393-.466-1.155-.019-1.548.175-2.294.431-1.659.257.635.273 1.901.035 2.814Zm-18.394 8.782c4.312-.092 8.033-.36 8.268-.596.856-.858 1.802-.392 2.405 1.185.34.887.321 1.316-.041.953-.362-.364-1.182.056-1.821.931-1.028 1.408-1.355 1.434-2.846.22-.927-.755-1.388-.875-1.024-.267.692 1.158-2.798 2.804-3.805 1.795-.304-.305-.038-.555.593-.555s.875-.442.542-.984c-.415-.671-1.025-.636-1.928.116-.726.604-1.321.784-1.321.399 0-.384-.712-.119-1.584.59-.958.778-1.317.841-.908.158.416-.693-.295-1.637-1.848-2.452-2.37-1.245-2.048-1.335 5.318-1.493Zm-91.799 21.939c-3.503-5.102-4.195-8.368-2.84-13.409 1.518-5.651 2.154-4.833 1.507 1.938-.54 5.655-.508 5.772.892 3.284.799-1.419 1.965-2.61 2.592-2.646.628-.037.298-.429-.732-.873-1.377-.592-1.48-.823-.39-.872 2.304-.102 2.87 1.039 1.351 2.722-.761.843-1.523 2.449-1.695 3.57-.17 1.12-.576 2.305-.903 2.632-.682.684 1.264 4.144 2.331 4.144.39 0 .711-.633.711-1.407s.421-1.407.936-1.407c.515 0 .936-.494.936-1.099 0-.604.713-1.889 1.586-2.854 1.5-1.663 1.488-1.725-.234-1.159-1.356.446-1.491.363-.53-.324.709-.506 1.001-1.391.647-1.964-1.344-2.179.433-.932 1.925 1.351 1.486 2.273 1.467 2.529-.381 5.034-1.071 1.451-2.579 4.701-3.351 7.222-.858 2.803-1.43 3.736-1.469 2.405-.036-1.197-1.336-4.026-2.889-6.288Zm96.464 8.031c-1.558-.987-.747-1.468 3.719-2.207 3.89-.644 4.177-.64 5.175.075.529.379 1.78 2.589 2.782 4.911 1.001 2.322 2.253 4.532 2.782 4.911.53.379.676.695.326.704-.35.007-.273 1.289.174 2.846.497 1.738.472 2.623-.066 2.29-.482-.298-.876-1.15-.876-1.894s-.396-1.352-.881-1.352c-1.584 0-2.035 1.798-.958 3.814.58 1.086.822 2.209.537 2.494-.285.287-.962-.653-1.506-2.087-.781-2.057-.685-2.944.455-4.206 1.301-1.442 1.297-1.95-.043-5.165-1.971-4.726-3.485-6.11-6.665-6.093-2.049.011-2.326.218-1.236.924 1.162.753 1.082.909-.469.909-1.029 0-2.492-.393-3.25-.874Zm17.527 2.816a211.563 211.563 0 0 0-3.511-2.82c-1.287-1.015-1.813-1.859-1.17-1.877.644-.017 1.17.324 1.17.756 0 .434 1.053 1.27 2.34 1.857 1.288.588 2.341 1.517 2.341 2.064 0 .691-.358.697-1.17.02Zm-59.163.321c-.799-.307-1.453-.725-1.453-.927 0-.76 1.785-.333 2.334.559.328.531-.048.688-.881.368Zm41.467.58c-.497 0-.584-.518-.194-1.151.452-.733 1.643.885 3.278 4.456 3.443 7.52 4.586 10.768 3.789 10.768-.364 0-1.679-2.842-2.922-6.315-2.319-6.479-3.758-6.903-2.021-.596.534 1.937.8 3.694.59 3.904-.699.699-2.531-7.561-2.07-9.327.25-.956.047-1.739-.45-1.739Zm6.21 6.098c-1.273-3.096-2.282-5.84-2.244-6.098.149-1.007 4.578 8.996 4.568 10.32-.006.774-1.052-1.126-2.324-4.222Zm10.753.91c-.593-1.532-1.23-3.841-1.416-5.131-.186-1.29-.144-1.912.094-1.383.238.529 2.219.83 4.403.669 3.584-.265 3.778-.176 1.989.913-1.419.864-1.797 1.727-1.328 3.033.604 1.686.708 1.65 1.343-.469.389-1.298.895-1.796 1.163-1.146.262.632-.173 2.077-.966 3.211-.645.924-.99 1.484-1.287 1.46-.409-.033-.728-1.174-1.618-4.002-.253-.807-.881-1.207-1.395-.889-.6.372-.476 1.68.349 3.657 1.163 2.791 1.12 3.181-.464 4.172-2.361 1.478-3.476 1.393-1.428-.108 1.39-1.018 1.475-1.622.561-3.987Zm-127.178 11.897c-.52-.822.544-4.181 3.026-9.568 3.983-8.64 5.91-11.166 2.393-3.137-1.105 2.524-2.131 5.433-2.278 6.465-.147 1.032-.588 2.684-.981 3.672-.497 1.253-.384 1.592.372 1.124.72-.446.887-.157.496.863-.47 1.228-.745 1.285-1.379.284-.634-1.005-.796-.974-.82.155-.023 1.142-.18 1.169-.829.142Zm69.996-13.801c-1.486-.769-2.701-2.022-2.701-2.783 0-.761.422-1.383.936-1.383.515 0 .937.399.937.885 0 1.226 16.638 10.551 26.24 14.707 4.361 1.888 9.825 4.722 12.142 6.298 4.5 3.062 18.959 17.588 18.233 18.316-.24.24-1.175-.164-2.079-.898-.905-.733-3.119-2.138-4.921-3.122-3.619-1.975-9.176-5.634-31.234-20.566-8.169-5.531-16.068-10.684-17.553-11.454Zm49.255-.413c-.735-1.29-1.337-2.768-1.337-3.284 0-.515.602.118 1.337 1.408.736 1.29 1.338 2.767 1.338 3.283s-.602-.117-1.338-1.407Zm-103.329 8.138c-1.104 1.902-1.37 1.293-.467-1.065.321-.839.781-1.328 1.022-1.086.241.241-.009 1.21-.555 2.151Zm-6.089 6.555c-1.695 3.137-1.995 2.4-.427-1.049.599-1.317 1.264-2.218 1.478-2.004.214.215-.259 1.588-1.051 3.053Zm84.376-.537c-1.93-1.163-3.51-2.268-3.51-2.458 0-.461 5.985 2.063 11.387 4.801 4.184 2.121 16.225 12.431 15.44 13.219-.65.65-7.367-3.568-13.721-8.616-3.347-2.659-7.664-5.785-9.596-6.946Zm-89.521.55c-1.104 1.901-1.37 1.292-.466-1.066.32-.839.781-1.328 1.021-1.086.242.241-.008 1.21-.555 2.152Zm1.874 1.493c-.925.919-1.032.812-.524-.525.352-.925.875-1.446 1.163-1.157.289.288.001 1.045-.639 1.682Zm85.173 18.92c-.671.415-1.036-.369-1.036-2.228 0-2.404.365-2.87 2.245-2.87 3.02 0 9.512 3.873 9.434 5.629-.034.774-.57 1.301-1.19 1.172-.62-.128-1.134.294-1.142.939-.01.781-.317.703-.922-.235-.807-1.25-.911-1.25-.936 0-.025 1.251-.129 1.251-.936 0-.754-1.169-.917-1.09-.964.469-.044 1.473-.341 1.271-1.38-.938-1.221-2.595-1.3-2.632-1.031-.469.161 1.29.101 1.756-.133 1.037-.365-1.121-.557-1.121-1.329 0-.638.924-.717.653-.273-.92.428-1.516.298-2.023-.407-1.586Zm1.789-2.311c-.509.826-.834.753-1.226-.271-.654-1.71 1.955-1.529 3.027.21.316.513.753.929 1.085 1.063l-.103 1.371c-.109 1.478-.346 1.307-1.115-.81-.634-1.747-1.217-2.294-1.668-1.563ZM404.78 267l-.027.003a.486.486 0 0 1-.245-.043l.038-.506.234.546Zm0 0c2.373-.314 3.376.154 3.364 1.565-.012 1.404-.147 1.437-.922.235-.807-1.251-.916-1.251-.987 0-.055.947-.343.794-.885-.469l-.57-1.331Zm63.87 37.132c-1.695 3.137-1.995 2.4-.427-1.049.599-1.317 1.264-2.218 1.478-2.004.214.215-.259 1.588-1.051 3.053Zm-1.872 10.32c-1.696 3.136-1.995 2.4-.427-1.05.599-1.316 1.264-2.218 1.478-2.004.214.215-.259 1.589-1.051 3.054Zm6.325 9.425c-.181-.182.587-2.508 1.709-5.168 1.121-2.659 2.199-4.675 2.395-4.479.196.197-.573 2.521-1.709 5.167-1.136 2.646-2.213 4.662-2.395 4.48Zm-306.235-5.235c-1.485 1.166-1.518 1.133-.354-.355.707-.902 1.444-1.642 1.638-1.642.77 0 .275.771-1.284 1.997Zm297.573 1.451c-1.103 1.902-1.369 1.293-.466-1.066.32-.838.781-1.327 1.021-1.085.242.241-.008 1.209-.555 2.151Zm2.889 11.613c-.151-.416.774-3.13 2.055-6.032 3.2-7.252 3.732-6.668.69.755-1.359 3.318-2.594 5.691-2.745 5.277Zm-5.725-4.643c-2.225 5.023-2.549 4.235-.437-1.056.836-2.096 1.687-3.644 1.891-3.439.205.204-.451 2.227-1.454 4.495Zm0 6.567c-2.225 5.023-2.549 4.235-.437-1.056.836-2.096 1.687-3.644 1.891-3.439.205.204-.451 2.227-1.454 4.495Zm-.834 7.505c-.158-.474.346-2.378 1.119-4.232 2.001-4.799 2.495-4.179.686.861-.835 2.329-1.647 3.846-1.805 3.371Zm-37.634 16.789c-1.03-.553-1.873-1.16-1.873-1.353 0-.191.843-.126 1.873.143 1.029.27 1.872.879 1.872 1.353 0 .475-.838.411-1.872-.143Zm-9.87 16.69c-.279-.28.22-2.039 1.109-3.909 1.669-3.506 2.402-4.27 2.137-2.227-.322 2.487.113 3.603 1.152 2.96.593-.369.87-.288.612.178-.257.468-.749 1.636-1.092 2.597-.51 1.428-.878 1.536-2.017.588-.766-.637-1.393-.825-1.393-.418s-.228.511-.508.231Zm11.02 4.653a67.959 67.959 0 0 0 2.538-4.328l1.171-2.216 1.644 2.685c1.917 3.131 1.458 5.374-.971 4.738-.934-.245-1.925.038-2.202.628-.278.59-.295.017-.04-1.272.46-2.326.455-2.328-.62-.235-.596 1.16-1.49 2.111-1.985 2.111-.495 0-.286-.951.465-2.111Zm3.5-.753c-.403-.653-.498-1.8-.211-2.548.438-1.147.653-1.121 1.368.156 1.047 1.876-.062 4.168-1.157 2.392Zm-44.865 46.974c.076-2.763 3.28-7.456 6.975-10.216 2.056-1.535 3.918-2.612 4.139-2.391.654.656-3.811 5.005-5.783 5.632-1.432.456-1.708 1.152-1.289 3.253.759 3.802-1.061 8.548-3.144 8.202-.912-.152-2.579.78-3.702 2.07-1.604 1.842-1.527 1.542.36-1.39 1.322-2.055 2.422-4.377 2.444-5.16Zm57.868-1.205c-.184.453-1.535-.572-3.001-2.278-1.467-1.705-2.277-3.101-1.802-3.101 1.259 0 5.197 4.411 4.803 5.379Zm-56.503 3.69c-.674 0-1.01-.563-.747-1.252.264-.687.6-1.25.747-1.25.147 0 .483.563.747 1.25.263.689-.073 1.252-.747 1.252Zm8.425 8.714c-1.916.087-.852-3.23 1.404-4.373 2.849-1.444 3.077-1.471 2.341-.276-.319.516-1.213.938-1.987.938-.872 0-1.296.697-1.115 1.834.161 1.009-.128 1.853-.643 1.877Zm-16.229 3.23c-.386.239-.762-.38-.837-1.377-.162-2.155.279-2.344 1.01-.434.29.757.213 1.572-.173 1.811Zm-.616 5.3c.27-1.781 1.401-4.208 2.513-5.394 2.726-2.909 3.152-2.719.955.424-.991 1.419-2.287 3.846-2.881 5.394l-1.079 2.815.492-3.239Zm64.716-.352c-.352-.107-.461-1.009-.863-3.625-.407-2.639-.238-3.349.706-2.986 1.628.627 2.498 5.321 1.141 6.161-.485.301-.776.513-.984.45Zm-37.307.803c-.367-.409-.217-1.589.336-2.623 1.576-2.952 2.577-.202 1.566 4.305-1.127 5.03-1.487 5.283-3.571 2.516-1.819-2.417-.91-5.315 1.274-4.064.585.335.763.274.395-.134Zm-39.602 17.094c2.368-3.224 5.424-8.068 6.791-10.762 1.366-2.694 2.641-4.741 2.833-4.549 1.035 1.037-11.713 21.175-13.404 21.175-.289 0 1.412-2.638 3.78-5.864Zm38.868-13.368c-.515-.319-.937-1.002-.937-1.518s.422-.678.937-.359c.514.319.936 1.002.936 1.518s-.422.678-.936.359Zm-.759 4.221c-.576 0-1.499-.844-2.05-1.876-.551-1.032-.841-1.876-.646-1.876.196 0 1.119.844 2.05 1.876.932 1.032 1.223 1.876.646 1.876Zm114.394 254.189c-.594.595-4.07-3.788-4.053-5.11.008-.516 1.033.312 2.279 1.84 1.246 1.527 2.044 2.999 1.774 3.27Zm16.636 45.642c-1.163-.721-1.469-3.615-.486-4.6.33-.33 1.03-.333 1.557-.007.527.327 2.259.905 3.849 1.286 2.217.532 2.4.714.783.789-1.158.052-2.106.517-2.106 1.033a.94.94 0 0 1-.936.938c-.515 0-.937-.633-.937-1.407s-.381-1.407-.848-1.407c-.467 0-.611.91-.321 2.023.363 1.386.188 1.812-.555 1.352Zm-229.035 8.003c-1.029-.507-2.714-1.608-3.744-2.449l-1.872-1.527 1.872.921c1.03.507 2.715 1.608 3.744 2.449l1.873 1.527-1.873-.921Zm249.707 4.111c2.44-.86 4.677-1.953 4.97-2.429.293-.475.824-.851 1.18-.834.355.016-.512 1.051-1.928 2.3-2.682 2.366-3.422 3.846-1.404 2.807.644-.331-1.654 2.155-5.106 5.525-4.766 4.652-7.417 6.466-11.02 7.538-4.467 1.33-4.932 1.302-7.907-.457-2.972-1.757-3.13-2.104-2.646-5.819.283-2.172 1.075-5.638 1.76-7.702l1.245-3.753-.421 3.284a6496.57 6496.57 0 0 1-.615 4.801l-.379 2.938c-.72 5.581.972 6.015 1.827.469.338-2.192 1.06-5.37 1.605-7.062l.991-3.075 3.235 2.004c1.912 1.185 4.165 1.826 5.507 1.569 1.264-.242 2.033-.049 1.734.436-.303.492.219.47 1.198-.052.955-.508 3.734-1.628 6.174-2.488Zm-19.379 14.591c-.298-.483-.051-3.861.55-7.505.601-3.645 1.221-6.626 1.378-6.626.159 0 1.361.489 2.672 1.089 2.662 1.215 2.751 2.043.942 8.761l-1.263 4.691.419-6.098c.467-6.761-.753-5.373-1.854 2.111-.622 4.23-1.647 5.519-2.844 3.577Zm-233.604-9.862c0 .42-5.512-2.117-6.475-2.981-.215-.193-.088-.35.28-.35 1.005 0 6.195 2.791 6.195 3.331Zm248.377 4.643-.15-3.518c-.154-3.619.303-4.093 2.562-2.661.852.542 1.051 1.434.573 2.566-.658 1.558-.803 1.496-1.408-.609-.633-2.202-.701-2.146-1.126.938l-.451 3.284Zm-6.355 4.036c-1.094 1.096-1.36-.629-.812-5.264.317-2.678.997-4.87 1.512-4.87.936 0 .306 9.125-.7 10.134Zm4.751-6.176c-.97 4.861-2.44 5.415-2.44.92 0-3.011.359-3.94 1.521-3.94 1.215 0 1.4.61.919 3.02Zm-252.568 20.434c-.257 0-1.231-.844-2.162-1.876-.932-1.032-1.484-1.877-1.227-1.877.258 0 1.231.845 2.163 1.877.931 1.032 1.484 1.876 1.226 1.876Zm253.405 13.145c1.029-1.184 3.978-3.144 6.553-4.356 2.574-1.213 4.891-2.195 5.148-2.183.971.043-3.214 2.776-4.251 2.776-.596 0-2.938 1.331-5.204 2.958-3.133 2.251-3.67 2.443-2.246.805Zm-17.319 18.269c1.802-2.219 5.383-6.335 7.957-9.148 2.575-2.813 4.858-4.961 5.075-4.774.216.187-.458 1.289-1.498 2.447-1.041 1.159-3.305 4.218-5.033 6.798-3.056 4.562-17.88 20.171-19.156 20.171-.35 0 1.617-2.579 4.371-5.73 2.754-3.151 6.482-7.544 8.284-9.764Zm-22.287-4.133c-.196-.592.156-1.695.782-2.452 1.698-2.05 1.941-1.672.691 1.076-.613 1.349-1.275 1.968-1.473 1.376Zm48.362-1.398c-.96.595-1.074-.902-.141-1.838.361-.362 1.666.939 2.899 2.893 2.07 3.281 2.307 2.552.674-2.077-.364-1.032.261-.504 1.39 1.173 2.428 3.608 2.776 3.757 2.19.938-.417-2.001-.365-1.989.99.234 1.245 2.041 1.435 2.109 1.464.525.032-1.803.046-1.803 1.438 0 1.173 1.518 1.312 1.548.836.179-.791-2.277.277-2.061 1.544.311.925 1.732.796 1.933-1.137 1.773-5.031-.417-7.371.154-9.543 2.331-1.821 1.825-2.407 2.02-2.822.938-.287-.751-.28-1.999.016-2.773.301-.783.026-1.407-.62-1.407-.797 0-.996 1.005-.636 3.225.353 2.179.089 3.586-.814 4.337-.953.793-1.336.809-1.336.057 0-.579.337-1.052.748-1.052.412 0 .61-1.373.439-3.049-.169-1.677.13-3.682.664-4.456.828-1.199 1.245-1.061 2.816.938 2.087 2.653 2.396 2.147.814-1.334-.591-1.298-1.434-2.138-1.873-1.866Zm22.37 2.382c-.9-.709-1.638-1.448-1.638-1.642 0-.772.769-.276 1.992 1.287 1.164 1.488 1.131 1.521-.354.355Zm-109.762 24.05c-6.327-4.175-6.356-6.632-.128-10.802 2.504-1.676 5.064-3.049 5.69-3.049 1.935 0 9.777 5.657 11.813 8.522l1.931 2.718-2.424 2.252c-3.22 2.991-7.461 4.673-10.077 3.997-1.169-.302-4.231-1.939-6.805-3.638Zm93.974-6.103c.606-1.157 2.668-2.933 4.584-3.946 1.914-1.014 3.817-1.861 4.228-1.884.881-.049-4.949 8.72-6.115 9.197-.437.179-.251.999.414 1.821.689.853.752 1.222.145.858-.585-.352-1.553-.048-2.151.674-1.675 2.022.399 2.625 2.193.638.863-.956 1.501-2.107 1.419-2.558-.401-2.195.406-2.705 4.427-2.79l4.354-.094-3.252 1.672c-1.788.919-3.853 2.402-4.588 3.296-1.227 1.489-1.168 1.533.707.532 2.904-1.55 3.355-1.355 1.466.634-1.208 1.273-1.973 1.465-2.916.734-.96-.746-1.753-.417-3.198 1.323-1.056 1.274-1.672 1.628-1.369.788.302-.841.077-2.001-.5-2.58-.578-.579-.704-1.052-.281-1.052.424 0 .292-.577-.292-1.283-.808-.976-.724-1.565.354-2.461.778-.647 1.422-.808 1.429-.358.024 1.354 1.828-1.89 1.844-3.315.011-.983-.496-.864-1.995.47-1.996 1.776-2.001 1.775-.907-.316Zm.028 5.806a1.05 1.05 0 0 1-.339-1.438 1.045 1.045 0 0 1 1.435-.339c.487.302.64.948.339 1.437a1.045 1.045 0 0 1-1.435.34Zm-81.333 3.788c2.048-.926 4.194-2.251 4.769-2.945 1.521-1.836 2.594-1.547 2.429.651-.204 2.71-2.746 4.703-6.61 5.183-4.682.582-4.985-.902-.588-2.889Zm42.797-.014c4.684 4.347 5.313 3.452.936-1.334l-3.042-3.329 3.321 3.049c3.945 3.622 4.267 3.676 5.591.938.918-1.898.888-1.946-.298-.477-1.246 1.543-1.412 1.53-3.005-.235-.959-1.062-1.221-1.868-.606-1.868.595 0 1.082.423 1.082.939s.446.938.991.938c.545 0 .754-.385.463-.856-.29-.471.212-.732 1.115-.579.904.152 1.552.705 1.441 1.228-.113.534.71.727 1.872.441 2.55-.628 2.109-.097-2.544 3.068l-3.634 2.471-3.831-4.043-3.831-4.045 3.979 3.694Zm-41.424 2.664 1.783-2.022c.981-1.111 2.139-2.021 2.575-2.021 1.373 0 .871.671-1.784 2.383l-2.574 1.66Zm-13.106 5.815c-2.472.507-2.36.354.936-1.282 3.013-1.494 3.988-1.984 4.108-1.826.059.079-.094.319-.314.675-.291.472 0 1.062.647 1.312.647.249.333.474-.696.498-1.03.025-3.136.305-4.681.623Zm87.295-.102c.644.37 1.17.227 1.17-.319 0-1.595.785-1.155 1.993 1.117.951 1.789.921 1.945-.201 1.018-.728-.602-1.675-1.094-2.104-1.095-.429-.001-1.061-.315-1.404-.699-.343-.384-.097-.394.546-.022Zm-61.544 5.726c-1.483-.768-2.943-1.797-3.244-2.284-.302-.489.274-.827 1.279-.751 1.006.076 1.621.474 1.368.885-.538.872 2.43.529 4.018-.465 1.188-.743 1.19.939.003 2.843-.573.918-1.307.87-3.424-.228Zm88.514 6.095c-.481 0-1.567-2.96-2.064-5.629-.422-2.264-.39-2.28.936-.479.756 1.026 1.136 2.252.845 2.724-.291.473-.043.558.55.19.601-.372 1.114-.123 1.155.559.057.952.181.962.548.05.261-.649.83-.958 1.266-.689.435.269 1.096-.004 1.468-.608.424-.686.273-.847-.402-.429-.606.375-1.088.129-1.095-.559-.012-.931-.189-.954-.735-.093-.511.807-1.094.535-2.008-.938-1.177-1.894-1.155-1.962.266-.786.855.708 1.555 1.01 1.555.671 0-.339.826-.174 1.837.369 2.262 1.213 1.637 3.166-1.465 4.582-1.283.586-2.479 1.065-2.657 1.065Zm-99.304 2.482c-1.656.637-7.004-1.37-7.004-2.629 0-.471.843-.405 1.872.147 1.03.553 1.873.764 1.873.469 0-.294.948-.029 2.106.59 1.919 1.025 1.991.985.804-.457-1.137-1.381-1.107-1.508.234-.992 1.926.741 1.983 2.154.115 2.872Zm40.339.855c-2.308 1.708-2.873 1.135-1.326-1.346.836-1.343 1.508-1.641 2.171-.966.658.671.393 1.397-.845 2.312Zm49.835-.967c-.288.289-.811-.232-1.163-1.157-.508-1.337-.401-1.445.524-.525.64.637.927 1.394.639 1.682Zm-25.508 34.218c-.227 0-.673-.422-.991-.938-.319-.516-.132-.938.413-.938.544 0 .991.422.991.938s-.185.938-.413.938Z" fill="#201B19"/><path fill-rule="evenodd" clip-rule="evenodd" d="M516.831 44.609c-.044.273 1.172 3.44 2.703 7.036 1.531 3.597 2.794 7.61 2.808 8.917.014 1.307-1.464 4.684-3.285 7.505-1.82 2.82-4.162 8.084-5.204 11.695-1.041 3.612-2.224 7.2-2.628 7.975-1.034 1.982-6.021 5.236-10.867 7.09l-4.114 1.574-3.878-3.325c-2.132-1.83-6.179-4.517-8.993-5.974-5.676-2.939-5.41-1.812-3.181-13.438.643-3.353 1.818-7.454 2.611-9.113 1.304-2.727 1.3-3.233-.043-5.287-2.294-3.508-8.833-6.239-14.94-6.239-6.755 0-10.324 1.531-9.706 4.164.274 1.168-1.322 5.45-4.028 10.805l-4.482 8.871-8.319-.256c-18.988-.585-39.797 5.733-61.927 18.806-7.674 4.533-12.231 8.117-19.398 15.258l-9.368 9.331-7.96 2.068c-10.409 2.702-21.893 4.005-37.394 4.241-6.92.105-15.195.741-18.388 1.411-8.898 1.869-29.306 9.214-28.327 10.195.239.24 4.763-1.216 10.051-3.237 14.239-5.439 19.525-6.462 36.609-7.089 16.429-.603 31.958-2.378 40.023-4.575 5.26-1.433 5.263-1.424 1.62 3.652-3.657 5.096-21.797 43.946-23.874 51.129-1.117 3.87-2.682 8.303-3.476 9.851-2.783 5.422-5.752 13.685-6.834 19.015-.601 2.957-2.385 7.699-3.967 10.536-6.15 11.042-12.522 21.379-16.918 27.441l-4.591 6.333h-8.188c-8.767 0-23.26 2.161-26.984 4.024-2.676 1.338-4.824 6.546-8.209 19.899-3.453 13.621-7.044 24.861-7.941 24.861-.429 0-3.207-.634-6.171-1.407-2.966-.774-8.374-1.408-12.02-1.408-18.553 0-34.735 9.516-59.913 35.231-7.723 7.888-16.78 17.976-20.127 22.416l-6.085 8.074-5.862-.521c-8.657-.77-9.428-.204-21.962 16.167-6.034 7.881-18.39 26.945-28.74 44.345-6.751 11.348-12.882 20.644-15.626 23.692-1.743 1.936-3.17 3.945-3.17 4.464 0 1.019-6.19 15.668-11.596 27.439-1.839 4.005-4.206 9.916-5.26 13.134-1.055 3.22-5.23 12.398-9.28 20.396-8.346 16.484-13.37 28.323-14.932 35.18-2.114 9.285-4.803 30.33-5.907 46.217-1.22 17.547.025 52.191 2.088 58.121 1.094 3.143 1.79 3.54 7.91 4.515 11.226 1.788 34.76 11.273 58.608 23.621l15.547 8.049-1.227 6.199c-1.234 6.237-6.243 20.48-9.296 26.441-.906 1.765-5.1 6.855-9.323 11.313-15.1 15.938-28.602 34.515-40.473 55.691-5.242 9.351-23.565 46.428-30.315 61.344L0 854.466v62.528s45.18.702 122.71.81l140.964.196 1.523-8.209c.838-4.514 1.799-10.319 2.136-12.899.338-2.58 1.174-7.224 1.86-10.32.684-3.096 2.321-13.228 3.637-22.516 2.514-17.734 6.8-41.242 10.056-55.154 2.166-9.254 1.119-8.96 9.632-2.718 2.332 1.709 4.239 2.903 4.239 2.655 0-.249-2.697-2.438-5.994-4.864l-5.994-4.41 1.791-6.219c.985-3.42 2.614-10.44 3.62-15.599 1.005-5.16 2.013-10.237 2.236-11.282.606-2.821 5.445-18.681 5.83-19.104.182-.201 2.691 1.065 5.575 2.814 4.893 2.968 5.203 3.367 4.652 5.994-.324 1.548-1.207 6.614-1.962 11.258-.755 4.644-1.969 10.554-2.697 13.134-3.263 11.558-9.966 54.752-12.229 78.805-.826 8.771-2.079 19.748-2.788 24.392-1.731 11.361-4.212 30.569-4.21 32.6 0 1.546 3.402 1.642 58.332 1.642h58.332l-3.079-6.333c-5.884-12.098-9.96-28.117-7.813-30.708 1.018-1.23 1.485-1.168 3.827.503 3.956 2.823 15.409 7.357 22.866 9.051 3.865.879 11.065 1.511 17.552 1.54l11 .049v2.63c0 1.446.421 2.629.936 2.629.515 0 .936-1.478.936-3.284 0-2.39.41-3.283 1.505-3.283.987 0 1.309.51.936 1.484-.313.816-.568 2.851-.568 4.522v3.038l-11.936.204c-12.862.219-24.298-1.423-31.521-4.526-2.263-.972-4.315-1.567-4.559-1.322-1.486 1.488 6.045 20.272 9.169 22.871 2.669 2.218 2.47.241-.454-4.521-3.193-5.2-7.855-16.085-7.18-16.762.236-.236 2.049.397 4.029 1.404 7.111 3.619 16.935 5.061 32.116 4.716 14.074-.32 14.081-.319 14.081 1.791-.001 1.161.421 2.111.935 2.111.515 0 .937-1.055.937-2.345 0-1.29.421-2.346.936-2.346.521 0 .936 2.52.936 5.684 0 3.551.351 5.467.936 5.105.515-.319.936-2.665.936-5.215s.316-4.636.702-4.636c.387 0 .553 3.589.372 7.975-.223 5.386.006 7.974.702 7.974.672 0 1.033-2.804 1.033-8.03 0-4.924.349-7.813.904-7.469.538.334.671 3.578.329 8.029-.398 5.173-.257 7.47.459 7.47.63 0 1.16-2.66 1.357-6.802l.324-6.801.185 6.801.186 6.802h36.636l-.651-2.111c-.359-1.16-1.392-3.588-2.298-5.394-1.935-3.86-7.475-22.068-7.475-24.568 0-1.563.35-1.503 3.772.662 5.454 3.45 8.366 3.779 13.115 1.479 2.233-1.08 4.362-1.965 4.733-1.965.37 0 2.409 2.078 4.53 4.618l3.858 4.616-1.898 10.79c-1.044 5.934-1.898 11.032-1.898 11.331 0 .298 8.584.542 19.076.542h19.076l1.904-4.456c3.366-7.878 10.362-29.588 11.669-36.213l1.266-6.425 1.708 3.795c.939 2.086 2.707 4.734 3.929 5.885 1.221 1.15 2.221 2.587 2.221 3.192s2.683 4.252 5.963 8.104c5.404 6.347 11.848 11.861 17.245 14.755 3.179 1.706 12.442 1.939 15.482.391 2.928-1.491 6.409-8.13 5.514-10.516-2.112-5.632-8.641-15.774-14.249-22.136-3.638-4.128-8.551-10.882-10.915-15.01-2.365-4.128-5.153-8.736-6.194-10.238-1.041-1.502-2.04-3.993-2.219-5.535-.178-1.54-1.38-4.691-2.668-7.001-1.288-2.31-2.342-5.381-2.342-6.825 0-1.443-.465-4.662-1.034-7.152-1.149-5.023-1.083-5.333 5.649-27.044 4.193-13.517 5.39-19.617 6.163-31.428.288-4.386 1.034-14.095 1.66-21.577 1.746-20.897 1.391-25.73-2.974-40.503-2.084-7.056-6.157-19.299-9.051-27.206-2.895-7.909-7.547-20.619-10.34-28.245-5.496-15.011-5.597-15.52-4.605-23.191.759-5.861-.997-11.386-9.788-30.814-2.649-5.853-7.778-19.362-11.398-30.021-7.498-22.074-13.204-34.911-18.676-42.019-3.868-5.025-5.391-9.882-6.872-21.92-2.946-23.937-4.855-33.732-9.873-50.66-4.173-14.073-10.68-24.725-27.954-45.761-5.626-6.851-10.733-13.675-11.349-15.165-.661-1.598-2.333-3.191-4.082-3.888-1.629-.65-3.077-1.259-3.218-1.354-.141-.096 1.359-2.873 3.334-6.171 4.694-7.837 14.241-28.084 14.241-30.202 0-2.665-2.362-7.48-5.103-10.405l-2.542-2.713 6.293-13.236c22.903-48.167 35.333-87.888 40.254-128.628 1.96-16.22 1.403-45.38-1.038-54.379-3.207-11.825-11.478-26.328-19.487-34.173l-4.204-4.117 6.296-3.024c7.046-3.385 8.942-5.628 9.927-11.746.373-2.31 1.75-6.1 3.061-8.422 7.015-12.426 7.228-14.364 2.628-23.923-1.737-3.612-3.196-6.344-3.24-6.071ZM458.71 56.956c0-.528 1.158-1.384 2.575-1.903 3.427-1.254 8.344-1.297 12.608-.11 4.123 1.147 9.157 5.135 9.157 7.254 0 1.196-.389 1.084-1.908-.551-3.623-3.896-9.209-6.053-14.404-5.563-2.613.247-5.489.761-6.39 1.141-.942.399-1.638.285-1.638-.268Zm3.384 1.14c.681.263 1.486.072 1.79-.421 1.401-2.27 11.107-.166 14.723 3.193 2.942 2.733 2.517 6.804-.872 8.352-2.067.944-2.634.602-6.663-4.023-2.423-2.78-4.319-5.33-4.214-5.669.159-.513-2.048-.54-4.555-.056-1.148.222-.165 3.299 1.169 3.659 1.078.29 1.092.194.073-.523-.972-.685-.82-.991.691-1.387 1.483-.39 2.826.551 5.697 3.987 2.066 2.472 3.755 4.712 3.755 4.977 0 .505-5.34 2.541-6.669 2.541-.424 0-1.418-1.251-2.207-2.781-1.181-2.288-1.796-2.649-3.463-2.03-1.916.71-3.234 4.811-1.546 4.811.728 0 1.145-1.43.89-3.049-.278-1.768 2.512-.453 3.458 1.63.953 2.096.83 2.392-1.2 2.903-1.244.313-2.754.264-3.356-.108a1.276 1.276 0 0 0-1.757.397c-.664 1.077-6.617 3.183-6.617 2.341 0-.246 2.168-4.671 4.818-9.833 3.184-6.2 5.239-9.225 6.055-8.91Zm-7.597 20.027 11.702-3.954c14.574-4.924 14.036-4.856 13.211-1.677-.573 2.21-1.643 2.896-7.483 4.789-5.537 1.796-7.81 2.082-12.122 1.526l-5.308-.684Zm14.806 2.953c-2.631-1.03-2.627-1.034 2.513-2.718 6.77-2.218 6.784-2.218 6.022.232-1.128 3.622-3.711 4.374-8.535 2.486Zm-57.4 1.02c5.406-1.607 12.357-3.291 15.446-3.745 13.378-1.963 35.088.961 48.42 6.523 18.927 7.897 33.891 23.228 42.163 43.203 4.27 10.309 4.857 14.863 4.834 37.526-.018 17.223-.4 23.413-2.075 33.628-4.204 25.635-10.261 48.065-20.053 74.26-10.164 27.188-28.597 66.4-37.488 79.742-4.614 6.925-20.228 28.145-20.71 28.145-.136 0 1.89-4.327 4.5-9.616 4.365-8.843 4.747-10.155 4.748-16.317.001-5.38-.368-7.112-1.871-8.788-2.43-2.71-5.126-3.689-7.594-2.757-1.782.671-1.307-1.273 4.781-19.587 6.021-18.114 7.42-21.356 12.83-29.714 3.34-5.16 6.574-10.331 7.187-11.492 1.82-3.443.443-2.402-1.862 1.407-4.62 7.632-30.222 45.955-33.062 49.487-1.658 2.064-4.791 6.392-6.959 9.616-2.169 3.226-4.132 5.864-4.363 5.864-.231 0 .394-2.006 1.389-4.456.994-2.451 6.093-15.011 11.331-27.91 20.463-50.402 33.141-88.721 44.961-135.897 11.849-47.29 12.7-60.655 4.864-76.325-4.847-9.692-16.296-16.363-28.823-16.794l-7.489-.26 6.085.845c7.954 1.103 17.628 4.939 21.963 8.708l3.46 3.01-4.988.075c-4.694.07-15.295 2.105-14.6 2.801.175.176 3.674-.203 7.774-.842s7.982-1.094 8.625-1.012c.644.083 1.928.203 2.856.268.996.069 2.479 1.753 3.625 4.116l1.938 4-6.808-.345c-4.303-.217-8.589.179-11.647 1.077-4.579 1.345-5.17 1.309-11.009-.664l-6.169-2.086 2.988-1.241c1.644-.682 2.829-1.4 2.634-1.595-.195-.196-1.856.274-3.692 1.042-2.818 1.18-4.314 1.219-9.615.248l-6.277-1.152 7.833-4.188c4.308-2.304 10.992-5.131 14.854-6.283 3.861-1.151 6.36-2.116 5.553-2.143-4.117-.142-19.527 6.17-27.084 11.091-1.803 1.174-3.826 1.416-8.812 1.054l-6.473-.469 5.537-3.86c6.444-4.494 10.187-6.495 16.721-8.937 2.654-.992 3.496-1.545 1.92-1.262-4.359.784-17.367 7.472-21.581 11.095-2.783 2.394-5.027 3.424-8.425 3.869-2.548.333-5.685.795-6.972 1.027-1.955.353-1.493-.361 2.809-4.335 2.832-2.618 6.711-5.642 8.621-6.723 1.909-1.08 3.213-2.385 2.898-2.897-.323-.523-.101-.638.505-.262.595.368 1.609.328 2.252-.09.644-.417 3.066-1.263 5.383-1.88l4.212-1.121-4.212.528c-18.81 2.358-38.542 11.492-52.19 24.16-3.218 2.987-5.851 4.964-5.851 4.393 0-1.617.41-2.467 1.081-2.242.338.113 1.796-1.364 3.24-3.284l2.627-3.488-3.451 2.999c-2.107 1.833-4.182 2.859-5.33 2.637-1.768-.34-1.794-.23-.441 1.839.883 1.35 1.083 2.423.517 2.773-.507.315-1.227.077-1.599-.527-.423-.686-.273-.847.402-.429 1.533.949 1.343.068-.274-1.277-1.13-.94-1.289-.756-.952 1.103.352 1.948-.459 2.692-6.368 5.849-3.724 1.989-8.582 4.819-10.796 6.287-2.214 1.468-4.238 2.669-4.498 2.669-.261 0 2.119-3.792 5.286-8.427 12.995-19.015 35.695-34.784 60.81-42.245Zm64.594 1.888a.94.94 0 0 1-.936-.938.94.94 0 0 1 .936-.938.94.94 0 0 1 .936.938.94.94 0 0 1-.936.938ZM394.354 106.5c7.279-7.39 9.195-8.685 16.736-11.315 10.639-3.71 11.747-3.615 5.101.439-1.769 1.08-5.343 3.988-7.943 6.463-3.834 3.65-6.097 4.911-12.003 6.69-4.003 1.204-9.91 3.266-13.128 4.581-3.218 1.316-5.851 2.246-5.851 2.069 0-.755 12.116-9.89 16.729-12.612 5.03-2.969 7.816-3.524 3.518-.702-1.254.823-3.205 2.886-4.337 4.584l-2.056 3.086 3.234-3.283Zm68.747 6.651c-.532-.533.713-1.24 3.222-1.83 4.893-1.15 16.347-.91 17.54.369.468.499 1.134 1.855 1.483 3.013.527 1.75.348 2.003-1.065 1.504-1.389-.493-1.486-.372-.529.662 1.878 2.028 1.357 2.79-1.231 1.803-1.321-.503-3.648-.915-5.172-.915-2.986 0-12.826-3.181-14.248-4.606Zm-47.726 17.444c-.753-1.968 7.452-14.229 11.163-16.681 3.184-2.104 7.056-2.216 15.391-.446 7.895 1.678 20.562 6.009 22.472 7.684.813.713 1.918 1.296 2.456 1.296 1.241 0 9.577 4.538 11.746 6.395.901.771 1.638 1.051 1.638.624 0-.428.98.143 2.176 1.27 1.196 1.127 2.418 1.805 2.715 1.508.297-.297.856-.025 1.245.605.452.732.316.904-.374.476-.605-.374-1.09-.128-1.101.559-.012.676-.845.173-1.852-1.117-2.861-3.665-2.187-1.5 1.01 3.248 1.586 2.355 2.739 4.711 2.564 5.238-.415 1.247-7.319-8.01-7.319-9.814 0-.757-.333-1.582-.74-1.835-.407-.252-.568 1.022-.358 2.83l.383 3.289-5.301-2.999c-2.916-1.65-5.47-2.831-5.675-2.625-.205.204 2.341 1.839 5.658 3.631 5.932 3.205 6.031 3.322 6.032 7.169.002 6.999.17 7-14.515-.071-7.449-3.586-13.414-6.651-13.255-6.811.406-.408 17.77 6.764 20.94 8.648 2.487 1.479 2.524 1.476.746-.053-1.682-1.448-8.287-4.712-13.028-6.439-1.091-.397-1.457-.991-.934-1.516 1.078-1.08 6.791-1.413 9.282-.54 1.363.477 1.273.296-.333-.667-2.319-1.393-5.764-1.219-9.227.465-1.629.792-3.107.576-6.913-1.008-2.662-1.109-5.573-2.016-6.468-2.016-.896 0-3.581-.866-5.967-1.924-4.699-2.082-12.751-4.677-12.751-4.109 0 .397 15.252 7.763 21.242 10.261l3.924 1.636-1.536 2.462-1.536 2.462 2.354-2.111c3.048-2.733 4.238-2.7 2.427.069-1.409 2.156-1.337 2.223 6.518 6.128 4.37 2.172 7.738 3.612 7.484 3.201-.254-.412-3.446-2.195-7.095-3.964-6.984-3.386-7.091-3.491-5.771-5.58.683-1.082 2.116-.708 7.973 2.079 3.927 1.87 7.942 3.962 8.922 4.65 1.739 1.22 1.736 1.279-.166 2.469-1.703 1.066-1.874 1.024-1.355-.33.368-.962.218-1.317-.397-.936-.544.337-.779 1.163-.521 1.833.979 2.558-.846 2.106-9.91-2.452-5.142-2.586-9.523-4.528-9.735-4.316-.211.212 3.413 2.243 8.055 4.514 4.641 2.27 8.44 4.649 8.44 5.285.001.636 2.108 2.226 4.682 3.534 2.574 1.307 4.681 2.776 4.681 3.263 0 1.319-3.809 11.278-4.313 11.278-.239 0-1.479-.687-2.757-1.526-2.186-1.435-2.285-1.425-1.68.154.441 1.153.299 1.467-.453 1.001-.602-.373-1.095-1.218-1.095-1.88 0-.66-1.032-1.672-2.295-2.248-1.99-.909-2.231-.835-1.813.552.265.881-.214.394-1.065-1.082-1.024-1.775-1.862-2.368-2.477-1.752-1.044 1.046-6.392-1.193-6.392-2.678 0-.96 3.796.916 4.901 2.423.437.596.692.546.702-.14.013-1.005-8.402-5.869-13.539-7.826-1.697-.647-2.158-.57-1.824.303.246.644 1.378 1.239 2.515 1.326 1.138.085 2.216.599 2.397 1.141.179.543.664.777 1.077.521.413-.255 1.325.27 2.027 1.167 1.154 1.477 1.121 1.51-.362.344-.901-.708-1.639-.973-1.639-.589 0 .385-.565.229-1.256-.346-.691-.574-1.533-.767-1.872-.428-.339.34-.616.101-.616-.532 0-.632-.385-.912-.855-.621-.47.291-1.735-.634-2.81-2.055-1.237-1.634-1.725-1.924-1.328-.789.436 1.241.292 1.586-.465 1.117-.603-.373-1.095-1.286-1.095-2.03 0-.744-.408-1.352-.907-1.352-.498 0-.714-.527-.478-1.173.236-.644.083-1.716-.34-2.382-.948-1.487-5.764.054-5.764 1.843 0 .894.25.899 1.123.023 1.589-1.592 2.926-1.397 2.264.331-.316.825-.161 1.21.357.889.529-.327.667.081.327.968-.47 1.228-.745 1.284-1.379.283-.435-.688-.798-.91-.806-.492-.007.417-.505.455-1.104.083-.6-.37-2.337-.773-3.862-.893-1.524-.12-3.082-.721-3.461-1.337-.379-.614-1.064-1.132-1.521-1.15-3.906-.152-7.527-3.735-8.318-8.233-.748-4.255.315-10.541 1.644-9.718.639.396.795.059.421-.916Zm61.913-10.403c-.691.429-.826.256-.373-.478.393-.637 1.393-.864 2.251-.511.849.35 2.386.747 3.416.883 1.03.135 2.213.3 2.629.366.417.066.52.506.229.978-.291.472-.211 1.036.179 1.254.389.217.181.266-.463.109-.643-.157-1.183.228-1.2.857-.017.669-.542.467-1.263-.483-.678-.895-1.507-1.353-1.842-1.017-.335.336-.61.094-.61-.539 0-.632-.421-.889-.936-.57-.515.319-.936.108-.936-.469s-.487-.748-1.081-.38Zm-27.939 13.382c-.773 0-2.247-.362-3.277-.806-1.18-.509-1.353-.806-.468-.806.772 0 2.247.362 3.277.806 1.18.508 1.352.806.468.806Zm36.509 3.416c-.515-.319-.936-1.002-.936-1.518s.421-.678.936-.359c.515.319.936 1.002.936 1.518s-.421.678-.936.359Zm-5.492 5.659c.327-.326.266-2.05-.135-3.83-.4-1.781-.553-3.237-.339-3.237.216 0 1.645 1.983 3.178 4.406 2.931 4.631 3.787 7.912 1.586 6.083-.66-.55-1.748-.661-2.418-.246-.949.587-.877.885.325 1.347.848.326 1.301.982 1.008 1.458-.293.475-.098 1.08.433 1.344.531.262.428.351-.229.197-.656-.155-1.101-.717-.989-1.248.112-.532-.461-1.223-1.274-1.535-1.115-.43-1.325-.163-.851 1.084.479 1.261.368 1.394-.472.558-.843-.837-.781-1.551.262-3.043.749-1.072 1.698-1.636 2.109-1.252.41.384.53.065.267-.709-.264-.774-1.059-1.267-1.766-1.095-.708.172-1.021.046-.695-.282Zm-7.489 11.292c-3.197-1.657-3.519-2.386-1.81-4.099 1.865-1.869 5.541-1.369 6.115.83.281 1.076.771 1.534 1.088 1.02.317-.514 1.281.717 2.141 2.736 1.761 4.132.696 4.928-1.696 1.268-1.038-1.585-1.797-2.033-2.238-1.318-.488.791-1.457.673-3.6-.437Zm-1.529 1.144c-2.317-1.129-4.213-2.36-4.213-2.737 0-.377 1.896.377 4.213 1.675 2.317 1.297 4.213 2.529 4.213 2.735 0 .208-1.896-.546-4.213-1.673Zm10.328-.326c-.757-1.001-1.389-2.19-1.405-2.639-.016-.45.602-.294 1.375.349.772.643 1.404 1.83 1.404 2.64 0 1.177-.274 1.108-1.374-.35Zm-46.369.055c-.515-.319-.937-1.002-.937-1.518s.422-.677.937-.358c.514.319.936 1.002.936 1.518s-.422.677-.936.358Zm-63.024 5.299c4.052-1.096 11.149-2.54 15.771-3.209 7.945-1.151 15.755-.839 21.977.88 1.287.355 3.242.754 4.342.885 6.483.773 9.602 2.549 17.907 10.201 4.772 4.395 9.195 8.033 9.829 8.085 1.354.11-2.873 1.553-4.93 1.685-.772.048-4.577-2.97-8.454-6.709-3.878-3.739-8.933-8.235-11.234-9.993-2.301-1.758.434 1.226 6.078 6.631 10.091 9.664 10.262 9.897 10.212 13.986-.042 3.355.018 3.514.313.821.364-3.319.395-3.34 6.547-4.396 3.579-.614 6.811-1.755 7.678-2.711 1.384-1.525 1.376-1.559-.102-.447-1.944 1.464-6.642.614-8.399-1.519-.679-.824-4.089-3.964-7.578-6.976-3.488-3.012-6.121-5.476-5.849-5.476.27 0 5.652 2.224 11.959 4.943 12.093 5.213 30.305 15.192 34.627 18.975 2.849 2.491 2.66 5.254-.305 4.477-1.435-.377-1.6-.759-.762-1.772.898-1.083.487-1.079-2.555.028-9.815 3.567-10.503 4.103-15.751 12.256-5.337 8.293-7.806 14.839-6.315 16.749.472.606 1.799 4.69 2.95 9.076 1.15 4.386 2.907 9.241 3.904 10.789l1.813 2.814-.646-2.814c-.355-1.548-2.053-7.014-3.772-12.146-3.037-9.067-3.86-13.692-2.423-13.616.386.02 2.93 6.88 5.653 15.245l4.952 15.207-5.082 15.011c-6.386 18.866-13.429 38.589-14.398 40.323-.594 1.064-1.66.71-5.411-1.802-14.56-9.747-36.533-21.213-41.649-21.734-1.802-.183-9.385-2.434-16.851-5.003-7.465-2.569-19.856-6.304-27.534-8.301l-13.961-3.63-1.065-3.68c-.586-2.023-1.178-5.789-1.315-8.369-.136-2.58-.957-6.163-1.824-7.961-1.505-3.125-2.749-4.057-9.05-6.788-6.501-2.817-9.593-15.341-6.669-27.013 1.997-7.969 7.416-18.968 11.678-23.702 6.188-6.871 12.288-7.67 13.922-1.821.679 2.432.779 14.028.25 29.29-.134 3.87-.162 9.147-.062 11.727.178 4.603.23 4.507 2.837-5.193 3.316-12.341 8.371-26.047 13.656-37.024 6.785-14.092 6.712-14.013 15.091-16.279Zm105.586-1.026c.282-.456.077-1.044-.454-1.308-.6-.297-.575-.407.065-.291.566.103.9.389.742.633-.158.245.443 1.49 1.334 2.766.892 1.275 1.603 3.175 1.58 4.222-.03 1.394-.54.955-1.909-1.646-1.028-1.951-1.639-3.92-1.358-4.376Zm3.832 1.825c-.228 0-.673-.422-.991-.938-.319-.516-.132-.938.412-.938.545 0 .992.422.992.938s-.186.938-.413.938Zm-3.366 14.073c-2.292 0-4.482-7.193-3.357-11.024.494-1.677 1.148-3.049 1.456-3.049.515 0 3.807 8.424 3.807 9.742 0 .318-.353.578-.786.578-.432 0-1.361-1.746-2.064-3.88-.702-2.133-1.42-3.452-1.593-2.929-.175.523.503 3.113 1.505 5.756 1.003 2.643 1.467 4.806 1.032 4.806Zm-136.372-3.753c1.138-.475 6.072-2.517 10.963-4.539 4.891-2.021 9.033-3.552 9.203-3.401.711.628-1.882 4.194-2.687 3.696-.496-.308-.61.157-.262 1.066.452 1.178.285 1.404-.623.842-.787-.488-1.015-.404-.624.23.773 1.252-.263 4.132-1.262 3.513-.408-.252-.99.195-1.296.993-.305.797-.176 1.216.287.929.464-.287-.028 1.274-1.09 3.469-1.064 2.195-3.149 7.157-4.634 11.027-2.283 5.951-2.987 6.146-1.158.322.523-1.666.503-1.667-.549-.018-1.708 2.676-2.8 7.201-1.737 7.201.509 0 .661.429.338.953-.324.525-.976.714-1.45.421-.472-.293-.644.032-.379.723.264.69-.134 3.773-.886 6.85l-1.368 5.594.333-7.505c.184-4.128.571-9.827.86-12.665.363-3.568.27-4.436-.301-2.814-.633 1.794-.849.804-.925-4.222-.057-3.732-.688-7.696-1.461-9.184-1.276-2.452-1.231-2.671.708-3.481Zm127.034.463c-.509-.316-.925-.97-.925-1.456 0-1.349.671-1.052 1.293.573.32.835.162 1.211-.368.883Zm2.585-.053c.734.401 1.17.024 1.17-1.011 0-1.358.208-1.43 1.17-.407.939.997.912 1.336-.139 1.719-.975.355-.74.907.922 2.164 1.227.928 2.028 1.875 1.778 2.103-.25.229-1.718-.849-3.263-2.395-1.544-1.547-2.281-2.525-1.638-2.173Zm.972 23.982c-1.365 0-6.355-3.105-6.355-3.955 0-.856 3.326-.949 6.211-.173 1.408.379 1.859 1.067 1.528 2.332-.257.988-.88 1.796-1.384 1.796Zm-2.681 12.104c-.059 1.248-7.418-13.265-7.418-14.629 0-.245.504-.277 1.121-.071 1.272.425 6.405 12.409 6.297 14.7Zm-9.105-8.527c-1.385-3.137-1.622-4.512-.83-4.798 1.534-.549 1.315-.937 5.282 9.324 3.988 10.314 4.024 15.036.044 5.801a1666.387 1666.387 0 0 0-4.496-10.327Zm10.237 3.928c-.446 0-1.707-2.16-2.802-4.8-1.53-3.688-1.655-4.52-.539-3.593.799.665 2.06 2.665 2.802 4.446 1.582 3.795 1.603 3.947.539 3.947Zm-13.179.101c-1.617-3.176-1.804-4.276-.91-5.354.618-.748 1.296-1.188 1.505-.978.209.209 2.229 5.109 4.489 10.888 3.024 7.736 3.902 11.044 3.325 12.541-.61 1.58-.902 1.72-1.311.627-.29-.774-1.548-4.179-2.796-7.568-1.248-3.389-3.184-7.959-4.302-10.156Zm13.99-4.322c-.515-.319-.936-.977-.936-1.463 0-.486.421-.883.936-.883.515 0 .936.659.936 1.463s-.421 1.201-.936.883Zm-16.443 11.099c-2.059-4.912-2.253-6.114-1.277-7.94l1.149-2.152.89 2.311c5.185 13.458 8.21 24.013 7.628 26.62-.599 2.682-.843 2.307-3.305-5.077-1.462-4.386-3.75-10.579-5.085-13.762Zm.22 14.028c-3.51-9.186-5.239-14.955-4.85-16.183.332-1.05.925-1.908 1.319-1.908 1.086 0 9.631 27.836 9.287 30.252-.188 1.324-2.341-3.224-5.756-12.161Zm-113.956-10.586c-.545 0-.731-.422-.413-.938s.764-.938.991-.938c.228 0 .413.422.413.938s-.446.938-.991.938Zm-47.958 30.49c5.272-6.73 17.115-26.458 17.135-28.545.013-1.296.125-1.304.922-.069.499.774.913 2.582.922 4.017.032 5.832 3.962 11.396 9.006 12.748 2.07.554 3.094 1.811 4.738 5.809 1.153 2.806 2.117 4.625 2.14 4.043.025-.581-.623-2.692-1.44-4.69l-1.482-3.633 2.078 2.029c2.014 1.968 2.042 2.26.923 9.478-.637 4.096-1.493 7.993-1.905 8.661-.609.986-2.304.934-9.035-.278-4.557-.821-12.814-1.785-18.349-2.141-5.536-.357-10.064-.908-10.063-1.224 0-.317 1.985-3.109 4.41-6.205Zm36.8 5.192c-.459-.743-.625-1.686-.372-2.098.706-1.146.876-.927 1.047 1.35.119 1.582-.047 1.767-.675.748Zm.102 4.337c-.573-.692-.766-1.536-.427-1.876.645-.646 1.626-.132 1.084.568-.171.221.276 1.111.993 1.976 1.74 2.103 1.05 2.578-2.287 1.579-2.47-.739-2.527-.835-.541-.907 1.748-.064 1.999-.349 1.178-1.34Zm56.605 58.288c2.44-12.034 5.994-33.431 5.994-36.083 0-.885 4.536.568 6.341 2.031.528.428-2.648 19.351-5.75 34.255-7.405 35.574-24.743 84.381-29.443 82.879-1.114-.356-1.231-.256-.399.347.93.672.852 1.813-.369 5.482-.849 2.549-1.639 4.755-1.756 4.903-.116.149-1.324-.238-2.685-.86-2.917-1.332-2.842-1.792 1.991-12.303 2.906-6.322 3.534-7.113 4.833-6.098 1.304 1.019 1.34.97.276-.392-1.02-1.309-.84-2.456 1.123-7.129 5.929-14.117 16.044-48.284 19.844-67.032Zm-140.084-4.108c-4.098-2.878-7.449-5.416-7.449-5.643 0-1.659 20.491 14.019 32.297 24.711 16.826 15.238 31.883 31.554 47.013 50.944 7.836 10.043 16.261 20.777 18.723 23.853 2.461 3.078 3.983 5.291 3.382 4.919-1.051-.651-10.081-11.865-30.371-37.719-15.739-20.054-44.442-47.615-63.595-61.065Zm181.593 45.701c2.334-4.587 2.383-5.565.382-7.781-1.454-1.61-1.43-1.716.401-1.716 2.074 0 4.813 2.216 5.012 4.054l.378 3.451c.471 4.262-9.709 22.213-18.886 33.304-2.562 3.096-6.51 8.373-8.773 11.727-2.263 3.354-6.24 8.12-8.838 10.591-3.179 3.024-4.137 4.404-2.932 4.222.986-.149 4.356-3.473 7.489-7.385 15.953-19.918 21.248-27.036 25.812-34.699 4.5-7.554 5.277-8.39 7.886-8.489l2.893-.112-2.808-.716-2.809-.715 3.436-.112c3.26-.105 3.514-.349 4.983-4.781 1.643-4.956 1.345-6.569-1.219-6.618-1.384-.026-1.355-.201.234-1.407 2.569-1.946 4.006-1.725 6.767 1.041 2.271 2.276 2.388 2.846 1.975 9.617-.406 6.649-.88 8.018-6.231 17.986-3.185 5.934-8.612 14.588-12.06 19.232-3.449 4.644-8.615 12.876-11.48 18.294-5.567 10.525-7.59 12.349-15.191 13.691-1.93.342-3.511.989-3.511 1.439 0 1.979 5.45.423 16.851-4.811 6.744-3.095 13.418-5.628 14.829-5.628 1.794 0 3.774 1.23 6.567 4.084 3.645 3.721 3.974 4.449 3.707 8.175-.273 3.784-.526 4.138-3.357 4.714-2.618.532-2.898.424-1.927-.749.706-.853-.358-.592-2.808.689-2.795 1.459-6.278 2.205-11.951 2.561-4.85.303-7.517.81-6.768 1.287 1.886 1.198 7.922.971 16.155-.608 4.543-.872 7.761-1.087 8.29-.557.476.476 1.862 3.916 3.08 7.645l2.216 6.778-6.06 6.558c-3.332 3.608-6.059 6.93-6.059 7.383 0 1.149-5.075 1.03-7.729-.181-1.211-.553-2.713-1.827-3.339-2.832-.993-1.594-.83-1.943 1.282-2.747 3.481-1.326 5.77-1.143 8.554.685 2.413 1.584 2.433 1.578 1.373-.406-.905-1.694-.799-2.101.673-2.569.961-.305 2.509-1.399 3.439-2.429 1.679-1.859 1.667-1.863-1.687-.458-1.857.777-6.802 2.009-10.988 2.737-7.143 1.242-10.692 2.456-7.18 2.456 2.724 0 1.695 1.62-2.652 4.172-2.317 1.362-4.213 2.693-4.213 2.959 0 .267.421.224.936-.095 1.693-1.047 1.013.17-6.102 10.932-3.871 5.855-9.751 16.164-13.066 22.909-5.537 11.262-6.67 12.88-13.873 19.81-8.779 8.447-5.837 7.427-26.775 9.28l-6.924.612.639-4.005c.98-6.145.72-47.331-.353-55.746-.814-6.386-.745-7.584.474-8.267.784-.44 1.184-1.191.889-1.669-.295-.479.012-.678.683-.442.67.235 2.326-.509 3.68-1.653 2.827-2.39 11.749-15.152 14.786-21.151 2.381-4.704 9.386-15.131 12.189-18.147 1.058-1.138 1.924-2.403 1.924-2.811 0-.408 3.696-5.5 8.214-11.315 15.304-19.701 23.124-31.514 30.48-46.042 1.154-2.279 2.272-3.382 3.088-3.049l2.626 1.069c.904.367 1.98-.698 3.277-3.246Zm-224.294 90.796c-13.374-18.216-44.699-53.875-61.342-69.831-5.827-5.586-8.91-8.851-6.85-7.255 5.223 4.046 29.288 28.579 40.734 41.525 15.851 17.928 34.626 42.142 34.626 44.656 0 .367-3.226-3.726-7.168-9.095Zm140.802-61.941c-9.486-4.772-28.787-15.817-28.787-16.474 0-.263 1.791.565 3.979 1.841 8.869 5.171 30.587 16.621 31.526 16.621.553 0 1.005.427 1.005.949 0 .521-3.475-.8-7.723-2.937Zm12.896 5.56c-.287.289-1.043.001-1.678-.641-.918-.927-.81-1.034.524-.525.923.352 1.442.877 1.154 1.166Zm19.167 7.104c-1.802-.318-4.541-1.143-6.085-1.835l-2.809-1.258 2.809.576c1.544.318 4.283 1.143 6.085 1.835l3.276 1.258-3.276-.576Zm10.297 2.254c-1.287.009-3.393-.321-4.68-.734-1.834-.588-1.935-.747-.469-.733 1.03.009 3.137.339 4.681.733 2.523.644 2.571.718.468.734Zm-29.358 14.326c-2.465-.939-2.978-2.323-1.902-5.132.678-1.772.602-1.764 3.582-.404 1.931.881 2.259 1.53 1.785 3.518-.761 3.185-.618 3.103-3.465 2.018Zm.572 4.208c-3.127-.774-4.391-1.892-3.596-3.181.873-1.415 6.17.646 6.17 2.4 0 1.076-.621 1.264-2.574.781Zm-4.538 3.832c.293-1.095.54-2.482.546-3.082.01-.823.703-.831 2.822-.029 3.626 1.371 3.807 3.692.234 3.008l-2.575-.492 2.575 1.021c4.336 1.722 3.099 4.093-1.328 2.546-2.238-.781-2.699-1.383-2.274-2.972Zm-1.043 5.983c-.117 0 .018-.601.299-1.333.402-1.048 1.098-1.129 3.248-.377 3.97 1.386 3.697 3.732-.3 2.582-1.67-.479-3.131-.872-3.247-.872Zm4.721 3.724c-2.683.038-4.991-.892-4.991-2.011 0-.916 3.044-.272 5.617 1.187 1.103.625.971.802-.626.824Zm-2.712 7.751c-2.958-.566-3.335-1.257-2.626-4.811.32-1.602.711-2.911.871-2.911 1.723 0 5.093 2.141 5.093 3.236 0 1.053-.766 1.296-3.043.965l-3.042-.442 3.006.952c3.577 1.133 3.356 3.704-.259 3.011Zm-268.761-2.4c-.48-.482 12.757-2.358 19.808-2.809 16.508-1.055 33.909.012 51.956 3.188 15.151 2.665 35.417 7.904 34.424 8.897-.184.185-3.035-.506-6.335-1.535-24.806-7.738-63.188-11.326-89.739-8.391-5.33.59-9.883.882-10.115.65Zm267.805 6.079c-3.314-.396-3.575-.614-2.886-2.415.442-1.153 1.074-1.227 3.435-.402 3.568 1.245 3.175 3.262-.549 2.817Zm2.22 3.186c-.802.804-5.415-.607-5.415-1.657 0-.554 1.051-.674 2.572-.291 2.902.73 3.588 1.2 2.843 1.948Zm-161.234 1.719c-.8-.307-1.453-.725-1.453-.927 0-.76 1.784-.333 2.334.559.327.531-.048.688-.881.368Zm161.19 1.138c-.847.849-6.308-.575-6.308-1.645 0-.567 1.204-.679 3.043-.285 3.419.734 4.073 1.121 3.265 1.93Zm-179.026 16.251c27.008-7.357 70.108-13.612 109.529-15.896 24.507-1.42 48.222.14 53.983 3.55 3.081 1.824 5.894 7.187 4.954 9.441-.543 1.299-.78 1.155-1.351-.824-1.966-6.822-4.554-8.592-14.911-10.194-7.717-1.194-36.158-1.172-52.037.041-33.837 2.585-55.429 5.598-87.061 12.148-19.276 3.992-23.396 4.537-13.106 1.734Zm175.582-13.056c-2.776 0-4.281-1.082-3.121-2.244.345-.345 1.211-.405 1.924-.131.712.274 1.893.499 2.623.499.73 0 1.327.422 1.327.938s-1.238.938-2.753.938Zm-1.652 2.317c-2.219.321-2.877.112-2.528-.803.287-.746 1.39-1.061 2.782-.794 1.379.264 2.302.707 2.674 1.173l.073-.01-.065.02c.415.532.114 1.093-1.046 1.455-.933.292-2.435.926-3.336 1.409-1.041.558-1.638.543-1.638-.042 0-.505 1.369-1.352 3.043-1.881l2.977-.941-.008-.01-2.928.424Zm-181.205 13.26c-.31.311-1.118.345-1.793.074-.747-.299-.525-.522.565-.567.987-.04 1.539.181 1.228.493Zm229.877 27.109 1.925-3.987c1.059-2.194 2.196-3.671 2.526-3.284.331.387 2.008 4.398 3.728 8.912l3.128 8.209h5.816c17.561 0 33.616 12.324 37.453 28.75 2.505 10.722.295 20.17-7.489 32.01-8.147 12.394-15.824 16.853-33.547 19.485l-3.51.522v6.02c0 9.351-2.794 15.642-10.213 22.996-19.447 19.28-46.824 18.188-60.981-2.432-2.672-3.892-2.753-4.294-1.716-8.422l1.089-4.335 3.151 5.943c1.733 3.269 4.517 7.118 6.188 8.554 8.135 6.994 21.815 11.304 29.068 9.158 8.012-2.37 14.832-6.83 19.951-13.049 5.666-6.884 7.69-11.92 7.22-17.952-.45-5.739-.708-6.228-3.688-6.978-6.147-1.546-10.664-7.93-12.135-17.15-.649-4.068 1.434-9.853 5.163-14.336l1.95-2.345 1.942 2.317c1.186 1.415 1.538 2.453.904 2.665-1.741.582-3.808 5.516-3.808 9.09 0 7.737 6.486 12.992 15.788 12.795 13.342-.286 21.958-4.015 29.704-12.856 7.322-8.358 9.255-13.148 9.251-22.924-.003-6.754-.389-8.766-2.53-13.151-3.3-6.758-7.122-10.334-15.703-14.695-6.705-3.405-7.443-3.569-16.383-3.617l-9.361-.051-.487-4.179c-.268-2.298-1.366-5.867-2.44-7.931l-1.954-3.752Zm-16.307 26.271c5.174-5.459 7.618-9.057 10.985-16.177l4.33-9.156 1.743 3.752c.957 2.064 1.751 5.495 1.765 7.626.035 5.55 1.605 6.552 8.013 5.115 5.933-1.331 11.862-.023 21.109 4.654 15.814 8 20.467 27.508 10.177 42.669-3.586 5.281-10.611 11.554-15.238 13.605-6.019 2.667-19.339 4.352-22.858 2.891-8.141-3.379-10.888-12.175-5.547-17.762l2.652-2.774-2.8-3.14-2.799-3.14-2.056 1.864c-6.637 6.019-8.322 14.524-4.753 23.993 2.23 5.92 4.621 8.554 9.691 10.677 1.924.805 3.513 1.775 3.533 2.155.02.381.264 2.272.543 4.201.694 4.792-.899 9.073-5.661 15.219-4.917 6.347-7.346 8.311-14.12 11.418-4.53 2.079-6.255 2.364-12.453 2.058-12.526-.619-21.776-6.354-27.873-17.281l-3.326-5.961 1.456-7.296c1.663-8.328 4.838-34.839 5.772-48.2l.63-9.008 12.132-.581c14.344-.688 15.113-1.04 24.953-11.421Zm91.468 43.801c6.481-17.384 13.708-36.576 16.06-42.647 2.354-6.071 4.417-10.901 4.586-10.732.286.287-17.663 48.96-29.258 79.339-7.091 18.579-15.031 36.951-24.588 56.886-9.074 18.932-21.341 42.666-22.789 44.093-.523.516 3.497-7.716 8.936-18.294 18.828-36.627 28.721-59.47 47.053-108.645Zm14.785-26.167c-3.451 2.022-.084-1.68 9.813-10.788 5.998-5.52 11.049-10.058 11.224-10.085 1.543-.234-17.845 19.003-21.037 20.873Zm39.613 6.462c-.299.748-.52.526-.565-.567-.041-.989.18-1.543.491-1.231.311.311.345 1.121.074 1.798Zm-17.522 77.977c1.579-4.743 5.917-23.847 9.642-42.452 3.725-18.605 6.902-33.436 7.061-32.957.159.478-2.495 15.36-5.898 33.071-7.094 36.918-10.182 47.324-19.857 66.912-3.569 7.224-8.11 17.25-10.093 22.279-1.982 5.031-3.744 9.008-3.914 8.837-.825-.828 5.195-15.821 12.285-30.594 4.348-9.059 9.196-20.351 10.774-25.096Zm-213.384 72.42c11.588-19.302 32.897-67.854 36.006-82.037.345-1.576.839-2.866 1.096-2.866 1.881 0-11.773 38.181-19.29 53.944-9.574 20.074-11.698 24.157-16.119 30.994-2.323 3.593-6.895 11.176-10.16 16.852-3.264 5.675-8.311 13.486-11.215 17.355-2.903 3.87-6.831 9.474-8.727 12.452-5.098 8.008-5.479 8.073-21.322 3.682-7.415-2.056-16.853-4.446-20.972-5.313-8.338-1.754-23.484-5.786-36.978-9.844a1033.83 1033.83 0 0 0-18.254-5.263c-8.965-2.479-25.255-8.714-24.568-9.401.181-.181 3.255.855 6.831 2.304 3.576 1.448 10.505 3.721 15.396 5.048 4.892 1.329 16.687 4.563 26.212 7.187 9.525 2.625 22.163 5.875 28.084 7.222 5.922 1.348 16.773 4.121 24.116 6.161 7.343 2.04 14.165 3.451 15.161 3.134.995-.317 3.032-2.56 4.524-4.985 1.494-2.425 5.293-7.655 8.444-11.624 3.152-3.967 8.316-11.777 11.48-17.355 3.162-5.578 7.776-13.519 10.255-17.647Zm148.506-45.266c-.259.646-.472.117-.472-1.172 0-1.29.213-1.818.472-1.173.26.645.26 1.701 0 2.345Zm-2.465 14.776c.499-5.418.908-10.659.908-11.649.001-.989.247-1.551.549-1.249.301.302.087 8.499-.477 18.216-.562 9.717-1.454 28.432-1.98 41.59-.525 13.157-1.353 25.4-1.84 27.206-.708 2.626-.797 1.968-.442-3.284.244-3.611.878-18.81 1.409-33.773.532-14.964 1.374-31.639 1.873-37.057Zm103.417-11.041c-5.149.259-8.309.147-7.021-.249 2.316-.712 17.524-1.223 16.772-.564-.214.188-4.603.554-9.751.813Zm-42.243 15.276c6.63-4.054 14.634-8.332 17.787-9.506 6.523-2.431 6.912-2.531 5.686-1.454-.489.43-3.045 1.65-5.681 2.712-6.341 2.554-28.548 16.853-34.823 22.42-11.066 9.819-16.016 19.559-29.271 57.583-6.473 18.571-8.287 22.344-4.25 8.843 5.291-17.698 14.176-40.763 20.392-52.933 4.231-8.286 15.756-18.857 30.16-27.665Zm-180.091-7.988a.94.94 0 0 1-.936-.938.94.94 0 0 1 .936-.938.94.94 0 0 1 .936.938.94.94 0 0 1-.936.938Zm-1.404 4.691c-1.575 0-1.639-.172-.838-2.263.657-1.717 2.242-1.074 2.242.911 0 .744-.632 1.352-1.404 1.352Zm.214 2.443c-.311.312-1.119.345-1.794.074-.747-.299-.525-.521.566-.566.986-.041 1.539.181 1.228.492Zm-2.087 5.062c-2.273 0-2.989-.913-1.716-2.188 1.178-1.18 4.057-.626 4.057.781 0 .875-.884 1.407-2.341 1.407Zm-1.168 6.124c-3.251-.817-3.335-.916-2.641-3.105.896-2.827 5.213-1.657 5.213 1.414 0 2.082-.281 2.267-2.572 1.691Zm-.47 6.996c-3.186-.021-4.443-1.203-3.82-3.59.356-1.368 1.042-1.944 1.913-1.609.747.288 1.956.523 2.686.523.792 0 1.327.946 1.327 2.345 0 1.811-.48 2.343-2.106 2.331Zm-1.404 6.567c-3.757-.021-5.235-1.25-4.457-3.707.497-1.569 1.153-1.946 2.674-1.537 1.11.299 2.544.548 3.187.555.644.007 1.17 1.068 1.17 2.358 0 1.937-.448 2.343-2.574 2.331ZM79.491 738.11c5.633-17.778 15.431-46.407 16.449-48.056.268-.435 5.015 1.716 10.548 4.779 5.535 3.064 14.098 7.519 19.03 9.901 11.062 5.341 13.499 8.276 13.499 16.254 0 4.373-.489 5.994-2.808 9.29-5.469 7.774-7.021 11.496-7.021 16.832 0 4.592.316 5.384 3.26 8.167 3.729 3.524 8.927 5.548 12.159 4.736 1.82-.458 6.112-5.618 6.112-7.349 0-.259-1.718-.701-3.817-.983-3.962-.532-7.417-2.869-7.417-5.017 0-2.547 4.596-4.301 12.574-4.799 6.769-.423 9.024-.144 15.687 1.941 9.351 2.928 14.287 5.956 22.08 13.549 6.365 6.201 9.948 12.748 11.01 20.121 1.241 8.616-4.54 16.377-20.074 26.95-6.617 4.503-14.601 8.019-21.646 9.533-9.038 1.943-37.979-2.173-43.332-6.162-.949-.707-2.296-3.825-3.049-7.056-1.219-5.236-3.959-10.206-8.567-15.533-1.808-2.092-8.688-6.992-9.816-6.992-.385 0-1.536 1.643-2.559 3.652l-1.859 3.652 2.833 1.175c7.387 3.067 11.629 16.023 7.759 23.699-3.746 7.429-8.624 10.377-17.21 10.397-12.46.029-22.657-6.399-27.655-17.433-2.404-5.307-2.732-7.252-3.225-19.044-.406-9.729-.96-13.904-2.134-16.102l-1.586-2.967 5.364-7.519c2.95-4.134 7.471-10.081 10.046-13.214l4.68-5.698.687 3.518c.377 1.935 1.145 5.944 1.704 8.912.56 2.967 1.335 5.394 1.721 5.394.387 0 3.345-8.338 6.573-18.528Zm332.853-35.885c-.258 0 .808-2.533 2.367-5.629 1.56-3.095 3.047-5.628 3.304-5.628.257 0-.808 2.533-2.367 5.628-1.56 3.096-3.047 5.629-3.304 5.629Zm-100.608-4.739c0-.422.411-1.85.912-3.174.995-2.618 1.201-2.687 5.524-1.82 2.582.518 2.925.957 2.925 3.753 0 2.831-.272 3.165-2.574 3.153-3.432-.017-6.787-.962-6.787-1.912Zm-2.579 8.085c-.131-.125.2-1.485.734-3.024.972-2.793.982-2.796 5.622-1.843 4.294.881 4.648 1.162 4.648 3.691v2.737l-5.383-.667c-2.961-.368-5.49-.77-5.621-.894Zm209.268-1.589c-1.391-1.87-2.296-3.636-2.01-3.922 1.12-1.123 3.313.695 5.121 4.248 2.974 5.839 1.343 5.669-3.111-.326Zm-7.766 2.322c-1.584-2.423-1.568-2.534.594-4.202 1.222-.94 2.496-1.721 2.831-1.732 1.036-.036 4.592 6.638 4.027 7.557-1.171 1.897-5.811.887-7.452-1.623Zm13.049-.795c-1.06-1.548-2.242-3.342-2.626-3.987-.459-.773-.088-1.173 1.091-1.173 1.135 0 2.862 1.732 4.736 4.755 2.808 4.526 2.849 4.722.842 4.104-1.159-.356-2.109-.702-2.11-.766-.002-.065-.871-1.385-1.933-2.933Zm8.021 4.639c0-.349-1.51-2.697-3.356-5.217-1.846-2.52-2.871-4.582-2.279-4.582 2.311 0 4.433 1.918 6.016 5.435l1.652 3.673-3.34 6.647c-1.836 3.655-4.415 11.116-5.727 16.577-2.534 10.543-2.306 14.625 1.112 19.853 1.299 1.987 1.24 2.415-.719 5.245-1.173 1.694-3.332 4.483-4.797 6.196-1.465 1.714-3.633 5.092-4.818 7.506-4.248 8.657-13.676 25.181-15.649 27.428-1.107 1.26-2.643 3.242-3.415 4.402-1.881 2.828-2.314 2.67-4.249-1.538-.91-1.982-3.817-6.08-6.461-9.107-5.365-6.144-9.528-14.193-11.19-21.638-1.443-6.463.439-14.43 6.171-26.115 3.86-7.871 16.639-28.038 19.724-31.131.753-.754 1.369-1.848 1.369-2.429 0-.75.328-.73 1.123.066 1.601 1.604 3.076 1.398 1.719-.24-1.536-1.856-.33-3.8 1.443-2.326.721.6 1.127 1.389.902 1.753-.506.823 10.334-1.1 11.217-1.988.351-.355 1.543-.306 2.649.107 3.004 1.121 10.903 2.152 10.903 1.423Zm3.326-4.951c.918 2.897.075 2.814-1.628-.158-1.188-2.074-1.246-2.581-.252-2.198.71.273 1.556 1.333 1.88 2.356Zm-25.262 4.314c-.907.91-3.633-2.297-2.927-3.443.349-.566 1.002-1.028 1.452-1.028 1.03 0 2.25 3.695 1.475 4.471Zm22.594 8.194c1.798-3.612 4.36-7.728 5.693-9.147 4.059-4.319 13.285-3.2 15.326 1.859 1.438 3.569 1.211 11.714-.533 19.015-.802 3.354-1.431 7.786-1.397 9.85.058 3.614.095 3.657.998 1.181l.937-2.573 4.206 5.607c3.536 4.714 4.349 6.614 5.099 11.933.492 3.478 1.474 8.445 2.182 11.037 4.696 17.182 9.301 32.325 11.224 36.902 1.233 2.937 2.51 7.027 2.837 9.09.328 2.064 1.068 5.337 1.642 7.274 1.2 4.038.558 5.301-1.731 3.413-1.441-1.187-1.535-1.05-1.026 1.508.309 1.548.847 3.553 1.195 4.456.515 1.334.121 1.642-2.108 1.642-7.368 0-15.684 5.481-18.14 11.955-.84 2.211-1.007 2.265-2.585.834-2.513-2.279-3.554-1.852-1.415.58 2.689 3.057 5.131 8.967 3.215 7.78-.48-.298-1.123-.133-1.43.364-.308.5.267.746 1.286.549 1.239-.24 1.686.054 1.364.895-.402 1.05-2.091 1.24-4.093.457-.258-.1-.784-.133-1.171-.071-.386.061-.702-.296-.702-.794 0-.498-.948-1.404-2.106-2.013-2.018-1.061-2.041-1.033-.534.672.866.979 2.015 2.944 2.554 4.365.54 1.422 1.517 2.477 2.172 2.344 2.296-.466 1.255 3.546-1.833 7.064-1.716 1.954-4.033 5.437-5.149 7.74-1.117 2.303-2.348 4.187-2.738 4.187-.983 0 1.218 5.952 4.683 12.665 1.598 3.095 3.167 7.677 3.486 10.181.541 4.236.368 4.775-2.491 7.731-5.685 5.878-11.322 5.099-19.701-2.725-4.922-4.595-7.849-9.78-9.838-17.428-1.558-5.987-1.469-10.714.268-14.292.659-1.354.897-2.794.531-3.201-.365-.405-.066-.39.665.036.999.581 1.176.373.712-.837-.366-.956-.24-1.377.309-1.036.51.315.935.02.947-.655.011-.676.844-.173 1.851 1.117 1.008 1.29 1.841 1.831 1.852 1.202.011-.629.62-.913 1.353-.63.879.337 1.25-.045 1.092-1.124-.132-.901-.912-1.736-1.735-1.857-1.031-.152-1.321.262-.934 1.329.499 1.378.354 1.366-1.311-.094-1.03-.905-2.209-1.327-2.618-.938-.41.388-.06-.646.778-2.297.838-1.652 1.523-4.845 1.523-7.095 0-3.287-.531-4.604-2.699-6.685-1.484-1.425-3.768-2.709-5.075-2.853-2.417-.265-10.012-5.666-10.012-7.118 0-.437.842-1.064 1.872-1.392 1.03-.327 1.872-1.014 1.872-1.525 0-.512.432-.663.96-.337.527.328.872.247.766-.179-.39-1.574 3.536-7.429 7.122-10.618 6.702-5.96 8.984-8.668 12.745-15.122 4.431-7.603 6.611-9.377 10.606-8.632 1.931.36 2.592.229 1.97-.391-1.543-1.541-7.075-3.074-10.671-2.958-1.854.06-2.528.295-1.498.524 1.029.228 2.42.596 3.089.817.709.236-4.613 6.18-12.76 14.253-7.687 7.617-15.327 16.065-16.977 18.774-1.651 2.709-3.218 4.925-3.484 4.925-.265 0-3.598-3.113-7.408-6.919-6.905-6.897-6.927-6.935-6.913-11.961.009-2.773.423-5.676.922-6.45.642-.996.912.214.922 4.144.008 3.053.317 5.247.685 4.878.37-.371.582-3.105.47-6.077-.135-3.614.259-6.006 1.192-7.223 1.269-1.655 1.342-1.332.806 3.575-.409 3.751-.264 5.394.477 5.394.586 0 1.065-1.241 1.065-2.759 0-1.518.395-3.003.877-3.302 1.308-.81 3.804-6.171 3.804-8.169 0-2.719 11.873-25.795 13.617-26.466.855-.329 1.359-1.123 1.119-1.763-.239-.64-.102-2.009.305-3.041.6-1.518.754-1.283.807 1.228.042 1.952.438 2.874 1.067 2.484.55-.341.882-2.261.738-4.266-.145-2.006.223-4.133.818-4.729.816-.818.947.211.535 4.211-.377 3.656-.215 5.293.521 5.293.659 0 1.068-1.828 1.068-4.783 0-4.184 2.415-11.872 3.416-10.87.198.2-.286 3.444-1.076 7.21s-1.325 6.942-1.187 7.06c.138.117 1.162.492 2.275.835 2.217.683 2.48.012 3.636-9.302.776-6.251 1.338-8.1 2.282-7.515.434.269.572-.675.309-2.097-.263-1.421-.619-4.273-.791-6.337-.421-5.07-.573-5.225-1.375-1.407l-.69 3.284-.189-3.284c-.104-1.806-.551-4.128-.994-5.16l-.804-1.876-.183 1.876c-.1 1.032-.49-.023-.866-2.345-.375-2.322-.298-5.488.172-7.036.469-1.548 1.057-3.87 1.304-5.16.825-4.294 1.488-6.049 4.78-12.665Zm-224.76-5.629c.289-1.548.697-3.369.906-4.045.282-.912 1.535-1.067 4.834-.595 2.449.351 4.752.909 5.118 1.241.365.331-.04 3.238-.901 6.457-1.696 6.343-1.998 6.524-8.046 4.842-3.082-.858-3.518-1.296-3.02-3.044.321-1.123.819-3.308 1.109-4.856Zm-171.522 22c5.503-6.554 6.614-16.08 2.521-21.628l-1.935-2.623 4.219 1.568c3.518 1.306 4.371 2.116 5.136 4.877.505 1.821.92 3.958.923 4.748.007 1.576-2.146 9.841-3.206 12.314-.599 1.398.718 1.586 13.209 1.879 12.732.298 14.317.532 19.249 2.846 11.302 5.302 22.334 14.307 27.42 22.382 5.648 8.965 6.496 21.489 2.102 31.041-4.533 9.854-16.278 20.026-29.561 25.602-8.315 3.49-22.763 5.539-34.356 4.872-10.001-.575-26.356-4.231-30.19-6.748-2.282-1.499-2.403-1.446-6.248 2.752-2.45 2.672-6.29 5.389-10.234 7.239-5.939 2.786-6.82 2.938-14.926 2.581-10.808-.477-15.775-2.694-23.675-10.573-7.639-7.62-8.91-11.57-9.67-30.039-.32-7.76-.886-14.594-1.26-15.185-.373-.591.131-2.069 1.12-3.284 2-2.457 1.994-2.464 3.844 4.765.643 2.51.83 6.973.471 11.258-1.794 21.423 11.915 37.589 31.879 37.589 6.91 0 11.251-1.212 14.196-3.965 3.21-2.999 6.78-10.411 6.773-14.064-.012-7.333-4.493-16.386-9.263-18.71-2.362-1.151-2.488-1.473-1.51-3.863l1.065-2.606 3.72 2.701c6.88 4.995 11.791 12.315 13.042 19.442 1.272 7.245 3.848 9.368 14.483 11.939 7.897 1.908 17.229 2.865 27.148 2.782 12.426-.104 19.464-3.137 35.695-15.385 12.125-9.15 15.805-15.868 14.013-25.582-1.341-7.265-4.493-12.443-11.893-19.534-11.914-11.418-21.022-15.286-35.357-15.016-10.414.196-15.102 1.378-16.603 4.186-1.958 3.668 2.35 8.043 8.365 8.497 2.54.192 2.547.727.05 3.413-1.641 1.765-2.572 2.027-5.352 1.504-3.793-.714-8.117-3.487-9.515-6.104-2.279-4.269-.381-12.518 4.111-17.868Zm167.205-7.417c0-.385.472-2.055 1.048-3.712.649-1.864 1.518-2.831 2.282-2.537.679.261 2.978.945 5.11 1.52l3.876 1.046-.637 3.932c-.35 2.162-.963 4.279-1.36 4.705-.767.821-10.319-3.765-10.319-4.954Zm-223.503 4.789c-.81.812-1.038.583-.925-.927.1-1.321.466-1.689 1.076-1.078.61.611.558 1.295-.15 2.005Zm221.721 1.913c.441-1.904.812-3.808.824-4.232.017-.569 8.478 3.636 11.055 5.492.372.269-1.403 7.989-1.968 8.556-.255.255-2.77-1.071-5.589-2.947-5.082-3.382-5.118-3.438-4.322-6.869Zm-226.002 3.507c-.392-3.319-.207-5.418.56-6.351.94-1.143 1.196-.526 1.428 3.448.407 6.95-1.228 9.336-1.988 2.903Zm-3.801 7.826c-1.11-5.842-1.082-6.871.255-9.09l1.507-2.503.778 6.289c.71 5.739.179 13.359-.86 12.319-.235-.236-.992-3.393-1.68-7.015Zm226.989 1.022c-.212-.178.124-2.024.746-4.103l1.13-3.779 5.105 3.995c5.055 3.957 5.822 5.626 4.325 9.415-.578 1.46-1.217 1.263-5.786-1.781-2.825-1.882-5.31-3.568-5.52-3.747Zm228.974 4.531c-.299.748-.521.526-.566-.567-.04-.989.181-1.542.492-1.231.311.312.344 1.121.074 1.798Zm-2.181 23.512c.252-.902.98-5.335 1.618-9.85.639-4.515 1.515-8.209 1.946-8.209 1.12 0 .954 2.463-.6 8.912-.746 3.096-1.371 6.79-1.389 8.209-.019 1.42-.483 2.58-1.033 2.58-.549 0-.793-.739-.542-1.642Zm-51.902 29.64c-.606-5.565-.797-12.74-.429-16.183.364-3.402.828-6.186 1.031-6.186.203 0 1.008 1.238 1.79 2.753.781 1.513 3.66 5.207 6.398 8.208 8.508 9.327 11.419 14.829 9.237 17.464-.544.657-2.282 3.805-3.863 6.998-2.609 5.27-3.065 5.725-4.966 4.956-1.152-.465-3.205-1.084-4.562-1.372-2.816-.599-2.934-1.024-4.636-16.638Zm26.915 1.319c-.259.646-.472.118-.472-1.172s.213-1.818.472-1.173c.26.645.26 1.701 0 2.345Zm-3.428 3.831c0-1.548.281-3.096.624-3.439 1.133-1.137 1.281-.66.744 2.395-.707 4.021-1.368 4.525-1.368 1.044Zm32.77 8.131c-1.743 0-1.68-1.498.146-3.445 1.122-1.197 2.195-2.022 2.384-1.832.502.502-1.787 5.277-2.53 5.277Zm-5.777 4.911c-.858-.86-.721-1.546.6-3.01 1.342-1.486 1.995-1.659 3.024-.803 1.11.923 1.016 1.392-.599 3.01-1.477 1.479-2.167 1.662-3.025.803Zm-35.652 2.341c-1.085-.381-1.168-2.319-.219-5.141.739-2.201 1.389-1.178 1.389 2.188 0 2.283-.376 3.23-1.17 2.953Zm-28.139 7.758c.542-4.738 2.229-7.103 6.366-8.925 8.293-3.655 18.079-.417 27.235 9.011 3.045 3.137 7.666 7.307 10.269 9.268 5.37 4.049 16.894 10.142 15.787 8.347-.401-.651.662-.19 2.363 1.025 2.995 2.136 3.077 2.368 2.572 7.277-.288 2.788-1.814 7.835-3.393 11.216-1.578 3.381-2.87 6.918-2.87 7.862 0 2.123-1.506 3.18-2.42 1.697-.452-.732-.27-.845.548-.339.774.479.999.391.609-.241-.652-1.057-1.618-1.031-5.093.138-1.707.575-2.9.037-5.854-2.637-4.457-4.035-7.021-4.503-3.289-.6 1.515 1.585 2.409 3.352 2.102 4.153-.293.767.003 1.842.659 2.387.872.725 1.193.628 1.193-.36 0-.743-.417-1.093-.925-.778-.522.323-.63.094-.247-.526.938-1.52 2.31-.475 1.99 1.516-.145.901.158 2.483.672 3.515.672 1.347.111 1.099-1.993-.879-1.612-1.515-2.93-2.32-2.93-1.788 0 .533.845 1.735 1.878 2.672s1.661 1.922 1.395 2.188c-.266.267-1.713-.696-3.216-2.139-2.219-2.13-2.671-2.294-2.403-.87.182.965.362 2.071.402 2.457.04.387.809.738 1.71.778.901.04 1.138.278.528.527-1.268.518-21.948-10.6-28.578-15.364-6.711-4.823-21.332-24.659-21.332-28.941 0-1.131.789-3.033 1.752-4.225l1.751-2.168 1.473 2.854c1.339 2.596 1.339 2.987-.001 4.329-1.881 1.886-1.096 5.227 2.13 9.068 2.757 3.284 5.951 3.717 11.2 1.519l3.265-1.367 5.227 5.238c6.341 6.355 22.348 16.184 18.201 11.176-.606-.731-3.922-3.04-7.369-5.13-3.447-2.091-7.021-4.864-7.942-6.164-.921-1.299-4.291-4.131-7.489-6.29-13.931-9.409-16.78-13.073-15.933-20.487Zm61.915-6.686c-2.511 1.572-4.391 0-2.525-2.113 1.585-1.794 2.183-1.848 3.458-.309.747.902.509 1.52-.933 2.422Zm57.869 2.785c-.105-.692-.516-1.781-.915-2.421-.483-.774-.279-.99.612-.648.735.283 1.336 1.562 1.336 2.843 0 2.368-.687 2.518-1.033.226Zm-62.254 1.593c-2.383 3.037-4.518 1.161-2.193-1.928.868-1.153 2.106-1.893 2.753-1.644 1.55.596 1.492.958-.56 3.572Zm-6.011 5.543c-1.23-.473-1.317-.923-.45-2.315.844-1.354 1.463-1.518 2.872-.762 1.565.838 1.623 1.139.451 2.313-.741.743-2.035 1.087-2.873.764Zm47.064 12.015c0-5.244 5.818-11.81 12.289-13.867 2.251-.716 5.568-1.214 7.37-1.108 2.79.165 3.729.873 6.319 4.756 1.674 2.51 3.009 5.254 2.969 6.098-.047.973-.247 1.107-.546.363-.273-.678-2.118-1.166-4.373-1.159-5.583.018-7.933.829-7.671 2.647.124.859.045 1.034-.177.389-.221-.645-.818-1.173-1.325-1.173s-.665.418-.349.931c.315.512.143 1.672-.384 2.58-.528.907-.972 1.251-.988.766-.015-.486-.651-.064-1.414.938-1.154 1.516-1.533 1.599-2.259.491-.688-1.05-1.273-.669-2.778 1.811-1.835 3.024-1.871 5.288-.065 4.17.479-.297.871-.118.871.398s-.416 1.197-.926 1.512c-1.246.772-6.563-7.768-6.563-10.543Zm-50.856-8.362c-.338-.34-.146-1.184.427-1.876 1.194-1.442 2.355-1.617 3.067-.463.271.438-.532 1.689-1.783 2.78-1.272 1.108-2.521 1.584-2.832 1.079-.306-.496-.04-.903.591-.903s.869-.277.53-.617Zm71.919 5.648c-.772.296-1.404.13-1.404-.369 0-.5.632-.909 1.404-.909.773 0 1.405.166 1.405.369 0 .202-.632.611-1.405.909Zm5.383-.657c-.643.261-1.696.261-2.34 0-.643-.26-.117-.473 1.17-.473s1.814.213 1.17.473Zm-17.581 12.019c1.66-3.877 5.059-6.778 10.43-8.905 3.621-1.434 8.551-1.755 9.366-.61.063.087 1.89 3.428 4.063 7.424 2.173 3.997 4.323 7.498 4.779 7.781.456.282 1.497 1.924 2.314 3.648.817 1.725 3.893 6.034 6.837 9.577 8.987 10.814 11.353 14.099 13.206 18.326 4.496 10.265-3.847 16.731-15.121 11.723-7.192-3.195-21.534-17.668-24.031-24.251-.775-2.044-.489-3.159 1.704-6.623 1.976-3.123 2.409-4.572 1.73-5.786-.851-1.525-.978-1.52-2.15.086-.685.939-1.701 1.707-2.257 1.707-.557 0-1.012.317-1.012.704 0 2.643.164 2.865 1.022 1.387.531-.913 1.426-1.376 1.989-1.028.589.366.757.204.395-.383-.346-.561-.237-1.261.241-1.558.479-.295.745.203.593 1.108-.152.905-.799 1.524-1.437 1.374-.716-.168-.941.299-.588 1.221.377.985.202 1.266-.512.823-.711-.44-.891-.165-.522.796.594 1.554-1.45 1.758-2.792.28-.401-.441-.148-.465.563-.053.882.513 1.154.338.857-.553-.238-.717-.931-1.303-1.54-1.303-1.258 0-3.895-3.659-7.12-9.876-1.95-3.761-2.065-4.565-1.007-7.036Zm-1.476-1.382c-1.256 0-1.004-1.652.334-2.194a104.17 104.17 0 0 1 1.376-.547c.112-.04-.039.56-.335 1.334-.296.774-.915 1.407-1.375 1.407Zm-11.045 3.229c-.35.217-.699-.527-.776-1.652-.136-1.997-.107-2.001 1.21-.225.869 1.172 1.35 1.367 1.35.547 0-.7.277-.996.616-.656.339.339 1.205.126 1.925-.472.72-.599 1.196-.701 1.058-.226-.139.474.26 1.786.885 2.916 1.133 2.044-.014 4.102-1.208 2.168-.328-.533-.941-.755-1.363-.495-.42.261-1.281-.15-1.913-.913-.632-.762-1.434-1.209-1.784-.992Zm4.761 5.579c-.491.304-1.385-.042-1.988-.769-.863-1.043-.792-1.277.336-1.111 1.933.284 2.742 1.205 1.652 1.88Zm-6.884 6.671 2.017-3.049c2.218-3.351 2.442-3.492 3.308-2.087.327.528.197.845-.288.704-.486-.142-1.817.797-2.96 2.087l-2.077 2.345Zm-39.401 11.837c-1.282-1.007-1.409-1.588-.569-2.603.594-.717 1.126-1.189 1.182-1.047.055.141 1.154 1.523 2.441 3.071l2.34 2.815-2.4-2.111c-2.852-2.507-4.447-2.792-2.629-.469 1.167 1.49 1.133 1.522-.365.344Zm-61.247 17.715c-.826 0-1.229-1.334-1.229-4.065 0-3.032.366-4.066 1.439-4.066 1.106 0 1.391.942 1.23 4.066-.136 2.624-.646 4.065-1.44 4.065Zm3.452 0c-.515 0-.936-1.689-.936-3.753 0-2.063.421-3.752.936-3.752.515 0 .936 1.689.936 3.752 0 2.064-.421 3.753-.936 3.753Zm3.744.469c-.572.355-.936-1.084-.936-3.697 0-2.352.421-4.277.936-4.277.515 0 .936 1.663.936 3.697s-.421 3.958-.936 4.277Zm2.809.938c-.515-.319-.936-2.243-.936-4.277 0-2.034.421-3.697.936-3.697.515 0 .936 1.925.936 4.277 0 2.613-.364 4.052-.936 3.697Z" fill="#201B19"/><path fill-rule="evenodd" clip-rule="evenodd" d="M95.94 690.054c-1.018 1.649-10.816 30.278-16.45 48.056-3.227 10.19-6.185 18.528-6.572 18.528-.386 0-1.16-2.427-1.72-5.394-.56-2.968-1.328-6.977-1.705-8.912l-.686-3.518-4.681 5.698c-2.575 3.133-7.095 9.08-10.046 13.214l-5.364 7.519 1.586 2.967c1.175 2.198 1.728 6.373 2.134 16.102.493 11.792.821 13.737 3.225 19.044 4.998 11.034 15.196 17.462 27.656 17.433 8.585-.02 13.463-2.968 17.209-10.397 3.87-7.676-.372-20.632-7.759-23.699l-2.833-1.175 1.86-3.652c1.022-2.009 2.173-3.652 2.558-3.652 1.128 0 8.008 4.9 9.816 6.992 4.608 5.327 7.348 10.297 8.567 15.533.753 3.231 2.1 6.349 3.049 7.056 5.353 3.989 34.294 8.105 43.332 6.162 7.045-1.514 15.029-5.03 21.646-9.533 15.534-10.573 21.315-18.334 20.074-26.95-1.062-7.373-4.645-13.92-11.01-20.121-7.793-7.593-12.729-10.621-22.08-13.549-6.663-2.085-8.918-2.364-15.687-1.941-7.978.498-12.574 2.252-12.574 4.799 0 2.148 3.455 4.485 7.417 5.017 2.099.282 3.817.724 3.817.983 0 1.731-4.292 6.891-6.112 7.349-3.232.812-8.43-1.212-12.159-4.736-2.944-2.783-3.26-3.575-3.26-8.167 0-5.336 1.552-9.058 7.021-16.832 2.319-3.296 2.808-4.917 2.808-9.29 0-7.978-2.437-10.913-13.499-16.254-4.932-2.382-13.495-6.837-19.03-9.901-5.533-3.063-10.28-5.214-10.548-4.779ZM394.679 502.643c-3.367 7.12-5.811 10.718-10.985 16.177-9.84 10.381-10.609 10.733-24.953 11.421l-12.132.581-.63 9.008c-.934 13.361-4.109 39.872-5.772 48.2l-1.456 7.296 3.326 5.961c6.097 10.927 15.347 16.662 27.873 17.281 6.198.306 7.923.021 12.453-2.058 6.774-3.107 9.203-5.071 14.12-11.418 4.762-6.146 6.355-10.427 5.661-15.219-.279-1.929-.523-3.82-.543-4.201-.02-.38-1.609-1.35-3.533-2.155-5.07-2.123-7.461-4.757-9.691-10.677-3.569-9.469-1.884-17.974 4.753-23.993l2.056-1.864 2.799 3.14 2.8 3.14-2.652 2.774c-5.341 5.587-2.594 14.383 5.547 17.762 3.519 1.461 16.839-.224 22.858-2.891 4.627-2.051 11.652-8.324 15.238-13.605 10.29-15.161 5.637-34.669-10.177-42.669-9.247-4.677-15.176-5.985-21.109-4.654-6.408 1.437-7.978.435-8.013-5.115-.014-2.131-.808-5.562-1.765-7.626l-1.743-3.752-4.33 9.156Z" fill="#201B19"/><path fill-rule="evenodd" clip-rule="evenodd" d="M427.349 78.351c-3.089.454-10.04 2.138-15.446 3.745-25.115 7.46-47.815 23.23-60.81 42.245-3.167 4.635-5.547 8.427-5.286 8.427.26 0 2.284-1.201 4.498-2.669 2.214-1.468 7.072-4.298 10.796-6.287 5.909-3.157 6.72-3.901 6.368-5.849-.337-1.859-.178-2.043.952-1.103 1.617 1.345 1.807 2.226.274 1.277-.675-.418-.825-.257-.402.429.372.604 1.092.842 1.599.527.566-.35.366-1.423-.517-2.773-1.353-2.069-1.327-2.179.441-1.839 1.148.222 3.223-.804 5.33-2.637l3.451-2.999-2.627 3.488c-1.444 1.92-2.902 3.397-3.24 3.284-.671-.225-1.081.625-1.081 2.242 0 .571 2.633-1.406 5.851-4.393 13.648-12.668 33.38-21.802 52.19-24.16l4.212-.528-4.212 1.121c-2.317.617-4.739 1.463-5.383 1.88-.643.418-1.657.458-2.252.09-.606-.376-.828-.261-.505.262.315.512-.989 1.816-2.898 2.897-1.91 1.08-5.789 4.105-8.621 6.723-4.302 3.974-4.764 4.688-2.809 4.335 1.287-.232 4.424-.694 6.972-1.027 3.398-.445 5.642-1.475 8.425-3.869 4.214-3.623 17.222-10.311 21.581-11.095 1.576-.283.734.27-1.92 1.262-6.534 2.442-10.277 4.443-16.721 8.937l-5.537 3.86 6.473.469c4.986.362 7.009.12 8.812-1.054 7.557-4.922 22.967-11.233 27.084-11.09.807.026-1.692.99-5.553 2.142-3.862 1.152-10.546 3.979-14.854 6.283l-7.833 4.188 6.277 1.152c5.301.971 6.797.932 9.615-.248 1.836-.768 3.497-1.238 3.692-1.042.195.195-.99.913-2.634 1.595l-2.988 1.241 6.169 2.086c5.839 1.973 6.43 2.009 11.009.664 3.058-.898 7.344-1.294 11.647-1.077l6.808.345-1.938-4c-1.146-2.363-2.629-4.047-3.625-4.116a61.375 61.375 0 0 1-2.856-.268c-.643-.082-4.525.373-8.625 1.012s-7.599 1.018-7.774.842c-.695-.696 9.906-2.731 14.6-2.801l4.988-.075-3.46-3.01c-4.335-3.77-14.009-7.605-21.963-8.708l-6.085-.844 7.489.259c12.527.431 23.976 7.102 28.823 16.794 7.836 15.67 6.985 29.035-4.864 76.325-11.82 47.176-24.498 85.495-44.961 135.897-5.238 12.899-10.337 25.459-11.331 27.91-.995 2.45-1.62 4.456-1.389 4.456.231 0 2.194-2.638 4.363-5.864 2.168-3.224 5.301-7.552 6.959-9.616 2.84-3.532 28.442-41.855 33.062-49.487 2.305-3.809 3.682-4.85 1.862-1.407-.613 1.161-3.847 6.332-7.187 11.492-5.41 8.358-6.809 11.6-12.83 29.714-6.088 18.314-6.563 20.258-4.781 19.587 2.468-.932 5.164.047 7.594 2.757 1.503 1.676 1.872 3.408 1.871 8.788-.001 6.162-.383 7.474-4.748 16.317-2.61 5.289-4.636 9.616-4.5 9.616.482 0 16.096-21.22 20.71-28.145 8.891-13.342 27.324-52.554 37.488-79.742 9.792-26.195 15.849-48.625 20.053-74.26 1.675-10.215 2.057-16.405 2.075-33.628.023-22.663-.564-27.217-4.834-37.526-8.272-19.975-23.236-35.306-42.163-43.203-13.332-5.562-35.042-8.486-48.42-6.523Zm41.301 225.781c-1.695 3.137-1.995 2.4-.427-1.049.599-1.317 1.264-2.218 1.478-2.004.214.215-.259 1.588-1.051 3.053Zm-1.872 10.32c-1.696 3.136-1.995 2.4-.427-1.05.599-1.316 1.264-2.218 1.478-2.004.214.215-.259 1.589-1.051 3.054Zm6.325 9.425c-.181-.182.587-2.508 1.709-5.168 1.121-2.659 2.199-4.675 2.395-4.479.196.197-.573 2.521-1.709 5.167-1.136 2.646-2.213 4.662-2.395 4.48Zm-8.662-3.784c-1.103 1.902-1.369 1.293-.466-1.066.32-.838.781-1.327 1.021-1.085.242.241-.008 1.209-.555 2.151Zm2.889 11.613c-.151-.416.774-3.13 2.055-6.032 3.2-7.252 3.732-6.668.69.755-1.359 3.318-2.594 5.691-2.745 5.277Zm-5.725-4.643c-2.225 5.023-2.549 4.235-.437-1.056.836-2.096 1.687-3.644 1.891-3.439.205.204-.451 2.227-1.454 4.495Zm0 6.567c-2.225 5.023-2.549 4.235-.437-1.056.836-2.096 1.687-3.644 1.891-3.439.205.204-.451 2.227-1.454 4.495Zm-.834 7.505c-.158-.474.346-2.378 1.119-4.232 2.001-4.799 2.495-4.179.686.861-.835 2.329-1.647 3.846-1.805 3.371Z" fill="#FAF5E5"/></svg>