<svg xmlns="http://www.w3.org/2000/svg" width="382" height="351" fill="none"><path fill-rule="evenodd" clip-rule="evenodd" d="M352.457 2.894c-16.033-3.44-30.636-2.787-42.036 1.882-9.033 3.701-13.304 6.757-18.975 13.582l-4.71 5.668-3.265-1.15c-2.1-.74-5.482-.74-9.479-.002-4.711.871-6.931.79-9.179-.33-4.473-2.23-7.741-1.749-11.61 1.71-5.274 4.717-9.411 6.71-17.677 8.519-6.38 1.395-8.683 2.402-13.531 5.92-5.041 3.658-6.709 4.356-12.154 5.083-6.621.886-8.211 2.01-9.501 6.72-.573 2.09-1.703 2.942-8.611 6.497-7.761 3.992-7.99 4.182-9.525 7.902-.865 2.096-4.443 7.65-7.951 12.343-6.778 9.068-8.395 12.754-8.474 19.323-.042 3.43-.765 4.64-6.418 10.727-3.508 3.777-3.673 4.158-3.709 8.542-.02 2.523-.234 4.858-.475 5.187-.24.33-1.866.449-3.615.264-9.839-1.041-16.188.989-20.231 6.469-1.296 1.757-3.816 3.635-6.794 5.064-8.921 4.281-11.838 9.264-9.681 16.537.754 2.545.649 4.977-.351 8.057-2.004 6.173-1.878 9.115.752 17.524 1.263 4.039 2.356 10.12 2.429 13.514.169 7.974 1.139 10.903 4.685 14.158 2.118 1.944 2.858 3.292 2.768 5.046-.166 3.271 1.525 6.372 7.544 13.839 6.143 7.62 8.528 9.48 13.137 10.242 5.524.914 8.721 2.8 10.444 6.159 1.259 2.456 1.227 3.701-.189 7.508-1.526 4.101-1.5 4.947.25 8.363 1.942 3.788 1.88 7.307-.183 10.265-.567.813-.987 2.715-.934 4.225l.098 2.747-4.226-1.78c-3.001-1.263-5.727-1.606-9.401-1.182-5.662.653-10.962.38-14.152-.73-1.127-.392-4.698-.174-7.934.485-3.236.659-8.515.828-11.732.375-4.01-.565-7.355-.328-10.636.753-2.632.867-5.459 1.396-6.28 1.175-.82-.222-1.132-.459-.692-.528.44-.07 1.237-2.718 1.77-5.884 1.18-7.009-1.46-24.171-4.551-29.599-3.05-5.352-15.401-15.965-23.162-19.899-5.042-2.557-18.826-6.316-19.544-5.331-.118.162-.64 3.721-1.158 7.909-.52 4.188-1.126 9.082-1.35 10.876-.261 2.089-.747 3.166-1.352 2.998-7.772-2.174-32.54-3.395-33.928-1.673-1.074 1.333-.38 12.434 1.185 18.925 1.08 4.482 2.33 7.339 3.91 8.929 1.276 1.286 2.202 2.5 2.058 2.698-.145.199-3.207 1.797-6.804 3.552-3.598 1.756-6.83 3.588-7.183 4.072-.832 1.141 3.533 8.662 9.1 15.682 13.017 16.41 31.582 24.988 49.643 22.934l5.367-.611 1.203 2.907c.914 2.209 2.486 3.844 6.544 6.806 4.612 3.368 5.533 4.418 6.75 7.699 1.648 4.44 3.969 5.873 9.96 6.15 5.848.269 10.589 1.992 17.834 6.481 5.589 3.464 7.729 4.291 14.061 5.439 6.694 1.212 7.941 1.721 12.003 4.904 4.856 3.805 6.856 4.239 10.023 2.174 2.253-1.469 7.234-1.04 11.235.968 4.88 2.449 9.411 2.81 13.245 1.054 1.919-.877 7.16-1.953 11.647-2.39 9.666-.941 14.966-2.863 21.374-7.75 4.352-3.32 5.112-3.574 9.638-3.22 6.715.525 8.646-.409 14.536-7.029 3.668-4.123 6.716-6.663 11.067-9.221 10.26-6.033 15.107-13.334 18.787-28.304 1.301-5.291 2.143-6.913 7.415-14.287 6.129-8.575 7.054-10.712 9.646-22.322.538-2.411 1.257-4.766 1.597-5.232.864-1.184 6.922-.286 12.83 1.905 6.864 2.544 12.674 2.981 16.964 1.277 1.995-.793 5.623-1.395 8.062-1.338 10.077.231 14.96-2.055 20.446-9.575 2.571-3.525 4.901-5.75 8.317-7.943 7.073-4.542 8.162-5.722 10.634-11.526 1.646-3.864 2.941-5.865 4.752-7.34 7.3-5.951 10.085-11.267 9.254-17.661-.298-2.289.102-5.697.911-7.768 3.801-9.737 2.971-14.712-3.21-19.228-2.893-2.114-5.1-4.537-7.085-7.78-3.248-5.304-5.71-7.361-13.523-11.293-4.23-2.13-6.469-3.786-10.15-7.512-5.532-5.599-8.174-6.952-12.561-6.431-2.555.304-4.028-.166-7.223-2.302-4.113-2.748-4.857-2.917-18.564-4.217-6.244-.593-7.189-.405-12.089 2.4-9.551 5.466-13.533 4.932-17.098-2.295-2.469-5.004-3.106-5.557-7.32-6.345-3.117-.582-3.218-.685-5.369-5.498-1.206-2.698-2.696-5.272-3.312-5.722-1.462-1.066-1.246-1.28 2.918-2.903 2.592-1.011 4.63-2.675 7.767-6.346 2.338-2.735 6.178-6.245 8.531-7.797 3.198-2.11 4.768-3.72 6.213-6.377 1.358-2.497 3.563-4.876 7.412-7.997 4.349-3.526 6.126-5.528 8.621-9.71l3.143-5.269 4.122 5.652c3.697 5.071 5.025 6.27 12.905 11.66 8.005 5.475 9.216 6.064 13.663 6.642 7.066.918 21.935-.847 29.147-3.46 7.121-2.58 16.815-8.907 15.795-10.308-3.563-4.89-10.139-13.217-10.87-13.763-2.632-1.966-1.994-3.02 4.719-7.79 5.808-4.127 19.685-17.317 19.496-18.53-.038-.25-1.931-2.312-4.205-4.584-5.994-5.988-15.223-11.416-19.604-11.53l-3.466-.09 2.529-7.799c1.579-4.873 2.183-8.138 1.609-8.703-.506-.499-2.969-1.346-5.473-1.883Zm-2.133 2.203c-16.501-2.72-27.701-2.177-37.945 1.843-8.617 3.381-13.803 6.972-19.04 13.184l-4.451 5.279 6.401 7.66c8.123 9.724 8.304 10.107 6.176 13.025-1.435 1.967-1.529 3.526-.569 9.445 1.237 7.633.651 9.396-3.512 10.57l-2.669.752 3.045 4.146c2.345 3.191 5.117 5.635 12.029 10.604 10.762 7.737 11.99 8.056 26.168 6.792 10.365-.924 19.741-3.92 25.185-8.047l3.327-2.522-4.316-5.852c-10.672-14.47-26.953-22.969-39.289-20.508-5.83 1.163-17.009 1.117-18.647-.078-2.006-1.463.532-2.377 5.326-1.916 10.944 1.05 22.363-2.659 30.288-9.84 5.634-5.106 12.088-15.518 15.296-24.678 2.975-8.499 2.854-8.927-2.803-9.86Zm12.279 20.629c-1.9-1.014-4.816-1.793-6.48-1.731l-3.027.112-7.046 9.39c-5.938 7.914-7.721 9.814-11.329 12.07-2.356 1.472-4.315 2.721-4.356 2.776-.041.055 2.308.898 5.216 1.873 2.91.975 7.794 3.334 10.854 5.243l5.563 3.472 3.94-2.333c5.401-3.2 13.044-9.624 17.81-14.969l3.974-4.455-3.364-3.133c-3.833-3.57-6.809-5.675-11.755-8.315Zm-80.594-.615c-1.228-.302-4.719-.064-7.76.531-3.989.78-6.559.684-9.227-.346-5.724-2.21-6.225-2.126-11.132 1.878-5.553 4.533-10.005 6.56-18.954 8.632-5.342 1.237-7.931 2.437-12.34 5.716-4.821 3.586-6.441 4.269-11.91 5.014l-6.329.864-1.419 3.798c-1.403 3.756-1.508 3.843-9.401 7.905-7.634 3.927-8.028 4.246-9.018 7.317-.569 1.766-2.616 5.166-4.548 7.555-8.911 11.017-10.98 15.125-11.48 22.793-.278 4.267-1.641 6.608-6.997 12.012-2.904 2.929-3.164 3.523-3.091 7.052l.08 3.852 3.365-1.207c3.771-1.352 8.367-1.221 13.769.394 1.997.597 6.528.697 10.068.219 10.487-1.41 10.858-1.273 24.451 9.032l11.801 8.946 4.164 8.008 4.165 8.009 10.402 6.895c13.661 9.056 14.384 10.04 16.97 23.121 2.066 10.443 2.648 11.617 9.268 18.677 4.486 4.784 5.195 8.175 3.12 14.934-1.47 4.791-1.481 5.739-.074 6.55 1.13.651 1.378 1.329.794 2.162-.472.672-.1 3.016.836 5.261 1.442 3.463 2.08 9.593 1.508 14.498-.126 1.078.669 1.428 4.121 1.812 2.352.263 7.093 1.49 10.535 2.727 5.784 2.08 6.899 2.137 14.712.768 4.65-.815 10.234-1.48 12.41-1.477 5.924.008 9.861-2.342 14.438-8.617 2.958-4.056 4.982-5.971 8.926-8.447 4.516-2.834 5.422-3.768 7.894-8.134 1.536-2.712 4.009-6.418 5.495-8.235 1.486-1.817 4.478-5.665 6.647-8.551 3.878-5.16 3.934-5.323 3.33-9.701-.37-2.678-.04-5.923.826-8.141 1.963-5.03 2.632-9.947 1.666-12.256-.445-1.061-2.505-3.055-4.605-4.456-2.811-1.875-4.701-3.982-7.261-8.088l-3.46-5.551-7.566-4.118c-6.032-3.283-8.53-5.077-12.331-8.854-5.295-5.262-6.615-5.888-11.266-5.344-2.618.307-3.947-.141-7.26-2.447-3.596-2.504-5.13-2.929-13.551-3.754-9.843-.964-11.656-.66-16.56 2.766-3.916 2.737-9.945 3.597-13.464 1.922-2.217-1.056-3.39-2.383-5.397-6.11-2.458-4.563-2.687-4.779-5.51-5.212-4.073-.626-4.941-1.439-7.397-6.934-1.179-2.64-2.59-4.833-3.134-4.874-.544-.042-1.379-.886-1.855-1.876-1.007-2.092.36-3.443 5.52-5.45 2.356-.917 4.49-2.681 7.455-6.165 2.285-2.684 6.032-6.102 8.325-7.598 3.175-2.068 4.694-3.644 6.36-6.599 1.633-2.897 3.513-4.88 7.412-7.818 4.036-3.042 5.683-4.803 7.239-7.742 3.191-6.027 4.168-6.98 8.731-8.53 2.364-.802 4.45-2.019 4.634-2.703.186-.684-.242-3.616-.95-6.517-1.005-4.115-.954-5.99.229-8.534l1.516-3.26-4.641-5.812c-5.759-7.213-10.383-11.444-13.294-12.162ZM274.309 40c-.414.568-.444 1.259-.066 1.534.378.276 1.027.037 1.441-.53.414-.569.444-1.26.066-1.535-.378-.276-1.027-.037-1.441.531Zm-6.253-2.979a.854.854 0 0 0 .185 1.19.854.854 0 0 0 1.19-.187.854.854 0 0 0-.185-1.19.854.854 0 0 0-1.19.187Zm-9.238 2.834c-.161.506.001 1.134.36 1.396s1.007.224 1.439-.084c.432-.308.271-.936-.36-1.396-.63-.46-1.277-.422-1.439.084Zm-6.598-2.782c-.276.378-.038 1.026.529 1.44.567.414 1.257.443 1.533.064s.038-1.027-.529-1.44c-.567-.415-1.257-.443-1.533-.065Zm-2.235 5.43c-1.339.21-1.629 1.244-.566 2.02.567.413 1.244.46 1.504.104.633-.869.013-2.273-.938-2.124Zm-7.003-2.597c-.161.506.001 1.134.36 1.396s1.007.224 1.439-.084c.432-.308.271-.936-.36-1.396-.63-.46-1.277-.421-1.439.084Zm109.791 82.832c-1.584-.619-4.128.937-4.257 2.604-.048.609.63 2.291 1.504 3.736 2.13 3.519 5.567 4.536 7.299 2.161 2.286-3.133.461-6.545-4.546-8.501Zm-113.215-76.97c-.276.378-.038 1.026.529 1.44.567.414 1.257.443 1.533.064.277-.379.039-1.027-.529-1.44-.567-.415-1.257-.443-1.533-.065Zm-5.409-3.214c-1.34.21-1.629 1.244-.566 2.02.567.413 1.244.46 1.504.104.633-.868.013-2.273-.938-2.124Zm-3.264 5.999c-.951.15-1.115 1.678-.248 2.31.356.26.986.007 1.4-.56.777-1.065.187-1.96-1.152-1.75Zm-6.727-1.889c-.46.632-.423 1.28.083 1.44.505.16 1.133-.002 1.395-.361.263-.36.226-1.008-.082-1.44-.307-.432-.935-.27-1.396.361Zm3.175 8.644c-.461.632-.423 1.28.082 1.44.505.16 1.134-.002 1.396-.362.262-.359.225-1.007-.083-1.44-.307-.431-.935-.27-1.395.362Zm-5.961-3.38c-.437.6-.305 1.447.294 1.884 1.214.885 2.084-.751 1.12-2.106-.341-.478-.976-.378-1.414.222Zm-6.546-2.578c-.46.632-.423 1.28.083 1.44.505.16 1.133-.002 1.396-.362.262-.359.225-1.007-.083-1.44-.307-.431-.935-.269-1.396.362Zm4.019 8.41c-1.34.21-1.629 1.244-.566 2.02.567.413 1.243.46 1.503.103.634-.868.013-2.273-.937-2.123Zm-7.003-2.597c-.161.506 0 1.134.359 1.396s1.007.224 1.439-.084c.433-.308.271-.936-.359-1.396-.63-.46-1.278-.422-1.439.084Zm3.516 9.342c-.414.568-.444 1.258-.066 1.534.379.276 1.027.037 1.441-.531.414-.568.444-1.259.066-1.535-.378-.275-1.027-.036-1.441.532Zm-6.846-3.333c-.161.506.001 1.135.359 1.396.359.262 1.007.224 1.439-.084.433-.308.271-.936-.359-1.396-.63-.46-1.278-.421-1.439.084Zm-5.438-3.371c-.95.15-1.114 1.677-.247 2.31.356.26.986.007 1.4-.561.776-1.065.187-1.96-1.153-1.75Zm9.3 12.517c-.162.505 0 1.134.359 1.396.359.261 1.007.224 1.439-.085.432-.308.271-.936-.359-1.396-.631-.46-1.278-.421-1.439.085Zm-6.599-2.783c-.276.379-.038 1.027.529 1.44.567.414 1.257.443 1.534.064.276-.378.038-1.027-.529-1.44-.568-.414-1.258-.443-1.534-.064Zm-6.253-2.979c-.414.568-.444 1.258-.066 1.534s1.027.037 1.441-.531c.414-.568.444-1.258.066-1.534s-1.027-.037-1.441.531Zm10.366 11.78c-.414.568-.444 1.258-.066 1.534s1.027.037 1.441-.531c.414-.568.444-1.258.066-1.534s-1.027-.037-1.441.531Zm-6.282-3.38c-.951.148-1.114 1.677-.247 2.309.356.26.985.007 1.4-.56.776-1.065.186-1.96-1.153-1.75Zm-7.068-2.587c-.162.506 0 1.134.359 1.396s1.007.224 1.439-.084c.432-.309.271-.937-.359-1.396-.631-.46-1.278-.422-1.439.084Zm3.767 8.997c-.276.379-.038 1.027.529 1.44.567.415 1.257.443 1.533.065.277-.38.039-1.027-.529-1.441-.567-.414-1.257-.442-1.533-.064Zm-5.534-3.123c-.646.264-1.124.801-1.063 1.194.166 1.065 1.497.648 1.893-.593.278-.869.115-.987-.83-.6Zm2.64 9.978c-.46.631-.423 1.279.083 1.44.505.16 1.133-.002 1.396-.362.262-.36.225-1.007-.083-1.44-.307-.431-.935-.27-1.396.362Zm-6.689-3.825A1.281 1.281 0 0 0 191 84.18a1.28 1.28 0 0 0 1.784-.28 1.28 1.28 0 0 0-.278-1.785 1.28 1.28 0 0 0-1.784.28Zm3.611 9.49c-.277.379-.039 1.027.529 1.44.567.414 1.257.443 1.533.064.276-.378.038-1.027-.529-1.44-.567-.414-1.257-.443-1.533-.064Zm-6.212-3.036c-.437.6-.305 1.447.294 1.883 1.214.886 2.084-.75 1.119-2.105-.34-.478-.975-.378-1.413.222Zm2.882 9.045c-.277.379-.038 1.027.529 1.44.567.414 1.257.443 1.533.064.276-.378.038-1.026-.529-1.44-.567-.414-1.257-.443-1.533-.064Zm-5.908-3.175c-.161.506.001 1.134.359 1.396.359.262 1.007.224 1.439-.084.433-.309.271-.937-.359-1.396-.63-.46-1.278-.422-1.439.084Zm9.425 26.51c-1.557-.248-5.623-.047-9.034.445-4.038.583-8.141.412-11.754-.491-4.708-1.176-5.688-1.13-6.454.302-.722 1.352-1.182 1.433-2.299.407-1.064-.975-2.371-.859-5.48.487-2.319 1.004-6.177 1.669-8.931 1.54-9.795-.462-14.064 1.039-17.898 6.296-1.298 1.78-3.699 3.566-6.645 4.943-8.462 3.959-10.23 6.941-8.486 14.32.671 2.841.543 5.646-.393 8.567-1.688 5.272-1.333 10.212 1.286 17.905 1.162 3.412 1.95 8.547 1.906 12.427-.082 7.453.529 9.231 4.245 12.371 2.004 1.691 2.745 3.187 3.207 6.465.621 4.408 3.69 9.279 10.752 17.066 3.205 3.534 3.774 3.855 9.311 5.264 6.699 1.704 8.172 2.583 10.336 6.158 1.987 3.285 2.103 5.6.52 10.43-1.039 3.172-.955 4.592.434 7.348 1.765 3.502 1.584 8.651-.401 11.377-.581.797-.894 2.829-.697 4.515.201 1.711-.146 3.393-.784 3.805-.627.407-3.238-.018-5.801-.945-3.109-1.124-6.883-1.539-11.348-1.25-3.68.238-8.495.043-10.699-.435-2.206-.476-6.762-.403-10.125.163-3.363.566-8.896.628-12.294.138-4.567-.658-7.088-.471-9.66.718-3.894 1.801-6.508 1.665-10.868-.564-1.63-.834-3.362-1.546-3.847-1.584-.485-.037-2.646 2.352-4.802 5.308-3.254 4.462-4.405 5.511-6.78 6.18l-2.86.806-.709 5.17c-1.211 8.83-1.192 15.737.053 19.153 1.006 2.762 2.046 3.883 6.573 7.083 4.721 3.34 5.538 4.257 6.705 7.522.73 2.045 1.682 3.977 2.116 4.293.434.317 3.395.804 6.58 1.084 7.086.622 10.181 1.772 18.813 6.991 5.623 3.4 7.81 4.233 13.441 5.117 6.018.944 7.281 1.46 12.009 4.908l5.282 3.854 2.744-1.665c3.106-1.884 6.463-1.616 13.247 1.056 5.958 2.348 8.416 2.422 12.456.372 1.815-.92 6.415-1.806 10.223-1.969 8.658-.369 13.433-2.012 20.579-7.079 5.23-3.71 6.011-3.974 11.306-3.841 6.542.165 9.157-1.204 13.532-7.08 2.181-2.932 4.727-5.053 9.735-8.114 11.182-6.835 14.786-12.082 18.946-27.585 1.957-7.293 2.469-8.316 7.625-15.205 6.324-8.449 7.222-10.77 9.868-25.494 1.915-10.658 1.339-17.313-1.934-22.361-2.24-3.454-2.199-4.379.616-13.757.644-2.142.829-4.743.413-5.781-1.152-2.87-9.012-11.334-9.923-10.684-.416.297-1.229.196-1.805-.224-.625-.456-.606-1.05.045-1.472 1.497-.969-.491-7.498-2.443-8.025-1.179-.317-1.186-.62-.035-1.466 1.816-1.333.479-8.714-2.518-13.906-1.827-3.163-3.107-4.234-12.841-10.731l-10.811-7.217-4.175-7.994-4.175-7.994-11.182-8.495c-9.023-6.856-11.728-8.582-14.013-8.946Zm10.62 10.709c-.414.568-.444 1.259-.066 1.534.379.276 1.027.037 1.441-.531.414-.568.444-1.258.066-1.534s-1.026-.037-1.441.531Zm-12.757-5.613a.854.854 0 0 0 .185 1.19.856.856 0 0 0 1.19-.187.854.854 0 0 0-.185-1.19.854.854 0 0 0-1.19.187Zm27.562 20.302c-.506 1.587.82 2.878 1.707 1.662.437-.6.305-1.447-.294-1.884-.598-.437-1.234-.337-1.413.222Zm-33.47-23.478c-.161.506.001 1.135.36 1.396.359.262 1.007.224 1.439-.084.432-.308.271-.936-.36-1.396-.63-.46-1.277-.421-1.439.084Zm27.871 20.716c-.43.59-.473 1.299-.095 1.575.378.275.9.21 1.16-.147.26-.356.302-1.065.095-1.575-.207-.509-.73-.443-1.16.147Zm-6.534-2.594c-.46.631-.423 1.279.082 1.439.506.161 1.134-.002 1.396-.361.262-.36.226-1.008-.082-1.44-.307-.432-.935-.27-1.396.362Zm-5.407-3.417c-.599.245-1.005.98-.903 1.634.123.794.548 1.042 1.274.746.598-.245 1.005-.98.903-1.634-.123-.794-.548-1.042-1.274-.746Zm33.248 23.929c-1.339.211-1.629 1.244-.566 2.019.567.414 1.244.461 1.504.105.633-.868.013-2.273-.938-2.124Zm-39.503-26.705c-1.339.211-1.629 1.244-.566 2.02.567.413 1.244.461 1.504.104.633-.868.013-2.273-.938-2.124Zm33.093 24.462a.855.855 0 0 0 .186 1.19.853.853 0 0 0 1.004-1.377.854.854 0 0 0-1.19.187Zm-6.001-3.323a.854.854 0 0 0 .185 1.19.855.855 0 0 0 1.189-.187.853.853 0 0 0-.185-1.19.853.853 0 0 0-1.189.187Zm-33.501-23.382a.853.853 0 0 0 .185 1.19.854.854 0 0 0 1.19-.187.855.855 0 0 0-.186-1.19.854.854 0 0 0-1.189.187Zm27.289 20.346a1.352 1.352 0 0 0 .293 1.883c1.215.886 2.085-.75 1.12-2.106-.34-.478-.975-.377-1.413.223Zm-33.916-23.926c-.506 1.586.82 2.877 1.707 1.661a1.351 1.351 0 0 0-.294-1.883c-.598-.437-1.234-.338-1.413.222Zm61.559 45.231c-.415.568-.444 1.258-.066 1.534s1.026.037 1.441-.531c.414-.568.444-1.258.065-1.534-.378-.276-1.026-.037-1.44.531Zm-67.146-48.01c-.437.6-.305 1.447.294 1.884 1.214.885 2.084-.751 1.119-2.106-.34-.478-.975-.378-1.413.222Zm33.271 24.027c-.506 1.586.82 2.877 1.707 1.662.437-.6.306-1.447-.293-1.884-.599-.437-1.235-.338-1.414.222Zm-5.628-2.722c-.414.568-.444 1.259-.066 1.534.378.276 1.026.037 1.441-.531.414-.568.444-1.258.066-1.534-.379-.276-1.027-.037-1.441.531Zm32.999 24.07c-.415.568-.444 1.259-.066 1.534.378.276 1.026.037 1.441-.531.414-.568.443-1.258.065-1.534s-1.026-.037-1.44.531Zm-66.873-48.053c-.507 1.587.819 2.878 1.706 1.662.438-.6.306-1.447-.293-1.884-.599-.437-1.235-.337-1.413.222Zm60.912 44.673c-.437.6-.305 1.447.294 1.884 1.214.885 2.084-.751 1.12-2.106-.341-.478-.976-.378-1.414.222Zm-33.32-24.071c-.951.15-1.114 1.678-.248 2.31.357.26.986.007 1.401-.561.776-1.064.186-1.959-1.153-1.749Zm28.121 20.57c-1.34.211-1.629 1.245-.566 2.02.567.413 1.243.461 1.503.104.634-.868.013-2.273-.937-2.124Zm-33.501-23.381c-1.34.21-1.629 1.244-.566 2.019.567.414 1.243.461 1.503.105.634-.869.013-2.274-.937-2.124Zm124.276 91.5c-.414.568-.444 1.258-.066 1.534s1.027.037 1.441-.531c.414-.568.444-1.259.066-1.535-.378-.275-1.027-.036-1.441.532Zm-97.809-70.619c-.507 1.586.819 2.877 1.706 1.662.438-.6.306-1.447-.293-1.884-.599-.437-1.235-.337-1.413.222Zm-33.564-23.626c-.277.379-.039 1.027.529 1.441.567.414 1.257.442 1.533.064.276-.379.038-1.027-.529-1.441-.567-.414-1.257-.442-1.533-.064Zm60.934 44.974a1.28 1.28 0 0 0 .278 1.785 1.28 1.28 0 0 0 1.784-.28 1.282 1.282 0 0 0-.278-1.785 1.28 1.28 0 0 0-1.784.28Zm-67.187-47.953a1.28 1.28 0 0 0 .277 1.785 1.281 1.281 0 0 0 1.785-.28 1.282 1.282 0 0 0-.278-1.785 1.28 1.28 0 0 0-1.784.28Zm33.937 24.228a.854.854 0 0 0 .185 1.19.856.856 0 0 0 1.19-.187.854.854 0 0 0-.185-1.19.854.854 0 0 0-1.19.187Zm-6.211-3.037c-.438.6-.306 1.447.293 1.884 1.214.886 2.084-.75 1.12-2.106-.34-.478-.976-.377-1.413.222Zm33.302 23.931c-.161.506.001 1.135.359 1.396.359.262 1.007.224 1.439-.084.433-.308.272-.936-.359-1.396-.63-.46-1.278-.421-1.439.084Zm-5.438-3.371c-.95.149-1.114 1.677-.247 2.31.356.259.986.007 1.4-.561.776-1.065.187-1.96-1.153-1.749Zm76.244 55.672c-1.339.21-1.629 1.244-.566 2.019.567.414 1.244.461 1.504.104.633-.868.013-2.273-.938-2.123Zm-110.654-78.809c-.461.631-.423 1.279.082 1.439.505.161 1.134-.002 1.396-.361s.225-1.008-.082-1.44c-.308-.432-.936-.269-1.396.362Zm28.376 19.819c-1.369.215-1.673 1.241-.599 2.024a1.28 1.28 0 0 0 1.784-.28c.784-1.076.183-1.96-1.185-1.744Zm-6.694-1.894c-.414.568-.444 1.258-.066 1.534s1.027.037 1.441-.531c.414-.568.444-1.258.066-1.534s-1.027-.037-1.441.531Zm27.684 21.248c-.414.568-.444 1.259-.065 1.534.378.276 1.026.037 1.44-.531.415-.568.444-1.258.066-1.534s-1.026-.037-1.441.531Zm-33.937-24.227c-.276.379-.038 1.027.529 1.441.567.413 1.257.442 1.533.063.277-.378.039-1.027-.529-1.44-.567-.414-1.257-.443-1.533-.064Zm80.183 59.015c-.46.631-.423 1.279.083 1.439.505.161 1.133-.002 1.395-.361.263-.359.226-1.008-.082-1.44-.307-.432-.935-.27-1.396.362Zm-53.186-38.268c-.276.378-.038 1.027.529 1.44.567.414 1.257.443 1.533.064s.038-1.027-.529-1.441c-.567-.413-1.257-.442-1.533-.063Zm60.561 44.372c-.507 1.587.819 2.878 1.706 1.662.438-.6.306-1.447-.293-1.884-.599-.437-1.235-.337-1.413.222Zm-66.127-46.85c-.46.632-.423 1.279.082 1.44.506.161 1.134-.002 1.396-.362.262-.359.225-1.007-.082-1.439-.307-.432-.935-.27-1.396.361Zm28.343 19.824c-1.339.211-1.629 1.244-.566 2.019.567.414 1.244.461 1.504.105.633-.868.013-2.273-.938-2.124Zm-34.345-23.147c-.414.568-.444 1.258-.066 1.534.379.276 1.027.037 1.441-.531.414-.568.444-1.258.066-1.534s-1.027-.037-1.441.531Zm27.906 20.502c-.95.149-1.114 1.678-.247 2.31.356.26.986.007 1.4-.561.777-1.064.187-1.96-1.153-1.749Zm-34.159-23.481c-.276.379-.038 1.027.529 1.441.567.413 1.257.442 1.534.063.276-.378.038-1.027-.529-1.44-.568-.414-1.258-.443-1.534-.064Zm28.78 20.67c-1.34.21-1.629 1.244-.567 2.019.568.414 1.244.461 1.504.104.633-.868.013-2.273-.937-2.123Zm36.436 26.577c-1.34.21-1.629 1.244-.566 2.019.567.414 1.243.461 1.503.105.634-.869.013-2.274-.937-2.124Zm6.903 6.94c-.46.632-.423 1.279.082 1.44.506.161 1.134-.002 1.396-.362.262-.359.225-1.007-.082-1.439-.307-.432-.935-.27-1.396.361Zm-50.688-35.918c-.414.568-.444 1.259-.065 1.534.378.276 1.026.037 1.44-.531.415-.568.444-1.258.066-1.534s-1.026-.037-1.441.531Zm58.062 42.023c-.506 1.586.82 2.877 1.707 1.661a1.352 1.352 0 0 0-.293-1.883c-.599-.437-1.235-.338-1.414.222Zm-63.22-45.58c-1.339.21-1.629 1.244-.566 2.019.567.414 1.244.461 1.504.104.633-.868.013-2.273-.938-2.123Zm-7.002-2.597c-.162.506 0 1.134.359 1.396s1.007.224 1.439-.084c.432-.308.271-.936-.359-1.396-.631-.46-1.278-.422-1.439.084Zm27.297 21.502c-.438.599-.339 1.235.22 1.413 1.585.505 2.877-.824 1.663-1.709a1.35 1.35 0 0 0-1.883.296Zm21.011 14.79c-.161.506 0 1.134.36 1.396.359.262 1.006.224 1.439-.084.432-.308.271-.936-.36-1.396-.63-.46-1.277-.422-1.439.084Zm-26.095-18.41c-1.368.215-1.672 1.241-.599 2.024a1.281 1.281 0 0 0 1.785-.28c.784-1.076.183-1.959-1.186-1.744Zm33.061 24.467c-.276.378-.038 1.027.529 1.44.567.414 1.257.443 1.533.064.277-.379.038-1.027-.529-1.441-.567-.413-1.257-.442-1.533-.063Zm8.843 6.127c-1.34.21-1.629 1.244-.567 2.019.568.414 1.244.461 1.504.105.633-.869.013-2.274-.937-2.124Zm-49.285-32.989a1.282 1.282 0 0 0 .278 1.785c.568.413 1.37.287 1.785-.281a1.282 1.282 0 0 0-.278-1.785 1.282 1.282 0 0 0-1.785.281Zm-5.092-3.568c-.951.149-1.114 1.677-.247 2.31.356.259.986.007 1.4-.561.776-1.065.186-1.96-1.153-1.749Zm31.932 24.807c-.161.505 0 1.133.36 1.396.359.262 1.007.223 1.439-.085.432-.308.271-.936-.359-1.396-.631-.459-1.278-.421-1.44.085Zm7.654 6.558a.854.854 0 0 0 .185 1.19.856.856 0 0 0 1.19-.187.854.854 0 0 0-.186-1.19.853.853 0 0 0-1.189.187Zm8.155 5.625c-1.34.211-1.629 1.245-.566 2.02.567.413 1.243.461 1.503.104.634-.868.013-2.273-.937-2.124Zm-32.785-20.954c-.46.632-.423 1.279.082 1.44.505.161 1.134-.002 1.396-.362.262-.359.225-1.007-.082-1.439-.307-.432-.935-.27-1.396.361Zm-6.877-3.236c-.507 1.586.819 2.877 1.706 1.662.438-.6.306-1.447-.293-1.884-.599-.437-1.235-.338-1.413.222Zm24.842 18.596c-.951.15-1.114 1.678-.247 2.31.356.26.985.007 1.4-.561.776-1.064.186-1.959-1.153-1.749Zm1.046 7.15c-1.339.211-1.629 1.244-.566 2.019.567.414 1.244.461 1.504.105.633-.868.013-2.273-.938-2.124Zm-218.417-28.69c-5.36-2.354-12.438-3.735-13.273-2.589-.294.403-.976 4.414-1.516 8.916-1.26 10.517.678 21.695 5.215 30.065 2.902 5.355 3.94 6.525 9.885 11.15 7.704 5.991 12.26 11.183 11.15 12.706-.558.764-1.167.569-2.349-.752-.877-.981-3.36-3.613-5.517-5.847-12.024-12.46-31.748-14.464-51.77-5.26-4.503 2.071-8.426 4.091-8.717 4.49-1.449 1.985 9.498 16.09 18.006 23.204 7.35 6.143 17.553 10.814 25.551 11.697 5.236.578 15.265-.028 15.947-.963.217-.297.763-4.943 1.212-10.325.45-5.381 1.242-10.366 1.761-11.078.52-.712 2.138-1.631 3.596-2.042 2.165-.611 3.413-1.79 6.791-6.422 4.509-6.181 5.233-6.538 9.465-4.651l2.594 1.156.803-5.648c.849-5.979-1.527-22.713-3.901-27.471-1.377-2.761-10.66-11.575-16.584-15.747-1.913-1.348-5.67-3.412-8.35-4.589Zm135.367 99.751c-.415.568-.444 1.259-.066 1.534.378.276 1.026.037 1.44-.531.415-.568.444-1.258.066-1.534s-1.026-.037-1.44.531Zm2.803 6.264c-.414.568-.444 1.259-.066 1.534.378.276 1.027.037 1.441-.531.414-.568.444-1.258.066-1.534s-1.027-.037-1.441.531Zm-9.069-3.45c-.414.567-.444 1.258-.065 1.534.378.275 1.026.036 1.44-.532.415-.568.444-1.258.066-1.534s-1.026-.036-1.441.532Zm2.762 6.321c-.437.599-.339 1.235.22 1.413 1.585.505 2.878-.824 1.664-1.709a1.352 1.352 0 0 0-1.884.296Zm-9.027-3.508c-.414.568-.444 1.258-.066 1.534.379.276 1.027.037 1.441-.531.414-.568.444-1.259.066-1.534-.378-.276-1.026-.037-1.441.531Zm3.648 6.029c-1.34.211-1.629 1.245-.566 2.02.567.414 1.243.461 1.504.104.633-.868.012-2.273-.938-2.124Zm-9.913-3.216c-.414.568-.444 1.259-.066 1.534.378.276 1.027.037 1.441-.531.414-.568.444-1.258.066-1.534s-1.027-.037-1.441.531Zm-9.069-3.45c-.414.568-.444 1.258-.065 1.534.378.276 1.026.037 1.44-.531.415-.568.444-1.259.066-1.535-.378-.275-1.026-.036-1.441.532Zm12.75 9.475c-1.369.215-1.673 1.241-.599 2.024a1.28 1.28 0 0 0 1.784-.28c.785-1.076.183-1.959-1.185-1.744Zm-9.946-3.211c-.461.631-.423 1.278.082 1.439.505.161 1.133-.001 1.396-.361.263-.36.225-1.008-.082-1.44-.308-.432-.936-.27-1.396.362ZM37.437 232.788c-5.974-1.49-12.201-2.087-19.737-1.895-3.502.089-6.803.147-7.335.129-1.52-.054-1.378 8.562.259 15.677 1.037 4.512 2.205 7.191 3.86 8.856 2.34 2.354 2.533 2.363 13.61.701 8.286-1.244 12.596-1.377 16.415-.509 2.849.648 5.308 1.013 5.464.813.156-.201-.777-2.382-2.073-4.847-1.297-2.465-3.099-7.439-4.005-11.052-.907-3.613-1.752-6.618-1.878-6.678-.126-.061-2.187-.599-4.58-1.195Zm124.304 90.048c-.414.568-.444 1.258-.066 1.534.379.276 1.027.037 1.441-.531.414-.568.444-1.258.066-1.534s-1.027-.037-1.441.531Zm12.56 10.216c-.414.568-.444 1.259-.066 1.534.378.276 1.027.037 1.441-.531.414-.568.444-1.258.066-1.534s-1.027-.037-1.441.531ZM164.859 329c-.506 1.586.82 2.877 1.707 1.662.437-.6.305-1.447-.294-1.884-.599-.437-1.235-.337-1.413.222Zm-9.038-3.547c-.161.506.001 1.134.36 1.396s1.007.224 1.439-.084c.432-.308.271-.936-.359-1.396-.631-.46-1.278-.422-1.44.084Zm12.215 10.413c-.461.631-.423 1.278.082 1.439.505.161 1.133-.001 1.396-.361.263-.36.225-1.008-.082-1.44-.308-.432-.936-.27-1.396.362Zm-9.069-3.451c-.414.568-.444 1.258-.066 1.534s1.027.037 1.441-.531c.414-.568.444-1.259.066-1.534-.378-.276-1.027-.037-1.441.531Zm-9.505-4.296c-.276.378-.038 1.026.529 1.44.567.414 1.257.443 1.533.064.277-.379.039-1.027-.529-1.441-.567-.413-1.257-.442-1.533-.063Zm12.309 10.56c-.415.568-.444 1.258-.066 1.534s1.026.037 1.441-.531c.414-.568.444-1.259.065-1.534-.378-.276-1.026-.037-1.44.531Zm-21.378-14.011c-.276.379-.038 1.027.529 1.441.567.413 1.257.442 1.534.063.276-.378.038-1.027-.529-1.44-.568-.414-1.258-.443-1.534-.064Zm11.967 9.863c-.161.505 0 1.134.359 1.396.359.261 1.007.223 1.439-.085.433-.308.271-.936-.359-1.396-.63-.46-1.278-.421-1.439.085Zm-8.068-4.178c-1.339.211-1.629 1.244-.566 2.02.567.413 1.244.461 1.504.104.633-.868.013-2.273-.938-2.124Zm-9.069-3.45c-1.339.21-1.629 1.244-.566 2.019.567.414 1.244.461 1.504.104.633-.868.013-2.273-.938-2.123Zm11.716 10.45c-.414.568-.444 1.259-.066 1.534.378.276 1.027.037 1.441-.531.414-.568.444-1.258.066-1.534s-1.027-.037-1.441.531Zm-21.629-13.667c-.414.568-.443 1.259-.065 1.534.378.276 1.026.037 1.44-.531.415-.568.444-1.258.066-1.534s-1.026-.037-1.441.531Zm12.75 9.476c-1.369.215-1.673 1.241-.599 2.024a1.28 1.28 0 0 0 1.784-.281c.785-1.075.183-1.959-1.185-1.743Zm-21.818-12.926c-.415.568-.444 1.258-.066 1.534s1.026.037 1.441-.531c.414-.568.444-1.259.065-1.535-.378-.275-1.026-.036-1.44.532ZM95.71 305.787c-.599.245-1.005.98-.903 1.634.123.794.548 1.042 1.274.746.598-.245 1.005-.98.903-1.634-.123-.794-.548-1.042-1.274-.746Zm32.362 24.221c-.437.599-.339 1.235.221 1.413 1.584.504 2.877-.824 1.663-1.709a1.352 1.352 0 0 0-1.884.296ZM106.8 316.184c-.507 1.586.819 2.877 1.706 1.661.438-.6.306-1.447-.293-1.884-.599-.436-1.235-.337-1.413.223Zm12.245 10.316c-.46.631-.423 1.279.083 1.439.505.161 1.133-.001 1.395-.361.263-.36.226-1.008-.082-1.44-.307-.432-.935-.27-1.396.362Zm-21.314-13.767c-.506 1.586.82 2.877 1.707 1.661a1.35 1.35 0 0 0-.294-1.883c-.599-.437-1.235-.338-1.413.222Zm12.497 9.972a.853.853 0 0 0 .185 1.19.855.855 0 0 0 1.19-.187.855.855 0 0 0-.186-1.19.853.853 0 0 0-1.189.187Z" fill="#201B19"/><path fill-rule="evenodd" clip-rule="evenodd" d="M194.52 121.229c-1.557-.248-5.623-.047-9.034.445-4.038.583-8.141.412-11.754-.491-4.708-1.176-5.688-1.13-6.454.302-.722 1.352-1.182 1.433-2.299.407-1.064-.975-2.371-.859-5.48.487-2.319 1.004-6.177 1.669-8.931 1.54-9.795-.462-14.064 1.039-17.898 6.296-1.298 1.78-3.699 3.566-6.645 4.943-8.462 3.959-10.23 6.941-8.486 14.32.671 2.841.543 5.646-.393 8.567-1.688 5.272-1.333 10.212 1.286 17.905 1.162 3.412 1.95 8.547 1.906 12.427-.082 7.453.529 9.231 4.245 12.371 2.004 1.691 2.745 3.187 3.207 6.465.621 4.408 3.69 9.279 10.752 17.066 3.205 3.534 3.774 3.855 9.311 5.264 6.699 1.704 8.172 2.583 10.336 6.158 1.987 3.285 2.103 5.6.52 10.43-1.039 3.172-.955 4.592.434 7.348 1.765 3.502 1.584 8.651-.401 11.377-.581.797-.894 2.829-.697 4.515.201 1.711-.146 3.393-.784 3.805-.627.407-3.238-.018-5.801-.945-3.109-1.124-6.883-1.539-11.348-1.25-3.68.238-8.495.043-10.699-.435-2.206-.476-6.762-.403-10.125.163-3.363.566-8.896.628-12.294.138-4.567-.658-7.088-.471-9.66.718-3.894 1.801-6.508 1.665-10.868-.564-1.63-.834-3.362-1.546-3.847-1.584-.485-.037-2.646 2.352-4.802 5.308-3.254 4.462-4.405 5.511-6.78 6.18l-2.86.806-.709 5.17c-1.211 8.83-1.192 15.737.053 19.153 1.006 2.762 2.046 3.883 6.573 7.083 4.721 3.34 5.538 4.257 6.705 7.522.73 2.045 1.682 3.977 2.116 4.293.434.317 3.395.804 6.58 1.084 7.086.622 10.181 1.772 18.813 6.991 5.623 3.4 7.81 4.233 13.441 5.117 6.018.944 7.281 1.46 12.009 4.908l5.282 3.854 2.744-1.665c3.106-1.884 6.463-1.616 13.247 1.056 5.958 2.348 8.416 2.422 12.456.372 1.815-.92 6.415-1.806 10.223-1.969 8.658-.369 13.433-2.012 20.579-7.079 5.23-3.71 6.011-3.974 11.306-3.841 6.542.165 9.157-1.204 13.532-7.08 2.181-2.932 4.727-5.053 9.735-8.114 11.182-6.835 14.786-12.082 18.946-27.585 1.957-7.293 2.469-8.316 7.625-15.205 6.324-8.449 7.222-10.77 9.868-25.494 1.915-10.658 1.339-17.313-1.934-22.361-2.24-3.454-2.199-4.379.616-13.757.644-2.142.829-4.743.413-5.781-1.152-2.87-9.012-11.334-9.923-10.684-.416.297-1.229.196-1.805-.224-.625-.456-.606-1.05.045-1.472 1.497-.969-.491-7.498-2.443-8.025-1.179-.317-1.186-.62-.035-1.466 1.816-1.333.479-8.714-2.518-13.906-1.827-3.163-3.107-4.234-12.841-10.731l-10.811-7.217-4.175-7.994-4.175-7.994-11.182-8.495c-9.023-6.856-11.728-8.582-14.013-8.946Zm10.554 12.243c-.378-.275-.348-.966.066-1.534.415-.568 1.063-.807 1.441-.531.378.276.348.966-.066 1.534-.414.568-1.062.807-1.441.531Zm-12.506-5.957a.854.854 0 0 1-.185-1.19.854.854 0 0 1 1.19-.187.854.854 0 0 1 .185 1.19.856.856 0 0 1-1.19.187Zm29.084 20.774c-.887 1.216-2.213-.075-1.707-1.662.179-.559.815-.659 1.413-.222.599.437.731 1.284.294 1.884Zm-34.817-23.744c-.359-.261-.521-.89-.36-1.396.162-.505.809-.544 1.439-.084.631.46.792 1.088.36 1.396-.432.308-1.08.346-1.439.084Zm27.416 20.895c-.378-.276-.335-.985.095-1.575.43-.59.953-.656 1.16-.147.207.51.165 1.219-.095 1.575-.26.357-.782.422-1.16.147Zm-6.357-2.73c-.505-.16-.542-.808-.082-1.439.461-.632 1.089-.794 1.396-.362.308.432.344 1.08.082 1.44-.262.359-.89.522-1.396.361Zm-6.392-3.222c-.102-.654.304-1.389.903-1.634.726-.296 1.151-.048 1.274.746.102.654-.305 1.389-.903 1.634-.726.296-1.151.048-1.274-.746Zm33.585 24.314c-1.063-.775-.773-1.808.566-2.019.951-.149 1.571 1.256.938 2.124-.26.356-.937.309-1.504-.105Zm-39.503-26.704c-1.063-.776-.773-1.809.566-2.02.951-.149 1.571 1.256.938 2.124-.26.357-.937.309-1.504-.104Zm33.845 23.632a.855.855 0 0 1-.186-1.19.854.854 0 0 1 1.19-.187.853.853 0 0 1-1.004 1.377Zm-6.002-3.323a.853.853 0 0 1 1.004-1.377.853.853 0 0 1 .185 1.19.855.855 0 0 1-1.189.187Zm-33.501-23.382a.853.853 0 0 1-.185-1.19.854.854 0 0 1 1.189-.187.855.855 0 0 1 .186 1.19.854.854 0 0 1-1.19.187Zm27.397 21.039a1.352 1.352 0 0 1-.293-1.883c.438-.6 1.073-.701 1.413-.223.965 1.356.095 2.992-1.12 2.106Zm-32.502-24.148c-.887 1.216-2.213-.075-1.707-1.661.179-.56.815-.659 1.413-.222.599.436.731 1.284.294 1.883Zm59.786 45.104c-.378-.276-.349-.966.066-1.534.414-.568 1.062-.807 1.44-.531.379.276.349.966-.065 1.534-.415.568-1.063.807-1.441.531Zm-66.786-47.66a1.352 1.352 0 0 1-.294-1.884c.438-.6 1.073-.7 1.413-.222.965 1.355.095 2.991-1.119 2.106Zm34.684 23.805c-.887 1.215-2.213-.076-1.707-1.662.179-.56.815-.659 1.414-.222.599.437.73 1.284.293 1.884Zm-7.401-2.85c-.378-.275-.348-.966.066-1.534.414-.568 1.062-.807 1.441-.531.378.276.348.966-.066 1.534-.415.568-1.063.807-1.441.531Zm32.999 24.07c-.378-.275-.349-.966.066-1.534.414-.568 1.062-.807 1.44-.531.378.276.349.966-.065 1.534-.415.568-1.063.807-1.441.531Zm-65.101-47.925c-.887 1.216-2.213-.075-1.706-1.662.178-.559.814-.659 1.413-.222.599.437.731 1.284.293 1.884Zm59.5 44.895a1.352 1.352 0 0 1-.294-1.884c.438-.6 1.073-.7 1.414-.222.964 1.355.094 2.991-1.12 2.106ZM198.64 146.71c-.866-.632-.703-2.16.248-2.31 1.339-.21 1.929.685 1.153 1.749-.415.568-1.044.821-1.401.561Zm27.803 20.28c-1.063-.775-.774-1.809.566-2.02.95-.149 1.571 1.256.937 2.124-.26.357-.936.309-1.503-.104Zm-33.501-23.382c-1.063-.775-.774-1.809.566-2.019.95-.15 1.571 1.255.937 2.124-.26.356-.936.309-1.503-.105Zm28.739 20.524c-.887 1.215-2.213-.076-1.706-1.662.178-.559.814-.659 1.413-.222.599.437.731 1.284.293 1.884Zm-34.741-23.847c-.568-.414-.806-1.062-.529-1.441.276-.378.966-.35 1.533.064s.805 1.062.529 1.441c-.276.378-.966.35-1.533-.064Zm60.683 45.318a1.28 1.28 0 0 1-.278-1.785 1.28 1.28 0 0 1 1.784-.28c.567.414.692 1.217.278 1.785a1.28 1.28 0 0 1-1.784.28Zm-67.188-47.953a1.28 1.28 0 0 1-.277-1.785 1.28 1.28 0 0 1 1.784-.28c.567.414.692 1.217.278 1.785a1.281 1.281 0 0 1-1.785.28Zm33.845 23.633a.854.854 0 0 1-.185-1.19.854.854 0 0 1 1.19-.187.854.854 0 0 1 .185 1.19.856.856 0 0 1-1.19.187Zm-6.103-2.343a1.351 1.351 0 0 1-.293-1.884c.437-.599 1.073-.7 1.413-.222.964 1.356.094 2.992-1.12 2.106Zm33.368 23.443c-.358-.261-.52-.89-.359-1.396.161-.505.809-.544 1.439-.084.631.46.792 1.088.359 1.396-.432.308-1.08.346-1.439.084Zm-6.044-2.457c-.867-.633-.703-2.161.247-2.31 1.34-.211 1.929.684 1.153 1.749-.414.568-1.044.82-1.4.561Zm-34.081-24.008c-.505-.16-.543-.808-.082-1.439.46-.631 1.088-.794 1.396-.362.307.432.344 1.081.082 1.44-.262.359-.891.522-1.396.361Zm27.695 20.404c-1.074-.783-.77-1.809.599-2.024 1.368-.216 1.969.668 1.185 1.744a1.28 1.28 0 0 1-1.784.28Zm-6.161-2.384c-.378-.276-.348-.966.066-1.534.414-.568 1.063-.807 1.441-.531.378.276.348.966-.066 1.534-.414.568-1.063.807-1.441.531Zm27.685 21.248c-.379-.275-.349-.966.065-1.534.415-.568 1.063-.807 1.441-.531.378.276.349.966-.066 1.534-.414.568-1.062.807-1.44.531Zm-33.343-24.32c-.567-.414-.805-1.062-.529-1.441s.966-.35 1.533.064c.568.413.806 1.062.529 1.44-.276.379-.966.35-1.533-.063Zm26.997 20.746c-.567-.413-.805-1.062-.529-1.44.276-.379.966-.35 1.533.063.567.414.805 1.062.529 1.441s-.966.35-1.533-.064Zm-6.013-2.478c-.505-.161-.542-.808-.082-1.44.461-.631 1.089-.793 1.396-.361.307.432.344 1.08.082 1.439-.262.36-.89.523-1.396.362Zm27.695 20.403c-1.063-.775-.773-1.808.566-2.019.951-.149 1.571 1.256.938 2.124-.26.356-.937.309-1.504-.105Zm-33.845-23.632c-.378-.276-.348-.966.066-1.534.414-.568 1.063-.807 1.441-.531.378.276.348.966-.066 1.534-.414.568-1.062.807-1.441.531Zm27.725 21.278c-.867-.632-.703-2.161.247-2.31 1.34-.211 1.93.685 1.153 1.749-.414.568-1.044.821-1.4.561Zm-33.383-24.35c-.567-.414-.805-1.062-.529-1.441s.966-.35 1.534.064c.567.413.805 1.062.529 1.44-.277.379-.967.35-1.534-.063Zm27.684 21.248c-1.062-.775-.773-1.809.567-2.019.95-.15 1.57 1.255.937 2.123-.26.357-.936.31-1.504-.104Zm-6.847-2.886c-.379-.275-.349-.966.065-1.534.415-.568 1.063-.807 1.441-.531.378.276.349.966-.066 1.534-.414.568-1.062.807-1.44.531Zm-5.659-3.072c-1.063-.775-.773-1.809.566-2.019.951-.15 1.571 1.255.938 2.123-.26.357-.937.31-1.504-.104Zm-6.077-3.22c-.359-.262-.521-.89-.359-1.396.161-.506.808-.544 1.439-.084.63.46.791 1.088.359 1.396-.432.308-1.08.346-1.439.084Zm27.158 21.519c-.559-.178-.658-.814-.22-1.413a1.35 1.35 0 0 1 1.883-.296c1.214.885-.078 2.214-1.663 1.709Zm-5.903-3.009c-1.073-.783-.769-1.809.599-2.024 1.369-.215 1.97.668 1.186 1.744a1.281 1.281 0 0 1-1.785.28Zm-6.504-2.634a1.282 1.282 0 0 1-.278-1.785 1.282 1.282 0 0 1 1.785-.281c.567.414.692 1.217.278 1.785a1.282 1.282 0 0 1-1.785.281Zm-5.617-3.043c-.867-.633-.704-2.161.247-2.31 1.339-.211 1.929.684 1.153 1.749-.414.568-1.044.82-1.4.561Zm15.285 15.166c-.505-.161-.542-.808-.082-1.44.461-.631 1.089-.793 1.396-.361.307.432.344 1.08.082 1.439-.262.36-.891.523-1.396.362Zm-5.253-3.014c-.887 1.215-2.213-.076-1.706-1.662.178-.56.814-.659 1.413-.222.599.437.731 1.284.293 1.884Zm-58.934 96.679c-.378-.275-.349-.966.066-1.534.414-.568 1.062-.807 1.44-.531.378.276.349.966-.066 1.534-.414.568-1.062.807-1.44.531Zm2.803 6.264c-.378-.275-.348-.966.066-1.534.414-.568 1.063-.807 1.441-.531.378.276.348.966-.066 1.534-.414.568-1.063.807-1.441.531Zm-9.068-3.45c-.379-.276-.349-.967.065-1.534.415-.568 1.063-.808 1.441-.532.378.276.349.966-.066 1.534-.414.568-1.062.807-1.44.532Zm3.047 6.2c-.559-.178-.657-.814-.22-1.413a1.352 1.352 0 0 1 1.884-.296c1.214.885-.079 2.214-1.664 1.709Zm-9.313-3.387c-.378-.276-.348-.966.066-1.534.415-.568 1.063-.807 1.441-.531.378.275.348.966-.066 1.534-.414.568-1.062.807-1.441.531Zm3.148 6.515c-1.063-.775-.774-1.809.566-2.02.95-.149 1.571 1.256.938 2.124-.261.357-.937.31-1.504-.104Zm-9.413-3.702c-.378-.275-.348-.966.066-1.534.414-.568 1.063-.807 1.441-.531.378.276.348.966-.066 1.534-.414.568-1.063.807-1.441.531Zm-9.068-3.45c-.379-.276-.349-.966.065-1.534.415-.568 1.063-.807 1.441-.532.378.276.349.967-.066 1.535-.414.568-1.062.807-1.44.531Zm12.216 9.965c-1.074-.783-.77-1.809.599-2.024 1.368-.215 1.97.668 1.185 1.744a1.28 1.28 0 0 1-1.784.28Zm-9.265-3.796c-.505-.161-.543-.808-.082-1.439.46-.632 1.088-.794 1.396-.362.307.432.345 1.08.082 1.44-.263.36-.891.522-1.396.361Zm-9.217-3.356c-.378-.276-.348-.966.066-1.534.414-.568 1.063-.807 1.441-.531.378.276.348.966-.066 1.534-.414.568-1.062.807-1.441.531Zm12.56 10.216c-.378-.275-.348-.966.066-1.534.414-.568 1.063-.807 1.441-.531.378.276.348.966-.066 1.534-.414.568-1.063.807-1.441.531Zm-7.669-3.924c-.887 1.215-2.213-.076-1.707-1.662.178-.559.814-.659 1.413-.222.599.437.731 1.284.294 1.884Zm-10.385-3.813c-.359-.262-.521-.89-.36-1.396.162-.506.809-.544 1.44-.084.63.46.791 1.088.359 1.396-.432.308-1.08.346-1.439.084Zm11.937 10.456c-.505-.161-.543-.808-.082-1.439.46-.632 1.088-.794 1.396-.362.307.432.345 1.08.082 1.44-.263.36-.891.522-1.396.361Zm-9.217-3.356c-.378-.276-.348-.966.066-1.534.414-.568 1.063-.807 1.441-.531.378.275.348.966-.066 1.534-.414.568-1.063.807-1.441.531Zm-8.91-4.39c-.567-.414-.805-1.062-.529-1.44.276-.379.966-.35 1.533.063.568.414.806 1.062.529 1.441-.276.379-.966.35-1.533-.064Zm11.714 10.654c-.378-.276-.349-.966.066-1.534.414-.568 1.062-.807 1.44-.531.379.275.349.966-.065 1.534-.415.568-1.063.807-1.441.531Zm-20.783-14.104c-.567-.414-.805-1.062-.529-1.441s.966-.35 1.534.064c.567.413.805 1.062.529 1.44-.277.379-.967.35-1.534-.063Zm11.797 9.818c-.359-.262-.52-.891-.359-1.396.161-.506.809-.545 1.439-.085s.792 1.088.359 1.396c-.432.308-1.08.346-1.439.085Zm-8.993-3.554c-1.063-.776-.773-1.809.566-2.02.951-.149 1.571 1.256.938 2.124-.26.357-.937.309-1.504-.104Zm-9.069-3.451c-1.063-.775-.773-1.809.566-2.019.951-.15 1.571 1.255.938 2.123-.26.357-.937.31-1.504-.104Zm12.216 9.965c-.378-.275-.348-.966.066-1.534.414-.568 1.063-.807 1.441-.531.378.276.348.966-.066 1.534-.414.568-1.063.807-1.441.531Zm-21.628-13.667c-.378-.275-.349-.966.065-1.534.415-.568 1.063-.807 1.441-.531.378.276.349.966-.066 1.534-.414.568-1.062.807-1.44.531Zm12.216 9.966c-1.074-.783-.77-1.809.599-2.024 1.368-.216 1.97.668 1.185 1.743a1.28 1.28 0 0 1-1.784.281Zm-21.285-13.416c-.378-.276-.349-.966.066-1.534.414-.568 1.062-.807 1.44-.532.379.276.349.967-.065 1.535-.415.568-1.063.807-1.441.531Zm-21.37-14.349c-.101-.654.305-1.389.904-1.634.726-.296 1.15-.048 1.274.746.102.654-.305 1.389-.903 1.634-.726.296-1.15.048-1.274-.746Zm33.487 24c-.56-.178-.658-.814-.221-1.413a1.352 1.352 0 0 1 1.884-.296c1.214.885-.079 2.213-1.663 1.709Zm-19.787-13.576c-.887 1.216-2.213-.075-1.706-1.661.178-.56.814-.659 1.413-.223.599.437.731 1.284.293 1.884Zm10.622 10.094c-.506-.16-.543-.808-.083-1.439.461-.632 1.089-.794 1.396-.362.308.432.345 1.08.082 1.44-.262.36-.89.522-1.395.361Zm-19.69-13.545c-.887 1.216-2.213-.075-1.707-1.661.178-.56.814-.659 1.413-.222a1.35 1.35 0 0 1 .293 1.883Zm10.975 9.501a.853.853 0 0 1 1.004-1.377.855.855 0 0 1 .186 1.19.855.855 0 0 1-1.19.187Z" fill="#FAF5E5"/><path fill-rule="evenodd" clip-rule="evenodd" d="M282.009 25.111c-1.228-.302-4.719-.064-7.76.531-3.989.78-6.559.684-9.227-.346-5.724-2.21-6.225-2.126-11.132 1.878-5.553 4.533-10.005 6.56-18.954 8.632-5.342 1.237-7.931 2.437-12.34 5.716-4.821 3.586-6.441 4.269-11.91 5.014l-6.329.864-1.419 3.798c-1.403 3.756-1.508 3.843-9.401 7.905-7.634 3.927-8.028 4.246-9.018 7.317-.569 1.766-2.616 5.166-4.548 7.555-8.911 11.017-10.98 15.125-11.48 22.793-.278 4.267-1.641 6.608-6.997 12.012-2.904 2.929-3.164 3.523-3.091 7.052l.08 3.852 3.365-1.207c3.771-1.352 8.367-1.221 13.769.394 1.997.597 6.528.697 10.068.219 10.487-1.41 10.858-1.273 24.451 9.032l11.801 8.946 4.164 8.008 4.165 8.009 10.402 6.895c13.661 9.056 14.384 10.04 16.97 23.121 2.066 10.443 2.648 11.617 9.268 18.677 4.486 4.784 5.195 8.175 3.12 14.934-1.47 4.791-1.481 5.739-.074 6.55 1.13.651 1.378 1.329.794 2.162-.472.672-.1 3.016.836 5.261 1.442 3.463 2.08 9.593 1.508 14.498-.126 1.078.669 1.428 4.121 1.812 2.352.263 7.093 1.49 10.535 2.727 5.784 2.08 6.899 2.137 14.712.768 4.65-.815 10.234-1.48 12.41-1.477 5.924.008 9.861-2.342 14.438-8.617 2.958-4.056 4.982-5.971 8.926-8.447 4.516-2.834 5.422-3.768 7.894-8.134 1.536-2.712 4.009-6.418 5.495-8.235 1.486-1.817 4.478-5.665 6.647-8.551 3.878-5.16 3.934-5.323 3.33-9.701-.37-2.678-.04-5.923.826-8.141 1.963-5.03 2.632-9.947 1.666-12.256-.445-1.061-2.505-3.055-4.605-4.456-2.811-1.875-4.701-3.982-7.261-8.088l-3.46-5.551-7.566-4.118c-6.032-3.283-8.53-5.077-12.331-8.854-5.295-5.262-6.615-5.888-11.266-5.344-2.618.307-3.947-.141-7.26-2.447-3.596-2.504-5.13-2.929-13.551-3.754-9.843-.964-11.656-.66-16.56 2.766-3.916 2.737-9.945 3.597-13.464 1.922-2.217-1.056-3.39-2.383-5.397-6.11-2.458-4.563-2.687-4.779-5.51-5.212-4.073-.626-4.941-1.439-7.397-6.934-1.179-2.64-2.59-4.833-3.134-4.874-.544-.042-1.379-.886-1.855-1.876-1.007-2.092.36-3.443 5.52-5.45 2.356-.917 4.49-2.681 7.455-6.165 2.285-2.684 6.032-6.102 8.325-7.598 3.175-2.068 4.694-3.644 6.36-6.599 1.633-2.897 3.513-4.88 7.412-7.818 4.036-3.042 5.683-4.803 7.239-7.742 3.191-6.027 4.168-6.98 8.731-8.53 2.364-.802 4.45-2.019 4.634-2.703.186-.684-.242-3.616-.95-6.517-1.005-4.115-.954-5.99.229-8.534l1.516-3.26-4.641-5.812c-5.759-7.213-10.383-11.444-13.294-12.162Zm-7.766 16.422c-.378-.275-.348-.966.066-1.534.414-.568 1.063-.807 1.441-.531.378.276.348.966-.066 1.534-.414.568-1.063.807-1.441.531Zm-6.002-3.323a.854.854 0 0 1-.185-1.19.854.854 0 0 1 1.19-.187.854.854 0 0 1 .185 1.19.854.854 0 0 1-1.19.187Zm-9.063 3.04c-.359-.262-.521-.89-.36-1.396.162-.506.809-.544 1.439-.084.631.46.792 1.088.36 1.396-.432.308-1.08.346-1.439.084Zm-6.429-2.738c-.567-.414-.805-1.062-.529-1.44.276-.38.966-.35 1.533.063.567.414.805 1.062.529 1.44-.276.38-.966.35-1.533-.063Zm-3.33 6.01c-1.063-.776-.773-1.81.566-2.02.951-.15 1.571 1.255.938 2.124-.26.356-.937.309-1.504-.105Zm-6.077-3.22c-.359-.263-.521-.891-.36-1.397.162-.505.809-.544 1.439-.084.631.46.792 1.088.36 1.396-.432.308-1.08.346-1.439.084Zm-3.255 5.905c-.567-.413-.805-1.062-.529-1.44.276-.38.966-.35 1.533.063.568.414.806 1.062.529 1.44-.276.38-.966.35-1.533-.063Zm-6.504-2.635c-1.063-.775-.774-1.808.566-2.019.951-.15 1.571 1.256.938 2.124-.26.356-.937.31-1.504-.105Zm-2.946 6.29c-.867-.633-.703-2.16.248-2.31 1.339-.21 1.929.685 1.152 1.75-.414.567-1.044.82-1.4.56Zm-6.396-2.759c-.506-.16-.543-.808-.083-1.44.461-.63 1.089-.793 1.396-.361.308.432.345 1.08.082 1.44-.262.359-.89.522-1.395.361Zm3.174 8.644c-.505-.16-.543-.808-.082-1.44.46-.631 1.088-.793 1.395-.361.308.432.345 1.08.083 1.44-.262.359-.891.522-1.396.36Zm-5.749-2.936a1.352 1.352 0 0 1-.294-1.884c.438-.6 1.073-.7 1.414-.222.964 1.355.094 2.991-1.12 2.106Zm-6.757-3.022c-.506-.16-.543-.808-.083-1.44.461-.631 1.089-.793 1.396-.361.308.432.345 1.08.083 1.44-.263.359-.891.522-1.396.36Zm3.37 8.99c-1.063-.776-.774-1.81.566-2.02.95-.15 1.571 1.255.937 2.123-.26.357-.936.31-1.503-.104Zm-6.078-3.22c-.359-.263-.52-.891-.359-1.397.161-.505.809-.544 1.439-.084s.792 1.088.359 1.396c-.432.308-1.08.346-1.439.084Zm3.091 9.479c-.378-.276-.348-.966.066-1.534.414-.568 1.063-.807 1.441-.532.378.276.348.967-.066 1.535s-1.062.807-1.441.53Zm-6.421-3.47c-.358-.262-.52-.891-.359-1.397.161-.505.809-.544 1.439-.084s.792 1.088.359 1.396c-.432.308-1.08.346-1.439.084Zm-6.044-2.458c-.867-.633-.703-2.16.247-2.31 1.34-.21 1.929.684 1.153 1.749-.414.568-1.044.82-1.4.56Zm9.906 11.603c-.359-.262-.521-.89-.359-1.396.161-.506.808-.544 1.439-.085.63.46.791 1.088.359 1.396-.432.308-1.08.346-1.439.085Zm-6.429-2.738c-.567-.414-.805-1.062-.529-1.441s.966-.35 1.534.064c.567.413.805 1.062.529 1.44-.277.379-.967.35-1.534-.063Zm-6.848-2.886c-.378-.276-.348-.966.066-1.534.414-.568 1.063-.807 1.441-.531.378.276.348.966-.066 1.534-.414.568-1.063.807-1.441.531Zm10.366 11.78c-.378-.276-.348-.966.066-1.534.414-.568 1.063-.807 1.441-.531.378.276.348.966-.066 1.534-.414.568-1.063.807-1.441.531Zm-6.463-2.605c-.867-.632-.704-2.16.247-2.31 1.339-.21 1.929.685 1.153 1.75-.415.567-1.044.82-1.4.56Zm-6.462-3.5c-.359-.262-.521-.89-.359-1.396.161-.506.808-.544 1.439-.084.63.46.791 1.087.359 1.396-.432.308-1.08.346-1.439.084Zm3.937 9.042c-.567-.414-.805-1.062-.529-1.44.276-.38.966-.35 1.533.063.568.414.806 1.062.529 1.44-.276.38-.966.35-1.533-.063Zm-7.126-3.37c-.061-.393.417-.93 1.063-1.194.945-.386 1.108-.268.83.601-.396 1.241-1.727 1.658-1.893.593Zm3.786 10.224c-.506-.161-.543-.809-.083-1.44.461-.631 1.089-.793 1.396-.361.308.432.345 1.08.083 1.44-.263.358-.891.521-1.396.36ZM191 84.18a1.281 1.281 0 0 1-.278-1.785 1.28 1.28 0 0 1 1.784-.28 1.28 1.28 0 0 1 .278 1.785 1.28 1.28 0 0 1-1.784.28Zm3.862 9.146c-.568-.414-.806-1.062-.529-1.441.276-.379.966-.35 1.533.064.567.413.805 1.062.529 1.44-.276.379-.966.35-1.533-.063Zm-6.447-2.593a1.352 1.352 0 0 1-.294-1.884c.438-.6 1.073-.7 1.413-.222.965 1.355.095 2.991-1.119 2.106Zm3.117 8.602c-.567-.414-.806-1.062-.529-1.44.276-.38.966-.35 1.533.063s.805 1.062.529 1.44c-.276.38-.966.35-1.533-.063Zm-6.078-3.22c-.358-.262-.52-.89-.359-1.396.161-.506.809-.544 1.439-.084s.792 1.087.359 1.396c-.432.308-1.08.346-1.439.084Zm132.264 138.508c-.378-.276-.348-.966.066-1.534.414-.568 1.063-.807 1.441-.532.378.276.348.967-.066 1.535s-1.063.807-1.441.531Zm-6.292.684c-1.063-.775-.773-1.809.566-2.019.951-.15 1.571 1.255.938 2.123-.26.357-.937.31-1.504-.104Zm-14.393-5.428c-.506-.16-.543-.808-.083-1.439.461-.632 1.089-.794 1.396-.362.308.432.345 1.081.082 1.44-.262.359-.89.522-1.395.361Zm8.998 6.327c-.887 1.216-2.213-.075-1.706-1.662.178-.559.814-.659 1.413-.222.599.437.731 1.284.293 1.884Zm-15.438-5.548c-1.063-.775-.774-1.809.566-2.019.95-.15 1.571 1.255.937 2.124-.26.356-.936.309-1.503-.105Zm7.551 6.361c-.505-.161-.542-.808-.082-1.44.461-.631 1.089-.793 1.396-.361.307.432.344 1.08.082 1.439-.262.36-.89.523-1.396.362Zm8.999 6.326c-.887 1.216-2.213-.075-1.707-1.661.179-.56.815-.659 1.414-.222.598.436.73 1.284.293 1.883Zm-23.261-12.15c-.36-.262-.521-.89-.36-1.396.162-.506.809-.544 1.439-.084.631.46.792 1.088.36 1.396-.433.308-1.08.346-1.439.084Zm7.135 6.101c-.567-.413-.805-1.062-.529-1.44.276-.379.966-.35 1.533.063.567.414.806 1.062.529 1.441-.276.379-.966.35-1.533-.064Zm7.747 6.706c-1.062-.775-.773-1.809.567-2.019.95-.15 1.57 1.255.937 2.124-.26.356-.936.309-1.504-.105Zm-21.518-12.373c-.36-.263-.521-.891-.36-1.396.162-.506.809-.544 1.44-.085.63.46.791 1.088.359 1.396-.432.308-1.08.347-1.439.085Zm7.479 6.352a.853.853 0 0 1 1.004-1.377.854.854 0 0 1 .186 1.19.856.856 0 0 1-1.19.187Zm7.404 6.455c-1.063-.775-.774-1.809.566-2.02.95-.149 1.571 1.256.937 2.124-.26.357-.936.309-1.503-.104Zm-14.501-5.304c-.867-.632-.704-2.16.247-2.31 1.339-.21 1.929.685 1.153 1.749-.415.568-1.044.821-1.4.561Zm.727 6.859c-1.063-.775-.773-1.808.566-2.019.951-.149 1.571 1.256.938 2.124-.26.356-.937.309-1.504-.105Z" fill="#FAF5E5"/><path d="M350.324 5.097c-16.501-2.72-27.701-2.177-37.945 1.843-8.617 3.381-13.803 6.972-19.04 13.184l-4.451 5.279 6.401 7.66c8.123 9.724 8.304 10.107 6.176 13.025-1.435 1.967-1.529 3.526-.569 9.445 1.237 7.633.651 9.396-3.512 10.57l-2.669.752 3.045 4.146c2.345 3.191 5.117 5.635 12.029 10.604 10.762 7.737 11.99 8.056 26.168 6.792 10.365-.924 19.741-3.92 25.185-8.047l3.327-2.522-4.316-5.852c-10.672-14.47-26.953-22.969-39.289-20.508-5.83 1.163-17.009 1.117-18.647-.078-2.006-1.463.532-2.377 5.326-1.916 10.944 1.05 22.363-2.659 30.288-9.84 5.634-5.106 12.088-15.518 15.296-24.678 2.975-8.499 2.854-8.927-2.803-9.86Z" fill="#FAF5E5"/><path d="M362.603 25.726c-1.9-1.014-4.816-1.793-6.48-1.731l-3.027.112-7.046 9.39c-5.938 7.914-7.721 9.814-11.329 12.07-2.356 1.472-4.315 2.721-4.356 2.776-.041.055 2.308.898 5.216 1.873 2.91.975 7.794 3.334 10.854 5.243l5.563 3.472 3.94-2.333c5.401-3.2 13.044-9.624 17.81-14.969l3.974-4.455-3.364-3.133c-3.833-3.57-6.809-5.675-11.755-8.315ZM37.437 232.788c-5.974-1.49-12.201-2.087-19.737-1.895-3.502.089-6.803.147-7.335.129-1.52-.054-1.378 8.562.259 15.677 1.037 4.512 2.205 7.191 3.86 8.856 2.34 2.354 2.533 2.363 13.61.701 8.286-1.244 12.596-1.377 16.415-.509 2.849.648 5.308 1.013 5.464.813.156-.201-.777-2.382-2.073-4.847-1.297-2.465-3.099-7.439-4.005-11.052-.907-3.613-1.752-6.618-1.878-6.678-.126-.061-2.187-.599-4.58-1.195Z" fill="#FAF5E5"/><path d="M60.504 215.282c-5.36-2.354-12.438-3.735-13.273-2.589-.294.403-.976 4.414-1.516 8.916-1.26 10.517.678 21.695 5.215 30.065 2.902 5.355 3.94 6.525 9.885 11.15 7.704 5.991 12.26 11.183 11.15 12.706-.558.764-1.167.569-2.349-.752-.877-.981-3.36-3.613-5.517-5.847-12.024-12.46-31.748-14.464-51.77-5.26-4.503 2.071-8.426 4.091-8.717 4.49-1.449 1.985 9.498 16.09 18.006 23.204 7.35 6.143 17.553 10.814 25.551 11.697 5.236.578 15.265-.028 15.947-.963.217-.297.763-4.943 1.212-10.325.45-5.381 1.242-10.366 1.761-11.078.52-.712 2.138-1.631 3.596-2.042 2.165-.611 3.413-1.79 6.791-6.422 4.509-6.181 5.233-6.538 9.465-4.651l2.594 1.156.803-5.648c.849-5.979-1.527-22.713-3.901-27.471-1.377-2.761-10.66-11.575-16.584-15.747-1.913-1.348-5.67-3.412-8.35-4.589Z" fill="#FAF5E5"/></svg>