<svg xmlns="http://www.w3.org/2000/svg" width="322" height="124" fill="none"><path fill-rule="evenodd" clip-rule="evenodd" d="M.162 9.559c-.39 2.955.37 6.738 2.773 13.837 1.819 5.375 4.293 13.002 5.498 16.95 2.437 7.984 7.591 17.34 14.838 26.939 8.24 10.91 12.898 15.35 31.465 29.991 2.35 1.852 6.851 4.41 10.402 5.909 3.443 1.454 8.775 4.056 11.85 5.781 14.683 8.24 31.213 13.067 45.872 13.397 3.102.07 5.762.21 5.912.31.652.438 37.323 2.307 47.199-1.095l13.461-2.073c12.897-3.217 15.534-4.072 37.161-18.662 14.537-9.805 17.459-12.626 17.977-17.346.273-2.483 4.445-11.209 7.304-15.278 1.035-1.472 8.704-6.122 22.065-13.375 11.263-6.117 20.938-11.272 21.5-11.459 2.739-.908 12.796-8.212 17.067-12.393 6.624-6.487 9.463-12.848 8.318-18.64-.573-2.9-4.08-4.813-6.755-3.684-2.126.896-2.353 1.347-3.568 7.084-1.92 9.074-4.735 12.01-19.446 20.274-25.583 14.374-44.919 21.664-54.427 20.52-3.198-.385-4.188-.871-5.96-2.93-1.779-2.065-2.803-2.563-6.288-3.056-5.843-.828-11.476 1.006-22.872 7.447-13.495 7.627-45.139 18.517-45.139 18.517-14.452 3.375-27.07 3.496-35.535 3.948-10.417.558-21.844-1.673-45-8.786-8.006-2.458-9.47-3.218-24.74-12.834-18.111-11.405-22.305-14.931-27.26-22.927-3.599-5.81-8.557-17.73-9.207-22.137C13.517 6.27 8.969-.488 5.479.197 3.278.629.751 5.077.162 9.559Zm5.066 11.177c-1.733-4.875-2.36-8.393-1.994-11.174 1.325-10.084 5.314-8.155 8.25 3.986 1.952 8.076 5.545 17.11 9.116 22.92 4.661 7.584 9.067 11.663 21.743 20.13 18.758 12.53 23.662 15.09 36.094 18.855 24.1 7.297 34.559 8.932 47.588 7.444l17.07-.938c10.793-.956 30.886-7.906 38.978-11.673 4.358-2.028 13.301-5.527 19.02-8.735 14.903-8.357 21.666-10.056 26.666-6.702 1.275.856 1.687 1.784 1.292 2.916-.318.914-.392 1.821-.166 2.017 2.045 1.76 2.823 3.065 3.405 5.713.373 1.696 2.073 4.757 3.778 6.803 1.704 2.045 3.361 4.704 3.681 5.91.32 1.204.995 2.742 1.499 3.416.509.682.389 2.457-.272 3.997-.977 2.278-3.45 4.314-13.927 11.46-19.13 13.049-21.203 13.962-34.308 17.631-37.993 8.853-63.148 5.431-63.148 5.431-3.03.113-19.577-.559-29.947-4.226-4.727-1.366-26.565-11.909-30.32-13.882-3.756-1.974 4.521 2.093 0 0-10.004-4.632-12.712-6.454-24.39-16.415C26.718 70.084 15.42 54.028 10.23 36.297 8.87 31.652 6.619 24.65 5.228 20.736Zm233.808 50.653c-1.619-1.921-3.52-5.442-4.225-7.824-.704-2.382-1.252-4.384-1.219-4.449.033-.065 2.017.002 4.408.15 8.594.528 22.82-4.43 44.383-15.472 13.577-6.952 21.828-12.307 26.246-17.034 2.554-2.732 3.208-4.084 4.202-8.675 1.445-6.686 2.312-8.103 4.187-6.846 2.489 1.67 1.596 6.764-2.171 12.377-5.149 7.669-10.788 12.08-25.225 19.729-4.659 2.468-15.131 8.117-23.273 12.554-15.957 8.697-16.762 9.412-21.205 18.811-1.964 4.156-2.039 4.22-2.593 2.226-.315-1.13-1.896-3.626-3.515-5.547Z" fill="#201B19"/><path d="m135.446 103.589-5.853 16.554s25.155 3.422 63.148-5.431c13.105-3.669 15.178-4.582 34.308-17.631 10.477-7.147 12.95-9.182 13.927-11.46.661-1.54.781-3.315.272-3.997-.504-.674-1.179-2.212-1.499-3.417-.32-1.205-1.977-3.864-3.681-5.91-1.705-2.045-3.405-5.106-3.778-6.802-.582-2.648-1.36-3.953-3.405-5.713-.226-.196-.152-1.103.166-2.017.395-1.133-.017-2.06-1.292-2.916-5-3.354-11.763-1.655-26.666 6.702-5.719 3.208-14.662 6.707-19.02 8.735-8.092 3.767-28.185 10.717-38.978 11.673l-4.793.807-2.856 20.823Z" fill="#FAF5E5"/><path d="M3.234 9.562c-.366 2.781.261 6.299 1.994 11.174C6.62 24.649 8.87 31.652 10.23 36.297c5.191 17.73 16.49 33.787 34.705 49.323 11.679 9.96 14.387 11.782 24.39 16.415 3.756 1.973 25.594 12.516 30.32 13.882 10.371 3.667 26.918 4.339 29.948 4.226l5.853-16.554 2.856-20.823 4.793-.807-17.07.938c-13.029 1.488-23.488-.147-47.588-7.444-12.432-3.764-17.335-6.326-36.093-18.854C29.666 48.13 25.26 44.052 20.6 36.469c-3.571-5.81-7.164-14.845-9.116-22.92C8.548 1.406 4.56-.522 3.234 9.561ZM234.811 63.565c.705 2.382 2.606 5.903 4.225 7.824 1.619 1.921 3.2 4.417 3.515 5.547.554 1.994.629 1.93 2.593-2.226 4.443-9.4 5.248-10.114 21.205-18.811 8.142-4.437 18.614-10.086 23.273-12.554 14.437-7.65 20.076-12.06 25.225-19.73 3.767-5.612 4.66-10.705 2.171-12.376-1.875-1.257-2.742.16-4.187 6.846-.994 4.591-1.648 5.943-4.202 8.675-4.418 4.727-12.669 10.082-26.246 17.034-21.563 11.042-35.789 16-44.383 15.471-2.391-.147-4.375-.214-4.408-.149-.033.065.515 2.067 1.219 4.449Z" fill="#FAF5E5"/></svg>