<svg xmlns="http://www.w3.org/2000/svg" width="1030" height="1566" fill="none"><path fill="#FAF5E5" d="M463 1042h98v75h-98z"/><path d="M508.406 820.615c7.31-9.078 14.238-18.49 22.01-27.154 9.46-10.527 18.904-21.308 29.702-30.354 12.438-10.432 25.959-19.717 39.719-28.38 19.987-12.582 41.869-21.054 64.946-26.23 9.699-2.182 19.477-4.014 29.24-5.845 1.338-.255 2.867.494 4.204 1.831-9.842 2.198-19.716 4.189-29.494 6.625-33.317 8.298-64.166 22.122-91.606 42.857-28.556 21.564-51.346 48.479-69.517 79.184-24.16 40.834-40.229 84.981-51.887 130.831a50.368 50.368 0 0 0-1.338 7.836c-.366 4.029.415 7.262 5.463 7.788 6.753.716 13.458 2.198 20.226 2.564 17.503.939 35.021 1.433 52.54 2.15.907.032 1.815.398 2.707.605l.287 1.513c-1.975.494-3.982 1.497-5.941 1.433-16.674-.525-33.348-1.258-50.023-1.911-1.003-.032-2.007 0-4.427 0 19.541 5.59 38.477 4.778 57.667 6.386-.684 1.943-.907 3.265-1.576 4.316a2113.197 2113.197 0 0 1-16.707 25.93c-2.325 3.55-5.574 6.27-4.363 11.66.493 2.21-3.17 5.31-4.81 8.1-.892 1.5-1.497 3.17-2.214 4.78-1.067 2.36-1.751 4.97-3.233 7.02-6.911 9.57-14.014 19-21.101 28.46-.765 1.04-1.943 1.75-2.756 2.76-2.054 2.5-4.029 5.09-6.035 7.64.382.32.764.64 1.146.94 5.495-6.08 10.973-12.17 17.264-19.14.637 2.79.987 4.28 1.704 7.37 1.561-3.92 3.01-6.56 3.647-9.39 1.513-6.8 4.252-9.69 10.989-9.93 3.965-.14 5.876-2.16 7.469-5.49 2.692-5.64 5.144-6.96 9.906-5.92 1.163-2.33 2.5-4.64 3.536-7.08 1.321-3.13 1.688-6.72 6.784-6.19 1.354.14 3.09-2.74 4.571-4.3 2.946-3.14 5.845-6.32 8.966-9.68 3.376 3.9 5.765 1.65 7.82-.69 7.931-9 15.734-18.12 23.618-27.152 1.895-2.166 3.965-4.189 5.956-6.259.446.382.892.748 1.338 1.131l-9.237 12.44c3.695-1.87 6.1-3.08 9.747-4.923-1.099 2.933-1.72 4.623-2.071 5.553 1.593.82 2.851 1.6 4.221 2.11 1.847.7 4.013 2.07 5.653 1.64 16.882-4.45 33.684-9.24 50.533-13.874 16.77-4.603 33.381-10.145 50.422-13.442 19.206-3.694 38.875-3.822 58.352-1.513 12.661 1.497 25.354 3.249 37.777 6.068 20.512 4.651 36.836 16.211 50.31 32.341 10.32 12.35 19.748 25.17 26.548 39.77 6.179 13.24 9.89 27.01 10.145 41.86.127 7.16 1.497 14.76 4.22 21.35 5.527 13.38 5.686 26.52 1.227 39.93-2.246 6.72-1.322 12.69 1.226 19.32 3.567 9.27 6.147 19.04 7.947 28.82 1.338 7.23-1.242 13.79-6.259 19.89-8.122 9.88-14.859 20.88-22.758 30.95-8.122 10.33-16.929 20.14-25.45 30.16-2.691 3.15-5.462 6.23-8.791 10 7.883 2.55 7.804 9.69 9.396 15.85.462-.08.94-.16 1.402-.26.446-1.76.876-3.52 1.736-6.96 2.309 3.35 4.077 5.67 5.606 8.16 13.33 21.44 19.191 45.45 24.271 69.77 5.224 25 10.288 50.06 16.228 74.9 2.071 8.62 6.753 16.58 9.938 24.96 3.281 8.63 3.934 17.43-1.688 25.32-3.265 4.58-7.087 9.12-11.61 12.39-13.585 9.79-25.513 21.2-36.216 33.98-2.261 2.7-4.809 5.13-7.23 7.7h-55.343c-.238-2.54-.812-5.08-.636-7.58.589-8.73 1.704-17.32-6.466-23.88-4.635-3.72-7.31-8.79-6.387-15.33.765-5.43.398-11.02 1.179-16.44 1.019-7.01 1.752-14.28 4.268-20.81 5.638-14.72 4.969-29.71 4.188-44.92-.477-9.49-.207-19.03.239-28.53.335-7.12 1.832-14.19 2.118-21.3.112-2.66-1.13-7.21-2.818-7.8-8.744-3-11.419-10.59-15.162-17.57-1.481-2.77-3.265-5.44-5.319-7.82-4.268-4.92-9.237-9.27-13.139-14.44-4.173-5.53-9.619-8.9-15.385-12.39-14.827-9-29.176-18.78-40.993-31.74-1.672-1.85-2.914-4.26-4.889-5.61-1.704-1.16-4.268-1.78-6.259-1.48-.86.14-1.672 3.2-1.784 4.98-.159 2.63-.159 5.45.606 7.94 5.605 18.26 11.1 36.56 17.263 54.65 4.555 13.33 9.874 26.41 15.241 39.45 2.198 5.34 6.625 9.99 7.9 15.45 3.36 14.51 5.876 29.24 8.09 43.97 1.497 9.89 3.615 18.94 11.291 26.36 7.31 7.07 12.662 15.75 15.958 25.62 5.001 14.96 10.32 29.79 15.417 44.71 1.64 4.79 2.962 9.7 4.427 14.55H293.98c.557-4.9 1.433-9.81 1.624-14.73.51-13.36.844-26.72 1.003-40.08.064-5.08-.573-10.16-.891-15.36-1.37.07-2.15-.11-2.676.18-13.362 7.1-27.138 13.58-39.926 21.63-11.722 7.37-19.494 18.98-27.218 30.32-4.109 6.04-8.281 12.02-12.422 18.04H192.34c-1.752-13.61.701-26.5 6.498-38.9 9.46-20.24 16.292-41.43 22.249-62.91 5.43-19.64 12.74-38.51 23.124-56.11.557-.95.844-2.05 1.21-2.96-6.322 3.17-12.422 6.56-18.792 9.37-19.796 8.66-39.974 6.78-60.009 1.13-9.97-2.82-19.605-6.87-29.479-10.04-35.706-11.46-59.34-2.37-83.054 24.42-2.882 3.25-5.207 6.99-7.899 10.41-1.481 1.88-3.185 3.59-5.463 4.83 6.068-14.18 17.36-24.3 28.476-35.96-7.644 2.15-14.11 3.98-20.592 5.79l-1.226-1.22c1.56-2.55 2.787-5.4 4.745-7.58 15.528-17.31 34.671-30.05 54.626-41.46 16.723-9.55 33.795-18.6 51.25-26.71 17.614-8.2 35.786-15.25 53.909-22.31 19.51-7.58 39.242-14.57 58.878-21.83 1.067-.4 2.119-.86 3.313-1.34-2.007-5.11-3.966-9.99-5.829-14.89-.414-1.07-.637-2.25-.748-3.38-.367-4.17-1.099-5.83-6.673-5.44-14.429.98-26.74 6.81-38.955 13.53-6.004 3.3-11.976 3.36-18.219.21-9.078-4.6-17.264-10.29-24.08-17.87-1.067-1.19-1.689-2.79-2.533-4.19 1.386 1.18 2.979 2.2 4.141 3.57 6.593 7.85 15.703 11.98 24.653 15.96 3.425 1.53 8.409 1.48 12.04.24 13.888-4.72 27.393-10.53 41.249-15.29 10.081-3.47 16.531-10.05 20.544-19.64 2.596-6.19.86-8.42-5.781-9.43-7.565-1.13-14.939-3.42-22.806-5.3 2.5-5 5.208-6.67 10.017-5.24 4.077 1.21 8.457 1.61 12.741 1.91 3.791.27 4.858-1.61 2.899-5.02-2.58-4.45-5.208-8.9-7.597-13.47-2.739-5.27-7.278-6.64-12.773-7.04-7.771-.57-15.591-1.24-23.235-2.66-10.113-1.89-20.083-4.6-30.132-6.86-2.262-.51-4.587-.69-6.896-.97-11.722-1.48-23.411-3.44-35.197-4.33-26.07-1.98-50.23 6.37-74.278 14.87-.796.29-1.418 1.07-2.118 1.62.08.43.159.86.255 1.28 2.118 0 4.331.4 6.338-.08 6.355-1.48 12.566-3.6 18.952-4.89 9.635-1.96 18.697-.49 26.453 6.08 13.123 11.14 22.583 25.04 30.132 40.34-1.195-1.11-2.501-2.11-3.568-3.34-3.599-4.21-6.943-8.63-10.702-12.68-4.332-4.68-9.571-7.32-16.212-5.36-11.674 3.44-23.348 6.92-35.038 10.28-6.179 1.79-12.278 3-18.235-1.22-8.058-5.72-16.403-11.06-24.59-16.63-1.608-1.1-3.01-2.5-5.127-4.28 4.873-2.04 8.95-3.84 13.107-5.47 21.834-8.55 43.35-18.52 66.825-21.42 12.995-1.61 26.357-.9 39.512-.36 13.999.59 27.95 2.29 41.933 3.41 5.972.47 11.976.98 17.964.95 7.502-.05 14.987-.65 23.555-1.07-3.042-3.85-5.638-7.13-8.202-10.44-11.514-14.86-23.156-29.63-34.432-44.66-3.265-4.36-5.733-9.4-8.074-14.35-1.529-3.25-3.249-3.77-6.18-2.12-9.125 5.13-18.219 10.31-27.44 15.26-10.161 5.46-21.07 8.04-32.632 7.77-13.872-.32-27.759-.44-41.615-1.08-16.801-.77-33.603-1.86-50.39-3.01-9.475-.65-16.77-4.87-22.63-12.74-6.354-8.52-8.52-18.06-10.4-28.13-2.58-13.85-5.51-27.69-9.3-41.26-5.113-18.3-5.176-36.54-.908-54.803 5.048-21.675 5.765-43.621 4.921-65.694-.207-5.463 1.115-9.651 5.383-13.139 3.551-2.899 5.033-6.848 4.825-11.562-.238-5.351.478-10.798-.175-16.085-1.114-9.078 2.31-16.516 7.931-22.87 17.726-20.051 26.517-44.131 33.652-69.405 7.979-28.269 16.802-56.33 26.517-84.041 5.526-15.767 16.61-28.125 29.192-39.369 18.331-16.388 40.706-23.284 63.496-29.766 6.387-1.815 12.614-4.156 18.936-6.195 1.402-.446 3.106-1.178 4.332-.748 7.199 2.484 13.171-.59 18.697-4.316 9.078-6.132 18.331-12.2 26.533-19.398 5.638-4.953 9.635-11.785 13.696-18.57l-4.156 2.437c-.478-.096-.972-.191-1.45-.287 6.514-17.009 7.008-33.938.096-52.094-3.488 9.699-6.625 18.411-9.763 27.138a45.289 45.289 0 0 0-1.401-.223v-38.716c-8.075 6.275-15.241 12.343-22.934 17.646-7.708 5.32-15.878 10.034-25.529 11.897 11.642-12.502 25.195-24.08 27.233-41.981 1.529-13.314.59-26.962 0-40.42-.207-4.746-2.627-9.396-4.315-15.034-11.053 15.146-19.223 31.151-34.066 42.299 10.304-25.736 11.658-52.412 10.575-79.454-6.259 17.407-13.251 34.209-28.667 45.516-.51-.318-1.035-.653-1.545-.971 1.497-2.166 2.851-4.459 4.507-6.498 10.177-12.374 15.496-26.644 16.611-42.538.765-10.973 1.386-21.962 2.007-32.935.095-1.608-.128-3.233-.175-4.555-14.19 5.16-21.612 16.866-28.667 28.81-4.205 7.135-7.915 14.541-11.992 22.121-3.631-7.931-.239-28.268 13.362-81.891-.415-.175-.829-.35-1.243-.541-4.029 9.89-8.058 19.796-12.072 29.686l-1.433-.574c1.784-18.458 12.152-33.699 20.417-50.389-24.637 5.86-47.794 18.123-73.912 12.279 2.245-.494 4.587-1.673 6.721-1.37 15.48 2.182 27.918-6.402 41.28-11.499 7.405-2.818 14.413-6.688 22.822-10.67-16.786-5.064-31.948-10.67-42.953-23.714 13.267 6.96 25.784 15.751 39.64 15.624-9.826-5.638-21.086-12.088-32.362-18.554l-3.79-3.79c-6.737-7.39-13.696-14.604-20.114-22.249-2.182-2.612-3.026-6.338-4.491-9.54l1.337-.86c1.051.892 2.357 1.609 3.106 2.708 6.959 10.463 17.295 14.938 29.097 13.601 6.322-.717 13.091-4.284 18.139-8.409 17.917-14.652 35.196-30.1 52.205-45.851-23.029 8.027-40.834 22.471-52.81 44.099-.478-.287-.972-.573-1.449-.86.493-2.086.462-4.523 1.56-6.211 7.533-11.547 15.305-22.934 23.013-34.352.43-.637.94-1.227 1.418-1.832-.351-.318-.685-.637-1.035-.955l-22.918 24.732c-.35-.35-.701-.716-1.051-1.067 12.47-21.404 31.199-36.709 51.935-51.584-3.886-.828-7.215-1.401-10.48-2.245-10.559-2.739-21.133-5.463-31.629-8.489-1.608-.462-2.771-2.5-4.156-3.806 1.258.143 2.564.111 3.79.446 5.415 1.465 10.766 3.201 16.229 4.507 4.746 1.131 9.603 1.831 14.397 2.707-6.355-4.22-12.948-7.262-19.541-10.367-5.606-2.628-10.512-1.45-14.955 2.58-6.163 4.793-12.311 9.603-18.49 14.365-1.672 1.29-3.44 2.484-5.669 3.153 7.23-10.479 17.55-17.741 27.679-25.927-8.951-6.1-17.423-11.881-25.896-17.646.287-.51.574-1.004.844-1.513 1.45.509 2.947.955 4.364 1.561 7.772 3.328 15.384 7.118 23.379 9.842 2.899.987 7.087.286 9.954-1.131 16.897-8.377 34.129-15.783 52.715-19.541 6.943-1.402 14.015-2.182 21.181-3.265-6.689-7.469-13.362-14.907-20.035-22.36.558-.589 1.115-1.194 1.673-1.784 5.351 4.651 10.702 9.301 16.849 14.652-11.243-14.094-22.2-27.217-26.978-43.892.637-.43 1.258-.876 1.895-1.306 8.616 10.05 16.133 21.405 26.15 29.782 9.89 8.25 22.297 13.457 34.225 19.525-4.491-34.097-17.184-65.025-33.492-94.839 12.518 10.639 17.232 26.788 29.113 38.955-.287-3.647-.51-6.418-.861-10.686 2.517 2.15 4.014 3.328 5.383 4.634 1.338 1.258 2.533 2.66 4.523 4.746a792.671 792.671 0 0 1-1.943-5.574c.255-.302.51-.59.765-.892 2.628 1.45 5.24 2.883 8.648 4.762-4.316-4.045-8.107-7.58-11.897-11.132 7.867.064 51.919 35.754 53.877 43.509-5.574-3.965-10.128-7.198-15.113-10.75 2.755 3.982 5.048 7.517 7.596 10.862.717.955 2.182 1.943 3.281 1.927 8.95-.143 14.7 4.3 18.188 12.215.095.207.461.303 1.847 1.131-1.879-3.201-3.153-5.399-5.335-9.126 4.523.303 8.202-.191 11.371.876 10.033 3.408 20.21 6.657 29.67 11.34 10.208 5.064 19.652 11.689 29.447 17.63.812.493 1.656.923 3.679 2.054-.494-2.596-.494-4.332-1.163-5.749-3.615-7.645-8.425-14.174-16.531-17.678-5.781-2.5-11.371-5.479-17.216-7.772-3.297-1.29-4.332-2.739-2.468-5.861 9.73-16.244 17.216-33.365 20.241-52.22.112-.733.813-1.37 1.227-2.055l1.529.334-3.775 26.23c10.718-26.93 8.425-54.148 1.752-81.716 6.562 10.495 8.887 22.488 13.362 33.604 4.602 11.403 8.552 23.06 12.502 34.703 3.934 11.61 7.517 23.331 11.896 34.941-.78-10.368-1.544-20.72-2.325-31.087.558-.112 1.115-.24 1.688-.35.908 3.758 2.119 7.484 2.676 11.307 2.166 14.954 4.157 29.925 6.147 44.895.765 5.749 3.01 7.167 8.807 6.115 7.103-1.274 13.171-3.774 17.853-9.746 3.09-3.934 3.52-7.884 2.357-12.184-1.258-4.634-3.057-9.125-4.634-13.68-.621-1.784-1.226-3.583-1.21-5.685 9.205 5.892 12.294 15.798 16.897 25.29 5.064-4.348 9.986-8.552 14.891-12.773l1.099 1.099c-6.61 11.26-16.595 19.86-25.036 30.132 1.529.287 2.755.526 5.303 1.019-2.723 2.453-4.507 4.348-6.577 5.845-13.346 9.731-28.603 15.512-43.971 21.006a22.732 22.732 0 0 0-7.119 4.125c13.17 3.122 24.653-2.739 36.422-7.055.287.557.558 1.099.844 1.656-4.332 3.6-8.663 7.199-13.314 11.069 6.387-.573 14.525-4.252 20.529-9.444 5.701-4.937 11.227-10.097 16.833-15.146.446.335.876.669 1.322 1.004l-4.427 8.313c4.571-3.902 8.934-7.597 13.282-11.308.446.383.892.781 1.338 1.163-3.153 8.664-9.81 15.018-15.735 21.866.335.43.685.86 1.019 1.29 6.769-5 13.537-9.985 20.274-14.954.207 1.624.446 3.663.812 6.593 8.537-14.699 6.609-30.737 9.285-45.739.764.032 1.545.08 2.309.111.335 5.798.924 11.579.924 17.376 0 5.781-.605 11.578-1.019 18.33 1.784-4.316 3.217-7.74 4.634-11.164.59.16 1.195.319 1.784.478-1.099 4.412-1.832 8.95-3.392 13.203-2.533 6.864-5.606 13.505-8.441 20.257-2.564 6.116-2.007 7.167 4.125 9.652 16.34 6.593 33.333 10.049 50.883 11.068 5.383.319 10.734 1.274 16.117 2.628-4.937 3.615-10.75.796-16.849 2.707 8.679.701 16.451 1.322 24.239 1.943.063.749.127 1.481.191 2.23-7.119 2.867-14.238 5.733-22.058 8.887 8.107 12.024 8.887 24.605 4.38 37.601-.494.047-.987.111-1.481.159-.111-2.166-.892-4.571-.223-6.45 3.09-8.68-1.784-14.97-6.546-20.688-14.46-17.327-33.476-27.472-55.183-32.935 14.397 7.167 27.345 16.436 39.99 26.151-.175.414-.35.828-.525 1.226-1.306-.111-2.628-.207-3.886-.318 29.988 25.449 24.255 44.082 16.817 64.181 12.837 13.378 27.52 24.558 44.752 32.377-.239.574-.477 1.131-.716 1.704-3.791-.796-7.597-1.528-11.356-2.436-3.551-.844-7.166-2.962-10.558-2.596-8.807.955-16.404-3.169-24.686-5.288-1.417 4.969.94 8.107 3.759 10.623 7.708 6.88 15.671 13.457 23.522 20.162 5.957 5.081 12.009 10.05 17.742 15.385 1.258 1.162 2.357 4.204 1.704 5.351-1.019 1.815-3.583 3.902-5.494 3.902-9.429-.016-18.841-.701-27.504-1.099 2.946 1.338 6.688 3.042 10.447 4.746a88.508 88.508 0 0 1-.733 1.847c-8.823-2.962-17.646-5.94-26.707-8.998-.51 7.103-1.641 13.744-1.354 20.321 1.274 28.826-5.988 55.12-22.758 78.595-5.208 7.278-4.89 15.735-6.466 23.777-4.157 21.277-12.757 40.548-25.641 57.891-11.721 15.767-23.937 31.151-35.435 47.061-4.587 6.355-10.559 8.966-17.742 9.54-9.412.748-14.97 4.762-16.594 13.951-1.848 10.463-2.963 21.054-4.237 31.597-.828 6.768-1.815 13.553-1.815 20.337 0 2.612 1.863 6.243 4.029 7.645 9.062 5.877 18.474 11.244 27.934 16.483 8.743 4.842 17.71 9.301 26.564 13.935 12.709 6.657 21.915 16.723 28.237 29.463a3139.952 3139.952 0 0 1 21.261 43.621c.972 2.023 1.004 4.476 1.752 8.059-3.822-1.991-6.163-3.233-9.412-4.921v11.594c-.446.175-.892.366-1.354.541-1.067-1.337-2.134-2.675-3.504-4.363-.047.987-.35 1.911-.095 2.659 2.293 6.673 0 12.295-3.567 17.853-2.867 4.475-5.304 9.221-7.916 13.856-4.905 3.089-9.619 6.561-14.747 9.205-16.547 8.504-33.237 16.69-49.88 25.004 9.747-4.141 19.302-8.648 28.794-13.298 9.571-4.683 19.175-9.333 28.571-14.366 2.803-1.497 4.921-4.284 7.358-6.466l-.08-.143ZM222.138 448.649c.239.271.462.542.7.828 2.788 9.795 7.295 18.379 16.739 23.985-1.067-11.945-8.728-24.08 4.284-35.754-3.727-.557-5.765-1.242-7.74-1.083-2.771.207-5.479 1.306-8.25 1.465-1.099.064-3.026-1.226-3.217-2.182-.191-.955 1.035-2.707 2.102-3.312 2.087-1.211 4.491-1.863 6.753-2.739-2.755-7.709-10.193-4.173-15.99-7.295-2.198 9.683 2.246 17.742 4.635 26.087h-.016ZM787.206 1284.6c-7.342 6.56-14.7 13.12-22.042 19.67-.462-.51-.924-1.02-1.37-1.53 9.874-12.17 21.755-22.25 34.735-31.6-1.354-1.86-2.469-3.48-3.695-5.03-5.367-6.77-11.18-13.23-13.378-21.98-.509-2.02-1.752-4.09-3.233-5.57-5.558-5.54-11.482-10.72-17.025-16.29-2.802-2.82-5.239-2.17-7.963-.34-5.255 3.52-10.479 7.11-15.782 10.55-1.306.84-2.899 1.25-4.364 1.86-.255-.42-.525-.85-.78-1.26 1.417-1.56 2.691-3.26 4.268-4.63 3.774-3.27 7.581-6.53 11.578-9.51 2.309-1.72 4.236-2.88 2.23-6.32-2.039-3.51-4.667-2.6-7.294-1.68-2.341.83-4.444 2.31-6.753 3.27-4.603 1.93-9.269 3.68-13.903 5.51-.319-.64-.637-1.28-.956-1.91 5.67-3.52 11.323-7.04 17.025-10.59-3.042-3.54-6.02-7.03-9.906-11.55-11.928 12.84-22.854 24.61-34.575 37.22 2.882-.27 4.188-.38 6.959-.64-2.707 2.95-4.395 4.94-6.258 6.76-8.553 8.32-16.165 17.34-20.895 28.44-.717 1.69-1.497 4.51-.685 5.49 5.558 6.68 12.645 11.37 20.592 15.18 5.415-10.03 10.495-19.46 15.576-28.89l1.592.7c-.366 1.32-.573 2.69-1.099 3.94-3.822 9.04-7.724 18.04-11.53 27.07-.908 2.15-1.688 4.27.765 6.21 8.424 6.71 16.754 13.54 26.532 21.45 1.115-19.36 4.81-36.44 13.617-52.09.446 2.67-.144 5.1-.765 7.5-.684 2.71-2.819 6.34-1.799 7.95 2.532 3.98.175 6.62-.988 9.68-1.592 4.19-3.631 8.22-5.128 12.45-2.994 8.46-1.799 11.34 4.937 17.41 14.143 12.73 27.504 26.2 36.805 43.11.685 1.26 1.672 2.36 2.644 3.7 10.113-28.61 31.676-52.62 55.613-61.81-6.036-3.33-9.587-8.31-11.482-14.57-1.243-4.1-4.539-4.99-8.25-5.02-6.37-.06-12.757.11-19.111-.13-1.481-.04-2.915-1.37-4.38-2.1 4.666-.7 9.317-1.42 14.111-2.13-2.724-4.38-5.957-3.79-9.365-1.53-1.656 1.1-3.201 2.37-4.81 3.57l-.015.01ZM284.79 493.098c7.613 10.002 14.493 19.398 21.755 28.476 7.868 9.842 14.684 20.56 25.291 28.03 31.119 21.93 65.821 35.514 102.722 43.493 12.326 2.676 24.51 1.306 31.581-11.976 1.306-2.452 3.535-4.411 5.303-6.625 14.907-18.618 29.447-37.522 39.194-59.515 6.434-14.509 11.817-29.607 12.263-45.517.764-27.44.207-54.912.207-82.369h-1.322l-9.555 45.788-1.561-.192v-7.708c-1.322 3.807-2.692 7.724-4.061 11.658-.574-.143-1.147-.271-1.72-.414.223-3.934.382-7.852.7-11.769.351-4.3 1.45-8.616 1.147-12.868-.334-5.001-1.242-10.145-2.962-14.843-1.593-4.364-.51-11.228-8.282-11.356-.541 0-.955-1.449-1.624-1.736-1.625-.668-3.631-1.831-5.017-1.385-2.389.78-4.427 2.628-6.943 4.236 7.039 5.622 8.886 12.693 8.488 19.828-3.265 2.15-5.861 3.854-8.457 5.558.335.526.653 1.051.988 1.577 1.576-.605 3.153-1.195 4.778-1.816 1.019 5.081-1.147 8.568-5.256 9.811-5.845-3.472-6.131-8.218-3.551-13.904-3.647 2.899-7.502 5.558-8.983 9.19-.685 1.672 3.297 5.239 5.463 8.377-2.182 0-4.3.079-6.402-.016-5.128-.255-6.96-2.31-6.132-7.422.446-2.723 1.641-5.319 2.628-8.361a1379.376 1379.376 0 0 0-4.284 6.482c-.207-2.373-.542-3.265-.303-3.966 5.128-14.699 11.977-28.252 25.418-37.314 2.293-1.545 6.227-3.647 6.132-5.287-.462-7.677-1.402-15.48-3.568-22.838-1.162-3.966-4.188-3.536-6.434.318-3.09 5.335-6.052 10.734-9.11 16.085-2.373 4.157-4.873 8.25-7.198 12.423-2.883 5.192-5.526 10.511-8.52 15.639-2.835 4.841-5.973 9.508-9.03 14.238-.606.939-1.434 1.752-2.166 2.627-.606-.286-1.195-.573-1.8-.844 5.16-11.928 5.001-25.497 12.231-36.725 7.071-11.005 14.556-21.739 21.102-31.469-1.433-2.405-3.201-5.367-5.399-9.078-15.655 29.192-26.31 59.149-50.979 79.9l-1.194-.669a42331.12 42331.12 0 0 0 19.907-37.378c-7.867 12.359-14.891 25.179-25.258 35.818 9.109-19.127 22.439-36.487 23.363-58.783-5.287 9.237-9.842 18.856-15.321 27.918-5.303 8.791-10.176 18.044-17.343 25.513-.382-.254-.781-.493-1.163-.748.398-1.338.797-2.676 1.242-4.157-5.271 7.501-10.511 14.78-15.495 22.217-.669.987-.59 3.058 0 4.188 1.242 2.389 3.041 4.492 4.618 6.705-5.654-.334-10.575-2.755-12.82-6.959-7.661-14.318-28.985-22.966-45.835-10.209-12.406 9.38-13.967 22.042-3.026 33.015 1.417 1.417 2.994 2.787 4.029 4.459.51.828.335 2.532-.207 3.424-.318.541-1.991.573-2.962.366-1.099-.239-2.405-.764-3.058-1.608-4.459-5.718-12.326-8.712-11.466-18.729.35-4.109-.813-8.744.637-13.155.175-.51.175-1.37-.128-1.704-2.755-2.994-.828-5.479.796-7.979 3.202-4.921 8.139-8.297 13.553-8.393 12.47-.223 25.084.016 37.426 1.704 5.75.78 10.989 5.351 16.802 8.377-.175-.653-.159-1.927-.764-2.659-4.985-5.941-11.228-9.731-18.968-11.196-4.507-.86-8.903-2.326-13.346-3.52.717-1.577 1.163-2.007 1.513-1.943 9.237 1.8 18.474 3.631 27.679 5.574.749.159 1.354 1.226 1.927 1.959 1.37 1.72 2.676 3.488 4.937 6.45 3.01-8.664 5.415-15.623 7.868-22.647-1.051-.7-1.672-1.353-2.421-1.592-13.808-4.157-27.504-8.775-41.487-12.168-6.163-1.497-13.027-2.452-19 2.58-6.625 5.606-12.087 11.722-15.177 20.051-7.644 20.64-15.146 41.248-15.146 63.72 0 3.917-1.051 7.835-1.608 11.753l-2.23-.096c-1.64-12.119-.159-24.446-.876-36.725-1.353 3.727-2.627 7.247-3.901 10.766-.622-.111-1.259-.207-1.88-.318V428.79c-.637-.16-1.29-.335-1.927-.494-1.194 2.357-3.074 4.602-3.456 7.071-1.863 12.104-1.879 24.223.59 36.311.828 4.013.891 8.17 1.305 12.263-.621.159-1.258.303-1.879.462-.924-1.816-2.054-3.568-2.707-5.479a317.15 317.15 0 0 1-4.619-14.747c-1.688-5.909-4.204-7.23-10.113-5.335-1.974.637-4.22.414-6.147 1.146-1.863.701-3.695 1.896-5.001 3.345-.334.366 1.035 3.074 2.182 3.822 6.195 4.061 10.431 9.492 12.677 15.862-8.425 1.274-16.722 2.517-25.625 3.854 1.004 1.322 1.418 2.357 2.166 2.772 6.689 3.726 13.394 7.469 20.258 10.861 1.019.51 3.169-.414 4.348-1.29 2.484-1.847 4.65-4.077 6.959-6.163v.047Zm356.311 521.882c8.234-.55 15.687-1.14 23.172-1.52 8.998-.44 18.028-.57 27.027-1.08 8.472-.48 16.913-1.39 25.385-1.86 2.819-.16 6.307-1.15 8.075 2.94-16.786 1.23-33.19 2.74-49.641 3.55-16.229.8-31.725 3.51-45.389 13-7.31 5.08-14.716 10.02-21.389 14.56 4.842 6.94 9.492 13.18 13.681 19.71 3.774 5.88 6.975 12.12 10.606 18.08 2.166 3.55 4.906 5.3 9.572 3.52 11.307-4.33 22.726-8.44 34.273-12.14 21.977-7.05 44.64-10.3 67.669-10.94 9.89-.27 19.796-.17 29.686 0 7.676.13 15.336.49 22.997.99 5.208.33 10.399 1.1 16.388 1.77-2.803-7.84-5.463-15.05-11.037-20.48-11.339-11.06-24.622-19.08-39.353-24.96-6.211-2.49-11.913-6.23-17.837-9.4.207-.49.398-.98.605-1.49 18.188 2.21 35.228 8.58 52.428 15.86-6.434-7.36-12.502-14.29-18.585-21.23.35-.42.716-.85 1.067-1.26 5.51.1 8.679 4.59 12.884 7.41-4.619-5.78-9.237-11.582-13.84-17.363 1.545-.621 2.198-.541 2.739-.239.717.398 1.354.956 2.023 1.449 9.54 6.943 14.891 16.833 19.254 27.413 9.285 22.53 14.923 45.99 19.462 69.91 5.431 28.65 9.396 57.45 10.463 86.51.828 22.73-.446 45.53-.844 68.31 0 .79-.669 1.59-1.019 2.39l-1.561.08c-1.481-8.96-2.962-17.91-4.666-28.24-.924 1.56-1.354 2.08-1.577 2.69-5.001 13.47-12.995 26.2-10.224 41.58.095.5.032 1.01 0 1.52-.637 11.89 4.746 20.99 14.413 29.49 3.933-6.12 7.787-12.06 11.594-18.01 14.206-22.22 21.149-46.74 23.761-72.8 1.322-13.2 3.886-26.26 5.543-39.43 1.704-13.52 3.296-27.06 4.299-40.64.637-8.51-.175-17.13.192-25.66.668-15.56-4.38-29.61-11.371-42.95-9.811-18.73-22.297-35.44-38.541-49.31-10.352-8.839-21.564-15.91-34.846-18.602-12.168-2.468-24.574-4.348-36.948-5.017-15.464-.812-31.167-1.576-46.456.303-18.522 2.293-36.869 6.737-54.992 11.419-15.942 4.109-31.454 9.857-47.173 14.827-3.79 1.19-7.644 2.21-11.483 3.31.048.34.08.67.128.99 6.243.53 12.486 1.07 18.729 1.59 0 .58.016 1.15.031 1.72-2.038.31-4.077.56-6.099.91-3.408.61-6.816 1.27-10.225 1.88-3.153.56-3.201 2.28-1.927 4.71 2.389 4.59 4.698 9.22 6.976 13.88 1.37 2.81 3.249 3.61 6.02 1.89 3.551-2.18 7.119-4.32 10.686-6.45 9.078-5.45 18.156-10.89 27.234-16.34-.558-.75-1.131-1.51-2.007-2.72l-.032-.03ZM418.329 631.256c-.637.032-1.258.048-1.895.08-.207-1.705-.446-3.409-.573-5.129-.08-1.099.493-2.548-.032-3.249-3.376-4.507-6.418-9.507-10.623-13.107-5.892-5.032-12.645-9.077-19.127-13.409-23.22-15.464-45.022-32.664-65.137-52.014-3.36-3.233-6.959-6.243-10.511-9.285-2.484-2.134-4.825-2.532-6.482.525 1.864 2.947 3.584 5.638 5.383 8.489-1.115.414-1.417.621-1.72.605-.478-.016-1.115-.016-1.417-.302-5.734-5.336-11.69-10.4-13.585-18.681-1.593-6.992-4.666-13.362-10.925-18.252-.669 1.274-1.179 2.071-1.513 2.931-5.702 15.129-6.673 30.88-5.909 46.822.16 3.137-.207 7.39 1.593 9.11 3.312 3.137 2.914 6.625 2.038 9.571-4.045 13.489-9.81 26.134-19.604 36.677-10.081 10.862-21.612 19.844-34.05 27.775-1.401.892-2.596 2.134-3.759 3.106 22.472 5.59 44.434 11.068 66.3 16.515a4133.47 4133.47 0 0 1-1.051-8.138l1.481-.478c1.609 2.055 3.09 4.22 4.842 6.148 3.87 4.3 7.389 9.077 11.896 12.581 10.511 8.154 21.452 15.751 32.362 23.347 2.5 1.752 5.51 3.313 8.456 3.791 10.496 1.64 21.054 2.85 31.613 4.045 4.38.494 8.807.51 13.888.78-9.874-18.107-18.442-36.152-24.622-55.406 2.182 1.019 4.109 2.341 4.921 4.157 3.663 8.202 6.88 16.595 10.496 24.812 5.637 12.821 13.871 23.969 23.634 33.843 3.057 3.09 6.497 7.628 13.584 4.857-1.433-5.43-1.943-11.307-4.538-16.037-2.676-4.905-2.851-9.731-2.071-14.525 1.067-6.513 2.692-13.123 5.272-19.174 5.924-13.983 7.708-28.364 6.195-44.386a4763.126 4763.126 0 0 1-4.826 11.037l.016-.032Zm371.409 827.734c.955 1.91 1.449 2.72 1.783 3.6 5.75 14.86 4.539 30.1 2.565 45.4-2.342 18.22-4.635 36.46-7.04 55.38 5.033 0 8.696-.19 12.311.05 4.618.31 7.342-1.82 9.635-5.67 5.065-8.54 7.883-17.73 9.014-27.49 1.434-12.46 2.294-25.01 4.205-37.4 2.484-16 6.927-31.43 16.977-44.64.7-.92 1.545-1.75 2.341-2.62.94 2.4 1.147 4.42.605 6.22-2.755 8.97-5.749 17.84-8.584 26.77-2.166 6.81-1.545 8.62 5.988 14.82 1.418-2.38 2.962-4.96 4.507-7.54.366.32.749.66 1.115.97-2.548 5.16-5.112 10.32-8.09 16.38 6.465-2.03 11.514-3.6 16.563-5.18.398.67.796 1.35 1.194 2.02-15.958 5.39-27.95 14.46-31.501 31.84-.558-2.79-1.115-5.59-1.943-9.72-.669 6.04-.733 10.74-1.816 15.2-1.131 4.66-3.392 9.04-4.857 13.65-.383 1.21-.016 2.96.589 4.15 5.542 10.86 19.859 12.07 27.488 2.57 14.063-17.51 28.268-34.88 42.411-52.3 1.959-2.41 3.918-4.81 5.876-7.23.351.27.717.54 1.067.81-3.44 9.55-11.466 16.08-17.136 24.21 8.759-3.6 14.986-9.88 19.812-17.68 3.201-5.16 3.137-10.48.111-15.61-7.931-13.39-14.492-27.31-17.518-42.71-6.052-30.77-12.088-61.56-18.458-92.25-1.115-5.38-2.915-11.18-6.132-15.48-5.876-7.85-12.836-14.92-19.732-21.94-7.135-7.28-7.182-6.47-14.445-.85-13.967 10.8-24.223 25.1-34.193 39.5-2.787 4.03-.398 6.34 2.947 8.68l.955-5.85c.51-.15 1.019-.31 1.529-.47.86 1.86 2.58 3.77 2.453 5.56-.59 8.6-1.067 17.29-2.724 25.72-2.468 12.58-6.243 24.92-5.128 37.95 1.067 12.45 2.278 24.91 3.376 37.02.446-1.38 1.004-3.08 1.912-5.87l-.032.03Zm-552.407-424.36c.366-.42.717-.83 1.083-1.24 8.122 3.18 16.818 5.39 24.239 9.79 8.107 4.81 16.611 6.83 25.545 7.39 14.382.92 22.966-9.48 33.827-18.43-15.575-2.61-26.532 8.36-39.767 9.96-.908-2.63-2.723-5.18-2.245-7.17.525-2.15 3.201-3.76 5.462-6.18-5.351-1.85-10.145-3.63-15.002-5.16-11.626-3.68-18.251-12.12-20.99-23.41-1.593-6.546-1.259-13.553-2.182-20.29-1.115-8.217-2.644-16.372-3.998-24.557l-1.895-.144c-1.147 1.911-2.675 3.711-3.36 5.781-2.548 7.724-4.778 15.544-7.231 23.284-.78 2.469-1.911 4.842-2.898 7.246-.589-.175-1.195-.334-1.784-.509.223-3.265.271-6.562.701-9.811 1.051-8.058 2.277-16.101 3.408-24.159.446-3.201-.876-4.364-4.22-4.428-8.839-.159-17.63.956-26.406-2.723-5.462-2.277-12.071-1.784-18.155-2.596-10.941-1.449-21.436-.287-30.132 7.007-5.717 4.794-11.371 9.97-15.798 15.91-6.514 8.744-12.948 17.853-17.487 27.696-3.743 8.123-5.447 17.443-6.641 26.423-1.099 8.34-1.72 17.44 4.809 24.3 5.941 6.26 12.598 11.85 18.952 17.71.478.45 1.067.97 1.672 1.07 9.46 1.41 18.443 4.15 26.66 9.17.526.32 1.72-.7 2.469-.51 4.029 1 9.747 1 11.53 3.65 1.689 2.48 3.026 3.41 5.144 3.07 4.699-.73 9.922-1.02 13.824-3.34 9.396-5.61 18.172-12.3 26.756-18.24-9.174 1.07-17.646 7.44-27.839 7.25a32.64 32.64 0 0 1 8.345-6.4c9.476-5.08 18.777-9.45 30.355-5.75 5.463 1.73 12.215 1.65 17.471-2.42-3.297-7.68-12.12-11.09-14.238-19.26l.016.02Zm571.215 243.41c.128-1.08.287-2.15.367-3.23.557-7.47.159-15.16 1.847-22.38 2.723-11.63 7.023-22.87 10.256-34.4 3.313-11.78 8.027-23.24 7.151-36.01-.892-12.99-.494-26.08-1.29-39.1-.319-5.17-.78-11.69-3.902-15.08-9.54-10.38-19.891-20.27-34.4-23.79-13.171-3.2-26.453-5.86-40.038-3.86-22.837 3.4-40.022 16.71-55.326 32.91-1.02 1.08-1.227 4.25-.399 5.56 2.389 3.77 5.24 7.32 8.362 10.54 8.52 8.79 17.359 17.28 25.895 26.05 6.148 6.34 11.897 12.92 13.107 22.38.303 2.31 2.692 4.67 4.667 6.37 4.013 3.46 8.504 6.34 12.597 9.71 3.727 3.08 7.437 6.25 10.702 9.82 7.74 8.47 18.729 14.52 20.768 27.39.254 1.56 1.433 2.99 2.277 4.43 4.857 8.13 15.098 12.26 17.359 22.71v-.02Zm-600.535 65.09c1.466-.72 2.15-1.31 2.899-1.39 4.619-.52 9.285-.71 13.871-1.41 11.802-1.8 23.555-3.95 35.372-5.71 8.457-1.25 10.368-2.97 11.355-11.62.096-.83.048-1.69.207-2.5 1.004-5.16.351-6.37-4.905-6.31-10.766.11-21.516.54-32.266 1.02-3.95.18-8.074.21-11.753 1.42-12.757 4.2-25.386 8.84-38.015 13.46-9.683 3.53-19.86 6.24-28.795 11.18-24.924 13.74-48.988 29.03-74.04 42.5-12.071 6.5-19.859 17.35-30.37 25.26-.653.48-.764 1.67-1.13 2.53.19.37.366.74.557 1.1 17.407-9.12 35.467-15.83 55.295-15.61 19.604.23 38.588 3.6 56.68 11.66-1.035.08-2.07.16-4.364.32 13.442 4.89 26.198 6.43 39.098 7.01 6.004.27 12.343 1.1 18.013-.35 17.024-4.33 32.361-11.44 40.451-28.86 3.456-7.44 8.123-14.32 12.232-21.45-.446-.42-.892-.81-1.338-1.23-11.164 10.16-22.328 20.31-33.492 30.47-.669-.72-1.338-1.45-1.991-2.17 7.676-7.55 15.4-15.05 23.013-22.66 6.609-6.61 13.202-13.25 19.557-20.1 2.962-3.2.509-4.75-2.548-5.3-1.609-.29-3.393-.19-4.985.2-15.464 3.87-31.151 5.37-47.077 4.8-4.778-.18-7.995-2.53-11.499-6.28l-.032.02Zm151.886-325.46c-.143-.42-.271-.83-.414-1.25-3.886-.44-7.772-1.08-11.674-1.27-9.332-.46-18.713-.35-28.013-1.19-6.307-.56-12.773-2.17-16.086-8.49-2.293-4.4-3.822-9.208-5.542-13.874-.318-.844.096-1.959.175-2.946.414-.112.828-.223 1.243-.351 1.608 2.787 3.057 5.702 4.889 8.345 2.325 3.329 4.443 7.136 7.581 9.476 6.832 5.06 14.89 5 23.06 3.84 7.565-1.07 15.194-1.67 22.79-2.55 8.584-.99 17.152-1.94 25.705-3.15 1.242-.18 3.137-1.5 3.328-2.54 1.513-8.675 7.358-16.351 5.511-25.875-.717-3.727-1.864-5.192-5.686-5.112-8.711.191-17.471-.446-26.15.191-9.667.717-15.369-3.886-19.446-11.865-3.87-7.58-7.039-15.703-12.04-22.439-5.845-7.868-13.441-14.413-20.067-21.723-1.56-1.72-2.994-4.109-3.248-6.339-.956-8.584-1.816-17.232-1.959-25.864-.191-10.479-2.803-14.062 13.059-17.693 9.11-2.087 10.336-1.29 14.97 4.889 1.322 1.768 4.38 2.23 6.641 3.281.43-2.166 1.736-4.651 1.099-6.434-1.465-4.125-.175-7.517 2.214-10.225 3.233-3.679 6.896-7.214 10.973-9.89 7.007-4.571 7.262-4.73 1.067-10.543-.35-.318-.844-.493-.239-.143-8.154 3.121-15.464 6.195-23.013 8.6-1.465.462-4.507-1.242-5.526-2.787-1.879-2.835-2.787-6.307-4.093-9.492-7.183-.828-10.862 1.003-13.489 7.501-1.211 3.01-1.418 6.45-2.119 9.667-3.057 13.999-9.475 25.386-23.618 31.024-3.647 1.449-7.803 2.898-10.336 5.638-4.873 5.271-4.984 16.356-.796 22.503 4.587 6.737 9.667 13.139 14.381 19.78 2.564 3.599 5.718 7.151 6.944 11.228 1.401 4.666.86 9.906 1.37 14.875.716 6.927 1.624 13.823 2.452 20.751.175 1.513.303 3.042.446 4.555-.414.111-.828.207-1.226.318-8.091-18.792-16.181-37.601-24.606-57.174-7.485 8.616-13.951 15.926-20.242 23.38-2.213 2.627-2.118 5.621-.669 8.822 3.44 7.597 7.597 14.493 15.417 18.379 2.835 1.402 5.781 2.676 8.409 4.427 4.061 2.708 8.998 4.3 10.957 9.683 1.274 3.488 3.233 6.912 5.606 9.763 3.424 4.113 7.564 7.613 11.243 11.513 1.195 1.26 1.927 2.96 2.867 4.46-.446.41-.908.83-1.354 1.24-14.843-11.11-29.702-22.23-45.468-34.047.43 8.521.844 15.321 1.115 22.137.366 9.48 5.574 13.95 14.683 14.94 6.418.7 12.789 1.86 19.159 2.88 1.242.21 2.421.75 4.539 1.43-2.468 1.06-3.743 1.6-5.017 2.15.032.48.08.94.112 1.42 3.074 0 6.147.07 9.205 0 10.718-.3 21.357-.62 30.865 5.99 1.592 1.1 5.175.91 6.975-.16 7.215-4.25 14.11-9.08 21.118-13.7l-.032.04Zm311.049 78.7.191 1.12c-1.114.38-2.197 1-3.344 1.13-3.966.44-7.947.7-11.913 1.1-3.949.38-4.969 2.55-2.548 5.62 2.66 3.39 6.052 5.13 10.495 5.99 4.125.81 8.425 2.88 11.674 5.57 3.631 3.03 6.434 7.2 9.062 11.23 1.815 2.77 3.233 2.85 5.526.89 3.791-3.25 7.772-6.27 11.499-9.59 11.737-10.41 25.959-16 40.515-20.94 1.083-.37 2.309-.38 3.472-.45 10.655-.52 21.325-1 31.979-1.51.064-.19.144-.38.207-.57-13.871-2.55-27.727-5.1-41.598-7.63.064-.49.143-.97.207-1.47 12.343 1.02 25.163.29 36.884 3.56 11.722 3.26 22.329 10.52 33.827 16.24 3.074-8.89 4.013-18.44 1.816-28.22-1.497-6.69-5.288-10.29-12.024-10.88-10.448-.91-20.927-1.78-31.39-1.99-9.158-.19-18.363.4-27.52.96-7.804.48-15.815.44-23.3 2.32-20.417 5.11-40.643 11.07-60.885 16.87-3.472.99-6.689 2.88-10.033 4.35.143.66.286 1.33.43 2 23.379 3.38 46.583-3.56 69.978-2.1-16.579 4.24-33.619 4.35-49.45 5.94 1.386.11 3.807.29 6.243.48v-.02ZM445.817 910.549c-2.118 2.006-4.172 3.312-5.367 5.16-5.096 7.867-12.072 13.537-19.716 18.792-10.893 7.502-17.996 17.901-22.105 30.61-5.224 16.149 11.96 32.234 24.175 28.077 4.794-1.64 10.289-2.548 11.547-9.316 1.927-10.304-1.306-18.634-9.858-22.058-2.469-.987-5.511-.493-8.298-.684l-.35-1.227c2.357-.748 4.969-2.564 7.023-2.086 9.508 2.261 15.783 7.963 16.037 17.694l8.409-7.056c1.147.717 2.134 1.338 2.453 1.545 3.822-15.448 7.613-30.753 11.419-46.057-.335-.08-.653-.16-.988-.239-.637 2.787-1.258 5.574-2.022 8.886-8.154-5.398-8.505-14.094-12.343-22.073l-.016.032ZM300.971 315.413c12.47-25.545 29.479-47.937 47.539-69.58.541.318 1.099.621 1.64.939-2.229 3.838-4.459 7.661-7.182 12.359 10.001-11.515 19.843-21.867 31.66-29.941l1.45 1.449c-4.874 5.861-9.747 11.706-14.604 17.566.095.096.191.192.27.287 9.906-7.899 19.812-15.782 29.718-23.682.621.462 1.242.94 1.848 1.402-1.29 3.806-2.421 7.676-3.902 11.419-1.497 3.79-3.329 7.453-5.017 11.18 1.067-.813 1.418-1.975 2.102-2.867 11.531-15.066 13.123-33.062 14.843-50.947.558-5.733-3.933-9.126-9.667-7.852-3.392.765-6.752 1.705-10.161 2.453-12.692 2.739-25.385 5.431-38.078 8.138v.144c3.599-.494 7.166-.972 10.75-1.466l.477 1.338c-24.987 16.149-54.196 26.358-73.482 51.393 10.241-9.699 20.991-17.789 33.031-24.016.334.414.668.844 1.003 1.258l-7.788 6.976c27.87-18.554 57.97-31.645 90.826-38.669-21.978 14.859-41.615 31.964-57.796 52.811-16.164 20.847-29.813 43.191-39.48 67.892v.016Zm105.764 623.293c-12.565 6.737-23.65 5.892-33.731-1.211-10.766-7.58-11.212-19.158-9.954-30.975-.637 1.943-1.258 3.87-1.895 5.813-1.083-3.202-.796-6.339-1.21-9.381-.175-1.306-1.784-3.408-2.803-3.456-9.11-.43-15.783 2.596-17.391 11.929-1.179 6.832-1.465 13.999-.86 20.91.414 4.794 2.038 10.082 4.777 13.968 8.441 11.96 28.396 18.187 42.634 14.349 10.83-2.915 14.764-12.168 20.433-21.962v.016Zm65.217-625.602c.955-3.743 2.277-7.438 2.787-11.228 1.003-7.406 1.863-14.875 2.214-22.328.509-10.846 1.895-21.898.445-32.537-2.691-19.764-12.055-36.566-27.44-49.657-7.708-6.562-16.26-11.18-26.087-11.387 4.81 11.721 10.607 23.22 14.19 35.356 3.632 12.326 5.081 25.306 7.406 37.569-.669-14.286-1.37-29.161-2.07-44.019.334-.255.653-.51.987-.765 2.198 2.516 4.953 4.73 6.514 7.613 5.096 9.396 6.434 19.875 7.357 30.291 1.418 15.894-3.185 30.641-9.858 44.847l-8.361 17.774c.064.031.128.079.191.111 4.953-7.915 9.906-15.814 14.875-23.73l1.386.574-1.625 8.425c8.123-26.358 9.301-53.034 3.122-80.06 21.006 28.858 21.659 60.359 13.951 93.167l.016-.016ZM314.349 166.107l-.048.637c10.432 1.688 20.815 4.157 31.31 4.906 16.5 1.178 32.601 3.742 48.272 9.125 6.498 2.23 13.155 4.029 19.43 5.925-1.832-5.543-2.564-11.642-5.638-16.149-4.061-5.973-9.635-11.212-17.662-12.056-6.944-.717-13.872-1.72-20.831-2.023-12.852-.573-25.721-.637-38.557-1.147-4.634-.175-9.269-.812-13.839-1.56-6.227-1.02-12.407-2.341-18.618-3.536.494 1.163 1.179 1.561 1.911 1.863 15.48 6.323 31.709 9.524 48.176 11.754 1.8.239 3.504 1.131 5.256 1.72-.175.748-.335 1.497-.51 2.245-12.884-.573-25.784-1.13-38.668-1.704h.016ZM847.772 1271.32c1.688-1.8 2.405-2.47 3.026-3.23 9.492-11.79 18.76-23.77 28.507-35.33 8.25-9.76 11.769-20.4 8.234-32.95-1.035-3.71-2.532-7.36-3.042-11.13-1.035-7.69-7.135-10.53-12.422-14.51-.462.69-.908 1.07-.972 1.48-1.752 14.67-3.01 29.43-5.351 44.01-1.545 9.58-4.093 19.11-7.23 28.3-2.596 7.61-6.689 14.7-10.75 23.34v.02ZM405.35 304.424c-12.359 19.095-24.749 38.222-37.601 58.098 8.902 3.631 17.645 7.182 26.835 10.941l3.965-14.063-16.34 5.479a77.117 77.117 0 0 0-.828-1.72c5.017-3.711 9.97-7.533 15.098-11.101 4.587-3.201 8.95-6.322 8.887-12.788-.112-11.69-.032-23.363-.032-34.83l.016-.016Zm142.935-25.848c-13.267-11.912-23.491-25.895-30.992-42.044-3.488-7.501-7.469-14.955-12.359-21.58-8.058-10.925-16.308-22.073-31.087-25.115 17.2 10.877 23.873 18.633 21.627 25.418-1.401-1.179-2.755-2.31-4.268-3.584 1.099 4.237 6.434 6.594 4.46 13.044-3.823-3.743-6.928-6.896-10.145-9.906-3.281-3.074-6.562-6.195-10.065-9.014-3.313-2.66-6.912-4.969-10.368-7.422-.382.494-.749.988-1.131 1.481 29.113 25.211 51.473 57.493 84.328 78.738v-.016ZM434.048 866.354c-14.524 3.568-25.975 10.814-37.028 17.742.16 2.532.112 4.937-1.035 6.609-4.602 6.769-10.702 11.753-18.649 14.365-8.25 2.708-10.543 7.804-7.581 16.149 24.638-8.982 53.384-33.158 64.293-54.865Zm-21.134-662.423c-1.369 11.451-2.054 22.281-4.077 32.856-2.038 10.718-4.746 21.42-8.345 31.708-3.567 10.161-8.249 20.003-13.171 29.606-4.873 9.524-10.67 18.57-15.273 26.469 33.875-32.568 58.608-96.272 48.192-125.83-1.99 14.667-3.997 29.431-5.988 44.194-.446-.064-.892-.127-1.322-.191v-38.812h-.016Zm119.413 132.154v61.171c.143.048.303.112.446.159l6.832-36.757c.542-.047 1.099-.079 1.64-.127 1.227 6.689 2.66 13.362 3.6 20.099.939 6.736 1.672 13.537 2.006 20.321.335 6.753.08 13.537.08 17.534 7.915-25.736 7.629-53.654-6.753-81.923 1.991 5.973 3.663 10.639 5.097 15.369 1.385 4.555 3.806 9.046 2.07 13.983-.541.191-1.083.398-1.624.589-4.284-9.746-8.584-19.509-13.378-30.434l-.016.016Zm-102.404 549.54c2.15-.765 4.253-1.226 6.1-2.198 10.623-5.558 21.213-11.148 31.724-16.913 6.769-3.711 9.349-10.655 7.135-18.841-15.321 7.565-29.941 15.99-42.506 27.648-2.931 2.723-4.077 5.924-2.453 10.304Zm84.822-503.355c2.5-19.971 3.312-39.815-.749-59.627-3.886-18.92-16.563-48.383-23.22-53.463 9.763 19.223 17.248 40.213 15.64 45.214-2.628-4.46-4.985-8.489-7.725-13.139 13.139 42.442 16.293 50.74 16.07 81.031l-.016-.016Zm43.86-103.152c-.096-1.465-.287-2.931-.239-4.396.398-11.721-2.007-22.535-10.352-31.31-2.007-2.118-4.507-3.854-7.023-5.383-1.083-.653-2.756-.351-4.141-.478.064 1.402-.239 2.946.223 4.189 2.994 7.931 6.498 15.671 9.157 23.713 2.437 7.358 7.342 12.311 13.33 16.802 4.953-12.741 6.625-29.558-1.21-35.053 1.815 10.607 6.322 21.166.239 31.916h.016Zm23.363 66.905c-9.348-10.177-20.146-20.481-29.176-32.139-8.505-10.989-19.812-16.659-32.983-22.519 17.391 23.936 39.385 40.611 62.159 54.658Zm200.73 1136.867c-1.449 2.19-3.551 4.15-4.124 6.49-1.179 4.79-1.529 9.79-2.214 14.71-.972 7.01 3.456 13.84.685 21.09-.271.71 3.87 3.09 5.956 4.7.924-1.26 1.959-2.44 2.739-3.78.478-.83.685-1.86.828-2.83 1.625-10.34 3.202-20.69 4.794-31.03-.446-.09-.892-.17-1.354-.27-.653 2.01-1.226 4.03-2.006 5.99-.812 2.02-1.832 3.95-2.771 5.91l-1.752-.53c.812-4.23 1.194-8.61 2.548-12.67 1.178-3.55.43-5.66-3.36-7.79l.031.01ZM321.563 332.9c-20.656 21.659-40.149 43.031-63.273 60.837 21.404-10.798 65.79-47.269 75.6-66.969-5.526 5.829-11.18 11.769-16.818 17.726l-1.433-1.051c1.799-3.218 3.615-6.435 5.924-10.528v-.015Zm77.607 384.579c-14.014-15.958-30.896-13.983-48.319-11.753 5.733 7.325 11.992 12.326 21.659 11.848 8.632-.43 17.296-.095 26.66-.095Zm-86.7-525.556c-29.766-8.122-56.824-2.835-82.72 11.085 26.915-5.909 53.989-10.607 82.72-11.085Zm69.914 668.316c-2.086-6.243-4.937-11.228-10.893-12.008-6.609-.876-14.063-.621-17.964 5.845-2.549 4.236-1.641 9.635 2.15 14.524 7.469-6.769 16.563-8.552 26.707-8.361Zm-12.772-556.627c17.232-25.514 30.434-52.667 34.575-83.564-8.313 29.177-22.599 55.9-34.575 83.564Zm46.679-181.842c13.091-28.906 8.695-56.92-4.507-84.647.398 23.443-2.867 46.217-11.021 68.227 3.679-9.03 6.944-18.22 8.807-27.68 1.895-9.619 2.405-19.493 3.52-29.271.493 0 .987.032 1.497.032 10.606 24.064 11.912 48.462 1.704 73.323v.016Zm-61.586 236.627c5.383 2.245 9.842 2.245 12.04-4.204.143-.43.701-.717.988-1.115 9.635-13.888 19.254-27.791 28.873-41.678-.223-.128-.43-.255-.653-.383-13.744 15.783-27.504 31.581-41.264 47.396l.016-.016Zm-103.694 79.008c.717-.27 1.434-.541 2.166-.812-.828-3.249-.78-7.198-2.691-9.587-3.376-4.252-7.756-7.804-12.072-11.196-3.472-2.739-7.374-3.313-11.148.796 8.042 7.039 15.91 13.919 23.761 20.799h-.016Zm-66.745-267.778c19.509 2.548 37.235-.255 55.215-3.679-18.426-3.106-36.152-1.131-55.215 3.679Zm294.486 136.39c-.366 0-.748.016-1.115.031-1.337 5.702-2.691 11.387-3.965 17.089-.128.541.127 1.545.525 1.784 4.221 2.516 8.505 4.921 12.757 7.342.35-.462.701-.924 1.035-1.402-3.074-8.281-6.163-16.579-9.237-24.86v.016Zm57.493 107.261c-.621-.128-1.258-.255-1.879-.382-4.699 12.868-8.298 25.879-5.686 39.782.605.096 1.21.176 1.8.271 1.911-13.218 3.838-26.437 5.749-39.655l.016-.016Zm-30.148-132.345c1.768 7.836 28.396 36.757 34.448 40.771a187251.748 187251.748 0 0 1-34.448-40.771Zm-69.915 420.429c-2.596 5.351-4.873 10.017-7.899 16.244 5.001-1.338 10.702-1.162 12.486-3.726 2.994-4.269-1.418-8.346-4.587-12.518Zm68.912-326.195c.589-.255 1.194-.494 1.783-.749-2.882-7.31-5.765-14.604-8.647-21.914-.637 4.093-.383 7.836-.701 11.531-.51 5.988 2.5 9.205 7.565 11.132Zm-57.987-90.427c4.635-11.483 5.909-22.982 2.453-33.811-.78 10.734-1.609 22.28-2.453 33.811Zm336.85 740.78c7.644 5.73 15.304 11.45 24.111 18.04-5.335-11.11-15.91-13.03-24.111-18.04ZM384.391 148.27c0-.35.032-.7.048-1.051-7.724-.414-15.464-.828-23.188-1.226 0 .159-.016.318-.032.478 7.724.605 15.448 1.194 23.172 1.799Zm59.929 831.143c-.159-.112-.318-.223-.477-.351-3.663 5.272-7.342 10.543-11.005 15.815.302.191.589.398.892.589 3.535-5.351 7.055-10.718 10.59-16.069v.016ZM413.886 868.95l.207-1.497c-4.125-.748-8.25-1.481-12.375-2.229-.047.175-.079.35-.127.525 4.093 1.067 8.202 2.134 12.295 3.201Z" fill="#201B19"/><path d="M556.758 872.566c-1.02-2.724-1.673-5.654-3.122-8.107-7.389-12.549-14.747-25.131-22.631-37.378-2.325-3.599-1.783-6.45.096-9.221 6.832-10.129 13.219-20.688 21.102-29.957 23.873-28.045 54.259-47.109 87.863-61.346 16.388-6.944 33.11-12.9 50.82-15.544 1.322-.191 2.659-.398 3.981-.478.813-.048 1.625.128 3.297.271-1.465 1.975-2.548 3.44-3.727 5.032 5.973-.652 11.801-1.29 17.614-1.927.335.606.653 1.227.988 1.832-4.284 5.335-8.568 10.67-13.601 16.945 8.632-.908 16.053-1.672 23.459-2.484 30.689-3.329 61.426-5.431 92.323-4.428 6.704.223 12.613 1.465 16.865 7.899 2.516 3.807 5.606 8.521 11.945 7.613.637-.095 2.309 3.408 2.611 5.367.94 6.084 7.247 13.967 13.107 15.416.908.223 2.708-.605 3.138-1.433 3.949-7.565 7.803-15.177 11.323-22.933.494-1.083-.525-3.568-1.608-4.555-7.279-6.577-16.213-5.112-24.877-4.587-.716.048-1.592 1.864-1.895 2.978-.541 2.007-.701 4.109-.844 5.145-3.551-2.628-6.673-5.845-10.463-7.565-15.751-7.135-32.473-10.352-49.705-11.117-6.116-.27-12.231-.669-18.347-1.003l-.143-1.449c2.309-.558 4.603-1.402 6.944-1.609 22.965-2.118 45.962-2.532 68.497 3.01 10.846 2.66 22.057 5.734 31.677 11.148 25.8 14.493 53.67 25.339 77.479 43.383 1.163.892 2.23 1.911 4.603 3.949-4.905.351-8.425.701-11.96.813-4.587.159-8.537 1.481-11.419 5.271-6.227 8.202-4.826 15.846 4.236 21.675 4.013 2.58 8.266 4.81 13.346 7.756-4.555 3.169-8.441 5.447-11.817 8.329-5.288 4.539-10.782 9.014-15.209 14.35-7.709 9.284-18.108 12.183-29.145 14.142-3.296.589-6.657 1.226-9.969 1.115-7.661-.239-11.579 5.223-15.879 10.017-.557.621-.063 2.835.653 3.79 1.067 1.418 2.74 2.357 5.144 4.285-2.548 2.102-4.586 4.522-7.198 5.86-18.044 9.237-35.993 18.729-54.371 27.249-47.252 21.93-96.097 39.465-146.997 50.82-17.63 3.934-35.578 6.418-53.399 9.54-.956.175-1.975.016-4.125.016 1.816-1.481 2.835-2.31 4.093-3.329-2.261-.334-4.38-.653-6.498-.987-.255-.574-.525-1.147-.78-1.72 31.039-26.708 61.283-54.371 96.431-76.078-.254-.446-.525-.908-.78-1.354-2.692.653-5.383 1.385-8.09 1.959-3.233.701-6.275 1.592-9.54-.86-1.115-.828-5.064 0-5.877 1.274-4.22 6.529-10.813 9.348-17.423 12.215-13.68 5.94-27.472 11.642-41.041 17.805-5.048 2.294-8.568 1.179-12.788-1.99-5.001-3.759-10.671-6.769-16.388-9.349-1.895-.86-4.826.589-7.278.987.987 2.644 1.226 6.562 3.105 7.661 4.667 2.723 10.066 4.172 15.194 6.099.732.271 1.545.271 2.819 1.593-21.548 11.849-43.096 23.682-64.644 35.531.096.621.175 1.242.271 1.863 8.106 2.309 16.213 4.603 24.303 6.912-19.254 4.873-38.7 7.135-59.531 6.912.924-2.58 1.417-4.237 2.118-5.813 1.274-2.915 2.883-5.702 3.966-8.68 2.691-7.374 1.56-12.916-3.186-17.057-5.653-4.937-11.227-5.478-18.49-1.449-2.612 1.45-4.889 3.488-7.31 5.304-1.401 1.051-2.771 2.15-5.096 2.611.446-2.07.78-4.156 1.338-6.195 7.421-26.835 19.382-51.743 32.075-76.365 2.166-4.188 4.475-3.424 7.549-1.385 12.135 8.042 25.64 12.916 39.48 16.929.462-.303.908-.605 1.37-.908l-.032-.031Zm2.787-43.415c-1.035-2.818-1.672-4.857-2.517-6.816-1.608-3.743-3.886-4.284-6.8-1.258-3.01 3.137-6.243 6.1-8.95 9.476-.813 1.003-.892 3.965-.112 4.618 3.058 2.564 6.594 4.571 9.954 6.785.478-.398.955-.812 1.433-1.211l-2.898-12.454c3.408.303 6.115.542 9.89.86Zm360.945-37.203c1.704-3.758 3.52-6.37 3.854-9.141.143-1.194-2.691-3.774-4.38-3.966-4.714-.557-9.523-.191-15.034-.191.605 3.44 1.099 6.227 1.673 9.413 2.994-1.561 5.303-2.772 7.819-4.078 1.768 2.326 3.36 4.412 6.068 7.979v-.016Zm-397.766 127.79c-2.182-6.45-5.176-8.759-8.138-6.275-3.233 2.692-6.084 5.957-8.568 9.365-.844 1.162-.733 4.379.191 5.144 1.576 1.29 4.125 1.688 6.275 1.704.525 0 1.624-2.994 1.497-4.523-.335-3.886 1.433-5.065 4.921-4.905 1.13.048 2.261-.271 3.806-.494l.016-.016Zm180.25 1.29c3.121-1.242 5.558-1.927 7.644-3.169 1.115-.669 1.64-2.309 2.437-3.52-1.418-.621-2.947-1.975-4.205-1.752-3.949.685-5.558 3.584-5.876 8.441Zm56.791-23.045c3.711 1.577 7.167.51 10.448-1.497.127-.079-.51-2.373-1.163-2.628-3.902-1.449-7.071-.254-9.332 3.265-.064.112 0 .319.047.86Zm-195.172-78.578.892-1.386-4.411-5.558-1.72.765c.286 1.544.095 3.471.971 4.507.86 1.035 2.803 1.162 4.268 1.688v-.016Zm19.621-18.665c.366-.749.717-1.513 1.083-2.262-1.736-.764-3.456-1.529-5.192-2.277-.287.7-.908 1.974-.812 2.022 1.592.94 3.265 1.704 4.921 2.532v-.015Z" fill="#201B19"/><path d="M166.652 1245.66c-7.549-15.3-17.009-29.21-30.132-40.34-7.756-6.58-16.818-8.04-26.453-6.08-6.386 1.29-12.597 3.41-18.952 4.89-2.006.46-4.22.08-6.338.08-.08-.43-.16-.86-.255-1.28.7-.55 1.322-1.33 2.118-1.62 24.048-8.49 48.208-16.84 74.279-14.88 11.769.9 23.459 2.85 35.196 4.34 2.309.28 4.634.46 6.896.97 10.049 2.26 20.019 4.97 30.132 6.86 7.644 1.43 15.464 2.1 23.236 2.66 5.494.4 10.033 1.77 12.772 7.04 2.373 4.57 5.017 9.01 7.597 13.47 1.959 3.41.892 5.29-2.899 5.02-4.284-.3-8.663-.7-12.74-1.91-4.826-1.43-7.517.24-10.018 5.24 7.852 1.88 15.241 4.17 22.806 5.3 6.657 1.01 8.377 3.23 5.781 9.43-4.013 9.59-10.463 16.16-20.544 19.64-13.872 4.76-27.377 10.57-41.248 15.29-3.631 1.22-8.616 1.27-12.04-.24-8.967-3.98-18.06-8.11-24.654-15.96-1.162-1.37-2.739-2.39-4.14-3.57-3.472-4.78-6.944-9.57-10.416-14.35h.016Z" fill="#FAF5E5"/><path d="M617.945 975.957c2.93-.829 5.813-1.864 8.791-2.469 72.781-14.54 141.534-40.579 207.993-73.132a7475.393 7475.393 0 0 1 50.66-24.542c2.93-1.401 6.084-2.389 10.081-3.918-4.841 7.74-73.753 40.739-134.558 64.835-46.138 18.283-93.517 32.266-142.282 41.36-.223-.717-.462-1.434-.685-2.134ZM881.248 716.189c38.446 15.448 74.008 35.706 105.159 63.242-.318.509-.637 1.019-.939 1.529-17.041-11.244-33.763-23.045-51.234-33.556-17.566-10.575-35.897-19.876-53.909-29.734.302-.494.621-.987.923-1.481ZM373.466 112.118c-8.552.144-9.508-.7-8.218-8.201 1.131-6.594 2.692-13.123 4.077-19.685l1.465.24v15.463c.749-4.411 1.434-8.457 2.118-12.518.606.08 1.211.175 1.816.255l-1.242 24.462-.016-.016ZM857.328 715.17c-19.414-3.265-38.828-6.546-58.257-9.811.143-.844.286-1.704.43-2.548 19.413 3.217 38.811 6.434 58.225 9.667-.128.908-.271 1.8-.398 2.708v-.016ZM982.633 806.648c-12.008 13.282-24.909 25.545-40.229 35.037-.382-.43-.749-.86-1.131-1.29 13.426-11.594 26.851-23.172 40.277-34.766.366.334.716.685 1.083 1.019ZM124.592 294.518l3.79 3.79c1.386 1.991 2.755 3.982 4.141 5.973-10.129-4.507-17.216-12.232-23.65-20.656.271-.319.557-.621.828-.94 4.969 3.95 9.922 7.899 14.891 11.849v-.016ZM348.924 108.583c-6.721-5.765-9.03-14.158-13.059-21.978 3.758.812 12.709 15.385 13.059 21.978ZM559.72 1013.86c-3.201 3.81-5.638 6.72-8.505 10.13-1.385-6.91 1.227-10.26 8.505-10.13ZM860.067 733.261c-1.816 6.259-3.854 6.546-9.587 1.322 3.535-.494 6.195-.86 9.587-1.322Z" fill="#201B19"/><path d="M284.79 493.099c-2.309 2.086-4.491 4.331-6.959 6.163-1.179.876-3.329 1.784-4.348 1.29-6.864-3.392-13.553-7.135-20.258-10.862-.748-.414-1.162-1.465-2.166-2.771 8.903-1.337 17.216-2.596 25.625-3.854-2.245-6.37-6.498-11.801-12.677-15.862-1.162-.764-2.516-3.472-2.182-3.822 1.322-1.449 3.154-2.644 5.001-3.345 1.911-.716 4.173-.509 6.147-1.146 5.909-1.895 8.409-.574 10.113 5.335a298.972 298.972 0 0 0 4.619 14.747c.653 1.911 1.8 3.647 2.707 5.479.621-.159 1.258-.303 1.88-.462-.415-4.093-.494-8.266-1.306-12.263-2.469-12.088-2.469-24.207-.59-36.311.383-2.485 2.262-4.714 3.456-7.071.637.159 1.29.334 1.927.493v13.952c.621.111 1.258.207 1.88.318 1.274-3.519 2.548-7.039 3.901-10.766.701 12.295-.764 24.622.876 36.725l2.23.096c.557-3.918 1.609-7.836 1.609-11.753 0-22.472 7.517-43.08 15.145-63.72 3.09-8.329 8.536-14.461 15.177-20.051 5.973-5.048 12.837-4.077 19-2.58 13.983 3.392 27.679 8.011 41.487 12.168.749.223 1.37.876 2.421 1.592-2.437 7.024-4.858 13.983-7.868 22.647-2.261-2.962-3.567-4.73-4.937-6.45-.573-.733-1.178-1.8-1.927-1.959-9.205-1.943-18.442-3.774-27.679-5.574-.35-.064-.796.366-1.513 1.943 4.444 1.194 8.839 2.675 13.346 3.52 7.74 1.465 13.983 5.255 18.968 11.195.621.733.589 1.991.764 2.66-5.813-3.026-11.036-7.597-16.802-8.377-12.326-1.672-24.94-1.927-37.425-1.704-5.415.096-10.352 3.472-13.553 8.393-1.625 2.5-3.568 4.985-.797 7.979.303.334.303 1.194.128 1.704-1.45 4.411-.287 9.046-.637 13.155-.86 10.017 7.007 12.995 11.466 18.729.653.844 1.959 1.353 3.058 1.608.956.207 2.628.175 2.962-.366.542-.908.717-2.596.207-3.424-1.035-1.672-2.611-3.026-4.029-4.459-10.941-10.973-9.364-23.635 3.026-33.015 16.85-12.757 38.159-4.109 45.835 10.209 2.245 4.204 7.167 6.609 12.82 6.959-1.576-2.214-3.376-4.316-4.618-6.705-.59-1.13-.669-3.201 0-4.188 4.985-7.438 10.224-14.716 15.496-22.217-.446 1.481-.844 2.819-1.243 4.157.383.255.781.494 1.163.748 7.167-7.485 12.04-16.722 17.343-25.513 5.479-9.062 10.034-18.681 15.321-27.918-.908 22.296-14.254 39.64-23.363 58.783 10.368-10.639 17.391-23.443 25.258-35.818a42331.12 42331.12 0 0 0-19.907 37.378l1.194.669c24.67-20.751 35.324-50.708 50.979-79.9 2.214 3.71 3.966 6.673 5.399 9.078-6.545 9.714-14.015 20.464-21.102 31.469-7.23 11.244-7.071 24.797-12.231 36.725.605.287 1.195.574 1.8.844.732-.876 1.545-1.672 2.166-2.627 3.057-4.714 6.195-9.381 9.03-14.238 2.994-5.128 5.637-10.448 8.52-15.639 2.325-4.173 4.826-8.266 7.199-12.423 3.057-5.351 6.02-10.766 9.109-16.085 2.246-3.854 5.272-4.284 6.434-.318 2.166 7.357 3.09 15.161 3.568 22.837.095 1.641-3.838 3.727-6.132 5.288-13.441 9.078-20.289 22.615-25.418 37.314-.238.701.096 1.609.303 3.966 1.847-2.787 2.946-4.443 4.284-6.482-.987 3.058-2.182 5.654-2.628 8.361-.828 5.112 1.004 7.183 6.132 7.422 2.118.111 4.236.016 6.402.016-2.166-3.138-6.147-6.705-5.463-8.378 1.482-3.631 5.336-6.29 8.983-9.189-2.58 5.686-2.294 10.432 3.551 13.904 4.109-1.243 6.275-4.73 5.256-9.811-1.625.621-3.201 1.211-4.778 1.816-.335-.526-.653-1.051-.987-1.577 2.595-1.704 5.191-3.424 8.456-5.558.398-7.119-1.449-14.19-8.488-19.828 2.516-1.608 4.554-3.456 6.943-4.236 1.386-.446 3.393.717 5.017 1.385.669.287 1.083 1.72 1.624 1.736 7.772.128 6.689 6.992 8.282 11.356 1.704 4.698 2.612 9.826 2.962 14.842.287 4.237-.796 8.569-1.147 12.869-.318 3.917-.477 7.851-.7 11.769.573.143 1.146.271 1.72.414 1.369-3.934 2.739-7.851 4.061-11.658v7.708c.525.064 1.035.128 1.561.191 3.185-15.257 6.37-30.53 9.555-45.787h1.322c0 27.457.557 54.929-.207 82.369-.446 15.894-5.829 30.992-12.263 45.517-9.747 21.993-24.271 40.897-39.194 59.515-1.768 2.214-3.997 4.172-5.303 6.625-7.071 13.282-19.239 14.652-31.581 11.976-36.9-7.979-71.603-21.547-102.722-43.493-10.607-7.47-17.439-18.188-25.291-28.03-7.262-9.094-14.142-18.474-21.755-28.476v-.047Zm195.332 7.039c-.414-.159-.844-.319-1.258-.494-.478.43-1.019.812-1.434 1.322-1.051 1.306-2.134 2.596-3.041 3.997-7.549 11.595-18.761 18.443-31.932 19.637-14.206 1.29-28.794.621-42.554-4.475-3.758-1.386-6.784-1.672-9.269 1.943-5.176 7.549-4.666 19.143 2.437 24.797 6.163 4.889 13.218 9.523 20.624 11.801 15.368 4.714 29.542-1.051 43.143-8.011.08-.048-.064-.526-.127-1.019-7.979 2.436-15.862 5.032-23.857 7.246-10.639 2.946-20.64 1.242-29.415-5.542-5.24-4.061-4.555-7.963 1.353-10.718.844-.399 1.593-.972 2.421-1.497-2.93-3.87-5.67-7.486-8.887-11.722 2.039-.318 2.835-.573 3.616-.557 10.558.191 21.101.637 31.644.525 4.921-.048 9.874-.844 14.716-1.847 3.95-.812 7.724-2.437 11.578-3.711.175.287.335.589.51.876-1.242 1.624-2.485 3.265-3.727 4.889 5.049-2.309 8.043.844 11.132 3.631 4.953 4.46-2.182 7.549-.716 11.993 2.723-3.313 6.036-6.737 6.832-10.687 1.322-6.561 1.019-13.457 1.481-20.21.064-.971.318-2.596.844-2.755 5.686-1.752 2.389-6.338 3.854-9.38l.032-.032Zm-108.886-70.695c1.147-7.199-6.529-17.184-15.416-18.761-10.193-1.816-17.773 3.344-19.891 13.537-2.342 11.228 3.233 21.404 12.995 23.761 9.173 2.214 18.474-2.15 20.815-11.434-3.153 1.767-5.972 2.404-7.103 4.14-3.36 5.176-6.37 6.976-12.135 5.893-5.049-.94-5.351-4.985-5.59-8.839-.239-3.838 2.851-3.328 5.287-3.615 4.061-.494 8.17-.86 12.168-1.672 2.707-.542 5.271-1.768 8.87-3.026v.016Zm91.272-29.479c7.835-12.215 14.938-24.892 26.994-33.747-15.066 6.545-22.615 18.968-26.994 33.747Zm-100.333-23.602a59046.79 59046.79 0 0 0 23.299 7.803c-3.87-6.482-14.604-10.017-23.299-7.803Zm130.942 50.469c6.721-1.019 11.483-7.374 10.289-13.107-3.647 4.65-6.976 8.871-10.289 13.107Zm-136.023 33.11.287-1.529c-5.956-1.035-11.929-2.07-17.885-3.106 5.16 5.129 11.212 5.766 17.598 4.635Zm-17.964-63.115a119.85 119.85 0 0 1-1.131-1.958c-4.141 2.404-8.297 4.793-12.438 7.198.334.589.669 1.163 1.003 1.752l12.566-6.976v-.016Zm120.24 71.317 1.784-.972-7.039-12.836c-.558.302-1.115.621-1.688.924 2.309 4.3 4.634 8.6 6.943 12.9v-.016Zm-1.735 33.237c.605.159 1.194.319 1.799.478l4.3-16.149c-.573-.159-1.131-.303-1.704-.462-1.465 5.367-2.93 10.75-4.395 16.117v.016ZM641.117 1014.98c.892 1.21 1.449 1.97 2.007 2.72-9.078 5.45-18.156 10.89-27.234 16.34-3.567 2.15-7.15 4.27-10.686 6.45-2.787 1.7-4.65.91-6.02-1.9a655.753 655.753 0 0 0-6.975-13.87c-1.259-2.43-1.227-4.14 1.927-4.71 3.408-.61 6.816-1.29 10.224-1.88 2.023-.35 4.061-.61 6.1-.91 0-.57-.016-1.15-.032-1.72-6.243-.52-12.486-1.07-18.729-1.59-.048-.34-.08-.67-.127-.99 3.822-1.1 7.676-2.12 11.482-3.31 15.719-4.97 31.247-10.72 47.173-14.829 18.123-4.682 36.47-9.125 54.992-11.419 15.273-1.879 30.992-1.13 46.456-.302 12.374.653 24.781 2.548 36.948 5.016 13.282 2.692 24.478 9.763 34.846 18.604 16.26 13.87 28.746 30.58 38.541 49.3 6.991 13.35 12.04 27.41 11.371 42.96-.366 8.53.446 17.15-.191 25.65-1.019 13.59-2.612 27.13-4.3 40.65-1.657 13.17-4.221 26.24-5.543 39.43-2.611 26.07-9.555 50.58-23.761 72.8-3.806 5.95-7.66 11.89-11.594 18.01-9.651-8.51-15.034-17.6-14.413-29.5.032-.51.08-1.02 0-1.51-2.787-15.38 5.224-28.11 10.224-41.58.223-.61.653-1.13 1.577-2.69 1.704 10.33 3.185 19.28 4.666 28.23l1.561-.08c.35-.79 1.003-1.59 1.019-2.39.399-22.77 1.673-45.58.845-68.3-1.068-29.07-5.017-57.86-10.464-86.51-4.539-23.92-10.177-47.38-19.461-69.92-4.364-10.57-9.715-20.46-19.255-27.404-.669-.494-1.29-1.052-2.022-1.45-.542-.302-1.211-.382-2.74.239 4.619 5.781 9.237 11.575 13.84 17.355-4.204-2.81-7.374-7.29-12.884-7.4-.35.41-.717.84-1.067 1.26 6.068 6.94 12.151 13.88 18.585 21.23-17.2-7.3-34.24-13.67-52.428-15.87-.207.5-.398.99-.605 1.5 5.925 3.17 11.626 6.93 17.837 9.4 14.732 5.87 28.014 13.9 39.353 24.95 5.574 5.45 8.234 12.65 11.037 20.48-5.988-.65-11.164-1.41-16.388-1.76-7.66-.5-15.337-.86-22.997-.99-9.89-.16-19.796-.27-29.686 0-23.029.64-45.691 3.88-67.669 10.94-11.531 3.71-22.949 7.8-34.273 12.14-4.666 1.78-7.405.04-9.571-3.52-3.647-5.96-6.833-12.22-10.607-18.08-4.204-6.53-8.839-12.77-13.68-19.72 6.673-4.54 14.078-9.47 21.388-14.55 13.665-9.49 29.176-12.2 45.389-13 16.436-.81 32.839-2.31 49.641-3.55-1.768-4.09-5.255-3.11-8.074-2.95-8.473.47-16.914 1.39-25.386 1.87-8.998.51-18.028.63-27.027 1.08-7.469.37-14.938.96-23.172 1.51l.032.04Zm186.238 264.05c3.934-4.48 3.52-13.08-.51-19.02-3.376 6.37-2.803 12.33.51 19.02Z" fill="#FAF5E5"/><path d="M418.329 631.256c1.482-3.392 2.979-6.8 4.826-11.037 1.497 16.006-.271 30.403-6.195 44.386-2.564 6.068-4.189 12.661-5.272 19.175-.78 4.777-.621 9.619 2.071 14.524 2.58 4.73 3.089 10.591 4.539 16.038-7.103 2.771-10.527-1.768-13.585-4.858-9.763-9.874-17.997-21.022-23.634-33.842-3.615-8.218-6.833-16.611-10.495-24.813-.813-1.816-2.74-3.137-4.922-4.157 6.18 19.255 14.748 37.299 24.622 55.407-5.081-.271-9.524-.287-13.888-.781-10.558-1.194-21.117-2.405-31.612-4.045-2.963-.462-5.957-2.039-8.457-3.79-10.909-7.597-21.851-15.194-32.362-23.348-4.507-3.503-8.026-8.281-11.896-12.581-1.736-1.927-3.233-4.093-4.842-6.148l-1.481.478c.366 2.851.733 5.702 1.051 8.138-21.866-5.446-43.828-10.909-66.299-16.515 1.162-.971 2.341-2.198 3.758-3.105 12.438-7.932 23.969-16.914 34.05-27.775 9.794-10.543 15.559-23.188 19.605-36.678.891-2.946 1.274-6.434-2.039-9.571-1.8-1.704-1.433-5.972-1.593-9.11-.764-15.942.207-31.692 5.909-46.822.318-.86.844-1.656 1.513-2.93 6.243 4.889 9.317 11.243 10.925 18.251 1.895 8.281 7.836 13.346 13.585 18.681.303.286.94.287 1.417.302.303 0 .606-.207 1.72-.605-1.799-2.851-3.519-5.542-5.383-8.488 1.657-3.058 3.998-2.644 6.482-.526 3.552 3.042 7.135 6.052 10.511 9.285 20.115 19.35 41.933 36.55 65.137 52.014 6.482 4.316 13.235 8.361 19.127 13.41 4.205 3.599 7.247 8.6 10.623 13.107.526.7-.048 2.15.032 3.249.127 1.72.382 3.424.573 5.128.637-.032 1.258-.048 1.895-.08l-.016.032Zm-8.536 5.51c-8.011 6.45-16.005 10.941-19.7 19.35-1.418 3.217-1.672 8.282-.064 11.149 2.198 3.917 6.848 6.163 12.279 5.51 0 7.198-.143 14.381.048 21.548.175 6.147 4.332 11.419 8.632 12.422-1.912-5.256-4.651-10.814-5.909-16.69-3.042-14.366.494-27.855 6.832-40.803 1.688-3.44 2.899-7.103 4.332-10.67l-1.067-.462c-1.927 2.516-3.838 5.033-5.765 7.549-.255-.175-.526-.334-.78-.51.318-2.261.621-4.539 1.162-8.44v.047Zm-57.524 41.169 1.337-1.099c-6.497-8.839-12.995-17.678-19.477-26.501-.525.398-1.067.797-1.593 1.195 5.272 9.762 11.977 18.49 19.749 26.421l-.016-.016Zm-78.197-44.943 1.88-.096-.59-10.925c-.43.016-.86.048-1.29.064v10.957ZM789.738 1458.99c-.908 2.79-1.449 4.49-1.911 5.88-1.115-12.12-2.309-24.58-3.376-37.03-1.115-13.03 2.659-25.39 5.128-37.95 1.656-8.44 2.134-17.12 2.723-25.72.128-1.79-1.592-3.71-2.452-5.56l-1.529.48c-.303 1.84-.605 3.69-.956 5.84-3.36-2.34-5.733-4.65-2.946-8.68 9.969-14.41 20.226-28.7 34.193-39.49 7.262-5.61 7.326-6.44 14.445.84 6.88 7.02 13.855 14.11 19.732 21.95 3.217 4.3 5.016 10.08 6.131 15.48 6.387 30.7 12.407 61.47 18.458 92.24 3.026 15.41 9.604 29.32 17.519 42.71 3.026 5.11 3.09 10.43-.111 15.61-4.842 7.8-11.053 14.09-19.812 17.68 5.685-8.13 13.696-14.65 17.136-24.21-.35-.27-.717-.54-1.067-.81-1.959 2.4-3.918 4.81-5.877 7.23-14.142 17.42-28.348 34.81-42.411 52.3-7.628 9.51-21.961 8.3-27.488-2.57-.605-1.19-.987-2.94-.589-4.15 1.465-4.6 3.727-8.98 4.858-13.65 1.082-4.46 1.146-9.16 1.815-15.19.828 4.12 1.386 6.91 1.943 9.71 3.536-17.37 15.544-26.45 31.501-31.84-.398-.66-.796-1.35-1.194-2.02-5.049 1.58-10.097 3.16-16.563 5.18 2.994-6.04 5.542-11.2 8.09-16.37-.366-.32-.748-.66-1.114-.98-1.545 2.58-3.074 5.16-4.507 7.54-7.549-6.18-8.154-8-5.989-14.81 2.835-8.94 5.829-17.82 8.585-26.77.557-1.8.334-3.83-.606-6.23-.78.87-1.624 1.69-2.341 2.63-10.049 13.2-14.492 28.63-16.977 44.64-1.927 12.37-2.787 24.92-4.204 37.39-1.115 9.76-3.95 18.95-9.014 27.49-2.278 3.85-5.001 5.99-9.635 5.67-3.616-.26-7.279-.05-12.311-.05 2.405-18.92 4.698-37.15 7.039-55.37 1.975-15.31 3.169-30.55-2.564-45.41-.334-.87-.828-1.69-1.784-3.6l.032-.03Zm80.187-21.91c-2.771 16.86 5.192 42.18 15.942 49.7-5.367-16.74-10.591-33.03-15.942-49.7ZM237.331 1034.63c2.118 8.17 10.941 11.58 14.238 19.25-5.24 4.08-12.008 4.16-17.471 2.42-11.578-3.69-20.879.67-30.355 5.75-3.01 1.61-5.765 3.7-8.345 6.4 10.193.21 18.649-6.17 27.839-7.24-8.584 5.94-17.344 12.63-26.756 18.23-3.902 2.33-9.126 2.6-13.824 3.35-2.118.33-3.456-.61-5.144-3.08-1.799-2.62-7.501-2.64-11.53-3.64-.749-.19-1.943.83-2.469.51-8.233-5.02-17.216-7.76-26.66-9.18-.605-.09-1.194-.62-1.672-1.06-6.354-5.86-13.011-11.45-18.952-17.71-6.529-6.88-5.924-15.96-4.809-24.31 1.194-8.98 2.898-18.28 6.641-26.418 4.539-9.842 10.957-18.951 17.486-27.695 4.428-5.94 10.082-11.132 15.799-15.91 8.711-7.294 19.191-8.472 30.132-7.007 6.084.812 12.709.302 18.155 2.596 8.76 3.663 17.567 2.564 26.406 2.723 3.344.064 4.666 1.226 4.22 4.428-1.131 8.058-2.357 16.085-3.408 24.159-.414 3.249-.478 6.53-.701 9.811.589.175 1.194.334 1.784.509.971-2.421 2.102-4.778 2.898-7.246 2.453-7.756 4.682-15.576 7.231-23.284.684-2.07 2.213-3.854 3.36-5.781.637.048 1.258.096 1.895.143 1.354 8.186 2.883 16.34 3.998 24.558.923 6.737.589 13.728 2.181 20.294 2.74 11.29 9.365 19.71 20.991 23.41 4.857 1.54 9.635 3.31 15.002 5.16-2.261 2.4-4.937 4.03-5.463 6.18-.477 1.99 1.322 4.54 2.246 7.16 13.25-1.57 24.192-12.56 39.767-9.95-10.845 8.93-19.445 19.35-33.827 18.43-8.934-.58-17.438-2.6-25.545-7.39-7.405-4.4-16.101-6.61-24.239-9.8-.366.42-.717.83-1.083 1.24l-.016-.01Zm-20.162 11.61c5.622-6.09 7.103-14.27 3.583-18.32-5.829 3.78-6.8 8.4-3.583 18.32Zm-48.192-9.99-1.003-2.13c-4.476 2.1-8.967 4.2-13.442 6.3.319.67.621 1.34.94 2.01 4.507-2.07 8.998-4.12 13.505-6.19v.01ZM208.011 1343.11c3.504 3.73 6.721 6.1 11.499 6.28 15.926.57 31.613-.93 47.077-4.8 1.593-.39 3.376-.49 4.985-.2 3.058.55 5.51 2.12 2.548 5.3-6.355 6.85-12.948 13.49-19.557 20.1-7.613 7.61-15.337 15.11-23.013 22.66.669.72 1.338 1.45 1.991 2.17 11.164-10.16 22.328-20.31 33.492-30.47.446.42.892.81 1.338 1.23-4.109 7.13-8.776 14-12.231 21.45-8.091 17.42-23.427 24.53-40.452 28.86-5.67 1.45-12.008.62-18.013.35-12.9-.58-25.656-2.12-39.098-7.01 2.294-.17 3.329-.24 4.364-.32-18.076-8.06-37.076-11.45-56.68-11.66-19.828-.22-37.904 6.49-55.295 15.61-.191-.36-.366-.73-.558-1.1.367-.86.478-2.05 1.131-2.53 10.511-7.91 18.3-18.74 30.37-25.26 25.052-13.49 49.116-28.78 74.041-42.5 8.934-4.93 19.127-7.63 28.794-11.18 12.629-4.62 25.258-9.24 38.015-13.46 3.679-1.21 7.819-1.24 11.753-1.42 10.75-.48 21.516-.91 32.266-1.02 5.256-.05 5.909 1.15 4.905 6.31-.159.81-.111 1.67-.207 2.5-.987 8.63-2.898 10.37-11.355 11.62-11.817 1.76-23.57 3.89-35.371 5.71-4.587.7-9.253.89-13.872 1.41-.748.08-1.433.67-2.898 1.39l.031-.02Z" fill="#FAF5E5"/><path d="M359.897 1017.65c-7.007 4.62-13.887 9.44-21.118 13.7-1.799 1.06-5.398 1.26-6.975.16-9.508-6.61-20.146-6.29-30.865-5.99-3.073.08-6.131 0-9.205 0-.032-.48-.079-.94-.111-1.42 1.274-.54 2.564-1.1 5.016-2.15-2.118-.68-3.312-1.24-4.538-1.43-6.387-1.04-12.741-2.2-19.159-2.89-9.11-.98-14.318-5.46-14.684-14.93-.271-6.82-.685-13.621-1.115-22.141a193286.61 193286.61 0 0 1 45.469 34.051c.446-.42.907-.83 1.353-1.24-.939-1.5-1.672-3.2-2.866-4.46-3.679-3.9-7.82-7.41-11.244-11.517-2.373-2.851-4.332-6.275-5.606-9.763-1.959-5.383-6.896-6.975-10.957-9.683-2.628-1.752-5.574-3.01-8.409-4.427-7.835-3.886-11.976-10.782-15.416-18.379-1.449-3.201-1.545-6.195.669-8.823 6.29-7.453 12.756-14.779 20.242-23.379 8.424 19.573 16.515 38.366 24.605 57.174.414-.111.828-.207 1.226-.318-.143-1.513-.27-3.042-.445-4.555-.813-6.912-1.736-13.824-2.453-20.752-.51-4.968.032-10.208-1.37-14.874-1.226-4.078-4.395-7.629-6.943-11.228-4.715-6.657-9.811-13.044-14.382-19.78-4.188-6.148-4.077-17.232.797-22.504 2.532-2.739 6.689-4.188 10.336-5.637 14.142-5.638 20.56-17.025 23.618-31.024.701-3.233.908-6.657 2.118-9.667 2.628-6.498 6.307-8.329 13.489-7.501 1.306 3.185 2.214 6.657 4.093 9.492 1.019 1.544 4.061 3.249 5.526 2.787 7.533-2.389 14.859-5.463 23.013-8.6-.605-.335-.111-.175.239.143 6.196 5.813 5.941 5.972-1.067 10.543-4.077 2.66-7.74 6.211-10.973 9.89-2.389 2.707-3.679 6.1-2.213 10.224.637 1.784-.669 4.269-1.099 6.435-2.262-1.052-5.32-1.513-6.641-3.281-4.635-6.18-5.861-6.976-14.971-4.889-15.846 3.631-13.25 7.23-13.059 17.693.159 8.632 1.003 17.28 1.959 25.864.255 2.23 1.688 4.618 3.249 6.338 6.625 7.31 14.222 13.856 20.066 21.723 5.017 6.737 8.186 14.859 12.04 22.44 4.077 7.979 9.779 12.581 19.446 11.865 8.68-.637 17.439 0 26.15-.191 3.823-.08 4.969 1.369 5.686 5.112 1.847 9.524-3.997 17.2-5.51 25.879-.176 1.04-2.087 2.36-3.329 2.53-8.552 1.21-17.12 2.17-25.704 3.16-7.597.87-15.226 1.46-22.79 2.54-8.154 1.17-16.229 1.23-23.061-3.83-3.153-2.33-5.256-6.151-7.581-9.48-1.831-2.628-3.281-5.542-4.889-8.345-.414.112-.828.223-1.242.35-.08.988-.478 2.103-.176 2.947 1.72 4.682 3.249 9.488 5.543 13.868 3.296 6.31 9.778 7.92 16.085 8.49 9.301.83 18.681.72 28.014 1.2 3.901.19 7.787.84 11.673 1.27.144.41.271.83.414 1.24l.032-.03Zm-66.427-98.023c.605 0 1.226 0 1.832.015-.399-6.832.987-13.775-1.832-20.401v20.386Zm-7.103 90.873c.478-.61.972-1.19 1.449-1.8-3.121-2.44-6.227-4.89-9.348-7.33-.414.53-.844 1.06-1.258 1.57l9.157 7.56ZM787.285 1284.71c1.466.73 2.899 2.04 4.38 2.09 6.37.24 12.741.06 19.111.13 3.711.03 7.008.92 8.25 5.01 1.895 6.26 5.446 11.26 11.482 14.57-23.936 9.21-45.5 33.21-55.613 61.81-.971-1.35-1.943-2.45-2.644-3.69-9.3-16.91-22.662-30.37-36.805-43.11-6.736-6.07-7.931-8.95-4.937-17.41 1.497-4.22 3.536-8.25 5.129-12.45 1.162-3.05 3.519-5.71.987-9.69-1.019-1.61 1.115-5.24 1.8-7.94.605-2.41 1.21-4.83.764-7.5-8.791 15.65-12.502 32.74-13.617 52.09-9.778-7.93-18.107-14.75-26.532-21.45-2.453-1.95-1.672-4.06-.765-6.21 3.823-9.05 7.724-18.05 11.531-27.08.525-1.24.748-2.63 1.099-3.93l-1.593-.7c-5.08 9.43-10.161 18.85-15.576 28.89-7.947-3.79-15.034-8.49-20.592-15.18-.828-.99-.032-3.81.685-5.5 4.714-11.1 12.343-20.11 20.895-28.44 1.863-1.81 3.535-3.81 6.259-6.75-2.771.25-4.077.36-6.96.64 11.722-12.62 22.647-24.37 34.575-37.22 3.886 4.54 6.864 8.01 9.906 11.54-5.701 3.55-11.371 7.07-17.025 10.59.319.64.637 1.28.956 1.91 4.634-1.83 9.301-3.59 13.903-5.51 2.31-.95 4.412-2.45 6.753-3.26 2.628-.92 5.256-1.83 7.294 1.67 1.991 3.43.08 4.59-2.23 6.32-3.997 2.98-7.803 6.23-11.578 9.51-1.576 1.37-2.851 3.08-4.268 4.64.255.41.526.84.78 1.25 1.466-.6 3.058-1.01 4.364-1.86 5.303-3.44 10.527-7.02 15.783-10.54 2.739-1.83 5.176-2.49 7.963.33 5.526 5.58 11.45 10.75 17.025 16.3 1.481 1.48 2.723 3.55 3.232 5.57 2.198 8.76 8.011 15.21 13.378 21.98 1.227 1.54 2.325 3.17 3.695 5.03-12.98 9.35-24.86 19.43-34.734 31.6.461.51.923 1.02 1.369 1.53 7.342-6.57 14.7-13.13 22.042-19.67l.079.11v-.02Zm-33.715-25.59c4.985-5.21 9.476-9.92 13.983-14.62-6.991 2.18-14.54 3.77-13.983 14.62ZM670.962 1096.36c-2.436-.19-4.857-.37-6.242-.48 15.83-1.59 32.871-1.71 49.449-5.94-23.395-1.48-46.599 5.48-69.978 2.1l-.43-2.01c3.329-1.46 6.546-3.36 10.033-4.34 20.242-5.8 40.468-11.74 60.885-16.87 7.501-1.88 15.496-1.85 23.3-2.32 9.157-.56 18.346-1.14 27.52-.96 10.479.21 20.958 1.08 31.39 1.99 6.736.59 10.527 4.19 12.024 10.88 2.198 9.78 1.258 19.33-1.816 28.22-11.498-5.7-22.105-12.98-33.826-16.25-11.706-3.26-24.542-2.53-36.885-3.55-.064.5-.143.97-.207 1.47 13.872 2.55 27.727 5.09 41.599 7.63-.064.19-.144.38-.207.57-10.655.49-21.325.99-31.98 1.51-1.162.07-2.389.08-3.471.45-14.557 4.94-28.779 10.53-40.516 20.94-3.727 3.31-7.708 6.34-11.499 9.59-2.293 1.96-3.71 1.88-5.526-.89-2.628-4.03-5.431-8.2-9.062-11.23-3.233-2.69-7.533-4.76-11.673-5.57-4.444-.88-7.836-2.6-10.496-5.99-2.404-3.09-1.385-5.24 2.549-5.62 3.965-.4 7.963-.64 11.912-1.1 1.147-.13 2.23-.74 3.345-1.13l-.192-1.12v.02ZM445.833 910.533c3.838 7.979 4.189 16.674 12.343 22.073.748-3.312 1.385-6.1 2.022-8.887.335.08.653.16.988.239-3.791 15.305-7.581 30.61-11.419 46.058-.319-.207-1.306-.828-2.453-1.545-2.787 2.325-5.542 4.651-8.409 7.055-.255-9.73-6.529-15.432-16.037-17.693-2.055-.494-4.666 1.322-7.023 2.086l.35 1.226c2.787.191 5.829-.302 8.297.685 8.553 3.408 11.786 11.738 9.858 22.058-1.258 6.752-6.752 7.676-11.546 9.316-12.215 4.157-29.399-11.928-24.175-28.077 4.108-12.709 11.211-23.125 22.105-30.61 7.644-5.255 14.62-10.941 19.716-18.792 1.195-1.848 3.249-3.17 5.367-5.16l.016-.032Zm-14.907 75.106c-3.073-10.973-11.371-20.751-19.875-19.222 9.826 3.201 15.098 10.925 19.875 19.222Zm15.449-61.378c-.494.398-.972.796-1.466 1.194l9.078 11.515 1.863-1.529-9.491-11.164.016-.016ZM300.971 315.413c9.667-24.701 23.332-47.045 39.481-67.892 16.18-20.863 35.801-37.968 57.795-52.811-32.855 7.024-62.955 20.115-90.826 38.668l7.788-6.975c-.334-.414-.669-.844-1.003-1.258-12.04 6.227-22.79 14.301-33.031 24.016 19.287-25.035 48.495-35.26 73.483-51.393l-.478-1.338c-3.584.494-7.151.972-10.734 1.466v-.144c12.677-2.707 25.37-5.399 38.063-8.138 3.408-.733 6.752-1.688 10.16-2.453 5.734-1.274 10.225 2.119 9.667 7.852-1.72 17.901-3.328 35.881-14.843 50.947-.684.908-1.035 2.07-2.102 2.867 1.688-3.727 3.52-7.39 5.017-11.18 1.481-3.727 2.612-7.597 3.902-11.419-.621-.462-1.243-.94-1.848-1.402-9.906 7.9-19.812 15.783-29.717 23.682a3.981 3.981 0 0 1-.271-.287c4.873-5.86 9.746-11.705 14.604-17.566l-1.449-1.449c-11.833 8.074-21.676 18.426-31.661 29.941 2.723-4.699 4.953-8.521 7.182-12.359-.541-.318-1.098-.621-1.64-.94-18.06 21.644-35.069 44.036-47.539 69.581v-.016Z" fill="#FAF5E5"/><path d="M406.735 938.69c-5.669 9.795-9.587 19.048-20.433 21.962-14.253 3.838-34.193-2.373-42.633-14.349-2.74-3.886-4.364-9.174-4.778-13.967-.589-6.912-.319-14.079.86-20.911 1.608-9.333 8.281-12.359 17.391-11.929 1.035.048 2.628 2.15 2.803 3.456.414 3.042.127 6.164 1.21 9.381.637-1.943 1.258-3.87 1.895-5.813-1.274 11.801-.828 23.395 9.954 30.976 10.081 7.103 21.166 7.947 33.731 1.21v-.016Zm-56.091-28.491c-3.074 6.975-.812 17.614 4.061 21.882-1.274-6.88-2.628-14.126-4.061-21.882ZM471.952 313.088c7.708-32.808 7.055-64.309-13.951-93.167 6.179 27.026 5.016 53.718-3.122 80.06l1.625-8.425-1.386-.574c-4.953 7.916-9.906 15.815-14.875 23.73-.063-.032-.127-.08-.191-.111l8.361-17.774c6.673-14.206 11.276-28.953 9.859-44.847-.924-10.416-2.278-20.895-7.358-30.291-1.561-2.867-4.316-5.081-6.514-7.613-.334.255-.653.51-.987.765.7 14.859 1.401 29.733 2.07 44.019-2.325-12.263-3.774-25.243-7.406-37.569-3.583-12.136-9.38-23.634-14.19-35.356 9.827.207 18.379 4.842 26.087 11.387 15.385 13.091 24.733 29.893 27.44 49.657 1.45 10.639.064 21.691-.445 32.537-.351 7.469-1.211 14.922-2.214 22.328-.51 3.806-1.832 7.485-2.787 11.228l-.016.016ZM314.349 166.092c12.884.573 25.784 1.13 38.668 1.704.175-.749.334-1.497.51-2.246-1.752-.589-3.456-1.481-5.256-1.72-16.483-2.23-32.712-5.431-48.176-11.753-.732-.303-1.417-.701-1.911-1.864 6.195 1.195 12.39 2.517 18.617 3.536 4.587.748 9.206 1.385 13.84 1.561 12.852.493 25.721.557 38.557 1.146 6.959.319 13.887 1.306 20.831 2.023 8.027.828 13.585 6.084 17.662 12.056 3.073 4.507 3.806 10.607 5.638 16.149-6.259-1.895-12.916-3.679-19.43-5.925-15.671-5.383-31.772-7.947-48.272-9.125-10.495-.749-20.878-3.217-31.31-4.905l.048-.637h-.016ZM847.772 1271.29c4.061-8.67 8.154-15.75 10.75-23.35 3.137-9.21 5.685-18.71 7.23-28.3 2.341-14.57 3.599-29.34 5.351-44 .048-.43.51-.8.972-1.48 5.287 3.98 11.387 6.83 12.422 14.5.51 3.78 2.007 7.43 3.042 11.14 3.535 12.55 0 23.17-8.234 32.95-9.763 11.56-19.015 23.54-28.507 35.32-.621.76-1.338 1.43-3.026 3.23v-.01ZM405.349 304.424c0 11.467-.079 23.156.032 34.83.064 6.482-4.3 9.588-8.886 12.789-5.129 3.567-10.066 7.389-15.098 11.1a79.3 79.3 0 0 0 .828 1.72c5.08-1.704 10.161-3.408 16.34-5.478a7834.092 7834.092 0 0 1-3.966 14.062c-9.205-3.742-17.948-7.31-26.835-10.941a75310.066 75310.066 0 0 0 37.601-58.098l-.016.016ZM548.285 278.576c-32.856-21.245-55.216-53.527-84.328-78.738.382-.493.748-.987 1.131-1.481 3.471 2.469 7.071 4.762 10.367 7.422 3.504 2.819 6.785 5.924 10.066 9.014 3.217 3.026 6.322 6.163 10.144 9.906 1.991-6.45-3.36-8.807-4.459-13.044 1.513 1.275 2.851 2.405 4.268 3.584 2.246-6.769-4.427-14.541-21.627-25.418 14.779 3.042 23.029 14.19 31.087 25.115 4.889 6.625 8.871 14.079 12.359 21.58 7.501 16.149 17.725 30.132 30.992 42.044v.016Z" fill="#FAF5E5"/><path d="M434.049 866.354c-10.91 21.692-39.656 45.867-64.293 54.865-2.963-8.345-.653-13.441 7.58-16.149 7.931-2.611 14.031-7.596 18.65-14.365 1.13-1.672 1.194-4.077 1.035-6.609 11.052-6.912 22.503-14.158 37.028-17.742ZM412.914 203.932v38.811c.446.064.892.127 1.322.191 2.007-14.763 3.998-29.542 5.988-44.194 10.416 29.574-14.317 93.262-48.192 125.83 4.603-7.899 10.4-16.945 15.273-26.468 4.922-9.604 9.604-19.446 13.171-29.607 3.615-10.288 6.307-20.99 8.345-31.708 2.023-10.575 2.708-21.405 4.077-32.855h.016ZM532.311 336.085a27213.57 27213.57 0 0 1 13.378 30.434c.541-.191 1.083-.398 1.624-.589 1.736-4.937-.684-9.428-2.07-13.983-1.433-4.73-3.106-9.396-5.096-15.369 14.397 28.253 14.667 56.171 6.752 81.923 0-4.013.255-10.797-.079-17.534-.335-6.8-1.052-13.585-2.007-20.322-.94-6.736-2.389-13.393-3.599-20.098-.542.048-1.099.08-1.641.127l-6.832 36.757c-.143-.047-.303-.111-.446-.159v-61.171l.016-.016ZM429.923 885.625c-1.624-4.38-.477-7.581 2.453-10.304 12.55-11.658 27.185-20.099 42.506-27.648 2.214 8.186-.366 15.13-7.135 18.841-10.511 5.765-21.101 11.355-31.724 16.913-1.847.972-3.95 1.433-6.1 2.198ZM222.138 448.649c-2.389-8.345-6.832-16.403-4.634-26.086 5.797 3.137 13.234-.414 15.989 7.294-2.261.876-4.666 1.529-6.752 2.739-1.067.605-2.294 2.357-2.103 3.313.191.955 2.119 2.245 3.217 2.182 2.772-.16 5.479-1.259 8.25-1.466 1.975-.159 4.013.526 7.74 1.083-13.011 11.674-5.351 23.81-4.284 35.754-9.444-5.606-13.951-14.19-16.738-23.984 2.309 3.599 4.634 7.198 6.944 10.797.493-.302.971-.589 1.465-.891-1.322-5.718-3.711-10.926-7.151-15.592-.462.159-.908.334-1.37.494-.191 1.449-.398 2.914-.589 4.363h.016ZM514.745 382.254c.223-30.291-2.931-38.572-16.07-81.031 2.74 4.65 5.097 8.68 7.725 13.139 1.608-5.001-5.877-25.975-15.64-45.214 6.657 5.081 19.334 34.544 23.22 53.464 4.077 19.811 3.249 39.655.749 59.626l.016.016ZM558.605 279.102c6.068-10.75 1.561-21.309-.239-31.916 7.836 5.495 6.163 22.313 1.21 35.053-5.988-4.475-10.893-9.444-13.33-16.802-2.659-8.026-6.163-15.782-9.157-23.713-.478-1.243-.175-2.787-.223-4.189 1.401.128 3.074-.175 4.141.478 2.5 1.529 5.001 3.265 7.023 5.383 8.345 8.775 10.734 19.589 10.352 31.31-.048 1.465.159 2.931.239 4.396h-.016ZM581.968 346.023c-22.774-14.063-44.768-30.738-62.159-54.658 13.171 5.86 24.478 11.53 32.983 22.519 9.03 11.674 19.827 21.978 29.176 32.139ZM782.699 1482.9c3.774 2.13 4.538 4.23 3.36 7.78-1.354 4.06-1.736 8.44-2.548 12.68l1.752.53c.923-1.98 1.958-3.91 2.771-5.91.78-1.95 1.353-3.98 2.006-5.99.446.09.892.17 1.354.27-1.592 10.34-3.169 20.69-4.794 31.02-.159.97-.35 2.01-.828 2.84-.78 1.34-1.815 2.51-2.739 3.77-2.086-1.61-6.227-3.99-5.956-4.7 2.755-7.24-1.657-14.07-.685-21.08.685-4.92 1.035-9.92 2.214-14.72.573-2.34 2.675-4.3 4.124-6.48l-.031-.01ZM321.563 332.9c-2.309 4.108-4.109 7.326-5.924 10.527l1.433 1.051c5.654-5.941 11.292-11.897 16.818-17.726-9.81 19.701-54.196 56.187-75.6 66.969 23.124-17.805 42.617-39.178 63.273-60.837v.016ZM399.155 717.479c-9.365 0-18.028-.335-26.66.095-9.667.478-15.926-4.507-21.66-11.849 17.439-2.229 34.321-4.204 48.32 11.754ZM312.47 191.923c-28.731.478-55.805 5.176-82.72 11.085 25.88-13.919 52.954-19.207 82.72-11.085ZM382.384 860.223c-10.144-.191-19.238 1.608-26.707 8.361-3.791-4.889-4.715-10.288-2.15-14.524 3.901-6.466 11.355-6.721 17.964-5.845 5.956.78 8.807 5.765 10.893 12.008Z" fill="#FAF5E5"/><path d="M369.612 303.612c11.976-27.663 26.261-54.387 34.575-83.563-4.141 30.896-17.344 58.05-34.575 83.563ZM416.291 121.754c10.192-24.845 8.886-49.26-1.704-73.323-.494 0-.988-.032-1.497-.032-1.115 9.762-1.641 19.652-3.52 29.272-1.863 9.46-5.128 18.633-8.807 27.679 8.138-22.01 11.419-44.784 11.021-68.227 13.202 27.727 17.614 55.741 4.507 84.647v-.016ZM354.705 358.397a92148.573 92148.573 0 0 0 41.264-47.396c.223.128.43.255.653.383-9.619 13.903-19.254 27.79-28.874 41.678-.286.414-.844.685-.987 1.115-2.198 6.45-6.673 6.466-12.04 4.204l-.016.016ZM251.011 437.406c-7.851-6.88-15.702-13.76-23.761-20.799 3.774-4.109 7.676-3.536 11.148-.797 4.316 3.392 8.696 6.944 12.072 11.196 1.911 2.389 1.863 6.339 2.691 9.588-.716.27-1.433.541-2.165.812h.015ZM184.282 169.627c19.063-4.81 36.789-6.769 55.215-3.679-17.98 3.424-35.706 6.227-55.215 3.679ZM478.768 306.001c3.074 8.281 6.163 16.579 9.237 24.86-.35.462-.701.924-1.035 1.402-4.268-2.437-8.552-4.842-12.757-7.342-.398-.239-.637-1.242-.525-1.784 1.274-5.717 2.627-11.403 3.965-17.088.366 0 .749-.016 1.115-.032v-.016ZM536.261 413.262c-1.911 13.218-3.838 26.437-5.749 39.656-.606-.096-1.211-.176-1.8-.271-2.628-13.904.971-26.915 5.686-39.783l1.879.382-.016.016ZM156.189 181.221c4.443-4.029 9.348-5.224 14.954-2.58 6.578 3.09 13.187 6.147 19.541 10.368-4.809-.892-9.651-1.577-14.397-2.708-5.462-1.306-10.813-3.042-16.228-4.507-1.211-.334-2.517-.302-3.791-.446l-.079-.111v-.016ZM506.113 280.917c12.279 14.541 23.762 28.126 34.448 40.771-6.052-4.013-32.664-32.935-34.448-40.771ZM436.198 701.346c3.169 4.173 7.581 8.25 4.587 12.518-1.8 2.564-7.501 2.389-12.486 3.726 3.026-6.227 5.303-10.909 7.899-16.244ZM508.406 820.615c-2.437 2.198-4.555 4.969-7.358 6.466-9.38 5.033-18.999 9.683-28.571 14.365-9.492 4.651-19.047 9.158-28.794 13.299 16.643-8.314 33.333-16.5 49.88-25.004 5.144-2.644 9.842-6.116 14.748-9.205l.095.079ZM505.094 375.151c-5.065-1.927-8.075-5.16-7.565-11.132.318-3.695.064-7.438.701-11.53 2.882 7.31 5.765 14.604 8.647 21.914-.589.254-1.194.493-1.783.748ZM447.107 284.724c.829-11.547 1.673-23.077 2.453-33.811 3.472 10.845 2.182 22.328-2.453 33.811ZM783.957 1025.5c8.202 5.02 18.776 6.93 24.112 18.05-8.807-6.6-16.452-12.31-24.112-18.05ZM787.206 1284.6c1.592-1.19 3.137-2.47 4.809-3.57 3.409-2.26 6.657-2.85 9.365 1.53-4.778.74-9.444 1.44-14.095 2.14l-.063-.12-.016.02ZM384.391 148.27c-7.724-.605-15.448-1.194-23.172-1.799 0-.16.016-.319.032-.478 7.724.414 15.464.828 23.188 1.226 0 .351-.032.701-.048 1.051ZM444.321 979.413c-3.536 5.351-7.055 10.718-10.591 16.069-.303-.191-.589-.398-.892-.589 3.663-5.272 7.342-10.543 11.005-15.815.159.112.318.223.478.35v-.015ZM413.886 868.95c-4.093-1.067-8.202-2.134-12.295-3.201.048-.175.08-.35.127-.525 4.125.748 8.25 1.481 12.375 2.229l-.207 1.497ZM559.545 829.168a2303.09 2303.09 0 0 0-9.89-.86l2.898 12.454c-.478.398-.956.812-1.433 1.21-3.361-2.214-6.896-4.22-9.954-6.784-.78-.653-.685-3.615.111-4.619 2.708-3.376 5.941-6.338 8.951-9.476 2.914-3.026 5.192-2.5 6.8 1.258.844 1.959 1.481 3.998 2.517 6.817ZM920.489 791.964c-2.707-3.567-4.315-5.653-6.067-7.978-2.517 1.321-4.826 2.516-7.82 4.077-.573-3.186-1.067-5.973-1.672-9.413 5.51 0 10.336-.366 15.034.191 1.688.192 4.523 2.772 4.38 3.966-.319 2.787-2.15 5.383-3.855 9.141v.016ZM522.724 919.754c-1.545.207-2.692.541-3.807.494-3.487-.144-5.255 1.019-4.921 4.905.128 1.529-.971 4.523-1.497 4.523-2.15 0-4.698-.414-6.274-1.704-.924-.749-1.036-3.982-.192-5.144 2.485-3.408 5.336-6.657 8.569-9.365 2.962-2.484 5.956-.175 8.138 6.275l-.016.016ZM702.973 921.044c.319-4.857 1.927-7.756 5.877-8.441 1.258-.223 2.803 1.115 4.204 1.752-.796 1.211-1.322 2.851-2.436 3.52-2.087 1.242-4.507 1.927-7.645 3.169ZM759.765 897.999c-.032-.541-.111-.748-.048-.86 2.246-3.519 5.431-4.714 9.333-3.264.653.238 1.306 2.548 1.163 2.627-3.281 2.023-6.737 3.074-10.448 1.497ZM564.593 819.437c-1.465-.526-3.392-.653-4.268-1.689-.876-1.035-.685-2.962-.971-4.506l1.719-.765 4.412 5.558-.892 1.386v.016ZM584.214 800.772c-1.657-.813-3.329-1.593-4.922-2.533-.095-.063.526-1.321.813-2.022l5.191 2.277c-.366.749-.716 1.513-1.082 2.262v.016Z" fill="#FAF5E5"/><path d="M480.122 500.138c-1.465 3.026 1.831 7.628-3.854 9.38-.526.159-.781 1.784-.844 2.755-.462 6.753-.144 13.649-1.481 20.21-.797 3.934-4.109 7.374-6.833 10.687-1.465-4.444 5.67-7.533.717-11.992-3.09-2.788-6.1-5.941-11.132-3.632 1.242-1.624 2.484-3.264 3.726-4.889-.175-.287-.334-.589-.509-.876-3.854 1.274-7.645 2.899-11.578 3.711-4.826 1.003-9.795 1.8-14.716 1.847-10.543.096-21.102-.35-31.645-.525-.78 0-1.576.239-3.615.557 3.217 4.237 5.94 7.852 8.887 11.722-.828.509-1.577 1.099-2.421 1.497-5.924 2.755-6.609 6.657-1.354 10.718 8.776 6.8 18.761 8.488 29.416 5.542 7.994-2.214 15.894-4.81 23.857-7.246.063.494.207.987.127 1.019-13.601 6.96-27.775 12.741-43.143 8.011-7.422-2.278-14.461-6.912-20.624-11.801-7.119-5.654-7.613-17.248-2.437-24.797 2.468-3.615 5.51-3.328 9.269-1.943 13.76 5.096 28.348 5.765 42.554 4.475 13.171-1.194 24.382-8.026 31.931-19.636.908-1.402 1.991-2.692 3.042-3.998.398-.494.94-.876 1.434-1.322.414.16.844.319 1.258.494l-.032.032ZM371.237 429.458c-3.6 1.258-6.164 2.485-8.871 3.026-3.998.812-8.106 1.179-12.168 1.672-2.436.287-5.526-.222-5.287 3.616.239 3.854.541 7.899 5.59 8.839 5.765 1.067 8.775-.717 12.136-5.893 1.13-1.736 3.933-2.373 7.103-4.141-2.358 9.269-11.642 13.649-20.816 11.435-9.762-2.357-15.336-12.534-12.995-23.761 2.118-10.193 9.715-15.353 19.891-13.537 8.903 1.576 16.579 11.562 15.417 18.76v-.016ZM462.508 399.98c4.363-14.796 11.928-27.202 26.994-33.747-12.04 8.854-19.143 21.531-26.994 33.747ZM362.174 376.377c8.696-2.213 19.43 1.322 23.3 7.804-7.326-2.453-14.652-4.905-23.3-7.804ZM493.117 426.847c3.313-4.221 6.641-8.457 10.288-13.107 1.179 5.733-3.567 12.072-10.288 13.107ZM357.094 459.941c-6.386 1.131-12.438.494-17.598-4.635 5.956 1.036 11.929 2.071 17.885 3.106l-.287 1.529ZM339.13 396.826l-12.566 6.976c-.334-.59-.669-1.163-1.003-1.752 4.141-2.405 8.297-4.794 12.438-7.199.382.653.764 1.306 1.131 1.959v.016ZM459.371 468.143c-2.31-4.3-4.635-8.6-6.944-12.9.557-.303 1.115-.622 1.688-.924l7.039 12.836-1.783.972v.016ZM457.634 501.396c1.465-5.367 2.931-10.75 4.396-16.117.573.159 1.131.302 1.704.462l-4.3 16.149c-.605-.16-1.195-.319-1.8-.478v-.016ZM827.355 1279.03c-3.313-6.69-3.886-12.65-.51-19.02 4.045 5.94 4.443 14.54.51 19.02ZM409.809 636.782c-.541 3.902-.844 6.164-1.162 8.441.254.175.525.334.78.51 1.927-2.517 3.838-5.033 5.765-7.549l1.067.462c-1.433 3.567-2.659 7.23-4.332 10.67-6.338 12.948-9.874 26.437-6.832 40.802 1.242 5.877 3.998 11.435 5.909 16.691-4.3-1.004-8.473-6.275-8.632-12.423-.191-7.166-.048-14.349-.048-21.547-5.415.637-10.081-1.593-12.279-5.511-1.608-2.882-1.353-7.947.064-11.148 3.695-8.393 11.705-12.9 19.7-19.35v-.048ZM352.284 677.935c-7.772-7.931-14.46-16.643-19.748-26.421.526-.398 1.067-.797 1.593-1.195 6.498 8.839 12.995 17.678 19.477 26.501l-1.338 1.099.016.016ZM274.088 632.992v-10.957c.43-.016.86-.048 1.29-.064l.589 10.925-1.879.096ZM869.925 1437.08c5.351 16.67 10.575 32.95 15.942 49.7-10.75-7.52-18.729-32.82-15.942-49.7ZM217.169 1046.24c-3.201-9.92-2.246-14.54 3.583-18.32 3.504 4.05 2.039 12.23-3.583 18.32ZM168.993 1036.25l-13.505 6.2c-.319-.67-.621-1.34-.94-2.01 4.475-2.1 8.966-4.2 13.442-6.31l1.003 2.14v-.02ZM293.47 919.626v-20.385c2.819 6.625 1.449 13.569 1.832 20.401-.605 0-1.227 0-1.832-.016ZM286.383 1010.52l-9.158-7.57c.414-.52.844-1.05 1.258-1.56 3.122 2.44 6.228 4.89 9.349 7.33-.478.6-.971 1.19-1.449 1.8ZM753.57 1259.12c-.557-10.85 6.975-12.45 13.983-14.62-4.491 4.7-8.998 9.41-13.983 14.62ZM430.927 985.64c-4.778-8.282-10.05-16.006-19.876-19.223 8.504-1.529 16.802 8.25 19.876 19.223ZM446.375 924.261l9.491 11.164-1.863 1.529-9.078-11.514c.494-.399.972-.797 1.465-1.195l-.015.016ZM350.644 910.198c1.433 7.756 2.787 15.002 4.061 21.882-4.873-4.268-7.135-14.906-4.061-21.882ZM222.138 448.649c.191-1.449.398-2.914.589-4.363.462-.16.908-.335 1.37-.494 3.44 4.666 5.829 9.874 7.151 15.591-.494.303-.972.59-1.466.892-2.309-3.599-4.634-7.198-6.943-10.797-.239-.271-.462-.542-.701-.829Z" fill="#201B19"/></svg>