<svg xmlns="http://www.w3.org/2000/svg" width="169" height="65" fill="none"><path fill-rule="evenodd" clip-rule="evenodd" d="M153.354 9.342c-.722.428-1.844 3.079-2.675 6.321-1.2 4.676-1.208 5.79-.057 6.847 1.778 1.635 1.891 1.65 3.818.508 1.109-.658 2.023-2.506 2.868-5.8 1.597-6.228-.314-10.033-3.954-7.876Zm-17.248 10.583c-1.127.454-1.895 1.515-2.041 2.818-.221 1.983.086 2.185 6.028 3.952 5.549 1.65 6.362 1.697 7.159.42 1.686-2.7.795-4.353-2.856-5.303-1.877-.488-4.103-1.276-4.948-1.751-.844-.474-2.348-.536-3.342-.136Zm20.327 5.4c-.875.35-1.628 1.505-1.762 2.703-.221 1.983.087 2.185 6.028 3.952 5.55 1.65 6.362 1.697 7.159.42 1.673-2.681.788-4.351-2.841-5.36-1.869-.52-4.221-1.256-5.227-1.636-1.006-.38-2.516-.415-3.357-.078ZM31.393.22c-4.852.512-9.67 2.365-16.525 6.355C4.229 12.768.13 19.801 1.128 30.155c.887 9.223 2.698 16.066 5.014 18.953 1.783 2.222 10.059 8.67 16.966 13.221 1.425.94 11.943 2.42 18.902 2.663 2.162.075 6.392-1.02 10.35-2.68 6.108-2.561 7.279-3.471 13.354-10.38 6.179-7.025 6.708-7.892 7.324-12.02 1.501-10.045-3.995-23.976-12.057-30.561-3.59-2.932-5.242-3.632-15.096-6.392C37.862.71 33.878-.042 31.393.22Zm116.669 29.758c-.723.428-1.844 3.079-2.676 6.321-1.199 4.676-1.208 5.79-.057 6.847 1.779 1.635 1.892 1.65 3.819.508 1.139-.676 2.033-2.545 2.981-6.242 1.121-4.374 1.117-5.495-.022-6.541-1.774-1.63-2.524-1.795-4.045-.893ZM31.7 2.897c-6.808.728-18.938 6.963-23.744 12.206-1.468 1.601-2.654 4.175-3.575 7.761-1.208 4.702-1.155 6.454.424 14.184 2.044 9.998 2.488 10.617 13.31 18.555 6.842 5.017 6.85 5.021 13.86 5.9 3.859.484 8.399.88 10.09.88 4.406.002 15.062-4.613 17.69-7.66a819.07 819.07 0 0 1 6.271-7.13c3.423-3.849 4.12-5.143 4.49-8.332 1.056-9.153-3.797-21.403-10.876-27.446-3.69-3.151-5.06-3.76-14.354-6.378-7.208-2.03-11.263-2.788-13.586-2.54Zm3.802 7.596c-3.98-.296-6.899.535-12.827 3.655-8.872 4.668-11.712 11.246-9.558 22.135 1.442 7.293 2.184 8.356 9.556 13.702 4.83 3.503 5.33 3.69 12.028 4.479 9.715 1.145 15.593-.996 21.58-7.863 2.624-3.011 4.567-6.09 5.054-8.009 1.691-6.667-2.53-17.645-8.526-22.168-3.234-2.44-12.343-5.562-17.307-5.931Zm-4.357 3.18c-7.962 2.124-14.453 7.209-15.772 12.353-.957 3.736.535 13.395 2.513 16.262.666.965 3.465 3.394 6.22 5.399 4.736 3.447 5.34 3.677 11.12 4.239 6.756.657 6.699.664 11.812-1.56 4.126-1.796 10.96-8.969 11.81-12.397 1.319-5.314-1.986-14.58-6.674-18.722-3.755-3.316-16.665-6.738-21.029-5.574Z" fill="#201B19"/><path fill-rule="evenodd" clip-rule="evenodd" d="M31.7 2.897c-6.808.728-18.938 6.963-23.744 12.206-1.468 1.601-2.654 4.175-3.575 7.761-1.208 4.702-1.155 6.454.424 14.184 2.044 9.998 2.488 10.617 13.31 18.555 6.842 5.017 6.85 5.021 13.86 5.9 3.859.484 8.399.88 10.09.88 4.406.002 15.062-4.613 17.69-7.66a819.07 819.07 0 0 1 6.271-7.13c3.423-3.849 4.12-5.143 4.49-8.332 1.056-9.153-3.797-21.403-10.876-27.446-3.69-3.151-5.06-3.76-14.354-6.378-7.208-2.03-11.263-2.788-13.586-2.54Zm-9.025 11.25c5.928-3.119 8.847-3.95 12.827-3.654 4.964.37 14.073 3.491 17.307 5.931 5.995 4.523 10.217 15.501 8.526 22.168-.487 1.92-2.43 4.998-5.054 8.009-5.987 6.867-11.865 9.008-21.58 7.863-6.697-.79-7.198-.976-12.028-4.48-7.372-5.345-8.114-6.408-9.556-13.7-2.154-10.89.686-17.468 9.558-22.136Z" fill="#FAF5E5"/></svg>