<svg xmlns="http://www.w3.org/2000/svg" width="328" height="348" fill="none"><path fill-rule="evenodd" clip-rule="evenodd" d="M38.082 90.414c-1.656 2.478-2.649 6.206-3.634 13.636-.746 5.625-1.901 13.561-2.567 17.635-1.346 8.237-.862 18.909 1.391 30.722 2.563 13.43 4.777 19.473 14.953 40.817 1.288 2.7 4.193 6.985 6.715 9.9 2.444 2.827 6.075 7.52 8.07 10.427 9.523 13.885 22.213 25.526 35.214 32.307 2.75 1.434 5.075 2.736 5.165 2.893.391.68 30.124 17.706 56.229 22.756 12.621 2.441 15.307 4.455 41.157.937 17.375-2.364 21.243-3.601 23.796-7.604 1.343-2.107 8.944-8.087 13.309-10.471 1.579-.863 10.513-1.641 25.705-2.236 12.806-.503 23.764-.847 24.35-.766 2.859.397 15.109-1.704 20.789-3.565 8.81-2.888 14.17-7.336 15.705-13.037.77-2.855-1.529-6.122-4.428-6.293-2.303-.136-2.706.168-6.333 4.776-5.737 7.288-9.559 8.675-26.408 9.58-29.303 1.575-49.869-.441-57.89-5.672-2.698-1.761-3.371-2.635-4.05-5.264-.681-2.64-1.379-3.539-4.286-5.523-4.874-3.327-10.738-4.174-23.807-3.439-15.477.871-29.572-.241-32.53-.706-9.413-1.48-23.849-6.26-23.849-6.26s-18.119-5.234-25.91-8.572c-9.59-4.108-18.85-11.164-36.473-27.786-6.092-5.746-7.069-7.075-16.51-22.454-11.198-18.24-13.399-23.258-14.305-32.62-.658-6.802.168-19.686 1.534-23.927 2.33-7.233 1.24-15.306-2.192-16.235-2.165-.587-6.399 2.285-8.91 6.044Zm186.881 161.118c-.602-2.439-.749-6.438-.327-8.886.422-2.447.816-4.485.874-4.529.059-.043 1.808.895 3.887 2.084 7.474 4.276 22.425 6.122 46.648 5.757 15.252-.229 25.021-1.382 31.074-3.667 3.499-1.32 4.684-2.243 7.606-5.921 4.254-5.356 5.659-6.244 6.783-4.287 1.494 2.599-1.56 6.772-7.422 10.139-8.009 4.601-15.018 6.062-31.349 6.536-5.27.153-17.162.587-26.426.964-18.158.742-19.196 1.026-27.339 7.491-3.599 2.858-3.695 2.882-3.31.849.218-1.153-.096-4.091-.699-6.53Z" fill="#201B19"/><path d="M224.636 242.646c-.422 2.448-.275 6.447.327 8.886.603 2.439.917 5.377.699 6.53-.385 2.033-.289 2.009 3.31-.849 8.143-6.465 9.181-6.749 27.339-7.491 9.264-.377 21.156-.811 26.426-.964 16.331-.474 23.34-1.935 31.349-6.536 5.862-3.367 8.916-7.54 7.422-10.139-1.124-1.957-2.529-1.069-6.783 4.287-2.922 3.678-4.107 4.601-7.606 5.921-6.053 2.285-15.822 3.438-31.074 3.667-24.223.365-39.174-1.481-46.648-5.757-2.079-1.189-3.828-2.127-3.887-2.084-.058.044-.452 2.082-.874 4.529Z" fill="#FAF5E5"/><path d="M77.844 93.895c-4.199-.02-8.237-6.44-5.63-8.953.863-.831 6.453.413 7.58 1.687 2.493 2.82 1.296 7.282-1.95 7.266Z" fill="#201B19"/></svg>