<svg xmlns="http://www.w3.org/2000/svg" width="153" height="109" fill="none"><path d="M3.26 95.318c6.867-12.251 18.764-45.344 17.981-50.02-.293-1.744-.008-1.849 24.72-9.118 10.784-3.17 24.597-7.421 30.697-9.446 27.988-9.29 45.216-15.341 57.6-20.226 7.379-2.91 14.427-5.488 15.662-5.726 3.804-.735-.014 2.07-4.372 3.213-2.015.527-10.597 3.666-19.072 6.975-13.518 5.278-40.019 14.695-47.31 16.81-1.394.406-9.3 2.82-17.57 5.366-8.267 2.546-20.172 6.13-26.453 7.963L23.72 44.443l-3.158 11.438c-3.715 13.457-9.148 27.563-14.904 38.7-2.273 4.396-4.03 8.711-3.906 9.587.17 1.182-.004 1.335-.675.591-1.3-1.443-.596-4.482 2.182-9.44Z" fill="#FA007A"/><path d="M16.838 84c5.89-13.72 11.586-33.014 10.563-35.789-.762-2.066-.17-2.544 1.205-.974 1.179 1.346-2.763 18.355-6.277 27.093-1.968 4.89-2.942 13.02-1.743 14.536.255.324 2.242.1 4.415-.498l3.95-1.087-1.91 2.45c-1.051 1.347-5.782 5.616-10.514 9.484-6.739 5.51-8.025 6.919-5.944 6.502 4.326-.865 10.796-5.184 21.773-14.535 5.683-4.841 12.638-10.258 15.454-12.037 2.815-1.78 8.186-5.454 11.934-8.166 11.995-8.678 26.849-18.057 33.8-21.34 4.18-1.975 9.637-5.768 14.334-9.965l7.584-6.776-6.563 7.033c-4.795 5.14-7.815 7.561-11.211 8.993-10.585 4.46-43.203 26.756-66.058 45.15-7.898 6.358-15.337 11.758-16.53 11.998-1.194.243-3.557.994-5.251 1.669-1.715.685-4.128.506-5.444-.401-2.195-1.516-2.172-1.593.31-1.065 2.58.548 2.736.403 4.557-4.24 1.037-2.644 4.442-10.76 7.566-18.035Z" fill="#FA007A"/><path d="M54.73 40.349c-12.406 4.1-23.068 7.299-23.696 7.105-1.895-.582-.546-1.136 10.368-4.258 11.223-3.21 24.279-7.514 49.939-16.458 8.865-3.09 16.099-5.325 16.075-4.965-.036.547-19.124 7.691-27.635 10.342-1.374.429-12.648 4.134-25.052 8.234ZM113.999 19.425c-.718.678-2.258 1.372-3.42 1.542-2.577.378-1.156-.867 2.25-1.97 1.634-.53 2.032-.384 1.17.428ZM120.297 29.4c-.482.914-1.268 1.213-1.748.665-1.06-1.21-.82-1.424 10.127-9 6.057-4.19 9.568-7.292 11.448-10.107 1.626-2.438 3.56-4.243 4.838-4.514 3.384-.718-7.238 9.815-16.087 15.953-4.236 2.937-8.097 6.09-8.578 7.004Z" fill="#FA007A"/><path fill-rule="evenodd" clip-rule="evenodd" d="M133.57 47.361c.405 1.614.492 4.397.193 6.185-.468 2.788-.244 3.208 1.577 2.95 2.541-.358 17.389-14.774 17.579-17.067.082-.988-.253-1.239-.901-.672-.567.498-4.692 1.605-9.167 2.463-9.578 1.834-10.251 2.28-9.281 6.141Zm3.194-1.604c-.401.351-1.088.228-1.528-.275-.44-.502 2.704-1.815 6.988-2.917 4.284-1.103 7.916-1.86 8.072-1.681.155.177-1.55 1.993-3.788 4.036-2.239 2.042-4.623 4.626-5.299 5.743-1.006 1.662-1.56 1.582-3.06-.446-2.025-2.738-1.641-3.446 2.491-4.587 2.703-.746 2.697-.768-.175-.641-1.636.072-3.301.417-3.701.768Z" fill="#FA007A"/></svg>