<svg xmlns="http://www.w3.org/2000/svg" width="149" height="417" fill="none"><path d="M107.174 22.641c3.731 14.73 7.561 27.257 8.507 27.838 3.173 1.952 6.576 25.02 7.186 48.758.333 12.941.783 26.619 1 30.397.217 3.777-.745-.182-2.135-8.801-1.392-8.619-2.088-19.069-1.551-23.222.766-5.903-.072-7.99-3.845-9.573-2.653-1.113-5.201-3.598-5.662-5.527-.523-2.19 1.076-1.934 4.252.684 5.951 4.898 5.928 4.288-.748-20.874-8.145-30.704-9.744-35.246-12.888-36.61-1.951-.845-1.887-2.616.174-4.765 1.804-1.879 2.41-3.95 1.348-4.605-1.064-.654-7.042 12.298-13.285 28.784C69.474 98.066 36.256 164.478 28.954 166.22c-5.475 1.308-9.185 11.652-8.189 22.844l.967 10.909 1.654-13.791c.91-7.587 2.501-13.272 3.539-12.634 3.659 2.248 13.94-9.359 22.912-25.86 4.988-9.179 9.69-16.309 10.444-15.843.756.463-2.624 15.418-7.511 33.234-10.3 37.551-12.014 53.052-12.607 114.033-.298 30.724.779 47.865 3.448 54.889 3.063 8.061 3.009 11.742-.263 17.458-2.28 3.984-3.373 7.721-2.43 8.298.943.58 12.347-7.925 25.34-18.901 12.995-10.976 24.223-19.586 24.957-19.137.732.452-9.284 9.931-22.26 21.07-47.049 40.387-60.281 53.319-62.563 61.144-2.028 6.96-1.773 8.052 2.2 9.39 3.105 1.047 5.793-.328 8.689-4.436 8.306-11.787 27.524-29.479 65.226-60.046 21.107-17.116 40.971-32.67 44.147-34.568l5.768-3.452-6.861-4.216-6.861-4.218-10.798 8.852c-5.939 4.869-11.502 8.42-12.361 7.893-.861-.527 3.956-5.64 10.703-11.362l12.265-10.404 6.258 4.814c6.093 4.689 6.328 4.658 8.852-1.091 1.427-3.249 2.428-6.766 2.226-7.812-.201-1.049 1.852-8.363 4.562-16.257 5.835-16.992 5.734-18.107-1.71-18.652-3.14-.228-5.311-1.62-4.824-3.09.484-1.472 2.559-2.452 4.607-2.181 2.954.392 1.715-7.865-5.966-39.774-10.06-41.806-13.523-67.512-9.624-71.431 1.491-1.501 2.511 1.854 2.986 9.812.396 6.651 5.656 34.596 11.692 62.102l10.971 50.01-6.037 19.831c-3.323 10.906-6.283 21.767-6.578 24.135-.295 2.368-9.929 11.394-21.41 20.057-32.447 24.48-70.396 57.172-86.827 74.801-13.088 14.039-15.633 15.733-20.426 13.597-3.011-1.342-5.869-2.546-6.348-2.674-.741-.201 5.769-47.89 9-65.945.572-3.201.919-11.43.766-18.286-.152-6.857.364-18.26 1.146-25.339 2.84-25.655 5.553-100.516 4.107-113.291-1.244-10.994-.233-14.574 6.326-22.398 11.203-13.361 28.814-42.481 37.744-62.413C87.353 44.852 88.156 42.706 98.629 2.61c1.488-5.708 2.81-2.612 8.545 20.031Z" fill="#FA007A"/><path d="M100.43 35.664c-1.165-1.635-1.872-4.6-1.573-6.587.298-1.984 1.25-.646 2.115 2.977.865 3.623.621 5.249-.542 3.61ZM104.832 71.515c-3.545-6.389-7.278-27.202-5.423-30.237.353-.575 2.637 7.653 5.078 18.283 3.473 15.129 3.548 17.729.345 11.954ZM126.171 213.385c-1.148-1.612-2.042-5.158-1.985-7.882.057-2.723.996-1.405 2.087 2.93 1.09 4.335 1.046 6.563-.102 4.952ZM128.799 239.858c-2.632-6.264-4.493-13.964-4.131-17.111.391-3.416 2.318 1.168 4.787 11.39 3.927 16.274 3.897 16.554-.656 5.721ZM116.489 293.43c-1.153-4.746 8.996-30.5 12.331-31.297 1.478-.352.814 3.677-1.477 8.953-2.291 5.277-5.479 13.245-7.088 17.707-1.606 4.461-3.302 6.548-3.766 4.637Z" fill="#FA007A"/></svg>