<svg xmlns="http://www.w3.org/2000/svg" width="205" height="155" fill="none"><path fill-rule="evenodd" clip-rule="evenodd" d="M1.59 1.159C-1.46 4.51-.064 11.629 5.811 22.68c4.407 8.288 10.15 14.828 26.792 30.504 25 23.55 33.987 34.599 46.11 56.68a10393.96 10393.96 0 0 0 12.021 21.848c2.738 4.942 3.76 5.489 10.279 5.516 17.267.071 37.201 2.621 58.723 7.512 25.982 5.904 36.608 8.493 40.205 9.791 1.502.542 3.2-.44 4.367-2.522 1.762-3.143.085-5.167-21.488-25.945-35.357-34.055-57.623-58.15-62.228-67.348-2.773-5.535-8.746-11.65-11.265-11.53-2.099.099-45.59-16.223-64.567-24.232C31.31 17.277 17.871 9.86 8.51 2.94 4.572.03 2.986-.378 1.589 1.159ZM38.82 56.26C14.613 33.904 5.818 22.835 2.576 10.647L1.157 5.316l5.625 4.907c8.33 7.265 35.957 23.27 51.426 29.791 7.45 3.141 21.624 8.2 31.499 11.242 11.315 3.486 19.082 6.84 21.009 9.072 1.682 1.946 10.088 12.255 18.682 22.907 9.923 12.299 25.179 28.161 41.805 43.463 14.397 13.253 25.632 24.121 24.965 24.153-.668.032-5.435-1.162-10.596-2.653-27.592-7.969-75.681-15.33-85.277-13.055l-4.997 1.184-10.433-19.732C71.917 92.106 58.27 74.226 38.82 56.261Z" fill="#FA007A"/></svg>