<svg xmlns="http://www.w3.org/2000/svg" width="269" height="87" fill="none"><path fill-rule="evenodd" clip-rule="evenodd" d="M249.983 21.273c-2.032.758-14.62 3.07-27.974 5.135-13.354 2.066-33.351 5.476-44.439 7.578-11.087 2.1-25.001 4.547-30.917 5.435-5.916.888-10.722 2.157-10.678 2.822.045.664 1.064 2.834 2.266 4.82.343.567.626 1.047.971 1.477 1.944 2.425 5.84 3.288 33.381 9.546 5.516 1.253 21.23 6.778 34.919 12.277 13.688 5.5 25.691 9.946 26.67 9.88.981-.065 1.721-1.033 1.647-2.151-.222-3.331 2.71-8.942 10.771-20.61 4.193-6.069 10.172-15.806 13.288-21.637 4.957-9.279 5.458-10.988 4.009-13.677-1.789-3.323-6.592-3.632-13.914-.895ZM204.104 37.39c19.028-1.377 50.429-7.478 55.943-10.868 1.739-1.07 3.326-2.02 3.527-2.109 1.985-.893-12.942 24.822-19.22 33.11-2.756 3.64-6.254 9.642-7.772 13.342-1.519 3.7-3.595 6.791-4.614 6.87-1.018.08-12.41-4.177-25.315-9.459-16.545-6.77-29.484-11.012-43.878-14.383-10.11-2.368-16.783-4.285-20.283-5.836.427.032 1.077-.208 1.937-.823 1.979-1.412 2.804-1.596 16.008-3.556 5.738-.853 15.101-2.413 20.807-3.467 5.705-1.055 15.992-2.323 22.86-2.82ZM76.933 51c-3.643 2.776 1.092 7.917 11.634 12.628 5.363 2.395 11.117 4.291 12.789 4.212 8.085-.383 15.259-13.601 8.998-16.581-4.189-1.993-30.875-2.201-33.42-.26Zm15.25 7.391c2.33 3.4-1.772 1.898-7.406-2.71l-5.665-4.635 14.492.38c7.971.208 15.039.668 15.707 1.021 2.395 1.268.411 7.692-3.326 10.77-3.051 2.51-4.685 2.848-8.212 1.694-2.421-.79-4.438-2.197-4.483-3.125-.048-1.032 1.683-.878 4.46.397 4.09 1.875 4.9 1.76 8.165-1.151 4.079-3.635 3.218-4.241-1.439-1.016-2.524 1.747-3.979 1.635-8.287-.644-2.876-1.52-4.678-1.96-4.006-.98Z" fill="#FA007A"/><path d="M.89 8.754c.243-2.423 2.216-4.117 6.67-5.721 8.705-3.136 12.373-3.3 16.143-.72 2.78 1.904 2.858 2.235.554 2.387-1.469.099-2.968-.586-3.329-1.52-.45-1.163-3.39-.816-9.33 1.1-6.17 1.99-7.51 2.855-4.642 2.998 2.217.11 4.76.334 5.653.498.892.163 2.712.38 4.043.48 1.726.131 1.52.624-.723 1.716-2.653 1.292-2.347 1.51 1.963 1.403 2.808-.072 6.26-1.4 7.672-2.952 2.404-2.644 2.539-2.624 2.124.302-.37 2.598-2.046 3.284-9.965 4.067C4.673 14.085.46 13.074.89 8.754Z" fill="#FA007A"/></svg>