<svg xmlns="http://www.w3.org/2000/svg" width="369" height="428" fill="none"><path d="M60.615 14.667c-7.688-4.533-9.127-5.997-8.245-8.398.587-1.599 2.272-2.974 3.746-3.057 1.474-.084 6.654-.801 11.511-1.597 9.975-1.634 18.985-1.703 18.24-.14-.272.575-2.363.906-4.645.738-2.282-.17-9.055.373-15.051 1.203-14.774 2.045-15.785 4.696-3.915 10.26 7.451 3.493 9.483 3.738 14.14 1.707 2.99-1.304 5.299-2.705 5.126-3.113-1.034-2.457-7.411-4.842-13.003-4.866-11.399-.049-1.893-1.971 11.716-2.37 14.767-.433 18.2-1.13 11.55-2.35-5.171-.95-3.947-2.094 1.36-1.273 1.913.296 3.802 1.463 4.201 2.593.89 2.52-2.303 4.683-16.448 11.145l-10.97 5.01-9.313-5.492ZM25.273 73.68c-5.511-3.507-7.28-7.812-5.23-12.735 2.027-4.87 6.626-6.273 12.314-3.758 4.897 2.167 9.233 10.615 6.924 13.49-.675.842-.354 2.69.716 4.108 1.068 1.42 1.523 2.728 1.011 2.908-2.54.897-11.68-1.435-15.735-4.014ZM64.705 62.21c-3.022 1.77-15.114-1.099-16.09-3.816-.931-2.59 4.404-4.246 7.567-2.348 1.416.85 4.13 1.233 6.03.854 4.175-.835 6.073 3.21 2.493 5.31ZM6.675 92.122c-.846-.995-1.057-3.12-.47-4.722 1.272-3.463 1.423-3.535 5.883-2.847 3.227.5 6.062 4.594 4.887 7.06-.933 1.962-8.738 2.346-10.3.509ZM319.272 38.441l16.29-6.781c8.96-3.73 16.712-7.082 17.229-7.448.515-.368 1.598-.135 2.406.517.954.77-5.077 3.379-17.229 7.448l-18.696 6.264Z" fill="#FA007A"/><path d="M362.219 25.659c2.125-.75 3.624-2.046 3.33-2.88a1.61 1.61 0 0 1 .975-2.048c4.879-1.722.883 4.224-11.414 16.986-7.69 7.984-21.228 22.815-30.08 32.96l-16.093 18.445-20.379 1.68c-11.207.925-21.163 1.486-22.124 1.246-.96-.24-2.984-2.546-4.499-5.123-2.742-4.67-2.717-4.72 6.404-13.584 13.668-13.285 30.732-25.661 41.569-30.15l9.632-3.99-9.38 4.743c-10.707 5.415-26.736 17.522-39.213 29.62-7.635 7.402-8.38 8.74-7.017 12.603 1.548 4.386 4.001 5.02 4.816 1.244.911-4.215 32.01-31.676 38.004-33.559 1.324-.416-2.346 3.099-8.158 7.808-18.441 14.95-22.912 19.059-25.822 23.734l-2.839 4.56 13.027-.997c12.57-.962 13.1-1.13 15.084-4.796 2.993-5.53 9.463-11.924 13.51-13.353 1.934-.682 7.456-5.176 12.271-9.985 4.816-4.81 12.741-11.528 17.612-14.931 4.871-3.404 10.778-8.323 13.127-10.932l4.269-4.747-10.322 4.441c-9.88 4.251-10.021 4.265-3.288.31 3.869-2.272 9.058-4.461 11.531-4.867 2.723-.447 3.925-1.198 3.048-1.906-.805-.651.266-1.773 2.419-2.532Z" fill="#FA007A"/><path d="M315.007 50.418c-4.375 1.522-4.362 1.472.354-1.403 2.691-1.64 6.588-3.592 8.661-4.335 3.343-1.2 3.304-1.042-.354 1.403-2.268 1.516-6.165 3.466-8.661 4.335Z" fill="#FA007A"/><path fill-rule="evenodd" clip-rule="evenodd" d="M190.825 43.654c-6.826 8.99-20.639 25.075-30.697 35.741-17.091 18.127-18.998 20.825-29.218 41.349-6.014 12.074-15.108 29-20.208 37.613-16.644 28.102-26.212 39.805-73.3 89.656-9.514 10.073-10.336 11.494-8.676 14.993 1.008 2.125 1.231 4.615.496 5.53-.915 1.141-1.375.537-1.455-1.914-.16-4.85-1.542-4.008-4.16 2.533-2.714 6.774-2.305 8.1 3.42 11.103l4.564 2.394.072 11.201c.159 24.523-5.395 53.141-18.083 93.175-3.795 11.972-7.71 24.473-8.7 27.78-.991 3.309-2.36 6.467-3.043 7.02-.682.554-1.017 1.642-.743 2.418.667 1.888 11.789 4.178 14.935 3.075 1.376-.483 7.103-8.077 12.728-16.875 34.963-54.698 80.551-113.39 119.316-153.611 9.437-9.793 11.01-12.276 11.265-17.788.757-16.305 6.154-61.253 9.323-77.639 6.721-34.746 18.312-71.823 31.872-101.955 8.02-17.823 8.254-18.831 5.896-25.512-1.35-3.825-2.62-6.883-2.824-6.796-.203.089-5.953 7.517-12.78 16.51Zm-9.388 35.348c.827-1.833 5.489-12.488 10.36-23.677 5.596-12.847 9.484-19.838 10.558-18.971.933.754 1.668 2.536 1.631 3.958-.049 1.886.391 2.03 1.619.535 1.454-1.77 1.521-1.587.487 1.331-.661 1.86-2.276 3.354-3.588 3.317-1.356-.038-1.738.458-.885 1.147 1.765 1.425-9.508 28.079-12.145 28.717-.984.238-1.322 1.508-.75 2.82.573 1.315.075 2.518-1.105 2.677-1.182.16-1.56.766-.84 1.347.72.58-.539 6.354-2.796 12.828-6.367 18.271-14.858 50.894-17.926 68.885-1.531 8.975-3.561 16.411-4.511 16.523-.949.112-1.044 1.01-.208 1.991.836.983.495 9.721-.76 19.419-1.253 9.697-2.317 19.801-2.364 22.45-.046 2.651-.836 4.655-1.757 4.453-.92-.202-.835.873.189 2.387 1.081 1.601 1.117 3.016.085 3.38-.977.345-1.129 1.15-.338 1.788 3.217 2.6-.237 8.9-11.106 20.261-37.043 38.72-83.623 98.578-119.1 153.052L15.52 426.003l-5.372-.754c-6.506-.91-6.48-2.19.447-22.432 16.963-49.569 26.255-99.086 22.598-120.431-2.11-12.318-2.693-22.214-1.434-24.327.696-1.171 9.266-10.561 19.045-20.866 18.145-19.125 39.1-43.083 45.214-51.695 8.978-12.647 27.119-43.954 36.944-63.756 9.993-20.142 12.333-23.512 27.643-39.843 9.2-9.811 20.615-22.946 25.367-29.187 12.585-16.524 12.67-16.581 7.459-5.07-4.081 9.02-18.37 30.448-20.899 31.34-.454.16-6.646 6.146-13.759 13.301-11.544 11.614-13.922 15.117-22.146 32.625-5.066 10.789-13.752 26.561-19.301 35.048-5.55 8.487-10.568 16.733-11.152 18.322-2.305 6.281 3.302.536 15.162-15.53 4.349-5.892 23.85-24.558 36.014-34.47 2.176-1.774 4.582-4.211 5.347-5.417 3.018-4.751 2.872-.787-.464 12.596-5 20.049-9.427 46.379-11.757 69.927-2.127 21.49-2.153 22.654-.429 20.508.594-.739 1.787-.63 2.652.242.865.872.654.013-.468-1.909-1.243-2.126-1.503-6.366-.666-10.841.756-4.042 1.309-8.952 1.229-10.912-.327-7.945 8.336-55.529 10.148-55.733 1.072-.121 1.272-.767.443-1.434-2.767-2.235-.911-5.166 2.535-4.003 2.866.968 2.887.881.191-.84-2.664-1.699-2.561-3.608.88-16.499 3.927-14.71 11.671-38.81 14.447-44.961ZM77.084 220.883c-.594 1.615-2.314 3.373-3.824 3.906-7.078 2.498-34.039 27.366-33.794 31.169.07 1.109.373 7.244.67 13.635.298 6.391 1.102 11.859 1.786 12.151.685.291 1.247-.458 1.25-1.665.002-1.207.883-4.586 1.96-7.508 1.076-2.923 2.21-7.074 2.52-9.225.311-2.151 4.78-8.662 9.932-14.469 10.822-12.198 22.418-27.352 23.004-30.062.634-2.935-2.305-1.199-3.504 2.068Zm69.761 12.371c-1.072 2.258-10.444 13.601-20.827 25.207-17.272 19.307-36.092 42.26-38.59 47.063-1.51 2.903 4.364-3.534 11.206-12.28 17.575-22.471 52.129-60.144 53.873-58.735.738.595 1.826.48 2.417-.255 1.042-1.3-3.954-6.404-5.418-5.531-.392.234-1.591 2.272-2.661 4.531Zm3.959 4.001c.111.314 1.723 1.088 3.58 1.719 3.06 1.038 3.094.966.368-.774-2.865-1.828-4.388-2.192-3.948-.945Zm-110.312 65.2c-.44 6.446-3.75 22.961-7.353 36.701-3.604 13.739-6.825 26.375-7.158 28.078-1.359 6.948-9.596 35.298-10.498 36.129-.534.494-2.69 4.201-4.793 8.241-4.819 9.257-2.058 6.309 6.256-6.68 3.521-5.5 7.51-11.522 8.865-13.381 1.353-1.859 4.94-7.343 7.966-12.184 3.028-4.844 15.893-22.825 28.591-39.96 12.697-17.135 22.844-31.287 22.549-31.45-.913-.502-13.785 15.852-28.622 36.365-8.2 11.338-14.07 18.214-13.973 16.364.094-1.752.052-7.746-.093-13.318-.144-5.573-.001-15.975.318-23.117.664-14.832.332-32.744-.615-33.199-.352-.169-1 4.966-1.44 11.411ZM8.967 420.92c-.92 1.178.024 1.902 2.864 2.195 3.865.399 4.014.234 1.69-1.896-1.57-1.437-2.238-2.092-2.812-2.018-.485.062-.903.646-1.742 1.719Z" fill="#FA007A"/></svg>