<svg xmlns="http://www.w3.org/2000/svg" width="199" height="216" fill="none"><path fill-rule="evenodd" clip-rule="evenodd" d="M33.799.862c-2.072.245-2.983 3.466-1.554 5.492 1.086 1.54 1.963 4.304 1.963 6.188 0 2.473-.754 4.665-2.637 7.673-2.041 3.259-2.66 5.02-2.915 8.3-.353 4.517.875 8.787 3.756 13.067 1.402 2.083 1.334 2.115-3.782 1.808a188.289 188.289 0 0 0-9.317-.276c-4.634 0-4.756.02-5.586.857-1.303 1.316-1.277 3.969.05 5.21 1.19 1.113 2.516 1.405 7.61 1.672 2.381.125 4.629.269 4.995.32.367.05 2.069.11 3.783.134l3.116.043-.23.923c-.126.507-.802 1.79-1.504 2.85-.7 1.06-1.529 2.6-1.84 3.424-.668 1.763-.41 1.692-8.139 2.242-5.464.39-7.09.867-8.15 2.397-.841 1.212-.66 2.982.44 4.313l.962 1.164h3.117c1.715 0 4.84-.133 6.947-.295l3.83-.294.605 2.143c.334 1.179 1.12 2.975 1.75 3.992 2.271 3.671 2.938 5.4 3.02 7.83.098 2.842-.4 4.53-2.12 7.205-.74 1.151-1.773 3.118-2.294 4.37-.87 2.092-.945 2.607-.923 6.312.02 3.46.144 4.357.869 6.307.464 1.251.712 2.357.55 2.458-.162.101-1.005.079-1.875-.05-1.242-.184-1.848-.515-2.83-1.547-.686-.723-1.254-1.497-1.26-1.72-.007-.223-.358-.833-.782-1.356-1.645-2.03-4.8-1.315-6.171 1.399-.837 1.656-2.395 2.995-3.784 3.254-.59.11-2.085-.039-3.322-.331-1.995-.47-2.357-.474-3.202-.033-.524.274-1.212 1.05-1.53 1.726-.54 1.15-.543 1.356-.036 3.178.889 3.199-.029 5.619-2.64 6.956-1.577.807-2.47 1.796-2.69 2.975-.275 1.482.632 3.318 1.967 3.982 1.52.756 2.396 1.549 3.189 2.888.775 1.311.878 2.513.336 3.928-.603 1.572-.642 2.82-.121 3.837.687 1.339 2.262 2.103 3.774 1.828 4.655-.849 6.07-.49 7.597 1.93 1.64 2.599 2.428 3.268 3.848 3.268 1.79 0 2.385-.406 3.602-2.461 1.192-2.011 2.749-3.253 4.077-3.253.664 0 .895.168.895.652 0 .359.62 1.834 1.377 3.278.756 1.443 1.831 3.503 2.388 4.577 1.178 2.273 1.503 4.832.913 7.203-.49 1.965-1.268 3.735-2.036 4.627-.77.895-1.7 2.65-2.493 4.707-.516 1.337-.647 2.504-.642 5.714.007 3.673.094 4.245.97 6.387 1.212 2.962 2.101 4.343 3.232 5.017 1.346.803 2.541.659 3.626-.435 1.51-1.526 1.55-2.374.229-4.809-1.578-2.905-1.977-4.77-1.6-7.46.344-2.451.962-3.995 2.574-6.431 1.575-2.38 2.498-5.275 2.7-8.474.234-3.676-.342-6.433-1.987-9.511-3.168-5.928-2.926-5.272-2.363-6.411.323-.652.43-1.417.294-2.098-.916-4.607-.526-6.231 1.831-7.627 2.398-1.42 3.308-2.481 3.308-3.857 0-.67-.238-1.682-.528-2.249-.373-.728-.548-2.13-.598-4.774-.08-4.267-.506-5.775-2.614-9.241-2.29-3.765-2.704-4.969-2.674-7.78.03-2.968.609-4.761 2.458-7.627 4.003-6.202 4.003-13.173-.001-19.878-.737-1.235-1.567-2.795-1.844-3.466l-.502-1.222 1.07-.218c.589-.12 2.644-.295 4.567-.386 1.923-.092 3.963-.241 4.535-.332 1.024-.163 1.041-.142 1.258 1.511.13.991.846 2.885 1.75 4.63 3.705 7.157 3.569 6.795 3.517 9.38-.056 2.787-.791 4.926-2.672 7.767-3.9 5.894-3.822 13.548.205 19.926 1.955 3.096 2.38 4.326 2.386 6.891.008 3.105-.433 4.596-2.135 7.227-2.676 4.136-3.784 8.547-3.187 12.691.482 3.34.829 4.34 2.537 7.311 2.369 4.119 2.46 4.335 2.73 6.438.3 2.334-.07 5.194-.834 6.445a359.92 359.92 0 0 1-1.6 2.581c-3.873 6.196-4.023 13.43-.402 19.422 1.633 2.702 3.872 3.348 5.59 1.614 1.25-1.263 1.317-2.974.173-4.503-2.549-3.407-2.369-9.505.398-13.508 1.117-1.616 2.605-5.144 3.047-7.227.646-3.039-.159-8.691-1.574-11.059-3.162-5.289-3.73-6.764-3.732-9.708-.003-2.254.853-4.706 2.737-7.848 2.169-3.617 2.74-5.573 2.736-9.372-.004-3.829-.643-6.217-2.47-9.231-2.182-3.599-2.692-4.834-2.893-7.003-.266-2.879.539-5.836 2.379-8.739 2.115-3.337 2.905-5.993 2.959-9.94.054-3.951-.55-6.04-2.866-9.928-1.513-2.539-2.852-5.762-2.529-6.087.273-.275 7.794-.886 9.602-.78 1.348.08 1.836.24 1.85.612.077 2.146 1.047 4.632 3.226 8.272 3.044 5.085 2.945 9.286-.332 14.137-.77 1.139-1.795 3.257-2.28 4.706-.788 2.362-.862 2.984-.708 5.996.196 3.852.77 5.653 3.096 9.692 1.909 3.318 2.474 4.905 2.474 6.955 0 2.048-1.124 5.738-2.118 6.953-.95 1.16-2.347 3.853-2.933 5.647-.263.808-.433 2.886-.427 5.21.01 3.38.123 4.152.9 6.138.488 1.251 1.323 2.915 1.855 3.698 3.496 5.154 3.574 9.53.26 14.704-1.697 2.651-2.01 3.325-2.678 5.767-1.343 4.909-.172 10.692 3.16 15.599 2.778 4.092 2.492 9.739-.701 13.858-1.219 1.572-2.7 5.825-2.882 8.272-.448 6.023 2.298 12.919 5.377 13.502 3.03.574 4.93-3.016 2.854-5.397-.956-1.097-1.73-4.042-1.707-6.497.024-2.643.61-4.535 2.146-6.923 2.071-3.22 2.963-5.763 3.144-8.96.275-4.866-.35-7.056-3.65-12.795-1.695-2.947-2.15-5.842-1.394-8.877.303-1.217.905-2.741 1.34-3.387 2.639-3.926 3.77-7.356 3.777-11.444.005-3.497-.723-5.88-3.09-10.116-2.28-4.08-2.75-5.939-2.235-8.862.394-2.242 1.09-3.847 3.094-7.135 3.033-4.979 2.971-12.229-.151-17.702-2.773-4.859-2.942-5.322-2.942-8.062 0-3.175.583-5.227 2.131-7.506.652-.96 1.593-2.727 2.092-3.93.824-1.987.906-2.564.9-6.386-.007-4.863-.364-6.075-3.121-10.615-1.069-1.758-1.745-3.298-1.877-4.27l-.207-1.522 2.622-.276c1.442-.153 3.97-.28 5.618-.285l2.997-.008.222 2.017c.279 2.535 1.327 5.388 2.664 7.251 1.423 1.982 2.258 4.003 2.637 6.378.427 2.675-.225 4.92-2.581 8.893-2.262 3.815-2.879 5.898-2.832 9.566.058 4.552.45 5.908 2.999 10.352 3.604 6.285 3.473 9.136-.734 16.045-1.944 3.191-2.7 7.136-2.176 11.357.3 2.42.526 2.956 4.368 10.37.832 1.603.976 2.259.965 4.376-.015 3.013-.488 4.459-2.47 7.55-2.168 3.384-2.983 6.016-3.01 9.719-.026 3.833.821 6.742 3.065 10.511 2.127 3.571 2.38 4.364 2.37 7.439-.008 2.784-.495 4.227-2.45 7.253-3.946 6.109-4.064 13.573-.31 19.599 1.642 2.635 3.731 3.189 5.457 1.446 1.252-1.263 1.3-2.872.14-4.598-2.476-3.683-2.378-9.299.226-12.991 1.145-1.623 2.667-5.014 3.132-6.977.953-4.02-.063-9.794-2.339-13.295-2-3.078-2.61-4.594-2.773-6.9-.206-2.894.526-5.418 2.576-8.883 1.947-3.29 2.626-5.319 2.865-8.563.24-3.283-.504-6.555-2.184-9.59-2.642-4.774-3.133-5.992-3.273-8.134-.163-2.502.797-6.058 2.116-7.833 1.492-2.009 2.41-4.136 2.986-6.911.979-4.72.105-9.025-2.826-13.922-1.82-3.041-2.304-4.449-2.317-6.733-.016-2.716.726-5.075 2.458-7.807 4.282-6.756 4.094-14.398-.516-20.934-1.061-1.504-1.952-4.144-1.957-5.8-.004-1.029.068-1.095 1.245-1.144a42.326 42.326 0 0 0 2.08-.14c.459-.047 2.423-.183 4.367-.302l3.534-.215.179 2.288a19.144 19.144 0 0 0 3.068 8.981c3.314 5.09 3.351 9.46.121 14.198-.649.952-1.607 2.767-2.129 4.034-.867 2.105-.948 2.65-.937 6.337.015 4.673.469 6.216 3.136 10.649 2.398 3.985 2.899 7.291 1.621 10.697-.381 1.017-1.031 2.303-1.445 2.858-1.178 1.582-2.465 4.385-3.056 6.658-1.087 4.177-.098 10.104 2.27 13.606 2.565 3.794 3.429 7.583 2.475 10.854-.293 1.004-1.271 3.072-2.174 4.596-2.11 3.563-2.715 5.348-2.934 8.659-.307 4.648.104 6.016 4.07 13.545 2.225 4.223 1.869 8.267-1.127 12.807-1.568 2.375-2.295 4.087-2.716 6.386-.73 3.996-.27 7.445 1.514 11.376 1.368 3.015 2.483 4.13 4.115 4.114 1.463-.013 2.467-.805 3.036-2.396.403-1.125.363-1.316-.655-3.112-1.617-2.853-2.058-4.9-1.663-7.711.363-2.584 1.167-4.667 2.464-6.384.472-.624 1.262-2.102 1.755-3.283.816-1.957.896-2.533.899-6.517.004-4.135-.049-4.487-.985-6.555-.544-1.202-1.663-3.316-2.487-4.699l-1.497-2.514v-3.537c0-3.822.257-4.653 2.515-8.148 1.621-2.508 2.383-5.095 2.567-8.717.139-2.715.045-3.644-.578-5.714-.729-2.423-1.746-4.495-3.195-6.506-1.095-1.519-1.551-3.331-1.511-5.993.045-3.006.394-4.092 2.396-7.454 2.394-4.02 3.091-6.564 2.888-10.547-.201-3.923-1.058-6.647-3.066-9.74-1.744-2.688-2.178-4.149-2.18-7.35-.002-2.562.831-5.362 1.978-6.651.915-1.027 2.621-4.892 3.049-6.907.553-2.601.208-7.444-.705-9.901-.411-1.11-1.259-2.743-1.882-3.63-1.501-2.138-2.374-4.452-2.444-6.48-.097-2.804-.083-2.846.918-2.806.942.037 5.832-.253 9.074-.539 1.007-.089 4.154-.313 6.993-.498a1260.5 1260.5 0 0 0 9.657-.674c4.381-.327 9.497-.697 18.648-1.348 2.472-.175 5.17-.246 5.994-.157.824.089 3.072.237 4.995.33 3.872.185 5.663.293 16.816 1.009 11.247.722 14.575.916 15.315.893 1.167-.037 3.079-1.102 3.448-1.92.607-1.344.828-4.02.398-4.829-.302-.57-.301-.851.002-1.22.639-.777.084-4.114-.839-5.046-.9-.908-3.189-1.605-4.449-1.356-1.097.217-3.254.423-9.046.866-4.932.377-10.083.788-17.982 1.434-7.549.618-22.25.502-29.138-.231-.732-.078-3.804-.236-6.826-.352-3.022-.116-6.768-.295-8.325-.4-3.757-.252-5.037-.314-7.909-.385l-2.414-.058v-1.636c0-3.56-1.564-8.289-3.403-10.292-3.149-3.427-7.411.445-4.787 4.349 1.038 1.545 1.863 4.187 1.863 5.97v1.296l-1.582-.18c-1.678-.191-6.405-.468-8.491-.498-1.097-.016-1.25-.118-1.25-.836 0-1.622-1.025-5.694-1.859-7.379-1.568-3.17-3.481-4.603-5.245-3.926-2.243.861-2.838 3.123-1.4 5.323 1.046 1.6 1.845 3.889 1.845 5.287v1.092l-4.579-.158c-6.716-.231-6.417-.09-7.11-3.345-1.273-5.971-3.999-9.21-6.768-8.041-1.23.518-1.448.778-1.859 2.225-.229.807-.091 1.358.73 2.909.947 1.793 2.112 5.093 1.876 5.317-.154.147-11.255-.377-11.364-.536-.05-.074-.442-1.27-.87-2.656-.43-1.387-1.505-3.663-2.39-5.059-1.883-2.967-2.473-5.218-2.165-8.257.246-2.423.538-3.19 2.352-6.18 2.15-3.544 2.907-6.05 2.941-9.75C58.35 5.91 54.75-.376 51.354.928c-2.185.838-2.764 3.125-1.342 5.3 1.294 1.979 1.9 4.083 1.907 6.632.008 2.675-.521 4.162-2.684 7.54-2.032 3.173-2.802 5.892-2.758 9.744.05 4.342.612 6.173 3.215 10.482.868 1.438 1.434 2.554 1.647 3.248l.232.76-4.27-.177c-6.536-.271-7.06-.375-7.295-1.447-.287-1.305-1.697-4.323-2.766-5.918-2.988-4.46-2.842-9.846.397-14.598 1.808-2.654 2.619-5.15 2.814-8.668.193-3.48-.2-5.658-1.572-8.698-1.601-3.549-2.78-4.539-5.08-4.266Zm-.322 1.829c-.892.714-.858 1.361.164 3.107 1.468 2.508 1.9 4.03 1.895 6.684-.004 3.005-.665 5.234-2.254 7.602-1.604 2.393-2.21 3.72-2.897 6.34-1.103 4.21.036 9.589 2.952 13.943.845 1.263 1.537 2.566 1.537 2.898 0 .5.31.608 1.831.644 1.35.031 1.832-.079 1.832-.418 0-1.004-1.077-3.447-2.45-5.554-1.91-2.934-2.275-4.187-2.29-7.87-.014-3.53.436-4.973 2.517-8.071 1.559-2.32 2.889-6.6 2.889-9.294 0-4.443-2.677-10.431-4.662-10.431-.296 0-.775.189-1.064.42Zm17.799-.144c-.75.48-.573 1.958.472 3.967 2.666 5.121 2.193 9.563-1.612 15.164-1.744 2.567-2.355 5.148-2.169 9.166.141 3.052.308 3.849 1.228 5.883.586 1.294 1.276 2.594 1.535 2.89.762.868 2.458 4.403 2.264 4.72-.097.16.019.298.258.307.24.01 1.096.102 1.902.206l1.465.188-.206-1.523c-.2-1.471-1.097-3.352-2.94-6.161-1.383-2.109-2.057-5.034-1.865-8.093.174-2.769.5-3.633 3.397-8.998 1.57-2.908 1.956-4.652 1.86-8.412-.07-2.8-.733-5.022-2.281-7.647-.93-1.578-1.301-1.932-2.017-1.928-.482.003-1.063.124-1.291.27ZM87.405 36.3c-.75.258-.916.514-.916 1.42 0 .609.375 1.784.834 2.613.914 1.65 1.82 4.388 1.826 5.514.004.79 1.05 1.158 2.501.878.748-.144.833-.322.833-1.742 0-1.966-.766-4.283-2.242-6.785-1.277-2.164-1.544-2.343-2.836-1.898Zm-18.375.45c-.757.764-.65 1.578.453 3.467.537.92 1.168 2.504 1.402 3.52.384 1.668.525 1.867 1.438 2.032 1.996.362 2.355.118 2.242-1.517-.132-1.917-.918-4.068-2.286-6.265-1.181-1.896-2.208-2.287-3.249-1.237Zm35.522-.14c-.66.667-.489 1.705.618 3.769 1.137 2.119 2.09 5.673 1.783 6.648-.176.559.004.625 1.706.625h1.902l-.196-2.438c-.23-2.84-.626-4.05-2.233-6.807-.972-1.669-1.347-2.034-2.17-2.116-.547-.055-1.182.089-1.41.32Zm-89.447 8.377c-1.057.84-1.16 2.232-.237 3.232.719.778 1.645.897 11.348 1.457 3.205.185 6.951.41 8.325.502 1.373.091 6.169.391 10.656.666 4.487.275 9.357.577 10.822.67 1.465.093 4.088.251 5.828.352 1.74.1 5.261.327 7.825.506 2.564.178 7.434.475 10.823.66 3.388.185 8.258.489 10.822.674 2.564.185 6.76.414 9.324.508 2.564.094 4.887.233 5.162.308.275.076 2.223.227 4.329.337 2.106.109 6.077.35 8.824.533 4.654.312 23.515 1.462 30.303 1.849 1.649.093 5.17.316 7.826.494 6.778.454 15.222.975 19.147 1.182 1.832.096 4.08.245 4.995.331 3.268.306 10.03.673 12.396.673 1.996 0 2.524-.12 3.101-.702 1.452-1.467 1.087-4.467-.624-5.131-.487-.19-2.61-.43-4.716-.535-2.106-.105-7.911-.415-12.9-.69-4.988-.274-12.256-.648-16.15-.83-3.895-.182-8.13-.413-9.412-.513-1.282-.1-3.754-.25-5.494-.334-7.016-.34-17.13-.869-22.478-1.175-3.113-.178-8.957-.484-12.987-.68-4.029-.195-8.3-.423-9.49-.505-1.191-.083-5.461-.305-9.49-.494-4.03-.19-9.35-.485-11.822-.657-2.473-.173-5.17-.322-5.994-.332-.824-.01-4.27-.172-7.66-.36-3.388-.186-7.658-.419-9.49-.515a371.003 371.003 0 0 1-5.494-.33c-1.19-.085-4.562-.25-7.493-.367-2.93-.117-5.598-.264-5.929-.327-.33-.063-2.877-.204-5.66-.313-2.784-.11-7.234-.34-9.89-.513-6.943-.452-7.44-.43-8.446.369Zm175.28 3.888c-1.441.095-5.081.39-13.986 1.137-2.29.192-5.024.383-6.077.423-1.053.04-1.914.167-1.915.28 0 .185 4.371.469 12.644.82 6.43.272 14.844.91 15.538 1.176.918.352 1.088-.044.772-1.79-.397-2.191-1.19-2.424-6.976-2.046ZM34.874 52.163c0 .237-.436 1.039-.968 1.78-1.547 2.156-2.96 5.13-3.587 7.55-.504 1.946-.531 2.644-.202 5.274.404 3.239 1.117 5.201 2.877 7.925 2.676 4.141 3.287 8.115 1.855 12.07-.412 1.139-.89 2.254-1.06 2.48-.913 1.202-2.649 4.41-3.122 5.768-.624 1.791-.85 6.647-.392 8.416.634 2.448 1.692 4.68 2.137 4.507.802-.311 2.776.602 3.489 1.613.564.8.662 1.281.49 2.413-.648 4.263-.62 4.924.278 6.292.473.721 1.158 1.473 1.522 1.669.57.308.693.234.883-.528.636-2.559-1.088-9.452-2.851-11.398-.335-.37-1.024-1.505-1.531-2.522-1.747-3.503-1.194-9.73 1.142-12.891 1.35-1.824 2.3-3.945 2.885-6.438.699-2.975.597-5.364-.36-8.406-.758-2.412-1.224-3.33-3.152-6.217-.987-1.478-1.425-3.414-1.44-6.367-.017-3.22.423-4.907 1.821-6.972.523-.773.95-1.497.95-1.608 0-.112.263-.608.583-1.101.518-.799 1.398-2.963 1.41-3.474.004-.105-.818-.209-1.826-.23-1.287-.025-1.831.091-1.831.395Zm4.991.412c-.004.863-1.45 3.92-2.532 5.351-.507.67-.766 1.301-.596 1.45.4.349 10.595-.555 10.728-.951.058-.17.836-1.526 1.73-3.012s1.522-2.759 1.394-2.829c-.127-.07-1.13-.14-2.229-.157-1.099-.016-3.459-.13-5.244-.253-3.021-.208-3.248-.18-3.25.4Zm11.405 2.1c-3.447 4.935-4.35 10.3-2.605 15.49.465 1.382 1.12 2.895 1.456 3.362 2.646 3.678 3.758 7.765 3.087 11.34-.39 2.07-1.066 3.798-1.764 4.502-.687.694-2.414 4.147-3.057 6.114-.29.89-.52 2.694-.514 4.034.02 4.354.863 6.924 3.672 11.208 1.237 1.887 2.103 5.47 1.89 7.83-.16 1.785-1.451 5.17-2.446 6.415-.72.901-2.06 3.652-2.648 5.437-.46 1.396-.536 2.451-.384 5.296.2 3.727.733 5.474 2.452 8.031 2.803 4.17 3.715 8.727 2.467 12.315-.383 1.101-1.264 2.916-1.956 4.034-2.473 3.99-2.827 5.037-2.995 8.839-.17 3.882.088 5.165 1.675 8.321 1.388 2.758 1.929 3.289 3.06 3.003 1.598-.405 1.703-1.559.373-4.125-.64-1.232-1.247-2.845-1.351-3.584-.105-.74-.254-1.537-.333-1.771-.078-.235.089-1.653.37-3.152.484-2.576.805-3.299 3.38-7.613 1.65-2.768 2.314-8.131 1.423-11.501-.451-1.705-2.383-5.747-3.322-6.953-1.201-1.541-1.79-4.256-1.577-7.259.237-3.328.846-5.191 2.486-7.609 1.524-2.247 1.995-3.486 2.63-6.92.396-2.142.42-3.08.123-4.612-.451-2.325-2.131-6.542-2.981-7.481-2.886-3.187-3.171-10.592-.561-14.532 2.839-4.287 4.008-8.264 3.53-12.011-.441-3.461-1.11-5.38-2.745-7.883-1.732-2.652-2.13-3.643-2.448-6.09-.492-3.784.001-6.136 1.94-9.245 1.402-2.247 1.919-3.343 2.02-4.285.058-.527-.19-.652-1.475-.74-1.535-.104-1.551-.095-2.872 1.796Zm5.207.896-1.206 2.503h1.336c.735 0 3.019-.178 5.075-.394l3.74-.394.866-1.707.867-1.708-.74-.198c-.406-.109-2.537-.29-4.735-.401l-3.996-.203-1.206 2.502Zm11.565-.088c-1.422 2.09-2.1 4.248-2.38 7.575-.323 3.856.219 5.532 4.296 13.293 1.093 2.081 1.213 2.566 1.213 4.906 0 3.102-.81 5.754-2.45 8.022-4.093 5.665-4.106 13.064-.033 19.413 1.769 2.758 2.49 4.958 2.463 7.515-.036 3.449-.45 4.858-2.268 7.718-.957 1.506-2.123 3.908-2.591 5.338-.728 2.224-.824 2.986-.665 5.287.24 3.456.929 5.723 2.42 7.958 2.524 3.783 3.297 6.354 3.05 10.146-.12 1.863-.394 2.853-1.22 4.407-.585 1.103-1.265 2.238-1.511 2.522-.246.283-.943 1.65-1.548 3.037-1.04 2.383-1.098 2.726-1.065 6.247.03 3.195.156 4.018.89 5.776.47 1.128 1.246 2.628 1.726 3.333 1.934 2.849 3.362 7.533 2.917 9.574-.525 2.405-1.334 4.641-2.11 5.829-2.913 4.458-3.67 6.825-3.493 10.906.142 3.243.668 5.106 2.133 7.552 1.455 2.429 2 2.823 3.162 2.289 1.171-.539 1.109-1.509-.287-4.448-.63-1.328-1.25-3.252-1.376-4.276-.313-2.531.597-6.456 2.051-8.844 1.816-2.983 2.69-4.786 2.93-6.037.512-2.688.6-5.734.215-7.448-.397-1.766-2.168-5.624-3.404-7.414-.346-.501-.933-1.787-1.305-2.857-1.246-3.582-.316-8.738 2.2-12.196 1.916-2.637 2.668-5.334 2.624-9.416-.034-3.137-.152-3.8-1.06-5.961-.561-1.337-1.388-2.926-1.836-3.529-1.586-2.135-2.275-3.957-2.406-6.364-.156-2.859.635-6.618 1.705-8.104 2.28-3.165 3.445-6.264 3.698-9.836.249-3.509-.859-7.447-2.933-10.424-1.835-2.633-2.355-4.391-2.385-8.06-.026-3.285.585-5.179 2.68-8.304 1.386-2.067 2.745-6.044 2.745-8.034 0-4.402-.806-7.008-3.383-10.938-.487-.742-1.217-2.471-1.622-3.842-.883-2.99-.76-6.194.32-8.332.38-.75.689-1.576.689-1.838s.235-.673.521-.914c.547-.458 1.603-2.322 1.418-2.501-.06-.058-.88-.189-1.826-.29l-1.718-.185-1.19 1.75Zm6.139-.378c-.372.616-.677 1.236-.678 1.38-.001.268 4.573.07 7.491-.325.916-.124 1.918-.19 2.227-.146.31.042.726-.233.927-.612.333-.628.268-.694-.728-.74-2.94-.134-3.605-.181-5.994-.42l-2.569-.258-.676 1.12Zm11.02 1.53c-.583 1.026-1.202 2.487-1.376 3.248-.437 1.91-.413 7.37.038 8.512a38.018 38.018 0 0 0 2.975 5.982c1.854 3.028 2.444 5.178 2.188 7.966-.235 2.552-1.414 5.854-2.517 7.05-2.567 2.78-3.866 9.905-2.534 13.894.774 2.318 1.663 4.234 2.638 5.684 1.596 2.375 2.211 4.071 2.338 6.448.164 3.086-.51 5.921-1.902 8.011-4.834 7.254-4.853 14.19-.059 20.869 2.479 3.453 2.686 9.212.475 13.188-.594 1.067-1.265 2.166-1.492 2.444-.226.277-.892 1.638-1.479 3.025-1.038 2.453-1.063 2.627-.917 6.387.16 4.145.633 5.705 2.606 8.608 1.511 2.224 2.562 4.964 2.814 7.342.29 2.74-.66 6.104-2.52 8.926-2.298 3.486-2.752 4.828-2.92 8.635-.118 2.688-.023 3.895.42 5.317.65 2.086 2.28 5.269 3.012 5.882.698.585 2.119.131 2.545-.814.301-.666.17-1.166-.818-3.1-.648-1.268-1.292-2.986-1.432-3.818-.542-3.22.147-6.847 1.819-9.581 1.725-2.819 2.428-4.239 2.9-5.851.532-1.821.694-5.629.328-7.763-.262-1.535-2.495-6.436-3.39-7.442-1.11-1.247-1.82-4.007-1.755-6.808.077-3.269.781-5.518 2.56-8.172 1.997-2.984 3.296-7.814 2.895-10.765-.293-2.154-1.774-6.486-2.503-7.321-.322-.37-1.142-1.731-1.822-3.025l-1.236-2.353.17-3.53c.181-3.796.531-4.868 2.737-8.372 1.52-2.416 2.572-5.711 2.626-8.232.077-3.583-1.387-8.185-3.432-10.793-1.465-1.867-2.209-5.25-1.95-8.868.158-2.22 1.267-5.069 2.568-6.596.92-1.079 2.392-4.882 2.684-6.93.353-2.472-.112-6.451-.986-8.433-.382-.869-1.22-2.381-1.86-3.361-2.508-3.84-3.125-7.52-1.963-11.698.335-1.202 1.027-2.855 1.54-3.674.511-.819.895-1.516.85-1.55-.043-.034-.916-.145-1.94-.247l-1.862-.185-1.06 1.864Zm17.392.898c-.46.944-.97 2.625-1.134 3.734-.357 2.412.121 7.384.844 8.783.274.531.499 1.072.501 1.201.001.13.488.962 1.083 1.849 1.595 2.381 2.536 4.61 2.895 6.863.415 2.601-.481 6.36-2.105 8.832-2.754 4.189-3.533 6.727-3.345 10.894.155 3.441.578 4.725 2.942 8.939 1.986 3.539 2.858 6.161 2.658 7.989-.384 3.496-1.148 5.527-3.326 8.84-2.074 3.155-2.961 8.421-2.02 11.998.541 2.057 2.371 6.11 3.085 6.83.244.246.823 1.314 1.287 2.374 1.626 3.711.931 9.032-1.646 12.598-3.927 5.435-4.016 13.567-.208 18.994 2.263 3.225 2.531 4.081 2.531 8.068 0 3.253-.098 3.891-.809 5.296-.444.879-1.048 1.862-1.342 2.185-.952 1.047-2.241 3.895-2.813 6.215-.953 3.86-.254 8.519 1.835 12.235 1.172 2.085 2.479 2.534 3.665 1.259l.709-.761-1.258-2.27c-1.045-1.889-1.299-2.733-1.506-5.02-.303-3.359.233-6.312 1.496-8.238 2.582-3.938 3.857-7.496 3.847-10.732-.011-3.446-1.685-8.267-3.679-10.59-1.092-1.272-1.73-3.88-1.725-7.059.005-3.448.476-4.967 2.471-7.965.701-1.053 1.274-2.037 1.275-2.186.001-.148.372-1.178.825-2.287 1.775-4.351.681-10.591-2.679-15.274-1.272-1.773-1.98-4.527-1.951-7.585.023-2.4.154-2.943 1.223-5.043.658-1.294 1.843-3.639 2.632-5.21l1.435-2.857-.023-3.866c-.025-4.239-.476-5.885-2.402-8.766-2.693-4.028-3.582-8.26-2.54-12.092.325-1.193.843-2.548 1.151-3.01 2.726-4.083 3.996-7.702 3.988-11.362-.007-2.937-.741-5.195-3.037-9.33-2.394-4.312-2.859-6.278-2.306-9.742.226-1.415.786-3.326 1.245-4.247.458-.921.782-1.72.72-1.775-.063-.054-.91-.173-1.884-.263l-1.77-.164-.835 1.718Zm-5.874-1.227c-1.242.065-2.177.252-2.076.415.1.164.04.386-.134.494-.173.108-.41.043-.524-.145-.115-.188-.873-.341-1.683-.341-1.442 0-1.492.037-2.362 1.765-.49.97-1 2.256-1.136 2.857-.22.971-.168 1.092.467 1.088.763-.006 1.622-.436 1.575-.79-.084-.631.04-.656.463-.092.432.576.796.607 4.482.384l4.012-.244.356-1.391c.195-.766.431-1.656.524-1.978.122-.427.027-.532-.353-.385-.287.112-.521.035-.521-.17 0-.204.283-.372.63-.372.522 0 1.035-.596 1.035-1.204 0-.077-.562-.11-1.249-.075l-2.911.153c-.204.01-.404.02-.595.031Zm12.637.619c.173.456.098.544-.327.379-.634-.246-1.388.872-1.1 1.631.1.263-.11.63-.474.826-1.068.578-.809 1.338.457 1.338.61 0 1.191-.082 1.29-.182.099-.1 1.98-.242 4.181-.315 2.201-.074 4.804-.222 5.786-.33 2.466-.269 5.241-.482 6.531-.502.798-.011 1.084-.17 1.092-.604.01-.531.05-.536.417-.054.35.462.908.498 4.068.27 8.535-.614 9.205-.7 8.778-1.132-.088-.088-1.574-.227-3.303-.309-4.564-.215-9.36-.558-10.196-.729-.399-.081-.961.09-1.249.381-.452.457-.587.464-.996.05-.647-.652-4.471-1.04-5.096-.516-.331.277-.544.29-.7.04-.128-.204-2.188-.46-4.805-.597-4.294-.224-4.566-.202-4.354.355Zm-28.195.721c-.275.106-.612.359-.75.562-.175.26-.335.235-.538-.082-.228-.357-1.049-.401-3.941-.212l-3.653.239-.527 1.053c-.29.579-.621 1.859-.736 2.845-.204 1.753-.192 1.787.555 1.548.42-.135 1.537-.22 2.482-.189 1.252.042 1.876-.103 2.305-.536.42-.424.626-.474.725-.175.09.274.866.417 2.262.417 1.83 0 2.178-.1 2.506-.718.21-.396.3-1.228.2-1.85-.1-.621-.066-1.13.076-1.13.227 0 1.032-1.455 1.032-1.864 0-.208-1.383-.144-1.998.092Zm33.633.091c0 .185.15.337.333.337a.336.336 0 0 0 0-.673.336.336 0 0 0-.333.336Zm-18.648.673c0 .185.15.336.333.336a.336.336 0 0 0 0-.672.336.336 0 0 0-.333.336Zm14.818 0c-.113.185.028.336.314.336.285 0 .519-.151.519-.336 0-.185-.141-.336-.314-.336-.172 0-.405.15-.519.336Zm9.675-.029a.377.377 0 0 0 .121.515.37.37 0 0 0 .51-.122.377.377 0 0 0-.121-.515.37.37 0 0 0-.51.122Zm9.806.009c0 .174.15.41.333.524.183.114.333-.028.333-.316s-.15-.524-.333-.524a.326.326 0 0 0-.333.316Zm-54.418.31c-.144.235-.17.517-.061.628.298.301.623-.141.462-.629-.113-.341-.191-.341-.401.002Zm65.157-.059c.321.085.845.085 1.166 0 .32-.084.058-.153-.583-.153s-.904.069-.583.153Zm-48.85.412a.377.377 0 0 0 .12.515.37.37 0 0 0 .51-.121.377.377 0 0 0-.12-.515.37.37 0 0 0-.51.121Zm24.642 0a.377.377 0 0 0 .121.515.37.37 0 0 0 .51-.121.377.377 0 0 0-.121-.515.37.37 0 0 0-.51.121Zm-57.898.247c-.043.044-1.199.141-2.568.217l-2.489.139-.417 1.253c-.229.69-.51 1.847-.625 2.571l-.208 1.317 1.29-.002c.711-.001 2.516-.098 4.01-.216 2.097-.165 2.68-.318 2.546-.67-.095-.252-.008-.457.195-.457s.369.243.369.54c0 .355.181.47.527.337.29-.113.946-.205 1.458-.205.905 0 .936-.06 1.082-2.097.195-2.724-.075-2.993-2.902-2.887-1.205.044-2.225.117-2.268.16Zm13.092.454c0 .185.15.337.333.337a.336.336 0 0 0 0-.673.336.336 0 0 0-.333.336Zm26.307.149c0 .288.15.524.333.524a.326.326 0 0 0 .333-.317c0-.174-.15-.41-.333-.524-.183-.114-.333.029-.333.317Zm14.652 0c0 .288.15.524.333.524a.326.326 0 0 0 .333-.317c0-.174-.15-.41-.333-.524-.183-.114-.333.029-.333.317Zm-53.11.193c.115.188.348.255.519.148.462-.288.376-.49-.21-.49-.285 0-.424.154-.31.342Zm18.145.33c0 .185.15.337.333.337a.336.336 0 0 0 0-.672.336.336 0 0 0-.333.336Zm-35.087.236c-.128.129-1.285.198-2.57.154-1.914-.067-2.32.009-2.238.415.056.273-.048.468-.232.434-.183-.034-.295-.175-.25-.314.047-.139-.422-.252-1.04-.252-.992 0-1.148.123-1.332 1.05-.115.578-.208 1.713-.208 2.522v1.47h1.342c.886 0 1.408-.171 1.534-.504.106-.277.41-.504.676-.504.278 0 .383.163.247.386-.175.286.737.327 3.538.161 2.076-.122 3.834-.283 3.907-.356.072-.073-.046-.468-.263-.877-.242-.458-.272-.825-.076-.954.174-.115.4-.852.502-1.638l.185-1.428h-1.745c-.96 0-1.849.105-1.977.235Zm13.109.1c0 .186.15.337.333.337a.336.336 0 0 0 0-.672.336.336 0 0 0-.333.336Zm38.295 0c0 .186.15.337.333.337a.336.336 0 0 0 0-.672.336.336 0 0 0-.333.336Zm-20.129.308a.377.377 0 0 0 .12.515.37.37 0 0 0 .51-.121.377.377 0 0 0-.12-.515.37.37 0 0 0-.51.121Zm-12.172.701c0 .185.15.336.333.336a.335.335 0 0 0 0-.672.336.336 0 0 0-.333.336Zm-36.796.462c-.458.338-.79.386-1.07.152-.578-.485-7.966.236-8.926.871-1.437.951-1.335 3.08.188 3.902.772.418 4.907.134 5.519-.379.266-.222.47-.219.611.011.17.278 6.448.197 6.728-.087.034-.034.1-1.12.147-2.413l.086-2.35-1.309-.1c-.768-.058-1.584.105-1.974.393Zm54.944-.126c.114.185.347.337.52.337.172 0 .313-.152.313-.337 0-.184-.234-.336-.52-.336-.285 0-.426.152-.313.336Zm-36.463.337c0 .184.15.336.333.336a.336.336 0 0 0 0-.673.336.336 0 0 0-.333.337Zm14.652 0c0 .184.15.336.333.336a.336.336 0 0 0 0-.673.336.336 0 0 0-.333.337Zm-37.962.652c0 .174.15.41.333.524.183.114.333-.028.333-.316s-.15-.524-.333-.524a.326.326 0 0 0-.333.316Zm19.314.02c0 .185.225.336.5.336.274 0 .499-.151.499-.336 0-.185-.225-.336-.5-.336-.274 0-.5.151-.5.336Zm14.652 0c0 .185.15.336.333.336a.336.336 0 0 0 0-.672.336.336 0 0 0-.333.336Zm-37.63.672c0 .185.15.336.334.336a.336.336 0 0 0 0-.672.336.336 0 0 0-.333.336Zm9.658 0c0 .185.15.336.333.336a.336.336 0 0 0 0-.672.336.336 0 0 0-.333.336Zm9.657 0c0 .185.15.336.333.336a.336.336 0 0 0 0-.672.336.336 0 0 0-.333.336Zm5.845.644a.377.377 0 0 0 .12.515.37.37 0 0 0 .51-.122.377.377 0 0 0-.12-.515.37.37 0 0 0-.51.122Zm-19.498.365c0 .185.14.336.313.336s.406-.151.52-.336c.113-.185-.029-.336-.314-.336s-.52.15-.52.336Zm-3.663.672c0 .185.14.336.313.336s.406-.151.52-.336c.113-.185-.029-.336-.314-.336s-.52.151-.52.336Zm-3.83.672c-.113.185.028.337.314.337.285 0 .519-.152.519-.337 0-.184-.141-.336-.314-.336-.172 0-.405.151-.519.336Zm9.824 0c0 .185.15.337.333.337a.335.335 0 0 0 0-.673.336.336 0 0 0-.333.336Zm-8.904 50.414c-3.266 1.497-5.01 4.689-4.782 8.751.188 3.327 1.804 5.653 5.306 7.635 2.547 1.443 5.111 1.729 8.007.896 2.585-.745 4.68-2.037 4.697-2.9.01-.52-1.002-.22-2.567.762-3.224 2.024-8.033 1.708-11.061-.726-2.339-1.88-3.502-4.356-3.26-6.94.392-4.206 2.923-6.796 6.64-6.794 3.345.001 5.595 2.017 5.586 5.007-.006 1.84-.495 2.914-1.76 3.862-1.054.79-3.24.896-4.074.197-.408-.342-.6-.346-.918-.02-.316.324-.224.561.426 1.096.67.552 1.183.658 2.675.549 2.083-.153 3.55-1.182 4.468-3.132 1.401-2.981-.357-6.974-3.715-8.438-1.502-.654-4.003-.568-5.668.195Zm15.197 24.543c.366.97.876 2.011 1.135 2.314.26.303 1.054 1.61 1.766 2.904 1.275 2.316 1.295 2.409 1.295 5.883 0 3.676-.32 5.008-1.653 6.891-2.36 3.332-3.82 7.358-3.81 10.5.01 2.441 1.051 6.424 2.21 8.451 1.072 1.873 1.295 2.048 2.617 2.054.776.004 1.122-.2 1.407-.832.328-.728.226-1.092-.778-2.774-1.175-1.966-1.354-2.587-1.637-5.699-.255-2.789.989-7.618 2.148-8.341.574-.358 2.052-3.567 2.706-5.877.341-1.202.62-3.086.62-4.187 0-2.819-1.338-6.937-3.156-9.714-.828-1.265-1.506-2.437-1.506-2.605 0-.168-.431-.305-.957-.305a12.37 12.37 0 0 1-2.014-.213l-1.056-.214.663 1.764Z" fill="#FA1B7A"/><path d="M15.105 44.988c-1.057.84-1.16 2.232-.237 3.232.719.778 1.645.897 11.348 1.457 3.205.185 6.951.41 8.325.502 1.373.091 6.169.391 10.656.666 4.487.275 9.357.577 10.822.67 1.465.093 4.088.251 5.828.352 1.74.1 5.261.327 7.825.506 2.564.178 7.434.475 10.823.66 3.388.185 8.258.489 10.822.674 2.564.185 6.76.414 9.324.508 2.564.094 4.887.233 5.162.308.275.076 2.223.227 4.329.337 2.106.109 6.077.35 8.824.533 4.654.312 23.515 1.462 30.303 1.849 1.649.093 5.17.316 7.826.494 6.778.454 15.222.975 19.147 1.182 1.832.096 4.08.245 4.995.331 3.268.306 10.03.673 12.396.673 1.996 0 2.524-.12 3.101-.702 1.452-1.467 1.087-4.467-.624-5.131-.487-.19-2.61-.43-4.716-.535-2.106-.105-7.911-.415-12.9-.69-4.988-.274-12.256-.648-16.15-.83-3.895-.182-8.13-.413-9.412-.513-1.282-.1-3.754-.25-5.494-.334-7.016-.34-17.13-.869-22.478-1.175-3.113-.178-8.957-.484-12.987-.68-4.029-.195-8.3-.423-9.49-.505-1.191-.083-5.461-.305-9.49-.494-4.03-.19-9.35-.485-11.822-.657-2.473-.173-5.17-.322-5.994-.332-.824-.01-4.27-.172-7.66-.36-3.388-.186-7.658-.419-9.49-.515a371.003 371.003 0 0 1-5.494-.33c-1.19-.085-4.562-.25-7.493-.367-2.93-.117-5.598-.264-5.929-.327-.33-.063-2.877-.204-5.66-.313-2.784-.11-7.234-.34-9.89-.513-6.943-.452-7.44-.43-8.446.369ZM190.385 48.876c-1.441.095-5.081.39-13.986 1.137-2.29.192-5.024.383-6.077.423-1.053.04-1.914.167-1.915.28 0 .185 4.371.469 12.644.82 6.43.272 14.844.91 15.538 1.176.918.352 1.088-.044.772-1.79-.397-2.191-1.19-2.424-6.976-2.046Z" fill="#FA1B7A"/><path fill-rule="evenodd" clip-rule="evenodd" d="M109.356 56.925c.173.456.098.544-.327.379-.634-.246-1.388.872-1.1 1.631.1.263-.11.63-.474.826-1.068.578-.809 1.338.457 1.338.61 0 1.191-.082 1.29-.182.099-.1 1.98-.242 4.181-.315 2.201-.074 4.804-.222 5.786-.33 2.466-.269 5.241-.482 6.531-.502.798-.011 1.084-.17 1.092-.604.01-.531.05-.536.417-.054.35.462.908.498 4.068.27 8.535-.614 9.205-.7 8.778-1.132-.088-.088-1.574-.227-3.303-.309-4.564-.215-9.36-.558-10.196-.729-.399-.081-.961.09-1.249.381-.452.457-.587.464-.996.05-.647-.652-4.471-1.04-5.096-.516-.331.277-.544.29-.7.04-.128-.204-2.188-.46-4.805-.597-4.294-.224-4.566-.202-4.354.355Zm5.771 1.149a.336.336 0 0 1 0-.673.336.336 0 0 1 0 .672Zm-3.849.672c-.286 0-.427-.151-.314-.336.114-.185.347-.336.519-.336.173 0 .314.15.314.336 0 .185-.234.336-.519.336Zm9.482.15a.377.377 0 0 1-.121-.515.37.37 0 0 1 .51-.122c.174.109.228.34.121.515a.37.37 0 0 1-.51.122Zm10.018.018c-.183-.114-.333-.35-.333-.524 0-.174.15-.316.333-.316.183 0 .333.236.333.524 0 .288-.15.43-.333.316Zm-13.681.654a.377.377 0 0 1-.121-.515.37.37 0 0 1 .51-.121c.174.108.228.34.121.515a.37.37 0 0 1-.51.121Zm-3.635.859c-.183 0-.333-.236-.333-.524 0-.288.15-.431.333-.317.183.114.333.35.333.524 0 .174-.15.317-.333.317ZM96.719 56.306c-1.242.065-2.177.252-2.076.415.1.164.04.386-.134.494-.173.108-.41.043-.524-.145-.115-.188-.873-.341-1.683-.341-1.442 0-1.492.037-2.362 1.765-.49.97-1 2.256-1.136 2.857-.22.971-.168 1.092.467 1.088.763-.006 1.622-.436 1.575-.79-.084-.631.04-.656.463-.092.432.576.796.607 4.482.384l4.012-.244.356-1.391c.195-.766.431-1.656.524-1.978.122-.427.027-.532-.353-.385-.287.112-.521.035-.521-.17 0-.204.283-.372.63-.372.522 0 1.035-.596 1.035-1.204 0-.077-.562-.11-1.249-.075l-2.911.153-.595.031Zm-.24 2.44a.336.336 0 0 1 0-.672.336.336 0 0 1 0 .672Zm-4.025.822a.377.377 0 0 1-.12-.515.37.37 0 0 1 .51-.121c.174.108.228.34.12.515a.37.37 0 0 1-.51.121Zm6.356.859c-.183 0-.333-.236-.333-.524 0-.288.15-.431.333-.317.183.114.333.35.333.524 0 .174-.15.317-.333.317Zm-3.996.672a.336.336 0 0 1 0-.672.336.336 0 0 1 0 .672ZM81.16 57.646c-.274.106-.611.359-.748.562-.176.26-.336.235-.539-.082-.228-.357-1.049-.401-3.941-.212l-3.653.239-.527 1.053c-.29.579-.621 1.859-.736 2.845-.204 1.753-.192 1.787.555 1.548.42-.135 1.537-.22 2.482-.189 1.252.042 1.876-.103 2.305-.536.42-.424.626-.474.725-.175.09.274.866.417 2.262.417 1.83 0 2.178-.1 2.506-.718.21-.396.3-1.228.2-1.85-.1-.621-.066-1.13.076-1.13.227 0 1.032-1.455 1.032-1.864 0-.208-1.383-.144-1.998.092Zm-5.194 1.682c-.11-.11-.083-.393.06-.627.21-.343.29-.343.402-.002.161.488-.164.93-.462.63Zm-3.463.762a.336.336 0 0 1 0-.672.336.336 0 0 1 0 .672Zm5.994.673a.336.336 0 0 1 0-.672.335.335 0 0 1 0 .672Zm-4.025.822a.377.377 0 0 1-.12-.515.37.37 0 0 1 .51-.121c.174.108.228.34.12.515a.37.37 0 0 1-.51.121Zm6.375.859c-.172 0-.405-.152-.519-.337-.113-.184.028-.336.314-.336.285 0 .519.152.519.336 0 .185-.141.337-.314.337ZM59.078 59.3c-.043.044-1.199.141-2.568.217l-2.489.139-.417 1.253c-.229.69-.51 1.847-.625 2.571l-.208 1.317 1.29-.002c.711-.001 2.516-.098 4.01-.216 2.097-.165 2.68-.318 2.546-.67-.095-.252-.008-.457.195-.457s.369.243.369.54c0 .355.181.47.527.337.29-.113.946-.205 1.458-.205.905 0 .936-.06 1.082-2.097.195-2.724-.075-2.993-2.902-2.887-1.205.044-2.225.117-2.268.16Zm1.46.944c-.17.107-.404.04-.52-.148-.114-.188.025-.342.31-.342.586 0 .672.202.21.49Zm-4.02.855a.336.336 0 0 1 0-.672.336.336 0 0 1 0 .672Zm5.995 1.008a.336.336 0 0 1 0-.672.336.336 0 0 1 0 .672Zm-3.663.673a.336.336 0 0 1 0-.673.336.336 0 0 1 0 .673Zm-3.996.672a.336.336 0 0 1 0-.672.335.335 0 0 1 0 .672ZM43.077 60.662c-.128.129-1.285.198-2.57.154-1.914-.067-2.32.009-2.238.415.056.273-.048.468-.232.434-.183-.034-.295-.175-.25-.314.047-.139-.422-.252-1.04-.252-.992 0-1.148.123-1.332 1.05-.115.578-.208 1.713-.208 2.522v1.47h1.342c.886 0 1.408-.171 1.534-.504.106-.277.41-.504.676-.504.278 0 .383.163.247.386-.175.286.737.327 3.538.161 2.076-.122 3.834-.283 3.907-.356.072-.073-.046-.468-.263-.877-.242-.458-.272-.825-.076-.954.174-.115.4-.852.502-1.638l.185-1.428h-1.745c-.96 0-1.849.105-1.977.235Zm1.12 2.118a.336.336 0 0 1 0-.673.336.336 0 0 1 0 .673Zm-3.829.672c-.274 0-.5-.151-.5-.336 0-.185.226-.336.5-.336.275 0 .5.151.5.336 0 .185-.225.336-.5.336Zm-3.83.672a.336.336 0 0 1 0-.672.336.336 0 0 1 0 .672Zm5.634.823a.377.377 0 0 1-.121-.515.37.37 0 0 1 .51-.122c.174.109.228.34.12.515a.37.37 0 0 1-.51.122ZM25.384 62.233c-.458.338-.79.386-1.07.152-.578-.485-7.966.236-8.926.871-1.437.951-1.335 3.08.188 3.902.772.418 4.907.134 5.519-.379.266-.222.47-.219.611.011.17.278 6.448.197 6.728-.087.034-.034.1-1.12.147-2.413l.086-2.35-1.309-.1c-.768-.058-1.584.105-1.974.393Zm-4.496 1.387c-.183-.114-.333-.35-.333-.524 0-.174.15-.316.333-.316.183 0 .333.236.333.524 0 .288-.15.43-.333.316Zm-3.663.504a.336.336 0 0 1 0-.672.336.336 0 0 1 0 .672Zm9.657 0a.336.336 0 0 1 0-.672.336.336 0 0 1 0 .672Zm-4.016 1.009c-.172 0-.313-.151-.313-.336 0-.185.234-.336.519-.336.285 0 .427.15.313.336-.113.185-.346.336-.519.336Zm-3.663.672c-.172 0-.313-.151-.313-.336 0-.185.234-.336.519-.336.285 0 .427.151.313.336-.113.185-.346.336-.519.336Zm-3.83.672c-.285 0-.426-.15-.313-.336.114-.184.347-.336.52-.336.172 0 .313.151.313.336 0 .185-.234.337-.52.337Zm9.844 0a.336.336 0 0 1 0-.672.336.336 0 0 1 0 .672Z" fill="#FA1B7A"/><path d="M141.184 58.641c.321.085.845.085 1.166 0 .32-.084.058-.153-.583-.153s-.904.069-.583.153Z" fill="#FA1B7A"/></svg>