<svg xmlns="http://www.w3.org/2000/svg" width="645" height="967" fill="none"><path fill="#201B19" fill-rule="evenodd" d="M144.233 3.443c.966 1.576 2.028 4.012 2.358 5.41 1.02 4.312 4.02 11.526 7.225 17.371l3.06 5.583 2.562-2.72c2.497-2.648 2.598-2.665 3.941-.685.757 1.119 1.293 3.407 1.189 5.086-.143 2.325.481 3.492 2.611 4.891 2.575 1.69 3.161 1.733 7.296.537l4.495-1.3 6.07 5.838c3.339 3.211 8.78 8.206 12.092 11.1 5.978 5.225 6.087 5.27 14.975 6.347 8.199.994 9.365 1.409 13.87 4.926 8.365 6.534 12.938 11.175 14.301 14.514.719 1.764 2.744 4.425 4.5 5.915 1.755 1.49 7.208 6.571 12.118 11.293 4.911 4.722 12.518 11.745 16.904 15.607 4.386 3.862 9.986 9.129 12.445 11.705 3.262 3.418 5.43 4.822 8.027 5.194 1.957.283 4.266 1.201 5.128 2.044.863.841 5.052 2.923 9.31 4.624l7.74 3.094 8.893-6.779c5.461-4.165 12.533-8.365 18.332-10.889l9.443-4.109 3.761-14.956c2.068-8.225 4.152-16.245 4.63-17.822l.87-2.867 5.622 5.901c5.843 6.132 17.958 15.668 23.133 18.209 3.222 1.582 2.605 1.775 24.275-7.592 9.42-4.07 25.001-11.794 28.972-14.359 5.646-3.648 14.385-7.365 20.599-8.763 3.354-.754 7.327-1.737 8.827-2.184 1.502-.449 5.78-.354 9.506.21 3.728.565 10.135 1.405 14.239 1.868 4.104.462 9.172 1.693 11.263 2.735 5.956 2.969 12.66 9.335 16.865 16.02l3.855 6.125 4.378-.301c6.033-.415 16.12-5.203 20.076-9.53 4.567-4.996 5.015-3.52.605 1.993-5.595 6.993-8.661 9.679-15.15 13.276l-5.989 3.319 2.618 4.146c2.999 4.749 7.046 6.638 17.553 8.198 5.101.756 7.443.648 9.966-.458 1.814-.797 3.273-1.06 3.242-.587-.143 2.246-11.109 5.457-19.116 5.598l-8.248.145.301 3.634c.165 2 .548 6.357.85 9.683.302 3.326.337 9.416.078 13.532-.455 7.232-4.201 31.132-5.968 38.078-1.132 4.448 1.735 10.201 9.328 18.72 3.108 3.487 5.623 6.799 5.587 7.359-.036.561-1.127-.283-2.426-1.876-1.299-1.593-2.652-2.914-3.007-2.937-.354-.023.53 1.352 1.966 3.056 1.435 1.703 3.13 2.959 3.767 2.792.636-.168 4.531 3.351 8.655 7.822 4.124 4.469 6.641 7.427 5.593 6.572-1.74-1.42-1.801-1.401-.692.217.667.974 1.814 1.584 2.549 1.354.734-.23 2.156.775 3.158 2.231 1.003 1.456 2.125 2.382 2.495 2.056.369-.325.641-.11.603.477-.037.587 2.188 2.832 4.943 4.987 2.757 2.157 7.997 6.596 11.646 9.866 3.65 3.27 11.498 9.719 17.443 14.332 16.625 12.902 32.123 29.697 36.906 39.992 1.951 4.199 2.048 4.711.435 2.284-2.746-4.128-7.009-8.739-16.273-17.603l-7.637-7.307-12.32-1.866c-6.776-1.027-13.428-2.164-14.783-2.529a269.718 269.718 0 0 0-5.917-1.487c-15.168-3.624-33.578-11.24-46.658-19.3-4.883-3.01-8.897-5.183-8.92-4.83-.102 1.602 2.08 14.638 3.838 22.932 1.067 5.028 2.961 15.746 4.209 23.816 1.248 8.071 2.601 15.401 3.004 16.289.403.889.707 10.914.676 22.279-.031 11.364.269 20.488.666 20.276.398-.212 1.346.711 2.107 2.05 1.271 2.24 1.213 2.586-.721 4.288-1.709 1.504-1.813 1.87-.551 1.951.854.054 1.346-.136 1.094-.423-.784-.891 1.847-3.065 3.557-2.94 1.421.104 1.428.24.058 1.093-1.257.782-1.116.905.713.624 1.254-.191 2.036-.006 1.738.413-.298.419.858 1.059 2.568 1.422 2.476.527 2.812.414 1.648-.556-1.174-.979-.72-1.171 2.318-.977 2.782.177 4.383-.376 6.069-2.096 2.057-2.097 2.309-3.259 2.468-11.343.167-8.517.006-9.236-2.944-13.214-6.731-9.077-15.701-18.536-17.698-18.664-1.132-.072-2.03-.58-1.995-1.129.035-.549.535-.968 1.112-.931 2.702.172 6.995 4.043 14.837 13.381 6.504 7.742 9.143 10.192 11.122 10.318 1.427.091 4.137.928 6.023 1.861 3.233 1.6 3.653 1.573 7.419-.481 2.194-1.198 5.416-3.522 7.159-5.164 1.756-1.653 3.65-2.645 4.245-2.223 1.262.895.914 7.267-.55 10.061-.754 1.44-.901.725-.568-2.773.246-2.592.24-4.947-.013-5.234-.254-.288-2.402 3.317-4.777 8.009-3.142 6.212-4.291 9.606-4.228 12.479l.088 3.948 3.941-7.249c2.372-4.364 4.031-6.539 4.168-5.464.125.982-.79 3.284-2.035 5.117-3.58 5.27-1.042 4.006 6.282-3.13 6.141-5.983 8.923-7.514 10.468-5.758.307.35.261 1.285-.105 2.082-.534 1.163-.805 1.179-1.391.083-.528-.99-3.573 1.063-11.087 7.475-9.278 7.917-10.566 9.426-12.34 14.442-1.09 3.081-2.604 6.26-3.362 7.064-1.237 1.311-.298 1.464 9.023 1.472 5.722.005 10.61-.148 10.861-.341 1.204-.921-2.156-2.849-6.766-3.882-2.818-.63-5.329-1.381-5.579-1.664-.251-.285 3.36-4.734 8.022-9.887 4.661-5.152 9.096-10.192 9.856-11.199.759-1.007.29.116-1.043 2.494-1.333 2.377-5.025 7.191-8.208 10.696-3.181 3.505-5.801 6.621-5.82 6.925-.019.304 1.761.667 3.957.807 2.661.169 4.615.962 5.86 2.377 4.138 4.701 1.86 5.765-11.85 5.537-7.203-.121-12.155.22-12.412.854-.235.579-2.12.946-4.187.814-5.236-.333-23.528-6.229-27.368-8.82-4.358-2.941-5.757-2.812-6.743.623-.465 1.617-1.276 3.17-1.803 3.451-.527.28-.998 1.137-1.047 1.905-.217 3.415-19.163 24.315-21.883 24.142-.483-.031 1.241-1.868 3.831-4.083 6.204-5.306 9.877-10.935 12.968-19.877 1.394-4.034 2.56-7.792 2.591-8.352.032-.561-1.67-2.157-3.782-3.548l-3.839-2.529-.255 3.771c-.479 7.052-1.774 6.258-6.226-3.82-4.543-10.284-6.648-12.763-16.007-18.86-7.336-4.779-19.212-17.489-23.789-25.461-2.162-3.762-4.081-6.705-4.268-6.54-.187.164.048 4.794.522 10.29.473 5.495.774 11.381.669 13.08-.232 3.742 1.238 5.311 9.387 10.022 3.455 1.998 7.023 4.375 7.931 5.282 1.71 1.713 2.078 5.376.53 5.278-.486-.031-1.725 1.065-2.754 2.436-1.817 2.424-1.795 2.613.788 6.814 1.461 2.376 2.911 5.188 3.223 6.247.532 1.813.439 1.823-1.599.183-1.191-.957-4.109-3.078-6.485-4.712-2.375-1.634-5.92-4.394-7.875-6.133l-3.557-3.161-.142 2.329c-.078 1.282.46 3.689 1.196 5.351 2.194 4.952 5.336 20.787 4.534 22.849-.949 2.439-8.01 6.123-28.505 14.872l-9.088 3.88.13 6.246c.072 3.435.418 6.608.768 7.051.352.443 4.161 1.713 8.464 2.824 7.557 1.949 8.027 2.245 13.706 8.627 8.105 9.107 17.37 23.293 24.788 37.952 3.435 6.79 6.556 12.907 6.937 13.595.381.689 9.769 3.889 20.861 7.112 11.093 3.222 22.582 6.679 25.531 7.683 2.949 1.005 6.303 1.886 7.453 1.959 1.148.073 5.538 1.275 9.753 2.672 4.214 1.396 7.923 2.309 8.239 2.03.317-.278 1.912 1.203 3.546 3.292 2.597 3.323 3.245 3.673 5.168 2.797 1.566-.714 2.18-.688 2.13.09-.057.891-7.454 16.815-11.517 24.793-1.62 3.18-3.717 9.85-3.875 12.32-.081 1.282 2.39 6.152 5.564 10.965 5.313 8.055 5.939 8.652 8.974 8.55 2.241-.075 3.237.317 3.177 1.25-.047.748.539 1.399 1.304 1.448 2.268.145 2.441 2.842.29 4.553-1.099.874-1.943 1.877-1.876 2.229.178.935-4.425 8.036-6.633 10.233-1.641 1.631-21.087 15.096-33.082 22.907-2.176 1.416-3.809 3.084-3.628 3.704.181.62-.158 1.94-.753 2.934-.731 1.22-.734 1.619-.008 1.233 1.683-.898 1.481 5.517-.313 9.898-.878 2.148-2.199 6.776-2.934 10.283-1.838 8.775-3.868 11.363-14.081 17.949a1458.835 1458.835 0 0 0-17.956 11.807c-9.894 6.629-19.037 10.944-33.369 15.752-5.068 1.7-9.619 3.584-10.113 4.188-.594.726-1.022.737-1.268.031-.204-.588-1.116-2.675-2.028-4.639-2.203-4.748-4.498-4.723-19.304.198-6.422 2.135-12.168 3.85-12.77 3.811-.602-.038-2.622-2.196-4.488-4.795-1.867-2.6-4.888-6.024-6.714-7.61l-3.319-2.883-3.218 2.832-3.217 2.832-8.461-3.34c-4.653-1.836-8.761-3.051-9.129-2.699-.367.351-1.781 3.162-3.14 6.246-3.025 6.861-8.082 15.551-12.937 22.234-2.612 3.593-5.472 10.289-10.102 23.64-10.158 29.3-12.734 36.034-21.136 55.268-12.867 29.452-33.393 79.688-37.508 91.8-3.994 11.755-6.403 27.194-5.183 33.221.372 1.842 1.852 3.862 3.777 5.158 3.027 2.036 3.374 2.069 7.93.751 2.621-.758 7.026-1.5 9.791-1.65 4.584-.249 5.808.191 13.891 5.001 5.067 3.015 9.067 6.085 9.335 7.167.76 3.052-3.975 10.415-17.423 27.096-4.155 5.153-5.258 5.417-19.03 4.555-11.227-.703-16.163-.213-16.279 1.611-.121 1.892-11.695 6.327-19.147 7.337-5.402.732-6.767.585-10.536-1.137-8.158-3.726-8.022-3.378-6.812-17.375 1.244-14.408 2.49-19.423 5.321-21.405 1.703-1.193 2.233-3.144 3.272-12.029.997-8.537 1.774-11.517 3.985-15.278 4.364-7.421 8.7-19.64 12.905-36.365 5.132-20.414 6.926-30.902 9.794-57.217 3.968-36.41 6.279-43.241 31.244-92.334 4.503-8.857 7.46-19.718 9.289-34.122.678-5.345 3.007-16.469 5.174-24.721 2.167-8.251 3.977-15.676 4.023-16.5.044-.824-2.65-4.04-5.987-7.147l-6.068-5.648-1.956 5.637c-6.441 18.555-14.699 29.056-30.548 38.838-6.635 4.095-14.816 10.708-25.727 20.797-17.441 16.126-29.056 24.025-49.302 33.525-5.901 2.768-13.13 6.541-16.065 8.383a509.056 509.056 0 0 1-11.061 6.7c-8.203 4.8-19.991 14.952-20.144 17.347-.12 1.873-2.778 6.562-14.64 25.816-4.616 7.494-13.804 26.039-17.805 35.94-1.086 2.687-3.179 6.49-4.653 8.453-3.278 4.366-12.277 8.984-16.952 8.699-4.903-.3-10.277-6.998-13.533-16.869-2.19-6.639-2.44-8.892-1.908-17.228.695-10.911.643-10.819 13.681-24.124 9.094-9.281 16.929-22.538 17.736-30.008.593-5.505 4.813-14.191 6.36-13.093.448.318 1.476-.165 2.285-1.071 1.331-1.493 1.297-1.53-.363-.391-1.159.796-1.808.855-1.764.162.039-.604 2.508-2.784 5.488-4.845 5.292-3.663 5.577-3.733 12.47-3.065 6.085.59 7.207.429 8.177-1.17.618-1.02 5.339-7.448 10.492-14.284 10.984-14.574 23.219-27.776 31.112-33.572l5.618-4.126-1.348 10.45c-1.302 10.101-1.266 10.635 1.07 16.041 3.438 7.955 9.527 12.135 18.498 12.701 9.592.605 13.697-1.872 35.431-21.377 10.23-9.18 22.411-19.121 27.07-22.089 17.903-11.41 25.779-23.347 32.128-48.697 1.359-5.425 3.631-13.11 5.047-17.077 3.56-9.97 3.055-16.897-1.829-25.097-3.227-5.42-12.497-16.55-10.76-12.918.64 1.339.523 1.348-.868.065-1.22-1.127-3.721-1.478-10.37-1.461-10.924.029-10.918.027-15.955 2.857-4.013 2.254-12.123 9.06-10.89 9.138.332.022-.18 2.356-1.139 5.189-.959 2.832-2.631 11.856-3.714 20.054-3.123 23.616-5.803 29.961-16.77 39.698-6.922 6.144-41.711 30.645-42.401 29.861-.458-.521 18.335-14.257 30.954-22.627 8.643-5.731 16.692-13.628 20.052-19.672 2.375-4.27 5.047-14.532 6.564-25.206l1.249-8.787-2.39.585c-1.314.321-2.913.744-3.553.938-.64.195-4.685-2.718-8.989-6.472l-7.827-6.826-2.2-9.278c-3.746-15.79-3.665-17.065 1.557-24.823 2.481-3.687 4.544-7.159 4.583-7.717.039-.557.86-2.316 1.825-3.907 2.913-4.808 2.473-7.6-3.205-20.371-3.85-8.658-7.035-14.109-10.871-18.604-6.091-7.135-12.096-16.625-12.116-19.147-.015-1.848 4.888-8.899 8.897-12.797 2.602-2.531 5.36-2.47 5.195.113-.103 1.619-1.294 1.733-2.6.249-.598-.68-2.152.609-4.476 3.709l-3.56 4.749 3.084 3.178c2.903 2.991 13.062 9.902 14.709 10.007.414.027-1.336-2.464-3.891-5.535-7.371-8.861-7.563-9.751-2.99-13.873l3.85-3.471-2.072-2.066c-1.14-1.137-1.741-1.412-1.336-.611.485.96.373 1.197-.33.697-1.027-.729-.355-3.652.824-3.577.317.021 1.664 1.121 2.993 2.446l2.416 2.408-2.192-2.835-2.193-2.836 2.36-3.326c1.299-1.829 7.51-7.661 13.801-12.958 6.292-5.298 11.81-10.182 12.262-10.853.951-1.416-1.056-1.566-14.862-1.115-15.733.514-38.489.468-57.609-.114-10.176-.31-18.629-.464-18.786-.342-.157.122 2.537 4.189 5.987 9.036 21.357 30.014 40.033 71.409 45.433 100.701 1.109 6.017 2.573 12.458 3.252 14.313 1.416 3.867 1.565 4.694 3.007 16.706.898 7.483.817 9.608-.525 13.733-.945 2.904-1.412 6.571-1.154 9.051.28 2.694.026 4.389-.72 4.786-.634.339-1.388 2.377-1.675 4.529-.287 2.152-.796 4.347-1.132 4.877-.335.529-1.321 2.947-2.189 5.371-2.581 7.209-2.722 7.479-3.151 6.062-.573-1.896-2.194-1.656-2.36.351-.22 2.646-3.898 6.014-6.396 5.855-4.357-.278-9.661-2.81-8.984-4.289.387-.841.086-1.362-.751-1.299-2.916.22-4.87-.395-4.799-1.512.04-.637-1.234-2.485-2.831-4.104-3.351-3.399-4.533-8.736-3.292-14.865.565-2.79.397-5.306-.503-7.565-1.238-3.104-1.146-4.16 1.11-12.724 1.684-6.396 2.165-9.744 1.525-10.622-.569-.783-.467-5.564.264-12.272.666-6.127.809-11.263.322-11.608-.48-.341-.616-4.748-.301-9.793.608-9.751-.64-16.508-5.897-31.914-7.087-20.772-38.719-75.099-44.616-76.629-7.533-1.953-18.887-5.252-24.765-7.196-3.778-1.251-9.531-2.967-12.783-3.813-11.442-2.979-46.926-16.396-55.772-21.089-1.6-.849-5.744-3.034-9.21-4.856-8.132-4.276-28.76-20.063-35.162-26.911-12.89-13.786-18.557-31.974-13.053-41.889 2.392-4.31 8.974-9.437 15.282-11.905 3.93-1.537 6.422-1.683 16.595-.969 23.245 1.631 33.024 6.066 54.608 24.77 4.184 3.627 21.223 19.425 23.582 21.868 1.035 1.071 5.938 5.442 10.895 9.713 4.959 4.271 17.541 17.321 27.963 29 10.421 11.68 19.715 21.597 20.65 22.038 4.222 1.991 63.163 4.44 73.127 3.039 1.347-.19 6.095-.397 10.551-.463 14.589-.213 40.122-3.019 42.374-4.658.804-.584 1.838-2.26 2.298-3.724.461-1.463 2.007-4.39 3.436-6.503 2.163-3.199 3.574-4.091 8.419-5.324 4.6-1.17 7.309-2.784 12.915-7.694 3.902-3.418 7.995-6.667 9.096-7.221 1.945-.979 1.939-1.084-.221-3.735-2.421-2.974-2.302-4.418 1.404-17.099l1.725-5.902-2.716-2.995c-3.665-4.042-6.636-11.269-8.592-20.898-1.319-6.497-1.44-10.676-.641-22.306.989-14.418 3.511-28.232 4.735-25.937.846 1.586 2.346-3.804 1.817-6.526-.552-2.834 3.056-14.223 7.046-22.249 1.875-3.772 3.25-7.038 3.054-7.26-.525-.598-5.804 4.507-7.536 7.286-1.683 2.701-18.534 17.218-26.536 22.859-2.867 2.022-8.024 5.233-11.459 7.136-3.436 1.903-7.788 4.751-9.671 6.329-1.884 1.579-3.627 2.64-3.873 2.36-.247-.281 3.424-3.848 8.159-7.928 8.933-7.702 19.402-19.352 25.142-27.982 1.829-2.749 4.831-6.532 6.673-8.406 4.606-4.686 10.204-12.557 10.27-14.436.03-.855-.878-.035-2.018 1.821-1.141 1.856-3.299 4.536-4.796 5.956-1.497 1.419-4.313 4.622-6.256 7.116-1.945 2.495-6.23 7.52-9.525 11.168-3.294 3.648-7.629 8.557-9.632 10.91-5.771 6.773-26.927 24.618-31.7 26.737-4.547 2.018-5.932 1.232-1.896-1.076 6.189-3.541 21.812-15.881 26.323-20.796 12.138-13.216 34.767-45.483 35.053-49.981.035-.545-1.804-3.354-4.087-6.243-5.901-7.469-8.341-7.889-17.7-3.049-11.146 5.764-17.569 7.929-33.328 11.237-1.1.23-1.374 1.857-1.273 7.548.07 3.989.414 9.188.762 11.553.35 2.365.309 4.278-.089 4.253-1.136-.073-4.19-12.963-3.953-16.685.318-4.988-1.253-5.859-10.808-5.992-8.697-.122-21.955-2.171-24.443-3.779-.814-.526 2.46-.467 7.522.136 10.246 1.221 25.688.347 27.484-1.558 1.595-1.689.442-3.741-1.705-3.035-3.777 1.241-23.443 1.705-32.765.772-9.692-.969-18.332-3.217-18.235-4.743.027-.415 1.253-.202 2.725.474 6.252 2.869 41.282 2.064 48.91-1.124 2.386-.998 3.237-2.386 5.18-8.445 1.277-3.988 2.744-7.727 3.258-8.31.515-.582 1.247-2.048 1.625-3.259.601-1.916.103-2.42-3.864-3.912-2.505-.942-7.387-3.251-10.849-5.132-6.348-3.449-7.717-4.831-25.645-25.89-13.28-15.598-25.119-26.401-29.43-26.856-.448-.047-5.918-4.041-12.156-8.875-11.634-9.016-19.003-17.029-23.048-25.063-1.263-2.507-2.812-4.626-3.443-4.71-2.507-.326-4.507-1.08-8.777-3.302-5.013-2.61-6.697-5.968-8.011-15.972-.748-5.69-.851-5.841-5.182-7.574-7.257-2.904-15.023-3.939-18.477-2.461-3.036 1.3-12.308 2.35-11.062 1.255 1.369-1.206 10.429-2.789 16.37-2.86 4.766-.058 8.652.775 17.381 3.727 6.184 2.092 13.002 3.905 15.154 4.03l3.91.225-3.282-1.884c-3.161-1.816-8.495-9.847-8.324-12.533.099-1.55.359-1.507-3.711-.615-1.806.396-3.486.338-3.735-.128-.248-.466 1.136-1.041 3.075-1.28 1.939-.236 3.558-.945 3.598-1.572.15-2.36-10.494-12.284-14.106-13.151-4.397-1.055-23.395-11.993-28.832-16.599-2.219-1.88-4.331-3.157-4.693-2.837-1.686 1.483 5.553 11.142 12.318 16.44 3.615 2.83 21.671 12.403 25.946 13.757 2.447.774 2.636 1.042 1.119 1.577-1.122.397-3.704-.278-6.683-1.744-4.998-2.462-5.494-2.457-12.506.116-2.279.837-8.916 2.39-14.75 3.451a3972.088 3972.088 0 0 0-13.472 2.47c-3.921.738-3.728 2.32.435 3.59 4.594 1.4 22.273-.953 29.466-3.921 5.931-2.447 12.699-2.635 12.553-.349-.059.934-1.259 1.323-3.622 1.172-1.943-.123-5.931.56-8.864 1.52-7.456 2.438-16.398 4.05-23.847 4.298-7.691.257-6.415 1.871 1.915 2.425 3.617.24 5.71.801 5.665 1.518-.051.787-1.949.844-6.179.188-5.515-.857-6.478-1.374-9.931-5.334-3.605-4.133-3.715-4.457-1.899-5.64 1.06-.69 3.812-1.432 6.117-1.647 9.944-.928 30.101-6.005 30.203-7.606.021-.326-2.674-2.27-5.987-4.32-3.314-2.05-7.172-4.75-8.574-6a143.72 143.72 0 0 0-4.875-4.127c-2.971-2.37-7.335-10.97-6.496-12.8 1.091-2.378 3.701-1.376 9.62 3.694 3.135 2.685 6.863 5.254 8.284 5.708 1.421.454 4.228 2.184 6.236 3.844 3.693 3.052 7.214 4.697 13.081 6.112l3.221.777-1.45-3.305c-.798-1.817-3.316-6.538-5.596-10.49-3.828-6.639-4.137-7.753-4.048-14.575.065-4.887.546-7.863 1.422-8.791 1.868-1.98 2.694-1.703 4.699 1.567Zm1.189 7.395c1.268 4.561 4.197 11.64 6.507 15.733 4.148 7.348 4.184 7.5 2.838 12.176-1.094 3.8-1.594 4.472-2.531 3.396-.642-.737-1.135-1.833-1.097-2.434.039-.603-2.342-5.637-5.291-11.186-2.949-5.55-5.725-12.054-6.169-14.454-1.061-5.731-.185-11.076 1.856-11.328 1.155-.144 2.198 2.029 3.887 8.097Zm17.477 23.855c.205 2.63.943 6.173 1.642 7.87l1.269 3.088-.294-3.398c-.289-3.352-.265-3.373 1.851-1.664 1.179.952 3.972 3.101 6.206 4.776 3.001 2.248 4.021 3.701 3.904 5.56-.168 2.67-4.362 15.438-5.358 16.315-.323.286-2.13-.101-4.014-.86-2.693-1.082-3.903-2.51-5.654-6.668-1.227-2.91-2.182-6.04-2.123-6.953.058-.913-.944-3.442-2.228-5.62-2.508-4.255-2.272-7.52 1.026-14.19 2.173-4.393 3.338-3.854 3.773 1.744Zm20.789 9.88 3.926 4.548-.679 10.44c-.686 10.551-1.544 14.893-2.925 14.806-.415-.027-2.715-1.314-5.109-2.86l-4.353-2.81 1.911-5.612c1.053-3.086 2.206-9.536 2.565-14.331.359-4.796.671-8.721.695-8.724.023-.002 1.808 2.043 3.969 4.544Zm-5.692-1.767-.192 3.015-2.843-1.882c-2.998-1.984-2.802-2.737.939-3.612 2.021-.473 2.266-.182 2.096 2.48Zm21.786 16.349c2.965 2.759 3.107 3.277 3.164 11.659.032 4.825.441 8.796.909 8.825 1.035.066 1.442-6.72.793-13.226l-.478-4.79 7.362.47c7.97.507 8.225.633 18.546 9.108 4.804 3.946 6.79 6.547 10.093 13.224 10.865 21.96 16.528 32.513 26.459 49.317 5.923 10.022 12.614 20.819 14.87 23.994 10.426 14.678 15.293 21.015 16.183 21.072.531.034-1.511-3.365-4.537-7.554-10.467-14.484-17.772-25.46-25.237-37.922-7.01-11.699-20.462-36.624-23.491-43.525l-1.344-3.06 3.666 3.468c2.017 1.908 11.868 10.989 21.892 20.18 21.099 19.345 22.302 20.686 23.609 26.334 1.082 4.679 6.819 18.501 9.033 21.766 1.351 1.993 1.432 1.901 1.669-1.897.138-2.196-.138-7.016-.612-10.712-.696-5.425-.624-6.611.375-6.153 3.031 1.391 3.378 26.135.554 39.431-.952 4.483-.91 5.224.237 4.225 1.001-.872 1.757-5.607 2.692-16.863 1.052-12.679 1.038-17.02-.084-22.864l-1.383-7.213 3.469 1.194c7.825 2.693 10.074 5.302 13.49 15.64 3.022 9.15 5.461 17.382 5.144 17.362-.179-.011-1.869-2.599-3.756-5.75-1.887-3.152-3.836-5.756-4.333-5.788-.667-.042 8.223 16.471 10.568 19.629 1.171 1.577 1.255-1.312.158-5.38-2.346-8.686-.574-5.782 5.232 8.58 9.224 22.812 12.384 31.243 13.942 37.195.807 3.082 1.7 5.034 1.983 4.337.284-.698-.097-3.653-.847-6.568-1.611-6.261-14.66-39.432-22.05-56.051-2.858-6.427-5.186-11.873-5.171-12.103.014-.229 1.709-.297 3.767-.151 6.554.465 9.37 4.391 11.275 15.722 1.583 9.416 6.538 26.692 8.431 29.393 1.878 2.68 2.753-1.012 3.815-16.087 1.033-14.665 1.074-14.852 2.042-9.389.542 3.066 1.091 7.835 1.218 10.599.975 21.168.981 28.061.032 34.572-.726 4.985-.733 6.971-.018 6.011 2.983-4.008 2.79-43.366-.273-55.881-1.696-6.927-1.545-7.967.485-3.341.718 1.635 4.093 6.428 7.502 10.652l6.196 7.681-1.141 8.541c-.628 4.696-2.259 11.624-3.624 15.392-2.843 7.843-2.894 8.072-1.545 6.869 1.871-1.667 7.236-18.238 7.563-23.355l.325-5.106 2.253 2.627c3.824 4.454 5.64 15.092 5.311 31.11-.16 7.853.129 14.305.642 14.337.938.06 2.104-25.984 1.477-32.972-.175-1.941-.118-2.613.125-1.496.244 1.118 2.376 9.207 4.739 17.975 2.961 10.991 3.954 16.243 3.196 16.91-1.39 1.223-2.456 6.893-1.591 8.464.359.653.673 1.413.696 1.69.023.277.234 2.32.469 4.539 1.034 9.782 1.018 13.833-.05 13.075-.588-.418-.737-1.228-.331-1.8.457-.643.252-.78-.537-.36-.956.51-.839 1.245.47 2.94.961 1.244 1.621 3.462 1.469 4.93-.151 1.469.198 2.618.779 2.555 1.275-.139.369 7.439-1.078 9.018-.12.129-.3.645-.401 1.144-.101.498-.616 1.254-1.144 1.68-.559.45-.627.27-.164-.428.592-.892-.461-1.282-4.085-1.513-5.482-.349-6.773.241-5.216 2.38.873 1.2.597 1.346-1.547.814-1.436-.356-2.904-.235-3.262.269-.358.505-.276.876.182.826 2.042-.222 3.372.393 2.749 1.271-.969 1.365.777 1.292 2.37-.099 1.071-.936 1.198-.864.64.363-.463 1.018.107 1.96 1.699 2.812 1.775.95 2.511.997 2.842.182.269-.661.963-.732 1.746-.176 1.121.796 3.05 1.304 8.605 2.27 1.644.286.405 1.827-1.377 1.714-.791-.051-1.468.384-1.506.965-.079 1.24 1.53.559 5.058-2.141 1.442-1.102 2.15-1.318 1.639-.498-.718 1.15-.622 1.217.471.328.997-.81 1.897-.794 3.277.061 1.047.649 2.207.816 2.579.368.372-.446 1.45-.822 2.395-.835 1.543-.021 1.561.239.181 2.517-2.208 3.638-6.986 7.249-11.005 8.313-4.281 1.134-10.175.838-10.089-.506.035-.549-.277-.967-.693-.928-2.145.2-3.359-.525-3.899-2.33-.423-1.416-1.032-1.77-2.081-1.211-1.283.684-1.305 1.046-.165 2.704 1.177 1.712 1.158 1.772-.193.574-.831-.737-1.849-1.042-2.265-.676-.415.365-.409-.09.014-1.01.422-.921.319-1.703-.23-1.738-2.069-.132-2.188 2.764-.182 4.397 1.728 1.405 1.765 1.563.215.925-1.432-.589-1.695-.427-1.125.701.412.814-.141.589-1.239-.504-1.09-1.085-1.7-2.59-1.355-3.343.418-.909-.078-1.414-1.475-1.503-2.193-.139-2.736-1.611-.945-2.565.57-.304 1.057-1.089 1.081-1.744.025-.654-.671-.36-1.545.653-1.805 2.096-2.487 7.986-1.043 9.011.527.375.879 1.926.782 3.449-.26 4.09.748 4.508 4.087 1.693 1.644-1.387 3.785-2.636 4.755-2.778 1.596-.233 10.414.386 15.873 1.115 2.364.316 4.365 1.932 2.224 1.795-.732-.046-1.111.166-.842.472.91 1.033 3.842-.481 3.245-1.676-.325-.652.404-.22 1.62.96 1.217 1.179 1.948 1.615 1.625.968-.519-1.039 2.352-4.111 3.195-3.417.665.549.547-.905-.13-1.594-.385-.393-.374-.016.024.836.397.852.373 1.188-.057.746-.428-.442-1.754-.076-2.947.814-1.191.89 1.425-1.817 5.814-6.014 6.887-6.586 8.238-7.476 9.862-6.494 1.521.92 2.204.711 3.577-1.097 1.904-2.51 5.226-5.79 4.282-4.229-2.531 4.184-6.969 8.974-7.782 8.397-.544-.386-.743-.24-.442.324.628 1.177-5.934 9.133-13.206 16.013-2.729 2.581-7.137 7.035-9.796 9.897-2.66 2.861-8.109 8.151-12.111 11.753-4 3.603-7.965 7.693-8.809 9.089-.844 1.397-3.008 3.625-4.808 4.955-1.8 1.328-2.652 2.455-1.893 2.503 2.503.16 8.295-4.324 11.235-8.695 1.59-2.363 7.932-9.109 14.093-14.99 6.162-5.88 15.795-15.523 21.407-21.429 5.612-5.906 13.085-13.506 16.607-16.887 3.523-3.383 5.466-5.567 4.318-4.854-1.692 1.052-1.836 1.049-.761-.013 1.349-1.333 2.535-1.653 7.912-2.133l3.023-.27-3.382 1.298c-3.207 1.231-3.314 1.421-2.066 3.667.725 1.303 2.578 7.777 4.118 14.386 1.54 6.611 3 12.392 3.243 12.848.244.456-.233 3.264-1.058 6.24-1.412 5.095-1.365 5.676.801 9.956 1.266 2.5 5.185 8.337 8.71 12.97 3.524 4.634 8.098 11.758 10.162 15.832 2.257 4.453 5.217 8.566 7.426 10.315 3.195 2.529 4.057 4.237 6.623 13.119 1.622 5.616 2.934 10.454 2.915 10.751-.019.295-2.859-2.463-6.31-6.131-3.453-3.667-8.572-7.901-11.378-9.409-5.044-2.709-5.267-2.738-19.938-2.598-16.402.157-38.79.806-59.527 1.726-13.945.619-32.236 1.097-42.406 1.106l-5.762.007.291-3.071c.161-1.688.951-5.246 1.757-7.905 1.684-5.561.942-5.249 17.883-7.526 6.233-.838 11.159-1.85 10.947-2.248-.212-.399 2.052-2.079 5.034-3.734 12.889-7.156 31.077-20.378 31.225-22.7.054-.853-3.008 1.031-7.157 4.403-7.811 6.349-21.204 15.017-27.786 17.983l-4.073 1.835-1.278-8.829c-.702-4.856-.962-11.515-.576-14.797.605-5.161 1.415-6.938 5.986-13.146 2.907-3.948 6.559-8.433 8.116-9.966 1.555-1.533 2.004-2.238.997-1.566-1.006.67-1.808.856-1.78.411.029-.444-1.333.36-3.026 1.786-1.693 1.428-3.398 2.567-3.791 2.533-.393-.035-1.88-2.09-3.305-4.567-2.184-3.795-2.616-4.142-2.744-2.201-.083 1.267.216 2.109.665 1.869.448-.239.759.431.691 1.488-.186 2.922-.613 2.375-2.984-3.817-3.208-8.38-3.175-10.666.22-15.035 3.145-4.046 6.504-10.024 13.895-24.722 5.005-9.955 5.232-10.568 3.954-10.649-.783-.05-3.207 4.142-9.641 16.67-2.95 5.745-3.937 6.81-3.502 3.785.138-.955-.319-1.661-1.013-1.568-1.725.232-1.55-.346.56-1.846 1.513-1.074 1.637-1.062.842.087-.621.895-.547 1.142.218.732.634-.337.944-1.28.689-2.096-.879-2.816-5.007.23-4.704 3.472.038.416-.491.727-1.179.691-.895-.046-.872.21.084.903 1.133.823 1.085 1.646-.323 5.491-1.455 3.978-1.735 4.252-2.326 2.276-.369-1.236-.414-2.809-.099-3.497.315-.686.158-1.544-.351-1.904-1.41-1.001-12.24-27.25-12.107-29.342.276-4.335-6.575-24.526-15.623-46.043-5.357-12.742-10.015-24.312-10.348-25.711-1.117-4.672-7.36-21.999-8.316-23.075-3.302-3.719 5.542 22.261 16.161 47.474 8.308 19.727 9.63 23.551 7.661 22.153-.81-.575-.986-.44-.534.408.371.697.954 1.02 1.295.721.715-.63 4.315 8.305 5.036 12.502l.487 2.831-3.031-3.199c-1.667-1.76-4.285-4.995-5.818-7.189l-2.785-3.989 3.455 2.24c1.9 1.233 3.69 1.911 3.977 1.507.621-.874-12.04-10.135-22.883-16.738-4.245-2.585-8.356-5.281-9.138-5.993-3.47-3.159-12.464-8.32-14.753-8.466-3.896-.248-21.058-6.142-25.418-8.729-2.151-1.275-10.146-9.392-17.768-18.037-7.623-8.646-16.431-18.26-19.574-21.366-3.143-3.107-5.572-5.774-5.398-5.927.294-.258 3.771 1.243 26.058 11.243 9.271 4.16 20.177 10.796 27.188 16.542 2.566 2.104 4.887 3.63 5.159 3.392.733-.646-1.967-3.135-10.458-9.639-6.912-5.295-13.36-8.818-30.985-16.933-3.213-1.479-6.271-3.02-6.796-3.424-.526-.403-5.143-2.242-10.261-4.086-10.87-3.915-15.377-6.423-26.817-14.924-8.981-6.672-11.43-9.328-17.11-18.548l-3.61-5.859 6.84-.054c4.386-.034 8.605-.797 11.756-2.128 5.496-2.322 11.046-7.62 11.195-10.692.098-2.014.095-2.014-1.144-.095-.683 1.059-1.345 2.043-1.47 2.186-.125.143-2.037-.858-4.249-2.226-2.949-1.824-3.806-2.888-3.215-3.987.444-.826 1.369-6.283 2.056-12.127l1.248-10.627 3.104 2.888Zm283.69 17.338c-4.965.43-9.608 1.551-24.245 5.858-5.876 1.73-13.905 5.193-20.274 8.746-10.995 6.133-18.718 9.775-29.275 13.803-12.291 4.69-17.846 5.606-6.718 1.108 11.594-4.686 33.488-14.97 40.592-19.067 14.997-8.648 28.143-12.41 39.867-11.406l5.595.479-5.542.48Zm20.748 2.324c6.261 1.651 11.854 5.832 17.816 13.32 4.012 5.039 4.865 6.67 3.58 6.848-.927.129-2.625-.77-3.774-1.994-1.148-1.225-2.571-2.259-3.163-2.297-.593-.038-1.292-.758-1.556-1.602-.263-.843-1.166-1.577-2.008-1.63-.84-.055-1.499-.547-1.464-1.096.035-.55-.34-1.024-.834-1.055-.493-.032-3.197-1.832-6.008-4-4.971-3.834-5.313-3.94-12.625-3.95-8.074-.01-16.302 1.888-28.335 6.536-4.808 1.857-8.072 2.593-8.957 2.02-2.951-1.907 22.127-9.6 32.881-10.087 5.49-.249 5.812-.388 3.605-1.541-2.218-1.16-2.042-1.239 2.064-.935 2.468.183 6.418.841 8.778 1.463Zm-3.034 5.418c1.529.51 1.515.732-.207 3.335-1.015 1.534-3.647 3.467-5.849 4.296-2.201.828-6.624 3.104-9.827 5.057-3.204 1.953-5.218 2.906-4.474 2.118.743-.788 4.617-3.334 8.608-5.658 3.991-2.324 7.283-4.645 7.316-5.16.085-1.328-4.578-1.433-10.506-.236-6.548 1.322-26.957 8.978-41.063 15.403-3.973 1.81-6.362 2.76-5.31 2.112 1.052-.649 7.015-4.29 13.25-8.093 18.108-11.044 38.063-16.514 48.062-13.175ZM161.41 71.147c4.924 1.358 5.507 2.499 3.233 6.309-1.534 2.569-6.436 7.29-7.5 7.222-.958-.062-3.239-9.75-3.038-12.902.161-2.515.391-2.535 7.305-.629Zm343.044 22.016c-.013.207-.848.943-1.857 1.636-1.662 1.14-1.695 1.102-.354-.402 1.411-1.58 2.264-2.055 2.211-1.234ZM178.6 73.576c1.765 1.61 1.752 1.627-.338.444-1.197-.677-2.163-1.44-2.147-1.695.049-.763.553-.51 2.485 1.25Zm188.371 15.54c4.43 5.217 12.998 12.3 20.905 17.286 6.911 4.358 14.844 10.796 14.768 11.986-.142 2.235-2.443 1.576-6.715-1.926-2.574-2.11-4.905-3.851-5.181-3.869-.274-.017-5.335-3.271-11.246-7.23-5.912-3.959-11.165-7.224-11.673-7.257-.974-.062-1.095.291-3.881 11.276-2.389 9.423-4.141 37.972-2.842 46.314 1.062 6.822 5.262 13.769 13.785 22.799 2.846 3.015 3.691 4.665 3.317 6.472-.453 2.185-1.524 1.253-10.774-9.378-17.121-19.678-19.566-27.208-15.274-47.061 1.276-5.901 3.252-13.828 4.391-17.613 1.14-3.785 3.119-11.216 4.398-16.515l2.327-9.631 3.695 4.348Zm-189.806-13.61c1.972 1.48 3.56 3.094 3.529 3.59-.115 1.801-9.955 8.491-13.799 9.38-3.277.76-4.484.608-7.064-.89-2.731-1.584-2.834-1.795-.846-1.724 1.616.057 3.851-1.827 7.807-6.58 3.048-3.664 5.822-6.618 6.165-6.563.342.054 2.235 1.309 4.208 2.787Zm278.258 16.59c-.013.213-4.09 2.261-9.058 4.552-19.688 9.075-31.26 17.455-44.7 32.37-5.633 6.251-7.874 9.885-5.221 8.471.586-.312-.937 2.137-3.385 5.442-2.449 3.306-4.819 7.135-5.268 8.508l-.816 2.498-.49-2.536c-.338-1.755.501-4.248 2.722-8.09 1.765-3.055 4.291-7.963 5.61-10.905 3.023-6.739 15.009-18.211 25.75-24.645 8.74-5.234 34.942-17.01 34.856-15.664ZM183.399 76.889c1.765 1.61 1.752 1.626-.338.444-1.197-.677-2.163-1.44-2.147-1.695.049-.763.553-.51 2.485 1.25Zm322.67 22.391c-.013.207-.849.943-1.858 1.636-1.662 1.139-1.695 1.102-.353-.402 1.41-1.58 2.263-2.055 2.211-1.234ZM193.718 83.066c3.052 1.83 5.535 3.55 5.518 3.824-.018.275-2.64-1.034-5.827-2.906-3.188-1.873-5.782-3.622-5.765-3.889.043-.665-.137-.754 6.074 2.97Zm-.372 3.076 4.289 2.273-3.065 2.157c-3.548 2.497-9.886 3.878-16.009 3.488l-4.284-.273 3.317-1.542c1.825-.85 5.15-3.08 7.389-4.959l4.073-3.415 4.29 2.271Zm216.208 26.714c-4.586 3.717-4.702 3.748-7.116 1.936-1.349-1.011-2.444-1.995-2.432-2.185.02-.304 12.901-3.611 13.837-3.552.205.013-1.726 1.724-4.289 3.801Zm83.083 7.014c-2.493 3.533-3.869 4.727-4.552 3.951-.684-.777.396-2.308 3.572-5.065l4.551-3.95-3.571 5.064Zm-10.922-3.506c-.765 1.067-2.18 1.888-3.146 1.827-1.966-.126-2.497 1.464-.728 2.182.792.321.503 1.405-.941 3.529-1.622 2.384-2.528 2.89-4.075 2.278-3.194-1.266-10.798-1.043-13.336.392-2.87 1.622-2.935.341-.142-2.779 1.147-1.28 4.059-2.768 6.473-3.306 4.154-.924 11.431-3.385 15.455-5.224 1.63-.746 1.678-.626.44 1.101Zm54.513 7.248c2.02 5.377 3.142 20.639 2.25 30.632-.309 3.47-.614 4.726-.68 2.793-.527-15.841-1.203-23.485-2.597-29.408-1.994-8.466-1.447-10.604 1.027-4.017Zm-157.855-9.599c5.857 2.961 16.8 11.548 16.7 13.107-.039.615-.78 1.808-1.646 2.651-1.607 1.563-6.884 11.728-11.09 21.366-1.287 2.949-2.852 8.711-3.478 12.804l-1.136 7.443-4.585-10.813c-4.06-9.579-4.631-11.901-5.002-20.332-.383-8.736.7-17.479 3.299-26.622.762-2.682.857-2.677 6.938.396Zm150.848 11.414c-.123 1.921-.379 2.694-.568 1.717-.19-.977-.09-2.547.223-3.493.312-.945.467-.145.345 1.776Zm-24.619-3.14c-.084 1.323-8.308 14.749-10.859 17.729-1.484 1.732-2.474 3.406-2.199 3.717.717.814 7.676-1.074 11.734-3.184l3.463-1.8-2.482 4.239c-1.365 2.331-3.179 4.938-4.033 5.793-1.055 1.058-1.22 1.789-.516 2.289 1.502 1.066 12.833-9.283 16.905-15.44l3.487-5.273-.444 7.111c-.676 10.826-1.563 13.299-4.71 13.124l-2.621-.145 2.121 1.867c1.923 1.691 1.994 2.204.767 5.447l-1.358 3.579-1.979-2.121c-1.643-1.761-2.814-2.066-6.894-1.799-2.705.178-6.354.83-8.109 1.449-3.017 1.065-2.835 1.128 3.318 1.156 3.581.016 5.819.279 4.973.584-.846.306-1.936 1.14-2.423 1.856-1.182 1.738-2.804 1.546-2.685-.319.144-2.266-1.498-1.903-3.991.883-1.251 1.397-2.331 3.97-2.45 5.837-.173 2.73.235 3.482 2.243 4.124 5.744 1.839 10.66-2.179 11.099-9.069.105-1.651.415-1.917 1.193-1.033 1.694 1.924-.383 8.054-3.287 9.702-1.398.794-2.322 1.854-2.055 2.355.268.503 1.617.271 2.998-.513 1.382-.785 3.019-1.22 3.639-.968 1.392.564-18.505 19.643-22.213 21.3-5.993 2.678-16.486 4.224-27.655 4.076l-11.577-.154-2.887-3.996c-4.043-5.596-7.757-14.14-10.77-24.788-2.593-9.159-3.981-19.713-2.58-19.623.414.026 1.334-1.381 2.045-3.127 1.493-3.671 11.575-17.549 10.61-14.604-2.523 7.694-3.316 12.143-3.885 21.797-.365 6.173-.196 12.538.385 14.537 1.029 3.541 1.038 3.525 2.153-3.871 1.242-8.222 4.523-18.329 9.274-28.56 3.198-6.89 4.683-7.809 5.604-3.468.517 2.439.525 2.437.794-.248.579-5.749 13.333-7.435 12.917-1.708-.069.961-.549 1.719-1.066 1.686-.516-.033-.642-.703-.282-1.489 1.895-4.132-6.058-1.824-8.325 2.415-1.978 3.697-1.908 6.864.198 9.029 4.296 4.416 11.652.969 13.434-6.295l.927-3.782.776 4.559c.716 4.21.799 4.311 1.089 1.322.172-1.78.763-3.208 1.311-3.173.549.035.97.512.935 1.061-.035.549.307 1.022.761 1.051.965.061 10.206-6.009 17.859-11.731 2.949-2.206 5.345-3.732 5.323-3.393Zm-18.285 2.827c.906 1.246.614 2.198-1.517 4.942l-2.64 3.397-1.729-2.174c-1.918-2.41-1.149-4.304 2.629-6.48 1.816-1.046 2.3-.999 3.257.315Zm-50.49-3.516c1.532 1.026 1.609 1.993.623 7.775-1.651 9.669-3.349 12.094-2.124 3.032 1.194-8.834.615-10.486-3.258-9.29-2.65.819-3.894 2.822-1.833 2.954.587.037.293 1.28-.686 2.912-.941 1.566-1.793 4.13-1.893 5.699-.151 2.367.476 3.193 3.695 4.866 3.303 1.716 3.713 2.279 2.768 3.804-.611.984-.884 2.513-.607 3.397.722 2.313-2.994 1.862-4.953-.601-1.794-2.255-4.849-12.429-4.654-15.496.295-4.624 5.924-10.663 9.651-10.352.837.071 2.309.655 3.271 1.3Zm-22.614 3.048c-2.67 2.531-7.746 9.026-11.281 14.434-7.853 12.022-10.036 19.711-8.616 30.357.484 3.631.632 6.82.328 7.087-.797.703-2.136-9.19-1.85-13.675.725-11.376 9.037-28.98 17.182-36.393 6.647-6.049 10.406-7.655 4.237-1.81Zm18.727 5.238c-.022.624-.792 2.604-1.712 4.4-1.565 3.056-1.664 3.101-1.548.708.068-1.405.839-3.385 1.712-4.4.874-1.013 1.571-1.332 1.548-.708Zm-82.875 5.855c-.955 7.028-.896 9.711.313 14.005 1.649 5.87 1.525 6.052-4.552 6.679-2.159.223-4.212-.854-8.9-4.672-5.116-4.166-6.831-5.01-10.688-5.256-8.223-.524-6.743-4.486 3.879-10.381 5.525-3.067 19.279-9.185 20.475-9.109.36.023.122 3.954-.527 8.734Zm-51.706-2.148c1.698 1.929 2.901 7.403 3.649 16.598.339 4.18.306 4.237-1.154 1.977-.826-1.28-2.671-5.907-4.102-10.281-1.43-4.376-3.005-8.545-3.5-9.266-1.505-2.19 3.093-1.316 5.107.972Zm158.66 10.801c-.122 1.16-.374 1.381-.641.566-.243-.739-.152-1.598.201-1.908.352-.311.55.293.44 1.342Zm3.622 3.655c-.123 1.921-.378 2.695-.567 1.718-.191-.977-.091-2.548.222-3.493.312-.945.467-.146.345 1.775Zm-157.325-11.972c-.037.581-.499.751-1.026.377-.527-.375-.946-.878-.931-1.121.016-.242.477-.411 1.026-.376.549.035.968.539.931 1.12Zm100.609 8.858c-.035.549-.542 1.644-1.126 2.434-.584.789-1.034.986-.999.437.035-.549.542-1.644 1.126-2.433.585-.79 1.034-.986.999-.438Zm-3.423 11.306c-.564 4.097-1.198 7.627-1.412 7.843-.807.817.55-11.497 1.471-13.351.57-1.148.545 1.105-.059 5.508Zm120.669 3.181c-.099 2.825-3.825 9.422-6.503 11.515l-2.258 1.765.324-5.088c.263-4.126-.076-5.409-1.795-6.783-1.165-.932-1.603-1.662-.971-1.622.631.04 1.97 1.268 2.975 2.729l1.828 2.656 2.63-2.315c1.447-1.273 2.902-2.886 3.235-3.585.349-.733.575-.424.535.728Zm-91.58-7.34c.717 2.61 1.941 18.496 1.979 25.678.044 8.304.319 9.477 3.459 14.75 4.564 7.663 10.098 13.471 12.76 13.391l2.131-.064-2.673 4.914c-1.471 2.702-2.477 5.714-2.236 6.695.241.98-.067 1.749-.686 1.709-.618-.039-.875.396-.57.966 1.254 2.352 3.164 1.159 3.006-1.876-.093-1.776.821-4.735 2.158-6.989 2.141-3.611 2.406-3.761 3.466-1.97 1.085 1.831 3.873 11.186 3.778 12.676-.025.38-2.114 1.13-4.642 1.667-2.528.537-4.861 1.35-5.184 1.804-1.273 1.794-2.499.434-5.639-6.258-6.07-12.931-31.11-52.355-35.013-55.126-.497-.351-.822-1.397-.725-2.323.149-1.409.273-1.431.76-.136 1.055 2.802 5.011 7.27 5.98 6.753.523-.279 1.564.367 2.314 1.435 1.282 1.822 1.335 1.785.866-.597-.474-2.415-.418-2.448 1.18-.707 1.611 1.757 1.6 1.905-.292 3.745-1.083 1.053-1.656 2.271-1.272 2.706 1.48 1.674 10.023-10.693 13.432-19.441.838-2.151 1.587-3.682 1.663-3.402Zm-17.508 6.842c-.033.517-.522 1.185-1.086 1.486-.587.313-.729-.098-.332-.964.774-1.687 1.509-1.957 1.418-.522Zm-63.144 14.622-1.164 16.91-2.499-6.383c-2.691-6.875-5.684-19.732-5.45-23.413.125-1.958.659-2.232 3.937-2.023 2.086.133 4.365-.263 5.066-.88.99-.872 1.015 2.637.11 15.789Zm62.704-9.286c1.128 2.184 1.105 2.203-.509.448-.929-1.011-1.46-2.039-1.181-2.285.279-.245 1.039.582 1.69 1.837Zm-2.577 8.035c9.624 11.717 22.382 32.208 29.899 48.022a3540.21 3540.21 0 0 0 6.34 13.274c1.747 3.619 1.182 3.227-6.35-4.415-4.549-4.615-12.068-11.561-16.711-15.438-8.356-6.977-8.491-7.164-13.059-18.131-4.485-10.768-7.457-23.723-6.487-28.272.416-1.949 1.186-1.349 6.368 4.96Zm54.728.684c5.671 3.407 11.961 8.845 11.871 10.264-.035.549-.613.766-1.283.482-.672-.282-2.777.673-4.68 2.124-4.076 3.108-7.642 3.163-10.286.159-3.244-3.686-4.359-10.361-2.432-14.562.901-1.963 1.043-1.931 6.81 1.533Zm19.207.874c-.57 1.404-3.856 1.947-3.771.622.033-.525 1-1.138 2.148-1.361 1.328-.258 1.918.011 1.623.739Zm-17.984 1.529c7.826 4.988 8.183 5.447 5.93 7.64-1.041 1.012-3.102 2.372-4.578 3.019-2.314 1.016-2.998.933-4.973-.611-1.259-.985-2.59-2.286-2.956-2.893-.878-1.453-.307-10.604.655-10.52.412.037 3.076 1.55 5.922 3.365Zm34.84 5.61c-.088 1.372-.626 2.744-1.196 3.048-.586.313-.968-.532-.879-1.941.088-1.373.626-2.744 1.197-3.049.586-.312.968.533.878 1.942Zm-3.086.005c-.122 1.16-.373 1.381-.641.565-.242-.739-.152-1.598.201-1.908.352-.31.55.294.44 1.343Zm8.388 5.963c-.251 2.464-.183 5.775.151 7.358.386 1.823.263 2.633-.333 2.209-1.449-1.028-1.793-8.889-.508-11.615.993-2.108 1.086-1.834.69 2.048Zm14.888 3.453c-.151 2.195-.406 2.963-.565 1.706-.159-1.257-.036-3.052.274-3.991.311-.938.442.091.291 2.285Zm-22.001 3.299c-.252 3.998 5.094 21.57 7.635 25.095.591.82.58 1.29-.031 1.251-.537-.034-2.828-4.803-5.092-10.596-4.193-10.726-5.516-18.303-3.396-19.434.782-.417 1.069.775.884 3.684Zm14.997 14.181c.932 5.337 1.497 10.19 1.254 10.787-.241.597-1.202-3.282-2.134-8.618-.933-5.336-1.497-10.19-1.255-10.787.242-.597 1.202 3.282 2.135 8.618Zm22.994-3.184c1.434 2.159 8.294 10.333 15.244 18.165 9.353 10.54 11.156 12.95 6.94 9.274-8.702-7.588-26.754-28.303-26.611-30.537.124-1.941 1.906-.694 4.427 3.098Zm-144.413-9.419c3.833 4.97 3.536 6.441-.579 2.866-1.828-1.587-3.269-3.732-3.203-4.764.162-2.551.473-2.395 3.782 1.898Zm93.401 6.063c-.374 1.549-1.65 7.265-2.835 12.7-1.184 5.436-2.652 11.205-3.262 12.819-.61 1.614-1.721 4.812-2.471 7.107-.749 2.295-1.732 4.148-2.183 4.12-.45-.029-.92-2.614-1.043-5.745-.3-7.658-2.373-10.012-8.927-10.146l-4.871-.098-3.2-8.37c-2.657-6.952-2.993-8.756-1.985-10.642.668-1.249 1.564-2.249 1.991-2.222 2.648.169 26.397-1.383 27.781-1.815 1.384-.432 1.563-.023 1.005 2.292Zm-112.446-6.811c-.087 1.372-.349 1.92-.582 1.216-.234-.704-.162-1.826.159-2.495.32-.668.511-.093.423 1.279Zm169.008 23.472c5.397 6.11 12.605 13.283 16.018 15.94 3.413 2.657 9.628 7.739 13.81 11.293 4.182 3.553 11.425 9.452 16.096 13.109 4.67 3.657 11.529 9.227 15.243 12.381 3.713 3.152 8.47 7.079 10.569 8.727l3.818 2.995-5.946-1.039c-18.311-3.198-42.932-11.45-55.803-18.702-2.715-1.53-5.112-2.349-5.327-1.82-.656 1.617-18.748-7.532-18.627-9.42.032-.511.8-.589 1.705-.173.989.454.691-.252-.749-1.767-2.623-2.761-4.077-10.275-5.147-26.601-.514-7.832-.347-9.548 1.238-12.697 1.007-2.002 2.159-3.572 2.56-3.487.401.085 5.144 5.153 10.542 11.261Zm-250.499-23.715c4.121 1.48 12.279 7.05 11.4 7.784-1.5 1.251-19.906 8.887-23.12 9.591-3.503.768-3.573.264-.949-6.871 2.991-8.136 7.907-12.212 12.669-10.504Zm111.507 15.509c3.144 5.024 4.974 11.458 2.519 8.852-.755-.801-1.288-2.384-1.183-3.516.115-1.241-.36-1.977-1.198-1.855-.883.129-1.137-.342-.7-1.297.378-.826.326-1.523-.118-1.552-.443-.028-1.247-1.207-1.784-2.619-1.402-3.679-.757-3.159 2.464 1.987Zm95.361 8.865c3.629 3.595 7.565 7.279 8.747 8.186 2.457 1.885 2.593 2.755.713 4.538-.733.696-2.529 3.298-3.99 5.783-1.462 2.485-4.348 6.257-6.415 8.381-2.067 2.125-3.574 4.073-3.349 4.329.502.569 13.173-7.349 15.554-9.72 1.637-1.63 1.886-1.523 5.454 2.331 2.992 3.234 4.489 6.472 7.513 16.246 5.885 19.025 13.09 52.548 11.711 54.49-1.043 1.471-2.212.656-2.677-1.868-.257-1.394-1.054-2.572-1.771-2.618-.717-.046-2.287-1.273-3.489-2.727-1.202-1.455-2.818-2.685-3.592-2.734-1.779-.114-13.116-13.762-15.911-19.153l-2.103-4.056 5.497-2.039c3.024-1.121 6.661-3.14 8.082-4.487l2.586-2.448-1.956-2.379c-1.076-1.31-2.358-4.66-2.851-7.447-1.378-7.806-1.975-8.745-4.972-7.82-1.404.434-3.843 1.622-5.422 2.64-1.578 1.019-3.968 1.992-5.311 2.163-1.341.171-2.929.741-3.526 1.267-1.823 1.605-2.506 1.05-4.995-4.053-1.318-2.702-3.638-6.426-5.156-8.276l-2.76-3.364 3.058-12.149c1.682-6.681 3.435-13.814 3.896-15.851l.838-3.702 6.597 6.537Zm-106.677-5.404c.446 3.336.996 7.203 1.223 8.596.227 1.392-.352.002-1.286-3.088-.934-3.091-1.485-6.959-1.223-8.596.365-2.289.663-1.576 1.286 3.088Zm166.824 12.878 5.138 5.846-4.831-4.409c-5.153-4.703-7.72-7.736-6.309-7.454.474.094 3.176 2.802 6.002 6.017Zm-250.184-17.499c-.694.611-1.876 1.162-2.626 1.223-1.702.14-10.26 4.728-11.221 6.016-.391.524-1.363.655-2.158.289-.796-.364-2.322-.142-3.389.496-2.392 1.427-13.935 4.789-14.447 4.207-.205-.232-.041-1.272.362-2.309.545-1.4 2.92-2.317 9.192-3.554 4.652-.917 8.999-2.143 9.658-2.723.66-.581 2.132-1.139 3.269-1.239 1.138-.1 3.887-.968 6.108-1.929 4.655-2.012 7.266-2.249 5.252-.477Zm179.233 13.003c.018 1.785-5.927 22.379-8.161 28.272-2.176 5.741-2.277 6.368-1.044 6.446.51.033 1.823-2.422 2.918-5.454 1.806-4.998 2.103-5.33 3.183-3.555 1.189 1.957 3.179 8.753 4.043 13.805.359 2.103-.071 2.975-2.014 4.077-2.424 1.377-2.495 1.32-3.882-3.144-.776-2.5-1.823-4.572-2.327-4.604-1.15-.074-1.277 1.547-.298 3.804 2.301 5.308 1.831 7.041-2.701 9.949-2.412 1.548-4.731 2.42-5.155 1.938-.423-.481.526-3.365 2.111-6.409 1.585-3.043 2.923-6.193 2.974-7.002.169-2.644-1.724-1.654-2.588 1.356-.465 1.617-1.225 3.143-1.687 3.39-.464.246.487-2.957 2.112-7.119 1.624-4.162 5.102-14.194 7.729-22.294 2.626-8.099 4.781-14.154 4.787-13.456Zm-66.984-.914c14.854 13.84 37.354 39.04 39.753 44.524 1.14 2.605-2.514-.818-13.337-12.493-8.199-8.844-17.574-18.871-20.833-22.281-3.259-3.411-6.503-7.519-7.209-9.128-1.518-3.459-1.448-3.486 1.626-.622Zm-11.7 10.913c.422 3.747.484 7.922.137 9.278-.479 1.871-.607 1.576-.532-1.222.054-2.027-.244-4.793-.662-6.145-1.148-3.717-1.458-8.835-.532-8.776.451.029 1.166 3.118 1.589 6.865Zm-11.364-5.734c.209.426.252 2.614.095 4.863-.157 2.247.019 4.655.39 5.351.371.696.419 1.491.106 1.766-.313.276-.197 1.719.259 3.207.456 1.488.447 2.23-.019 1.65-2.002-2.498-3.604-9.861-2.523-11.603.6-.969.969-2.728.819-3.91-.275-2.146.151-2.791.873-1.324Zm-3.683.472c-.051.8-.46 1.193-.907.875-.448-.318-.53-.979-.181-1.47.889-1.254 1.195-1.087 1.088.595Zm-3.855 3.556c.086.419.216 1.104.29 1.522.301 1.703 4.342 11.25 5.995 14.16l1.771 3.119-2.777-3.183c-1.527-1.751-2.784-3.409-2.794-3.685l-.051-1.816c-.02-.723-.497-1.068-1.061-.767-.588.314-.728-.1-.329-.972.384-.836.019-2.713-.81-4.173-.829-1.46-1.256-3.175-.948-3.81.307-.636.628-.813.714-.395Zm74.48 9.723c.741 1.306 2.414 4.88 3.719 7.941l2.372 5.566-2.736-2.977c-3.102-3.376-5.723-9.238-5.111-11.432.307-1.099.752-.87 1.756.902Zm-58.924-2.97c-.035.549-.54.968-1.12.931-.581-.037-.751-.499-.377-1.026s.878-.946 1.12-.931c.243.016.412.478.377 1.026Zm-66.052-1.281c-.118 1.855-16.358 21.915-17.755 21.931-.454.005 1.385-2.668 4.088-5.94 2.704-3.272 6.561-8.432 8.572-11.466 3.387-5.113 5.237-6.756 5.095-4.525Zm200.355 18.523c1.156 1.598 1.058 1.623-1.149.291-3.234-1.951-3.468-2.253-1.656-2.137.847.054 2.11.885 2.805 1.846Zm4.209 2.598c.313.587-.098.729-.964.332-1.687-.774-1.957-1.51-.522-1.418.517.033 1.185.521 1.486 1.086Zm-128.847-2.189c-.123 1.921-.378 2.694-.567 1.717-.191-.977-.091-2.548.222-3.493.312-.945.467-.145.345 1.776Zm76.844 4.897c.934 1.731.87 2.06-.387 1.98-.839-.054-1.448-.978-1.377-2.092.07-1.098.244-1.988.385-1.979.143.009.763.95 1.379 2.091Zm-60.893.87c1.957 2.415 2.21 2.964.651 1.409l-2.551-2.542-.864 7.846-.864 7.845.477-8.106c.262-4.459.195-8.633-.15-9.279-1.185-2.221.109-1.115 3.301 2.827Zm-9.016-.875c-.121 1.889-.578 3.625-1.016 3.859-.438.234-.518-1.323-.175-3.459.768-4.797 1.486-5.038 1.191-.4Zm-79.862-4.948c-.076 1.052-.636 2.557-1.246 3.345-.81 1.045-.877.636-.248-1.519 1.055-3.617 1.676-4.377 1.494-1.826Zm56.912 3.422c-.013.207-.849.943-1.857 1.635-1.662 1.14-1.695 1.103-.354-.401 1.411-1.58 2.264-2.055 2.211-1.234Zm13.87 2.008c-.035.549-.542 1.644-1.126 2.434-.585.789-1.034.986-.999.437.035-.549.541-1.644 1.126-2.433.584-.79 1.034-.987.999-.438Zm-31.034.026c-1.377 1.291-2.728 2.332-3.002 2.314-.274-.017.627-1.087 2.004-2.377 1.377-1.29 2.728-2.331 3.003-2.314.274.018-.628 1.087-2.005 2.377Zm-13.009-.269c-.037.581-.499.751-1.026.377s-.946-.878-.931-1.12c.016-.243.478-.412 1.026-.377.549.035.968.54.931 1.12Zm34.594 5.344c-.019 1.481-.481 2.932-1.027 3.223-.546.291-.83 1.088-.632 1.772.198.684-.592 2.31-1.755 3.614l-2.115 2.37 1.147-3.28c.631-1.805 1.605-3.772 2.164-4.372.56-.599 1.296-2.2 1.636-3.556l.618-2.466-.036 2.695Zm-37.127-3.31c.351.712.292.937-.132.502-.423-.436-1.519-.28-2.437.346-1.476 1.006-1.497.946-.187-.522 1.766-1.978 1.931-1.997 2.756-.326Zm-26.649-1.447c-.225 1.883-2.09 4.961-2.047 3.376.021-.825.518-2.146 1.103-2.936.584-.789 1.01-.987.944-.44Zm55.329 7.284 1.758 2.366-2.124-2.044c-1.996-1.921-2.534-2.762-1.736-2.711.19.012 1.135 1.086 2.102 2.389Zm41.339 3.887c-2.141 3.5-10.464 10.149-11.133 8.894-.346-.648-.265-1.039.179-.871.444.168 3.355-2.002 6.47-4.824 3.115-2.821 5.133-4.26 4.484-3.199Zm-82.744-2.602c1.892 3.374 3.688 15.165 3.281 21.547-.26 4.084.31 6.733 2.448 11.366 4.037 8.749 3.545 15.988-1.593 23.456-2.462 3.578-4.205 5.217-5.108 4.803-1.78-.817-8.439 4.772-10.476 8.793-.871 1.718-1.667 4.448-1.77 6.068-.29 4.544-1.361 6.322-2.92 4.85-.713-.673-1.047-1.577-.741-2.007.306-.432.051-1.142-.566-1.581-.701-.497-.883-.347-.483.401.35.658.38 1.181.065 1.161-.783-.05-4.137-6.535-4.019-7.771.053-.548.71.17 1.46 1.596l1.365 2.592-.389-2.53c-.213-1.391-.37-2.915-.347-3.386.022-.47-.535-.676-1.237-.457-1.431.446-1.521-1.326-.995-19.421.311-10.659.6-12.197 3.73-19.803 1.866-4.536 5.499-12.113 8.072-16.838 2.574-4.724 4.45-8.851 4.169-9.169-.281-.32-.547-.17-.591.332-.044.502-1.06 1.979-2.256 3.28l-2.176 2.367 1.641-3.473c.902-1.911 2.437-4.744 3.41-6.296 1.457-2.324 1.76-2.47 1.714-.823-.053 1.922.003 1.932 1.448.259 1.438-1.666 1.563-1.637 2.864.684Zm33.92 3.93c.596 1.116-1.452 2.48-2.291 1.526-.309-.35-.011-.602.662-.559.672.043.974-.388.67-.959-.304-.571-.329-1.023-.054-1.005.274.017.731.466 1.013.997Zm117.029 11.78c5.506 8.624 16.145 20.736 18.609 21.183 2.333.422 2.06.73-3.098 3.476-9.606 5.116-17.497 6.518-20.263 3.602-1.023-1.078-1.128-1.055-.554.12.48.981.346 1.194-.412.656-.618-.439-.824-1.218-.458-1.733.365-.515-.183-6.267-1.218-12.784-1.035-6.516-2.025-12.841-2.2-14.055-.315-2.19-.123-2.305 5.841-3.539.936-.193 2.468 1.061 3.753 3.074Zm-81.669-7.776c-.035.556-1.128 1.801-2.431 2.768l-2.366 1.758 2.144-2.368c1.179-1.303 2.273-2.548 2.431-2.768.158-.22.258.055.222.61Zm-57.88-3.725c-.034.536-.816 1.801-1.737 2.812-1.581 1.733-1.599 1.7-.329-.581 1.65-2.962 2.147-3.498 2.066-2.231Zm18.748 4.56-.095 1.497c-.079 1.239-1.421.301-1.534-1.073-.07-.846.283-1.512.783-1.48.501.032.881.507.846 1.056Zm-4.783-.623c-.738.243-1.597.152-1.907-.2-.31-.353.294-.551 1.343-.441 1.159.122 1.381.374.564.641Zm113.499 8.554c-.035.549-.54.967-1.121.93-.581-.037-.751-.498-.376-1.026.374-.527.878-.946 1.12-.93.243.015.412.477.377 1.026Zm.691 3.634c-.122 1.16-.374 1.381-.641.565-.243-.738-.152-1.597.2-1.908.353-.31.551.294.441 1.343Zm-131.613-9.031c-.033.517-.522 1.185-1.086 1.486-.587.313-.729-.098-.332-.965.774-1.686 1.509-1.956 1.418-.521Zm-19.068-.656c-.035.549-.777 2.08-1.649 3.402-.872 1.323-1.556 1.955-1.521 1.407.035-.549.777-2.08 1.648-3.402.872-1.323 1.557-1.955 1.522-1.407Zm149.79 11.431c1.231 1.043 4.057 12.704 3.854 15.899-.098 1.53-4.681-2.438-5.248-4.544-.268-.994-1.097-1.535-1.948-1.269-1.075.335-1.433-.299-1.305-2.31.097-1.525-.551-3.721-1.442-4.88-.891-1.16-1.145-1.791-.563-1.402.58.388 1.992-.063 3.138-1.001 1.605-1.315 2.409-1.428 3.514-.493Zm-115.975-4.837c2.382 2.991 2.752 4.074 1.602 4.687-.594.317-.919-.01-.722-.728.197-.717-.318-1.303-1.144-1.303-.9.001-1.502-.941-1.498-2.35.002-1.293.067-2.309.144-2.259.076.051.805.93 1.618 1.953Zm13.594 5.324c-.013.207-.85.943-1.858 1.635-1.662 1.14-1.694 1.103-.353-.401 1.41-1.58 2.263-2.055 2.211-1.234Zm-4.219 3.303c-.033.517-1.007.695-2.164.395-3.186-.827-3.438-1.697-.437-1.505 1.464.093 2.634.592 2.601 1.11Zm22.388 2.486c.304.571.412 1.063.239 1.095-3.338.604-3.888.434-2.694-.83 1.505-1.596 1.731-1.62 2.455-.265Zm52.026 7.994c-.103 3.293.789 5.393 2.333 5.491.764.049 1.274.419 1.132.824-.535 1.52.734 7.311 1.614 7.367.505.033 2.2-2.635 3.767-5.927l2.849-5.985 1.184 7.415c1.359 8.502 2.4 25.131 1.728 27.6-.368 1.353-1.71.649-7.124-3.735-3.668-2.971-8.478-7.526-10.688-10.122l-4.019-4.719 2.446-5.975c1.344-3.287 2.543-6.998 2.661-8.247.118-1.25.658-3.146 1.2-4.214.953-1.879.983-1.872.917.227Zm-87.321-5.318c.288.54.082 1.218-.459 1.506a1.117 1.117 0 0 1-1.506-.459 1.117 1.117 0 0 1 .459-1.506 1.116 1.116 0 0 1 1.506.459Zm156.518 11.593c.786.893 1.101 2.337.701 3.212-.575 1.253-.261 1.497 1.484 1.158 2.417-.471 4.048 1.826 3.822 5.377-.1 1.559-1.08 2.13-4.423 2.575l-4.295.572.113-6.513c.064-3.657-.389-6.88-1.034-7.35-.79-.576-.625-.809.528-.746.922.051 2.319.822 3.104 1.715Zm-5.215 2.711c.479 6.587.128 10.68-.856 9.982-.457-.324-1.74.348-2.851 1.495-1.682 1.734-1.713 1.877-.188.844 1.21-.82 1.808-.861 1.761-.121a1.127 1.127 0 0 0 1.048 1.192c.734.046.687-.563-.138-1.763-1.138-1.659-1.1-1.693.389-.364 1.007.898 2.734 1.297 4.444 1.027 2.738-.434 2.747-.419.437.719-1.298.639-2.071 1.491-1.716 1.894.354.402 1.373.219 2.265-.409 1.015-.714.827-.172-.501 1.449-2.518 3.071-3.704 3.312-3.002.612.621-2.394-.827-3.665-1.788-1.568-.383.834-1.137 1.203-1.677.82-.54-.384-.695-1.099-.345-1.592.725-1.023-2.355-.919-4.329.145-.724.39-1.044 1.258-.714 1.93.331.672-.511.07-1.871-1.336-1.361-1.407-2.233-2.897-1.939-3.311.294-.414.03-1.111-.587-1.549-.703-.499-.883-.347-.483.404 1.122 2.103-3.238.488-5.66-2.098-1.664-1.775-2.485-2.102-3.101-1.236-.571.806-.407.95.521.455.829-.442 1.091-.348.671.243-.377.532.357 2.08 1.631 3.44 1.274 1.359 2.341 2.091 2.37 1.625.03-.466 1.108.278 2.396 1.651 1.288 1.375 2.104 2.709 1.813 2.965-.291.256.201 1.407 1.094 2.559 1.602 2.069 1.592 2.071-.927.215-1.401-1.033-5.964-6.13-10.139-11.327-4.175-5.196-7.938-9.262-8.362-9.036-.425.226-.731-.25-.679-1.059.068-1.077.701-.823 2.358.946 1.246 1.33 2.566 2.436 2.934 2.459.367.024.52.405.341.848-.18.443.183.533.807.2.624-.332.899-1.362.612-2.289-.417-1.352-.288-1.423.657-.358 1.778 2.005 5.607 1.836 12.419-.548 3.382-1.183 6.753-2.229 7.493-2.324.738-.095 1.726-.713 2.195-1.374.515-.725.989.68 1.197 3.543Zm-46.207-1.759c1.139 1.662 1.102 1.694-.402.353-1.579-1.41-2.055-2.263-1.233-2.211.206.013.942.85 1.635 1.858Zm-11.199-1.465c-.052.823-.538 2.37-1.08 3.438-.621 1.224-.949 1.387-.889.444.053-.823.538-2.37 1.08-3.438.621-1.224.949-1.387.889-.444Zm14.705 8.703c1.58 2.719 6.273 9.01 10.429 13.981 5.605 6.706 5.145 6.285-1.785-1.629-5.137-5.866-10.059-12.173-10.937-14.014-2.381-4.99-.989-3.981 2.293 1.662Zm-100.06-9.424c-1.103 1.148-2.448 1.964-2.988 1.814-.541-.15-1.173.541-1.406 1.537-.233.997-1.235 2.33-2.229 2.963-.993.634-1.521 1.684-1.175 2.335.4.751.107.941-.805.524-1.499-.688-4.234 2.556-3.172 3.763.324.369.065.637-.574.596-.641-.041-1.236.935-1.323 2.17-.088 1.235-.637 2.891-1.222 3.68-1.759 2.376-.85-5.757.979-8.755 1.747-2.864 11.331-11.439 11.243-10.059-.03.474 1.009.071 2.311-.896l2.367-1.758-2.006 2.086Zm-14.588-1.14c-.052.823-.53 1.469-1.062 1.435-.531-.034-.665-.718-.297-1.522.369-.803.847-1.449 1.062-1.435.216.014.35.699.297 1.522Zm135.256 10.776c-.063.982-.403 1.014-1.345.125-.693-.654-1.254-1.284-1.246-1.4.007-.115.612-.172 1.343-.125a1.329 1.329 0 0 1 1.248 1.4Zm-136.592-6.77c-.122 1.16-.374 1.381-.642.565-.242-.738-.151-1.597.201-1.908.353-.31.551.294.441 1.343Zm152.379 11.706c-1.624 1.586-2.636 3.309-2.248 3.828.387.519-.034.301-.936-.485-1.257-1.094-1.376-1.857-.509-3.256 1.423-2.294 2.242-2.337 1.258-.065-.561 1.298-.004 1.154 2.325-.599l3.063-2.307-2.953 2.884ZM375.19 313.323c-.011.172-1.564 1.539-3.451 3.037l-3.43 2.724 3.138-3.056c2.925-2.849 3.792-3.476 3.743-2.705Zm130.143 11.238 1.758 2.367-2.124-2.045c-1.169-1.124-2.114-2.199-2.102-2.388.051-.799.816-.158 2.468 2.066Zm-122.362-7.548c-1.377 1.29-2.728 2.331-3.003 2.313-.274-.017.628-1.087 2.005-2.377 1.376-1.29 2.727-2.331 3.002-2.314.274.018-.628 1.088-2.004 2.378Zm126.036 12.792 1.758 2.367-2.124-2.044c-1.169-1.125-2.115-2.199-2.102-2.389.05-.798.816-.157 2.468 2.066Zm25.718 7.693c1.018 10.629.526 14.871-.831 7.17-.588-3.344-.812-8.093-.496-10.553.531-4.135.631-3.88 1.327 3.383Zm-153.253-12.687c-.014.207-.85.943-1.858 1.635-1.662 1.14-1.695 1.103-.353-.401 1.41-1.579 2.263-2.055 2.211-1.234Zm139.081 11.938c-1.12.785-2.474 1.4-3.01 1.366-1.268-.081-.672-.506 2.475-1.766 2.424-.97 2.454-.948.535.4Zm8.432.405c-.011.171-1.564 1.538-3.45 3.036l-3.43 2.725 3.138-3.057c2.925-2.849 3.791-3.476 3.742-2.704Zm-170.824-7.945c-.106 1.785.287 5.981.872 9.325.586 3.344.976 7.715.868 9.714-.195 3.632-.198 3.634-6.532 4.798-7.301 1.34-14.906 1.97-14.859 1.229.018-.279 1.535-1.092 3.372-1.806 2.865-1.114 2.966-1.253.712-.978-1.444.176-2.829.092-3.074-.188-.246-.28.338-3.386 1.298-6.904 1.437-5.264 2.447-6.969 5.705-9.633 4.355-3.56 6.118-4.099 4.848-1.48-1.739 3.581-3.141 8.235-2.831 9.399.177.666 1.288-1.206 2.47-4.162 2.277-5.696 6.062-12.64 6.862-12.589.264.017.393 1.49.289 3.275Zm19.064-.66c-.013.206-.849.942-1.858 1.635-1.661 1.139-1.694 1.102-.353-.401 1.411-1.58 2.264-2.056 2.211-1.234Zm212.318 17.483c-.011.176-.963 1.981-2.115 4.011-1.265 2.227-2.344 3.224-2.724 2.512-.66-1.24 2.733-6.979 4.077-6.894.43.028.773.195.762.371Zm-17.969 2.079c2.013 5.283-4.118 29.596-6.955 27.582-.632-.448-.433-1.186.552-2.053 2.228-1.961 3.53-9.27 3.457-19.407-.066-9.095.983-11.275 2.946-6.122ZM41.89 315.289c17.419 4.997 23.59 9.723 50.636 38.776 7.737 8.311 17.149 17.784 20.916 21.051 5.983 5.189 19.836 20.105 27.763 29.892l2.621 3.237-7.19-2.296c-3.955-1.262-15.603-4.718-25.885-7.68-35.825-10.32-56.793-19.801-75.969-34.353-13.793-10.467-19.856-18.917-22.377-31.191-1.59-7.735 4.171-15.959 12.908-18.43 5.265-1.488 8.63-1.286 16.576.994Zm539.429 35.8c4.156 3.828 2.346 21.877-2.794 27.857-1.589 1.849-2.466 2.086-5.021 1.352-3.011-.865-3.052-.961-1.52-3.513 2.982-4.963 5.697-15.074 5.774-21.498.041-3.476.362-6.3.712-6.277.351.024 1.634.959 2.849 2.079Zm-50.317-3.643c-.051.799-.46 1.193-.908.875-.448-.318-.53-.98-.181-1.471.89-1.254 1.196-1.087 1.089.596Zm-5.41 3.175c3.264 3.766 4.554 6.13 4.517 8.28-.039 2.366-.313 2.761-1.281 1.848-.851-.802-.903-1.688-.173-2.866.792-1.277.568-2.209-.892-3.709-1.072-1.103-2.134-1.903-2.359-1.78-.226.123-.35-.039-.275-.361.074-.323-1.033-1.972-2.46-3.664-1.426-1.693-2.381-3.065-2.119-3.048.26.016 2.529 2.402 5.042 5.3Zm-65.121-6.374 2.244 2.899-2.59-2.594c-2.421-2.425-3.007-3.274-2.223-3.224.178.011 1.334 1.326 2.569 2.919Zm-4.555.011c.207.389-4.474.939-10.403 1.222-9.083.436-24.619 1.899-51.136 4.818-2.776.306-8.376 1.049-12.446 1.653-4.07.604-8.604.982-10.074.841l-2.674-.256 2.989-.69c3.355-.774 35.844-4.567 55.082-6.431 16.204-1.571 28.184-2.054 28.662-1.157Zm12.474 12.108c5.288 5.91 6.59 9.405 2.304 6.19-2.363-1.773-8.328-10.711-7.581-11.36.201-.175 2.577 2.151 5.277 5.17Zm95.92 8.242c-.016.255-.881.852-1.921 1.327-1.429.651-1.87.509-1.801-.581.051-.793.916-1.391 1.923-1.326 1.006.064 1.816.325 1.799.58Zm-5.762 7.874c-.977.19-2.548.09-3.493-.223-.945-.312-.146-.467 1.776-.345 1.921.123 2.694.378 1.717.568Zm-10.249-.342c.304.571.077 1.007-.504.97-.581-.037-1.028-.516-.993-1.065.035-.549.261-.986.504-.97.242.015.689.495.993 1.065Zm6.981 4.146c-.987.191-2.333.088-2.991-.228-.658-.317.149-.473 1.795-.348 1.645.125 2.184.384 1.196.576Zm-113.644 7.23c-.604 9.639-.771 10.461-1.108 5.477-.473-6.96-1.956-9.447-2.922-4.9-.361 1.695-.296 3.339.144 3.65.439.312.72 1.802.623 3.312-.096 1.508.43 3.657 1.167 4.774 1.212 1.834 1.443 12.559.27 12.484-.258-.017-3.663-2.418-7.568-5.337-5.56-4.158-9.612-6.175-18.691-9.307-23.333-8.048-44.976-12.824-64.618-14.257-5.76-.42-9.898-.954-9.193-1.187.703-.234 1.32-1.06 1.369-1.838.066-1.038 1.484-1.33 5.331-1.098 2.882.174 9.084.141 13.783-.074 4.698-.215 11.252-.472 14.565-.57 12.438-.372 27.17-.953 28.662-1.131 1.198-.143 1.41.564.943 3.133-.463 2.549-.231 3.341 1.003 3.42.957.061 1.659-.73 1.738-1.96.321-5.037 1.537-5.506 14.078-5.427 6.498.041 13.912-.055 16.474-.216l4.661-.289-.711 11.341Zm14.957-3.192c-5.255 4.695-6.674 5.66-5.053 3.435.479-.658.899-1.533.935-1.944.034-.412.513-.746 1.064-.745.551.002 2.096-.901 3.434-2.005 2.25-1.86 2.301-2.07.681-2.832-1.316-.618-1.016-.793 1.21-.705l2.962.119-5.233 4.677Zm-1.75-4.134c.865 1.621-4.29 2.839-6.848 1.617-2.049-.98-2.063-1.057-.188-1.139 1.106-.048 2.463-.114 3.016-.148.553-.033 1.557-.359 2.232-.724.673-.364 1.478-.187 1.788.394Zm13.203 5.07c1.039 1.097 1.909 1.659 1.935 1.247.026-.414 2.144 1.595 4.706 4.462 4.412 4.936 4.564 5.304 2.876 6.945-2.31 2.248-10.561 5.283-11.857 4.363-.561-.398-.739-.216-.404.411 1.048 1.965-5.828 3.096-9.059 1.491-1.726-.859-1.71-.898.218-.559 1.143.202 2.87-.21 3.839-.915 1.538-1.119 1.668-1.077 1.024.327-.549 1.196-.314 1.477.91 1.095.905-.283 1.687-1.14 1.735-1.905.049-.764 1.102-1.371 2.341-1.347 2.114.042 2.131-.003.282-.733-2.073-.818-2.449-2.574-.83-3.878.573-.46.579-.19.015.669-.814 1.244-.701 1.269.83.182 1.923-1.367 2.483-2.482.795-1.581-.571.304-.99-.202-.931-1.125.093-1.451-.133-1.507-1.669-.416-1.508 1.072-1.636 1.061-.855-.066.728-1.052.25-1.274-2.289-1.065-1.765.145-3.423-.137-3.684-.626-.261-.489-.109-.802.339-.694 3.041.73 7.292.199 7.145-.892-.093-.694.382-1.116 1.055-.936.76.201 1.149-.535 1.026-1.939-.11-1.246-.678-2.296-1.264-2.333-.586-.038-1.38-.426-1.765-.864-.962-1.093-2.594-1.117-2.014-.031.257.483-.892 2.025-2.555 3.426-1.662 1.401-3.252 2.116-3.533 1.59-.708-1.327 5.891-6.637 8.018-6.452.954.084 2.583 1.051 3.62 2.149Zm-8.119 1.781c-1.377 1.29-2.728 2.331-3.003 2.314-.274-.018.628-1.087 2.005-2.377 1.377-1.29 2.727-2.332 3.002-2.314.274.017-.628 1.087-2.004 2.377Zm-10.768-2.941c.377 1.859.373 7.006-.004 6.577-.63-.715-1.057-6.895-.473-6.858.234.015.449.142.477.281Zm25.529 7.94c2.123 2.459 3.429 4.702 2.902 4.983-.528.282-2.942-1.774-5.363-4.566-2.608-3.009-3.791-5.041-2.902-4.984.826.053 3.239 2.108 5.363 4.567Zm-.546.667 3.675 4.493-3.99-4.216c-3.71-3.92-4.411-4.837-3.656-4.789.163.011 1.95 2.041 3.971 4.512Zm-10.856-4.018c.283.531.118 1.177-.366 1.436-.485.259-.84-.184-.79-.983.108-1.683.432-1.81 1.156-.453Zm4.482 3.111c1.139 1.661 1.102 1.694-.401.353-.913-.815-1.649-1.651-1.636-1.858.053-.821.838-.241 2.037 1.505Zm-34.784 1.015c.912 1.148 2.031 1.888 2.486 1.646.455-.243 1.062.001 1.35.542 1.328 2.488-1.546 1.606-3.912-1.203-1.455-1.726-2.407-3.123-2.115-3.104.293.018 1.278.972 2.191 2.119Zm-60.931-4.765c23.085 3.933 51.105 13.696 60.573 21.106 8.307 6.5 9.486 8.648 8.658 15.775l-.678 5.842-10.103-8.751c-5.556-4.815-10.989-9.302-12.074-9.975-1.084-.672-5.734-1.462-10.334-1.755l-8.363-.533-3.11-4.754c-2.157-3.296-4.979-5.825-9.207-8.252-5.741-3.296-6.346-3.442-10.391-2.509-2.362.545-6.07 1.756-8.24 2.692l-3.944 1.702-5.471-3.349a1349.54 1349.54 0 0 1-10.391-6.434l-4.924-3.085-7.203 3.748c-3.962 2.062-7.507 3.73-7.877 3.706-.369-.023.166-1.545 1.19-3.383 1.579-2.831 2.616-3.452 6.807-4.075 5.656-.841 23.594.326 35.082 2.284Zm89.799 6.394c-.635.364-1.081 1.482-.991 2.483.132 1.473-.095 1.577-1.191.542-1.026-.968-1.058-1.59-.134-2.57.671-.71 1.725-1.253 2.343-1.205.818.063.81.268-.027.75Zm11.036 2.636c-.207.982-.706 1.69-1.105 1.572-1.493-.439-1.504-1.182-.032-2.253 1.234-.898 1.446-.77 1.137.681Zm-122.474-5.46c2.914 1.838 5.857 4.272 6.541 5.408 1.805 3.002 8.703 3.206 15.13.447 2.795-1.199 6.235-2.108 7.644-2.018 4.084.261 11.6 5.274 15.532 10.359 2.736 3.539 4.914 5.16 8.905 6.628 6.23 2.291 6.192 2.283 5.483.953-.337-.631 1.142-.93 3.771-.762 3.9.249 5.439 1.235 15.7 10.061 6.258 5.382 14.956 13.767 19.33 18.633 9.779 10.879 26.351 27.324 27.616 27.404 1.722.11-11.555-19.009-17.836-25.686-4.219-4.485-3.487-2.648 1.436 3.598 5.126 6.507 10.151 14.224 8.186 12.572-4.103-3.446-9.79-9.231-17.174-17.471-7.455-8.321-9.469-12.017-5.831-10.699.943.341 4.579 1.357 8.081 2.257 5.182 1.331 7.15 2.446 10.575 5.992 8.759 9.064 16.672 20.365 24.167 34.516 5.634 10.638 11.748 24.903 10.202 23.806-2.025-1.437-.739 7.313 2.421 16.474 3.173 9.196 12.553 24.373 20.464 33.105 7.115 7.855 6.872 8.49-8.147 21.323-12.511 10.691-17.662 14.387-18.584 13.34-.264-.301-.505-3.647-.533-7.434-.099-13.105-1.267-18.768-6.541-31.713-2.85-6.995-5.436-12.495-5.746-12.221-.311.273 1.021 4.529 2.958 9.458 1.937 4.929 3.512 9.137 3.498 9.353-.014.215-5.155-4.021-11.424-9.415-6.27-5.394-11.412-9.614-11.427-9.379-.015.236 4.573 4.549 10.195 9.587 13.769 12.336 13.648 12.107 6.15 11.629-7.467-.476-11.69 1.216-30.743 12.315l-13.253 7.72-4.323-2.659-4.325-2.66-15.583 4.269c-18.882 5.171-32.761 8.117-37.043 7.862-1.75-.106-6.197-1.068-9.884-2.14-7.059-2.054-19.291-5.938-19.714-6.262-.137-.105.604-2.123 1.646-4.484 1.042-2.362 2.099-5.31 2.348-6.55.965-4.819 3.668-12.011 4.494-11.959.478.031.515.554.083 1.163-.498.701-.329.863.462.44.956-.509.996-1.012.169-2.147-.832-1.144-.741-1.849.399-3.084 1.274-1.381 1.264-1.493-.076-.815-1.247.632-1.312.518-.329-.58.674-.751 1.968-4.564 2.876-8.471 1.005-4.32 2.336-7.573 3.4-8.301 1.578-1.079 1.599-1.029.217.516-1.482 1.657-3.682 14.896-3.158 19.01.495 3.89 14.177-17.013 24.225-37.012l4.635-9.224-.999 6.95c-1.678 11.675-8.512 48.031-10.741 57.143-2.335 9.538-2.227 14.355.128 5.81 3.856-13.983 9.954-47.148 11.93-64.873l1.441-12.934-5.051-8.422c-2.778-4.632-7.433-13.721-10.345-20.198-2.912-6.479-5.351-11.014-5.419-10.081-.07.935 1.425 5.16 3.318 9.389 1.894 4.229 3.161 7.938 2.815 8.242-.346.305-.105.588.535.629.641.04 1.132.578 1.093 1.194-.052.824-.407.803-1.34-.077-.697-.658-1.657-.887-2.132-.508-.475.377-.55.21-.166-.374.383-.583.09-1.954-.65-3.047-1.172-1.729-1.282-1.753-.846-.189.275.989-.025 2.357-.669 3.038-.643.682-1.013 2.343-.823 3.692.191 1.349-.128 4.678-.709 7.396-.94 4.397-1.05 3.671-1.001-6.577.034-7.149-.497-13.186-1.402-15.912-1.906-5.748-2.482-5.082-1.023 1.184 1.334 5.732.544 21.961-1.592 32.718a3838.328 3838.328 0 0 0-3.81 19.588c-2.604 13.557-5.849 25.563-11.183 41.373-1.911 5.665-3.689 11.413-3.949 12.775-.436 2.275-.875 2.445-5.461 2.108-4.859-.357-5.15-.559-11.379-7.934-3.516-4.163-7.343-7.778-8.506-8.035-2.069-.454-7.86.56-22.677 3.971-6.754 1.556-7.557 2.02-9.721 5.631-1.297 2.164-3.357 4.886-4.579 6.048-2.802 2.667-5.91 2.604-5.737-.115.07-1.098.479-1.974.91-1.946.725.046 4.538-4.927 4.607-6.009.017-.264-3.656.2-8.162 1.031l-8.192 1.511-7.157 8.553c-8.127 9.711-7.31 10.015-10.179-3.793-1.968-9.478-1.138-12.779 4.733-18.831 2.531-2.609 5.181-6.176 5.89-7.928.709-1.751 2.648-6.208 4.31-9.903 3.759-8.363 3.855-9.917 1.195-19.491-3.335-12.006-3.007-19.043 1.347-28.912 3.45-7.816 13.121-23.351 14.482-23.26.359.024 1.73 2.027 3.045 4.453l2.392 4.409-9.19 15.784c-10.461 17.968-11.434 21.815-7.878 31.13 2.506 6.563 3.537 5.611 1.333-1.23-2.987-9.265-2.18-12.387 7.432-28.734 8.171-13.896 9.871-15.63 10.498-10.704.137 1.082 1.18 3.803 2.318 6.046 1.977 3.896 2.997 7.657 1.667 6.146-.346-.394-.628-1.017-.626-1.383.002-.368-.64-2.062-1.427-3.766l-1.432-3.097-.687 2.461c-.377 1.354-1.394 5.347-2.258 8.874-1.652 6.74-1.543 7.355 4.43 24.948 1.342 3.952 13.711 13.961 26.757 21.651 7.262 4.282 7.015 2.785-.322-1.954-3.446-2.226-6.545-4.574-6.889-5.219-.369-.693-.198-.868.42-.43 1.13.803.769-1.306-1.616-9.435-2.212-7.539-22.359-56.366-25.139-60.928-1.236-2.028-1.068-2.704 1.949-7.839 1.815-3.091 5.55-8.655 8.3-12.364 2.749-3.71 4.713-7.279 4.364-7.934-.367-.688-.213-.889.368-.477.964.683 4.92-3.549 5.095-5.45.089-.973 7.762-.466 23.592 1.557 6.938.887 9.783.906 10.377.07.45-.635 1.838-7.477 3.084-15.205 2.72-16.864 2.781-17.525 1.628-17.599-.497-.032-1.497 4.188-2.22 9.378-1.168 8.382-1.528 9.422-3.223 9.314-1.05-.067-2.246.613-2.658 1.511-.678 1.479-.799 1.455-1.277-.247-.289-1.034-1.162-2.026-1.938-2.206-2.622-.606-6.57-2.727-7.171-3.853-.327-.615-1.025-.889-1.55-.609-.524.28-.686-.074-.359-.787.326-.713-.066-2.226-.873-3.364-.808-1.138-1.258-1.56-1.001-.94.258.621-1.008 2.344-2.812 3.829l-3.28 2.7 1.999-2.879c7.612-10.963 13.201-17.322 10.056-11.442-.732 1.368-1.119 2.728-.86 3.023.26.294 4.523-1.465 9.477-3.91 4.952-2.444 9.32-4.416 9.706-4.382.386.035 3.086 1.567 6 3.406Zm107.749 7.377c-.008.116-.644.67-1.415 1.231-1.047.762-1.38.686-1.317-.296a1.329 1.329 0 0 1 1.415-1.23c.731.047 1.324.179 1.317.295Zm-102.077-2.041c-.035.549-.464.973-.953.942-.488-.031.994 3.239 3.294 7.266 3.472 6.077 4.267 6.944 4.675 5.091.27-1.229.009-2.429-.581-2.669-1.767-.717-1.047-3.124 1.247-4.17 3.847-1.753 4.947-.232 4.533 6.262-.282 4.433-.806 6.173-2.033 6.762-1.483.71-1.459 1.24.242 5.171 2.492 5.766 1.656 6.365-1.023.734-3.904-8.204-11.427-21.203-13.604-23.508-1.315-1.389-2.9-2.118-4.011-1.841-1.011.251-1.808-.023-1.77-.609.039-.612 2.186-.93 5.057-.747 2.745.175 4.962.768 4.927 1.316Zm99.968 10.792c-1.109.708-2.286 1.094-2.617.859-.331-.234-1.462.41-2.512 1.432-1.052 1.022-2.628 1.806-3.502 1.742-1.254-.092-1.297-.278-.205-.877.763-.418 1.487-1.154 1.607-1.636a.767.767 0 0 1 1.057-.537c.46.187 1.495-.141 2.301-.727.806-.587 1.442-.698 1.413-.245-.029.451.521.315 1.222-.301.7-.617 1.719-1.093 2.263-1.059.543.035.082.642-1.027 1.349Zm-141.405-5.75c-.046.456-.813 1.676-1.705 2.711-1.573 1.828-1.604 1.814-1.095-.518.475-2.177 3-4.155 2.8-2.193Zm-6.598.81c.273.511-.168 1.137-.98 1.39-.985.308-1.26-.009-.828-.95.75-1.636 1.123-1.726 1.808-.44Zm137.256 9.232c-.013.207-.85.943-1.858 1.635-1.662 1.14-1.694 1.103-.353-.401 1.41-1.58 2.263-2.055 2.211-1.234Zm-58.832 2.134c.407 9.068 3.245 32.494 4.817 39.769 1.272 5.883 1.924 6.837 11.677 17.086 5.682 5.969 13.312 13.608 16.955 16.975 26.038 24.068 36.501 33.911 40.177 37.793l4.225 4.463-3.763-3.071c-2.07-1.688-10.438-9.356-18.595-17.041-8.158-7.684-18.439-17.216-22.848-21.183-4.408-3.966-12.454-12.024-17.878-17.907l-9.863-10.696-2.004-10.898c-1.784-9.702-5.177-37.182-4.992-40.433.04-.686.463-1.223.941-1.193.478.031.995 2.882 1.151 6.336Zm-81.696-7.168c-.438.961-1.032 1.479-1.319 1.152-.288-.326.07-1.112.795-1.746 1.049-.915 1.155-.793.524.594Zm108.37 11.941c1.957 4.91 8.073 27.148 8.466 30.784l.327 3.027-2.11-2.138c-2.1-2.128-11.079-16.572-12.893-20.74-1.575-3.619.597-.598 6.568 9.133 3.103 5.058 5.819 9.04 6.035 8.851.468-.413-6.407-26.448-7.782-29.462-.525-1.154-.741-2.287-.478-2.517.263-.232 1.103 1.147 1.867 3.062Zm-110.155-7.756c-.122 1.16-.374 1.381-.641.566-.243-.739-.152-1.598.2-1.908.353-.311.551.293.441 1.342Zm-1.439 2.99c-.385.338-.201 1.364.407 2.28.606.917.718 1.293.247.836-.471-.457-3.17 1.175-5.998 3.626-2.828 2.451-5.461 4.435-5.851 4.41-.391-.025-.59.414-.442.974.149.561-.047.661-.434.221-.386-.439-1.686-.088-2.888.779-1.202.868 1.631-1.881 6.297-6.11 4.665-4.228 8.68-7.674 8.921-7.659.242.015.125.305-.259.643Zm-4.98 5.286c-2.613 2.452-4.882 4.448-5.042 4.438-.75-.048.1-.893 4.77-4.748l5.024-4.147-4.752 4.457Zm55.564 5.98c-1.499.802-3.534 2.647-4.52 4.098-3.788 5.57-2.191 17.422 3.015 22.362 3.85 3.654 4.708 3.808 4.915.878.113-1.61.373-1.853.917-.859.607 1.107.907 1.063 1.495-.219.404-.882 1.14-1.317 1.635-.965.495.351 1.215.192 1.601-.352.387-.545 1.172-.658 1.744-.252.59.42.785.261.45-.367-.324-.608-1.718-1.054-3.097-.991-2.333.107-2.489-.19-2.231-4.239.256-4.015.913-4.825 3.477-4.286.957.201-1.206-8.724-2.568-10.595-.61-.84-1.84-1.588-2.732-1.663-1.364-.114-1.299-.349.407-1.477 1.118-.737 2.362-1.32 2.765-1.295.911.058 5.494 14.607 6.123 19.429.254 1.945.632 4.337.842 5.314.23 1.076-.163 1.744-.998 1.69-.757-.048-2.753 1.178-4.436 2.724-1.683 1.546-3.76 2.764-4.619 2.707-2.658-.175-7.297-4.018-10.591-8.772-1.733-2.502-2.721-4.244-2.193-3.869.608.43 1.141-2.183 1.457-7.142.465-7.292.71-8.015 3.625-10.696 1.719-1.581 3.827-2.819 4.684-2.749.998.081.578.651-1.167 1.586Zm-68.69 5.414c-.051.799-.452 1.198-.892.886-1.064-.755-1.399 5.235-.517 9.26.609 2.781.341 3.498-2.008 5.376-1.49 1.193-2.35 1.628-1.911.967 2.397-3.609-7.079 1.942-12.621 7.392-2.484 2.443-4.899 4.168-5.369 3.834-.471-.334-1.764.34-2.876 1.496l-2.022 2.102 2.622-1.821c2.189-1.522 2.104-1.321-.516 1.22-3.133 3.035-5.201 4.251-2.668 1.567.843-.894.945-1.443.276-1.485-.583-.038-1.387.391-1.785.953-.869 1.223-4.342-1.995-4.22-3.909.068-1.072 33.106-29.386 34.208-29.316.215.014.35.679.299 1.478Zm10.762 2.042c-.296 1.14-1.839 3.7-3.429 5.69-2.233 2.795-2.685 3.061-1.987 1.17.497-1.346.944-3.001.992-3.676.048-.677 1.184-2.136 2.525-3.243l2.437-2.014-.538 2.073Zm79.498 8.855c.833 2.76 2.776 9.033 4.319 13.941 1.542 4.909 2.728 9.719 2.636 10.689-.092.972-2.194-4.902-4.672-13.051-2.477-8.149-4.345-15.216-4.15-15.706.193-.489 1.034 1.369 1.867 4.127Zm41.884 9.442c4.023 5.96 9.571 13.641 12.329 17.069 2.758 3.428 8.908 11.441 13.665 17.806 4.758 6.366 14.26 18.921 21.116 27.9 15.18 19.883 17.181 22.797 9.415 13.705-8.556-10.013-56.624-73.963-61.069-81.244-5.89-9.651-3.48-7.122 4.544 4.764Zm-121.954-17.764c-.013.207-.85.943-1.858 1.636-1.662 1.139-1.694 1.102-.353-.402 1.41-1.579 2.263-2.055 2.211-1.234Zm44.391 9.892c1.166 1.411 1.818 2.993 1.448 3.514-.371.521-.248 1.126.271 1.344 1.851.776-6.566 110.541-8.614 112.344-.294.259.001-8.475.655-19.41.655-10.935 1.054-20.792.885-21.905-.383-2.53-1.018-12.997-2.199-36.213-.506-9.953-1.449-22.187-2.095-27.189-.646-5.001-.935-9.836-.642-10.745.43-1.331 5.996-4.445 7.747-4.333.233.015 1.378 1.182 2.544 2.593Zm-1.886.013c1.605 2.206 1.813 3.482 2.028 12.438.097 4.053-.175 7.556-.605 7.786-.431.23-.624-2.192-.429-5.381.251-4.111.044-5.381-.709-4.363-.793 1.071-1.041.419-.976-2.567.13-5.948.09-6.295-.826-7.246-.492-.511-.548-.231-.134.672.577 1.258.473 1.298-.554.215-.878-.925-.926-1.631-.159-2.307.769-.676 1.492-.446 2.364.753Zm-4.931 2.212c-.439 1.327-.92 1.751-1.122.987-.193-.735.152-1.78.77-2.324.787-.694.892-.295.352 1.337Zm-49.251-1.839c-.014.207-.85.943-1.858 1.636-1.662 1.139-1.695 1.102-.353-.402 1.41-1.579 2.263-2.055 2.211-1.234Zm48.618 6.311c-.122 1.159-.374 1.381-.642.565-.242-.739-.151-1.598.201-1.908.353-.31.551.293.441 1.343Zm128.144 21.361c8.238 16.06 9.472 18.925 13.201 30.651 1.61 5.063 4.292 13.012 5.959 17.665 1.668 4.654 2.673 8.437 2.233 8.409-.888-.057-6.912-16.64-9.477-26.091-1.813-6.678-7.848-20.388-15.253-34.65-2.65-5.104-4.507-9.26-4.127-9.236.379.024 3.739 5.988 7.464 13.252Zm-184.29-19.619c-.057.899-2.053 1.829-3.272 1.525-.364-.091-2.004.874-3.644 2.146l-2.984 2.311 3.101-3.019c1.706-1.661 3.467-2.761 3.913-2.443.447.316.843.099.88-.482.037-.58.516-1.028 1.065-.993.549.035.972.465.941.955Zm57.123 7.005c.171.7.478 2.928.683 4.953.394 3.918 2.37 6.605 4.156 5.653.741-.396.589 6.598-.483 22.178l-1.567 22.755-.868-14.584c-.476-8.022-.985-17.073-1.128-20.113-.144-3.04-.626-9.27-1.074-13.846-.723-7.399-.594-10.588.281-6.996Zm-84.594 7.384c.305.57.077 1.007-.503.97-.581-.037-1.029-.517-.994-1.066.035-.548.262-.985.504-.969.243.015.689.494.993 1.065Zm159.776 19.83c6.907 17.55 10.731 28.532 13.3 38.209 3.125 11.761 7.171 33.359 6.637 35.419-.222.854-1.534-4.587-2.915-12.091-3.673-19.955-6.489-29.787-14.565-50.874-3.978-10.386-7.057-19.318-6.842-19.848.215-.53 2.188 3.603 4.385 9.185Zm-170.346-4.671c3.646 4.042 9.638 7.76 17.432 10.815 2.957 1.158 5.658 2.408 6.004 2.775.344.368.798 2.934 1.008 5.703l.383 5.035-3.204-3.461c-1.762-1.904-3.522-3.481-3.913-3.506-.39-.025-2.484-1.511-4.652-3.303-3.871-3.198-6.248-4.296-5.25-2.424.278.522-.075 1.163-.784 1.423-.844.312-.769.449.22.398 2.602-.136 7.188 3.332 11.766 8.898l4.413 5.364-.694 8.577-.693 8.577-4.859-10.67c-3.382-7.429-6.908-13.153-11.604-18.842-6.704-8.121-11.441-17.054-9.687-18.268.505-.349 2.356.96 4.114 2.909Zm276.035 17.433c5.401 1.728 15.972 4.838 23.493 6.911 7.519 2.073 13.93 4.078 14.245 4.456.315.378-.758.345-2.385-.074-1.627-.418-8.33-1.364-14.896-2.104-14.138-1.592-22.165-2.809-24.687-3.741-1.023-.379-1.606-.248-1.316.296.286.536-.133.934-.933.883-.799-.051-1.426-.515-1.393-1.03.033-.516-.978-2.343-2.246-4.061-4.333-5.87-3.72-5.963 10.118-1.536Zm-11.659 4.237c.551 1.627.908 3.29.793 3.697-.114.406.192.763.682.795.976.062 2.247 4.918 1.797 6.867-.156.672.143 2.156.663 3.299.521 1.141.691 2.059.377 2.039-1.303-.083-6.789-18.359-5.778-19.249.254-.223.913.925 1.466 2.552Zm-206.551-14.528c.033.139.162 1.075.287 2.078.183 1.466-.033 1.577-1.103.568-.733-.692-1.06-1.64-.729-2.107.57-.803 1.412-1.097 1.545-.539Zm1.237 5.572c-.39.549-.076 1.595.698 2.326.774.73 1.325 2.056 1.225 2.947-.152 1.354-.256 1.368-.637.087-.251-.842-1.053-2.314-1.782-3.271-1.02-1.336-1.035-1.894-.062-2.413.759-.404.982-.275.558.324Zm261.728 17.851 4.453.885-5.515 1.903c-7.066 2.438-10.11 2.192-19.948-1.608-4.42-1.707-8.724-2.888-9.567-2.625-.964.301-1.247.08-.767-.597.732-1.032 5.781-.538 22.317 2.181 4.012.661 5.076.591 4.025-.261-.786-.638-.984-1.07-.44-.96l5.442 1.082Zm7.351 2.573c-.374.527-1.129.93-1.678.895-.549-.035-.692-.495-.318-1.022.375-.528 1.13-.93 1.679-.895.549.035.692.495.317 1.022Zm-54.455-1.216c.033.139.161 1.075.287 2.078.183 1.466-.033 1.577-1.103.568-.733-.692-1.06-1.64-.729-2.106.57-.804 1.412-1.098 1.545-.54Zm56.417 9.736c-.013.206-.848.943-1.857 1.635-1.662 1.14-1.695 1.102-.353-.401 1.41-1.58 2.263-2.055 2.21-1.234Zm-58.657.614c3.185 4.849 3.472 6.141.514 2.316-1.568-2.029-2.847-4.027-2.843-4.44.011-1.182.375-.85 2.329 2.124Zm62.756 7.681c-.193.914-3.562 4.507-7.484 7.986-3.922 3.48-6.806 6.733-6.409 7.231.397.496.145.518-.562.047-.978-.652-.499-1.571 1.998-3.839 1.806-1.64 3.312-3.429 3.347-3.974.035-.546 2.179-2.819 4.763-5.052 2.895-2.5 4.565-3.422 4.347-2.399Zm-2.81 2.932c-1.377 1.29-2.728 2.331-3.002 2.313-.275-.017.627-1.087 2.004-2.377 1.377-1.29 2.728-2.331 3.002-2.314.275.018-.627 1.088-2.004 2.378Zm-194.629-12.022c-.035.549-.531 1.247-1.101 1.551-.571.304-1.009.104-.974-.445.035-.549.53-1.247 1.101-1.551.57-.304 1.009-.104.974.445Zm-2.255 3.923c-.032.517-.521 1.186-1.085 1.486-.587.314-.73-.097-.333-.964.774-1.686 1.51-1.957 1.418-.522Zm147.054 12.688 2.725 3.431-3.057-3.138c-2.849-2.925-3.476-3.792-2.705-3.743.172.011 1.539 1.563 3.037 3.45Zm-153.144-7.453c.206 1.637-.02 3.59-.504 4.337-1.364 2.113-2.129-2.233-.885-5.033.996-2.245 1.02-2.234 1.389.696Zm-86.113-4.97c7.524 1.4 25.815 7.852 32.978 11.635 1.68.888 3.512 1.643 4.072 1.679 1.19.076 12.321 13.866 12.239 15.161-.031.484-1.704-.812-3.719-2.879-3.385-3.474-4.29-3.849-11.959-4.958-9.95-1.439-34.13-1.465-38.431-.042-1.689.559-3.251.939-3.472.846-.22-.094-2.112 2.981-4.203 6.833-5.114 9.42-5.707 8.013-.713-1.692 4.476-8.698 4.81-10.512 2.966-16.134-1.268-3.866-1.223-4.091 1.547-7.661 1.57-2.023 2.943-3.706 3.051-3.74.108-.033 2.648.396 5.644.952Zm287.439 37.076c.795 1.564 3.24 5.165 5.434 8.003l3.989 5.159-4.047-.807c-6.578-1.313-9.143-3.85-8.814-8.719.393-5.835 1.647-7.162 3.438-3.636Zm-9.063 13.04c-.013.206-.849.943-1.858 1.635-1.662 1.14-1.694 1.102-.353-.401 1.41-1.58 2.263-2.055 2.211-1.234Zm-65.552-3.888c.343.388.563 1.417.492 2.285-.108 1.296-.3 1.241-1.074-.31-.957-1.917-.558-3.271.582-1.975Zm-161.36-4.189 5.089 6.086-5.39-5.821c-5.008-5.407-5.812-6.417-5.071-6.369.155.01 2.574 2.756 5.372 6.104Zm67.529 36.263c2.94.844 7.514 7.336 7.824 11.105.149 1.812-1.295 6.815-3.589 12.437-6.252 15.318-10.91 28.01-16.395 44.678-7.125 21.648-7.247 21.821-18.49 26.199-9.684 3.77-9.35 3.435-11.403 11.449-.47 1.831.213 3.413 2.744 6.358 3.072 3.575 3.284 4.254 2.408 7.696-2.359 9.281-14.842 43.634-20.28 55.809l-2.243 5.026-4.674-3.598c-6.168-4.748-14.349-6.748-25.192-6.16-4.424.239-9.587.79-11.473 1.223l-3.43.788.917-4.167c1.602-7.288 7.952-22.866 14.519-35.624 3.5-6.797 8.444-16.736 10.986-22.085 2.543-5.349 6.102-12.303 7.91-15.452 3.19-5.561 3.288-6.036 3.332-16.322.053-12.169.846-15.126 7.677-28.645 4.059-8.033 5.76-10.211 13.188-16.887l8.53-7.663.18-6.546c.098-3.6.576-7.091 1.06-7.758.486-.666.909-1.515.941-1.887.107-1.239 9.224-6.481 15.018-8.634 5.585-2.075 15.134-2.717 19.935-1.34Zm-107.806 63.377c-2.683 3.298-4.991 5.02-10.041 7.49l-4 1.958.913-3.592c2.032-7.99 3.765-9.209 12.322-8.663l2.937.187-2.131 2.62Zm-132.437 62.773c-3.421 1.295-12.049 5.886-14.455 7.692l-2.565 1.925 2.351-3.357c2.637-3.764 9.704-7.434 13.626-7.078 1.745.159 2.083.425 1.043.818Zm-4.957 7.035c-2.94 2.885-7.226 8.456-9.526 12.378-6.236 10.641-11.528 21.151-10.968 21.787.272.309 2.402-.065 4.732-.829 3.514-1.153 4.728-1.15 7.105.018 1.578.774 3.375 2.18 3.996 3.125.949 1.446.919 1.506-.192.381-1.909-1.934-11.329-2.339-13.008-.56-1.108 1.175-1.052 1.816.312 3.53 1.527 1.92 1.33 1.886-2.339-.417-2.204-1.383-3.78-2.951-3.503-3.484.277-.533 2.791-5.559 5.588-11.167 7.802-15.646 13.378-23.575 19.344-27.502 3.45-2.272 3.306-2.017-1.541 2.74Zm14.983 24.328c-.072 1.125-10.083 16.911-10.7 16.872-.275-.018 1.87-3.826 4.765-8.464 5.788-9.273 6.01-9.586 5.935-8.408Zm-32.657 18.781c4.977 4.023 10.774 10.115 10.702 11.248-.037.589-2.82-1.301-6.183-4.201-3.363-2.9-7.046-5.635-8.185-6.078-1.138-.442-1.874-1.29-1.634-1.882.743-1.829 2.222-1.575 5.3.913Zm-.662 8.749c3.667 2.99 7.296 5.867 8.063 6.392 1.164.798 1.16 1.204-.03 2.465-1.972 2.09-2.515 1.879-4.323-1.682-1.072-2.111-2.363-3.156-4.03-3.263-2.965-.189-9.654-6.787-8.512-8.397 1.166-1.643 1.564-1.44 8.832 4.485Zm-19.227-4.909c-.025.402-.64 1.678-1.365 2.836-.726 1.157-2.544 5.408-4.042 9.446l-2.721 7.342.231-4.701c.175-3.54 1.08-5.957 3.668-9.787 3.773-5.583 4.299-6.221 4.229-5.136Zm-5.676 3.576c-1.665 1.917-3.23 3.473-3.476 3.457-.693-.044 3.999-5.607 5.327-6.315.647-.345-.185.941-1.851 2.858Zm8.202 12.364c-.42 6.046-.415 6.057 4.563 11.259 2.74 2.863 6.389 5.749 8.108 6.414 3.117 1.203 3.117 1.205.165.494-1.628-.392-3.403-.839-3.945-.994-1.788-.513-2.126 1.411-.46 2.616 1.169.845 2.807.95 5.738.364 2.258-.451 4.084-.545 4.061-.21-.147 2.096-4.808 6.872-7.123 7.299-5.696 1.05-14.906-7.476-14.526-13.446.149-2.328 2.093-2.686 3.836-.706 2.193 2.491 2.207.154.025-4.297-2.205-4.5-2.633-11.262-.866-13.686.465-.638.655 1.565.424 4.893Zm27.494-.816c-.122 1.16-.373 1.381-.641.565-.242-.739-.152-1.598.201-1.908.352-.31.55.294.44 1.343Zm-42.022.245c-.632 10.96 3.955 26.274 9.737 32.506 2.638 2.842 3.019 2.958 7.074 2.138 5.337-1.078 6.482-.222 1.456 1.089-4.706 1.227-9.624-.011-12.06-3.037-6.281-7.8-10.774-31.131-6.982-36.253.766-1.033.983-.038.775 3.557Zm33.675 2.395c3.266 1.894 3.283 2.122.639 8.018-1.212 2.703-4.896 6.001-6.542 5.856-.71-.063-.485-.491.522-.996 2.118-1.059 1.625-3.617-1.207-6.26-1.988-1.855-1.987-1.858.864-1.699 2.672.15 2.844-.066 2.67-3.359-.102-1.935-.164-3.488-.14-3.452.025.037 1.462.889 3.194 1.892Zm7.215.402c-.037.444-.545 1.452-1.129 2.242-.916 1.237-1.05 1.202-.971-.253.051-.929.559-1.938 1.13-2.242.57-.304 1.007-.19.97.253Zm-5.907 11.457c-.712 1.332-1.683 2.397-2.157 2.367-.473-.03-.053-1.13.933-2.445.987-1.315 1.958-2.381 2.157-2.368.2.013-.22 1.113-.933 2.446Zm185.846 105.534c1.177.873 1.061 1.042-.655.945-1.15-.065-4.721.603-7.934 1.486-6.438 1.765-7.268.452-1.407-2.226 3.883-1.775 7.768-1.854 9.996-.205Zm-26.934-1.902c-.05.787-6.588 3.779-8.034 3.677-.393-.029.703-1.07 2.436-2.314 3.158-2.268 5.695-2.887 5.598-1.363Zm39.735 9.361c4.053 1.482 1.011 2.44-6.273 1.975-9.433-.601-11.339.014-22.132 7.141-19.622 12.957-30.837 17.814-38.838 16.82l-5.262-.654 5.044-.523c5.611-.583 20.05-6.328 27.876-11.092 23.139-14.088 24.123-14.543 31.199-14.413 3.67.066 7.444.403 8.386.746Zm-57.716 5.494c-.028.432-1.563 1.532-3.413 2.447l-3.362 1.665 2.965-2.476c3.108-2.595 3.892-2.932 3.81-1.636Zm-19.623.558c1.01.842 2.758 1.636 3.884 1.764 1.193.136.605.479-1.407.819-3.963.672-6.1-.022-5.977-1.941.132-2.07 1.488-2.319 3.5-.642Z" clip-rule="evenodd"/></svg>