<svg xmlns="http://www.w3.org/2000/svg" width="436" height="903" fill="none"><path fill="#FA007A" fill-rule="evenodd" d="M76.702 1.627c-1.035 1.247-1.37 5.488-1.362 17.25.009 13.718.286 16.364 2.3 21.964 1.26 3.501 2.072 6.584 1.806 6.851-.267.266-2.24-.503-4.385-1.708-2.145-1.206-4.987-2.039-6.316-1.85-2.011.283-2.468.99-2.733 4.22-.175 2.132.244 5.282.93 7 1.665 4.163 6.83 11.8 9.08 13.427 2.466 1.782 2.272 3.19-.442 3.208-3.993.027-5.088 1.431-4.505 5.78.729 5.432 7.66 14.607 14.023 18.563l5.039 3.132-3.403 1.005c-4.897 1.446-5.904 2.315-5.904 5.094 0 1.538-2.045 4.881-5.415 8.854-5.918 6.976-8.602 12.212-10.558 20.592-1.466 6.282-3.7 9.115-10.027 12.716-6.375 3.629-14.744 11.934-17.563 17.43-1.32 2.574-3.505 9.357-4.856 15.072-1.35 5.716-3.191 12.231-4.09 14.478-1.547 3.867-1.993 4.18-8.313 5.85-9.41 2.485-16.82 5.879-18.114 8.299-1.937 3.62-2.334 25.533-.708 39.12 5.756 48.12 28.609 76.06 69.144 84.535 3.85.805 8.93 1.464 11.29 1.464 5.154.001 9.597 2.915 12.203 8.001 1.174 2.293 2.194 7.933 2.954 16.349 4.022 44.493 19.791 89.792 41.256 118.518 8.387 11.224 20.415 23.038 30.61 30.063 12.073 8.321 24.155 21.553 30.652 33.57 7.982 14.766 7.67 9.829 7.026 111.187-1.18 185.761-.908 176.713-5.491 182.903-3.403 4.596-14.408 10.501-25 13.416-3.575.983-9.65 2.703-13.5 3.821-8.587 2.495-26.901 6.753-35 8.139-3.3.564-8.025 1.483-10.5 2.042-2.475.558-7.415 1.473-10.978 2.032-12.134 1.904-27.827 6.64-30.772 9.286-1.237 1.113-2.248 3.182-2.245 4.598.009 4.451 3.839 7.668 12.995 10.911 8.195 2.902 10.603 3.49 27 6.589 7.375 1.393 26.134 3.698 33 4.054 1.925.1 8.225.502 14 .893 27.969 1.893 81.582 2.242 104 .677 23.733-1.657 41.456-3.127 43-3.566.825-.235 4.425-.696 8-1.025 3.575-.329 7.85-.992 9.5-1.473 1.65-.482 6.6-1.636 11-2.566 20.404-4.312 30.452-12.572 23.25-19.113-3.417-3.104-25.937-9.196-39.75-10.753-1.375-.155-5.2-.975-8.5-1.821-3.3-.847-8.25-1.835-11-2.195-2.75-.36-8.15-1.467-12-2.459a664.818 664.818 0 0 0-12.5-3.085c-3.025-.704-10.9-3.054-17.5-5.223-17.686-5.81-24.387-10.332-27.515-18.571-1.614-4.248-1.752-8.005-1.448-39.198.185-18.975.591-75.9.903-126.5.312-50.6.852-95.375 1.201-99.5.349-4.125 1.406-9.846 2.35-12.713 4.455-13.533 19.125-32.125 36.423-46.159 4.997-4.055 10.661-8.797 12.586-10.539 5.22-4.724 21-23.518 21-25.011 0-.297 1.594-3.03 3.541-6.075 5.387-8.421 13.478-25.538 17.519-37.063 7.896-22.519 13.116-47.518 15.545-74.44 1.123-12.448 5.618-17.273 17.068-18.323 14.633-1.343 29.326-6.524 41.005-14.461 24.323-16.53 37.993-48.569 38.1-89.297.048-18.259-.44-20.775-4.572-23.559-5.114-3.446-18.706-7.183-32.956-9.06-2.599-.343-4.25-1.079-4.25-1.896 0-.734-1.623-4.287-3.606-7.895l-3.606-6.56 2.223-5.475c3.433-8.46 2.601-16.136-2.752-25.383-2.291-3.957-5.147-9.983-6.346-13.392-3.638-10.34-5.904-14.438-10.381-18.777-3.857-3.738-16.524-11.922-18.452-11.922-2.042 0-8.569-7.95-11.542-14.06-6.351-13.05-9.805-16.09-23.28-20.486-11.665-3.806-24.031-10.243-28.656-14.917-2.256-2.28-6.615-6.839-9.686-10.13-7.393-7.924-15.887-12.26-33.916-17.315-7.975-2.236-17.65-4.99-21.5-6.12-14.935-4.387-29.867-4.239-39.988.394-2.906 1.33-8.689 4.717-12.852 7.526-8.004 5.401-9.66 6.023-9.66 3.626 0-.816-1.959-3.527-4.353-6.026-4.457-4.652-6.62-5.084-9.259-1.85-.896 1.098-1.636.607-3.806-2.524-3.534-5.099-12.539-13.652-15.295-14.527-2.676-.849-5.802 3.212-4.829 6.276.343 1.081.155 2.254-.417 2.608-.573.354-1.041.17-1.041-.408 0-1.594-12.873-9.817-19.048-12.167C96.721 3.947 81.771.058 79.202 0c-.62-.014-1.745.718-2.5 1.627Zm2.563 9.02c-1.144 9.16.134 22.191 3.02 30.79 1.967 5.858 2.33 8.09 1.485 9.11-2.105 2.536-4.708 2.517-9.34-.069-4.113-2.296-4.598-2.38-4.578-.786.038 3.112 3.53 9.596 8.33 15.465 2.557 3.125 4.648 6.557 4.648 7.627 0 2.782-2.53 4.525-5.487 3.783-3.054-.767-3.156.226-.547 5.34 2.353 4.613 8.622 10.183 14.648 13.016 3.698 1.738 4.386 2.516 4.386 4.958 0 2.351-.594 3.105-3.15 3.995-1.731.604-4.094 1.116-5.25 1.138-3.824.072 6.672 8.443 16.921 13.496 5.515 2.719 9.479 5.284 9.479 6.134 0 2.378-1.958 5.33-3.535 5.33-2.804 0-1.434 2.517 2.787 5.122 7.751 4.784 15.872 6.887 32.498 8.415 8.025.737 8.953-.061 5.41-4.652-9.885-12.81-16.195-35.916-11.419-41.813 1.615-1.995 2.212-2.168 4.064-1.176 2.156 1.154 2.171 1.101 2.026-7.617-.224-13.525 3.276-19.965 8.419-15.49 1.61 1.4 1.75 1.307 1.75-1.159 0-3.917 3.634-13.612 6.078-16.213 1.534-1.633 1.913-2.885 1.386-4.582-1.321-4.255-6.678-14.279-9.64-18.038-2.894-3.674-2.933-3.688-4.871-1.75-3.317 3.317-3.248 3.365-15.398-10.512l-5.944-6.79-1.056 4.378c-1.465 6.077-4.085 6.294-10.559.874-7.834-6.559-25.385-13.997-33.03-13.997-2.681 0-2.857.283-3.531 5.673Zm127.909 26.37c-3.949 1.826-8.788 5.375-13.497 9.901-4.038 3.881-7.889 7.056-8.559 7.056-1.624 0-3.288-3.257-3.288-6.434 0-1.41-.441-2.566-.98-2.566-1.256 0-6.782 9.642-7.563 13.197-.813 3.702-4.288 4.73-6.55 1.937l-1.717-2.12-2.225 3.742c-1.602 2.694-2.305 5.676-2.508 10.631-.274 6.676-1.179 8.56-4.134 8.598-.648.008-2.059-1.105-3.136-2.475l-1.959-2.49-.6 2.24c-.331 1.232-.607 6.8-.614 12.373-.013 9.028-.217 10.187-1.872 10.62-1.022.267-2.561.092-3.419-.388-2.236-1.252-3.021 3.249-1.768 10.135 1.215 6.679 9.791 24.134 15.757 32.07l4.358 5.798 5.715-1.963c3.143-1.08 10.352-4.278 16.019-7.107 8.137-4.061 12.134-6.866 19.01-13.339 9.641-9.075 12.26-12.785 10.366-14.679-1.982-1.982-1.331-4.843 1.952-8.583 1.722-1.961 4.175-5.819 5.45-8.572 2.287-4.935 2.292-5.025.369-6.372-2.51-1.758-2.438-3.257.566-11.753 1.361-3.85 2.476-7.1 2.479-7.225.002-.124-1.291.034-2.875.351-1.829.366-3.172.101-3.683-.727-.443-.716-.873-6.949-.956-13.85-.134-11.218-1.259-17.96-3.368-20.2-.338-.358-3.384.63-6.77 2.194Zm175.459 149.629c-.906 1.005-1.971 3.127-2.368 4.714-.414 1.66-4.906 7.293-10.577 13.264l-9.858 10.379v10.908l8.25-.606c4.538-.333 8.925-.931 9.75-1.329.825-.397 3.736-.793 6.469-.879 3.308-.104 5.258-.67 5.831-1.695.674-1.205 1.17-1.283 2.281-.361 1.178.978 1.419.605 1.418-2.195-.004-7.919-4.57-26.871-6.958-28.872-.328-.275-1.045-1.548-1.593-2.828-.96-2.241-1.058-2.26-2.645-.5Zm-1.303 8.328c-.34.55.11 1 1 1s1.34-.45 1-1c-.34-.55-.79-1-1-1-.21 0-.66.45-1 1Zm-116 3.519c-3.887 1.952-8.53 7.207-11.541 13.061-1.897 3.688-3.492 5.193-7.673 7.244-2.903 1.424-5.168 3.142-5.032 3.817.135.675-.204 1.212-.754 1.193-.55-.019-.877-.471-.727-1.004.568-2.015-6.02 2.789-7.365 5.37-1.816 3.484-1.784 3.704.523 3.53 1.062-.08 1.729-.471 1.483-.868-.245-.398.014-1.008.577-1.356.563-.348 1.275.022 1.582.823.461 1.201 2.781 1.381 13.243 1.027 7.207-.243 12.834-.863 13.031-1.434.219-.634.868-.574 1.757.164 1.002.832 4.942.987 13.652.537 6.734-.349 15.051-.608 18.483-.576 5.568.052 6.177-.136 5.668-1.745-.537-1.697-.487-1.701.854-.076 1.22 1.478 2.635 1.643 9.832 1.148 4.624-.318 8.549-.712 8.723-.876.628-.59-4.399-4.715-8.026-6.585-3.876-1.999-5.965-2.437-5.54-1.163.137.413-.197.75-.743.75s-.864-.562-.706-1.25c.158-.687-.521-1.319-1.507-1.402-.987-.084-2.375-.201-3.086-.259-.71-.059-1.61-.598-2-1.198-.389-.6-1.824-1.68-3.189-2.4s-3.318-2.373-4.341-3.673c-1.023-1.3-2.606-2.241-3.519-2.091-.937.154-1.541-.299-1.387-1.042.406-1.969-3.364-6.769-7.158-9.114-3.997-2.471-10.799-2.719-15.114-.552Zm9.5.422c0 .518.45 1.219 1 1.559.55.34 1-.084 1-.941s-.45-1.559-1-1.559-1 .423-1 .941Zm112.553-.026a1.116 1.116 0 0 0 .362 1.532c.521.322 1.21.159 1.532-.362a1.116 1.116 0 0 0-.362-1.532 1.116 1.116 0 0 0-1.532.362Zm-11 2a1.116 1.116 0 0 0 .362 1.532c.521.322 1.21.159 1.532-.362a1.116 1.116 0 0 0-.362-1.532 1.116 1.116 0 0 0-1.532.362Zm-112.553 1.085c0 .55.45 1 1 1s1-.45 1-1-.45-1-1-1-1 .45-1 1Zm132.43 1.25c.257 1.238.741 5.189 1.075 8.782.901 9.685.535 9.482 12.605 6.975 12.891-2.678 21.667-6.366 19.981-8.397-1.833-2.209-11.71-5.47-23.089-7.623-5.774-1.093-10.62-1.987-10.769-1.987-.149 0-.061 1.012.197 2.25Zm-114.43.75c0 .55.45 1 1 1s1-.45 1-1-.45-1-1-1-1 .45-1 1Zm-267.5 2.78c-8.978 3.052-10.022 4.764-4.5 7.375 6.7 3.168 7.905 3.226 8.969.426.534-1.405 1.844-4.36 2.91-6.567 1.067-2.208 1.643-4.001 1.28-3.984-.362.016-4.26 1.253-8.66 2.75Zm256-.78c-.34.55.11 1 1 1s1.34-.45 1-1c-.34-.55-.79-1-1-1-.21 0-.66.45-1 1Zm112.5 0c0 .55.45 1 1 1s1-.45 1-1-.45-1-1-1-1 .45-1 1Zm-123.403 1.844c-.346.56-.142 1.319.453 1.687 1.538.95 2.53-.351 1.246-1.635-.718-.718-1.277-.735-1.699-.052Zm112.403.715c0 .857.45 1.281 1 .941.55-.34 1-1.041 1-1.559s-.45-.941-1-.941-1 .702-1 1.559Zm-95.447 1.356a1.116 1.116 0 0 0 .362 1.532c.521.322 1.21.159 1.532-.362a1.116 1.116 0 0 0-.362-1.532 1.116 1.116 0 0 0-1.532.362Zm112.447.526c0 .857.45 1.559 1 1.559s1-.423 1-.941-.45-1.219-1-1.559c-.55-.34-1 .084-1 .941Zm-11 2.559c0 .55.45 1 1 1s1-.45 1-1-.45-1-1-1-1 .45-1 1Zm-123 2c0 .55.45 1 1 1s1-.45 1-1-.45-1-1-1-1 .45-1 1Zm28 0c0 .55.45 1 1 1s1-.45 1-1-.45-1-1-1-1 .45-1 1Zm84 0c0 .55.45 1 1 1s1-.45 1-1-.45-1-1-1-1 .45-1 1Zm-95 2c0 .55.45 1 1 1s1-.45 1-1-.45-1-1-1-1 .45-1 1Zm112.5 0c-.34.55.11 1 1 1s1.34-.45 1-1c-.34-.55-.79-1-1-1-.21 0-.66.45-1 1Zm45 .782c-1.558 1.404-15.092 5.34-22.858 6.648-3.857.65-7.106 1.607-7.22 2.126-.114.519-.763 4.319-1.443 8.444-2.118 12.86-3.95 18.062-11.447 32.5-3.998 7.7-7.832 15.8-8.52 18-1.448 4.634-6.556 13.396-8.902 15.271-.885.707-3.929 2.815-6.763 4.683-7.759 5.115-38.539 15.468-46.147 15.522-1.814.013-4.721.759-6.459 1.658-2.509 1.297-4.883 1.512-11.537 1.042l-8.378-.591 1.807 2.708c3.175 4.754 11.785 20.644 14.236 26.269 1.303 2.991 2.982 6.618 3.731 8.06 1.904 3.665 4.702 29.983 4.054 38.125-.295 3.71-1.214 7.985-2.041 9.5-.827 1.514-2.417 7.102-3.533 12.418-2.341 11.146-5.263 18.269-10.895 26.563-3.981 5.861-15.406 17.272-17.294 17.272-.548 0-4.348 3.174-8.446 7.052-4.098 3.879-9.137 7.724-11.198 8.545-2.061.821-4.647 1.855-5.747 2.298-10.396 4.188-26.264 8.175-32.974 8.285-5.874.097-9.286-.921-21.026-6.269-2.405-1.096-7.787-2.095-13.5-2.506-10.37-.746-16.487-3.045-21-7.892-1.375-1.477-5.65-5.224-9.5-8.325-3.85-3.102-9.639-8.037-12.864-10.967-3.225-2.929-6.059-5.132-6.297-4.893-.238.238.938 2.464 2.614 4.947s3.047 4.84 3.047 5.238c0 1.235 10.856 15.217 16.797 21.634 6.252 6.753 17.588 15.526 24.334 18.833 14.917 7.311 35.037 10.771 46.948 8.074 20.144-4.562 35.881-15.343 53.879-36.912 2.451-2.938 4.926-6.18 5.5-7.205.573-1.025 3.352-5.818 6.174-10.65 10.411-17.825 18.833-41.194 24.067-66.787 1.35-6.6 2.58-12.9 2.732-14 1.218-8.771 1.579-11.501 1.987-15 1.566-13.445 3.68-21.459 6.68-25.322 3.03-3.901 10.343-8.954 14.481-10.004 2.157-.548 6.621-1.294 9.921-1.66 6.774-.75 14.856-2.882 19.723-5.203 1.802-.86 5.194-2.489 7.538-3.62 5.313-2.564 18.562-14.666 22.02-20.113 9.561-15.063 16.194-36.495 16.116-52.078-.052-10.58-.069-10.5 2.257-10.5 2.124 0 2.145.175 1.51 12.25-.745 14.175-3.088 24.863-8.004 36.515-4.689 11.112-7.448 15.599-14.09 22.915-6.165 6.79-12.169 11.459-20.57 15.994-8.301 4.481-15.1 6.428-31 8.877-6.393.985-12.493 4.095-15.334 7.82-3.588 4.705-5.385 10.94-7.14 24.778-8.486 66.926-28.946 110.655-64.97 138.865-21.035 16.472-46.41 20.263-72.556 10.841-35.518-12.8-64.125-52.506-79.036-109.702-3.403-13.053-7.587-36.984-8.507-48.653-.861-10.934-2.023-14.121-7.14-19.591l-4.398-4.703-9.21-.714c-19.938-1.547-36.524-7.922-47.973-18.439-10.502-9.648-16.51-20.192-21.147-37.116-3.158-11.525-5.545-34.381-3.775-36.151 1.994-1.994 2.91.264 3.543 8.714.624 8.342.715 8.968 3.185 22 1.738 9.172 1.627 8.867 7.84 21.5 5.02 10.206 7.148 12.942 15.646 20.126 9.878 8.35 22.499 12.994 40.376 14.856 12.314 1.282 16.162 2.952 21.334 9.257 4.009 4.888 4.677 7.492 6.734 26.261 3.356 30.624 10.37 56.519 23.093 85.25 1.278 2.888 2.59 5.25 2.915 5.25.325 0 .125-.87-.445-1.934-.569-1.064-1.035-3.885-1.035-6.268 0-2.904-.779-5.482-2.361-7.816-2.444-3.605-4.708-10.481-6.58-19.982-.596-3.025-2.103-9.391-3.349-14.148-3.169-12.1-2.282-25.349 2.757-41.173 5.017-15.754 6.335-18.394 10.443-20.927 4.672-2.88 6.514-4.35 12.026-9.597 4.432-4.219 3.844-4.911-.698-.821-1.988 1.79-3.925 2.086-16 2.443-12.708.377-14.3.216-21.238-2.151-16.778-5.722-21.986-7.665-32.5-12.123-6.05-2.566-11.553-4.898-12.23-5.183-.676-.285-2.108-1.936-3.181-3.669s-6.685-7.593-12.471-13.023C42.662 284.173 36.16 277.04 34 273.752c-2.275-3.461-4.215-5.515-4.608-4.878-1.122 1.815-7.085 1.284-8.97-.798-1.478-1.634-1.765-4.73-2.062-22.25-.19-11.194-.642-21.281-1.005-22.417-.456-1.424-2.39-2.598-6.23-3.78-3.063-.943-5.803-1.48-6.091-1.193-1.581 1.582-.418 28.96 1.68 39.538 3.428 17.278 11.125 35.449 18.56 43.813 8.369 9.413 15.556 15.082 24.556 19.367 10.81 5.146 18.214 7.248 29.5 8.375 13.986 1.397 19.39 7.002 20.675 21.445.417 4.675 1.017 10.075 1.334 12 .318 1.925 1.028 6.875 1.579 11 1.892 14.179 6.788 33.919 12.152 49 5.315 14.942 5.901 16.465 6.734 17.492.449.554 2.02 3.881 3.491 7.392 1.47 3.511 3.483 7.561 4.473 9 .99 1.439 3.955 5.991 6.588 10.116 5.42 8.492 7.277 10.852 15.735 20 6.12 6.619 7.982 8.186 18.818 15.832 12.136 8.564 29.113 14.057 45.994 14.881 10.926.533 12.213.384 23-2.676 11.737-3.329 16.292-5.59 25.263-12.537 2.841-2.2 6.74-5.175 8.664-6.612 1.925-1.436 6.284-5.486 9.688-9 20.654-21.324 37.712-56.751 45.688-94.888 3.483-16.652 4.32-22.131 6.518-42.658.945-8.821 1.978-10.824 8.248-15.986 3.366-2.772 4.797-3.223 12.088-3.809 7.593-.61 16.294-2.489 21.27-4.592 15.01-6.345 19.814-9.472 28.577-18.602 10.261-10.691 16.132-21.732 20.922-39.349 4.945-18.186 6.715-53.017 2.501-49.222Zm-140.5 1.159c0 .518.45 1.219 1 1.559.55.34 1-.084 1-.941s-.45-1.559-1-1.559-1 .423-1 .941Zm84.543-.01c-.317.512-.118 1.213.441 1.559.559.345 1.016-.074 1.016-.931 0-1.757-.6-2.015-1.457-.628Zm-112.543 1.069c0 .55.45 1 1 1s1-.45 1-1-.45-1-1-1-1 .45-1 1Zm-174.5 2.002c-3.807.826-7.855 2.976-7.073 3.758 1.246 1.247 8.88 1.36 9.633.143.574-.929 1.163-.823 2.42.435 1.45 1.449 9.52 2.492 9.52 1.23 0-.914-6.14-4.746-8.754-5.463-1.51-.414-4.096-.461-5.746-.103Zm63.75.524c-2.077.88-3.25 2.078-3.25 3.319 0 1.067-.775 2.238-1.722 2.602-4.014 1.54 1.715 2.227 20.259 2.427 12.494.136 19.463-.148 19.463-.793 0-1.255-4.009-5.055-5.439-5.155-.583-.041-2.073-.263-3.309-.494-1.236-.23-2.136-.084-2 .325.136.408-.202.743-.752.743s-.887-.337-.75-.75-1.296-.75-3.185-.75-4.477-.395-5.75-.878c-4.556-1.728-10.299-1.981-13.565-.596Zm212.25-.526c-.34.55.084 1 .941 1s1.559-.45 1.559-1-.423-1-.941-1-1.219.45-1.559 1Zm-95.5 2c0 .55.423 1 .941 1s1.219-.45 1.559-1c.34-.55-.084-1-.941-1s-1.559.45-1.559 1Zm29 0c0 .55.45 1 1 1s1-.45 1-1-.45-1-1-1-1 .45-1 1Zm-39 2c0 .55.45 1 1 1s1-.45 1-1-.45-1-1-1-1 .45-1 1Zm28 0c0 .55.45 1 1 1s1-.45 1-1-.45-1-1-1-1 .45-1 1Zm27.51.016c.346.559 1.047.758 1.559.441 1.387-.857 1.129-1.457-.628-1.457-.857 0-1.276.457-.931 1.016Zm78.24.765c-1.512.193-2.75.717-2.75 1.163 0 .445-1.944.591-4.319.324-3.264-.368-4.751-.055-6.091 1.285-1.339 1.339-1.958 1.47-2.536.534-.561-.907-2.673-1.049-7.923-.531-6.682.658-7.194.879-7.694 3.325-1.188 5.807-2.998 10.666-5.159 13.851-1.253 1.846-2.278 4.012-2.278 4.812 0 .801-.533 1.456-1.184 1.456-.652 0-3.161.957-5.576 2.126-9.655 4.674-17.295-1.188-20.129-15.443l-1.347-6.778-12.132.657c-7.282.394-12.432 1.112-12.882 1.797-.56.853-.94.853-1.5.003-.472-.717-2.974-.999-6.75-.761-3.3.207-11.512.448-18.25.536-9.547.124-12.25.457-12.25 1.511 0 1.614-1.679 1.814-2.196.263-.234-.7-4.758-1.122-12.663-1.181-9.649-.072-12.498.216-13.22 1.339-.794 1.233-1.057 1.223-1.906-.069-.691-1.054-.989.783-1 6.17-.012 6.045.643 9.542 3.09 16.5 1.707 4.857 3.507 8.98 4 9.163.492.184.895 1.052.895 1.93 0 2.395 11.478 18.911 12.829 18.461.644-.215 1.171.097 1.171.693 0 .595-.45 1.083-1 1.083s-1 2.236-1 4.969c0 4.234.247 4.873 1.674 4.326 1.26-.483 1.517-.235 1.041 1.004-.864 2.254 3.108 5.093 4.967 3.55 1.238-1.027 1.757-.466 1.399 1.513-.299 1.654 3.327 3.544 4.666 2.433 1.138-.945 1.652-.431 1.392 1.394-.082.573 3.06 2.045 4.861 2.277.275.036.95.34 1.5.677s3.7 1.368 7 2.291c3.3.924 6.785 1.908 7.744 2.188 1.27.371 1.58.084 1.143-1.057-.331-.861-.155-1.565.389-1.565.545 0 1.201.803 1.458 1.786.333 1.273 1.585 1.85 4.366 2.012 2.145.125 5.184.492 6.753.817 3.826.79 14.647-1.663 14.647-3.321 0-1.496 1.672-1.757 2.167-.338.376 1.08 7.75-.3 8.729-1.634.332-.452 2.281-.855 4.331-.896 2.05-.041 4.561-.829 5.581-1.752 1.02-.923 2.122-1.411 2.448-1.084.65.649 10.239-2.548 18.428-6.145 6.517-2.862 12.402-8.057 11.573-10.217-.433-1.129-.165-1.407.945-.981 1.573.604 3.798-2.791 3.798-5.794 0-.799.418-1.453.929-1.453.511 0 1.623-2.363 2.471-5.25.848-2.887 3.412-8.4 5.697-12.25 5.253-8.85 8.739-16.635 8.174-18.25-.241-.687.001-1.25.538-1.25s1.759-3.199 2.717-7.108c1.471-6.001 1.527-7.247.358-8-.978-.63-1.057-1.112-.269-1.642 1.462-.983 2.69-4.977 1.676-5.452-.435-.203-2.029-.211-3.541-.017Zm-228.75 1.219c0 .55.45 1 1 1s1-.45 1-1-.45-1-1-1-1 .45-1 1Zm83 0c0 .55.702 1 1.559 1s1.281-.45.941-1c-.34-.55-1.041-1-1.559-1s-.941.45-.941 1Zm28.5 0c-.34.55.084 1 .941 1s1.559-.45 1.559-1-.423-1-.941-1-1.219.45-1.559 1Zm-204.131 5.104c-2.12 1.685-4.083 3.363-4.362 3.73-1.856 2.438-6.208 3.634-13.338 3.667-8.766.04-8.99.205-10.175 7.499-.895 5.511-2.913 9.62-5.525 11.252-2.668 1.665-2.491 3.385 1.084 10.539 2.13 4.264 5.048 7.862 9.654 11.91 3.63 3.189 7.756 7.037 9.169 8.549 1.413 1.512 3.144 2.75 3.847 2.75.702 0 1.277.691 1.277 1.535 0 3.081 3.45 6.663 9.222 9.577 3.599 1.817 6.663 2.742 7.842 2.368 1.299-.413 1.936-.144 1.936.817 0 .787 1.912 2.123 4.25 2.969 2.338.846 8.075 2.993 12.75 4.771 4.675 1.777 9.537 3.174 10.805 3.104 1.268-.07 2.058.271 1.757.759-.641 1.037 1.756 1.69 9.688 2.641 5.185.622 5.753.506 5.782-1.176.031-1.812.072-1.811 1.458.019 1.253 1.656 2.3 1.806 8.645 1.245 6.98-.618 10.863-2.417 10.866-5.034.001-.633 2.203-1.162 5.22-1.254 2.87-.087 5.382-.65 5.582-1.25.2-.6 1.345-1.091 2.545-1.091 2.932 0 9.637-3.564 12.354-6.567 1.211-1.338 2.674-2.433 3.251-2.433s3.517-2.568 6.533-5.707c5.123-5.332 5.386-5.841 4.005-7.75-3.443-4.759-5.393-9.727-4.469-11.383 5.569-9.972 9.922-30.341 6.885-32.218-1.024-.632-1.096-1.153-.274-1.975.782-.782.825-2.264.144-4.949-.929-3.658-1.18-3.849-5.534-4.195-2.804-.223-5.05.126-5.83.907-1.673 1.673-2.413 1.604-2.413-.226 0-1.248-1.945-1.48-11.75-1.402-6.462.051-13.381-.215-15.374-.592-3.448-.652-3.644-.541-4.061 2.296-.241 1.64-.092 3.915.33 5.056.424 1.146.339 2.339-.189 2.665-.526.325-.956 1.905-.956 3.512 0 3.386-2.647 10.686-4.776 13.173-.806.942-3.012 2.223-4.902 2.847-3.09 1.019-3.826.864-7.296-1.541-3.38-2.342-3.947-3.318-4.564-7.846-1.017-7.472-3.774-12.587-9.386-17.415-4.309-3.708-5.793-4.357-11.754-5.144-3.752-.495-9.667-.972-13.144-1.061-3.478-.089-7.815-.353-9.64-.587-2.581-.33-4.167.253-7.17 2.639Zm14.63-.104c0 .55.45 1 1 1s1-.45 1-1-.45-1-1-1-1 .45-1 1Zm280.001 0c0 .55.45 1 1 1s1-.45 1-1-.45-1-1-1-1 .45-1 1Zm-290.447.915a1.116 1.116 0 0 0 .362 1.532c.52.322 1.21.159 1.532-.362a1.116 1.116 0 0 0-.362-1.532 1.116 1.116 0 0 0-1.532.362Zm28.447 1.144c0 .582.45.781 1 .441s1-.816 1-1.059-.45-.441-1-.441-1 .477-1 1.059Zm279-.059c0 .55.45 1 1 1s1-.45 1-1-.45-1-1-1-1 .45-1 1Zm-290.5 2c-.34.55-.168 1 .382 1s1.278-.45 1.618-1c.34-.55.168-1-.382-1s-1.278.45-1.618 1Zm56.053-.085a1.116 1.116 0 0 0 .362 1.532c.521.322 1.21.159 1.532-.362a1.116 1.116 0 0 0-.362-1.532 1.116 1.116 0 0 0-1.532.362Zm139.447.085c0 .55.45 1 1 1s1-.45 1-1-.45-1-1-1-1 .45-1 1Zm28 0c0 .55.45 1 1 1s1-.45 1-1-.45-1-1-1-1 .45-1 1Zm56 0c0 .55.45 1 1 1s1-.45 1-1-.45-1-1-1-1 .45-1 1Zm-290.447 1.915a1.116 1.116 0 0 0 .362 1.532c.52.322 1.21.159 1.532-.362a1.116 1.116 0 0 0-.362-1.532 1.116 1.116 0 0 0-1.532.362Zm28.447.085c0 .55.45 1 1 1s1-.45 1-1-.45-1-1-1-1 .45-1 1Zm55 0c0 .55.45 1 1 1s1-.45 1-1-.45-1-1-1-1 .45-1 1Zm112 0c0 .55.45 1 1 1s1-.45 1-1-.45-1-1-1-1 .45-1 1Zm28.553-.085a1.116 1.116 0 0 0 .362 1.532c.521.322 1.21.159 1.532-.362a1.116 1.116 0 0 0-.362-1.532 1.116 1.116 0 0 0-1.532.362Zm55.447.026c0 .518.45 1.219 1 1.559.55.34 1-.084 1-.941s-.45-1.559-1-1.559-1 .423-1 .941Zm28.5.059c-.34.55.11 1 1 1s1.34-.45 1-1c-.34-.55-.79-1-1-1-.21 0-.66.45-1 1Zm-318.5 1.941c0 .518.45 1.219 1 1.559.55.34 1-.084 1-.941s-.45-1.559-1-1.559-1 .423-1 .941Zm27.553-.026a1.116 1.116 0 0 0 .362 1.532c.52.322 1.21.159 1.532-.362a1.116 1.116 0 0 0-.362-1.532 1.116 1.116 0 0 0-1.532.362Zm56 0a1.116 1.116 0 0 0 .362 1.532c.521.322 1.21.159 1.532-.362a1.116 1.116 0 0 0-.362-1.532 1.116 1.116 0 0 0-1.532.362Zm27.447.085c0 .55.45 1 1 1s1-.45 1-1-.45-1-1-1-1 .45-1 1Zm56.543-.069c-.317.512-.118 1.213.441 1.559.559.345 1.016-.074 1.016-.931 0-1.757-.6-2.015-1.457-.628Zm55.457.01c0 .518.45 1.219 1 1.559.55.34 1-.084 1-.941s-.45-1.559-1-1.559-1 .423-1 .941Zm29 .059c0 .55.45 1 1 1s1-.45 1-1-.45-1-1-1-1 .45-1 1Zm-56.49 1.016c.346.559 1.047.758 1.559.441 1.387-.857 1.129-1.457-.628-1.457-.857 0-1.276.457-.931 1.016Zm-206.51 1.543c0 .857.457 1.276 1.016.931.559-.346.758-1.047.44-1.559-.856-1.387-1.456-1.129-1.456.628Zm111.553-.644a1.116 1.116 0 0 0 .362 1.532c.521.322 1.21.159 1.532-.362a1.116 1.116 0 0 0-.362-1.532 1.116 1.116 0 0 0-1.532.362Zm84.447.644c0 .857.457 1.276 1.016.931.559-.346.758-1.047.441-1.559-.857-1.387-1.457-1.129-1.457.628Zm-168 .441c0 .55.45 1 1 1s1-.45 1-1-.45-1-1-1-1 .45-1 1Zm28 0c0 .55.45 1 1 1s1-.45 1-1-.45-1-1-1-1 .45-1 1Zm252 0c0 .55.45 1 1 1s1-.45 1-1-.45-1-1-1-1 .45-1 1Zm-291 2c0 .55.45 1 1 1s1-.45 1-1-.45-1-1-1-1 .45-1 1Zm28 0c0 .55.423 1 .941 1s1.219-.45 1.559-1c.34-.55-.084-1-.941-1s-1.559.45-1.559 1Zm139.51.016c.346.559 1.047.758 1.559.441 1.387-.857 1.129-1.457-.628-1.457-.857 0-1.276.457-.931 1.016Zm27.49-.016c0 .55.45 1 1 1s1-.45 1-1-.45-1-1-1-1 .45-1 1Zm29 0c0 .55.45 1 1 1s1-.45 1-1-.45-1-1-1-1 .45-1 1Zm83.5 0c.34.55 1.041 1 1.559 1s.941-.45.941-1-.702-1-1.559-1-1.281.45-.941 1Zm-318.5 2c0 .55.45 1 1 1s1-.45 1-1-.45-1-1-1-1 .45-1 1Zm28 0c0 .55.45 1 1 1s1-.45 1-1-.45-1-1-1-1 .45-1 1Zm139.5 0c-.34.55.084 1 .941 1s1.559-.45 1.559-1-.423-1-.941-1-1.219.45-1.559 1Zm56.5 0c0 .55.45 1 1 1s1-.45 1-1-.45-1-1-1-1 .45-1 1Zm28 0c0 .55.45 1 1 1s1-.45 1-1-.45-1-1-1-1 .45-1 1Zm55.5 0c-.34.55.084 1 .941 1s1.559-.45 1.559-1-.423-1-.941-1-1.219.45-1.559 1Zm-318.5 2c0 .55.45 1 1 1s1-.45 1-1-.45-1-1-1-1 .45-1 1Zm56 0c0 .55.45 1 1 1s1-.45 1-1-.45-1-1-1-1 .45-1 1Zm56 .5c0 .825.45 1.5 1 1.5s1-.675 1-1.5-.45-1.5-1-1.5-1 .675-1 1.5Zm83.5-.5c-.34.55.084 1 .941 1s1.559-.45 1.559-1-.423-1-.941-1-1.219.45-1.559 1Zm28 0c-.34.55.11 1 1 1s1.34-.45 1-1c-.34-.55-.79-1-1-1-.21 0-.66.45-1 1Zm28.5 0c0 .55.45 1 1 1s1-.45 1-1-.45-1-1-1-1 .45-1 1Zm56 0c0 .55.45 1 1 1s1-.45 1-1-.45-1-1-1-1 .45-1 1Zm-319 1.941c0 .518.45 1.219 1 1.559.55.34 1-.084 1-.941s-.45-1.559-1-1.559-1 .423-1 .941Zm28.553-.026a1.116 1.116 0 0 0 .362 1.532c.52.322 1.21.159 1.532-.362a1.116 1.116 0 0 0-.362-1.532 1.116 1.116 0 0 0-1.532.362Zm27.447.085c0 .55.45 1 1 1s1-.45 1-1-.45-1-1-1-1 .45-1 1Zm84 0c0 .55.45 1 1 1s1-.45 1-1-.45-1-1-1-1 .45-1 1Zm56 .559c0 .857.457 1.276 1.016.931.559-.346.758-1.047.441-1.559-.857-1.387-1.457-1.129-1.457.628Zm56-.559c0 .55.45 1 1 1s1-.45 1-1-.45-1-1-1-1 .45-1 1Zm28.15-.05c.43 1.289 1.801 1.521 1.925.325.041-.399-.465-.905-1.125-1.125-.66-.22-1.02.14-.8.8Zm55.85-.009c0 .518.45 1.219 1 1.559.55.34 1-.084 1-.941s-.45-1.559-1-1.559-1 .423-1 .941Zm-224 1.059c0 .55.45 1 1 1s1-.45 1-1-.45-1-1-1-1 .45-1 1Zm112 0c0 .55.45 1 1 1s1-.45 1-1-.45-1-1-1-1 .45-1 1Zm-206.447.915a1.116 1.116 0 0 0 .362 1.532c.52.322 1.21.159 1.532-.362a1.116 1.116 0 0 0-.362-1.532 1.116 1.116 0 0 0-1.532.362Zm111.447.526c0 .857.45 1.559 1 1.559s1-.423 1-.941-.45-1.219-1-1.559c-.55-.34-1 .084-1 .941Zm112 .118c0 .857.457 1.276 1.016.931.559-.346.758-1.047.441-1.559-.857-1.387-1.457-1.129-1.457.628Zm28-.059c0 .825.45 1.5 1 1.5s1-.675 1-1.5-.45-1.5-1-1.5-1 .675-1 1.5Zm-224 .5c0 .55.45 1 1 1s1-.45 1-1-.45-1-1-1-1 .45-1 1Zm28 0c0 .55.45 1 1 1s1-.45 1-1-.45-1-1-1-1 .45-1 1Zm28.51.016c.346.559 1.047.758 1.559.441 1.387-.857 1.129-1.457-.628-1.457-.857 0-1.276.457-.931 1.016Zm223.49-.016c0 .55.45 1 1 1s1-.45 1-1-.45-1-1-1-1 .45-1 1Zm-290.447.915a1.116 1.116 0 0 0 .362 1.532c.52.322 1.21.159 1.532-.362a1.116 1.116 0 0 0-.362-1.532 1.116 1.116 0 0 0-1.532.362Zm-27.553 1.085c0 .55.45 1 1 1s1-.45 1-1-.45-1-1-1-1 .45-1 1Zm56 0c0 .55.45 1 1 1s1-.45 1-1-.45-1-1-1-1 .45-1 1Zm55 0c0 .55.423 1 .941 1s1.219-.45 1.559-1c.34-.55-.084-1-.941-1s-1.559.45-1.559 1Zm84 0c0 .55.45 1 1 1s1-.45 1-1-.45-1-1-1-1 .45-1 1Zm28 0c0 .55.45 1 1 1s1-.45 1-1-.45-1-1-1-1 .45-1 1Zm56 0c0 .55.45 1 1 1s1-.45 1-1-.45-1-1-1-1 .45-1 1Zm29 0c0 .55.45 1 1 1s1-.45 1-1-.45-1-1-1-1 .45-1 1Zm-319 2c0 .55.45 1 1 1s1-.45 1-1-.45-1-1-1-1 .45-1 1Zm27.51.016c.346.559 1.047.758 1.559.441 1.387-.857 1.129-1.457-.628-1.457-.857 0-1.276.457-.931 1.016Zm27.99-.016c.34.55 1.04 1 1.559 1 .518 0 .94-.45.94-1s-.701-1-1.558-1c-.857 0-1.281.45-.941 1Zm56.053-.085a1.116 1.116 0 0 0 .362 1.532c.521.322 1.21.159 1.532-.362a1.116 1.116 0 0 0-.362-1.532 1.116 1.116 0 0 0-1.532.362Zm27.447.085c0 .55.45 1 1 1s1-.45 1-1-.45-1-1-1-1 .45-1 1Zm56-.059c0 .518.45 1.219 1 1.559.55.34 1-.084 1-.941s-.45-1.559-1-1.559-1 .423-1 .941Zm56 .059c0 .55.45 1 1 1s1-.45 1-1-.45-1-1-1-1 .45-1 1Zm28 0c0 .55.45 1 1 1s1-.45 1-1-.45-1-1-1-1 .45-1 1Zm28 0c0 .55.423 1 .941 1s1.219-.45 1.559-1c.34-.55-.084-1-.941-1s-1.559.45-1.559 1Zm28-.059c0 .518.45 1.219 1 1.559.55.34 1-.084 1-.941s-.45-1.559-1-1.559-1 .423-1 .941Zm-290 2.618c0 .857.457 1.276 1.016.931.559-.346.758-1.047.44-1.559-.856-1.387-1.456-1.129-1.456.628Zm27.5-.559c-.34.55.084 1 .941 1s1.559-.45 1.559-1-.423-1-.941-1-1.219.45-1.559 1Zm28.5 0c0 .55.45 1 1 1s1-.45 1-1-.45-1-1-1-1 .45-1 1Zm111 0c0 .55.45 1 1 1s1-.45 1-1-.45-1-1-1-1 .45-1 1Zm28 0c0 .55.45 1 1 1s1-.45 1-1-.45-1-1-1-1 .45-1 1Zm28.553-.085a1.116 1.116 0 0 0 .362 1.532c.521.322 1.21.159 1.532-.362a1.116 1.116 0 0 0-.362-1.532 1.116 1.116 0 0 0-1.532.362Zm28 0a1.116 1.116 0 0 0 .362 1.532c.521.322 1.21.159 1.532-.362a1.116 1.116 0 0 0-.362-1.532 1.116 1.116 0 0 0-1.532.362Zm27.947.085c-.34.55.11 1 1 1s1.34-.45 1-1c-.34-.55-.79-1-1-1-.21 0-.66.45-1 1Zm-318.947 1.915a1.116 1.116 0 0 0 .362 1.532c.52.322 1.21.159 1.532-.362a1.116 1.116 0 0 0-.362-1.532 1.116 1.116 0 0 0-1.532.362Zm139.447.085c0 .55.45 1 1 1s1-.45 1-1-.45-1-1-1-1 .45-1 1Zm112.553-.085a1.116 1.116 0 0 0 .362 1.532c.521.322 1.21.159 1.532-.362a1.116 1.116 0 0 0-.362-1.532 1.116 1.116 0 0 0-1.532.362Zm28.447.085c0 .55.477 1 1.059 1s.781-.45.441-1-.816-1-1.059-1-.441.45-.441 1Zm55.553-.085a1.116 1.116 0 0 0 .362 1.532c.521.322 1.21.159 1.532-.362a1.116 1.116 0 0 0-.362-1.532 1.116 1.116 0 0 0-1.532.362Zm-223.553 1.085c0 .55.45 1 1 1s1-.45 1-1-.45-1-1-1-1 .45-1 1Zm111 0c0 .55.423 1 .941 1s1.219-.45 1.559-1c.34-.55-.084-1-.941-1s-1.559.45-1.559 1Zm-206 1.441c0 .857.45 1.559 1 1.559s1-.423 1-.941-.45-1.219-1-1.559c-.55-.34-1 .084-1 .941Zm112 .118c0 .857.457 1.276 1.016.931.559-.346.758-1.047.441-1.559-.857-1.387-1.457-1.129-1.457.628Zm84-.118c0 .857.45 1.559 1 1.559s1-.423 1-.941-.45-1.219-1-1.559c-.55-.34-1 .084-1 .941Zm27.553-.526a1.116 1.116 0 0 0 .362 1.532c.521.322 1.21.159 1.532-.362a1.116 1.116 0 0 0-.362-1.532 1.116 1.116 0 0 0-1.532.362Zm28 0a1.116 1.116 0 0 0 .362 1.532c.521.322 1.21.159 1.532-.362a1.116 1.116 0 0 0-.362-1.532 1.116 1.116 0 0 0-1.532.362Zm-195.553 1.085c0 .55.45 1 1 1s1-.45 1-1-.45-1-1-1-1 .45-1 1Zm28 0c0 .55.45 1 1 1s1-.45 1-1-.45-1-1-1-1 .45-1 1Zm196 0c0 .55.45 1 1 1s1-.45 1-1-.45-1-1-1-1 .45-1 1Zm28 0c0 .55.45 1 1 1s1-.45 1-1-.45-1-1-1-1 .45-1 1Zm-319 2c0 .55.45 1 1 1s1-.45 1-1-.45-1-1-1-1 .45-1 1Zm28 0c0 .55.45 1 1 1s1-.45 1-1-.45-1-1-1-1 .45-1 1Zm28 0c0 .55.423 1 .941 1s1.219-.45 1.559-1c.34-.55-.084-1-.941-1s-1.559.45-1.559 1Zm28 0c0 .55.45 1 1 1s1-.45 1-1-.45-1-1-1-1 .45-1 1Zm28 0c0 .55.45 1 1 1s1-.45 1-1-.45-1-1-1-1 .45-1 1Zm83.51.016c.346.559 1.047.758 1.559.441 1.387-.857 1.129-1.457-.628-1.457-.857 0-1.276.457-.931 1.016Zm56.49-.016c0 .55.45 1 1 1s1-.45 1-1-.45-1-1-1-1 .45-1 1Zm28 0c0 .55.45 1 1 1s1-.45 1-1-.45-1-1-1-1 .45-1 1Zm28 0c0 .55.45 1 1 1s1-.45 1-1-.45-1-1-1-1 .45-1 1Zm-319 2c0 .55.45 1 1 1s1-.45 1-1-.45-1-1-1-1 .45-1 1Zm28 0c0 .55.45 1 1 1s1-.45 1-1-.45-1-1-1-1 .45-1 1Zm28 0c0 .55.45 1 1 1s1-.45 1-1-.45-1-1-1-1 .45-1 1Zm28 0c0 .55.45 1 1 1s1-.45 1-1-.45-1-1-1-1 .45-1 1Zm56 0c0 .55.45 1 1 1s1-.45 1-1-.45-1-1-1-1 .45-1 1Zm84 0c0 .55.45 1 1 1s1-.45 1-1-.45-1-1-1-1 .45-1 1Zm56 0c0 .55.45 1 1 1s1-.45 1-1-.45-1-1-1-1 .45-1 1Zm28 0c0 .55.45 1 1 1s1-.45 1-1-.45-1-1-1-1 .45-1 1Zm28 0c0 .55.45 1 1 1s1-.45 1-1-.45-1-1-1-1 .45-1 1Zm-319 2c0 .55.45 1 1 1s1-.45 1-1-.45-1-1-1-1 .45-1 1Zm28 0c0 .55.45 1 1 1s1-.45 1-1-.45-1-1-1-1 .45-1 1Zm28 0c0 .55.45 1 1 1s1-.45 1-1-.45-1-1-1-1 .45-1 1Zm28 0c0 .55.45 1 1 1s1-.45 1-1-.45-1-1-1-1 .45-1 1Zm28 0c0 .55.45 1 1 1s1-.45 1-1-.45-1-1-1-1 .45-1 1Zm83.5 0c-.34.55.11 1 1 1s1.34-.45 1-1c-.34-.55-.79-1-1-1-.21 0-.66.45-1 1Zm28.5 0c0 .55.45 1 1 1s1-.45 1-1-.45-1-1-1-1 .45-1 1Zm28 0c0 .55.45 1 1 1s1-.45 1-1-.45-1-1-1-1 .45-1 1Zm28 0c0 .55.45 1 1 1s1-.45 1-1-.45-1-1-1-1 .45-1 1Zm-291 2c0 .55.45 1 1 1s1-.45 1-1-.45-1-1-1-1 .45-1 1Zm28 0c0 .55.45 1 1 1s1-.45 1-1-.45-1-1-1-1 .45-1 1Zm28.583-.134c-.431.697-.513 1.537-.183 1.867.895.895 1.871-.421 1.387-1.871-.338-1.016-.574-1.016-1.204.004Zm55.417.134c0 .55.45 1 1 1s1-.45 1-1-.45-1-1-1-1 .45-1 1Zm83.5 0c-.34.55.084 1 .941 1s1.559-.45 1.559-1-.423-1-.941-1-1.219.45-1.559 1Zm28.5 0c0 .55.45 1 1 1s1-.45 1-1-.45-1-1-1-1 .45-1 1Zm28 0c0 .55.45 1 1 1s1-.45 1-1-.45-1-1-1-1 .45-1 1Zm56 .559c0 .857.457 1.276 1.016.931.559-.346.758-1.047.441-1.559-.857-1.387-1.457-1.129-1.457.628Zm-224 .441c0 .55.45 1 1 1s1-.45 1-1-.45-1-1-1-1 .45-1 1Zm-38.457.931c-.317.512-.118 1.213.44 1.559.56.345 1.017-.074 1.017-.931 0-1.757-.6-2.015-1.457-.628Zm55.457-.049c0 .55.45 1.278 1 1.618.55.34 1 .168 1-.382s-.45-1.278-1-1.618c-.55-.34-1-.168-1 .382Zm196 .059c0 .518.45 1.219 1 1.559.55.34 1-.084 1-.941s-.45-1.559-1-1.559-1 .423-1 .941Zm-56 1.059c0 .55.45 1 1 1s1-.45 1-1-.45-1-1-1-1 .45-1 1Zm28 0c0 .55.45 1 1 1s1-.45 1-1-.45-1-1-1-1 .45-1 1Zm56.51.016c.346.559 1.047.758 1.559.441 1.387-.857 1.129-1.457-.628-1.457-.857 0-1.276.457-.931 1.016Zm-318.51 1.425c0 .857.45 1.559 1 1.559s1-.423 1-.941-.45-1.219-1-1.559c-.55-.34-1 .084-1 .941Zm111.553-.526a1.116 1.116 0 0 0 .362 1.532c.521.322 1.21.159 1.532-.362a1.116 1.116 0 0 0-.362-1.532 1.116 1.116 0 0 0-1.532.362Zm140 0a1.116 1.116 0 0 0 .362 1.532c.521.322 1.21.159 1.532-.362a1.116 1.116 0 0 0-.362-1.532 1.116 1.116 0 0 0-1.532.362Zm27.447.526c0 .857.45 1.559 1 1.559s1-.423 1-.941-.45-1.219-1-1.559c-.55-.34-1 .084-1 .941Zm-224 .559c0 .55.45 1 1 1s1-.45 1-1-.45-1-1-1-1 .45-1 1Zm28 0c0 .55.45 1 1 1s1-.45 1-1-.45-1-1-1-1 .45-1 1Zm112 0c0 .55.45 1 1 1s1-.45 1-1-.45-1-1-1-1 .45-1 1Zm28 0c0 .55.45 1 1 1s1-.45 1-1-.45-1-1-1-1 .45-1 1Zm84 0c0 .55.45 1 1 1s1-.45 1-1-.45-1-1-1-1 .45-1 1Zm-291 2c0 .55.675 1 1.5 1s1.5-.45 1.5-1-.675-1-1.5-1-1.5.45-1.5 1Zm28.553-.085a1.116 1.116 0 0 0 .362 1.532c.52.322 1.21.159 1.532-.362a1.116 1.116 0 0 0-.362-1.532 1.116 1.116 0 0 0-1.532.362Zm27.447.085c0 .55.423 1 .941 1s1.219-.45 1.559-1c.34-.55-.084-1-.941-1s-1.559.45-1.559 1Zm29 0c0 .55.45 1 1 1s1-.45 1-1-.45-1-1-1-1 .45-1 1Zm111 0c0 .55.45 1 1 1s1-.45 1-1-.45-1-1-1-1 .45-1 1Zm28 0c0 .55.45 1 1 1s1-.45 1-1-.45-1-1-1-1 .45-1 1Zm28 0c0 .55.45 1 1 1s1-.45 1-1-.45-1-1-1-1 .45-1 1Zm28-.059c0 .518.45 1.219 1 1.559.55.34 1-.084 1-.941s-.45-1.559-1-1.559-1 .423-1 .941Zm-290 2.059c0 .55.45 1 1 1s1-.45 1-1-.45-1-1-1-1 .45-1 1Zm28 0c0 .55.45 1 1 1s1-.45 1-1-.45-1-1-1-1 .45-1 1Zm55.5 0c-.34.55-.141 1 .441 1s1.059-.45 1.059-1-.198-1-.441-1-.719.45-1.059 1Zm28.5 0c0 .55.45 1 1 1s1-.45 1-1-.45-1-1-1-1 .45-1 1Zm83 0c0 .55.45 1 1 1s1-.45 1-1-.45-1-1-1-1 .45-1 1Zm28.5 0c-.34.55.11 1 1 1s1.34-.45 1-1c-.34-.55-.79-1-1-1-.21 0-.66.45-1 1Zm27.5 0c0 .55.45 1 1 1s1-.45 1-1-.45-1-1-1-1 .45-1 1Zm29 0c0 .55.45 1 1 1s1-.45 1-1-.45-1-1-1-1 .45-1 1Zm27 0c0 .55.45 1 1 1s1-.45 1-1-.45-1-1-1-1 .45-1 1Zm-290.5 2c-.34.55.084 1 .94 1 .858 0 1.56-.45 1.56-1s-.423-1-.941-1-1.22.45-1.56 1Zm28.053-.085a1.116 1.116 0 0 0 .362 1.532c.521.322 1.21.159 1.532-.362a1.116 1.116 0 0 0-.362-1.532 1.116 1.116 0 0 0-1.532.362Zm28.447.526c0 .857.45 1.559 1 1.559s1-.423 1-.941-.45-1.219-1-1.559c-.55-.34-1 .084-1 .941Zm27.553-.526a1.116 1.116 0 0 0 .362 1.532c.521.322 1.21.159 1.532-.362a1.116 1.116 0 0 0-.362-1.532 1.116 1.116 0 0 0-1.532.362Zm112 0a1.116 1.116 0 0 0 .362 1.532c.521.322 1.21.159 1.532-.362a1.116 1.116 0 0 0-.362-1.532 1.116 1.116 0 0 0-1.532.362Zm27.447.085c0 .55.45 1 1 1s1-.45 1-1-.45-1-1-1-1 .45-1 1Zm28.5 0c-.34.55.11 1 1 1s1.34-.45 1-1c-.34-.55-.79-1-1-1-.21 0-.66.45-1 1Zm28.053-.085a1.116 1.116 0 0 0 .362 1.532c.521.322 1.21.159 1.532-.362a1.116 1.116 0 0 0-.362-1.532 1.116 1.116 0 0 0-1.532.362ZM91.83 287.533c0 .857.457 1.276 1.016.931.559-.346.758-1.047.44-1.559-.856-1.387-1.456-1.129-1.456.628Zm56 0c0 .857.457 1.276 1.016.931.559-.346.758-1.047.441-1.559-.857-1.387-1.457-1.129-1.457.628Zm27.553-.644a1.116 1.116 0 0 0 .362 1.532c.521.322 1.21.159 1.532-.362a1.116 1.116 0 0 0-.362-1.532 1.116 1.116 0 0 0-1.532.362Zm84 0a1.116 1.116 0 0 0 .362 1.532c.521.322 1.21.159 1.532-.362a1.116 1.116 0 0 0-.362-1.532 1.116 1.116 0 0 0-1.532.362Zm28 0a1.116 1.116 0 0 0 .362 1.532c.521.322 1.21.159 1.532-.362a1.116 1.116 0 0 0-.362-1.532 1.116 1.116 0 0 0-1.532.362Zm56 0a1.116 1.116 0 0 0 .362 1.532c.521.322 1.21.159 1.532-.362a1.116 1.116 0 0 0-.362-1.532 1.116 1.116 0 0 0-1.532.362Zm-223.553 1.085c0 .55.45 1 1 1s1-.45 1-1-.45-1-1-1-1 .45-1 1Zm-39 1.441c0 .857.45 1.559 1 1.559s1-.423 1-.941-.45-1.219-1-1.559c-.55-.34-1 .084-1 .941Zm84-.5c0 .518.45 1.219 1 1.559.55.34 1-.084 1-.941s-.45-1.559-1-1.559-1 .423-1 .941Zm167.553-.026a1.116 1.116 0 0 0 .362 1.532c.521.322 1.21.159 1.532-.362a1.116 1.116 0 0 0-.362-1.532 1.116 1.116 0 0 0-1.532.362Zm-223.553 1.085c0 .55.45 1 1 1s1-.45 1-1-.45-1-1-1-1 .45-1 1Zm167.51.016c.346.559 1.047.758 1.559.441 1.387-.857 1.129-1.457-.628-1.457-.857 0-1.276.457-.931 1.016Zm28.49-.016c0 .55.45 1 1 1s1-.45 1-1-.45-1-1-1-1 .45-1 1Zm-235 2c0 .55.45 1 1 1s1-.45 1-1-.45-1-1-1-1 .45-1 1Zm28 0c0 .55.45 1 1 1s1-.45 1-1-.45-1-1-1-1 .45-1 1Zm28 0c0 .55.45 1 1 1s1-.45 1-1-.45-1-1-1-1 .45-1 1Zm28 0c0 .55.45 1 1 1s1-.45 1-1-.45-1-1-1-1 .45-1 1Zm111 0c0 .55.423 1 .941 1s1.219-.45 1.559-1c.34-.55-.084-1-.941-1s-1.559.45-1.559 1Zm29 0c0 .55.45 1 1 1s1-.45 1-1-.45-1-1-1-1 .45-1 1Zm28 0c0 .55.45 1 1 1s1-.45 1-1-.45-1-1-1-1 .45-1 1Zm28 0c0 .55.45 1 1 1s1-.45 1-1-.45-1-1-1-1 .45-1 1Zm-263 2c0 .55.45 1 1 1s1-.45 1-1-.45-1-1-1-1 .45-1 1Zm56 0c0 .55.45 1 1 1s1-.45 1-1-.45-1-1-1-1 .45-1 1Zm28 0c0 .55.45 1 1 1s1-.45 1-1-.45-1-1-1-1 .45-1 1Zm84 0c0 .55.45 1 1 1s1-.45 1-1-.45-1-1-1-1 .45-1 1Zm28 0c0 .55.45 1 1 1s1-.45 1-1-.45-1-1-1-1 .45-1 1Zm28 0c0 .55.45 1 1 1s1-.45 1-1-.45-1-1-1-1 .45-1 1Zm28 0c0 .55.45 1 1 1s1-.45 1-1-.45-1-1-1-1 .45-1 1Zm-263 1.941c0 .518.45 1.219 1 1.559.55.34 1-.084 1-.941s-.45-1.559-1-1.559-1 .423-1 .941Zm28.543-.01c-.317.512-.118 1.213.441 1.559.559.345 1.016-.074 1.016-.931 0-1.757-.6-2.015-1.457-.628Zm55.457.01c0 .518.45 1.219 1 1.559.55.34 1-.084 1-.941s-.45-1.559-1-1.559-1 .423-1 .941Zm168 .059c0 .55.45 1 1 1s1-.45 1-1-.45-1-1-1-1 .45-1 1Zm28 .441c0 .857.45 1.559 1 1.559s1-.423 1-.941-.45-1.219-1-1.559c-.55-.34-1 .084-1 .941Zm-224 .559c0 .55.45 1 1 1s1-.45 1-1-.45-1-1-1-1 .45-1 1Zm-38.447.915a1.116 1.116 0 0 0 .362 1.532c.52.322 1.21.159 1.532-.362a1.116 1.116 0 0 0-.362-1.532 1.116 1.116 0 0 0-1.532.362Zm28 0a1.116 1.116 0 0 0 .362 1.532c.521.322 1.21.159 1.532-.362a1.116 1.116 0 0 0-.362-1.532 1.116 1.116 0 0 0-1.532.362Zm27.99.016c-.317.512-.118 1.213.441 1.559.559.345 1.016-.074 1.016-.931 0-1.757-.6-2.015-1.457-.628Zm27.457.069c0 .55.45 1 1 1s1-.45 1-1-.45-1-1-1-1 .45-1 1Zm84-.059c0 .518.45 1.219 1 1.559.55.34 1-.084 1-.941s-.45-1.559-1-1.559-1 .423-1 .941Zm84.583-.075c-.431.697-.513 1.537-.183 1.867.895.895 1.871-.421 1.387-1.871-.338-1.016-.574-1.016-1.204.004ZM64.83 298.974c0 .55.423 1 .94 1 .519 0 1.22-.45 1.56-1 .34-.55-.084-1-.941-1s-1.56.45-1.56 1Zm129.008.121c-1.371.547-2.846 1.624-3.277 2.395-.431.77-1.403 1.163-2.16.873-1.831-.703-8.466 2.769-11.495 6.014-1.334 1.428-2.966 2.597-3.628 2.597-1.862 0-3.985 3.089-3.617 5.263.207 1.221-.08 1.701-.766 1.277-.604-.373-.839-1.097-.522-1.609 1.162-1.882-2.354-.854-6.223 1.819-8.075 5.577-8.392 5.899-7.669 7.783.555 1.446.335 1.676-1.084 1.131-1.222-.469-2.915.312-5.39 2.485-1.984 1.743-5.589 4.425-8.011 5.961-2.421 1.535-5.063 4.051-5.871 5.591-2.919 5.562-7.295 18.755-7.295 21.99 0 1.82-.398 3.309-.885 3.309-1.065 0-2.34 9.443-2.254 16.692.035 2.878 1.687 11.822 3.672 19.875 4.349 17.641 4.278 17.443 6.05 16.763.779-.299 1.417-.079 1.417.49 0 .568-.712 1.179-1.582 1.357-1.328.271-1.113 1.214 1.335 5.862 1.605 3.047 3.202 7.932 3.548 10.856.704 5.942 2.089 8.276 4.388 7.394 1.183-.454 1.392-.118.896 1.442-.507 1.597.305 2.755 3.785 5.401 2.436 1.852 9.184 7.511 14.996 12.575 5.812 5.064 11.82 9.843 13.351 10.621 1.54.782 7.04 1.627 12.317 1.892 5.244.263 10.532 1.012 11.75 1.665 1.431.765 2.216.818 2.216.15 0-.569.45-1.035 1-1.035s1 .685 1 1.521c0 .837 1.238 2.018 2.75 2.625 1.512.607 3.832 1.609 5.154 2.229 1.322.619 5.822 1.105 10 1.081 10.422-.062 34.84-7.354 39.191-11.705 1.598-1.598 2.905-2.575 2.905-2.173 0 .403.903-.085 2.007-1.084 1.104-.999 1.891-2.521 1.75-3.381-.141-.861.418-1.576 1.243-1.589 3.232-.051 19-12.651 19-15.182 0-.803.37-1.232.822-.952 1.374.849 4.181-3.219 3.48-5.046-.483-1.258-.244-1.536.931-1.085 1.12.43 1.955-.321 2.867-2.576.707-1.751 1.624-3.419 2.037-3.707 1.332-.931 6.906-18.796 6.764-21.681-.076-1.537 1.04-5.599 2.48-9.025 2.552-6.07 3.382-10.524 1.869-10.02-.413.138-.75-.2-.75-.75s.357-.881.793-.736c1.028.343-.308-17.958-1.953-26.757-.851-4.548-5.357-15.425-9.414-22.724-1.767-3.181-4.14-7.484-5.271-9.563-1.209-2.221-2.593-3.574-3.356-3.281-.715.274-1.299.1-1.299-.387s.46-1.039 1.023-1.226c.562-.188-.437-2.439-2.222-5.003-3.437-4.938-5.649-5.943-13.551-6.156-2.337-.063-4.25-.591-4.25-1.175 0-.583-2.812-2.385-6.25-4.005-3.437-1.619-7.775-3.966-9.64-5.215-4.536-3.041-5.11-2.891-5.11 1.334 0 5.251-2.779 15.258-5.574 20.072-1.334 2.298-2.426 4.693-2.426 5.321 0 .629-.675 1.819-1.5 2.644-1.861 1.861-1.861 6.897 0 15.357 1.781 8.098 1.917 24.599.231 28-.682 1.375-2.691 3.175-4.464 4-1.773.825-3.233 2.063-3.245 2.75-.029 1.679-1.676 1.594-2.334-.121-.29-.755-1.747-1.678-3.239-2.052-5.952-1.494-7.528-6.45-5.322-16.735.837-3.901.837-5.354 0-5.633-1.654-.551-1.374-2.209.373-2.209 1.777 0 1.807-.355.447-5.25-.572-2.062-1.452-3.75-1.954-3.75s-.881-1.238-.843-2.75c.037-1.512-1.331-6.495-3.041-11.072-1.71-4.578-3.109-9.142-3.109-10.143 0-1.002-.726-2.099-1.613-2.44-1.142-.438-1.317-.98-.601-1.857 1.611-1.971 2.622-18.106 1.291-20.593-1.56-2.916-6.758-5.442-9.685-4.707-1.351.339-2.392.156-2.392-.419 0-1.248-1.695-1.213-4.992.102Zm94.992-.121c0 .55.45 1 1 1s1-.45 1-1-.45-1-1-1-1 .45-1 1Zm28 0c0 .55.45 1 1 1s1-.45 1-1-.45-1-1-1-1 .45-1 1Zm-10 1.559c0 .857.457 1.276 1.016.931.559-.346.758-1.047.441-1.559-.857-1.387-1.457-1.129-1.457.628Zm-197 .441c0 .55.423 1 .941 1s1.219-.45 1.559-1c.34-.55-.084-1-.941-1s-1.559.45-1.559 1Zm28 0c0 .55.45 1 1 1s1-.45 1-1-.45-1-1-1-1 .45-1 1Zm28 0c0 .55.45 1 1 1s1-.45 1-1-.45-1-1-1-1 .45-1 1Zm112 0c0 .55.45 1 1 1s1-.45 1-1-.45-1-1-1-1 .45-1 1Zm56.5 0c.34.55.816 1 1.059 1s.441-.45.441-1-.477-1-1.059-1-.781.45-.441 1Zm-263 2c-.34.55.084 1 .94 1 .858 0 1.56-.45 1.56-1s-.423-1-.941-1-1.22.45-1.56 1Zm28 0c-.34.55.084 1 .941 1s1.559-.45 1.559-1-.423-1-.941-1-1.22.45-1.56 1Zm28.5 0c0 .55.45 1 1 1s1-.45 1-1-.45-1-1-1-1 .45-1 1Zm28 0c0 .55.45 1 1 1s1-.45 1-1-.45-1-1-1-1 .45-1 1Zm50-.118c0 .55.45 1.278 1 1.618.55.34 1 .168 1-.382s-.45-1.278-1-1.618c-.55-.34-1-.168-1 .382Zm61 .118c0 .55.45 1 1 1s1-.45 1-1-.45-1-1-1-1 .45-1 1Zm28.51.016c.346.559 1.047.758 1.559.441 1.387-.857 1.129-1.457-.628-1.457-.857 0-1.276.457-.931 1.016Zm27.49-.016c0 .55.45 1 1 1s1-.45 1-1-.45-1-1-1-1 .45-1 1Zm28 0c0 .55.45 1 1 1s1-.45 1-1-.45-1-1-1-1 .45-1 1Zm-262 2c0 .55.45 1 1 1s1-.45 1-1-.45-1-1-1-1 .45-1 1Zm27.5 0c-.34.55.084 1 .941 1s1.559-.45 1.559-1-.423-1-.941-1-1.219.45-1.559 1Zm28 0c-.34.55.11 1 1 1s1.34-.45 1-1c-.34-.55-.79-1-1-1-.21 0-.66.45-1 1Zm50.5.441c0 .857.45 1.559 1 1.559s1-.423 1-.941-.45-1.219-1-1.559c-.55-.34-1 .084-1 .941Zm89.5-.441c-.34.55.11 1 1 1s1.34-.45 1-1c-.34-.55-.79-1-1-1-.21 0-.66.45-1 1Zm28.5 0c0 .55.45 1 1 1s1-.45 1-1-.45-1-1-1-1 .45-1 1Zm28 0c0 .55.45 1 1 1s1-.45 1-1-.45-1-1-1-1 .45-1 1Zm-235.403 1.844c-.346.56-.142 1.319.453 1.687 1.538.95 2.53-.351 1.246-1.635-.718-.718-1.277-.735-1.699-.052Zm56.403.715c0 .857.457 1.276 1.016.931.559-.346.758-1.047.441-1.559-.857-1.387-1.457-1.129-1.457.628Zm112-.559c0 .55.45 1 1 1s1-.45 1-1-.45-1-1-1-1 .45-1 1Zm27.5 0c-.34.55.11 1 1 1s1.34-.45 1-1c-.34-.55-.79-1-1-1-.21 0-.66.45-1 1Zm28.053-.085a1.116 1.116 0 0 0 .362 1.532c.521.322 1.21.159 1.532-.362a1.116 1.116 0 0 0-.362-1.532 1.116 1.116 0 0 0-1.532.362Zm-195.553 1.085c0 .55.45 1 1 1s1-.45 1-1-.45-1-1-1-1 .45-1 1Zm50 0c0 .55.45 1 1 1s1-.45 1-1-.45-1-1-1-1 .45-1 1Zm-89 .882c0 .55.45 1.278 1 1.618.55.34 1 .168 1-.382s-.45-1.278-1-1.618c-.55-.34-1-.168-1 .382Zm28.583-.016c-.431.697-.513 1.537-.183 1.867.895.895 1.871-.421 1.387-1.871-.338-1.016-.574-1.016-1.204.004Zm26.97.049a1.116 1.116 0 0 0 .362 1.532c.521.322 1.21.159 1.532-.362a1.116 1.116 0 0 0-.362-1.532 1.116 1.116 0 0 0-1.532.362Zm140.447.526c0 .857.45 1.559 1 1.559s1-.423 1-.941-.45-1.219-1-1.559c-.55-.34-1 .084-1 .941Zm-90 .559c0 .55.45 1 1 1s1-.45 1-1-.45-1-1-1-1 .45-1 1Zm118 0c0 .55.45 1 1 1s1-.45 1-1-.45-1-1-1-1 .45-1 1Zm-207 2c0 .55.45 1 1 1s1-.45 1-1-.45-1-1-1-1 .45-1 1Zm28 0c0 .55.45 1 1 1s1-.45 1-1-.45-1-1-1-1 .45-1 1Zm50 0c0 .55.45 1 1 1s1-.45 1-1-.45-1-1-1-1 .45-1 1Zm89.51.016c.346.559 1.047.758 1.559.441 1.387-.857 1.129-1.457-.628-1.457-.857 0-1.276.457-.931 1.016Zm28.49-.016c0 .55.45 1 1 1s1-.45 1-1-.45-1-1-1-1 .45-1 1Zm-207 2c0 .55.45 1 1 1s1-.45 1-1-.45-1-1-1-1 .45-1 1Zm28 0c0 .55.45 1 1 1s1-.45 1-1-.45-1-1-1-1 .45-1 1Zm50-.059c0 .518.45 1.219 1 1.559.55.34 1-.084 1-.941s-.45-1.559-1-1.559-1 .423-1 .941Zm28.553-.026a1.116 1.116 0 0 0 .362 1.532c.521.322 1.21.159 1.532-.362a1.116 1.116 0 0 0-.362-1.532 1.116 1.116 0 0 0-1.532.362Zm89.447.085c0 .55.45 1 1 1s1-.45 1-1-.45-1-1-1-1 .45-1 1Zm-179 2c0 .55.45 1 1 1s1-.45 1-1-.45-1-1-1-1 .45-1 1Zm134 0c0 .55.45 1 1 1s1-.45 1-1-.45-1-1-1-1 .45-1 1Zm51 2c0 .55.45 1 1 1s1-.45 1-1-.45-1-1-1-1 .45-1 1Zm-167.49 1.016c.346.559 1.047.758 1.559.441 1.387-.857 1.129-1.457-.628-1.457-.857 0-1.276.457-.931 1.016Zm49.99-.016c-.34.55.11 1 1 1s1.34-.45 1-1c-.34-.55-.79-1-1-1-.21 0-.66.45-1 1Zm-10.5 2c0 .55.45 1 1 1s1-.45 1-1-.45-1-1-1-1 .45-1 1Zm27 0c0 .55.423 1 .941 1s1.219-.45 1.559-1c.34-.55-.084-1-.941-1s-1.559.45-1.559 1Zm57 0c0 .55.45 1 1 1s1-.45 1-1-.45-1-1-1-1 .45-1 1Zm-95.5 2c-.34.55.084 1 .941 1s1.559-.45 1.559-1-.423-1-.941-1-1.219.45-1.559 1Zm28.053-.085a1.116 1.116 0 0 0 .362 1.532c.521.322 1.21.159 1.532-.362a1.116 1.116 0 0 0-.362-1.532 1.116 1.116 0 0 0-1.532.362Zm55.447.085c0 .55.45 1 1 1s1-.45 1-1-.45-1-1-1-1 .45-1 1Zm28-.059c0 .518.45 1.219 1 1.559.55.34 1-.084 1-.941s-.45-1.559-1-1.559-1 .423-1 .941Zm-94 2.059c0 .55.477 1 1.059 1s.781-.45.441-1-.816-1-1.059-1-.441.45-.441 1Zm83.5 0c-.34.55.084 1 .941 1s1.559-.45 1.559-1-.423-1-.941-1-1.219.45-1.559 1Zm-66.5 2.441c0 .857.45 1.559 1 1.559s1-.423 1-.941-.45-1.219-1-1.559c-.55-.34-1 .084-1 .941Zm55.553-.526a1.116 1.116 0 0 0 .362 1.532c.521.322 1.21.159 1.532-.362a1.116 1.116 0 0 0-.362-1.532 1.116 1.116 0 0 0-1.532.362Zm28 0a1.116 1.116 0 0 0 .362 1.532c.521.322 1.21.159 1.532-.362a1.116 1.116 0 0 0-.362-1.532 1.116 1.116 0 0 0-1.532.362Zm-122.553 3.085c0 .55.45 1 1 1s1-.45 1-1-.45-1-1-1-1 .45-1 1Zm28 0c0 .55.45 1 1 1s1-.45 1-1-.45-1-1-1-1 .45-1 1Zm84 0c0 .55.45 1 1 1s1-.45 1-1-.45-1-1-1-1 .45-1 1Zm-95 2c0 .55.423 1 .941 1s1.219-.45 1.559-1c.34-.55-.084-1-.941-1s-1.559.45-1.559 1Zm28 0c0 .55.45 1 1 1s1-.45 1-1-.45-1-1-1-1 .45-1 1Zm56 0c0 .55.45 1 1 1s1-.45 1-1-.45-1-1-1-1 .45-1 1Zm-95 1.941c0 .518.45 1.219 1 1.559.55.34 1-.084 1-.941s-.45-1.559-1-1.559-1 .423-1 .941Zm28 0c0 .518.45 1.219 1 1.559.55.34 1-.084 1-.941s-.45-1.559-1-1.559-1 .423-1 .941Zm56 .059c0 .55.45 1 1 1s1-.45 1-1-.45-1-1-1-1 .45-1 1Zm-94.447 1.915a1.116 1.116 0 0 0 .362 1.532c.521.322 1.21.159 1.532-.362a1.116 1.116 0 0 0-.362-1.532 1.116 1.116 0 0 0-1.532.362Zm28 0a1.116 1.116 0 0 0 .362 1.532c.521.322 1.21.159 1.532-.362a1.116 1.116 0 0 0-.362-1.532 1.116 1.116 0 0 0-1.532.362Zm28 0a1.116 1.116 0 0 0 .362 1.532c.521.322 1.21.159 1.532-.362a1.116 1.116 0 0 0-.362-1.532 1.116 1.116 0 0 0-1.532.362Zm-66.553 2.644c0 .857.457 1.276 1.016.931.559-.346.758-1.047.441-1.559-.857-1.387-1.457-1.129-1.457.628Zm27.553-.644a1.116 1.116 0 0 0 .362 1.532c.521.322 1.21.159 1.532-.362a1.116 1.116 0 0 0-.362-1.532 1.116 1.116 0 0 0-1.532.362Zm83.447.085c0 .55.45 1 1 1s1-.45 1-1-.45-1-1-1-1 .45-1 1Zm28-.059c0 .518.45 1.219 1 1.559.55.34 1-.084 1-.941s-.45-1.559-1-1.559-1 .423-1 .941Zm-122.5 3.059c-.34.55-.168 1 .382 1s1.278-.45 1.618-1c.34-.55.168-1-.382-1s-1.278.45-1.618 1Zm28 0c-.34.55.084 1 .941 1s1.559-.45 1.559-1-.423-1-.941-1-1.219.45-1.559 1Zm55.5 0c0 .55.45 1 1 1s1-.45 1-1-.45-1-1-1-1 .45-1 1Zm28 0c0 .55.423 1 .941 1s1.219-.45 1.559-1c.34-.55-.084-1-.941-1s-1.559.45-1.559 1Zm-122 2c0 .55.45 1 1 1s1-.45 1-1-.45-1-1-1-1 .45-1 1Zm28 0c0 .55.45 1 1 1s1-.45 1-1-.45-1-1-1-1 .45-1 1Zm27.5 0c-.34.55-.168 1 .382 1s1.278-.45 1.618-1c.34-.55.168-1-.382-1s-1.278.45-1.618 1Zm56.5 0c0 .55.45 1 1 1s1-.45 1-1-.45-1-1-1-1 .45-1 1Zm27 0c0 .55.45 1 1 1s1-.45 1-1-.45-1-1-1-1 .45-1 1Zm-150 2c0 .55.45 1 1 1s1-.45 1-1-.45-1-1-1-1 .45-1 1Zm28 0c0 .55.45 1 1 1s1-.45 1-1-.45-1-1-1-1 .45-1 1Zm28 .559c0 .857.457 1.276 1.016.931.559-.346.758-1.047.441-1.559-.857-1.387-1.457-1.129-1.457.628Zm55-.559c0 .55.45 1 1 1s1-.45 1-1-.45-1-1-1-1 .45-1 1Zm28.553-.085a1.116 1.116 0 0 0 .362 1.532c.521.322 1.21.159 1.532-.362a1.116 1.116 0 0 0-.362-1.532 1.116 1.116 0 0 0-1.532.362Zm-122.553 2.085c0 .55.45 1 1 1s1-.45 1-1-.45-1-1-1-1 .45-1 1Zm27.5 0c-.34.55.11 1 1 1s1.34-.45 1-1c-.34-.55-.79-1-1-1-.21 0-.66.45-1 1Zm28.5 0c0 .55.477 1 1.059 1s.781-.45.441-1-.816-1-1.059-1-.441.45-.441 1Zm28 0c0 .55.45 1 1 1s1-.45 1-1-.45-1-1-1-1 .45-1 1Zm27 0c0 .55.45 1 1 1s1-.45 1-1-.45-1-1-1-1 .45-1 1Zm28 0c0 .55.45 1 1 1s1-.45 1-1-.45-1-1-1-1 .45-1 1Zm-150 2.559c0 .857.457 1.276 1.016.931.559-.346.758-1.047.441-1.559-.857-1.387-1.457-1.129-1.457.628Zm139.553-.644a1.116 1.116 0 0 0 .362 1.532c.521.322 1.21.159 1.532-.362a1.116 1.116 0 0 0-.362-1.532 1.116 1.116 0 0 0-1.532.362Zm-111.553 1.085c0 .55.45 1 1 1s1-.45 1-1-.45-1-1-1-1 .45-1 1Zm28 0c0 .55.45 1 1 1s1-.45 1-1-.45-1-1-1-1 .45-1 1Zm44.553.915a1.116 1.116 0 0 0 .362 1.532c.521.322 1.21.159 1.532-.362a1.116 1.116 0 0 0-.362-1.532 1.116 1.116 0 0 0-1.532.362Zm28.447.526c0 .857.45 1.559 1 1.559s1-.423 1-.941-.45-1.219-1-1.559c-.55-.34-1 .084-1 .941Zm-140 .559c0 .55.45 1 1 1s1-.45 1-1-.45-1-1-1-1 .45-1 1Zm28 0c0 .55.45 1 1 1s1-.45 1-1-.45-1-1-1-1 .45-1 1Zm100.597.844c-.346.56-.142 1.319.453 1.687 1.538.95 2.53-.351 1.246-1.635-.718-.718-1.277-.735-1.699-.052Zm-111.597 1.156c0 .55.45 1 1 1s1-.45 1-1-.45-1-1-1-1 .45-1 1Zm28 0c0 .55.45 1 1 1s1-.45 1-1-.45-1-1-1-1 .45-1 1Zm28 0c0 .55.45 1 1 1s1-.45 1-1-.45-1-1-1-1 .45-1 1Zm-67 2c0 .55.45 1 1 1s1-.45 1-1-.45-1-1-1-1 .45-1 1Zm28.543-.069c-.317.512-.118 1.213.441 1.559.559.345 1.016-.074 1.016-.931 0-1.757-.6-2.015-1.457-.628Zm27.457.069c0 .55.45 1 1 1s1-.45 1-1-.45-1-1-1-1 .45-1 1Zm56 0c0 .55.45 1 1 1s1-.45 1-1-.45-1-1-1-1 .45-1 1Zm28 0c0 .55.45 1 1 1s1-.45 1-1-.45-1-1-1-1 .45-1 1Zm-151 2c0 .55.45 1 1 1s1-.45 1-1-.45-1-1-1-1 .45-1 1Zm28.553-.085a1.116 1.116 0 0 0 .362 1.532c.521.322 1.21.159 1.532-.362a1.116 1.116 0 0 0-.362-1.532 1.116 1.116 0 0 0-1.532.362Zm27.447.085c0 .55.45 1 1 1s1-.45 1-1-.45-1-1-1-1 .45-1 1Zm28-.059c0 .518.45 1.219 1 1.559.55.34 1-.084 1-.941s-.45-1.559-1-1.559-1 .423-1 .941Zm28 .059c0 .55.45 1 1 1s1-.45 1-1-.45-1-1-1-1 .45-1 1Zm28 0c0 .55.45 1 1 1s1-.45 1-1-.45-1-1-1-1 .45-1 1Zm28 0c0 .55.45 1 1 1s1-.45 1-1-.45-1-1-1-1 .45-1 1Zm-39 2.441c0 .857.45 1.559 1 1.559s1-.423 1-.941-.45-1.219-1-1.559c-.55-.34-1 .084-1 .941Zm-84 .559c0 .55.45 1 1 1s1-.45 1-1-.45-1-1-1-1 .45-1 1Zm28 0c0 .55.423 1 .941 1s1.219-.45 1.559-1c.34-.55-.084-1-.941-1s-1.559.45-1.559 1Zm84 0c0 .55.45 1 1 1s1-.45 1-1-.45-1-1-1-1 .45-1 1Zm-122.447.915a1.116 1.116 0 0 0 .362 1.532c.521.322 1.21.159 1.532-.362a1.116 1.116 0 0 0-.362-1.532 1.116 1.116 0 0 0-1.532.362Zm83.447.585c0 .825.45 1.5 1 1.5s1-.675 1-1.5-.45-1.5-1-1.5-1 .675-1 1.5Zm28.553-.585a1.116 1.116 0 0 0 .362 1.532c.521.322 1.21.159 1.532-.362a1.116 1.116 0 0 0-.362-1.532 1.116 1.116 0 0 0-1.532.362Zm27.447-.033c0 .55.45 1.278 1 1.618.55.34 1 .168 1-.382s-.45-1.278-1-1.618c-.55-.34-1-.168-1 .382Zm-167 1.118c0 .55.45 1 1 1s1-.45 1-1-.45-1-1-1-1 .45-1 1Zm56 0c0 .55.45 1 1 1s1-.45 1-1-.45-1-1-1-1 .45-1 1Zm-40 2c0 .55.423 1 .941 1s1.219-.45 1.559-1c.34-.55-.084-1-.941-1s-1.559.45-1.559 1Zm56.5 0c-.34.55.11 1 1 1s1.34-.45 1-1c-.34-.55-.79-1-1-1-.21 0-.66.45-1 1Zm55.5 0c0 .55.45 1 1 1s1-.45 1-1-.45-1-1-1-1 .45-1 1Zm28 0c0 .55.45 1 1 1s1-.45 1-1-.45-1-1-1-1 .45-1 1Zm-150.457 1.931c-.683 1.105.894 2.299 1.818 1.375.95-.951.773-2.306-.302-2.306-.518 0-1.2.419-1.516.931Zm28.01-.016a1.116 1.116 0 0 0 .362 1.532c.521.322 1.21.159 1.532-.362a1.116 1.116 0 0 0-.362-1.532 1.116 1.116 0 0 0-1.532.362Zm27.947.085c-.34.55.084 1 .941 1s1.559-.45 1.559-1-.423-1-.941-1-1.219.45-1.559 1Zm56.053-.085a1.116 1.116 0 0 0 .362 1.532c.521.322 1.21.159 1.532-.362a1.116 1.116 0 0 0-.362-1.532 1.116 1.116 0 0 0-1.532.362Zm27.447.085c0 .55.45 1 1 1s1-.45 1-1-.45-1-1-1-1 .45-1 1Zm-150 2c0 .55.45 1 1 1s1-.45 1-1-.45-1-1-1-1 .45-1 1Zm28 0c0 .55.45 1 1 1s1-.45 1-1-.45-1-1-1-1 .45-1 1Zm27.543-.069c-.683 1.105.894 2.299 1.818 1.375.95-.951.773-2.306-.302-2.306-.518 0-1.2.419-1.516.931Zm28.01-.016a1.116 1.116 0 0 0 .362 1.532c.521.322 1.21.159 1.532-.362a1.116 1.116 0 0 0-.362-1.532 1.116 1.116 0 0 0-1.532.362Zm28.447.085c0 .55.45 1 1 1s1-.45 1-1-.45-1-1-1-1 .45-1 1Zm27 0c0 .55.45 1 1 1s1-.45 1-1-.45-1-1-1-1 .45-1 1Zm28 0c0 .55.45 1 1 1s1-.45 1-1-.45-1-1-1-1 .45-1 1Zm-150 2.559c0 .857.457 1.276 1.016.931.559-.346.758-1.047.441-1.559-.857-1.387-1.457-1.129-1.457.628Zm28 .441c0 .55.45 1 1 1s1-.45 1-1-.45-1-1-1-1 .45-1 1Zm28 0c0 .55.45 1 1 1s1-.45 1-1-.45-1-1-1-1 .45-1 1Zm83.51.016c.346.559 1.047.758 1.559.441 1.387-.857 1.129-1.457-.628-1.457-.857 0-1.276.457-.931 1.016Zm-38.957.899a1.116 1.116 0 0 0 .362 1.532c.521.322 1.21.159 1.532-.362a1.116 1.116 0 0 0-.362-1.532 1.116 1.116 0 0 0-1.532.362Zm28.447.526c0 .857.45 1.559 1 1.559s1-.423 1-.941-.45-1.219-1-1.559c-.55-.34-1 .084-1 .941Zm27.553-.526a1.116 1.116 0 0 0 .362 1.532c.521.322 1.21.159 1.532-.362a1.116 1.116 0 0 0-.362-1.532 1.116 1.116 0 0 0-1.532.362Zm-167.553 1.085c0 .55.45 1 1 1s1-.45 1-1-.45-1-1-1-1 .45-1 1Zm28 0c0 .55.45 1 1 1s1-.45 1-1-.45-1-1-1-1 .45-1 1Zm28 0c0 .55.45 1 1 1s1-.45 1-1-.45-1-1-1-1 .45-1 1Zm-66.49 2.016c.346.559 1.047.758 1.559.441 1.387-.857 1.129-1.457-.628-1.457-.857 0-1.276.457-.931 1.016Zm83.49-.016c0 .55.45 1 1 1s1-.45 1-1-.45-1-1-1-1 .45-1 1Zm56 0c0 .55.45 1 1 1s1-.45 1-1-.45-1-1-1-1 .45-1 1Zm-123 2c0 .55.45 1 1 1s1-.45 1-1-.45-1-1-1-1 .45-1 1Zm28-.059c0 .518.45 1.219 1 1.559.55.34 1-.084 1-.941s-.45-1.559-1-1.559-1 .423-1 .941Zm28 .059c0 .55.45 1 1 1s1-.45 1-1-.45-1-1-1-1 .45-1 1Zm56 0c0 .55.45 1 1 1s1-.45 1-1-.45-1-1-1-1 .45-1 1Zm28 0c0 .55.45 1 1 1s1-.45 1-1-.45-1-1-1-1 .45-1 1Zm-150.5 2c-.34.55-.141 1 .441 1s1.059-.45 1.059-1-.198-1-.441-1-.719.45-1.059 1Zm28.053-.085a1.116 1.116 0 0 0 .362 1.532c.521.322 1.21.159 1.532-.362a1.116 1.116 0 0 0-.362-1.532 1.116 1.116 0 0 0-1.532.362Zm27.447.026c0 .518.45 1.219 1 1.559.55.34 1-.084 1-.941s-.45-1.559-1-1.559-1 .423-1 .941Zm28 0c0 .518.45 1.219 1 1.559.55.34 1-.084 1-.941s-.45-1.559-1-1.559-1 .423-1 .941Zm28.5.059c-.34.55-.141 1 .441 1s1.059-.45 1.059-1-.198-1-.441-1-.719.45-1.059 1Zm27.5 0c0 .55.45 1 1 1s1-.45 1-1-.45-1-1-1-1 .45-1 1Zm28 0c0 .55.45 1 1 1s1-.45 1-1-.45-1-1-1-1 .45-1 1Zm-150.447 1.915a1.116 1.116 0 0 0 .362 1.532c.521.322 1.21.159 1.532-.362a1.116 1.116 0 0 0-.362-1.532 1.116 1.116 0 0 0-1.532.362Zm112.03-.049c-.431.697-.513 1.537-.183 1.867.895.895 1.871-.421 1.387-1.871-.338-1.016-.574-1.016-1.204.004Zm-84.583 1.134c0 .55.423 1 .941 1s1.219-.45 1.559-1c.34-.55-.084-1-.941-1s-1.559.45-1.559 1Zm28 0c0 .55.423 1 .941 1s1.219-.45 1.559-1c.34-.55-.084-1-.941-1s-1.559.45-1.559 1Zm84 0c0 .55.45 1 1 1s1-.45 1-1-.45-1-1-1-1 .45-1 1Zm-122.447.915a1.116 1.116 0 0 0 .362 1.532c.521.322 1.21.159 1.532-.362a1.116 1.116 0 0 0-.362-1.532 1.116 1.116 0 0 0-1.532.362Zm83.99.016c-.317.512-.118 1.213.441 1.559.559.345 1.016-.074 1.016-.931 0-1.757-.6-2.015-1.457-.628Zm28.01-.016a1.116 1.116 0 0 0 .362 1.532c.521.322 1.21.159 1.532-.362a1.116 1.116 0 0 0-.362-1.532 1.116 1.116 0 0 0-1.532.362Zm27.447.585c0 .825.45 1.5 1 1.5s1-.675 1-1.5-.45-1.5-1-1.5-1 .675-1 1.5Zm-167 .5c0 .55.45 1 1 1s1-.45 1-1-.45-1-1-1-1 .45-1 1Zm56 0c0 .55.45 1 1 1s1-.45 1-1-.45-1-1-1-1 .45-1 1Zm-39.49 2.016c.346.559 1.047.758 1.559.441 1.387-.857 1.129-1.457-.628-1.457-.857 0-1.276.457-.931 1.016Zm28.49-.016c0 .55.45 1 1 1s1-.45 1-1-.45-1-1-1-1 .45-1 1Zm55.5 0c-.34.55.084 1 .941 1s1.559-.45 1.559-1-.423-1-.941-1-1.219.45-1.559 1Zm55.5 0c0 .55.45 1 1 1s1-.45 1-1-.45-1-1-1-1 .45-1 1Zm-150 2c0 .55.45 1 1 1s1-.45 1-1-.45-1-1-1-1 .45-1 1Zm28 .559c0 .857.457 1.276 1.016.931.559-.346.758-1.047.441-1.559-.857-1.387-1.457-1.129-1.457.628Zm28-.559c0 .55.45 1 1 1s1-.45 1-1-.45-1-1-1-1 .45-1 1Zm83.5 0c-.34.55-.168 1 .382 1s1.278-.45 1.618-1c.34-.55.168-1-.382-1s-1.278.45-1.618 1Zm-150.5 2c0 .55.45 1 1 1s1-.45 1-1-.45-1-1-1-1 .45-1 1Zm28-.059c0 .518.45 1.219 1 1.559.55.34 1-.084 1-.941s-.45-1.559-1-1.559-1 .423-1 .941Zm28 .059c0 .55.45 1 1 1s1-.45 1-1-.45-1-1-1-1 .45-1 1Zm28 .559c0 .857.457 1.276 1.016.931.559-.346.758-1.047.441-1.559-.857-1.387-1.457-1.129-1.457.628Zm28-.559c0 .55.45 1 1 1s1-.45 1-1-.45-1-1-1-1 .45-1 1Zm27 0c0 .55.45 1 1 1s1-.45 1-1-.45-1-1-1-1 .45-1 1Zm28.5 0c-.34.55.11 1 1 1s1.34-.45 1-1c-.34-.55-.79-1-1-1-.21 0-.66.45-1 1Zm-38.947 1.915a1.116 1.116 0 0 0 .362 1.532c.521.322 1.21.159 1.532-.362a1.116 1.116 0 0 0-.362-1.532 1.116 1.116 0 0 0-1.532.362Zm-83.553 1.085c0 .55.45 1 1 1s1-.45 1-1-.45-1-1-1-1 .45-1 1Zm28 0c0 .55.45 1 1 1s1-.45 1-1-.45-1-1-1-1 .45-1 1Zm28 0c0 .55.45 1 1 1s1-.45 1-1-.45-1-1-1-1 .45-1 1Zm17 1.441c0 .857.45 1.559 1 1.559s1-.423 1-.941-.45-1.219-1-1.559c-.55-.34-1 .084-1 .941Zm-112 .559c0 .55.45 1 1 1s1-.45 1-1-.45-1-1-1-1 .45-1 1Zm28 0c0 .55.45 1 1 1s1-.45 1-1-.45-1-1-1-1 .45-1 1Zm28 0c0 .55.423 1 .941 1s1.219-.45 1.559-1c.34-.55-.084-1-.941-1s-1.559.45-1.559 1Zm28 0c0 .55.45 1 1 1s1-.45 1-1-.45-1-1-1-1 .45-1 1Zm56 0c0 .55.45 1 1 1s1-.45 1-1-.45-1-1-1-1 .45-1 1Zm-39 1.441c0 .857.45 1.559 1 1.559s1-.423 1-.941-.45-1.219-1-1.559c-.55-.34-1 .084-1 .941Zm-111 .559c0 .55.45 1 1 1s1-.45 1-1-.45-1-1-1-1 .45-1 1Zm27 0c0 .55.45 1 1 1s1-.45 1-1-.45-1-1-1-1 .45-1 1Zm28 0c0 .55.45 1 1 1s1-.45 1-1-.45-1-1-1-1 .45-1 1Zm28 0c0 .55.45 1 1 1s1-.45 1-1-.45-1-1-1-1 .45-1 1Zm56 0c0 .55.45 1 1 1s1-.45 1-1-.45-1-1-1-1 .45-1 1Zm28 0c0 .55.45 1 1 1s1-.45 1-1-.45-1-1-1-1 .45-1 1Zm-150.447 1.915a1.116 1.116 0 0 0 .362 1.532c.521.322 1.21.159 1.532-.362a1.116 1.116 0 0 0-.362-1.532 1.116 1.116 0 0 0-1.532.362Zm55.447.085c0 .55.45 1 1 1s1-.45 1-1-.45-1-1-1-1 .45-1 1Zm28.553-.085a1.116 1.116 0 0 0 .362 1.532c.521.322 1.21.159 1.532-.362a1.116 1.116 0 0 0-.362-1.532 1.116 1.116 0 0 0-1.532.362Zm27.447.085c0 .55.45 1 1 1s1-.45 1-1-.45-1-1-1-1 .45-1 1Zm28 0c0 .55.45 1 1 1s1-.45 1-1-.45-1-1-1-1 .45-1 1Zm-150.5 2c-.34.55.11 1 1 1s1.34-.45 1-1c-.34-.55-.79-1-1-1-.21 0-.66.45-1 1Zm28.5 0c0 .55.45 1 1 1s1-.45 1-1-.45-1-1-1-1 .45-1 1Zm27-.059c0 .518.45 1.219 1 1.559.55.34 1-.084 1-.941s-.45-1.559-1-1.559-1 .423-1 .941Zm56 .059c0 .55.702 1 1.559 1s1.281-.45.941-1c-.34-.55-1.041-1-1.559-1s-.941.45-.941 1Zm28 0c0 .55.45 1 1 1s1-.45 1-1-.45-1-1-1-1 .45-1 1Zm28 0c0 .55.45 1 1 1s1-.45 1-1-.45-1-1-1-1 .45-1 1Zm-150.447 1.915a1.116 1.116 0 0 0 .362 1.532c.521.322 1.21.159 1.532-.362a1.116 1.116 0 0 0-.362-1.532 1.116 1.116 0 0 0-1.532.362Zm27.957 1.101c.346.559 1.047.758 1.559.441 1.387-.857 1.129-1.457-.628-1.457-.857 0-1.276.457-.931 1.016Zm28.49-.016c0 .55.45 1 1 1s1-.45 1-1-.45-1-1-1-1 .45-1 1Zm55 0c0 .55.45 1 1 1s1-.45 1-1-.45-1-1-1-1 .45-1 1Zm28 0c0 .55.45 1 1 1s1-.45 1-1-.45-1-1-1-1 .45-1 1Zm-122 1.559c0 .857.457 1.276 1.016.931.559-.346.758-1.047.441-1.559-.857-1.387-1.457-1.129-1.457.628Zm83.553-.644a1.116 1.116 0 0 0 .362 1.532c.521.322 1.21.159 1.532-.362a1.116 1.116 0 0 0-.362-1.532 1.116 1.116 0 0 0-1.532.362Zm28.447.644c0 .857.457 1.276 1.016.931.559-.346.758-1.047.441-1.559-.857-1.387-1.457-1.129-1.457.628Zm-140 .441c0 .55.45 1 1 1s1-.45 1-1-.45-1-1-1-1 .45-1 1Zm56 0c0 .55.45 1 1 1s1-.45 1-1-.45-1-1-1-1 .45-1 1Zm27.51.016c.346.559 1.047.758 1.559.441 1.387-.857 1.129-1.457-.628-1.457-.857 0-1.276.457-.931 1.016Zm17.043.899a1.116 1.116 0 0 0 .362 1.532c.521.322 1.21.159 1.532-.362a1.116 1.116 0 0 0-.362-1.532 1.116 1.116 0 0 0-1.532.362Zm-111.553 1.085c0 .55.45 1 1 1s1-.45 1-1-.45-1-1-1-1 .45-1 1Zm28 0c0 .55.45 1 1 1s1-.45 1-1-.45-1-1-1-1 .45-1 1Zm28 0c0 .55.45 1 1 1s1-.45 1-1-.45-1-1-1-1 .45-1 1Zm27.5 0c-.34.55.11 1 1 1s1.34-.45 1-1c-.34-.55-.79-1-1-1-.21 0-.66.45-1 1Zm55.5 0c0 .55.423 1 .941 1s1.219-.45 1.559-1c.34-.55-.084-1-.941-1s-1.559.45-1.559 1Zm28 0c0 .55.45 1 1 1s1-.45 1-1-.45-1-1-1-1 .45-1 1Zm-122 2c0 .55.45 1 1 1s1-.45 1-1-.45-1-1-1-1 .45-1 1Zm28 0c0 .55.45 1 1 1s1-.45 1-1-.45-1-1-1-1 .45-1 1Zm28-.059c0 .518.45 1.219 1 1.559.55.34 1-.084 1-.941s-.45-1.559-1-1.559-1 .423-1 .941Zm55 .059c0 .55.675 1 1.5 1s1.5-.45 1.5-1-.675-1-1.5-1-1.5.45-1.5 1Zm-150 2c0 .55.45 1 1 1s1-.45 1-1-.45-1-1-1-1 .45-1 1Zm84 .441c0 .857.45 1.559 1 1.559s1-.423 1-.941-.45-1.219-1-1.559c-.55-.34-1 .084-1 .941Zm28-.441c0 .55.45 1 1 1s1-.45 1-1-.45-1-1-1-1 .45-1 1Zm27.5 0c-.34.55-.141 1 .441 1s1.059-.45 1.059-1-.198-1-.441-1-.719.45-1.059 1Zm-10.947 1.915a1.116 1.116 0 0 0 .362 1.532c.521.322 1.21.159 1.532-.362a1.116 1.116 0 0 0-.362-1.532 1.116 1.116 0 0 0-1.532.362Zm-111.053 1.085c.34.55.816 1 1.059 1s.441-.45.441-1-.477-1-1.059-1-.781.45-.441 1Zm27.5 0c0 .55.45 1 1 1s1-.45 1-1-.45-1-1-1-1 .45-1 1Zm28 0c0 .55.45 1 1 1s1-.45 1-1-.45-1-1-1-1 .45-1 1Zm28 0c0 .55.45 1 1 1s1-.45 1-1-.45-1-1-1-1 .45-1 1Zm56 0c0 .55.45 1 1 1s1-.45 1-1-.45-1-1-1-1 .45-1 1Zm-39 1.441c0 .857.45 1.559 1 1.559s1-.423 1-.941-.45-1.219-1-1.559c-.55-.34-1 .084-1 .941Zm-112 .559c0 .55.45 1 1 1s1-.45 1-1-.45-1-1-1-1 .45-1 1Zm28 0c0 .55.45 1 1 1s1-.45 1-1-.45-1-1-1-1 .45-1 1Zm28 0c0 .55.423 1 .941 1s1.219-.45 1.559-1c.34-.55-.084-1-.941-1s-1.559.45-1.559 1Zm28 0c0 .55.45 1 1 1s1-.45 1-1-.45-1-1-1-1 .45-1 1Zm56 0c0 .55.45 1 1 1s1-.45 1-1-.45-1-1-1-1 .45-1 1Zm-39 1.441c0 .857.45 1.559 1 1.559s1-.423 1-.941-.45-1.219-1-1.559c-.55-.34-1 .084-1 .941Zm-84 .559c0 .55.45 1 1 1s1-.45 1-1-.45-1-1-1-1 .45-1 1Zm28 0c0 .55.45 1 1 1s1-.45 1-1-.45-1-1-1-1 .45-1 1Zm84 0c0 .55.45 1 1 1s1-.45 1-1-.45-1-1-1-1 .45-1 1Zm28 0c0 .55.45 1 1 1s1-.45 1-1-.45-1-1-1-1 .45-1 1Zm-150.447 1.915a1.116 1.116 0 0 0 .362 1.532c.521.322 1.21.159 1.532-.362a1.116 1.116 0 0 0-.362-1.532 1.116 1.116 0 0 0-1.532.362Zm28 0a1.116 1.116 0 0 0 .362 1.532c.521.322 1.21.159 1.532-.362a1.116 1.116 0 0 0-.362-1.532 1.116 1.116 0 0 0-1.532.362Zm27.447.085c0 .55.45 1 1 1s1-.45 1-1-.45-1-1-1-1 .45-1 1Zm28.5 0c-.34.55.11 1 1 1s1.34-.45 1-1c-.34-.55-.79-1-1-1-.21 0-.66.45-1 1Zm27.5 0c0 .55.45 1 1 1s1-.45 1-1-.45-1-1-1-1 .45-1 1Zm28 0c0 .55.45 1 1 1s1-.45 1-1-.45-1-1-1-1 .45-1 1Zm-150.457 1.931c-.683 1.105.894 2.299 1.818 1.375.95-.951.773-2.306-.302-2.306-.518 0-1.2.419-1.516.931Zm28.457.069c0 .55.45 1 1 1s1-.45 1-1-.45-1-1-1-1 .45-1 1Zm27.553-.085a1.116 1.116 0 0 0 .362 1.532c.521.322 1.21.159 1.532-.362a1.116 1.116 0 0 0-.362-1.532 1.116 1.116 0 0 0-1.532.362Zm28 0a1.116 1.116 0 0 0 .362 1.532c.521.322 1.21.159 1.532-.362a1.116 1.116 0 0 0-.362-1.532 1.116 1.116 0 0 0-1.532.362Zm27.947.085c-.34.55.084 1 .941 1s1.559-.45 1.559-1-.423-1-.941-1-1.219.45-1.559 1Zm27.5 0c0 .55.45 1 1 1s1-.45 1-1-.45-1-1-1-1 .45-1 1Zm-122.447 1.915a1.116 1.116 0 0 0 .362 1.532c.521.322 1.21.159 1.532-.362a1.116 1.116 0 0 0-.362-1.532 1.116 1.116 0 0 0-1.532.362Zm84 0a1.116 1.116 0 0 0 .362 1.532c.521.322 1.21.159 1.532-.362a1.116 1.116 0 0 0-.362-1.532 1.116 1.116 0 0 0-1.532.362Zm28.03-.049c-.431.697-.513 1.537-.183 1.867.895.895 1.871-.421 1.387-1.871-.338-1.016-.574-1.016-1.204.004Zm-83.583 1.134c0 .55.45 1 1 1s1-.45 1-1-.45-1-1-1-1 .45-1 1Zm111.51.016c.346.559 1.047.758 1.559.441 1.387-.857 1.129-1.457-.628-1.457-.857 0-1.276.457-.931 1.016Zm-150.51 1.984c0 .55.45 1 1 1s1-.45 1-1-.45-1-1-1-1 .45-1 1Zm56 0c0 .55.45 1 1 1s1-.45 1-1-.45-1-1-1-1 .45-1 1Zm28 .059c0 .582.45.781 1 .441s1-.816 1-1.059-.45-.441-1-.441-1 .477-1 1.059Zm-67 1.941c0 .55.45 1 1 1s1-.45 1-1-.45-1-1-1-1 .45-1 1Zm28 0c0 .55.45 1 1 1s1-.45 1-1-.45-1-1-1-1 .45-1 1Zm28 .559c0 .857.457 1.276 1.016.931.559-.346.758-1.047.441-1.559-.857-1.387-1.457-1.129-1.457.628Zm27.51-.543c.346.559 1.047.758 1.559.441 1.387-.857 1.129-1.457-.628-1.457-.857 0-1.276.457-.931 1.016Zm27.49-.016c0 .55.423 1 .941 1s1.219-.45 1.559-1c.34-.55-.084-1-.941-1s-1.559.45-1.559 1Zm-122 2c0 .55.45 1 1 1s1-.45 1-1-.45-1-1-1-1 .45-1 1Zm28 .5c0 .825.45 1.5 1 1.5s1-.675 1-1.5-.45-1.5-1-1.5-1 .675-1 1.5Zm28-.5c0 .55.45 1 1 1s1-.45 1-1-.45-1-1-1-1 .45-1 1Zm28-.059c0 .518.45 1.219 1 1.559.55.34 1-.084 1-.941s-.45-1.559-1-1.559-1 .423-1 .941Zm27.553-.026a1.116 1.116 0 0 0 .362 1.532c.521.322 1.21.159 1.532-.362a1.116 1.116 0 0 0-.362-1.532 1.116 1.116 0 0 0-1.532.362Zm28.447.085c0 .55.45 1 1 1s1-.45 1-1-.45-1-1-1-1 .45-1 1Zm-151 1.941c0 .518.45 1.219 1 1.559.55.34 1-.084 1-.941s-.45-1.559-1-1.559-1 .423-1 .941Zm28.553-.026a1.116 1.116 0 0 0 .362 1.532c.521.322 1.21.159 1.532-.362a1.116 1.116 0 0 0-.362-1.532 1.116 1.116 0 0 0-1.532.362Zm27.447.085c0 .55.45 1 1 1s1-.45 1-1-.45-1-1-1-1 .45-1 1Zm28 .559c0 .857.45 1.281 1 .941.55-.34 1-1.041 1-1.559s-.45-.941-1-.941-1 .702-1 1.559Zm28-.559c0 .55.45 1 1 1s1-.45 1-1-.45-1-1-1-1 .45-1 1Zm27.5 0c-.34.55.084 1 .941 1s1.559-.45 1.559-1-.423-1-.941-1-1.219.45-1.559 1Zm-121.957 1.931c-.317.512-.118 1.213.441 1.559.559.345 1.016-.074 1.016-.931 0-1.757-.6-2.015-1.457-.628Zm111.457.51c0 .857.45 1.559 1 1.559s1-.423 1-.941-.45-1.219-1-1.559c-.55-.34-1 .084-1 .941Zm-84 .559c0 .55.45 1 1 1s1-.45 1-1-.45-1-1-1-1 .45-1 1Zm28 0c0 .55.45 1 1 1s1-.45 1-1-.45-1-1-1-1 .45-1 1Zm-67 2c0 .55.423 1 .941 1s1.219-.45 1.559-1c.34-.55-.084-1-.941-1s-1.559.45-1.559 1Zm28.51.016c.346.559 1.047.758 1.559.441 1.387-.857 1.129-1.457-.628-1.457-.857 0-1.276.457-.931 1.016Zm28.49-.016c0 .55.45 1 1 1s1-.45 1-1-.45-1-1-1-1 .45-1 1Zm27 0c0 .55.45 1 1 1s1-.45 1-1-.45-1-1-1-1 .45-1 1Zm28 0c0 .55.45 1 1 1s1-.45 1-1-.45-1-1-1-1 .45-1 1Zm28 0c0 .55.45 1 1 1s1-.45 1-1-.45-1-1-1-1 .45-1 1Zm-123 2c0 .55.45 1 1 1s1-.45 1-1-.45-1-1-1-1 .45-1 1Zm56.543-.069c-.317.512-.118 1.213.441 1.559.559.345 1.016-.074 1.016-.931 0-1.757-.6-2.015-1.457-.628Zm27.457.069c0 .55.45 1 1 1s1-.45 1-1-.45-1-1-1-1 .45-1 1Zm28 0c0 .55.45 1 1 1s1-.45 1-1-.45-1-1-1-1 .45-1 1Zm-94.447 1.915a1.116 1.116 0 0 0 .362 1.532c.521.322 1.21.159 1.532-.362a1.116 1.116 0 0 0-.362-1.532 1.116 1.116 0 0 0-1.532.362Zm27.947.085c-.34.55.084 1 .941 1s1.559-.45 1.559-1-.423-1-.941-1-1.219.45-1.559 1Zm28.5 0c0 .55.45 1 1 1s1-.45 1-1-.45-1-1-1-1 .45-1 1Zm27-.059c0 .518.45 1.219 1 1.559.55.34 1-.084 1-.941s-.45-1.559-1-1.559-1 .423-1 .941Zm-94 2.059c0 .55.45 1 1 1s1-.45 1-1-.45-1-1-1-1 .45-1 1Zm27.5 0c-.34.55.11 1 1 1s1.34-.45 1-1c-.34-.55-.79-1-1-1-.21 0-.66.45-1 1Zm28.053-.085a1.116 1.116 0 0 0 .362 1.532c.521.322 1.21.159 1.532-.362a1.116 1.116 0 0 0-.362-1.532 1.116 1.116 0 0 0-1.532.362Zm55.447.085c0 .55.45 1 1 1s1-.45 1-1-.45-1-1-1-1 .45-1 1Zm-122 2.559c0 .857.457 1.276 1.016.931.559-.346.758-1.047.441-1.559-.857-1.387-1.457-1.129-1.457.628Zm83.553-.644a1.116 1.116 0 0 0 .362 1.532c.521.322 1.21.159 1.532-.362a1.116 1.116 0 0 0-.362-1.532 1.116 1.116 0 0 0-1.532.362Zm28 0a1.116 1.116 0 0 0 .362 1.532c.521.322 1.21.159 1.532-.362a1.116 1.116 0 0 0-.362-1.532 1.116 1.116 0 0 0-1.532.362Zm-83.553 1.085c0 .55.45 1 1 1s1-.45 1-1-.45-1-1-1-1 .45-1 1Zm72.553.915a1.116 1.116 0 0 0 .362 1.532c.521.322 1.21.159 1.532-.362a1.116 1.116 0 0 0-.362-1.532 1.116 1.116 0 0 0-1.532.362Zm-111.553 1.085c0 .55.45 1 1 1s1-.45 1-1-.45-1-1-1-1 .45-1 1Zm28 0c0 .55.45 1 1 1s1-.45 1-1-.45-1-1-1-1 .45-1 1Zm28 0c0 .55.45 1 1 1s1-.45 1-1-.45-1-1-1-1 .45-1 1Zm28 0c0 .55.45 1 1 1s1-.45 1-1-.45-1-1-1-1 .45-1 1Zm16.553.915a1.116 1.116 0 0 0 .362 1.532c.521.322 1.21.159 1.532-.362a1.116 1.116 0 0 0-.362-1.532 1.116 1.116 0 0 0-1.532.362Zm-83.553 1.085c0 .55.45 1 1 1s1-.45 1-1-.45-1-1-1-1 .45-1 1Zm28 0c0 .55.45 1 1 1s1-.45 1-1-.45-1-1-1-1 .45-1 1Zm28 0c0 .55.45 1 1 1s1-.45 1-1-.45-1-1-1-1 .45-1 1Zm56 .059c0 .582.45.781 1 .441s1-.816 1-1.059-.45-.441-1-.441-1 .477-1 1.059Zm-123 1.882c0 .518.45 1.219 1 1.559.55.34 1-.084 1-.941s-.45-1.559-1-1.559-1 .423-1 .941Zm28.583-.075c-.431.697-.513 1.537-.183 1.867.895.895 1.871-.421 1.387-1.871-.338-1.016-.574-1.016-1.204.004Zm27.417.134c0 .55.45 1 1 1s1-.45 1-1-.45-1-1-1-1 .45-1 1Zm28.553-.085a1.116 1.116 0 0 0 .362 1.532c.521.322 1.21.159 1.532-.362a1.116 1.116 0 0 0-.362-1.532 1.116 1.116 0 0 0-1.532.362Zm27.447.644c0 .857.45 1.281 1 .941.55-.34 1-1.041 1-1.559s-.45-.941-1-.941-1 .702-1 1.559Zm-94.447 1.356a1.116 1.116 0 0 0 .362 1.532c.521.322 1.21.159 1.532-.362a1.116 1.116 0 0 0-.362-1.532 1.116 1.116 0 0 0-1.532.362Zm27.447.085c0 .55.45 1 1 1s1-.45 1-1-.45-1-1-1-1 .45-1 1Zm28.583-.134c-.431.697-.513 1.537-.183 1.867.895.895 1.871-.421 1.387-1.871-.338-1.016-.574-1.016-1.204.004Zm27.417.134c0 .55.45 1 1 1s1-.45 1-1-.45-1-1-1-1 .45-1 1Zm-94.447 1.915a1.116 1.116 0 0 0 .362 1.532c.521.322 1.21.159 1.532-.362a1.116 1.116 0 0 0-.362-1.532 1.116 1.116 0 0 0-1.532.362Zm83.447.644c0 .857.45 1.281 1 .941.55-.34 1-1.041 1-1.559s-.45-.941-1-.941-1 .702-1 1.559Zm-56 .441c0 .55.45 1 1 1s1-.45 1-1-.45-1-1-1-1 .45-1 1Zm28 0c0 .55.423 1 .941 1s1.219-.45 1.559-1c.34-.55-.084-1-.941-1s-1.559.45-1.559 1Zm56 0c0 .55.45 1 1 1s1-.45 1-1-.45-1-1-1-1 .45-1 1Zm-11 .882c0 .55.45 1.278 1 1.618.55.34 1 .168 1-.382s-.45-1.278-1-1.618c-.55-.34-1-.168-1 .382Zm-84 1.118c0 .55.423 1 .941 1s1.219-.45 1.559-1c.34-.55-.084-1-.941-1s-1.559.45-1.559 1Zm29 0c0 .55.45 1 1 1s1-.45 1-1-.45-1-1-1-1 .45-1 1Zm27 0c0 .55.423 1 .941 1s1.219-.45 1.559-1c.34-.55-.084-1-.941-1s-1.559.45-1.559 1Zm-10.447 1.915a1.116 1.116 0 0 0 .362 1.532c.521.322 1.21.159 1.532-.362a1.116 1.116 0 0 0-.362-1.532 1.116 1.116 0 0 0-1.532.362Zm27.447.085c0 .55.45 1 1 1s1-.45 1-1-.45-1-1-1-1 .45-1 1Zm-66.447 1.915a1.116 1.116 0 0 0 .362 1.532c.521.322 1.21.159 1.532-.362a1.116 1.116 0 0 0-.362-1.532 1.116 1.116 0 0 0-1.532.362Zm27.947.085c-.34.55.084 1 .941 1s1.559-.45 1.559-1-.423-1-.941-1-1.219.45-1.559 1Zm27.5 0c0 .55.702 1 1.559 1s1.281-.45.941-1c-.34-.55-1.041-1-1.559-1s-.941.45-.941 1Zm-66 1.941c0 .518.45 1.219 1 1.559.55.34 1-.084 1-.941s-.45-1.559-1-1.559-1 .423-1 .941Zm27.553-.026a1.116 1.116 0 0 0 .362 1.532c.521.322 1.21.159 1.532-.362a1.116 1.116 0 0 0-.362-1.532 1.116 1.116 0 0 0-1.532.362Zm28 0a1.116 1.116 0 0 0 .362 1.532c.521.322 1.21.159 1.532-.362a1.116 1.116 0 0 0-.362-1.532 1.116 1.116 0 0 0-1.532.362Zm27.947.085c-.34.55.084 1 .941 1s1.559-.45 1.559-1-.423-1-.941-1-1.219.45-1.559 1Zm-10.947 1.915a1.116 1.116 0 0 0 .362 1.532c.521.322 1.21.159 1.532-.362a1.116 1.116 0 0 0-.362-1.532 1.116 1.116 0 0 0-1.532.362Zm-55.553 1.085c0 .55.45 1 1 1s1-.45 1-1-.45-1-1-1-1 .45-1 1Zm28 0c0 .55.45 1 1 1s1-.45 1-1-.45-1-1-1-1 .45-1 1Zm-39 2c0 .55.45 1 1 1s1-.45 1-1-.45-1-1-1-1 .45-1 1Zm28 0c0 .55.45 1 1 1s1-.45 1-1-.45-1-1-1-1 .45-1 1Zm44.597.844c-.346.56-.142 1.319.453 1.687 1.538.95 2.53-.351 1.246-1.635-.718-.718-1.277-.735-1.699-.052Zm-55.597 1.156c0 .55.45 1 1 1s1-.45 1-1-.45-1-1-1-1 .45-1 1Zm28-.059c0 .518.45 1.219 1 1.559.55.34 1-.084 1-.941s-.45-1.559-1-1.559-1 .423-1 .941Zm-11 2.059c0 .55.45 1 1 1s1-.45 1-1-.45-1-1-1-1 .45-1 1Zm28 0c0 .55.45 1 1 1s1-.45 1-1-.45-1-1-1-1 .45-1 1Zm-10.457 1.931c-.317.512-.118 1.213.441 1.559.559.345 1.016-.074 1.016-.931 0-1.757-.6-2.015-1.457-.628Zm-11.543 3.069c0 .55.45 1 1 1s1-.45 1-1-.45-1-1-1-1 .45-1 1Zm-30.5 36.08c1.1 1.331 2.238 2.645 2.528 2.92 1.733 1.641 11.899 15.997 13.1 18.5 1.555 3.239 1.868 3.292 10.872 1.837 5.025-.812 12.858.221 15.891 2.096.482.298 1.464-.875 2.181-2.607 1.603-3.869 6.938-11.738 12.26-18.081 2.195-2.616 3.763-4.983 3.485-5.261-.278-.278-2.353.147-4.611.943-14.411 5.085-39.145 4.189-55.706-2.017l-2-.749 2 2.419Zm22.5 28.129c-1.375.651-2.658 1.291-2.85 1.421-.193.13.405 3.247 1.327 6.926 1.541 6.143 1.627 16.18 1.058 122.817-.65 121.88-1.003 146.629-2.154 151.29-1.602 6.483-7.783 13.474-15.265 17.265-11.573 5.864-41.84 13.858-77.616 20.498-36.812 6.832-44.442 10.481-33.985 16.25 7.699 4.247 34.973 9.93 56.485 11.77 3.575.305 8.75.791 11.5 1.079 12.173 1.273 19.961 1.603 51.034 2.16 47.365.848 87.731-1.314 118.966-6.373 5.5-.89 11.462-1.824 13.25-2.075 1.788-.251 3.25-.799 3.25-1.219 0-.419 1.798-1.05 3.996-1.401 2.198-.352 3.945-.972 3.882-1.378-.299-1.927.247-2.38 1.558-1.292 1.763 1.463 5.564-.233 5.564-2.482 0-1.669 1.656-1.996 2.178-.43.211.633 1.116.462 2.334-.442 5.16-3.831-3.622-7.555-29.578-12.543-9.039-1.737-20.709-4.077-25.934-5.201-5.225-1.123-12.618-2.709-16.428-3.524-8.464-1.81-28.614-7.621-35.965-10.371-9.527-3.564-16.762-8.97-20.107-15.025l-3-5.429.177-52c.098-28.6.463-88.785.812-133.744.581-74.841.788-82.299 2.457-88.319l1.823-6.574-2.634-1.073c-3.919-1.596-13.281-1.933-16.135-.581Zm4 286.791c0 .55.45 1 1 1s1-.45 1-1-.45-1-1-1-1 .45-1 1Zm10 4c0 .55.45 1 1 1s1-.45 1-1-.45-1-1-1-1 .45-1 1Zm-7 3c0 .55.45 1 1 1s1-.45 1-1-.45-1-1-1-1 .45-1 1Zm10 4c0 .55.45 1 1 1s1-.45 1-1-.45-1-1-1-1 .45-1 1Zm-7 3.559c0 .857.45 1.281 1 .941.55-.34 1-1.041 1-1.559s-.45-.941-1-.941-1 .702-1 1.559Zm18 0c0 .857.457 1.276 1.016.931.559-.346.758-1.047.441-1.559-.857-1.387-1.457-1.129-1.457.628Zm-7.447 2.356a1.116 1.116 0 0 0 .362 1.532c.521.322 1.21.159 1.532-.362a1.116 1.116 0 0 0-.362-1.532 1.116 1.116 0 0 0-1.532.362Zm11.03 3.951c-.431.697-.513 1.537-.183 1.867.895.895 1.871-.421 1.387-1.871-.338-1.016-.574-1.016-1.204.004Zm-8.03 3.049a1.116 1.116 0 0 0 .362 1.532c.521.322 1.21.159 1.532-.362a1.116 1.116 0 0 0-.362-1.532 1.116 1.116 0 0 0-1.532.362Zm18 1a1.116 1.116 0 0 0 .362 1.532c.521.322 1.21.159 1.532-.362a1.116 1.116 0 0 0-.362-1.532 1.116 1.116 0 0 0-1.532.362Zm18 0a1.116 1.116 0 0 0 .362 1.532c.521.322 1.21.159 1.532-.362a1.116 1.116 0 0 0-.362-1.532 1.116 1.116 0 0 0-1.532.362Zm-25.553 3.644c0 .857.45 1.281 1 .941.55-.34 1-1.041 1-1.559s-.45-.941-1-.941-1 .702-1 1.559Zm18 .441c0 .55.45 1 1 1s1-.45 1-1-.45-1-1-1-1 .45-1 1Zm18 0c0 .55.45 1 1 1s1-.45 1-1-.45-1-1-1-1 .45-1 1Zm-25.5 3c-.34.55.11 1 1 1s1.34-.45 1-1c-.34-.55-.79-1-1-1-.21 0-.66.45-1 1Zm18.5 1c0 .55.45 1 1 1s1-.45 1-1-.45-1-1-1-1 .45-1 1Zm17 0c0 .55.45 1 1 1s1-.45 1-1-.45-1-1-1-1 .45-1 1Zm-42.417 1.866c-.431.697-.513 1.537-.183 1.867.895.895 1.871-.421 1.387-1.871-.338-1.016-.574-1.016-1.204.004Zm17.417 1.134c0 .55.45 1 1 1s1-.45 1-1-.45-1-1-1-1 .45-1 1Zm36 .559c0 .857.457 1.276 1.016.931.559-.346.758-1.047.441-1.559-.857-1.387-1.457-1.129-1.457.628Zm-18 .5c0 .582.45.781 1 .441s1-.816 1-1.059-.45-.441-1-.441-1 .477-1 1.059Zm35.553-.144a1.116 1.116 0 0 0 .362 1.532c.521.322 1.21.159 1.532-.362a1.116 1.116 0 0 0-.362-1.532 1.116 1.116 0 0 0-1.532.362Zm-60.553 2.085c0 .55.45 1 1 1s1-.45 1-1-.45-1-1-1-1 .45-1 1Zm17.553-.085a1.116 1.116 0 0 0 .362 1.532c.521.322 1.21.159 1.532-.362a1.116 1.116 0 0 0-.362-1.532 1.116 1.116 0 0 0-1.532.362Zm17.447 1.085c0 .55.45 1 1 1s1-.45 1-1-.45-1-1-1-1 .45-1 1Zm18.5 0c-.34.55.11 1 1 1s1.34-.45 1-1c-.34-.55-.79-1-1-1-.21 0-.66.45-1 1Zm17.5 1c0 .55.45 1 1 1s1-.45 1-1-.45-1-1-1-1 .45-1 1Zm-61 2c0 .55.423 1 .941 1s1.219-.45 1.559-1c.34-.55-.084-1-.941-1s-1.559.45-1.559 1Zm18 .559c0 .857.45 1.281 1 .941.55-.34 1-1.041 1-1.559s-.45-.941-1-.941-1 .702-1 1.559Zm18 .441c0 .55.45 1 1 1s1-.45 1-1-.45-1-1-1-1 .45-1 1Zm18 0c0 .55.45 1 1 1s1-.45 1-1-.45-1-1-1-1 .45-1 1Zm18 .441c0 .857.45 1.559 1 1.559s1-.423 1-.941-.45-1.219-1-1.559c-.55-.34-1 .084-1 .941Zm-80 1.559c0 .55.45 1 1 1s1-.45 1-1-.45-1-1-1-1 .45-1 1Zm19 1c0 .55.45 1 1 1s1-.45 1-1-.45-1-1-1-1 .45-1 1Zm17.51.016c.346.559 1.047.758 1.559.441 1.387-.857 1.129-1.457-.628-1.457-.857 0-1.276.457-.931 1.016Zm18.073-.15c-.431.697-.513 1.537-.183 1.867.895.895 1.871-.421 1.387-1.871-.338-1.016-.574-1.016-1.204.004Zm18 0c-.431.697-.513 1.537-.183 1.867.895.895 1.871-.421 1.387-1.871-.338-1.016-.574-1.016-1.204.004Zm-61.583 3.134c0 .55.675 1 1.5 1s1.5-.45 1.5-1-.675-1-1.5-1-1.5.45-1.5 1Zm18 0c0 .55.702 1 1.559 1s1.281-.45.941-1c-.34-.55-1.041-1-1.559-1s-.941.45-.941 1Zm18 1.059c0 .582.45.781 1 .441s1-.816 1-1.059-.45-.441-1-.441-1 .477-1 1.059Zm18-.059c0 .55.45 1 1 1s1-.45 1-1-.45-1-1-1-1 .45-1 1Zm-43 3c0 .55.45 1 1 1s1-.45 1-1-.45-1-1-1-1 .45-1 1Zm17 0c0 .55.45 1 1 1s1-.45 1-1-.45-1-1-1-1 .45-1 1Zm18.553-.085a1.116 1.116 0 0 0 .362 1.532c.521.322 1.21.159 1.532-.362a1.116 1.116 0 0 0-.362-1.532 1.116 1.116 0 0 0-1.532.362Zm-25.553 3.085c0 .55.45 1 1 1s1-.45 1-1-.45-1-1-1-1 .45-1 1Zm18 0c0 .55.45 1 1 1s1-.45 1-1-.45-1-1-1-1 .45-1 1Z" clip-rule="evenodd"/><path fill="#FA007A" fill-rule="evenodd" d="M210.83 546.183c-1.375.651-2.658 1.291-2.85 1.421-.193.13.405 3.247 1.327 6.926 1.541 6.143 1.627 16.18 1.058 122.817-.65 121.88-1.003 146.629-2.154 151.29-1.602 6.483-7.783 13.474-15.265 17.265-11.573 5.864-41.84 13.858-77.616 20.498-36.812 6.832-44.442 10.481-33.985 16.25 7.699 4.247 34.973 9.93 56.485 11.77 3.575.305 8.75.791 11.5 1.079 12.173 1.273 19.961 1.603 51.034 2.16 47.365.848 87.731-1.314 118.966-6.373 5.5-.89 11.462-1.824 13.25-2.075 1.788-.251 3.25-.799 3.25-1.219 0-.419 1.798-1.05 3.996-1.401 2.198-.352 3.945-.972 3.882-1.378-.299-1.927.247-2.38 1.558-1.292 1.763 1.463 5.564-.233 5.564-2.482 0-1.669 1.656-1.996 2.178-.43.211.633 1.116.462 2.334-.442 5.16-3.831-3.622-7.555-29.578-12.543-9.039-1.737-20.709-4.077-25.934-5.201-5.225-1.123-12.618-2.709-16.428-3.524-8.464-1.81-28.614-7.621-35.965-10.371-9.527-3.564-16.762-8.97-20.107-15.025l-3-5.429.177-52c.098-28.6.463-88.785.812-133.744.581-74.841.788-82.299 2.457-88.319l1.823-6.574-2.634-1.073c-3.919-1.596-13.281-1.933-16.135-.581Zm5 287.791c-.55 0-1-.45-1-1s.45-1 1-1 1 .45 1 1-.45 1-1 1Zm10 4c-.55 0-1-.45-1-1s.45-1 1-1 1 .45 1 1-.45 1-1 1Zm-7 3c-.55 0-1-.45-1-1s.45-1 1-1 1 .45 1 1-.45 1-1 1Zm10 4c-.55 0-1-.45-1-1s.45-1 1-1 1 .45 1 1-.45 1-1 1Zm-7 3.5c-.55.34-1-.084-1-.941s.45-1.559 1-1.559 1 .423 1 .941-.45 1.219-1 1.559Zm18.016-.01c-.559.345-1.016-.074-1.016-.931 0-1.757.6-2.015 1.457-.628.317.512.118 1.213-.441 1.559Zm-8.101 2.957a1.116 1.116 0 0 1-.362-1.532 1.116 1.116 0 0 1 1.532-.362c.521.322.684 1.011.362 1.532a1.116 1.116 0 0 1-1.532.362Zm10.485 4.286c-.33-.33-.248-1.17.183-1.867.63-1.02.866-1.02 1.204-.004.484 1.45-.492 2.766-1.387 1.871Zm-7.485 2.714a1.116 1.116 0 0 1-.362-1.532 1.116 1.116 0 0 1 1.532-.362c.521.322.684 1.011.362 1.532a1.116 1.116 0 0 1-1.532.362Zm18 1a1.116 1.116 0 0 1-.362-1.532 1.116 1.116 0 0 1 1.532-.362c.521.322.684 1.011.362 1.532a1.116 1.116 0 0 1-1.532.362Zm18 0a1.116 1.116 0 0 1-.362-1.532 1.116 1.116 0 0 1 1.532-.362c.521.322.684 1.011.362 1.532a1.116 1.116 0 0 1-1.532.362Zm-24.915 3.053c-.55.34-1-.084-1-.941s.45-1.559 1-1.559 1 .423 1 .941-.45 1.219-1 1.559Zm18 .5c-.55 0-1-.45-1-1s.45-1 1-1 1 .45 1 1-.45 1-1 1Zm18 0c-.55 0-1-.45-1-1s.45-1 1-1 1 .45 1 1-.45 1-1 1Zm-25.5 3c-.89 0-1.34-.45-1-1 .34-.55.79-1 1-1 .21 0 .66.45 1 1 .34.55-.11 1-1 1Zm18.5 1c-.55 0-1-.45-1-1s.45-1 1-1 1 .45 1 1-.45 1-1 1Zm17 0c-.55 0-1-.45-1-1s.45-1 1-1 1 .45 1 1-.45 1-1 1Zm-43.6 2.733c-.33-.33-.248-1.17.183-1.867.63-1.02.866-1.02 1.204-.004.484 1.45-.492 2.766-1.387 1.871Zm18.6.267c-.55 0-1-.45-1-1s.45-1 1-1 1 .45 1 1-.45 1-1 1Zm36.016.49c-.559.345-1.016-.074-1.016-.931 0-1.757.6-2.015 1.457-.628.317.512.118 1.213-.441 1.559Zm-18.016.01c-.55.34-1 .141-1-.441s.45-1.059 1-1.059 1 .198 1 .441-.45.719-1 1.059Zm34.915.947a1.116 1.116 0 0 1-.362-1.532 1.116 1.116 0 0 1 1.532-.362c.521.322.684 1.011.362 1.532a1.116 1.116 0 0 1-1.532.362Zm-59.915 1.553c-.55 0-1-.45-1-1s.45-1 1-1 1 .45 1 1-.45 1-1 1Zm16.915.447a1.116 1.116 0 0 1-.362-1.532 1.116 1.116 0 0 1 1.532-.362c.521.322.684 1.011.362 1.532a1.116 1.116 0 0 1-1.532.362Zm18.085.553c-.55 0-1-.45-1-1s.45-1 1-1 1 .45 1 1-.45 1-1 1Zm18.5 0c-.89 0-1.34-.45-1-1 .34-.55.79-1 1-1 .21 0 .66.45 1 1 .34.55-.11 1-1 1Zm17.5 1c-.55 0-1-.45-1-1s.45-1 1-1 1 .45 1 1-.45 1-1 1Zm-61.059 2c-.518 0-.941-.45-.941-1s.702-1 1.559-1 1.281.45.941 1c-.34.55-1.041 1-1.559 1Zm18.059.5c-.55.34-1-.084-1-.941s.45-1.559 1-1.559 1 .423 1 .941-.45 1.219-1 1.559Zm18 .5c-.55 0-1-.45-1-1s.45-1 1-1 1 .45 1 1-.45 1-1 1Zm18 0c-.55 0-1-.45-1-1s.45-1 1-1 1 .45 1 1-.45 1-1 1Zm18 1c-.55 0-1-.702-1-1.559s.45-1.281 1-.941c.55.34 1 1.041 1 1.559s-.45.941-1 .941Zm-80 1c-.55 0-1-.45-1-1s.45-1 1-1 1 .45 1 1-.45 1-1 1Zm19 1c-.55 0-1-.45-1-1s.45-1 1-1 1 .45 1 1-.45 1-1 1Zm18.069-.543c-.512.317-1.213.118-1.559-.441-.345-.559.074-1.016.931-1.016 1.757 0 2.015.6.628 1.457Zm16.331 1.276c-.33-.33-.248-1.17.183-1.867.63-1.02.866-1.02 1.204-.004.484 1.45-.492 2.766-1.387 1.871Zm18 0c-.33-.33-.248-1.17.183-1.867.63-1.02.866-1.02 1.204-.004.484 1.45-.492 2.766-1.387 1.871Zm-59.9 2.267c-.825 0-1.5-.45-1.5-1s.675-1 1.5-1 1.5.45 1.5 1-.675 1-1.5 1Zm18.059 0c-.857 0-1.559-.45-1.559-1s.423-1 .941-1 1.219.45 1.559 1c.34.55-.084 1-.941 1Zm17.441.5c-.55.34-1 .141-1-.441s.45-1.059 1-1.059 1 .198 1 .441-.45.719-1 1.059Zm18 .5c-.55 0-1-.45-1-1s.45-1 1-1 1 .45 1 1-.45 1-1 1Zm-43 3c-.55 0-1-.45-1-1s.45-1 1-1 1 .45 1 1-.45 1-1 1Zm17 0c-.55 0-1-.45-1-1s.45-1 1-1 1 .45 1 1-.45 1-1 1Zm17.915.447a1.116 1.116 0 0 1-.362-1.532 1.116 1.116 0 0 1 1.532-.362c.521.322.684 1.011.362 1.532a1.116 1.116 0 0 1-1.532.362Zm-24.915 2.553c-.55 0-1-.45-1-1s.45-1 1-1 1 .45 1 1-.45 1-1 1Zm18 0c-.55 0-1-.45-1-1s.45-1 1-1 1 .45 1 1-.45 1-1 1Z" clip-rule="evenodd"/><path fill="#FA007A" d="M188.33 518.054c1.1 1.331 2.238 2.645 2.528 2.92 1.733 1.641 11.899 15.997 13.1 18.5 1.555 3.239 1.868 3.292 10.872 1.837 5.025-.812 12.858.221 15.891 2.096.482.298 1.464-.875 2.181-2.607 1.603-3.869 6.938-11.738 12.26-18.081 2.195-2.616 3.763-4.983 3.485-5.261-.278-.278-2.353.147-4.611.943-14.411 5.085-39.145 4.189-55.706-2.017l-2-.749 2 2.419Z"/></svg>