<svg xmlns="http://www.w3.org/2000/svg" width="659" height="1050" fill="none"><path fill-rule="evenodd" clip-rule="evenodd" d="M466.55.793c-1.925.385-4.439 1.21-5.586 1.832-3.894 2.114-9.384 9.198-13.344 17.218-2.171 4.396-5.177 9.605-6.681 11.577-5.531 7.251-21.478 12.463-31.583 10.321-9.728-2.062-15.524-6.04-14.321-9.83.584-1.839.21-2.058-3.668-2.148-2.374-.054-11.292-.434-19.817-.842-13.68-.656-16.237-1.06-21.776-3.45-3.451-1.49-8.466-2.968-11.144-3.285-4.427-.524-5.019-.345-6.542 1.978-1.356 2.07-1.544 3.871-.989 9.5l.684 6.946-5.366 2.555c-2.952 1.406-6.492 3.478-7.867 4.605l-2.5 2.05 7.668.021c7.745.022 11.176.657 10.394 1.922-.235.38.709 5.396 2.099 11.146l2.526 10.454-4.787 4.224c-2.632 2.323-4.574 4.435-4.316 4.694.259.258 2.43.03 4.825-.509 2.395-.538 4.46-.85 4.589-.694.946 1.15 7.768 29.196 9.015 37.064 2.734 17.245 2.228 46.113-1.032 58.971-.876 3.451.797 3.629 2.337.249 1.486-3.26 4.655-16.021 6.333-25.499 1.375-7.764 1.719-39.167.489-44.568-1.411-6.197 1.584.822 6.36 14.905 7.1 20.933 11 41.689 11 58.542 0 6.84.646 9.121 2.581 9.121 3.677 0 6.352-13.635 6.53-33.291l.11-12.209 1.339 5.5c.736 3.025 1.811 10.187 2.389 15.916.577 5.729 1.282 10.649 1.567 10.933 2.517 2.518 5.373-10.778 6.5-30.263.538-9.302 1.124-17.059 1.302-17.238.179-.178 2.729 2.582 5.667 6.134 5.309 6.418 10.866 10.795 22.699 17.88 6.175 3.697 10.029 8.468 13.241 16.388 1.799 4.438 2.828 4.08 3.629-1.262.756-5.04 1.833-6.242 3.99-4.452 2.247 1.866 1.79 3.303-2.656 8.354-4.182 4.751-10.595 8.607-14.326 8.614-3.205.006-8.442 3.67-9.123 6.383-.88 3.507 1.321 13.038 3.714 16.08 1.12 1.424 3.784 3.481 5.921 4.571 2.137 1.09 4.613 3.389 5.503 5.11 1.613 3.12 1.607 3.138-2.23 6.96-3.192 3.179-5.061 4.085-10.979 5.323-4.28.895-11.077 3.518-17 6.56-11.029 5.664-16.653 7.009-29.313 7.009-10.927 0-12.589.983-11.786 6.969 1.698 12.66 22.065 20.105 41.398 15.132 4.491-1.156 9.254-2.101 10.583-2.101 1.329 0 5.778 1.771 9.888 3.936 4.109 2.165 9.542 4.458 12.073 5.096 4.1 1.032 4.671 1.523 5.23 4.503 1.121 5.977 8.315 10.031 13.957 7.866.859-.33 2.522-2.153 3.696-4.053 3.131-5.066 3.452-3.359.473 2.519-3.597 7.1-3.457 12.397.433 16.287 2.381 2.38 3.718 2.937 6.48 2.699 1.915-.165 3.49.026 3.501.424.01.398.019 5.415.019 11.15v10.426l-5.538 2.536c-4.901 2.243-5.807 3.144-7.88 7.823-11.614 26.225-15.088 33.574-16.722 35.371-2.077 2.283-13.533 6.5-24.103 8.872-8.138 1.826-19.246 7.248-23.297 11.371-2.878 2.928-3.337 3.04-16.505 4.005-11.925.874-14.611 1.422-22.445 4.581-4.894 1.973-9.45 3.588-10.125 3.588-.934 0-1.136-3.987-.849-16.75.679-30.252-1.84-46.843-12.157-80.074-2.959-9.528-5.379-17.516-5.379-17.75 0-1.889-15.788.942-34.595 6.205-16.683 4.668-17.556 4.491-20.172-4.079-3.449-11.301-11.763-24.821-22.733-36.971-5.5-6.091-11.656-12.715-13.68-14.721-3.491-3.46-18.003-13.398-27.874-19.089-4.755-2.742-30.802-13.327-39.446-16.031-6.72-2.102-26.369-4.153-32.654-3.408-5.996.71-8.014 2.127-23.846 16.743-6.325 5.839-12.545 11.17-13.823 11.845-1.298.686-7.7 1.426-14.5 1.676-15.38.565-20.347 2.637-27.486 11.459-4.34 5.364-5.007 6.929-7.53 17.665-1.521 6.479-3.22 14.93-3.771 18.78-1.102 7.679-.136 50.5 1.139 50.5 1.535 0 1.97-3.451 1.97-15.582 0-13.382 1.35-16.647 2.343-5.668.932 10.311 4.72 27.902 12.298 57.109 1.335 5.147 2.68 11.222 2.99 13.5.693 5.088.125 5.567-17.63 14.889-13.264 6.964-14.536 7.378-25.5 8.308-11.8 1.001-19.74 2.284-20.822 3.366-.708.708.223 2.525 2.973 5.804 2.203 2.626 7.174 9.499 11.047 15.274 3.874 5.775 8.058 11.4 9.298 12.5 1.24 1.1 4.44 5.231 7.113 9.181 2.672 3.95 5.287 7.446 5.81 7.769.524.324 4.455 5.193 8.735 10.819 18.846 24.775 32.836 40.66 50.86 57.751 13.257 12.57 18.488 18.571 18.47 21.187-.009 1.261-2.074 6.793-4.589 12.293-6.166 13.484-11.242 25.717-19.086 46-7.578 19.592-10.765 29.464-15.82 49l-3.621 14 .512 43.5c.542 46.112-.148 59.827-4.4 87.5-1.1 7.15-2.441 22.675-2.982 34.5-1.467 32.022-2.878 53.961-4.406 68.502-1.251 11.903-1.964 14.649-8.44 32.5-6.034 16.634-16.233 48.143-23.302 71.998-1.06 3.577-3.492 15.277-5.406 25.997-1.913 10.73-3.71 20.54-3.993 21.81l-.515 2.3 37.282-.16c20.61-.09 38.063-.57 39.029-1.09 2.443-1.29 5.753-8.16 5.753-11.93 0-2.8.258-3.09 2.25-2.52 11.877 3.35 16.692 2.81 23.896-2.69 5.594-4.26 9.22-11.83 11.905-24.82 3.022-14.642 2.372-23.369-2.508-33.644-3.336-7.025-8.727-14.802-12.52-18.061-.838-.72-3.436-2.204-5.773-3.297-4.111-1.924-4.936-2.876-3.626-4.185 1.256-1.257 8.704 3.574 14.249 9.241 9.948 10.167 16.097 25.848 16.097 41.049 0 17.877-7.226 33.267-18.47 39.337-3.287 1.77-5.681 2.15-13.428 2.16-9.267 0-9.44.05-10.112 2.56-.377 1.41-1.188 3.5-1.804 4.65-.907 1.7-.81 2.21.52 2.72 1.875.72 343.417.81 344.136.09.805-.8-1.903-11.92-3.404-13.97-1.222-1.67-2.749-1.97-10.794-2.07-8.05-.11-10.165-.51-15.001-2.88-15.66-7.66-25.875-32.686-23.587-57.787.946-10.381 3.793-16.496 10.675-22.933 7.056-6.601 18.495-9.854 26.13-7.431 1.676.532 2.238-.138 3.63-4.329 2.223-6.691 8.245-13.314 14.589-16.043 9.781-4.208 27.89-3.376 28.79 1.322.271 1.418-.054 1.736-1.293 1.26-3.956-1.518-15.455-2.719-20.047-2.094-11.365 1.546-17.258 6.82-19.442 17.401-.621 3.004-1.623 5.768-2.228 6.142-.605.374-2.6.053-4.433-.712-7.051-2.947-16.435-.395-22.986 6.25-10.722 10.877-13.69 25.022-9.273 44.201 1.702 7.393 3.139 10.843 6.876 16.503 8.281 12.54 15.521 17.36 27.65 18.39 8.024.68 10.557-.04 15.341-4.36 8.554-7.73 8.999-21.37.958-29.414-3.957-3.957-8.723-5.624-13.477-4.716-3.083.59-3.313-1.42-.486-4.247 2.267-2.267 3.902-2.433 9.277-.94 15.894 4.414 20.239 31.377 6.939 43.057-2.818 2.47-3.506 3.78-3.405 6.47.098 2.62 3.052 10.31 4.685 12.2.137.16 10.086.29 22.108.3 18.556 0 22.029-.23 22.988-1.54 1.447-1.98 1.923-1.95 5.198.37 1.885 1.34 3.699 1.76 5.96 1.39l3.25-.53V1042c0-5.56-1.041-9.67-6.368-25.14-5.898-17.132-11.808-32.762-17.96-47.497-1.378-3.3-2.8-8.7-3.161-12-1.454-13.293-4.652-36.437-6.011-43.5-.794-4.125-1.95-11.55-2.57-16.5-.619-4.95-2.432-15.606-4.028-23.68-1.596-8.075-2.906-16.175-2.91-18-.014-5.862-5.727-34.286-8.853-44.045-5.373-16.773-9.139-33.318-9.139-40.149 0-5.613-.271-6.577-2-7.126-2.379-.755-2.456-2.213-.5-9.5 2.327-8.666 3.643-16.847 3.643-22.651v-5.349h4.747c12.002 0 21.613 5.375 37.802 21.14 11.026 10.736 18.727 15.827 23.98 15.85 2.82.013 7.781-10.24 13.742-28.404 2.362-7.197 7.034-20.736 10.382-30.086 5.98-16.705 12.862-40.202 15.815-54 2.274-10.626 3.553-35.182 3.906-75 .247-27.934.677-37.792 1.915-44 1.463-7.329 4.323-25.552 8.24-52.5 2.112-14.53 2.812-40.22 1.371-50.311-3.361-23.529-18.769-72.389-28.238-89.543-3.812-6.904-11.756-17.712-14.23-19.358-3.116-2.073-2.151-43.93 1.203-52.186 2.321-5.712 2.197-18.898-.22-23.602-.99-1.925-2.532-4.336-3.429-5.357-.939-1.07-1.634-3.612-1.641-6-.006-2.279-.356-5.268-.777-6.643-.421-1.375.631.142 2.339 3.372 3.708 7.011 5.507 6.426 3.511-1.142-.759-2.877-1.208-5.23-.998-5.23.21 0 1.349 2.25 2.532 5s2.529 5 2.991 5c.461 0 3.377-.95 6.479-2.11 6.003-2.246 6.208-2.743 3.872-9.39-.387-1.1.746-.088 2.517 2.25 2.066 2.728 4.004 4.25 5.411 4.25 2.156 0 15.883-6.131 18.395-8.216 1.039-.862.994-1.518-.237-3.425-4.945-7.661-4.932-7.839.218-3.109 2.846 2.612 5.686 4.75 6.313 4.75.628 0 4.721-1.863 9.097-4.139 5.391-2.805 7.778-4.578 7.403-5.5-1.966-4.833-1.987-4.663.398-3.387 1.968 1.054 2.721.831 5.902-1.743 2.005-1.624 3.646-3.455 3.646-4.07 0-.615-3.754-4.087-8.342-7.715-4.588-3.628-8.104-6.833-7.814-7.123.289-.29 2.693.162 5.341 1.005 2.648.842 7.065 1.993 9.815 2.557 4.259.873 5.185.781 6.25-.621.687-.905 1.25-1.982 1.25-2.391 0-.41-5.062-3.792-11.25-7.515-6.187-3.723-16.875-10.415-23.75-14.871-6.875-4.457-15.425-9.856-19-12-11.455-6.868-27.273-18.729-35.298-26.467-6.903-6.657-7.949-8.151-9.12-13.02-.728-3.025-1.68-6.355-2.117-7.401-.74-1.771-.442-1.854 4.37-1.215 3.559.472 5.165.336 5.165-.437 0-.748 1.283-.906 3.842-.474 2.113.357 8.025 1.222 13.137 1.921 8.444 1.155 9.335 1.121 9.726-.375.395-1.508 1.172-1.478 9.334.363 8.707 1.964 11.522 1.779 9.144-.599-2.556-2.556-.782-2.378 9.371.94 10.591 3.462 13.92 3.675 12.825.822-.519-1.351-.137-1.342 3.267.079 2.12.885 7.229 3.291 11.354 5.346 4.125 2.056 9.148 3.994 11.163 4.307 3.274.509 28.786 13.45 41.041 20.819 3.608 2.17 4.534 2.43 3.975 1.116-4.383-10.297-13.897-23.56-29.679-41.372-5.5-6.207-10-12.03-10-12.94 0-1.944-21.306-20.89-31.136-27.689-1.646-1.138-1.454-1.234 1.636-.815 1.925.261 4.962.785 6.75 1.165 2.024.43 3.25.297 3.25-.35 0-2.089-28.12-21.836-39.308-27.603-8.707-4.489-11.326-6.29-10.994-7.56.329-1.26-1.502-2.579-7.475-5.382-6.772-3.178-10.348-4.068-24.818-6.176-20.764-3.026-21.696-3.268-21.114-5.495.384-1.469-.547-1.824-6.169-2.355-8.161-.77-18.462-.642-23.122.29Zm5.25 7.786c1.513.23 3.987.23 5.5 0 1.513-.229.275-.416-2.75-.416s-4.263.187-2.75.416Zm38.563 9.967c.721.29 1.584.253 1.916-.079.332-.332-.258-.568-1.312-.525-1.165.048-1.402.285-.604.604Zm8.687 1.374c5.066 1.048 9.159 1.001 5-.057-1.65-.42-4.35-.765-6-.767-2.522-.002-2.363.13 1 .824Zm-165 12.9c-4.486 2.142-9.561 5.987-7.95 6.021.578.012 1.478-.406 2.001-.929.524-.524 3.426-2.316 6.45-3.982 6.095-3.359 5.759-4.103-.501-1.11Zm199.588 4.432c.671.62 26.215 13.611 26.761 13.611 1.622 0-4.845-5.25-8.726-7.084-4.399-2.079-18.904-7.328-18.035-6.527Zm-220.723 5.113c-5.739 1.81-8.526 3.428-7.834 4.548.323.523 1.348.918 2.278.88 1.447-.06 1.421-.177-.18-.806-2.59-1.018 4.795-3.205 13.121-3.886 3.438-.282 6.25-.9 6.25-1.375 0-1.278-8.877-.862-13.635.64Zm2.7 2.633c-6.688 1.11-7.674 1.86-2.482 1.884 3.81.02 20.39 2.276 25.417 3.46 1.375.324-.613-1-4.418-2.945-7.187-3.672-9.24-3.937-18.517-2.399Zm8.894 4.953c7.786 1.21 15.041 4.245 15.041 6.292 0 1.298-3.103 4.332-17.5 17.115l-3 2.663 4.369-2.329c4.117-2.194 21.131-17.234 21.131-18.678 0-1.438-12.867-5.12-19.5-5.58l-7-.487 6.459 1.004Zm-8.959 2.344c0 .237 1.462 1.442 3.25 2.677l3.25 2.246-2.424-2.677c-2.162-2.388-4.076-3.443-4.076-2.246Zm20.75 13.093c-3.713 3.552-9.225 7.855-12.25 9.562-6.596 3.722-8.186 5.64-2.841 3.424 8.457-3.505 17.795-11.346 21.745-18.26 1.2-2.1.35-1.428-6.654 5.274Zm222.25-1.744c0 1.545 27.663 16.89 28.657 15.896.532-.532-8.331-6.677-9.631-6.677-.48 0-2.897-1.545-5.372-3.434-7.181-5.482-13.654-8.224-13.654-5.785ZM341.044 65.87c-.998 1.104-1.579 2.243-1.29 2.531.289.29 1.271-.614 2.184-2.006 1.993-3.04 1.595-3.275-.894-.525Zm11.637 14.17c.753 1.472 3.619 4.372 6.369 6.444 8.556 6.45 18.413 15.53 19.056 17.557.338 1.066 1.72 2.358 3.071 2.871 1.351.514 3.225 2.337 4.164 4.052.94 1.716 2.497 4.082 3.461 5.26 1.647 2.012 1.712 2.021 1.091.14-1.263-3.818-9.756-15.707-11.794-16.508-1.127-.443-3.849-2.48-6.049-4.525-2.2-2.046-6.025-5.325-8.5-7.288-2.475-1.962-6.241-5.168-8.369-7.123-3.569-3.28-3.763-3.349-2.5-.88Zm111.869 1.82c0 .948 10.942 4.396 11.663 3.674.247-.247-2.276-1.369-5.607-2.494-3.331-1.125-6.056-1.656-6.056-1.18Zm40.511 5.986c-.27.437.831.988 2.446 1.225 1.616.237 2.743.117 2.506-.267-.687-1.11-4.412-1.832-4.952-.958Zm-31.011 6.018c-.34.55.057 1 .882 1s1.778-.45 2.118-1c.34-.55-.057-1-.882-1s-1.778.45-2.118 1Zm-94.941 2.45c.883 1.347 3.038 3.295 4.789 4.328 3.722 2.196 9.652 3.581 9.652 2.254 0-1.565-4.312-4.032-7.048-4.032-1.484 0-3.613-1.075-4.952-2.5-3.01-3.204-4.528-3.235-2.441-.05Zm209.676-.742c-2.804.54-1.938 2.292 1.133 2.292 1.237 0 4.923 1.633 8.191 3.63 8.939 5.461 12.997 7.796 12.441 7.157-1.975-2.267-17.417-13.76-18.342-13.65-.637.074-2.177.331-3.423.571ZM389.05 96.863c.34.55 1.068 1 1.618 1s.722-.45.382-1c-.34-.55-1.068-1-1.618-1s-.722.45-.382 1Zm55.232 26.918c-.608 2.324 4.24 9.255 10.307 14.736 6.308 5.699 14.027 11.613 14.518 11.123.664-.665-9.238-9.682-14.833-13.506-2.598-1.777-4.724-3.742-4.724-4.369 0-.627 1.462-.042 3.25 1.3 6.244 4.687 6.203 4.08-.189-2.786-3.542-3.804-6.744-7.283-7.116-7.732-.373-.449-.918.106-1.213 1.234Zm-65.144 2.082c.577 3.76 2.473 9.272 3.006 8.74.178-.179-.546-3.006-1.61-6.282-1.185-3.652-1.726-4.603-1.396-2.458Zm129.644 9c0 1.925.206 2.713.457 1.75.252-.963.252-2.537 0-3.5-.251-.963-.457-.175-.457 1.75Zm-54.835 6.894c3.516 3.601 3.663 3.976 1.953 4.97-1.124.653-1.327 1.087-.517 1.106.734.016 1.15.593.925 1.28-.239.731-3.91 1.747-8.834 2.446l-8.424 1.196 9-.491c4.95-.27 10.521-.466 12.38-.436 2.86.046 3.193-.172 2.164-1.412-.669-.806-.97-1.864-.668-2.352.541-.876-9.525-10.201-11.012-10.201-.424 0 .941 1.752 3.033 3.894Zm53.761-.894c0 1.375.227 1.938.504 1.25.278-.687.278-1.812 0-2.5-.277-.687-.504-.125-.504 1.25Zm-1.079 3.623c-.11 1.562-3.776 9.361-5.818 12.377l-1.693 2.5 2.326-2c4.074-3.503 8.48-9.649 7.414-10.343-.555-.362-1.265-1.332-1.579-2.157-.314-.825-.607-.995-.65-.377Zm-82.079 3.377c.825.533 1.95.969 2.5.969s.325-.436-.5-.969c-.825-.533-1.95-.969-2.5-.969s-.325.436.5.969Zm5 2c.825.533 1.95.969 2.5.969s.325-.436-.5-.969c-.825-.533-1.95-.969-2.5-.969s-.325.436.5.969Zm36.623 1.363c1.899 2.605 3.377 3.372 3.377 1.752 0-.487-1.182-1.659-2.627-2.606l-2.626-1.721 1.876 2.575Zm-31.354.33c.973.254 2.323.237 3-.037.677-.274-.119-.481-1.769-.461-1.65.02-2.204.244-1.231.498Zm27.964 6.015c-1.421.273-2.799 1.71-3.694 3.853-.785 1.879-2.824 5.447-4.531 7.928-1.707 2.481-2.871 4.511-2.587 4.511.284 0 3.835-2.166 7.891-4.813 4.055-2.648 8.906-5.426 10.781-6.173 4.543-1.812 4.485-1.717 2.413-4.008-1.764-1.948-4.855-2.339-10.273-1.298Zm8.767 9.625c0 2.017.439 3.667.975 3.667.56 0 .712-1.383.356-3.25-.867-4.557-1.331-4.702-1.331-.417Zm2.07-1.142c-.038 1.48.38 2.969.93 3.309 1.194.738 1.194-1.222 0-4-.767-1.786-.867-1.712-.93.691Zm-5.07 2.75c0 1.682.45 3.059 1 3.059s1-1.098 1-2.441c0-1.343-.45-2.719-1-3.059-.583-.361-1 .656-1 2.441Zm36-2.014c0 .509 1.35 1.6 3 2.423 3.239 1.616 3.701 1.157 1.608-1.6-1.395-1.838-4.608-2.412-4.608-.823Zm-38.93 1.823c.039.963.452 2.65.919 3.75.659 1.555.83 1.166.768-1.75-.045-2.062-.458-3.75-.919-3.75s-.806.787-.768 1.75Zm-17.582.231c.289.466-.018 1.029-.681 1.25-.748.249-.541.657.545 1.074 1.188.456 1.521.299 1.036-.486-.472-.763-.173-.95.875-.548.875.335 2.072.03 2.66-.678.831-1.001.397-1.308-1.945-1.375-1.658-.047-2.778.296-2.49.763Zm14.527 1.769c.018 1.999 1.643 4.928 2.342 4.221.257-.259.229-1.709-.062-3.221-.581-3.027-2.304-3.783-2.28-1Zm22.985-.734c-.825.541-3.075.902-5 .803-2.495-.128-6.88 1.489-15.273 5.632-6.474 3.197-12.008 6.194-12.295 6.66-.288.465.459 2.176 1.661 3.8 1.574 2.13 2.02 3.774 1.596 5.893-.529 2.644-.217 3.103 3.112 4.585 5.363 2.388 16.741 4.574 23.915 4.594 8.627.024 12.129 1.96 16.663 9.213 2.064 3.303 3.947 5.811 4.185 5.574.815-.816-1.713-12.018-4.771-21.137-3.488-10.401-10.273-25.968-11.483-26.347-.445-.139-1.485.189-2.31.73Zm-25 2.817c0 1.742.459 3.167 1.019 3.167.605 0 .751-1.117.359-2.75-.941-3.926-1.378-4.058-1.378-.417Zm-14.5.167c2.749 1.181 4.328 1.181 2.5 0-.825-.533-2.175-.945-3-.914-.989.036-.819.347.5.914Zm11.5 1.5c0 1.375.45 2.5 1 2.5s1-1.125 1-2.5-.45-2.5-1-2.5-1 1.125-1 2.5Zm-14 .5c1.97 1.273 4.287 1.273 3.5 0-.34-.55-1.604-.993-2.809-.985-1.781.013-1.91.197-.691.985Zm11.393.582c.334.87.607 2.021.607 2.559 0 .537.408.725.906.417 1.149-.71.195-4.558-1.13-4.558-.544 0-.717.712-.383 1.582Zm-2.393 1.8c0 .825.45 1.778 1 2.118.55.34 1-.057 1-.882s-.45-1.778-1-2.118c-.55-.34-1 .057-1 .882Zm-2 1.618c0 1.1.408 2 .906 2 .499 0 .671-.9.384-2-.288-1.1-.696-2-.907-2-.21 0-.383.9-.383 2Zm-12.525.04c-.421.682.333.806 2.191.359 3.832-.92 4.194-1.399 1.06-1.399-1.435 0-2.897.468-3.251 1.04Zm9.739 2.155c.801 1.208 2.026 2.385 2.721 2.617.822.274.665-.493-.451-2.196-.943-1.439-2.167-2.616-2.721-2.616-.554 0-.351.988.451 2.195Zm-4.199.055c.019 1.55.868 2.729 3.672 5.098 3.813 3.222 4.511.784.83-2.897-3.738-3.739-4.525-4.124-4.502-2.201Zm-12.015 1.25c-.694.837-.803 1.5-.245 1.5.55 0 1.56-.675 2.245-1.5.694-.837.803-1.5.245-1.5-.55 0-1.56.675-2.245 1.5Zm8.229-.312c.618 1.854 2.771 2.161 2.771.395 0-.87-.712-1.583-1.583-1.583s-1.406.534-1.188 1.188Zm-2.591 1.312c.317.825.964 1.5 1.438 1.5.473 0 .602-.675.286-1.5-.317-.825-.964-1.5-1.438-1.5-.473 0-.602.675-.286 1.5Zm-2.999.194c-1.126 1.126-.685 2.306.861 2.306.825 0 1.5-.423 1.5-.941 0-1.261-1.562-2.164-2.361-1.365Zm115.468-.1c.967 2.341 15.389 19.419 15.675 18.561.621-1.863-5.762-10.71-10.883-15.084-2.851-2.435-5.008-4-4.792-3.477Zm-124.835 1.652c-2.756 1.286-3.722 4.046-2.327 6.65.58 1.085 1.055 3.127 1.055 4.538 0 1.488.567 2.566 1.35 2.566 2.086 0 9.802 5.945 9.129 7.034-.328.531.555.966 1.962.966s2.559-.45 2.559-1-.337-1.007-.75-1.015c-1.259-.025-8.828-6.907-7.641-6.947.61-.021 3.154 1.762 5.654 3.962 5.564 4.898 6.955 5.078 6.202.8-.549-3.114-.512-3.152 1.377-1.443 2.274 2.058 1.824 5.063-1.062 7.084-1.871 1.311-1.677 1.611 3.875 5.969 3.215 2.524 6.113 4.589 6.44 4.589 1.409.002 4.145-4.128 4.873-7.357.653-2.897.364-4.105-1.669-6.962-1.353-1.901-2.708-5.308-3.011-7.571-.422-3.144-1.482-4.955-4.49-7.672-4.559-4.119-8.459-4.434-8.054-.65.364 3.396-2.421 3.884-5.554.972-4.801-4.462-7.447-5.666-9.918-4.513Zm26.728 3.813c0 .582.45.781 1 .441s1-.816 1-1.059-.45-.441-1-.441-1 .477-1 1.059Zm2 1.941c0 .55.477 1 1.059 1s.781-.45.441-1-.816-1-1.059-1-.441.45-.441 1Zm-19 7.784c0 .863 5.304 4.219 6.654 4.211 1.012-.006-4.823-4.907-5.904-4.959-.413-.02-.75.317-.75.748Zm21 .918c0 1.65 4.278 7.109 6.504 8.3 2.535 1.357 8.749.696 13.746-1.461.994-.429 1.75-.329 1.75.231 0 1.287-4.392 3.066-9.864 3.996-4.236.719-4.416.903-6.11 6.236-.96 3.023-3.834 9.738-6.386 14.923-2.552 5.186-4.64 10.163-4.64 11.061 0 .899-1.344 7.006-2.987 13.573-3.221 12.874-3.741 16.792-1.564 11.789 1.827-4.199 4.121-5.396 7.851-4.096 2.879 1.004 2.937 1.159 2.398 6.388-.305 2.947-.414 5.358-.243 5.358 1.567 0 10.545-23.563 10.545-27.675 0-1.279.45-2.325 1-2.325s1 .62 1 1.378c0 2.095 2.756 3.931 4.737 3.157 1.546-.604 1.399-.981-1.198-3.068-1.628-1.308-2.71-2.63-2.403-2.937.307-.307 1.729.363 3.159 1.488l2.601 2.045 1.179-2.202c.983-1.837.877-2.423-.64-3.532-2.348-1.717-3.496-1.675-6.212.228-3.328 2.331-2.753 1.166 3.027-6.124 3.293-4.153 7.777-8.263 12.031-11.027 7.761-5.043 10.748-5.739 5.969-1.391-3.751 3.413-3.804 3.558-1.605 4.402.924.355 2.456-.104 3.5-1.048 3.383-3.062 1.921.275-2.145 4.894-2.2 2.499-4 4.989-4 5.533 0 .545-.639 1.235-1.421 1.535-2.816 1.081-9.591 11.447-12.987 19.872-1.907 4.728-5.07 11.781-7.029 15.672-4.168 8.276-4.414 9.721-1.313 7.717 1.934-1.25 2.707-1.26 5.5-.072 3.675 1.564 3.828 2.161 1.801 7.012-1.664 3.982-.805 4.476 2.122 1.218 3.512-3.91 12.327-20.379 12.327-23.031 0-1.911 2.592-5.079 10.407-12.723 10.825-10.586 14.593-13.738 14.593-12.208 0 .496-.9 1.717-2 2.712-1.1.995-2 2.26-2 2.81 0 1.43 3.851-2.25 5.791-5.533 1.643-2.781 3.209-3.65 3.209-1.781 0 .548-2.812 4.074-6.25 7.836-4.308 4.715-6.829 8.522-8.114 12.254-1.566 4.548-6.775 16.556-8.317 19.172-.245.416.65.257 1.991-.353 1.814-.827 3.004-.807 4.658.078 2.183 1.168 2.252 2.091.476 6.431-.568 1.386-.447 1.706.439 1.158.673-.416 2.26-3.077 3.526-5.914 1.266-2.837 3.326-6.058 4.576-7.158 1.251-1.1 3.31-3.63 4.576-5.621 2.044-3.217 14.484-12.758 14.41-11.053-.056 1.272-5.943 7.174-7.157 7.174-.944 0-.947.267-.014 1.2 1.943 1.943 1.372 3.265-.629 1.455-1.006-.91-2.131-1.655-2.5-1.655-1.406 0-.586 2.767 1.335 4.506 1.104.998 1.777 2.045 1.496 2.325-.28.281-1.633-.545-3.006-1.835-3.276-3.078-3.269-.703.011 3.194 1.378 1.639 2.265 3.37 1.969 3.848-.295.478-3.242 1.176-6.549 1.55-5.516.624-6.121.937-7.332 3.796-1.701 4.018-4.47 6.441-8.217 7.19-3.722.745-5.358-1.008-6.1-6.535-.527-3.929-.646-4.039-4.41-4.039-4.541 0-4.87 1.067-1.215 3.941 1.459 1.148 2.357 2.382 1.996 2.744-.361.361-1.778-.397-3.149-1.685s-2.775-2.058-3.122-1.712c-.346.347.777 1.813 2.496 3.26 4.298 3.616 3.959 5.189-.401 1.863-5.806-4.428-5.4-1.618.527 3.643 6.59 5.85 5.648 6.649-1.115.946-5.235-4.414-5.885-4.692-5.885-2.517 0 .816 2.944 3.797 6.542 6.625 3.598 2.827 6.329 5.354 6.069 5.614-.26.26-3.654-2.065-7.542-5.167-6.356-5.072-7.064-5.409-7.018-3.348.036 1.612 2.115 3.926 7 7.793 3.821 3.025 6.948 5.907 6.948 6.405.001.498-.787.246-1.749-.559-11.801-9.874-12.25-10.154-12.25-7.614 0 1.77 1.746 3.836 6.505 7.696 3.577 2.903 6.822 5.794 7.211 6.425 1.078 1.75-4.769-2.292-8.716-6.025-1.925-1.821-3.837-3.315-4.25-3.319-2.218-.026-.042 3.187 5.982 8.834 6.475 6.069 5.732 5.988-2.133-.232-5.92-4.682-5.593-1.878.401 3.443 3.025 2.685 5.05 4.895 4.5 4.91-.55.015-2.438-1.321-4.196-2.969-1.757-1.647-3.67-2.995-4.25-2.995-2.148 0-.936 2.338 3.196 6.165 2.337 2.165 3.313 3.488 2.168 2.94s-2.663-1.695-3.373-2.55c-1.613-1.944-3.045-2.004-3.045-.128 0 .785 1.678 2.81 3.728 4.5 4.035 3.326 3.383 4.288-.728 1.073-1.375-1.076-2.837-1.966-3.25-1.978-1.61-.047-.627 2.287 1.75 4.157 1.375 1.081 2.5 2.462 2.5 3.068 0 .606-1.067.099-2.372-1.127-2.201-2.068-2.422-2.1-3.057-.445-.49 1.277.255 2.604 2.622 4.671 2.762 2.412 2.859 2.621.592 1.271-1.493-.889-2.955-1.617-3.25-1.617-1.26 0-.369 2.548 1.639 4.686 1.196 1.272 1.673 2.314 1.059 2.314-.613 0-1.393-.45-1.733-1-.34-.55-1.095-1-1.678-1s.202 1.688 1.744 3.75c2.136 2.856 2.281 3.295.613 1.839-3.067-2.674-4.023-1.117-1.175 1.915 2.257 2.403 1.574 3.674-.734 1.366-2.252-2.252-2.77 6.838-2.77 48.63 0 43.326.195 46.435 5.119 81.5 2.929 20.856 6.243 39.658 7.979 45.266.684 2.21 10.459 8.534 16.23 10.5 3.213 1.095 4.936 1.207 6.64.43 3.806-1.734 15.413-18.131 21.906-30.946 1.463-2.888 3.111-5.25 3.663-5.25 1.853 0-9.811 20.365-18.053 31.522-5.288 7.157-7.809 8.176-14.822 5.987-2.936-.917-5.447-1.519-5.581-1.338-1.859 2.515-5.204 9.829-4.494 9.829.52 0 1.696-1.575 2.614-3.5 1.662-3.484 3.814-5.006 2.598-1.836-.43 1.119-.256 1.427.531.941 1.736-1.073 1.472-.146-1.818 6.372-1.644 3.256-2.623 6.146-2.176 6.422.448.276 1.855-1.613 3.128-4.198 1.273-2.586 2.516-4.133 2.763-3.438.246.694-.746 3.3-2.205 5.79s-2.486 5.297-2.282 6.237c.245 1.129 1.309-.107 3.133-3.639 1.519-2.943 2.986-5.126 3.26-4.852.274.274-.882 3.231-2.568 6.571s-3.065 6.536-3.065 7.101c0 2.254 1.625.8 3.9-3.489 3.311-6.242 3.825-4.891.673 1.771-3.608 7.628-3.144 10.54.542 3.397 1.66-3.218 3.243-5.626 3.517-5.351.274.274-.906 3.281-2.622 6.682-3.517 6.966-3.602 10.331-.119 4.696 1.249-2.022 2.449-3.677 2.666-3.677.642 0-1.372 4.788-3.165 7.525-.915 1.396-1.343 2.857-.952 3.248.39.391 1.095.039 1.567-.781 2.431-4.235 3.93-5.177 2.038-1.282-2.768 5.699-2.766 8.342.004 5.151l2.05-2.361-1.59 3.278c-2.34 4.827-.279 14.509 9.628 45.222 9.745 30.212 19.858 73.079 19.861 84.191.002 5.993 1.278 6.765 3.361 2.032 2.308-5.246 10.872-36.157 14.468-52.223 5.457-24.374 8.3-54.832 8.682-93 .246-24.536.653-31.603 2.422-42 7.671-45.096 9.094-57.328 9.335-80.236.211-20.098.007-23.318-2.1-33.099-3.78-17.55-12.549-39.01-22.905-56.058l-3.639-5.991-3.002 6.442c-2.217 4.758-2.982 7.836-2.928 11.775.108 7.808 1.601 8.337 4.357 1.546 1.282-3.158 2.472-5.315 2.646-4.794.174.521-.96 3.971-2.519 7.666-2.704 6.409-3.232 12.749-1.063 12.749.488 0 .887-.364.887-.809 0-.445.675-1.682 1.5-2.75.956-1.238.783-.311-.478 2.559-1.088 2.475-1.988 5.063-2 5.75-.036 2.029 1.787 1.427 2.502-.825.362-1.142.869-1.865 1.126-1.608.257.257-.234 2.145-1.091 4.197-1.937 4.635-1.963 6.604-.055 4.083 1.339-1.769 1.412-1.684 1.044 1.222-.217 1.719-.672 3.572-1.009 4.118-.338.547.303 9.304 1.423 19.461 3.065 27.775 2.261 55.028-1.663 56.336-.816.272-.74-1.153.264-4.926 3.329-12.506.158-58.241-6.54-94.308-6.705-36.109-7.236-40.747-7.898-69-.693-29.543-.115-38.328 2.998-45.565 1.85-4.299 1.946-5.48.966-11.798-.599-3.861-1.089-7.27-1.089-7.574 0-.305-2.925-3.743-6.501-7.639-3.576-3.896-6.78-8.194-7.12-9.55-.437-1.741-2.357-3.344-6.53-5.45-4.061-2.05-6.761-4.272-8.63-7.103-1.495-2.265-4.069-5.559-5.719-7.319-2.966-3.165-3.131-3.207-14.5-3.724-9.225-.419-12.736-1.029-17.75-3.08-3.437-1.407-6.25-2.305-6.25-1.996Zm-28 3.19c1.925 1.68 3.893 3.066 4.372 3.081 1.504.046-1.073-2.393-4.545-4.304l-3.327-1.831 3.5 3.054Zm9 7.069c0 1.071.312 1.358 7.795 7.169 2.913 2.262 5.613 3.781 6 3.375.388-.406-.638-1.698-2.28-2.871-1.641-1.174-4.499-3.597-6.35-5.384-3.39-3.275-5.165-4.061-5.165-2.289Zm8.5 1.454c1.65 1.323 3.225 2.182 3.5 1.909.659-.654-3.897-4.325-5.361-4.319-.626.003.211 1.087 1.861 2.41Zm13.5 1.002c0 3.718 1.886 5.107 2.15 1.583.082-1.1.195-2.525.25-3.167.055-.641-.462-1.354-1.15-1.583-.845-.282-1.25.744-1.25 3.167Zm14.427 1.104c2.055 1.555 3.203 1.308 2.114-.454-.362-.587-1.42-1.053-2.35-1.035-1.485.028-1.456.209.236 1.489Zm-33.24 2.608c.616 1.94 13.986 11.882 15.075 11.209.496-.306-.525-1.52-2.269-2.698-1.744-1.177-5.436-3.882-8.206-6.011-2.769-2.129-4.839-3.254-4.6-2.5Zm17.313 1.871c.34.55 1.068 1 1.618 1s.722-.45.382-1c-.34-.55-1.068-1-1.618-1s-.722.45-.382 1Zm-18.5.849c0 1.476 14.309 12.078 15.395 11.407.557-.345.204-1.079-.808-1.684-.989-.589-4.675-3.225-8.192-5.856-3.517-2.63-6.395-4.371-6.395-3.867Zm16 1.044c0 1.25 2.823 2.203 3.462 1.168.29-.468-.183-1.124-1.05-1.456-2.096-.805-2.412-.767-2.412.288Zm-19.529 1.505c-.977.714-1.47 1.795-1.095 2.402.699 1.13 16.042 12.2 16.91 12.2.264 0 .719-.91 1.009-2.022.422-1.61-1.057-3.229-7.259-7.951-6.816-5.188-8.01-5.766-9.565-4.629Zm16.529.361c0 1.158 4.105 3.469 4.846 2.729.358-.359-.222-1.29-1.289-2.07-2.139-1.564-3.557-1.827-3.557-.659Zm-14.783 1.393c.47 1.409 11.554 9.426 12.145 8.785.222-.241-2.511-2.586-6.071-5.212-3.561-2.626-6.294-4.234-6.074-3.573Zm77.798.039c-.008.93.435 1.969.985 2.309 1.266.782 1.266-.542 0-2.5-.835-1.293-.971-1.266-.985.191Zm-83.87 2.064c-.677.677 1.022 2.483 5.174 5.498 3.399 2.47 7.629 5.86 9.399 7.534 2.799 2.647 3.303 2.821 3.874 1.335.36-.94.487-1.874.282-2.078-.206-.203-4.277-3.277-9.048-6.832-5.825-4.341-9.005-6.133-9.681-5.457Zm-12 3.714c-4.045.988-8.545 2.765-10 3.947-8.251 6.709-21.524 10.114-32.777 8.41-8.017-1.214-9.186-.935-10.494 2.506-1.419 3.733 1.345 6.922 9.941 11.467 3.952 2.089 7.185 3.614 7.185 3.387 0-.226-3.15-2.753-7-5.616-3.85-2.863-7-5.664-7-6.224 0-1.067 12.406 8.245 15 11.259 1.273 1.48 5.109 2.396 8.377 2.001.482-.058-1.41-1.793-4.205-3.856-2.795-2.062-4.62-3.911-4.055-4.107.564-.197 2.006.517 3.204 1.586 1.199 1.069 3.65 2.954 5.447 4.188l3.268 2.245 6.232-1.997c10.99-3.522 14.562-3.645 20.232-.698l5 2.599-6.75-6.407c-6.988-6.632-8.58-8.904-4.25-6.067 1.41.924 2.5 1.174 2.5.573 0-.586-.784-1.504-1.742-2.04s-1.418-1.298-1.024-1.692c.395-.395 1.349-.194 2.12.446 1.12.93 1.524.707 2.01-1.108.335-1.249.615-3.331.622-4.626l.014-2.355 2.25 2.02c1.237 1.11 6.493 5.883 11.679 10.605s9.832 8.585 10.323 8.585c2.23 0-.414-3.265-8.504-10.501-4.814-4.305-8.537-8.043-8.273-8.307.476-.476 15.722 12.626 16.358 14.058.546 1.227 2.168.851 2.157-.5-.005-.687-3.821-4.4-8.48-8.25-7.491-6.191-9.669-8.5-8.016-8.5.271 0 4.068 3.15 8.437 7s8.197 7 8.506 7c1.546 0 .277-3.696-1.687-4.916-3.879-2.408-15.736-12.431-15.264-12.903.247-.248 4.105 2.535 8.572 6.184 8.202 6.701 9.969 7.661 9.91 5.385-.044-1.666-18.337-16.205-20.653-16.414-.998-.09-5.125.645-9.17 1.633Zm63.605.33c-3.434 1.357-3.501 3.163-.199 5.327 1.791 1.173 2.866 1.357 3.608.615.741-.741.402-1.405-1.137-2.229-1.206-.646-1.974-1.394-1.705-1.662.269-.269 1.446.105 2.616.831 1.787 1.108 2.272 1.088 3.025-.123.61-.98.359-1.852-.78-2.719-1.934-1.47-1.81-1.469-5.428-.04Zm-5.186 5.394c-.393 1.024.148 2.464 1.393 3.709 1.783 1.783 2.208 1.853 3.434.566 1.206-1.267 1.016-1.775-1.393-3.708-2.504-2.01-2.858-2.068-3.434-.567Zm-2.564 4.152c0 1.696 3.769 4.337 4.501 3.154.385-.623-.133-1.763-1.151-2.534-2.125-1.61-3.35-1.837-3.35-.62Zm-350.5 3.544c-8.661 2.846-21.826 9.257-24.948 12.15-1.284 1.19-3.17 2.488-4.193 2.884-1.701.66-1.647.84.64 2.114 1.376.766 1.909 1.408 1.185 1.428-.723.019-2.16-.416-3.19-.968-1.26-.675-2.08-.668-2.505.021-.348.563 1.023 1.716 3.047 2.562 2.024.845 3.455 1.762 3.18 2.037-.275.275-2.178-.201-4.23-1.058-6.768-2.828-7.258-1.073-.671 2.406 2.348 1.241 3.026 1.963 1.869 1.991-.998.024-2.686-.422-3.75-.991-1.457-.78-1.934-.711-1.934.281 0 .723 1.433 1.856 3.184 2.517 1.75.661 2.939 1.448 2.639 1.748-.3.3-1.733.094-3.184-.458-2.125-.808-2.64-.711-2.64.497 0 .825 1.237 1.97 2.748 2.544 2.315.88 3.712.565 8.871-2.003 4.823-2.4 6.242-3.636 6.681-5.819.579-2.878 5.059-6.272 8.277-6.272.971 0 2.502.665 3.4 1.478 1.445 1.308 2.203 1.266 6.579-.363 6.796-2.531 10.445-3.321 10.445-2.259 0 .492-1.237 1.146-2.75 1.454-5.125 1.043-12.25 4.747-12.25 6.369 0 2.819-3.865 7.938-7.226 9.571-1.801.874-6.001 2.701-9.335 4.059-5.528 2.253-6.35 2.348-9.353 1.085-3.45-1.45-5.086-1.134-5.086.984 0 .693 2.279 1.881 5.063 2.639 2.785.759 5.298 1.758 5.584 2.221.533.862-3.308.147-7.483-1.392-1.698-.627-2.224-.525-1.925.37.225.677 2.418 1.855 4.873 2.617 4.373 1.358 4.557 1.322 9.147-1.775 7.144-4.822 19.969-10.48 33.025-14.572l11.784-3.693-5.921-11.146c-8.685-16.352-9.5-17.638-11.147-17.596-.825.021-4.65 1.073-8.5 2.338Zm292.5-1.389c0 .55.477 1 1.059 1s.781-.45.441-1-.816-1-1.059-1-.441.45-.441 1Zm37-.526c0 .925 6.154 3.641 7.318 3.23.65-.23-.56-1.157-2.69-2.061-4.19-1.778-4.628-1.888-4.628-1.169Zm-32 2.961c0 1.339-.43 3.566-.956 4.949-.876 2.304-.346 3.061 6.31 9.018 10.331 9.246 15.901 11.073 17 5.577.528-2.638.068-3.495-3.625-6.75-2.326-2.051-6.967-6.316-10.314-9.479-6.676-6.309-8.415-6.994-8.415-3.315Zm1.115 2.409c.569 1.708 18.238 17.113 18.885 16.466.478-.479-3.734-4.445-14.409-13.567-2.699-2.307-4.714-3.612-4.476-2.899Zm-265.046 3.656c-.026.55.635 3.25 1.47 6 .834 2.75 1.972 6.688 2.528 8.75.555 2.063 1.559 3.75 2.231 3.75.671 0 1.81.944 2.531 2.097 1.565 2.507 2.706 1.889 1.385-.75-.509-1.016-2.989-6.122-5.511-11.347-2.522-5.225-4.607-9.05-4.634-8.5Zm236.931 2.443c0 1.908.782 3.491 2.223 4.5 3.203 2.244 4.54 1.916 1.966-.482-1.204-1.121-2.189-3.146-2.189-4.5s-.45-2.461-1-2.461-1 1.324-1 2.943Zm17.5-.412c1.65 1.352 3.45 2.445 4 2.428.55-.017-.35-1.138-2-2.49-1.65-1.352-3.45-2.445-4-2.428-.55.017.35 1.138 2 2.49Zm9.591-1.93c.225.581 3.559 3.679 7.409 6.885 3.85 3.205 7.79 6.504 8.756 7.331.966.827 1.984 1.276 2.263.997.279-.279-2.935-3.388-7.141-6.91-9.488-7.944-11.81-9.651-11.287-8.303Zm80.909 1.399c-1.276 1.107-2.011 2.322-1.633 2.701.379.378 1.664-.287 2.855-1.479 2.82-2.819 1.798-3.841-1.222-1.222Zm-97 .011c0 1.134 3.772 3.235 5.033 2.804.507-.173-.418-1.082-2.056-2.018-1.637-.937-2.977-1.291-2.977-.786Zm62.663 1.425c-.641 1.67 2.269 3.032 3.612 1.689.586-.586.185-1.343-1.068-2.014-1.542-.825-2.131-.75-2.544.325Zm-68.663.169c0 .826 3.194 3.319 4.309 3.363.445.018.532-.416.194-.963-.804-1.301-4.503-3.273-4.503-2.4Zm-286.167 2.145c-.183.413-2.126 1.65-4.317 2.75-4.647 2.333-9.537 9.879-7.635 11.781.825.825 1.12.608 1.123-.831.007-3.675 3.924-8.53 8.523-10.565 2.46-1.088 4.473-2.408 4.473-2.932 0-1.127-1.686-1.285-2.167-.203Zm353.628 1.313c-.665 1.076 1.064 2.886 2.789 2.922 1.232.025.851-1.657-.661-2.911-1.069-.887-1.585-.89-2.128-.011Zm8.706-.124c.729 2.286 5.393 5.3 7.453 4.817 1.544-.362 1.345-.66-1.118-1.668-1.649-.675-3.852-1.983-4.896-2.908-1.446-1.28-1.789-1.337-1.439-.241Zm22.569-.341c-.329.329-.354 1.234-.056 2.011.366.952.05 1.224-.968.834-2.362-.906-3.099 1.471-1.131 3.647 1.75 1.933 1.797 1.915 3.098-1.178.727-1.728 1.321-3.765 1.321-4.527 0-1.425-1.207-1.845-2.264-.787Zm7.264 3.245c0 1.061 6.041 3.45 6.801 2.689.262-.262-.776-.952-2.306-1.534-1.531-.582-3.168-1.296-3.639-1.587-.471-.291-.856-.096-.856.432Zm-40 1.598c0 2.039 1.96 2.999 3.329 1.63.872-.872.79-1.384-.337-2.097-2.111-1.334-2.992-1.197-2.992.467Zm-353.797 2.257c-1.881.912-3.203 2.311-3.203 3.391 0 1.76.206 1.752 4.73-.187 5.851-2.509 5.859-2.517 3.559-3.747-1.361-.729-2.77-.578-5.086.543Zm380.343-.772c-.666 1.077 2.343 5.986 3.704 6.043.413.017.75-.799.75-1.814 0-2.342-3.542-5.705-4.454-4.229Zm-27.92 2.605c-.621 1.62.899 2.881 2.374 1.969 1.428-.883 1.235-2.196-.417-2.83a1.516 1.516 0 0 0-1.957.861Zm23.911.409c-.32.517.855 2.576 2.61 4.574 2.764 3.149 3.315 3.412 4.122 1.97.699-1.249.235-2.392-1.856-4.575-2.958-3.087-3.94-3.484-4.876-1.969Zm-372.148 2.04c-1.161.469-2.36 1.501-2.664 2.293-.304.792-2.428 1.692-4.721 2-2.293.307-4.413.802-4.71 1.1-1.135 1.135.729 3.595 3.192 4.213 3.353.841 9.983-3.625 11.396-7.676 1.077-3.091.838-3.276-2.493-1.93Zm346.611 1.02c0 .55.45 1 1 1s1-.45 1-1-.45-1-1-1-1 .45-1 1Zm24.706 2.323c-.314.82.657 2.608 2.239 4.124 2.182 2.091 2.915 2.36 3.349 1.23.314-.82-.657-2.608-2.239-4.124-2.182-2.091-2.915-2.36-3.349-1.23Zm-338.864 1.001c-.68.728-2.385 1.121-3.789.874-2.014-.354-2.304-.184-1.376.803.785.836 2.116.989 4 .462 1.553-.435 3.144-.723 3.537-.639.393.084.457-.518.143-1.336-.7-1.823-.95-1.839-2.515-.164Zm14.658-.324c.34.55 1.068 1 1.618 1s.722-.45.382-1c-.34-.55-1.068-1-1.618-1s-.722.45-.382 1Zm-24.5 2.893c0 1.104 2.595 2.179 3.375 1.399.314-.314.331-.958.039-1.431-.702-1.136-3.414-1.111-3.414.032Zm373.675-.235c-1.063 1.063 1.394 3.342 3.602 3.342 1.97 0 1.977-.062.223-2-1.916-2.117-2.755-2.411-3.825-1.342Zm-27.008 1.009c-1.699 1.699-.479 3.333 2.488 3.333 3.092 0 3.119-.04 1.345-2-1.92-2.121-2.755-2.412-3.833-1.333Zm-396.04 1.803c.34.888 1.048 1.472 1.57 1.297 1.5-.499 1.07-2.233-.641-2.59-1.07-.222-1.357.179-.93 1.293Zm6.623.42c-3.063 1.386-4.356 3.11-2.332 3.11.505 0 1.624.271 2.486.602 1.083.415 1.89-.247 2.61-2.139.573-1.507.917-2.809.764-2.892-.153-.084-1.74.51-3.528 1.319Zm4.505.61c-.498 2.605.645 3.166 3.181 1.561 1.19-.753 1.211-1.178.127-2.485-1.842-2.22-2.755-1.965-3.308.924Zm33.245-1.5c1.976 1.277 5.289 1.277 4.5 0-.34-.55-1.829-.993-3.309-.985-2.105.012-2.364.227-1.191.985Zm-4 .977c0 .434.9 1.025 2 1.313 1.1.287 2 .167 2-.267 0-.434-.9-1.025-2-1.313-1.1-.287-2-.167-2 .267Zm379.5.023c-.34.55.084 1 .941 1s1.559-.45 1.559-1-.423-1-.941-1-1.219.45-1.559 1Zm-383 2c1.1.473 2.9.884 4 .914 1.651.046 1.738-.114.5-.914-.825-.533-2.625-.945-4-.914-2.29.05-2.332.127-.5.914Zm-7.5 1.739c-3.483 1.568-3.488 1.579-1 2.319 4.389 1.304 5.725 1.052 3.5-.662-1.875-1.444-1.75-1.501 2-.906 3.746.594 3.877.535 2.059-.928-2.28-1.835-2.079-1.84-6.559.177Zm48.014 1.511c.041 3.763 1.346 5.757 3.853 5.886 2.355.122 2.396.182.383.57-3.384.652-2.706 2.015.75 1.507 3.444-.505 3.363-.27 1.842-5.347-.992-3.309-1.568-3.866-4-3.866-1.614 0-2.836.54-2.828 1.25Zm-53.423 1.603c-.622 1.005 4.282 2.607 5.194 1.696.721-.721.174-1.16-2.451-1.965-1.191-.366-2.425-.245-2.743.269Zm21.688 4.107c-11.965 4.367-20.721 8.846-28.029 14.336-2.887 2.169-5.25 4.055-5.25 4.191 0 .135 3.15.021 7-.255 4.725-.338 7-.143 7 .598 0 1.714-2.855 2.77-11.25 4.165-6.818 1.133-7.748 1.541-7.735 3.396.028 3.756 1.4 4.99 3.851 3.461 1.174-.733 2.134-1.701 2.134-2.152 0-.45.403-.569.895-.265.493.305 1.216-.231 1.608-1.191.652-1.597.781-1.576 1.534.256.7 1.702.833 1.739.893.25.079-1.976 2.032-2.432 2.14-.5.039.688.457.35.93-.75.735-1.71.87-1.746.93-.25.103 2.58 2.053 2.131 2.17-.5.095-2.159.132-2.148.9.25.44 1.375.89 1.825 1 1 .11-.825.56-.375 1 1 .601 1.877.825 2.033.9.628.081-1.523.372-1.647 1.554-.666 2.08 1.726.946 12.353-2.458 23.038-1.49 4.675-4.21 13.867-6.044 20.426-1.834 6.559-3.508 11.406-3.72 10.77-.401-1.202 6.187-25.292 9.735-35.603 2.493-7.243 2.619-12.864.34-15.143-2.102-2.102-11.291-1.544-16.178.983-4.822 2.494-2.752 3.73 2.417 1.444 5.506-2.436 11.776-2.227 12.276.409.459 2.424-6.951 12.121-7.989 10.453-.565-.907-1.436-.569-3.253 1.261l-2.482 2.5 2.951 9.878c1.623 5.432 2.951 10.495 2.951 11.25 0 3.501-2.048.592-5.546-7.878-4.246-10.28-4.536-10.786-5.174-9-.982 2.75-2.338 1.074-1.734-2.145.369-1.968.136-4.33-.555-5.622l-1.192-2.227-2.108 2.109c-2.09 2.089-2.09 2.124-.15 3.69 1.883 1.52 1.852 1.559-.791.994-1.512-.323-2.75-.272-2.75.113 0 .889 6.309 23.601 9.122 32.838 7.062 23.194 24.285 43.664 48.025 57.083 3.325 1.879 6.913 3.417 7.974 3.417s5.086-1.59 8.945-3.533c3.859-1.944 7.395-3.3 7.856-3.015.94.581-1.17 13.157-2.4 14.31-.714.669-.4-1.957 1.213-10.146.432-2.191.232-2.772-.833-2.417-.798.265-1.758 2.693-2.228 5.634-.455 2.842-1.194 5.167-1.644 5.167-.45 0-.4-1.859.111-4.132 1.038-4.619.396-6.445-.969-2.757-1.756 4.741-2.175 5.341-1.804 2.581.287-2.136.029-2.674-1.077-2.25-.8.307-1.643.558-1.873.558-1.109 0-.118 2.431 2.95 7.231 4.66 7.292 16.632 31.329 16.632 33.393 0 .207-.624.376-1.387.376-.931 0-1.768 2.219-2.546 6.75-1.893 11.023-1.9 11.25-.35 11.25.792 0 3.317 1.844 5.612 4.097 3.924 3.855 4.431 4.062 8.561 3.5 2.414-.328 5.011-.597 5.771-.597.76 0 1.885-1.103 2.499-2.452 1.28-2.809 6.383-5.548 10.337-5.548 1.482 0 4.019.782 5.637 1.738 2.887 1.705 3.053 1.681 8.631-1.25 4.998-2.626 5.781-3.453 6.463-6.821.426-2.109 1.425-4.761 2.219-5.894 2.05-2.927 6.651-5.759 9.37-5.766 1.739-.005 2.187-.444 1.794-1.757-.288-.962-1.051-4.851-1.695-8.64l-1.17-6.891-2.259 8.727c-1.243 4.799-2.761 9.228-3.373 9.84-1.42 1.42-1.401 1.219.445-4.786.845-2.75 2.159-7.922 2.918-11.494 1.507-7.087 1.053-10.433-3.734-27.506l-2.243-8-.505 12c-.278 6.6-.796 11.325-1.151 10.5-.355-.825-1.875-6.9-3.377-13.5-2.689-11.811-7.06-28.562-8.219-31.5-.326-.825-.951 2.1-1.389 6.5-1.299 13.036-1.766 12.841-1.199-.5.293-6.875.283-12.257-.021-11.96-.304.297-1.342 6.372-2.306 13.5-.965 7.128-1.923 12.144-2.129 11.147-.404-1.953 1.509-17.776 2.443-20.21.312-.813.135-1.477-.393-1.477-.933 0-1.958 5.01-4.778 23.359-1.331 8.661-2.525 12.38-2.427 7.558.027-1.33 1.072-8.379 2.322-15.667s2.155-13.25 2.012-13.25c-.143 0-1.583 1.238-3.2 2.75-2.646 2.475-3.112 3.901-4.658 14.25-.946 6.325-1.958 13.647-2.251 16.271-.293 2.624-.885 4.989-1.317 5.256-.431.266-.599-.756-.372-2.271 2.77-18.491 4.117-28.831 3.801-29.173-1.017-1.099-1.741 1.97-4.031 17.086-2.508 16.548-3.091 19.432-3.791 18.724-.213-.216.681-7.143 1.987-15.393 2.716-17.145 2.777-17.821 1.536-17.054-.778.481-1.559 3.583-2.658 10.554-.131.825-.983 6.9-1.895 13.5s-2.009 12.357-2.438 12.792c-.429.436.009-4.964.974-12 3.791-27.634 3.477-27.848-2.643-1.792-2.067 8.8-3.932 15.481-4.144 14.846-.212-.634 1.049-7.159 2.803-14.5 4.393-18.386 4.367-18.244 3.142-17.487-.584.361-2.778 7.74-4.876 16.399-2.097 8.658-3.956 15.015-4.13 14.126-.174-.888 1.235-7.773 3.132-15.3 2.017-8.007 2.987-13.531 2.336-13.314-.612.204-2.71 6.784-4.663 14.622-1.953 7.838-3.805 13.997-4.115 13.686-.311-.31.841-6.177 2.559-13.037 2.559-10.219 2.865-12.524 1.692-12.757-.787-.156 3.016-3.729 8.453-7.939 5.436-4.21 13.027-10.555 16.868-14.1l6.983-6.445-5.875-18.9c-3.232-10.395-7.625-24.975-9.764-32.4-4.955-17.207-11.909-38.252-12.458-37.704-.232.233.083 4.706.701 9.942.617 5.236.924 10.361.68 11.391-.539 2.285-.471 2.453-4.822-11.879-1.795-5.913-3.612-10.75-4.037-10.75-1.489 0-2.054 2.1-.93 3.455 1.486 1.789-.122 2.794-3.224 2.015l-2.355-.591 1.752 9.311c.964 5.12 2.023 10.996 2.354 13.058.467 2.916 1.312 4.109 3.806 5.379 4.507 2.295 12.899 8.512 12.299 9.112-.275.275-2.723-1.131-5.44-3.126-2.717-1.994-9.825-5.898-15.797-8.676-20.117-9.357-25.663-12.359-29.267-15.843-1.975-1.908-4.378-3.357-5.34-3.219-1.014.145-1.75-.393-1.75-1.281 0-.95.569-1.313 1.5-.956.825.317 1.5.051 1.5-.59s-.45-.888-1-.548c-.597.369-1-.859-1-3.048 0-2.774.349-3.532 1.435-3.115.79.303 1.686.013 1.991-.643.306-.657.304-.182-.003 1.056-.316 1.277-.096 2.25.51 2.25.587 0 1.067-1.025 1.067-2.278 0-1.253.872-3.024 1.939-3.937 1.807-1.548 1.968-1.546 2.384.027.3 1.139.483.921.561-.669.086-1.745.539-2.195 1.743-1.733.894.344 2.23.123 2.968-.489s3.245-1.675 5.572-2.362c4.8-1.418 5.442-2.344 3.484-5.022-1.307-1.787-1.901-1.548-11.764 4.732-14.097 8.976-15.76 9.171-6.887.805 4.125-3.889 7.05-7.02 6.5-6.958-.55.062-5.6 1.792-11.221 3.844Zm-24.279-.864c1.16.824.891.933-1.189.481-3.263-.709-4.711.954-1.55 1.782 2.286.598 7.739-1.236 7.739-2.603 0-.416-1.462-.749-3.25-.741-2.574.012-2.938.237-1.75 1.081Zm-19.768 3.099c.513 1.54 5.582 2.915 6.323 1.715.31-.502-.616-1.363-2.06-1.912-3.47-1.319-4.75-1.26-4.263.197Zm14.768.913c0 .683-.96.868-2.5.481-1.509-.378-2.5-.2-2.5.451 0 .593.419.819.931.503a1.106 1.106 0 0 1 1.515.369c.321.52-.436 1.141-1.681 1.38-1.945.374-1.982.454-.265.567 1.1.072 3.35-.976 5-2.328 2.302-1.887 2.593-2.467 1.25-2.495-.962-.02-1.75.463-1.75 1.072Zm48.067 1.191c-1.888.603-6.156 3.655-9.484 6.782-5.683 5.342-5.99 5.862-5.052 8.553 1.263 3.626 8.669 8.498 22.313 14.68 5.689 2.577 10.728 4.686 11.198 4.686.47 0 .474-1.236.008-2.75-.466-1.512-1.859-6.477-3.096-11.033-1.238-4.555-2.611-8.505-3.051-8.777-.44-.272-2.961.029-5.602.669-5.107 1.237-7.934 2.891-4.942 2.891.967 0 1.481.45 1.141 1-1.106 1.789-12.5.894-12.5-.981 0-.412 3.263-1.534 7.25-2.494 9.847-2.371 9.999-2.493 7.313-5.852-2.253-2.817-2.273-2.821-6.108-1.219-2.116.884-5.334 2.742-7.151 4.128-1.817 1.386-3.304 2.05-3.304 1.475 0-1.571 7.047-6.361 13.385-9.097 3.088-1.333 5.615-2.769 5.615-3.192 0-1.047-3.777-.795-7.933.531Zm-74.407 5.701c.607 6.768 1.81 9.546 2.902 6.7.344-.899-.298-4.236-1.43-7.417l-2.055-5.783.583 6.5Zm12.532-3.925c.197.591.786 1.075 1.308 1.075s1.11-.484 1.308-1.075c.197-.591-.391-1.075-1.308-1.075s-1.505.484-1.308 1.075Zm2.808 1.773c0 .466 1.462.87 3.25.898 2.637.041 2.873-.106 1.25-.778-2.676-1.107-4.5-1.156-4.5-.12Zm-1.5 2.152c.34.55 1.604.968 2.809.93 2.112-.068 2.119-.101.19-.93-2.751-1.183-3.73-1.183-3 0Zm47.959.067c-.363.586-.445 1.281-.183 1.543s.743-.218 1.069-1.067c.676-1.762.1-2.072-.886-.476Zm-12.38 3.516c.048 1.165.285 1.402.604.605.289-.722.253-1.585-.079-1.917-.332-.332-.568.258-.525 1.312Zm3.303-.031c.341.89.173 1.291-.393.941-.544-.336-.989-.134-.989.448 0 .582.436 1.059.969 1.059.532 0 .715.788.405 1.75-.475 1.477-.394 1.516.516.25 1.415-1.966 1.416-6 .003-6-.609 0-.839.698-.511 1.552Zm-49.382 6.448c0 .55.45 1 1 1s1-.45 1-1-.45-1-1-1-1 .45-1 1Zm120.445 11.221-3.056 2.098 8.15 19.09c8.5 19.914 10.885 26.71 19.442 55.422 6.738 22.607 9.527 35.239 11.962 54.169 1.096 8.525 2.659 19.1 3.472 23.5 4.863 26.304 7.44 67.723 5.662 91-.588 7.7-1.077 25.25-1.086 39l-.017 25-4.947 24c-6.685 32.43-14.478 68.728-17.499 81.5-1.366 5.775-3.431 17.025-4.59 25-1.159 7.975-2.921 16.975-3.916 20-2.7 8.208-4.847 18.444-8.18 39-6.148 37.919-5.363 30.621-10.371 96.5-.836 11-1.735 20.98-1.997 22.178-.261 1.197-.926 10.872-1.477 21.5-.55 10.627-1.731 24.796-2.624 31.487-1.32 9.891-1.485 16.402-.885 34.802l.738 22.63 5.137-.3 5.137-.3-.219-4c-.471-8.58 1.797-54.629 3.249-65.997.844-6.6 1.936-27.075 2.429-45.5.844-31.619 3.888-73.894 5.998-83.308.526-2.347 1.886-10.325 3.023-17.729 4.599-29.948 7.184-44.171 10.629-58.463 6.839-28.374 7.332-31.05 8.835-48 .83-9.35 1.976-19.475 2.549-22.5 1.896-10.022 11.677-45.364 13.561-49 .792-1.529 1.726-10.123 2.403-22.125.609-10.794 1.502-22.053 1.985-25.02 1.077-6.614-.278-110.972-1.466-112.893-.465-.752-1.182-5.889-1.595-11.415-.458-6.145-1.922-14.124-3.769-20.547-1.66-5.775-3.974-16.575-5.142-24-2.588-16.461-4.445-23.979-10.867-44-4.381-13.659-16.929-50.324-20.533-60-3.581-9.613-5.907-14.994-6.459-14.938-.336.034-1.986 1.006-3.666 2.159ZM86.3 321.333c-1.88 2.584-2.25 6.193-.86 8.385.707 1.117 1.32 1.053 3.484-.365 2.929-1.919 3.112-2.798 1.528-7.341-1.31-3.755-1.851-3.843-4.152-.679Zm13.578 6.622c.355 1.324.651 3.067.658 3.872.012 1.228.274 1.205 1.621-.143 1.476-1.476 1.423-1.791-.658-3.872l-2.265-2.265.644 2.408Zm427.672 5.349c0 1.407.45 2.559 1 2.559s1-.873 1-1.941-.45-2.219-1-2.559c-.567-.351-1 .49-1 1.941Zm-441-.382c0 .582.45.781 1 .441s1-.816 1-1.059-.45-.441-1-.441-1 .477-1 1.059Zm443.493 4.378a947.29 947.29 0 0 0-.949 3.031c-.885 2.845 1.079 2.37 2.172-.526.656-1.74.733-3.164.188-3.501-.505-.312-1.14.136-1.411.996Zm-412.433 4.063c-.16 1.65-.197 3.9-.083 5 .237 2.288 4.95 8.906 5.763 8.093.297-.296-.62-2.057-2.036-3.914-1.592-2.087-2.723-5.055-2.964-7.777-.299-3.372-.458-3.7-.68-1.402Zm413.561 2.099c-1.813 5.32-1.96 6.403-.871 6.397 1.435-.007 4.564-9.082 3.5-10.146-.677-.677-1.54.554-2.629 3.749Zm-395.889 1.401c.942 1.1 2.357 2 3.145 2 1.118 0 1.035-.439-.377-2-.995-1.1-2.411-2-3.145-2-.988 0-.89.52.377 2Zm398.47 2.034c-2.845 6.643-3.381 8.738-2.392 9.349 1.314.812 6.115-10.887 5.125-12.489-.576-.931-1.39.004-2.733 3.14Zm-409.737 2.521c1.517 1.406 3.005 2.309 3.307 2.007.842-.843-2.886-4.562-4.573-4.562-.991 0-.566.857 1.266 2.555Zm411.2 3.431c-1.466 3.38-2.636 7.354-2.6 8.83.05 2.068.851.996 3.49-4.673 2.216-4.763 3.134-7.877 2.6-8.83-.6-1.073-1.549.198-3.49 4.673Zm2.903 11.041c-1.487 3.315-2.561 6.66-2.386 7.434.175.774 1.741-1.939 3.481-6.027 3.765-8.85 2.801-10.089-1.095-1.407Zm-470.15-.527c.453 5.207 2.269 11.146 3.142 10.273.51-.511-1.12-8.203-2.708-12.773-.637-1.832-.753-1.165-.434 2.5Zm84.082 4.36c-12.948 5.507-19.165 8.826-19.844 10.594-.326.85-.157 1.546.375 1.546.533 0 .969-.471.969-1.046 0-.951 7.947-4.975 22.744-11.519 4.531-2.004 5.811-2.22 7.058-1.192 1.254 1.035 1.436.992 1.028-.243-.815-2.468-2.888-2.155-12.33 1.86Zm386.528 10.566c-1.567 4.121-1.066 5.536.604 1.708.808-1.852 1.234-3.602.946-3.889-.287-.287-.985.694-1.55 2.181ZM73.563 389.613c7.532 32.216 10.07 42.901 10.572 44.5.303.962.1 1.75-.447 1.75-.548 0-1.735-2.587-2.64-5.75-.903-3.163-3.588-12.05-5.967-19.75-2.378-7.7-5.117-17.15-6.087-21-.97-3.85-2.03-7.528-2.353-8.173-.39-.774-3.994.884-10.591 4.873-17.642 10.667-20.184 11.584-37.005 13.351-8.222.863-15.137 1.758-15.367 1.988-.23.23.769 1.89 2.22 3.689 1.45 1.8 7.458 9.572 13.349 17.272 5.89 7.7 15.232 19.446 20.757 26.102 5.525 6.657 15.745 19.032 22.71 27.5 7.224 8.782 24.776 27.612 40.85 43.822 15.501 15.633 29.883 30.708 31.96 33.5 5.385 7.238 7.379 13.512 12.982 40.852 12.157 59.318 18.319 77.685 42.865 127.77 4.999 10.201 10.639 22.576 12.534 27.5 4.289 11.148 8.622 20.428 8.635 18.495.024-3.583-11.285-45.592-14.87-55.237-5.192-13.969-10.687-31.836-17.471-56.804-5.759-21.195-11.727-64.406-13.122-95-.313-6.875-.786-15.425-1.05-19-.599-8.095.919-34.735 2.606-45.751 1.242-8.109 1.223-8.294-1.08-10.746-1.29-1.372-2.009-2.831-1.599-3.241.41-.41 1.185.038 1.721.996s1.402 1.742 1.925 1.742c1.794 0 .948-2.098-1.8-4.463-1.513-1.302-2.424-2.694-2.025-3.094.399-.399 1.598.35 2.664 1.665 2.377 2.932 2.761 2.594 3.534-3.108l.611-4.5-11.267-14.664c-14.66-19.079-18.871-24.875-19.456-26.778-.706-2.298 1.567.549 17.08 21.394 9.174 12.327 14.228 18.329 14.882 17.675 1.293-1.293-.085-3.416-14.692-22.626-11.673-15.352-15.489-19.294-17.487-18.059-.546.338-1.503-.337-2.125-1.5-2.076-3.879-1.979-1.361.197 5.134 1.411 4.21 3.658 8.109 6.521 11.313 2.403 2.689 4.122 5.136 3.82 5.437-.302.302-1.924-.998-3.605-2.889-2.035-2.289-2.833-2.769-2.39-1.437 1.914 5.749 4.592 17.729 4.078 18.243-.725.726.487 2.92-9.959-18.04-4.879-9.789-9.071-17.596-9.317-17.35-1.591 1.59 11.346 54.759 16.644 68.408 2.166 5.579 2.707 9.319 1.113 7.689-.511-.522-3.344-6.365-6.295-12.984-5.205-11.674-22.899-44.676-23.585-43.99-.187.187 1.252 6.344 3.198 13.682 4.12 15.536 10.858 47.601 10.333 49.176-.41 1.231-14.368-25.161-24.013-45.407-10.457-21.949-24.155-55.307-29.228-71.177-2.594-8.113-5.053-14.75-5.465-14.75-.413 0 .486 5.288 1.997 11.75Zm-32.831 12.75c-.112 2.2-.453 5.8-.758 8-.441 3.181-.327 3.642.558 2.253.627-.983.958-4.478.758-8-.226-3.986-.428-4.803-.558-2.253Zm163.424 1.5c-.44 2.475-1.657 8.921-2.703 14.324-1.987 10.257-2.241 12.347-1.397 11.503.892-.892 5.574-26.25 5.23-28.327-.181-1.1-.69.025-1.13 2.5Zm-161.32 7.5c.008 2.75.202 3.756.432 2.236.229-1.52.223-3.77-.014-5-.237-1.23-.425.014-.418 2.764Zm1.85 3.309c-.075 1.82.276 3.055.779 2.744.503-.311 1.142 0 1.42.691.306.758.538.562.586-.494.043-.962-.34-1.75-.851-1.75-.512 0-1.126-1.012-1.364-2.25-.308-1.596-.473-1.289-.57 1.059Zm130.443 14.805c-1.542 6.322-2.528 11.771-2.191 12.107.337.337.612.321.612-.035 0-.357 1.308-5.606 2.907-11.665 1.599-6.06 2.586-11.217 2.192-11.46-.394-.243-1.978 4.731-3.52 11.053Zm32.421-10.614c0 .55.45 1 1 1s1-.45 1-1-.45-1-1-1-1 .45-1 1Zm-35.863 7.603c-.624 2.257-1.353 6.307-1.619 9-.398 4.035-.131 3.5 1.52-3.041 2.054-8.141 2.141-13.343.099-5.959Zm-20.97 6.208c.677 1.648 18.306 25.049 18.628 24.727.695-.695-6.873-14.538-7.947-14.538-1.18 0-3.761-2.915-3.816-4.309-.018-.445.507-.476 1.166-.069.659.408.317-.767-.759-2.61-1.077-1.843-2.628-3.562-3.448-3.819-.887-.278-.51.6.93 2.166 1.331 1.448 2.168 2.886 1.859 3.195-.309.308-1.542-.815-2.739-2.496-1.937-2.721-4.736-4.344-3.874-2.247Zm166.034 2.646c-.615 1.352-5.548 7.089-10.962 12.75-22.928 23.976-26.951 29.225-10.975 14.321 7.02-6.55 13.675-13.455 14.79-15.344 3.883-6.582 2.953-2.416-1.451 6.5-11.133 22.536-23.751 57.61-30.022 83.452-1.42 5.85-2.545 11.475-2.502 12.5.091 2.142 1.167-.897 6.957-19.636 5.893-19.075 15.547-44.561 26.646-70.347 12.104-28.118 11.557-26.653 9.954-26.653-.723 0-1.819 1.106-2.435 2.457Zm-155.19 26.593c.006.798 2.286 3.925 5.068 6.95 5.543 6.03 5.564 5.058.042-2-5.13-6.557-5.122-6.549-5.11-4.95Zm2.989 9.263c0 .172 1.35 1.606 3 3.187 3.638 3.485 4.043 2.634.455-.955-2.325-2.324-3.455-3.054-3.455-2.232Zm67.331 4.156c-2.605 2.605-3.39 4.163-3.15 6.25.266 2.324.852 2.832 3.559 3.094 2.485.239 3.829-.324 5.774-2.422 7.477-8.069 1.573-14.678-6.183-6.922Zm1.259 1.217c-3.074 3.315-3.323 5.314-.663 5.314 2.079 0 6.345-4.685 5.787-6.357-.688-2.066-2.602-1.676-5.124 1.043Zm.916 1.308c-.999 1.103-1.351 2.006-.783 2.006 1.258 0 3.752-2.858 3.08-3.53-.265-.265-1.299.42-2.297 1.524Zm5.222 5.731c-2.238 2.239-3.588 2.743-7 2.612-4.204-.161-4.25-.124-8.146 6.5-4.71 8.009-15.567 22.512-16.302 21.777-.288-.289 1.968-3.837 5.015-7.884 5.621-7.469 12.072-17.73 11.146-17.73-2.015 0-10.416 5.347-10.926 6.953-.961 3.027-5.41 6.047-8.9 6.043-1.713-.002-4.588-.902-6.389-2-4.155-2.533-16.507-2.858-18.868-.496-.825.824-3.209 1.772-5.298 2.106l-3.797.608-.655 6.143c-.625 5.866-.53 6.244 2.119 8.382 6.632 5.356 22.125 7.701 32.793 4.965 13.904-3.567 29.627-12.778 36.507-21.386 3.629-4.542 3.987-7.223 2.151-16.093l-.678-3.274-2.772 2.774Zm-40.273 8.73c-3.027 3.026-3.065 4.005-.232 5.988 4.574 3.204 11.69.98 13.219-4.132 1.397-4.675-8.723-6.121-12.987-1.856Zm-27.455-.49c0 .53.9 1.446 2 2.035 2.709 1.45 2.516 2.832-.5 3.589-2.677.672-3.445 2.411-1.065 2.411 5.902 0 8.532-4.509 4.342-7.443-2.506-1.756-4.777-2.038-4.777-.592Zm30.122 1.939c-1.87 1.184-.511 3.1 2.187 3.081 2.923-.021 5.111-1.496 4.26-2.873-.816-1.32-4.503-1.44-6.447-.208Zm.878 1.096c0 .55.9 1 2 1s2-.45 2-1-.9-1-2-1-2 .45-2 1Zm-31.187.683c.721.289 1.584.253 1.916-.079.332-.332-.258-.568-1.312-.525-1.165.048-1.402.285-.604.604Zm336.687 28.022c-4.4 3.08-7.136 5.29-6.08 4.913 1.105-.395 2.23-.185 2.649.494 1.188 1.921 3.763.227 5.321-3.502.829-1.984 2.774-4.161 4.531-5.069 2.933-1.517 3.95-2.603 2.329-2.488-.413.029-4.35 2.573-8.75 5.652Zm-268.319 2.461c-5.944 6.889-5.981 6.689 2.069 11.302l4.75 2.722-.07-8.345c-.106-12.6-.495-12.928-6.749-5.679Zm-7.44 4.236c-1.773 1.773-14.035 7.931-18.991 9.537-2.062.669-3.742 1.519-3.732 1.889.02.763 10.04 7.487 10.422 6.993.137-.177 2.907-3.921 6.155-8.321s6.468-8.595 7.155-9.321c2.244-2.372 1.307-3.093-1.009-.777ZM484.89 532c.348 1.299.639 3.151.646 4.113.008.962.392 1.75.853 1.75.82 0 3.518-5.028 2.948-5.494-.158-.129-1.365-.797-2.683-1.484-2.252-1.174-2.358-1.106-1.764 1.115Zm-256.183 7.874c-2.354 3.216-4.928 6.384-5.719 7.04-.791.657-1.438 1.598-1.438 2.092 0 .971 13.317 9.882 14.675 9.819.823-.038 7.68-9.304 10.104-13.655 1.203-2.16.968-2.492-4-5.651-9.718-6.178-8.822-6.202-13.622.355Zm260.046-2.159c-1.191 2.119-1.873 4.145-1.515 4.502.533.534 5.312-6.624 5.312-7.956 0-1.57-1.991.241-3.797 3.454Zm-356.198-.014c.003.364 1.133 2.012 2.512 3.662l2.507 3-.652-3c-.36-1.65-.828-3.201-1.042-3.446-.651-.747-3.33-.921-3.325-.216Zm-7.132 1.662c1.539 2.796 11.904 13.056 12.544 12.416.29-.289-2.662-3.651-6.559-7.471-3.897-3.82-6.59-6.045-5.985-4.945Zm43.156 5.75.03 5.25 3.113-3.425 3.113-3.426-2.253-1.824c-3.438-2.784-4.035-2.273-4.003 3.425Zm-37.029-2.649c0 1.296 6.81 7.922 7.467 7.266.273-.273-1.295-2.247-3.485-4.385s-3.982-3.435-3.982-2.881Zm73 .108c-1.232.323-11 13.215-11 14.517 0 1.162 13.261 9.894 13.903 9.155.771-.887 9.078-12.911 10.37-15.009.636-1.034-1.851-3.058-9.273-7.545-1.375-.832-3.175-1.335-4-1.118Zm286.124 2.805c-2.352 3.986-2.498 4.486-1.309 4.486.942 0 4.479-7.039 3.852-7.667-.231-.23-1.375 1.202-2.543 3.181ZM184.05 549.3c3.85 3.566 7.249 6.502 7.553 6.524.304.021 2.428-2.62 4.72-5.87l4.167-5.908-8.72.158c-4.796.088-10.07-.189-11.72-.615-2.616-.674-2.105.056 4 5.711Zm-11.75-.386c-2.203 3.185-2.75 5.095-2.75 9.6 0 5.435.161 5.772 4.75 9.965 2.612 2.387 4.995 4.35 5.295 4.362 1.033.042 11.025-15.055 10.513-15.884-.628-1.016-14.126-12.109-14.669-12.056-.214.021-1.626 1.827-3.139 4.013Zm69.873 5.556c-3.873 5.579-3.875 5.586-1.881 7.579 1.738 1.738 2.27 1.824 4.126.664 1.682-1.05 2.132-2.318 2.132-6.009 0-2.572.273-5.389.607-6.259 1.299-3.387-1.29-1.295-4.984 4.025Zm-28.054 5.295c-3.063 4.347-5.569 8.125-5.569 8.396 0 .271 2.185 1.896 4.855 3.609 2.671 1.714 5.666 4.011 6.655 5.104.99 1.094 2.113 1.989 2.495 1.989.817 0 11.995-16.594 11.995-17.807 0-.911-12.606-9.193-13.993-9.193-.478 0-3.375 3.556-6.438 7.902Zm-23.656 1.379c-5.918 8.273-8.91 12.802-8.893 13.459.035 1.298 12.952 10.395 13.915 9.8.981-.606 10.27-15.734 9.83-16.009-.146-.091-2.993-2.273-6.327-4.848-3.334-2.576-6.259-4.669-6.5-4.652-.241.018-1.152 1.03-2.025 2.25Zm41.592 7.816c-2.565 3.893-4.513 7.228-4.33 7.411.516.516 12.825-10.586 12.825-11.568 0-.478-.862-1.331-1.916-1.895-1.675-.897-2.502-.135-6.579 6.052Zm-61.656 4.652c.533 8.794 2.633 10.444 6.116 4.807l2.129-3.443-3.797-3.53c-2.088-1.941-4.022-3.542-4.297-3.557-.275-.016-.343 2.559-.151 5.723Zm31.466 4.523-5.185 8.228 2.685 2.24c1.849 1.543 3.464 2.067 5.185 1.682 3.421-.764 16.267-7.722 16.71-9.051.272-.816-12.837-11.458-13.981-11.349-.126.012-2.562 3.724-5.414 8.25Zm-24.202 1.569c-1.162 1.632-2.113 3.217-2.113 3.521 0 .742 7.605 5.159 12.153 7.058 3.531 1.475 3.704 1.447 5.195-.829 1.504-2.295 1.391-2.473-4.485-7.036-3.315-2.575-6.615-4.906-7.332-5.182-.718-.275-2.255.836-3.418 2.468Zm16.882 10.169c-.955 1.783-.75 1.99 1.97 1.99 3.5 0 3.883-.989 1.065-2.749-1.674-1.046-2.131-.932-3.035.759Zm-88.684 90.49c3.055 10.919 5.699 19.47 10.301 33.311 6.635 19.958 7.846 29.321 6.946 53.689-.346 9.35-.656 25.775-.689 36.5l-.061 19.5 4.546 13.852c2.501 7.619 5.068 16.394 5.705 19.5 1.927 9.402 3.12 9.558 2.42.317-.808-10.676-2.645-17.628-6.718-25.426l-3.261-6.243.447-18.5c.245-10.175.436-30.2.424-44.5l-.023-26-3.579-10.5c-11.61-34.059-15.987-46.547-16.472-46.995-.3-.278-.294.395.014 1.495Zm145.01 29.355c-6.727 2.325-12.306 6.165-12.314 8.478-.004 1.009.33 1.663.743 1.455 14.306-7.214 14.542-7.288 23.25-7.288 7.665 0 9.04.305 14 3.11 4.432 2.505 6.031 4.156 8.233 8.5 1.504 2.964 2.741 6.679 2.75 8.253.016 2.684.221 2.827 3.267 2.269 15.125-2.768 20.924-1.623 27.877 5.505 6.764 6.934 10.249 16.966 10.191 29.334-.103 22.035-8.195 37.231-23.944 44.969-8.729 4.288-13.832 4.47-21.733.773-3.561-1.667-7.244-4.203-8.183-5.636-4.171-6.366-2.259-18.535 3.814-24.283 4.402-4.165 6.889-5.294 11.662-5.294 4.049 0 4.698-.511 3.301-2.596-1.581-2.357-6.202-2.474-11.291-.284-8.219 3.535-13.944 11.979-13.944 20.565 0 8.326 6.322 19.362 13.1 22.867 3.654 1.889 3.777 5.022.476 12.112-3.108 6.675-8.492 11.972-16.589 16.319-5.484 2.944-7.492 3.485-12.987 3.5-8.833.023-12.608-2.223-16.375-9.743-1.581-3.157-3.451-5.74-4.156-5.74-.705 0-2.843 2.173-4.751 4.83-1.909 2.656-5.55 6.144-8.092 7.75-2.677 1.691-4.623 3.671-4.624 4.705-.003 2.64 2.588.943 9.545-6.249 3.227-3.336 6.271-5.93 6.765-5.765.494.164 1.487 2.013 2.208 4.109 1.63 4.741 4.813 8.216 9.927 10.838 11.064 5.672 32.805-3.583 39.274-16.718.541-1.1 1.825-5.375 2.852-9.5 1.797-7.214 2.983-9.392 4.578-8.407 1.502.929 14.491-1.76 19.469-4.029 6.252-2.851 12.684-8.514 15.875-13.98 1.311-2.246 3.586-8.134 5.056-13.084 5.323-17.93 3.415-37.884-4.791-50.095-5.833-8.68-12.693-11.734-26.601-11.841l-8.341-.064-1.324-3.845c-2.096-6.088-7.474-11.54-14.994-15.201-6.163-3.001-15.529-3.243-23.179-.599Zm8.902 29.702c-1.805 1.264-2.227 2.532-2.246 6.75-.05 11.139-9.009 20.507-18.477 19.321-2.2-.275-5.013-.807-6.25-1.181-1.828-.553-2.25-.292-2.25 1.389 0 1.54.96 2.337 3.75 3.111 8.153 2.265 13.68.387 20.947-7.114 5.441-5.617 8.253-11.929 8.281-18.583.024-5.676-.371-6.064-3.755-3.693Zm-64.015 6.541c-4.09 4.184-6.12 10.422-6.884 21.152l-.623 8.75h-3.786c-6.276 0-9.034 1.674-17.915 10.873-6.237 6.46-9.382 8.977-11.812 9.453-3.778.74-8.813-1.04-13.884-4.908l-3.304-2.52v5.87c0 15.432 11.924 36.612 24.08 42.772 3.788 1.92 6.398 2.46 11.887 2.46 6.622 0 7.034.131 7.049 2.25.046 6.247 9.61 15.531 16.524 16.038 4.353.32 4.578-2.854.26-3.67-1.815-.343-4.701-1.479-6.413-2.523-10.83-6.607-9.546-31.802 1.908-37.436 3.713-1.827 4.545-1.769 10.707.751.898.367 1.992-.17 2.719-1.336 1.072-1.715.817-2.196-2.12-4.011-10.174-6.288-22.73 2.953-24.37 17.937-.623 5.691-1.685 7-5.675 7-12.788 0-26.646-13.47-32.14-31.238-1.994-6.451-1.59-7.697 1.742-5.364 3.191 2.235 10.376 2.006 15.542-.495 2.387-1.156 6.672-4.788 9.547-8.094 6.027-6.929 9.128-8.809 14.529-8.809 6.186 0 7.866-2.624 9.16-14.308 1.139-10.289 2.882-15.805 6.066-19.194 1.151-1.226 1.593-2.536 1.115-3.309-.584-.944-1.609-.443-3.909 1.909Zm236.384 26.152c-.955 3.438-3.503 10.943-5.664 16.679-4.334 11.507-4.973 14.704-1.714 8.571 1.945-3.659 10.786-28.821 10.786-30.696 0-.442-.376-.804-.836-.804-.46 0-1.617 2.813-2.572 6.25Zm-16.419 51.434c-4.398 11.684-5.239 16.547-1.265 7.307 2.47-5.742 6.397-18.025 5.912-18.494-.176-.17-2.267 4.864-4.647 11.187Zm-20.094 52.19c-.128 2.225-16.247 39.285-24.629 56.626-11.083 22.926-37.128 65.669-42.971 70.517-.865.72-2.486 2.7-3.602 4.39-5.003 7.62 8.026-8.056 15.916-19.144 15.04-21.137 34.995-56.581 43.638-77.509 5.569-13.484 12.664-33.998 12.17-35.187-.244-.587-.479-.449-.522.307Zm65.824 75.407c-1.052 13.229 6.887 26.815 16.512 28.259 5.747.861 9.826-.079 9.401-2.168-.221-1.09-1.729-1.645-5.028-1.85-9.611-.599-16.853-8.275-17.604-18.66-.265-3.653-.918-5.93-1.8-6.268-.761-.292-1.428.017-1.481.687Z" fill="#201B19"/><path d="M471.8 8.58c1.513.228 3.987.228 5.5 0 1.513-.23.275-.417-2.75-.417s-4.263.187-2.75.416ZM510.363 18.546c.721.29 1.584.253 1.916-.079.332-.332-.258-.568-1.312-.525-1.165.048-1.402.285-.604.604ZM519.05 19.92c5.066 1.048 9.159 1.001 5-.057-1.65-.42-4.35-.765-6-.767-2.522-.002-2.363.13 1 .824ZM464.55 81.858c0 .95 10.942 4.397 11.663 3.675.247-.247-2.276-1.369-5.607-2.494-3.331-1.125-6.056-1.656-6.056-1.18ZM344.509 49.951c7.786 1.21 15.041 4.245 15.041 6.292 0 1.298-3.103 4.332-17.5 17.115l-3 2.663 4.369-2.329c4.117-2.194 21.131-17.234 21.131-18.678 0-1.438-12.867-5.12-19.5-5.58l-7-.487 6.459 1.004ZM335.615 44.998c-6.688 1.11-7.674 1.86-2.482 1.884 3.81.02 20.39 2.276 25.417 3.46 1.375.324-.613-1-4.418-2.945-7.187-3.672-9.24-3.937-18.517-2.399ZM354.05 32.82c-4.486 2.142-9.561 5.987-7.95 6.021.578.012 1.478-.406 2.001-.929.524-.524 3.426-2.316 6.45-3.982 6.095-3.359 5.759-4.103-.501-1.11Z" fill="#FAF5E5"/><path d="M332.915 42.365c-5.739 1.81-8.526 3.428-7.834 4.548.323.523 1.348.918 2.278.88 1.447-.06 1.421-.177-.18-.806-2.59-1.018 4.795-3.205 13.121-3.886 3.438-.282 6.25-.9 6.25-1.375 0-1.278-8.877-.862-13.635.64ZM356.3 65.388c-3.713 3.552-9.225 7.855-12.25 9.562-6.596 3.722-8.186 5.64-2.841 3.424 8.457-3.505 17.795-11.346 21.745-18.26 1.2-2.1.35-1.428-6.654 5.274ZM341.044 65.87c-.998 1.103-1.579 2.242-1.29 2.53.289.29 1.271-.614 2.184-2.006 1.993-3.04 1.595-3.275-.894-.525ZM335.55 52.295c0 .237 1.462 1.442 3.25 2.677l3.25 2.246-2.424-2.677c-2.162-2.388-4.076-3.443-4.076-2.246ZM352.681 80.04c.753 1.471 3.619 4.371 6.369 6.443 8.556 6.45 18.413 15.53 19.056 17.557.338 1.066 1.72 2.358 3.071 2.871 1.351.514 3.225 2.337 4.164 4.052.94 1.716 2.497 4.082 3.461 5.26 1.647 2.012 1.712 2.021 1.091.14-1.263-3.818-9.756-15.707-11.794-16.508-1.127-.443-3.849-2.48-6.049-4.525-2.2-2.046-6.025-5.325-8.5-7.288-2.475-1.962-6.241-5.168-8.369-7.123-3.569-3.28-3.763-3.349-2.5-.88ZM379.109 96.313c.883 1.347 3.038 3.295 4.789 4.328 3.722 2.196 9.652 3.581 9.652 2.254 0-1.565-4.312-4.032-7.048-4.032-1.484 0-3.613-1.075-4.952-2.5-3.01-3.204-4.528-3.235-2.441-.05ZM389.05 96.863c.34.55 1.068 1 1.618 1s.722-.45.382-1c-.34-.55-1.068-1-1.618-1s-.722.45-.382 1Z" fill="#FAF5E5"/></svg>