<?xml version="1.0" encoding="UTF-8"?> <svg xmlns="http://www.w3.org/2000/svg" width="149" height="590" viewBox="0 0 149 590" fill="none"> <path fill-rule="evenodd" clip-rule="evenodd" d="M137.011 0.704822C142.718 2.13904 146.356 4.1899 147.77 6.77218C148.887 8.81126 149 11.4912 149 36.0385C149 109.818 147.94 370.78 147.579 385.932C147.352 395.459 145.623 425.234 143.736 452.1C141.849 478.965 139.217 516.535 137.886 535.589C135.043 576.299 134.056 588.74 133.613 589.455C132.913 590.585 130.855 589.893 129.203 587.971C119.068 576.186 116.287 572.749 112.042 566.768C96.5895 544.991 85.4996 523.524 77.6828 500.253C70.8761 479.99 69.998 469.612 70.2412 412.26L70.4169 370.689L68.5511 367.124C67.5251 365.163 66.6832 363.293 66.6804 362.967C66.677 362.641 65.3044 359.981 63.6296 357.057C59.7507 350.284 53.8039 335.215 52.8773 329.81C52.257 326.192 51.8166 317.101 52.0284 312.3C52.0666 311.434 53.3913 309.326 54.9723 307.615C57.8217 304.532 57.8433 304.469 57.4647 300.301C57.2542 297.989 56.9166 295.932 56.7145 295.731C56.5123 295.528 52.1055 298.515 46.9215 302.368C41.7374 306.219 37.3431 309.371 37.1562 309.371C36.2303 309.371 37.1986 307.46 41.3845 301.026C43.897 297.164 45.8038 293.854 45.6204 293.672C45.4377 293.489 43.7351 294.452 41.8374 295.812C35.3786 300.441 35.3001 299.111 41.331 287.251C43.8143 282.367 45.8462 278.172 45.8462 277.927C45.8462 277.682 39.7563 281.539 32.3139 286.498C24.8709 291.456 18.4809 295.514 18.1148 295.514C16.0899 295.514 17.5792 292.814 27.1069 279.209C36.6748 265.547 38.8157 262.248 38.1058 262.261C37.7925 262.268 18.69 264.894 14.8514 265.458C10.2466 266.135 10.6203 264.677 15.7885 261.807C20.0702 259.428 30.1112 253.323 34.9271 250.17C35.9899 249.474 36.7346 248.78 36.5818 248.627C36.4289 248.475 28.9949 246.793 20.0619 244.888C11.1295 242.984 2.96055 241.241 1.91026 241.015C0.859968 240.79 -2.50339e-06 240.398 -2.50339e-06 240.146C-2.50339e-06 239.894 8.04878 237.263 17.8869 234.3C59.7473 221.695 75.4204 216.678 76.3213 215.595C76.9416 214.85 75.9115 214.372 71.0226 213.137C59.5583 210.242 47.0903 203.308 39.2026 195.44C35.1293 191.377 29.1748 183.375 29.1748 181.964C29.1748 180.247 30.9212 180.601 34.9327 183.127C43.8644 188.753 52.1806 192.171 63.9943 195.072C69.9911 196.544 87.1424 197.722 90.4656 196.89C93.5282 196.123 96.9882 185.317 96.0838 179.344C95.5927 176.101 92.1973 169.374 89.1124 165.532C87.8572 163.968 86.8298 162.182 86.8298 161.562C86.8298 160.942 88.2837 159.103 90.0606 157.476C94.7293 153.2 97.2494 147.545 97.2452 141.353C97.2397 133.788 96.2144 131.375 88.6366 121.099L86.9847 118.859L90.3065 108.627C96.5207 89.4835 98.0149 78.1781 96.627 60.8005C95.7608 49.9538 94.6918 44.0944 91.8569 34.6528C90.1085 28.8293 89.657 28.0734 85.0342 23.2206C79.5424 17.4567 78.4942 15.8479 78.4942 13.1846C78.4942 10.7617 81.206 9.6711 92.3689 7.6043C103.438 5.55413 106.088 4.95204 114.906 2.482C123.903 -0.0372271 131.594 -0.655951 137.011 0.704822ZM137.944 3.41321C142.07 4.70192 144.94 6.57056 145.928 8.61172C146.417 9.6226 146.934 14.2918 147.114 19.3275L147.434 28.2529L145.091 27.8004C143.803 27.5524 131.255 27.1574 117.208 26.9233L91.6687 26.4985L86.4707 20.9501C81.2137 15.3387 80.278 13.3571 82.4883 12.5104C83.1573 12.2548 88.9533 10.9667 95.3697 9.64823C101.785 8.33042 108.819 6.77356 110.999 6.18879C123.281 2.89633 125.65 2.43835 130.182 2.48131C132.891 2.50695 136.384 2.92613 137.944 3.41321ZM146.334 31.925C146.847 33.2581 146.279 128.362 145.755 128.885C145.548 129.091 144.908 129.08 144.333 128.861C143.427 128.514 143.322 125.565 143.542 106.499C143.874 77.8393 144.306 61.4525 144.891 55.3623C145.191 52.2361 145.054 49.1467 144.516 46.908C144.049 44.968 143.596 40.8476 143.51 37.7512C143.398 33.7507 143.064 31.9389 142.355 31.492C141.64 31.0409 142.002 30.8601 143.638 30.8525C145.072 30.8462 146.072 31.2439 146.334 31.925ZM106.974 128.629C111.368 129.335 119.918 130.117 125.974 130.368C132.031 130.62 136.563 131.058 136.046 131.343C135.53 131.628 132.69 132.264 129.736 132.756C124.919 133.559 123.091 133.49 112.023 132.086C100.474 130.621 96.5548 129.542 96.5548 127.826C96.5548 126.995 97.0264 127.032 106.974 128.629ZM145.455 131.883C145.993 132.751 144.01 133.39 130.959 136.552C121.985 138.726 120.08 138.983 117.066 138.428C112.928 137.667 112.154 137.912 129.55 134.473C136.427 133.113 142.722 131.817 143.538 131.593C144.355 131.369 145.217 131.5 145.455 131.883ZM107.322 133.153C117.228 134.431 117.925 134.773 112.879 135.877C105.719 137.444 100.814 136.948 99.1701 134.494C98.5025 133.496 98.4956 131.976 99.1597 132.083C99.4459 132.13 103.119 132.61 107.322 133.153ZM145.874 138.581C145.874 142.369 145.593 142.773 143.512 141.976C142.672 141.655 142.589 141.257 143.148 140.217C143.544 139.478 143.78 138.34 143.673 137.688C143.565 137.036 143.723 136.113 144.022 135.637C145.174 133.806 145.874 134.92 145.874 138.581ZM127.119 141.744C137.243 143.22 145.605 144.437 145.7 144.449C145.796 144.461 145.874 145.562 145.874 146.896C145.874 149.66 145.754 149.691 139.275 148.631C136.983 148.256 130.418 147.474 124.688 146.892C105.231 144.918 100.028 144.041 100.028 142.734C100.028 141.051 103.54 138.924 106.2 138.994C107.581 139.031 116.995 140.269 127.119 141.744ZM104.543 146.243C104.925 146.395 112.427 147.313 121.214 148.282C130.002 149.251 139.223 150.412 141.706 150.861L146.221 151.678L141.706 152.261C134.818 153.149 97.9441 152.152 97.9441 151.077C97.9441 150.606 98.2872 149.238 98.7068 148.038C99.3521 146.192 99.8064 145.865 101.659 145.911C102.863 145.941 104.161 146.091 104.543 146.243ZM124.861 153.997L145.874 154.191V156.606V159.021L130.071 159.015C108.633 159.008 94.5723 157.406 95.4691 155.074C95.6844 154.515 95.8601 153.927 95.8601 153.768C95.8601 153.608 97.6579 153.551 99.8543 153.641C102.051 153.73 113.305 153.891 124.861 153.997ZM102.466 162.302C107.429 164.776 111.62 166.92 111.779 167.068C112.741 167.957 110.648 167.611 104.196 165.814C100.184 164.696 95.2607 163.325 93.2552 162.767C91.2498 162.21 89.6257 161.528 89.6466 161.253C89.6681 160.978 90.5309 160.09 91.5645 159.279L93.4428 157.805L102.466 162.302ZM145.874 171.146C145.874 176.671 145.6 181.192 145.264 181.192C144.173 181.192 142.962 179.197 143.513 178.307C143.809 177.83 144.008 173.763 143.954 169.27C143.875 162.546 144.036 161.099 144.866 161.099C145.7 161.099 145.874 162.827 145.874 171.146ZM98.2914 165.989C100.966 166.727 106.851 168.278 111.371 169.436C125.358 173.019 144.524 181.424 145.062 184.212C145.262 185.248 144.697 185.127 141.244 183.395C137.114 181.322 126.355 177.683 116.352 174.975C98.713 170.198 91.6923 167.397 91.6923 165.136C91.6923 164.326 92.7704 164.465 98.2914 165.989ZM103.154 172.951C106.592 173.979 115.225 176.551 122.338 178.667C134.158 182.184 143.728 185.711 143.029 186.294C142.875 186.423 139.803 186.24 136.203 185.89C129.033 185.191 118.321 182.198 105.7 177.365C97.1841 174.104 96.2887 173.578 96.6631 172.053C96.8569 171.267 98.0913 171.437 103.154 172.951ZM106.627 179.531C110.83 181.155 116.221 183.046 118.61 183.734C120.997 184.422 122.951 185.223 122.951 185.514C122.951 186.136 103.935 186.233 100.889 185.625C98.9166 185.232 98.7797 184.988 98.4511 181.295C98.2594 179.143 98.3018 177.201 98.5449 176.981C98.7873 176.761 102.424 177.909 106.627 179.531ZM42.1493 189.843C48.3545 192.99 58.3399 196.365 67.0326 198.254C71.9798 199.329 76.4519 199.441 107.772 199.272C133.209 199.135 143.366 199.303 144.442 199.877C145.804 200.603 145.912 201.148 145.728 206.347L145.527 212.024H110.1L74.6737 212.024L68.7692 210.047C56.5651 205.96 44.0755 198.109 38.0315 190.724C34.0116 185.812 34.1457 185.783 42.1493 189.843ZM139.078 188.376C144.244 189.244 146.303 190.484 144.08 191.389C140.787 192.73 99.996 191.052 98.3865 189.509C98.0573 189.193 97.9975 188.595 98.2539 188.181C98.8846 187.164 132.829 187.326 139.078 188.376ZM109.753 192.689C115.293 193.184 125.608 193.565 132.676 193.539C146.155 193.488 145.743 193.398 145.267 196.262C145.178 196.796 95.8157 196.621 95.278 196.085C95.1134 195.921 95.3711 194.842 95.8511 193.686C96.4652 192.207 97.1605 191.616 98.2018 191.688C99.0152 191.745 104.213 192.195 109.753 192.689ZM145.006 214.959C145.648 215.18 145.874 217.922 145.874 225.473V235.688L131.126 245.335C123.016 250.64 114.888 255.974 113.066 257.186C111.244 258.399 109.753 259.094 109.753 258.73C109.753 258.366 111.003 255.589 112.531 252.557C114.06 249.525 115.31 246.57 115.31 245.99C115.31 244.016 114.271 244.933 112.991 248.038C112.289 249.741 110.7 252 109.461 253.058C107.647 254.607 56.2671 293.484 45.6287 301.358C43.2982 303.083 42.9995 303.171 43.6643 301.932C44.095 301.129 45.4995 299.591 46.7853 298.512C55.5871 291.134 103.234 247.415 97.5967 251.89C96.4506 252.8 95.037 254.023 94.4549 254.61C92.8906 256.184 82.43 265.471 76.0629 270.937C73.0065 273.562 67.0674 278.896 62.8648 282.79C58.6622 286.685 54.286 290.587 53.1399 291.461C50.5593 293.431 50.4669 293.554 61.504 280.282C75.2016 263.811 82.0667 255.328 81.6999 255.328C81.5103 255.328 75.9455 261.797 69.334 269.705C62.7224 277.612 57.15 284.237 56.9499 284.428C56.7506 284.619 54.4562 287.346 51.8513 290.491C49.2464 293.635 46.968 296.207 46.7874 296.207C46.3699 296.207 46.2747 296.36 54.0679 284.428C61.9708 272.327 68.0746 262.543 68.0746 261.978C68.0746 260.8 64.898 262.744 44.618 276.326C20.1417 292.719 20.8392 292.266 20.8392 291.787C20.8392 291.598 22.2694 290.418 24.0185 289.166C25.7669 287.913 26.8589 286.776 26.4456 286.638C25.6322 286.368 26.9819 284.442 31.1518 279.924C34.8021 275.97 45.5322 263.485 50.3599 257.575C54.2617 252.798 54.5812 252.568 56.7555 252.975C59.3534 253.461 60.0453 252.106 57.4814 251.553C56.6214 251.367 53.8866 250.752 51.4033 250.186C48.9199 249.619 42.8245 248.347 37.8578 247.358C18.3343 243.473 17.7994 242.99 32.648 242.669C40.123 242.507 39.0665 242.426 27.4382 242.266C19.4151 242.156 12.2256 241.823 11.4615 241.525L10.0723 240.983L11.4615 240.586C12.2256 240.367 19.1727 238.702 26.8992 236.886C34.6257 235.069 40.8295 233.464 40.685 233.32C40.5405 233.176 32.8731 234.795 23.6462 236.918C5.6474 241.059 5.55711 241.076 5.55711 240.192C5.55711 239.87 7.98001 238.884 10.9406 238.002C23.2079 234.349 27.4382 233.065 41.6783 228.677C49.8924 226.145 59.5826 223.175 63.2121 222.077C66.8416 220.98 72.9371 219.101 76.7576 217.902C83.406 215.816 84.3152 215.71 97.9441 215.437C127.825 214.837 144.169 214.671 145.006 214.959ZM84.3 223.392C82.2758 224.287 63.1906 228.516 62.8245 228.151C62.5557 227.883 80.0703 223.64 84.0513 223.009C85.6746 222.752 85.6913 222.777 84.3 223.392ZM96.9021 230.84C93.7102 233.748 77.8079 247.441 72.1931 252.115C70.883 253.205 66.0601 257.082 61.4755 260.73C56.8909 264.377 51.7332 268.491 50.014 269.872C43.1787 275.361 27.6688 286.622 27.3632 286.316C27.1847 286.138 29.8681 283.89 33.3274 281.322C36.786 278.753 40.2397 275.861 41.001 274.895C41.7624 273.929 46.0559 269.22 50.5412 264.429C55.0272 259.638 62.9169 251.193 68.0746 245.661C83.4136 229.208 84.6313 227.961 85.0029 228.332C85.1981 228.527 83.2518 230.862 80.6774 233.52C70.0092 244.535 45.1515 271.512 45.1515 272.075C45.1515 272.942 75.4857 249.008 81.3068 243.549C81.916 242.978 83.4865 241.571 84.7959 240.422C86.1053 239.273 89.9064 235.922 93.242 232.974C96.5777 230.026 99.5473 227.628 99.8411 227.645C100.135 227.662 98.8123 229.1 96.9021 230.84ZM61.2581 228.78C60.7573 228.98 60.1578 228.955 59.9272 228.725C59.6966 228.495 60.1064 228.331 60.8385 228.361C61.6478 228.395 61.8124 228.559 61.2581 228.78ZM58.4796 229.473C57.9787 229.673 57.3792 229.648 57.1486 229.418C56.918 229.188 57.3278 229.024 58.06 229.054C58.8693 229.087 59.0339 229.252 58.4796 229.473ZM55.0064 230.165C54.5055 230.366 53.906 230.341 53.6754 230.111C53.4448 229.881 53.8546 229.717 54.5868 229.747C55.3961 229.78 55.5607 229.944 55.0064 230.165ZM52.2278 230.858C51.727 231.059 51.1275 231.034 50.8969 230.804C50.6662 230.574 51.0761 230.41 51.8082 230.44C52.6175 230.473 52.7821 230.637 52.2278 230.858ZM48.6247 231.771C46.2497 232.53 44.4235 232.53 46.1935 231.771C46.9576 231.443 48.2079 231.185 48.972 231.196C50.089 231.212 50.0209 231.325 48.6247 231.771ZM43.9359 232.922C43.458 233.115 42.6765 233.115 42.1993 232.922C41.7214 232.73 42.1125 232.573 43.0676 232.573C44.0227 232.573 44.4131 232.73 43.9359 232.922ZM117.468 234.784C115.94 236.645 100.701 249.999 100.441 249.703C100.163 249.39 115.671 235.178 117.307 234.246C118.298 233.682 118.318 233.748 117.468 234.784ZM97.9441 236.19C97.9441 236.333 97.3974 236.879 96.7284 237.402C95.6267 238.264 95.6024 238.239 96.4659 237.14C97.3738 235.986 97.9441 235.62 97.9441 236.19ZM145.471 237.835C145.693 238.056 145.874 238.631 145.874 239.112C145.874 240.486 126.138 262.211 125.491 261.548C125.314 261.366 127.02 258.411 129.283 254.982C131.546 251.552 134.033 247.446 134.809 245.857C135.845 243.734 137.393 242.234 140.643 240.201C143.077 238.679 145.25 237.614 145.471 237.835ZM64.6014 242.164C64.6014 242.545 63.1169 242.852 61.3019 242.846C58.9158 242.839 58.2906 242.649 59.0443 242.164C60.4176 241.278 64.6014 241.278 64.6014 242.164ZM145.864 245.76C145.857 247.783 145.623 249.792 145.343 250.224C144.671 251.256 127.033 262.949 126.147 262.949C125.771 262.949 128.737 259.598 132.739 255.501C136.741 251.404 140.964 246.937 142.125 245.573C145.503 241.601 145.876 241.62 145.864 245.76ZM46.3539 242.644C45.678 242.82 44.7403 242.808 44.27 242.618C43.7997 242.428 44.3527 242.285 45.4988 242.299C46.645 242.313 47.0298 242.468 46.3539 242.644ZM87.8718 248.399C87.1806 249.162 86.4582 249.785 86.2672 249.785C86.0761 249.785 86.486 249.162 87.1772 248.399C87.8683 247.637 88.5907 247.014 88.7818 247.014C88.9728 247.014 88.563 247.637 87.8718 248.399ZM128.508 248.762C128.508 249.31 115.194 263.712 106.745 272.302C102.393 276.728 100.757 278.036 101.11 276.807C101.75 274.583 102.708 273.385 110.994 264.453C114.766 260.387 118.968 255.81 120.332 254.282C122.63 251.706 128.508 247.738 128.508 248.762ZM40.983 249.612C40.983 249.898 38.2475 251.736 34.9049 253.697C28.3697 257.531 21.5338 261.068 21.5338 260.616C21.5338 260.462 23.7997 258.991 26.5699 257.346C29.3401 255.701 33.3864 253.172 35.562 251.724C39.4124 249.163 40.9844 248.55 40.983 249.612ZM129.558 251.517C124.963 258.924 123.942 260.154 122.372 260.166C120.756 260.178 120.758 260.168 122.834 257.58C123.98 256.151 126.251 253.734 127.882 252.21C130.582 249.687 130.732 249.624 129.558 251.517ZM45.3252 250.263C45.9934 250.437 46.5408 250.829 46.5408 251.134C46.5408 252.092 24.5207 262.002 23.8587 261.342C23.6865 261.17 25.6718 259.852 28.2704 258.411C30.8691 256.97 35.2397 254.44 37.9828 252.788C40.726 251.136 43.2267 249.821 43.54 249.866C43.8532 249.91 44.6569 250.089 45.3252 250.263ZM86.1352 250.716C86.1352 250.824 85.1467 251.828 83.9381 252.947C81.7451 254.978 81.7437 254.979 83.0698 253.105C84.177 251.543 86.1352 250.017 86.1352 250.716ZM51.5769 251.648C53.9818 252.275 54.4222 251.665 36.5456 272.482C31.2254 278.679 26.7464 283.622 26.5922 283.468C26.4373 283.315 29.0838 279.18 32.4716 274.282C35.86 269.383 40.4606 262.724 42.6946 259.485C48.7824 250.66 48.5546 250.86 51.5769 251.648ZM145.505 253.213C145.844 253.761 145.448 259.461 145.045 259.835C144.607 260.241 134.76 260.548 134.76 260.156C134.76 259.385 145.164 252.663 145.505 253.213ZM43.3489 255.952C41.183 259.62 40.0508 260.212 33.2718 261.228C26.7116 262.211 24.8493 262.121 27.8626 260.966C28.7754 260.617 32.4917 259.03 36.1212 257.44C39.7507 255.85 43.1593 254.361 43.6962 254.13C44.3971 253.829 44.2992 254.343 43.3489 255.952ZM115.541 258.273C114.442 259.511 112.769 261.312 111.822 262.273C110.875 263.236 108.904 265.368 107.441 267.012C105.979 268.656 104.63 269.849 104.444 269.663C104.258 269.478 105.04 267.501 106.185 265.271C107.857 262.011 109.068 260.708 112.364 258.619C117.393 255.431 118.132 255.351 115.541 258.273ZM108.621 257.044C108.398 257.625 107.779 258.099 107.247 258.099C105.891 258.099 106.043 257.582 107.653 256.722C108.774 256.124 108.952 256.183 108.621 257.044ZM63.5407 266.484C60.462 271.664 57.4279 276.114 56.9743 276.114C56.6679 276.114 56.2852 274.981 56.1233 273.596C55.7892 270.744 56.5839 269.737 61.2171 267.14C62.9523 266.167 63.8852 265.904 63.5407 266.484ZM97.7225 268.05C99.7015 268.484 101.54 269.061 101.808 269.333C102.075 269.606 101.271 272.15 100.021 274.988C98.6713 278.05 97.9357 280.635 98.2094 281.348C98.4636 282.008 98.8061 282.425 98.9707 282.275C99.1354 282.126 101.776 279.54 104.838 276.529L110.404 271.056L127.816 270.987L145.228 270.917L145.03 276.758L144.832 282.6L136.497 282.313C124.622 281.905 120.921 282.019 120.121 282.816C119.389 283.547 127.725 296.848 130.313 299.076C131.801 300.358 138.928 301.564 138.928 300.534C138.928 300.175 137.686 299.323 136.17 298.641C134.653 297.959 132.974 296.898 132.439 296.284C130.987 294.618 128.454 287.314 129.174 286.871C129.517 286.659 131.462 287.036 133.495 287.709C137.501 289.034 138.586 290.906 136.533 292.953C134.997 294.486 135.111 294.612 138.476 295.115C142.803 295.762 145.273 298.525 145.725 303.222C146.069 306.786 146.03 306.877 143.022 309.512C141.343 310.983 138.614 312.841 136.958 313.64C134.21 314.968 133.237 315.052 125.844 314.605C116.198 314.021 113.955 313.179 107.495 307.71C104.916 305.527 102.807 304.159 102.807 304.668C102.807 305.918 112.352 315.203 114.963 316.491C118.742 318.357 134.458 319.783 138.708 318.646C139.549 318.421 141.253 316.578 142.529 314.513C143.796 312.462 145.063 310.779 145.346 310.771C145.855 310.757 145.344 322.685 144.756 324.543C144.503 325.343 142.541 325.439 133.526 325.094C118.211 324.507 101.299 320.8 90.103 315.574C86.2234 313.763 85.401 313.053 84.459 310.705C81.9833 304.534 80.2106 289.913 80.9365 281.657L81.3936 276.46L87.5384 271.783C90.9171 269.211 93.7818 267.141 93.9026 267.184C94.0242 267.227 95.7427 267.617 97.7225 268.05ZM54.8278 275.496C55.5683 278.942 55.544 279.031 52.573 283.61C50.419 286.929 48.1572 289.266 44.5812 291.865C41.8388 293.86 39.5944 295.155 39.5944 294.742C39.5944 294.33 41.8541 289.699 44.616 284.454C48.2621 277.528 50.246 274.517 51.8583 273.464L54.0783 272.011L54.8278 275.496ZM145.179 287.546C145.179 288.234 144.49 288.585 143.137 288.585C140.825 288.585 139.764 287.559 141.42 286.926C143.366 286.181 145.179 286.48 145.179 287.546ZM145.179 293.782C145.179 295.276 144.899 296.116 144.485 295.86C144.103 295.625 143.79 294.689 143.79 293.782C143.79 292.874 144.103 291.939 144.485 291.703C144.899 291.447 145.179 292.287 145.179 293.782ZM127.331 300.806C127.596 301.071 127.814 303.526 127.814 306.261C127.814 310.36 127.568 311.456 126.42 312.493C125.653 313.184 124.813 313.537 124.551 313.276C124.037 312.765 125.55 302.671 126.358 301.21C126.628 300.723 127.065 300.542 127.331 300.806ZM124.322 301.23C124.166 302.663 120.177 312.489 119.751 312.489C119.428 312.489 118.867 311.647 118.505 310.619C117.943 309.025 118.224 308.179 120.405 304.903C121.813 302.787 123.275 301.057 123.653 301.057C124.031 301.057 124.332 301.134 124.322 301.23ZM58.1413 308.855C58.4469 309.334 59.8466 310.58 61.2518 311.624C63.4101 313.228 63.9269 314.143 64.5792 317.509C65.0036 319.702 65.5072 322.223 65.6982 323.113C66.247 325.662 64.791 324.249 62.7689 320.268C60.0466 314.909 58.2927 312.835 56.4825 312.835C55.5989 312.835 54.8765 313.147 54.8765 313.528C54.8765 313.909 55.1592 314.221 55.5051 314.221C55.851 314.221 55.9837 316.013 55.8003 318.205C55.4579 322.299 57.5612 332.212 60.0126 338.058C61.7812 342.275 62.1896 340.389 60.5579 335.543C57.3973 326.159 56.1595 317.94 57.5717 315.717C57.9996 315.043 58.6623 315.684 59.9918 318.057C62.0854 321.792 62.2389 323.108 60.8031 325.001C59.0033 327.375 59.6264 328.602 61.5332 326.439C62.4959 325.348 63.349 324.568 63.4288 324.707C63.5087 324.847 64.1068 325.596 64.7584 326.374C65.8372 327.662 65.8517 328.087 64.9244 331.161C63.7588 335.025 63.5178 344.335 64.6014 343.667C64.9834 343.432 65.3183 341.153 65.3447 338.603C65.3717 336.054 65.651 333.344 65.965 332.582C66.4971 331.292 66.5707 331.281 67.0424 332.433C67.5175 333.597 67.3813 335.742 66.2727 344.533C65.9566 347.041 66.0574 348.171 66.5971 348.171C67.0347 348.171 67.389 347.026 67.4008 345.573C67.4327 341.704 68.4955 344.175 69.0693 349.45C69.6104 354.419 68.9269 354.633 66.661 350.202C65.4808 347.895 63.9068 346.555 63.9068 347.859C63.9068 348.841 66.3359 352.873 67.9801 354.62C69.2068 355.923 70.0404 357.867 70.5058 360.509C71.2546 364.76 72.8481 365.871 73.6782 362.721C74.0318 361.38 74.2402 361.233 74.6021 362.07C75.7628 364.759 77.7071 372.009 77.4008 372.504C76.9361 373.254 74.9883 372.497 73.1573 370.855C71.2018 369.101 60.6406 347.775 57.3417 338.918C53.3865 328.297 52.1778 313.844 54.9237 309.997C56.4915 307.802 57.2883 307.519 58.1413 308.855ZM70.8531 317.716C72.5724 318.827 74.2249 319.824 74.525 319.931C75.1898 320.169 75.5287 324.562 76.4186 344.488C77.2751 363.673 77.273 363.776 76.0629 360.642C75.5482 359.309 75.1029 357.204 75.0738 355.966C75.0029 352.952 73.8109 353.096 73.2288 356.191C72.9725 357.553 72.523 358.41 72.2299 358.096C71.9361 357.782 71.0185 351.756 70.1905 344.707C68.7046 332.06 67.0069 320.245 66.2359 317.179C65.7017 315.056 66.9646 315.203 70.8531 317.716ZM82.082 323.307C84.6278 324.393 89.3166 326.039 92.5016 326.963L98.2914 328.643L94.9508 330.086C90.5177 332 81.9674 337.551 81.9674 338.515C81.9674 339.478 82.1764 339.38 86.9146 336.18C91.1824 333.298 96.5867 331.563 101.34 331.551L104.39 331.542L103.951 335.18C103.71 337.181 103.511 339.285 103.508 339.857C103.504 340.737 102.176 340.861 94.8196 340.665C84.5042 340.389 84.1319 340.681 87.7322 346.214C91.9917 352.761 94.7237 354.781 100.363 355.552C102.089 355.788 103.501 356.198 103.501 356.464C103.501 356.929 98.8242 356.419 93.7762 355.405C92.0903 355.066 91.5582 355.139 92.0396 355.642C92.4217 356.041 95.3913 356.803 98.6387 357.333L104.543 358.299L105.35 365.88C105.793 370.049 106.669 376.381 107.295 379.95C107.922 383.519 108.293 386.58 108.12 386.752C107.466 387.405 89.8341 387.761 87.1772 387.175C84.5493 386.596 84.2902 386.301 82.4071 381.743C80.824 377.913 80.2294 374.934 79.5118 367.225C78.5692 357.096 76.7979 321.894 77.2133 321.537C77.3445 321.424 79.5354 322.221 82.082 323.307ZM117.431 333.706C120.658 335.278 126.835 338.035 131.158 339.835C135.48 341.635 139.009 343.39 138.999 343.734C138.941 345.925 132.845 343.559 116.699 335.078C107.741 330.373 108.327 329.274 117.431 333.706ZM130.592 333.062C134.604 333.397 139.567 333.844 141.624 334.054L145.361 334.436L144.982 338.108C144.578 342.005 143.125 345.471 140.856 347.949C140.095 348.779 139.611 349.869 139.779 350.372C139.963 350.923 140.889 350.128 142.111 348.369C145.346 343.712 146.302 344.727 143.711 350.067C142.157 353.268 142.416 354.874 144.123 352.624C145.027 351.432 145.138 352.228 145.157 360.083C145.178 368.399 145.095 368.937 143.635 369.956C141.098 371.729 140.104 371.384 141.246 369.13C142.57 366.517 143.185 360.821 142.474 357.768C142.149 356.377 140.926 354.039 139.755 352.571C138.584 351.104 137.43 349.101 137.19 348.12C136.8 346.523 137.063 346.217 139.718 345.176C141.591 344.443 142.438 343.773 142.02 343.357C141.656 342.995 137.295 341.016 132.329 338.96C122.867 335.043 118.783 333.115 118.783 332.564C118.783 332.167 121.029 332.262 130.592 333.062ZM110.795 333.465C115.336 335.233 120.129 339.173 123.546 343.945C124.747 345.621 125.73 346.521 125.73 345.946C125.73 345.369 124.788 343.715 123.637 342.271C122.486 340.826 121.626 339.568 121.726 339.477C121.827 339.385 124.948 340.753 128.662 342.515C134.38 345.229 135.48 346.018 135.841 347.657C136.076 348.722 137.386 351.222 138.752 353.212C142.381 358.499 142.664 363.246 139.706 369.237C137.776 373.15 136.934 374.028 132.049 377.227C125.766 381.341 116.534 385.564 113.796 385.577C112.097 385.585 111.866 385.253 111.137 381.752C110.259 377.532 108.389 359.156 108.771 358.495C108.903 358.267 111.534 357.886 114.618 357.649C117.702 357.412 120.761 356.884 121.415 356.476C122.336 355.901 121.979 355.816 119.825 356.098C113.534 356.922 108.748 357.164 110.1 356.588C110.864 356.262 113.827 355.785 116.684 355.528C119.541 355.271 122.198 354.718 122.588 354.299C123.101 353.748 122.475 353.66 120.338 353.981C118.709 354.226 114.958 354.587 112.002 354.784C107.079 355.113 106.825 355.068 108.985 354.255C111.949 353.139 114.024 349.551 113.427 346.574C113.067 344.779 113.182 344.541 114.215 344.937C114.879 345.191 115.694 345.4 116.025 345.4C116.356 345.4 118.519 346.97 120.831 348.889C125.088 352.423 126.329 352.791 123.472 349.672L121.909 347.966L123.473 348.35C126.237 349.029 124.357 347.427 119.954 345.35C117.634 344.256 114.045 342.983 111.979 342.522C109.913 342.061 108.082 341.315 107.909 340.865C107.736 340.416 107.689 338.323 107.805 336.215L108.016 332.383L110.795 333.465ZM106.28 336.739C106.28 339.28 105.977 341.242 105.585 341.242C105.193 341.242 104.89 339.28 104.89 336.739C104.89 334.198 105.193 332.235 105.585 332.235C105.977 332.235 106.28 334.198 106.28 336.739ZM97.9441 345.876C97.9441 349.146 100.338 352.679 103.501 354.078L105.932 355.153L102.705 354.803C97.3244 354.22 93.9013 352.445 90.9338 348.701C87.0535 343.804 87.2466 343.321 93.0816 343.321H97.9441V345.876ZM111.44 345.102C112.58 346.239 112.826 347.985 112.11 349.846C111.428 351.619 110.623 351.11 110.282 348.691C110.107 347.452 109.727 345.893 109.437 345.226C108.775 343.704 109.964 343.631 111.44 345.102ZM107.967 345.102C109.235 346.368 109.348 347.723 108.339 349.602C107.567 351.041 104.196 351.49 104.196 350.153C104.196 349.718 103.649 348.964 102.98 348.476C101.842 347.646 101.872 347.476 103.448 345.802C105.391 343.739 106.437 343.577 107.967 345.102ZM100.915 344.437C101.642 345.162 101.533 350.25 100.791 350.25C99.6029 350.25 98.6804 346.3 99.582 345.07C100.039 344.447 100.639 344.161 100.915 344.437ZM106.974 347.132C106.974 347.845 106.519 348.185 105.759 348.039C104.294 347.758 104.387 346.528 105.896 346.215C106.525 346.084 106.974 346.466 106.974 347.132ZM109.397 351.621C110.166 352.862 109.217 353.348 106.184 353.269C103.418 353.196 101.412 352.102 102.343 351.173C102.611 350.906 103.2 351.057 103.652 351.508C104.681 352.535 107.147 352.571 108.146 351.575C108.69 351.032 109.04 351.046 109.397 351.621ZM107.206 358.38C107.387 358.671 107.754 362.184 108.023 366.185C108.291 370.187 108.947 375.799 109.479 378.657C110.012 381.515 110.438 384.477 110.426 385.239C110.381 388.253 109.194 384.416 108.07 377.617C106.007 365.136 105.586 355.756 107.206 358.38ZM75.89 374.664C76.7555 375.316 77.2397 377.477 77.794 383.16C79.1575 397.15 81.3943 406.081 87.1619 420.575C93.4345 436.337 93.8714 438.544 93.8179 454.178C93.7644 469.921 92.3112 475.432 87.2056 479.251L85.6434 480.419L85.6219 465.047C85.5927 444.498 84.2999 434.899 80.4607 426.727C74.1916 413.383 72.7738 405.813 73.0739 387.277C73.2066 379.066 73.5511 374.179 74.0068 374.028C74.4048 373.896 75.2523 374.182 75.89 374.664ZM81.4512 384.797C82.7558 388.459 83.0051 392.286 82.0396 393.806C81.6485 394.422 81.1442 392.679 80.5934 388.812C79.5646 381.582 79.8432 380.279 81.4512 384.797ZM90.8664 405.678C94.3153 412.728 98.6158 420.786 100.424 423.584L103.712 428.672L103.281 438.827L102.85 448.982L100.077 451.58C98.5512 453.009 97.0264 454.178 96.6881 454.178C96.3492 454.178 95.8768 450.827 95.6385 446.73C95.1238 437.897 93.7741 432.563 89.1076 420.921C84.0006 408.18 82.4494 402.576 83.0065 398.875C84.0582 391.876 84.1555 391.96 90.8664 405.678ZM74.8897 417.803C75.7733 420.09 77.6919 424.61 79.1534 427.85C82.8322 436 84.3013 448.263 83.9519 467.884C83.7095 481.471 83.6664 481.821 82.0222 483.566C81.0977 484.548 80.2579 485.268 80.1564 485.167C80.0543 485.066 79.8286 475.168 79.6542 463.171C79.4799 451.175 78.9915 439.456 78.5692 437.13C78.1468 434.802 76.6923 430.505 75.337 427.578C73.2087 422.984 72.9002 421.669 73.0781 417.951L73.2844 413.646L74.8897 417.803ZM75.2745 431.513C75.9004 433.147 76.768 437.121 77.2035 440.347C78.2524 448.12 78.4115 485.714 77.4001 486.724C76.4151 487.708 74.4868 477.785 73.6109 467.223C72.7898 457.329 72.7356 428.542 73.5372 428.542C73.8672 428.542 74.6493 429.879 75.2745 431.513ZM109.406 434.175C110.934 436.187 116.774 442.445 122.383 448.083C132.552 458.304 133.446 459.738 125.895 453.711C116.698 446.372 106.019 434.459 106.403 431.967C106.59 430.755 107.082 431.116 109.406 434.175ZM96.2075 478.208C96.9716 478.379 99.9411 479.257 102.807 480.158C113.13 483.405 119.166 484.751 126.154 485.364C130.065 485.706 134.382 486.453 135.748 487.022C137.857 487.901 138.233 488.39 138.233 490.253C138.233 492.659 138.432 492.647 132.773 490.576C131.107 489.967 126.106 489.186 121.659 488.841C115.83 488.388 111.344 487.543 105.585 485.811C96.2686 483.009 94.4591 482.608 90.4767 482.464C88.8526 482.406 87.5245 482.156 87.5245 481.908C87.5245 481.661 88.4011 480.621 89.4729 479.597C91.3332 477.819 92.969 477.482 96.2075 478.208ZM93.1281 484.015C95.2551 484.327 100.687 485.698 105.199 487.063C111.036 488.827 115.671 489.727 121.264 490.182C125.589 490.534 130.394 491.2 131.943 491.663C134.59 492.454 134.76 492.662 134.76 495.125C134.76 496.567 134.452 497.936 134.077 498.168C133.701 498.399 130.879 497.796 127.805 496.828C123.792 495.563 119.431 494.868 112.338 494.363C95.9942 493.2 88.0934 491.547 84.9196 488.631C82.9503 486.82 82.9454 485.723 84.9008 484.357C86.5735 483.188 87.2911 483.158 93.1281 484.015ZM82.9899 491.787C84.0457 494.538 88.176 503.292 92.1681 511.241C96.1602 519.189 100.687 528.543 102.227 532.026C105.252 538.865 113.418 562.304 112.942 562.779C112.653 563.067 108.731 557.196 101.213 545.218C93.4949 532.921 83.0968 509.427 78.499 493.894C77.3202 489.913 77.3119 489.546 78.3837 488.63C80.783 486.581 81.0657 486.775 82.9899 491.787ZM87.6266 492.301C89.4674 493.373 98.0621 494.982 104.317 495.426C112.25 495.989 113.015 496.204 113.47 497.995C113.688 498.856 116.085 503.405 118.796 508.104C121.506 512.803 124.701 519.135 125.894 522.176L128.064 527.704L126.888 535.111C126.241 539.184 125.4 547.974 125.02 554.643C124.081 571.118 123.589 575.525 122.723 575.237C120.796 574.596 115.116 562.726 111.567 551.927C106.777 537.347 103.246 529.133 93.8936 510.806C84.1596 491.735 83.547 489.926 87.6266 492.301ZM137.7 494.063C137.916 494.279 137.948 496.384 137.771 498.74C136.717 512.784 135.951 518.484 134.073 526.235C132.809 531.45 131.701 538.48 131.287 543.903C129.653 565.344 128.172 577.886 127.064 579.673C126.591 580.438 126.303 580.377 125.555 579.357C124.793 578.318 124.777 576.24 125.466 567.582C125.926 561.799 126.617 552.547 127.001 547.021C127.531 539.416 128.461 533.692 130.83 523.464C132.552 516.033 134.515 506.289 135.193 501.812C136.348 494.194 136.71 493.075 137.7 494.063ZM135.468 529.757C135.493 532.757 131.766 584.773 131.503 585.089C131.363 585.259 130.589 584.74 129.783 583.937C128.332 582.489 128.328 582.409 129.435 575.314C130.66 567.458 131.659 557.548 132.356 546.328C132.956 536.688 135.417 523.584 135.468 529.757Z" fill="#201B19"></path> </svg> 