<svg xmlns="http://www.w3.org/2000/svg" width="1660" height="52" fill="none"><path d="M6.815 50.762c-2.065 0-3.717-.62-4.956-1.857C.619 47.667 0 46.015 0 43.952V7.676c0-1.898.62-3.425 1.859-4.58 1.321-1.239 2.85-1.858 4.584-1.858h18.71c1.405 0 2.396.372 2.974 1.114.66.66.991 1.527.991 2.6 0 .99-.371 1.858-1.115 2.6-.66.743-1.61 1.115-2.85 1.115H11.895c-2.148 0-3.221 1.073-3.221 3.219v6.81c0 2.145.99 3.218 2.973 3.218h12.267c1.404 0 2.396.372 2.974 1.115.66.742.991 1.61.991 2.6 0 .907-.372 1.774-1.115 2.6-.66.742-1.61 1.114-2.85 1.114H11.647c-1.982 0-2.973 1.032-2.973 3.095v7.552c0 2.146 1.032 3.22 3.097 3.22h14.621c1.405 0 2.396.412 2.974 1.238.661.742.991 1.61.991 2.6s-.371 1.857-1.115 2.6c-.66.742-1.61 1.114-2.85 1.114H6.815ZM61.6 52c-1.404 0-2.767-.371-4.089-1.114-1.239-.66-2.106-1.692-2.602-3.096L40.04 6.315c-.165-.66-.248-1.197-.248-1.61 0-1.237.413-2.228 1.24-2.97.826-.744 1.776-1.115 2.85-1.115.743 0 1.486.165 2.23.495.826.33 1.445.95 1.858 1.857l12.515 36.524c.248.66.66.99 1.24.99.577 0 .99-.33 1.238-.99L76.221 2.971c.413-.908.992-1.527 1.735-1.857.826-.33 1.61-.495 2.354-.495 1.074 0 2.024.371 2.85 1.114.826.743 1.24 1.734 1.24 2.972 0 .412-.083.949-.249 1.61L68.291 47.79c-.578 1.404-1.487 2.435-2.726 3.096C64.326 51.629 63.005 52 61.6 52ZM117.277 52c-4.791 0-9.169-1.114-13.134-3.343-3.883-2.311-6.98-5.406-9.293-9.286-2.313-3.962-3.47-8.419-3.47-13.371 0-5.2 1.157-9.74 3.47-13.619 2.313-3.88 5.41-6.892 9.293-9.038C108.108 1.114 112.486 0 117.277 0s9.087 1.114 12.886 3.343c3.883 2.146 6.939 5.159 9.17 9.038 2.313 3.88 3.469 8.419 3.469 13.619 0 4.952-1.156 9.41-3.469 13.371-2.231 3.88-5.287 6.975-9.17 9.286-3.799 2.229-8.095 3.343-12.886 3.343Zm0-7.552c3.304 0 6.195-.826 8.674-2.477 2.56-1.733 4.543-4.003 5.947-6.81 1.404-2.805 2.107-5.86 2.107-9.161 0-5.282-1.57-9.657-4.709-13.124-3.139-3.466-7.145-5.2-12.019-5.2-4.956 0-9.004 1.734-12.143 5.2-3.139 3.467-4.708 7.842-4.708 13.124 0 3.302.702 6.356 2.106 9.162 1.404 2.806 3.387 5.076 5.948 6.81 2.56 1.65 5.493 2.476 8.797 2.476ZM160.853 50.762c-2.066 0-3.718-.62-4.957-1.857-1.239-1.238-1.858-2.89-1.858-4.953V4.705c0-1.403.454-2.435 1.363-3.095.991-.66 2.023-.991 3.097-.991 1.074 0 2.024.33 2.85.99.909.66 1.363 1.693 1.363 3.096v35.162c0 1.238.248 2.104.744 2.6.495.412 1.321.619 2.478.619h12.762c1.322 0 2.272.412 2.85 1.238.661.825.991 1.692.991 2.6 0 .99-.33 1.898-.991 2.724-.578.742-1.528 1.114-2.85 1.114h-17.842ZM227.951 4.705c0-1.32.454-2.311 1.363-2.972.909-.743 1.9-1.114 2.974-1.114 1.074 0 2.024.33 2.85.99.908.66 1.363 1.693 1.363 3.096v27.114c0 4.87-1.033 8.79-3.098 11.762-2.065 2.971-4.708 5.117-7.93 6.438-3.222 1.32-6.608 1.981-10.16 1.981-3.966 0-7.559-.66-10.78-1.981-3.139-1.32-5.618-3.467-7.435-6.438-1.817-3.054-2.726-7.016-2.726-11.886V4.705c0-1.403.454-2.394 1.363-2.972.909-.66 1.9-.99 2.974-.99 1.074 0 2.024.33 2.85.99.908.578 1.363 1.569 1.363 2.972v26.99c0 4.375 1.074 7.594 3.221 9.657 2.231 1.981 5.287 2.972 9.17 2.972 3.469 0 6.443-.99 8.921-2.972 2.478-2.063 3.717-5.24 3.717-9.533V4.705ZM265.064 52c-1.322 0-2.396-.371-3.222-1.114-.743-.743-1.115-1.692-1.115-2.848V12.01c0-2.064-1.074-3.096-3.221-3.096h-7.807c-2.56 0-3.841-1.28-3.841-3.838 0-2.559 1.281-3.838 3.841-3.838h30.606c1.156 0 2.106.372 2.85 1.114.743.66 1.115 1.569 1.115 2.724 0 1.156-.372 2.105-1.115 2.848-.744.66-1.694.99-2.85.99h-7.683c-2.147 0-3.221 1.032-3.221 3.095v36.03c0 1.155-.413 2.104-1.239 2.847-.744.743-1.776 1.114-3.098 1.114ZM298.632 52c-1.074 0-2.065-.371-2.974-1.114-.908-.66-1.363-1.651-1.363-2.972V4.704c0-1.402.455-2.434 1.363-3.094.909-.66 1.9-.991 2.974-.991 1.157 0 2.148.33 2.974.99.908.66 1.363 1.693 1.363 3.096v43.21c0 1.32-.455 2.31-1.363 2.97-.826.744-1.817 1.115-2.974 1.115ZM340.73 52c-4.791 0-9.169-1.114-13.134-3.343-3.882-2.311-6.98-5.406-9.293-9.286-2.313-3.962-3.469-8.419-3.469-13.371 0-5.2 1.156-9.74 3.469-13.619 2.313-3.88 5.411-6.892 9.293-9.038C331.561 1.114 335.939 0 340.73 0s9.087 1.114 12.887 3.343c3.882 2.146 6.939 5.159 9.169 9.038 2.313 3.88 3.469 8.419 3.469 13.619 0 4.952-1.156 9.41-3.469 13.371-2.23 3.88-5.287 6.975-9.169 9.286-3.8 2.229-8.096 3.343-12.887 3.343Zm0-7.552c3.305 0 6.196-.826 8.674-2.477 2.561-1.733 4.543-4.003 5.947-6.81 1.405-2.805 2.107-5.86 2.107-9.161 0-5.282-1.57-9.657-4.709-13.124-3.139-3.466-7.145-5.2-12.019-5.2-4.956 0-9.004 1.734-12.143 5.2-3.139 3.467-4.708 7.842-4.708 13.124 0 3.302.702 6.356 2.106 9.162 1.405 2.806 3.387 5.076 5.948 6.81 2.561 1.65 5.493 2.476 8.797 2.476ZM381.828 52c-1.074 0-2.065-.33-2.974-.99-.909-.66-1.363-1.651-1.363-2.972V6.314c0-1.898.578-3.301 1.735-4.21 1.239-.99 2.56-1.485 3.965-1.485 2.147 0 3.717.825 4.708 2.476l20.445 32.067c.413.66.867.99 1.363.99.743 0 1.115-.577 1.115-1.733l-.496-29.838c0-1.32.455-2.311 1.363-2.971.909-.66 1.9-.991 2.974-.991 1.074 0 2.065.33 2.974.99.909.66 1.363 1.651 1.363 2.972v41.971c0 1.816-.537 3.178-1.611 4.086A5.589 5.589 0 0 1 413.672 52c-.991 0-1.983-.248-2.974-.743-.908-.413-1.693-1.114-2.354-2.105l-20.073-31.2c-.413-.66-.867-.99-1.363-.99-.744 0-1.115.578-1.115 1.733l.371 29.343c0 1.32-.454 2.311-1.363 2.972-.826.66-1.817.99-2.973.99ZM869.061 21.785l9.6-19.56 14.094-.067 19.106 47.212h-16.363l-11.351-28.057L869.061 52l-15.087-30.687-11.35 28.057H826.26l19.107-47.212 14.093.068 9.601 19.559ZM942.78 51.393c-2.302.045-4.698-.157-7.189-.607a38.282 38.282 0 0 1-7.33-1.956 38.72 38.72 0 0 1-6.763-3.507 26.323 26.323 0 0 1-5.581-4.923 23.483 23.483 0 0 1-3.831-6.543c-.914-2.428-1.371-5.125-1.371-8.093s.457-5.665 1.371-8.093c.915-2.473 2.176-4.654 3.784-6.543a25.43 25.43 0 0 1 5.581-4.99 35.561 35.561 0 0 1 6.762-3.44c2.397-.9 4.84-1.551 7.331-1.956 2.491-.45 4.903-.652 7.236-.607 2.333-.045 4.745.157 7.236.607a37.108 37.108 0 0 1 7.33 1.956c2.396.9 4.65 2.046 6.763 3.44a24.982 24.982 0 0 1 5.628 4.99c1.608 1.889 2.869 4.07 3.783 6.543.946 2.428 1.419 5.125 1.419 8.093s-.473 5.665-1.419 8.093a22.043 22.043 0 0 1-3.83 6.543 25.839 25.839 0 0 1-5.628 4.923 36.641 36.641 0 0 1-6.763 3.507 37.099 37.099 0 0 1-7.331 1.956c-2.491.45-4.887.652-7.188.607Zm-15.276-25.63c0 2.024.394 3.8 1.182 5.33a11.095 11.095 0 0 0 3.311 3.709c1.419.944 3.042 1.663 4.871 2.158 1.86.494 3.831.742 5.912.742s4.051-.248 5.911-.742c1.861-.495 3.484-1.214 4.872-2.158a10.897 10.897 0 0 0 3.357-3.71c.82-1.529 1.23-3.305 1.23-5.328s-.41-3.777-1.23-5.26a10.132 10.132 0 0 0-3.357-3.71c-1.388-.99-3.011-1.731-4.872-2.226-1.86-.495-3.83-.742-5.911-.742-2.081 0-4.052.247-5.912.742-1.829.495-3.452 1.237-4.871 2.226-1.387.944-2.491 2.18-3.311 3.71-.788 1.483-1.182 3.237-1.182 5.26ZM1017.38 2.158c4.86 0 8.94.697 12.25 2.091 3.34 1.394 6.04 3.552 8.09 6.475 2.08 2.877 3.58 6.564 4.49 11.06.91 4.497 1.37 9.87 1.37 16.12V49.37h-14.19V37.904c0-4.317-.34-7.914-1.04-10.791-.69-2.878-1.76-5.148-3.21-6.812-1.45-1.709-3.3-2.9-5.54-3.575-2.2-.72-4.84-1.079-7.89-1.079h-17.597V49.37h-14.188V2.158h37.455ZM1079.68 51.393c-2.3.045-4.7-.157-7.19-.607a38.38 38.38 0 0 1-7.33-1.956 38.728 38.728 0 0 1-6.76-3.507 26.44 26.44 0 0 1-5.58-4.923 23.287 23.287 0 0 1-3.83-6.543c-.92-2.428-1.37-5.125-1.37-8.093s.45-5.665 1.37-8.093c.91-2.473 2.17-4.654 3.78-6.543a25.539 25.539 0 0 1 5.58-4.99c2.15-1.394 4.4-2.54 6.76-3.44 2.4-.9 4.84-1.551 7.33-1.956 2.5-.45 4.91-.652 7.24-.607 2.33-.045 4.75.157 7.24.607 2.52.405 4.96 1.057 7.33 1.956 2.39.9 4.65 2.046 6.76 3.44a25.122 25.122 0 0 1 5.63 4.99c1.61 1.889 2.87 4.07 3.78 6.543.95 2.428 1.42 5.125 1.42 8.093s-.47 5.665-1.42 8.093a21.936 21.936 0 0 1-3.83 6.543 25.757 25.757 0 0 1-5.63 4.923 36.395 36.395 0 0 1-6.76 3.507c-2.37.9-4.81 1.551-7.33 1.956-2.49.45-4.89.652-7.19.607Zm-15.28-25.63c0 2.024.4 3.8 1.19 5.33a11.06 11.06 0 0 0 3.31 3.709c1.42.944 3.04 1.663 4.87 2.158 1.86.494 3.83.742 5.91.742s4.05-.248 5.91-.742c1.86-.495 3.49-1.214 4.87-2.158 1.42-.99 2.54-2.226 3.36-3.71.82-1.529 1.23-3.305 1.23-5.328s-.41-3.777-1.23-5.26a10.132 10.132 0 0 0-3.36-3.71c-1.38-.99-3.01-1.731-4.87-2.226-1.86-.495-3.83-.742-5.91-.742s-4.05.247-5.91.742c-1.83.495-3.45 1.237-4.87 2.226-1.39.944-2.49 2.18-3.31 3.71-.79 1.483-1.19 3.237-1.19 5.26ZM1131.77 25.764c0 2.338.42 4.294 1.28 5.868.85 1.528 2 2.765 3.45 3.71 1.48.898 3.18 1.55 5.11 1.955 1.92.36 3.95.54 6.1.54 2.46 0 4.96-.203 7.52-.607 2.55-.405 4.96-.877 7.23-1.417 2.27-.584 4.31-1.191 6.1-1.82 1.8-.63 3.16-1.17 4.07-1.62v13.152c-1.17.855-2.63 1.642-4.4 2.36-1.73.72-3.69 1.35-5.86 1.89-2.15.539-4.45.966-6.91 1.28a59.131 59.131 0 0 1-15.42-.067c-2.61-.36-5.13-.944-7.56-1.753a35.38 35.38 0 0 1-6.76-3.238 24.272 24.272 0 0 1-5.49-4.856c-1.58-1.933-2.84-4.159-3.78-6.677-.92-2.563-1.41-5.463-1.47-8.7.09-3.237.6-6.115 1.51-8.633.92-2.563 2.16-4.789 3.74-6.677a22.275 22.275 0 0 1 5.49-4.856 30.718 30.718 0 0 1 6.76-3.237 38.638 38.638 0 0 1 7.56-1.821 59.123 59.123 0 0 1 15.42-.067c2.46.314 4.76.741 6.91 1.28 2.17.54 4.13 1.17 5.86 1.889 1.77.72 3.23 1.506 4.4 2.36v13.152c-.91-.45-2.27-.989-4.07-1.618-1.79-.63-3.83-1.214-6.1-1.754a78.125 78.125 0 0 0-7.23-1.484 48.057 48.057 0 0 0-7.52-.607c-2.15 0-4.18.203-6.1.607-1.93.36-3.63 1.012-5.11 1.956-1.45.9-2.6 2.136-3.45 3.71-.86 1.528-1.28 3.462-1.28 5.8ZM1177.59 2.158h14.19v33.723h39.25V49.37h-53.44V2.158ZM1250.64 35.88h41.62v13.49h-55.81V2.158h53.45v13.49h-39.26v3.372h32.63v13.488h-32.63v3.373ZM506.52 48.556c-.213 1.015-1.2 1.522-2.96 1.522-1.44 0-2.48-.32-3.12-.961a49.161 49.161 0 0 0-1.12-3.283c-.48-1.335-1.04-2.857-1.68-4.565-.32-2.082-.64-3.55-.96-4.404-.267-.855-.613-1.495-1.04-1.922-.8.053-1.947.16-3.44.32a83.373 83.373 0 0 0-4.72.48c-1.653.16-3.2.4-4.64.721-1.44.267-2.48.56-3.12.881a144.708 144.708 0 0 1-.96 4.404 93.756 93.756 0 0 1-1.36 5.126c-.16.534-.533.907-1.12 1.12-.587.268-1.307.401-2.16.401-.853 0-1.6-.16-2.24-.48-.587-.267-.88-.694-.88-1.281 0-1.068.64-4.245 1.92-9.53-.053-.214-.08-.534-.08-.961 0-.694.08-1.548.24-2.563.213-1.068.427-2.082.64-3.043.213-.961.4-1.788.56-2.483.213-.694.32-1.067.32-1.12l2.56-7.128c.107-.694.373-1.628.8-2.803.48-1.174.987-2.376 1.52-3.604.533-1.228 1.04-2.375 1.52-3.443.48-1.121.8-1.975.96-2.563.48-1.762 1.76-2.642 3.84-2.642 1.707 0 2.8.64 3.28 1.922l.48.88c.32.588.747 1.335 1.28 2.243a71.886 71.886 0 0 1 1.68 3.043 63.97 63.97 0 0 1 1.76 3.123c.533.961.987 1.842 1.36 2.643.373.747.587 1.254.64 1.521.427 1.015.96 2.19 1.6 3.524a95.426 95.426 0 0 0 2.32 4.324c.533.694 1.013 1.629 1.44 2.803a37.86 37.86 0 0 1 1.28 3.444c.373 1.174.693 2.242.96 3.203.267.961.507 1.602.72 1.922 0 .374.107.961.32 1.762.267.747.507 1.548.72 2.402.267.854.507 1.655.72 2.403.213.747.32 1.281.32 1.601 0 .267-.053.614-.16 1.041Zm-14-20.18a52.206 52.206 0 0 0-1.2-3.284 20.18 20.18 0 0 0-1.2-2.722 80.537 80.537 0 0 0-1.52-3.044l-2.24-4.484c-1.227 2.242-2.107 4.832-2.64 7.768a26.283 26.283 0 0 0-2.4 6.967c1.653-.48 2.987-.72 4-.72.373 0 .64.026.8.08.907-.214 2-.321 3.28-.321 1.28 0 2.32-.08 3.12-.24ZM547.731 44.953c0 .96-.427 1.868-1.28 2.723-.854.8-1.707 1.2-2.56 1.2-.427 0-.774-.133-1.04-.4-.054 0-.294-.267-.72-.8a60.103 60.103 0 0 1-1.52-2.003c-.587-.8-1.227-1.654-1.92-2.562a152.44 152.44 0 0 1-1.92-2.563 90.892 90.892 0 0 0-1.44-1.922c-.32-.534-.454-.774-.4-.72-.107-.32-.374-.828-.8-1.522a38.313 38.313 0 0 0-1.44-2.162 54.83 54.83 0 0 0-1.36-2.163c-.427-.693-.667-1.12-.72-1.28-.107 0-.4.053-.88.16-.48.053-1.014.133-1.6.24-.587.053-1.2.133-1.84.24-.587.053-1.04.08-1.36.08h-.4c-.16 1.655-.294 3.016-.4 4.084-.107 1.068-.16 1.869-.16 2.403v2.482c0 2.883-.24 6.006-.72 9.37-.64.96-1.574 1.441-2.8 1.441-1.067 0-2-.293-2.8-.88-.747-.535-1.12-1.495-1.12-2.884v-1.521c.053-.64.08-1.282.08-1.922.053-.64.08-1.201.08-1.682.053-.534.08-.88.08-1.04v-.401l.56-12.093c.053-.694.053-1.548 0-2.562 0-1.015.053-2.19.16-3.524l.64-4.805c.32-1.655.48-3.07.48-4.244 0-.374-.027-.721-.08-1.041 0-.374-.027-.748-.08-1.121l.24-2.803c.053-1.282.293-2.323.72-3.124.426-.8 1.44-1.2 3.04-1.2 1.12 0 2.24.186 3.36.56 1.066-.107 2-.16 2.8-.16h2.16c.533 0 1.013.026 1.44.08.426 0 .853.053 1.28.16.426.053.906.16 1.44.32a25.1 25.1 0 0 1 1.92.48l3.52 2.403c1.973 1.548 3.28 3.097 3.92 4.645a11.826 11.826 0 0 1 1.04 4.885c0 1.175-.054 2.189-.16 3.043-.054.8-.32 1.602-.8 2.402-.48.801-1.227 1.629-2.24 2.483-1.014.854-2.454 1.922-4.32 3.203 1.226 1.549 2.613 3.844 4.16 6.887.96.748 2.88 3.791 5.76 9.13Zm-9.84-25.546c.053-.214.08-.508.08-.881 0-.534-.054-1.068-.16-1.602a4.249 4.249 0 0 0-.72-1.682c-.374-.587-.934-1.148-1.68-1.681-.694-.588-1.68-1.148-2.96-1.682-1.12-.427-2.054-.64-2.8-.64a9.21 9.21 0 0 1-.88.16c-.32.106-.72.213-1.2.32-.48.053-1.014.133-1.6.24.053.32.08.64.08.96 0 .268-.054.802-.16 1.603-.054.8-.16 1.948-.32 3.443s-.347 3.577-.56 6.247c.213.053.426.08.64.08h.64c1.013 0 2.133-.134 3.36-.4a31.72 31.72 0 0 0 3.6-1.122c1.12-.48 2.106-1.014 2.96-1.602.853-.587 1.413-1.174 1.68-1.761ZM586.586 14.522c-.746.32-1.573.48-2.48.48-.266 0-.666-.027-1.2-.08a80.655 80.655 0 0 0-1.6-.16 19.8 19.8 0 0 0-1.76-.24c-.533-.107-.933-.16-1.2-.16-1.706 0-3.36.24-4.96.72a129.9 129.9 0 0 1 .8 5.926c.214 1.922.4 3.737.56 5.446.16 1.655.267 3.176.32 4.564.054 1.335.08 2.483.08 3.444 0 2.402-.026 4.485-.08 6.246 0 1.709-.133 3.15-.4 4.325-.266 1.121-.693 1.948-1.28 2.482-.586.534-1.44.801-2.56.801-1.066 0-1.866-.267-2.4-.8a5.533 5.533 0 0 1-1.04-2.003c-.16-.8-.24-1.628-.24-2.482.054-.854.08-1.575.08-2.162 0-1.015.08-1.922.24-2.723.16-.854.24-1.655.24-2.403 0-.373-.106-1.708-.32-4.004-.213-2.349-.32-5.285-.32-8.809 0-1.174-.133-2.322-.4-3.443a52.466 52.466 0 0 0-.72-3.364l-4.72.32c-1.92.16-3.253.454-4 .881-1.12 0-2.08-.32-2.88-.96-.8-.641-1.2-1.469-1.2-2.483s.454-2.136 1.36-3.364c.267-.053 1.467-.24 3.6-.56 2.134-.374 5.2-.934 9.2-1.682l4-.48c1.28-.16 2.507-.24 3.68-.24h1.2l9.44.64c1.12.64 1.68 1.842 1.68 3.604 0 .96-.24 1.868-.72 2.723ZM628.691 37.025c-.16.64-.56 1.414-1.2 2.322-.587.908-1.334 1.842-2.24 2.803a22.16 22.16 0 0 1-2.96 2.482c-1.014.748-2 1.282-2.96 1.602-2.774 1.228-5.894 1.842-9.36 1.842a48.02 48.02 0 0 1-2.96-.08c-.8-.053-1.6-.214-2.4-.48-.8-.267-1.6-.695-2.4-1.282-.8-.587-1.707-1.441-2.72-2.563-1.12-1.174-2-2.322-2.64-3.443-.64-1.175-1.12-2.296-1.44-3.364a17.212 17.212 0 0 1-.64-3.043 26.222 26.222 0 0 1-.16-2.722c0-1.762.213-3.844.64-6.247.426-2.402 1.573-5.339 3.44-8.809a114.144 114.144 0 0 0 1.6-3.043c.373-.747.586-1.255.64-1.522l4.96-3.043c1.706-1.014 3.333-1.815 4.88-2.402 1.546-.64 3.253-.961 5.12-.961h2.4c1.066 0 2.106.133 3.12.4 1.066.214 2 .64 2.8 1.282.8.587 1.2 1.468 1.2 2.642 0 1.976-1.174 3.123-3.52 3.444.053 0-.107-.027-.48-.08-.374-.054-.88-.107-1.52-.16-.64-.054-1.36-.107-2.16-.16-.8-.054-1.6-.08-2.4-.08-1.387 0-2.8.4-4.24 1.2-1.387.748-3.094 2.056-5.12 3.925-1.067 2.242-1.867 4.004-2.4 5.285-.48 1.228-.72 2.056-.72 2.483-.587 1.067-.88 2.642-.88 4.724 0 3.844.693 6.62 2.08 8.329 1.386 1.655 3.28 2.483 5.68 2.483 1.546 0 3.946-.428 7.2-1.282 1.973-1.174 3.68-3.043 5.12-5.606.906-.907 1.84-1.361 2.8-1.361 1.013 0 1.92.4 2.72 1.201.8.801 1.2 1.709 1.2 2.723a.716.716 0 0 1-.08.32v.24ZM663.001 37.986c1.546.32 2.32 1.521 2.32 3.603 0 1.122-.267 2.002-.8 2.643-.534.64-1.227.961-2.08.961-.267 0-.774-.027-1.52-.08a30.478 30.478 0 0 0-2.4-.24 43.159 43.159 0 0 0-2.48-.24c-.8-.107-1.36-.16-1.68-.16h-.88c-.267 0-.534.026-.8.08a46.027 46.027 0 0 1-3.2-.321l-3.52-.64a60.402 60.402 0 0 1-3.04-.801c-.854-.267-1.36-.508-1.52-.721-.534-1.602-.8-3.737-.8-6.407v-1.281c0-.48.026-.961.08-1.441l.48-5.686a9.79 9.79 0 0 0 .08-1.202v-2.162c0-.32-.054-.614-.16-.88.373-2.03.64-3.711.8-5.046.16-1.388.24-2.456.24-3.203v-.64c0-.748.32-3.124.96-7.128.8-1.709 2.026-2.563 3.68-2.563 1.013 0 1.866.4 2.56 1.201.693.748 1.04 1.789 1.04 3.124a32.46 32.46 0 0 0-.64 2.803 106.01 106.01 0 0 0-.48 4.004v.64c0 .48-.054 1.228-.16 2.243a71.453 71.453 0 0 1-.24 3.043 154.16 154.16 0 0 1-.32 2.803c-.054.8-.08 1.254-.08 1.361 0 .587.026.961.08 1.121a238.25 238.25 0 0 0-.48 5.606c-.107 1.495-.16 2.643-.16 3.443 0 .534.026.881.08 1.041 2.773.32 4.613.481 5.52.481h1.28c.48-.053.96-.08 1.44-.08 2.026 0 4.293.24 6.8.72ZM708.142 21.409c-.427 3.737-.8 6.994-1.12 9.77-.32 2.776-.933 5.018-1.84 6.727-.96 1.761-2 3.203-3.12 4.324s-2.267 2.002-3.44 2.643c-1.173.64-2.347 1.094-3.52 1.361-1.12.214-2.187.32-3.2.32-1.6 0-3.013-.16-4.24-.48a11.073 11.073 0 0 1-3.44-1.762c-1.013-.854-1.973-1.975-2.88-3.363-.907-1.442-1.84-3.257-2.8-5.446-.96-3.844-1.547-7.18-1.76-10.01-.213-2.83-.32-5.58-.32-8.249 0-.907-.027-1.922-.08-3.043 0-1.174.08-2.269.24-3.283.213-1.068.587-1.949 1.12-2.643.587-.747 1.44-1.121 2.56-1.121 2.08 0 3.44 1.121 4.08 3.364-.16.96-.24 2.615-.24 4.964v2.323c0 .8.027 1.682.08 2.643.053 2.402.08 4.11.08 5.125 0 .96.027 1.682.08 2.162.053.427.133.854.24 1.281.107.374.293 1.175.56 2.403.533 1.601.987 2.856 1.36 3.764.373.854.773 1.548 1.2 2.082.427.48.96.854 1.6 1.121a52.57 52.57 0 0 0 2.64.72c1.547-.373 2.827-.934 3.84-1.68a7.804 7.804 0 0 0 2.48-2.804c.64-1.174 1.093-2.536 1.36-4.084.267-1.548.453-3.283.56-5.205 0-1.388.027-2.723.08-4.005.107-1.28.213-2.455.32-3.523a57.482 57.482 0 0 1-.08-2.803V12.84c0-.64-.027-1.201-.08-1.682v.881c0-1.975.213-3.737.64-5.285 1.12-.641 2.213-.961 3.28-.961.96 0 1.707.213 2.24.64.533.374.933.881 1.2 1.522.267.587.427 1.281.48 2.082.053.747.08 1.495.08 2.242 0 .32-.027.801-.08 1.442a105.06 105.06 0 0 0-.16 2.002c0 .694-.027 1.361-.08 2.002a19.21 19.21 0 0 0-.08 1.441v1.202c.053.32.107.667.16 1.04ZM756.632 33.581v.56c0 1.87-.72 3.925-2.16 6.167-1.44 2.189-3.893 4.298-7.36 6.327-1.333.8-2.56 1.414-3.68 1.841-1.12.48-2.267.881-3.44 1.202-1.12.373-2.32.72-3.6 1.04-1.28.321-2.72.748-4.32 1.282h-4.08c-1.28-.107-2.24-.347-2.88-.72-.64-.321-1.093-.775-1.36-1.362-.267-.534-.4-1.201-.4-2.002v-3.764c0-.32.027-.667.08-1.041a4.53 4.53 0 0 1-.08-.881v-1.121c0-3.63.107-6.46.32-8.489.267-2.029.4-3.604.4-4.725 0-.64-.027-1.334-.08-2.082v-2.482c.107-1.442.24-3.07.4-4.885.16-1.816.293-3.844.4-6.087-.053-.427-.187-.987-.4-1.681a25.432 25.432 0 0 0-.72-2.163 20.173 20.173 0 0 0-.64-1.922l-.24-.88c0-.855.533-1.682 1.6-2.483 1.12-.8 2.667-1.255 4.64-1.361 2.72-1.228 5.253-1.842 7.6-1.842h.96c.427-.054.96-.027 1.6.08.64.107 1.387.347 2.24.72.907.32 1.893.855 2.96 1.602l3.28 2.643 1.2 2.563c.48 1.12.72 2.242.72 3.363 0 2.563-.96 4.992-2.88 7.287 3.627 1.549 5.84 2.803 6.64 3.764.427.588.853 1.362 1.28 2.323.427.96.773 2.162 1.04 3.603l.96 5.606Zm-14.72-23.864c-.053-.16-.213-.4-.48-.721-.213-.374-.533-.72-.96-1.041a4.74 4.74 0 0 0-1.52-.881c-.587-.267-1.253-.4-2-.4-2.293 0-3.973.453-5.04 1.36-.107.375-.16.802-.16 1.282v1.682c0 .64-.053 1.415-.16 2.322-.053.854-.213 1.869-.48 3.043-.32 1.282-.48 2.083-.48 2.403 3.36-.587 6.107-1.575 8.24-2.963 2.133-1.388 3.2-2.91 3.2-4.565 0-.267-.027-.507-.08-.72 0-.268-.027-.534-.08-.801Zm7.04 25.706c.213-.64.32-1.388.32-2.242 0-1.602-.267-2.99-.8-4.165-.533-1.227-1.253-2.215-2.16-2.963-.853-.747-1.867-1.308-3.04-1.681-1.173-.374-2.4-.56-3.68-.56-.533 0-1.227.106-2.08.32-.8.213-1.653.453-2.56.72a63.37 63.37 0 0 0-2.4.801c-.693.213-1.173.347-1.44.4v1.842c0 1.442-.027 2.723-.08 3.844a532.125 532.125 0 0 0-.32 7.448 502.526 502.526 0 0 0-.16 5.526h.4c1.227 0 2.773-.32 4.64-.962l6-2.162c.64-.213 1.36-.56 2.16-1.04a24.47 24.47 0 0 0 2.24-1.682 29.873 29.873 0 0 0 1.84-1.842c.587-.588.96-1.121 1.12-1.602ZM1369.32 51.418V5.673H1359V.509h26.88v5.164h-10.32v45.745h-6.24ZM1396.46 28.51v22.908h-6.24V.51h6.24v22.91h13.76V.508h6.24v50.91h-6.24v-22.91h-13.76ZM1442.8 23.055v5.09h-13.68v18.11h16.8v5.163h-23.04V.51h23.04v5.164h-16.8v17.382h13.68ZM1469.65 51.418h-5.6V.51h7.92l12.96 36.8V.51h5.52v50.91h-6.48l-14.32-41.164v41.163ZM1516.78 23.055v5.09h-13.68v18.11h16.8v5.163h-23.04V.51h23.04v5.164h-16.8v17.382h13.68ZM1540.57 51.418h-8.56L1524.33.51h6.08l6.56 43.346 6.24-43.273h6.16l6.16 43.345L1561.85.51h5.44l-7.6 50.91h-8.24l-5.36-34.546-5.52 34.545ZM1584.09 0c4.27 0 7.42 1.164 9.44 3.49 2.03 2.28 3.04 5.358 3.04 9.237v1.382h-5.92v-1.673c0-2.327-.5-4.12-1.52-5.381-1.01-1.261-2.64-1.891-4.88-1.891-2.24 0-3.86.63-4.88 1.89-1.01 1.261-1.52 3.03-1.52 5.31 0 1.89.46 3.539 1.36 4.945.96 1.406 2.14 2.715 3.52 3.927a83.337 83.337 0 0 0 4.48 3.491 31.636 31.636 0 0 1 4.56 3.71 17.994 17.994 0 0 1 3.44 4.654c.96 1.697 1.44 3.733 1.44 6.109 0 3.879-1.04 6.982-3.12 9.31-2.02 2.278-5.2 3.417-9.52 3.417-4.32 0-7.49-1.14-9.52-3.418-2.02-2.327-3.04-5.43-3.04-9.309v-2.91h5.84v3.2c0 2.328.54 4.122 1.6 5.383 1.07 1.26 2.72 1.89 4.96 1.89 2.24 0 3.9-.63 4.96-1.89 1.07-1.26 1.6-3.055 1.6-5.382 0-1.891-.48-3.515-1.44-4.873-.9-1.406-2.05-2.69-3.44-3.854a50.828 50.828 0 0 0-4.48-3.491 40.438 40.438 0 0 1-4.48-3.782 20.715 20.715 0 0 1-3.52-4.582c-.9-1.745-1.36-3.806-1.36-6.182 0-3.927 1.02-7.03 3.04-9.309 2.03-2.279 5.15-3.418 9.36-3.418ZM1608.02 39.418c0 2.328.5 4.146 1.52 5.455 1.06 1.26 2.74 1.89 5.04 1.89 2.24 0 3.86-.63 4.88-1.89 1.06-1.31 1.6-3.127 1.6-5.455V.51h5.84v38.618c0 3.88-1.02 7.006-3.04 9.382-2.03 2.327-5.2 3.491-9.52 3.491-4.27 0-7.42-1.164-9.44-3.49-2.03-2.377-3.04-5.504-3.04-9.383V.51h6.16v38.91ZM1638.55 51.418h-5.6V.51h7.93l12.95 36.8V.51h5.53v50.91h-6.48l-14.33-41.164v41.163Z" fill="#201B19"/></svg>