<svg xmlns="http://www.w3.org/2000/svg" width="198" height="231" fill="none"><path d="M159.864 169.782c-.352-1.185-1.097-1.879-1.825-2.557l-.005-.005-.137-.128-.119-.112c-2.05-1.948-4.56-3.184-7.11-4.237-2.81-1.162-5.74-2.043-8.659-2.897-.806-.237-1.625-.453-2.439-.668l-.233-.062-.236-.062c-1.626-.427-3.288-.712-4.949-.996-.35-.06-.7-.12-1.05-.182-.779-.136-1.569-.226-2.358-.316l-.002-.001-.683-.079a2.75 2.75 0 0 0-.417-.007c-.239.007-.476.014-.665-.081-1.185-.604-2.456-.632-3.728-.66-1.029-.023-2.058-.046-3.042-.374-.156-.052-.362.041-.579.139a2.848 2.848 0 0 1-.323.132c.548 1.251 1.392 1.643 2.55 1.57 2.053-.125 3.84.525 5.615 1.607.559.34 1.095.713 1.631 1.086.693.483 1.385.965 2.125 1.375.452.25.898.521 1.343.793 1.053.64 2.106 1.28 3.246 1.657 1.984.656 4.088 1.074 6.236.873l.099-.01c.456-.042.953-.089 1.352.072 1.468.591 2.992.616 4.519.64h.004c.28.004.56.009.84.016l.076.003c.456.013.931.027 1.353.17 2.174.726 4.172 1.76 5.644 3.598l.237-.036.282-.043.447-.068.433-.066.527-.081v-.003Z" fill="#FA1B7A"/><path fill-rule="evenodd" clip-rule="evenodd" d="M179.735 196.906c.781-1.182 1.369-2.849 1.516-3.295l.443-1.337.001-.005c.368-1.11.736-2.219 1.098-3.331.273-.836.541-1.673.81-2.511l.003-.009c.318-.99.635-1.979.959-2.967.049-.148.142-.282.235-.416.045-.065.09-.129.13-.196-.193-1.339.106-2.839.804-4.016l-.383-2.227-.011-.069-.002-.009c-.178-1.05-.358-2.103-.773-3.16 0 .21-.009.422-.019.635-.021.479-.042.959.045 1.419.056.298-.04.574-.137.851-.135.387-.27.777.009 1.232.106.176.009.465-.092.769-.066.196-.134.399-.149.581-.369 4.434-1.422 8.67-3.256 12.749-.99 2.2-2.027 4.317-3.668 6.231l-.368.016-.437.019-.013.001-.024.001-.263.012-.232.01c.462.878-.089 1.249-.606 1.596l-.176.12c-.277.193-.585.341-.895.488l-.001.001c-.168.081-.336.161-.499.249-.152.081-.301.175-.45.269-.648.408-1.293.815-2.137.2-.046-.032-.15.019-.308.096a5.197 5.197 0 0 1-.335.154c.325.253.537.414.749.575-.5.661-1.206.707-1.915.752-.533.035-1.069.069-1.519.367l.052.052c.038.037.069.068.105.091.072.046.147.086.276.155l.162.087-3.61 1.217-.247.083-2.705.912.024.181v.001l.028.207.272.018.378.024.378.024.17.011.102.007.243-.076.169-.053.167-.052.209-.065c.066-.006.131-.01.197-.014l.118-.009.085-.006c1.247-.045 2.369-.509 3.488-.971a25.58 25.58 0 0 1 1.301-.511c.742-.261 1.442-.645 2.141-1.028.243-.133.486-.267.731-.395.3-.157.591-.335.881-.513.172-.105.344-.211.518-.312a111.242 111.242 0 0 1 1.097-.627c2.073-1.177 3.691-2.097 5.136-4.283Zm-152.99-19.228.987.441c1.02.161 2.034.449 3.084.747 1.63.464 3.348.952 5.315 1.028-.23-.161-.414-.296-.571-.41-.288-.21-.483-.352-.693-.463-1.962-1.045-4.077-1.618-6.233-2.113-2.623-.601-4.79-1.889-6.704-3.921-1.611-1.712-3.058-3.495-4.34-5.435-.56-.844-1.07-1.75-1.425-2.692-.408-1.086-.747-2.199-1.086-3.312-.147-.481-.293-.963-.445-1.442h.007c-.978-1.861-1.335-3.873-1.695-5.906-.062-.351-.124-.703-.19-1.055-.818-4.357 1.02-7.937 2.915-11.528 2.152-4.075 5.62-6.789 9.558-8.942a152.884 152.884 0 0 1 7.88-4.049c.78-.37 1.612-.622 2.446-.875a26.575 26.575 0 0 0 1.625-.53c4.08-1.526 8.298-2.568 12.512-3.61.635-.156 1.27-.313 1.904-.472l.737-.185.008-.002c2.207-.555 4.43-1.115 6.68-1.346 4.171-.425 8.055.635 11.361 3.323 1.33 1.082 1.838 2.685 2.003 4.343.179 1.819.186 3.62-.578 5.38-.422.978-.75 1.997-1.077 3.016a56.984 56.984 0 0 1-.592 1.774c-.684 1.915-1.89 3.507-3.139 5.08-.454.572-.862 1.181-1.27 1.79-.37.552-.74 1.104-1.145 1.628-2.692 3.492-5.922 6.445-9.334 9.203-.852.689-1.7 1.375-2.554 2.054-1.476 1.173-3.073 2.087-4.83 2.828-2.503 1.052-4.881 2.431-6.934 4.254-1.838 1.632-3.047 3.62-2.894 6.213.088.972.333 1.871.965 2.656.46.572.654 1.228.398 2.083l.247-.196.002-.001.51-.405c.64 1.002.699 2.106.633 3.257.086.109.186.217.288.328.232.25.476.515.61.828.989 2.307 1.951 4.625 2.914 6.943v.001c.454 1.093.908 2.186 1.365 3.278.54 1.294 1.225 2.511 1.91 3.728a54.76 54.76 0 0 1 1.305 2.415c.05.102.092.211.147.356l.098.253 2.07 3.239c1.414 2.129 3.135 4.382 5.054 6.121.282.256.53.55.776.844.258.307.516.614.813.876.724.638 1.517 1.2 2.306 1.757l.994.707.002.001v.001c1.294.921 2.589 1.844 3.932 2.687 1.013.634 2.068 1.198 3.124 1.761.484.258.967.516 1.447.781l-.053.524-.035.344c-.05.496-.098.963-.142 1.428-.025.267-.055.533-.084.8-.07.639-.141 1.278-.147 1.918-.01 1.43.512 2.626 1.824 3.338.287.155.573.312.86.47.987.544 1.976 1.089 3.012 1.521 5.9 2.457 12.14 3.308 18.454 3.583 2.226.097 4.462-.011 6.698-.12.983-.047 1.966-.095 2.947-.125a76.144 76.144 0 0 0 12.981-1.522l.332-.068a91.343 91.343 0 0 0 2.857-.611c.288-.067.586-.119.885-.172.8-.142 1.605-.284 2.225-.701.343-.23.747-.305 1.147-.379.606-.113 1.2-.223 1.553-.868.013-.025.089-.006.181.018.11.029.243.063.326.037l.053-.016c1.996-.633 4.038-1.28 4.744-3.578.417-1.35.289-2.762 0-4.156-.116-.56-.173-1.133-.23-1.715-.026-.26-.052-.522-.084-.786.384-.168.759-.316 1.122-.46.782-.309 1.511-.598 2.159-1.011 2.167-1.383 4.297-2.846 6.178-4.603.924-.865 1.871-1.159 3.098-1.177.785-.013 1.568-.006 2.352.001 2.511.022 5.021.045 7.549-.595 2.336-.593 4.749-1.022 7.148-1.447l.046-.009.368-.065.359-.064c.195-.035.379-.138.562-.24.084-.047.168-.094.253-.134.076-.499-.194-.645-.629-.594-.346.04-.694.077-1.041.114-.95.102-1.9.204-2.839.37l-.061.011c-2.3.407-4.606.815-6.877 1.361-1.381.332-2.765.323-4.15.315a53.87 53.87 0 0 0-1.206 0c-.149.003-.3-.115-.451-.234-.071-.055-.142-.111-.214-.155-3.474.29-6.74-.374-9.736-2.197-2.05-1.247-3.811-2.816-4.94-4.98-.303-.58-.588-1.236-.628-1.875l-.009-.143c-.126-2.011-.253-4.046.729-5.919.146-.28.36-.522.575-.765.149-.168.298-.337.426-.519 2.148-3.085 4.87-5.535 7.994-7.6 1.152-.763 2.251-1.606 3.351-2.45a79.179 79.179 0 0 1 2.494-1.863c3.851-2.721 7.833-5.179 12.232-6.994 3.898-1.61 7.808-3.136 11.856-4.313a3.322 3.322 0 0 0 1.114-.573c-1.906-.107-3.67.461-5.424 1.027-.875.282-1.748.563-2.636.76-.329-.334-.651-.665-.969-.992l-.002-.002-.001-.001c-.623-.64-1.232-1.267-1.863-1.874-1.779-1.714-3.963-2.763-6.148-3.813l-.004-.002a114.45 114.45 0 0 1-.789-.381c-.581-.282-1.173-.638-1.63-1.089l-.364-.36c-1.692-1.675-3.381-3.346-5.368-4.694-.61-.411-1.093-.998-1.538-1.665-.361-.539-1.014-.884-1.66-1.225-.238-.126-.475-.251-.697-.385a14.596 14.596 0 0 0-1.056-.565l-.006-.004a15.873 15.873 0 0 1-.261-.131l-.23-.118-.713-.226c-.548-.173-1.094-.346-1.639-.522-1.462-.47-2.923-.939-4.381-1.423-.508-.17-1.012-.353-1.563-.553l-.236-.086a63.47 63.47 0 0 0-.506-.183c.274-.396.486-.701.789-1.133-1.399-.576-2.755-1.09-4.18-1.361-1.128-.214-2.267-.38-3.406-.546l-.002-.001h-.007l-.002-.001h-.004c-.498-.073-.996-.146-1.493-.222-.562-.088-.858-.407-.84-.983.01-.283.026-.567.042-.851l.01-.17.007-.116.007-.132c-.102-.631-.202-1.263-.312-1.956l-.002-.013-.201-1.27c.249.047.484.094.71.14.443.089.848.171 1.255.227 1.484.205 2.97.4 4.461.576.578.068 1.156.139 1.734.209 1.924.234 3.848.469 5.778.638 1.622.143 3.244.062 4.789-.609.215-.093.469-.093.724-.093.118 0 .236 0 .351-.01l-.03.019a81.56 81.56 0 0 1 1.21-.713c.877-.51 1.754-1.021 2.586-1.598 2.247-1.559 3.493-3.723 3.924-6.462.526-3.356.165-6.632-.314-9.955-.537-3.733-1.52-7.339-2.627-10.919-1.18-3.821-2.729-7.496-4.472-11.087-1.118-2.3-2.477-4.453-4.238-6.342-2.601-2.79-5.75-4.559-9.429-5.501-1.414-.36-2.781-.268-4.155-.1-3.523.436-6.934 1.38-10.352 2.327l-.038.01c-4.077 1.13-8.224 1.973-12.495 1.926-3.16-.033-6.258-.573-9.32-1.262-1.93-.436-3.825-1.067-5.681-1.76-3.124-1.167-6.335-1.457-9.635-1.398-1.874.033-3.627.382-5.17 1.427-1.146.777-2.308 1.617-3.229 2.64-3.325 3.694-5.608 8.055-7.595 12.577a318.44 318.44 0 0 0-1.931 4.522c-.31.736-.623 1.478-.941 2.227a14.3 14.3 0 0 0-.421.05c-.272.036-.54.071-.81.071-.712.003-1.424.009-2.136.016-2.09.019-4.18.039-6.267-.038-1.447-.055-2.317.433-2.693 1.823-.019.064-.057.122-.095.181-.03.045-.06.09-.08.138-.742 1.691-.515 1.98 1.373 2.285 1.45.231 2.857.209 4.319.066 1.26-.126 2.536-.097 3.809-.069a69.05 69.05 0 0 0 1.638.025c.124 1.203 0 1.874-.646 3.528-1.331.155-2.674.258-4.021.361-2.112.162-4.236.325-6.348.688l.183 2.072.098 1.108-4.42 1.44-5.119 1.667 1.567-5.681.007-.024.003-.01c.529-1.916 1.053-3.814 1.576-5.714.091-.33.177-.662.264-.993.066-.254.132-.507.2-.76.205-.763.354-1.522-.201-2.248.202-.356.407-.704.612-1.05.483-.82.958-1.625 1.354-2.468.792-1.691 1.574-3.403 2.177-5.168 1.026-2.994 1.997-6.004 2.977-9.042.401-1.245.805-2.495 1.214-3.75 1.42-.143 2.77.113 4.108.367.67.127 1.337.253 2.008.33.164.016.305.223.46.448.076.11.155.225.241.325.47-.372.612-.867.756-1.37.11-.38.22-.766.475-1.106-.76-.174-.946.206-1.092.503-.056.116-.107.219-.183.271l-2.817-.505-.112-.02-.083-.015-.04-.007-.069-.012-.017-.004-3.142-.563 1.962-4.625c.444.051.88.097 1.308.143.928.099 1.825.194 2.714.327.98.145 1.956.306 2.932.467 1.223.203 2.446.405 3.674.574.825.114 1.428.455 1.94 1.482l.103-.213.002-.003c.396-.82.702-1.45 1.038-2.15-1.848-.306-3.673-.61-5.496-.914l-.05-.008-.02-.003-.068-.011-7.383-1.228.75-1.678.002-.004c.447-.997.897-2.004 1.374-3.075.913.372 1.78.727 2.652 1.085l.925.379c.065.25.126.493.208.819l.183.729.576-1.146.867-1.723c-.164.031-.322.065-.475.098-.764.164-1.404.301-2.028-.142-.424-.3-.894-.535-1.423-.801-.26-.13-.534-.268-.824-.424.263-.387.505-.777.743-1.16.52-.837 1.018-1.64 1.662-2.298 1.213-1.243 2.2-2.649 3.189-4.054.6-.855 1.201-1.709 1.852-2.526.809-1.013 1.569-2.064 2.329-3.115.734-1.015 1.468-2.03 2.245-3.01.848-1.068 1.707-2.113 3.168-2.579.95-.303 1.828-.84 2.703-1.374.32-.195.639-.39.962-.573.11-.061.184-.187.286-.362.058-.097.124-.21.21-.335l-2.469.348-.01.002-.026.003-.038.005h-.003l-.03.005-.05.007-.702.264a5.987 5.987 0 0 1-.023-.059l-.029-.075-.016-.041-.016-.041.3-.128c.1-.043.199-.087.3-.129l1.687-1.342a13.04 13.04 0 0 1-.119-.189c-.039-.063-.078-.127-.118-.189H66.89l.05-.04 2.207-1.739c-.426-.47-.938-.43-1.466-.389-.375.03-.758.06-1.125-.091l.28-.426c.154-.233.316-.478.502-.763l-.385-.864-.003-.007-.002-.004-.198-.445c-.463.11-.864.201-1.265.293h-.003c-1.33.569-2.736.741-4.161.818-.581.033-.88-.297-.994-.832-.136-.64-.274-1.28-.412-1.92a279.284 279.284 0 0 1-1.053-5.034 66.311 66.311 0 0 1-.709-4.398c-.053-.41-.024-.83.005-1.25.013-.187.026-.375.032-.562l-.026-.022a13.094 13.094 0 0 1-.113-.189l-.113-.189-.084-.084.098-.07-.23-2.295c-.459-.247-.353-.556-.24-.886.083-.245.17-.502.032-.75-.277-.5-.31-1.064-.343-1.638-.037-.639-.075-1.29-.45-1.883-.198-.31-.13-.7-.059-1.117.054-.314.11-.644.06-.967-.439-2.768-.79-5.552-1.142-8.336v-.004c-.112-.886-.224-1.77-.339-2.655-.203-1.57-.4-3.14-.617-4.873v-.004l-.223-1.77c.204.208.386.382.549.537.295.281.527.503.715.758.572.78 1.147 1.556 1.721 2.334 1.842 2.49 3.684 4.981 5.433 7.536 1.145 1.675 2.206 3.407 3.268 5.139h.001c.68 1.11 1.36 2.218 2.061 3.312a717.251 717.251 0 0 0 3.785 5.817c.823 1.258 1.647 2.516 2.466 3.777 1.147 1.763 2.018 3.666 2.931 5.662l.336.731a2690.841 2690.841 0 0 1-4.728 3.327c.168.075.306.134.423.183.213.09.357.15.487.231.093.06.166.152.241.245.035.043.07.085.106.126-.272.22-.537.435-.82.662l-.002.002-.811.656c.65.377 1.237.318 1.789.263.297-.03.583-.058.863-.017.126-.061.254-.121.381-.181.088-.04.175-.082.262-.123l.12.23-.293.14-.295.14c-.401.326-.803.652-1.435 1.17 1.074.19 1.907.337 2.743.483l.187-.234.179.157c-.092.052-.187.103-.282.155-.267.184-.533.37-.8.555-.612.426-1.223.851-1.841 1.267-.21.141-.436.262-.638.37-.082.044-.16.085-.232.126.5.767.847.586 1.182.412a4.46 4.46 0 0 1 .104-.053c.717-.346 1.43-.704 2.142-1.061 1.65-.828 3.301-1.656 5.008-2.343 1.871-.754 3.79-1.387 5.71-2.021.937-.31 1.874-.619 2.807-.942 1.219-.42 2.432-.858 3.694-1.312l1.351-.486-.066.562v.001l-.087.736c.386-.035.77-.063 1.151-.091.818-.06 1.624-.12 2.422-.243 2.597-.4 5.18-.337 7.778-.015.7.086 1.412.084 2.124.082.387-.002.774-.003 1.16.01.162.006.327-.001.492-.008.616-.025 1.234-.05 1.704.558.057.072.188.085.32.099.064.006.128.013.184.026.36.087.722.17 1.084.251.807.183 1.615.365 2.402.61.859.268 1.702.586 2.545.904.51.191 1.019.383 1.532.564 1.666.587 3.23 1.339 4.534 2.582.976.932 2.218 1.36 3.504 1.746-.215-.807-.819-1.163-1.439-1.528l-.003-.002a16.035 16.035 0 0 1-.191-.113c-.481-.29-.938-.619-1.476-1.005h-.001c-.264-.19-.547-.393-.862-.613h3.332l.11-.286-.009-.006c-.695-.478-1.39-.957-2.231-1.534l3.643.385c-.228-1.088-.888-1.23-1.679-1.399l-.214-.046.978-.815.356-.297c-.506-.659-1.217-1.059-1.935-1.462-.884-.498-1.779-1.002-2.318-2.003.636-1.977 1.623-3.914 2.788-5.748 1.116-1.753 2.257-3.49 3.397-5.227 1.987-3.025 3.973-6.049 5.824-9.154 1.673-2.805 3.616-5.413 5.559-8.019 1.607-2.158 3.215-4.315 4.668-6.582l.281-.44.013-.02c.097-.154.195-.307.294-.46l.199.128.199.128a31.47 31.47 0 0 1-.145.677c-.103.465-.206.93-.268 1.399-.179 1.376-.35 2.754-.522 4.133v.003a561.725 561.725 0 0 1-.618 4.864c-.146 1.098-.316 2.19-.486 3.284v.002c-.127.82-.255 1.64-.372 2.462-.228 1.58-.444 3.16-.66 4.742l-.001.006-.003.024-.003.025-.28 2.04-.381 2.783-.382 2.784c-.071.538-.138 1.078-.205 1.617-.168 1.355-.336 2.71-.566 4.053-.172 1.008-.412 2.002-.653 2.996a89.562 89.562 0 0 0-.359 1.527c-.108.488-.208.979-.312 1.486-.054.266-.109.536-.167.813-.274-.013-.543-.004-.807.006-.741.026-1.437.05-2.068-.442l-1.618-.228c-.582-.082-1.174-.165-1.787-.253l-.306.538-.123.215-.152.267c.333.43.672.866 1.019 1.31-.4.19-.831.149-1.26.107-.534-.052-1.065-.104-1.535.292l.588.47 1.648 1.316c.077.106.15.212.222.318l.001.002a17.254 17.254 0 0 1-.192-.08l-.078-.032-.113-.046c-.249-.008-.5-.032-.754-.055-.699-.066-1.429-.134-2.25.114l1.023 1.21.453.535-1.05-.132h-.009l-1.651-.209c.691.843 1.546 1.265 2.368 1.669.611.3 1.203.593 1.694 1.042.604.55 1.257 1.045 1.909 1.54.604.459 1.209.917 1.774 1.42a40.232 40.232 0 0 1 3.336 3.323 39.959 39.959 0 0 1 2.941 3.7c.818 1.168 1.538 2.405 2.256 3.64l.221.38a120.82 120.82 0 0 1 1.619 2.896c.226.413.454.829.686 1.249l-.629.32c-1.254.638-2.4 1.222-3.558 1.814l-1.604-.44c.158.322.283.63.401.919.283.695.525 1.29 1.083 1.751.428-.86 1.146-1.51 2.152-1.951.534-.233 1.071-.46 1.636-.698.363-.154.737-.312 1.129-.48.851 1.684 1.655 3.272 2.583 5.102-.811.109-1.605.21-2.386.31h-.001c-1.672.213-3.285.418-4.891.673-1.563.25-3.119.551-4.725.863h-.004l-.009.002h-.003c-.753.147-1.517.295-2.299.441.061.416.283.825.544 1.305.149.273.31.57.461.903.668-1.396 1.803-1.474 2.887-1.548.321-.022.636-.044.934-.099 2.034-.374 4.087-.625 6.14-.875.943-.115 1.886-.23 2.826-.357.189-.024.373-.096.595-.182a8.71 8.71 0 0 1 .388-.144l.977 2.307.018.044 1.029 2.431-3.65.598-.043.007-.031.005-.012.002-.042.007-3.566.584-.502-.463-.4-.37-.136.081-.001.001-.002.001-.06.036-.029.017-.05.03.746 2.677c.997-1.063 2.115-1.247 3.27-1.357 1.089-.103 2.178-.223 3.286-.345h.003l.003-.001c.54-.06 1.085-.12 1.636-.178l2.149 5.384c1.001 2.509 1.997 5.007 3.003 7.522l-.033.027-.238.201c.208.86.407 1.713.605 2.56.441 1.888.874 3.746 1.386 5.582.176.629.303 1.274.429 1.92v.001c.292 1.488.584 2.977 1.478 4.267l.377.545c.874 1.268 1.751 2.54 2.754 3.698 1.652 1.896 2.898 4.038 4.049 6.239a302.534 302.534 0 0 1 2.689 5.3l.001.001c.929 1.86 1.857 3.721 2.826 5.559.165.313.332.624.499.935l.005.01.001.002.001.002c.92 1.713 1.836 3.42 2.348 5.312.358 1.32.69 2.647 1.022 3.973.166.664.332 1.328.501 1.991l.253.004c.167.003.332.007.5.007-.041-.263-.077-.526-.114-.79-.083-.605-.166-1.21-.306-1.8-.22-.942.113-1.614.807-2.182l-.595-1.009-.466-.794c-.93-1.581-1.86-3.163-2.808-4.733a5.959 5.959 0 0 1-.258-.468l-1.55-2.818c-.425-.889-.835-1.767-1.241-2.634v-.001c-.902-1.929-1.779-3.804-2.734-5.636-1.593-3.052-3.373-5.986-5.784-8.505-1.549-1.618-2.755-3.419-2.93-5.839-.059-.828-.381-1.633-.705-2.442-.195-.489-.391-.978-.53-1.476-.369-1.331-.65-2.684-.91-4.041a1.926 1.926 0 0 0-.089-.293c-.133-.373-.281-.788.382-1.035.087-.037.022-.796-.139-1.145-.263-.569-.558-1.126-.852-1.684-.498-.943-.996-1.886-1.34-2.882-.56-1.618-1.173-3.218-1.806-4.872v-.002l-.001-.002-.001-.002-.001-.002c-.469-1.226-.95-2.48-1.428-3.794 1.126-.447 2.183-.406 3.201-.367.429.016.85.032 1.267.011a51.265 51.265 0 0 1 4.38-.007 59.82 59.82 0 0 1 2.415.147c.701.052 1.402.105 2.105.135.603.027 1.208.031 1.811.034.859.005 1.716.01 2.569.084.798.067 1.589.202 2.379.337.633.108 1.267.216 1.903.29.952.109 1.908.174 2.938.245.497.034 2.235-.287 2.774-.245l-1.152-.466-.004.007c-.798-.11-1.575-.212-2.337-.313a174.071 174.071 0 0 1-4.586-.648c-5.052-.807-10.131-.761-15.21-.716-1.47.014-2.94.027-4.409.02-.112 0-.225-.025-.378-.059a8.371 8.371 0 0 0-.287-.059 2300.66 2300.66 0 0 0-1.798-4.596c.154-.044.307-.097.46-.15.34-.116.681-.234 1.031-.264 1.605-.142 3.211-.27 4.817-.4 1.706-.136 3.412-.272 5.117-.425.553-.05 1.102-.168 1.732-.304.302-.066.622-.135.971-.202-.141-.13-.257-.25-.36-.355-.208-.212-.361-.368-.546-.449-.253-.11-.586-.082-.88-.056l-.022.001c-.85.069-1.698.146-2.546.223h-.002c-1.615.148-3.228.295-4.847.379-1.291.066-2.585.05-3.916.033h-.001c-.605-.007-1.218-.015-1.841-.015l-1.317-3.047-.82-1.897c.152-.087.301-.182.448-.277.312-.2.62-.397.955-.511.996-.342 1.991-.688 2.985-1.034h.002c3.088-1.074 6.176-2.148 9.303-3.085 2.683-.805 5.407-1.473 8.131-2.14h.001l.002-.001c1.062-.26 2.125-.521 3.185-.79a1.72 1.72 0 0 1 .231-.043l2.432-.456 2.247-.7-.018-.094-.011-.053-.008-.04h-2.667l-1.779.128c-1.647.538-3.31.855-4.955 1.168-1.352.257-2.692.512-4.003.886l-.141.04c-2.832.805-5.671 1.611-8.471 2.527-2 .655-3.978 1.374-5.936 2.087h-.002c-.863.314-1.722.627-2.578.932-.565-.912-1.114-1.82-1.659-2.72l-.001-.002-.005-.008-.001-.002c-1.236-2.04-2.449-4.045-3.77-5.972-1.809-2.64-3.869-5.101-6.533-6.972-.738-.517-1.425-1.115-2.104-1.716-.105-.09-.143-.257-.182-.423a2.046 2.046 0 0 0-.059-.223l-.057-.07-.061-.076-.109-.136.026.013.076.038.065.033.059.03.047.025.06.03.011.003.42-.162.822-.318-2.496-1.373-.01-.006-.005-.003-.007-.004-.002-.001-.812-.447c.554-.364 1.109-.201 1.672-.036.574.167 1.158.338 1.759-.041-.225-.593-.707-.924-1.209-1.268-.438-.302-.893-.614-1.203-1.12h3.175l-1.354-1.08-.017-.014-1.084-.864c1.084-.339 2.099-.092 3.109.153.862.21 1.721.418 2.616.261.986-1.401 1.542-2.993 1.83-4.647.243-1.396.4-2.806.556-4.217l.001-.004c.07-.63.14-1.26.218-1.89l.191-1.56c.185-1.518.37-3.037.58-4.55.041-.303.152-.595.283-.94.07-.18.144-.377.217-.597l.252-1.746c-.182-1.833.406-6.495 1.012-8.01-.225-.702-.12-1.395-.015-2.088.058-.385.116-.77.118-1.158-.177-1.12.207-2.135.589-3.146l.039-.103a1.576 1.576 0 0 0-.131-.133c-.098-.093-.195-.184-.183-.256.406-2.197.837-4.394 1.268-6.587.215-1.1.168-1.574-.307-2.689-.791.176-1.216.753-1.64 1.328-.169.23-.338.46-.53.664l-.038.05-.05.065-.003.005-.001.001c-1.727 2.285-3.454 4.57-5.18 6.851-.147.194-.298.383-.449.573l-.002.003c-.1.125-.2.25-.298.378-.096.114-.19.23-.284.347-.232.284-.464.57-.71.837a7.845 7.845 0 0 1-.582.552c-.095.084-.191.169-.284.255-.011.061-.016.125-.021.189-.009.128-.019.255-.078.35a888.076 888.076 0 0 1-3.058 4.942l-.654 1.052-1.275 1.235c-.02.133-.029.266-.037.395-.017.262-.032.506-.145.691l-.494.805c-1.164 1.897-2.327 3.794-3.573 5.636-1.863 2.758-3.536 5.611-4.917 8.645-.636 1.4-.581 1.79.654 2.783.314.253.641.491 1.042.783.192.14.402.292.635.464l-.373.074c-.468.092-.832.164-1.326.264.125.132.234.247.334.35.156.164.288.3.415.442.172.19.341.383.512.581l.175.2c-.439.04-.874.077-1.37.12h-.007l-1.447.126 1.237.9.015.01.004.004.012.008.865.63c-1.282.27-2.312-.06-3.427-.536-1.711-.733-3.469-1.359-5.225-1.985-.733-.261-1.466-.523-2.195-.792l-.004-.003.066-.2.216-.662H97.327l.034-.15c.106-.478.183-.826.273-1.222-.694-.3-1.315-.23-1.936.074-3.31 1.628-6.832 2.63-10.376 3.583-1.155.308-2.288.766-3.362 1.298-1.647.815-3.346.895-5.21.598l.867-.755 1.004-.873c-.868-.043-1.513-.077-2.106-.107h-.001l-.633-.033c.235-.228.465-.454.721-.704l.009-.009.003-.003.79-.773-.462-.125a10.12 10.12 0 0 0-.535-.139 5.58 5.58 0 0 0-.468-.079 22.38 22.38 0 0 1-.24-.035l.668-.597c.594-.53 1.153-1.027 1.699-1.537.141-.133.254-.296.381-.48a8.2 8.2 0 0 1 .218-.305c-.234-.47-.464-.941-.694-1.411l-.001-.002c-.48-.982-.96-1.96-1.468-2.922-.951-1.798-2.071-3.491-3.191-5.185-1.109-1.676-2.217-3.352-3.162-5.13l-.28-.52-.005-.008-.11-.205-1.026-1.452c-.342-.541-.705-1.074-1.07-1.61-1.028-1.511-2.07-3.043-2.683-4.838-.064-.039-.135-.073-.205-.107-.149-.071-.297-.143-.386-.26-1.956-2.566-3.9-5.143-5.843-7.72l-.628-.833c-.332-.44-.661-.882-.99-1.323-.687-.92-1.373-1.84-2.079-2.744-.182-.233-.423-.419-.685-.621a10.392 10.392 0 0 1-.389-.311c-.497.66-.632 1.148-.486 1.805.147.65.218 1.318.29 1.985.032.295.063.59.101.883l.207.897.206.896c.065.435.133.87.202 1.305v.002c.165 1.042.33 2.084.437 3.131.069.653.058 1.314.048 1.976-.005.294-.01.588-.008.881.11.432.217.866.324 1.298l.064.258.209 1.793v.007l.002.009v.007l.001.003v.005l.001.003.207 1.774c.048.332.097.663.147.995v.002c.074.497.148.994.218 1.49.194 1.372.388 2.743.57 4.115.067.494.116.99.163 1.461l.045.446.267 1.805.079.599v.004c.127.963.246 1.868.37 2.771.055.389.113.777.17 1.165.058.388.115.775.17 1.164l.161 1.133c.194 1.356.387 2.712.555 4.072.142 1.144.605 2.153 1.05 3.122.128.28.255.556.372.832 1.184.532 2.304.31 3.44.085.814-.161 1.636-.324 2.497-.214-.698.679-1.294 1.258-2.101 2.047l1.333.062h.01l1.565.073-.726.643-.082.073-1.673 1.481c.671.398 1.273.24 1.85.088.52-.136 1.02-.268 1.533.015l-1.68 1.063-.003.001-.01.007-.004.002-1.068.677c.04.075.083.15.128.226.227.387.455.774.021 1.182-1.483 1.394-2.666 3.032-3.848 4.67-.587.814-1.175 1.628-1.8 2.412l-.14.177c-1.178 1.478-2.355 2.956-3.62 4.353-.845.934-1.74 1.82-2.637 2.708l-.001.001c-.49.485-.98.97-1.46 1.461-.152.155-.278.336-.437.565-.085.123-.18.26-.294.415l.784.092.074.008-.157.472-.23.697c-6.93-2.828-13.796-5.304-21.095-6.87l-1.633-.506c-1.545-.057-3.07-.36-4.601-.663-1.04-.207-2.082-.413-3.134-.544l-.763.068-.764.068a3.47 3.47 0 0 0-.02.099 3.78 3.78 0 0 1-.02.099l1.063.4c.957.099 1.885.343 2.814.586 1.099.289 2.199.578 3.35.628.323.015.639.187.97.369.16.087.322.176.491.25l1.553.294c6.471 1.34 12.553 3.617 18.68 5.911.815.306 1.63.611 2.448.915-.822 1.76-1.586 3.389-2.404 5.13-.371-.043-.739-.09-1.103-.136a47.824 47.824 0 0 0-2.306-.256 280.14 280.14 0 0 0-4.32-.3h-.002a604.146 604.146 0 0 1-3.172-.213 222.577 222.577 0 0 0-3.529-.228c-.225-.012-.454.03-.755.085-.158.029-.335.061-.541.092.108.137.197.275.277.398.145.225.257.398.391.42.802.122 1.609.206 2.417.29.451.048.903.096 1.353.15.704.083 1.407.173 2.11.263 1.028.132 2.056.264 3.086.375.925.1 1.853.18 2.782.259.636.054 1.273.109 1.909.17.11.01.215.055.361.118.083.035.18.076.296.12a2634.28 2634.28 0 0 1-1.768 4.567h-2.966c-1.08 0-2.16-.006-3.24-.012h-.004c-2.508-.014-5.017-.029-7.523.048-1.493.047-2.981.223-4.47.4-.726.085-1.452.171-2.18.242-.191.02-.385.015-.603.01-.11-.003-.227-.006-.354-.006h-.004l-1.523-.008c-.274.076-.55.156-.827.235h-.001c-.621.18-1.25.36-1.887.51-.222.052-.461.05-.707.049-.645-.004-1.333-.008-1.865.949l1.902-.117.011-.001 2.968-.183 1.674-.121c.147-.043.303-.094.465-.147.392-.128.82-.267 1.26-.337.407-.066.824-.064 1.242-.062.192 0 .385.001.577-.004 1.126-.036 2.252-.076 3.378-.116 2.747-.098 5.494-.196 8.243-.222 1.226-.012 2.45.105 3.743.228.604.058 1.222.117 1.862.165-.064.304-.119.601-.172.893-.11.605-.217 1.183-.394 1.74-.392 1.234-.808 2.46-1.224 3.686-.356 1.05-.712 2.1-1.053 3.154-.261.814-.467 1.649-.673 2.483l-.16.642c-.555 2.195-1.669 4.118-2.783 6.041v.001a79.47 79.47 0 0 0-.998 1.756 87.013 87.013 0 0 0-.889 1.698l-.39.756h1.43c-.099.301-.195.587-.289.864a39.432 39.432 0 0 0-.534 1.659l-.616 2.125c-.783 2.695-1.565 5.391-2.289 8.101-.365 1.368-.803 2.38-2.433 2.692-.784.151-1.517.568-2.274.998-.347.197-.698.397-1.062.575l-1.596.664-1.282.807-.004.002a309.05 309.05 0 0 0-3.036 1.924c-.512.329-1.01.677-1.51 1.025v.001c-.234.163-.468.327-.704.488-.065.069-.128.14-.19.211-.137.155-.274.311-.431.438-3.457 2.821-5.663 6.474-6.81 10.729-.658 2.442-1.217 4.94-.928 7.548.079.716-.03 1.454-.14 2.194-.053.355-.106.71-.138 1.063-.013.154-.035.308-.056.464-.084.611-.171 1.243.198 1.938.5-.478.614-1.024.718-1.515.046-.221.09-.431.167-.62l1.273 3.405c1.332 3.561 2.68 7.164 4.053 10.841.933-.404 1.453.193 1.998.82.079.09.157.181.238.269 1.937 2.113 3.942 4.149 6.96 5.076ZM66.88 53.705l-.07.035c-.076.039-.15.076-.227.112l.208.132c.029-.093.057-.186.09-.28Zm73.182 126.794c-.062.774-.515 1.089-1.125 1.225l-.42.384c-.153.141-.317.292-.505.463-.268-.802.114-.859.475-.913.12-.018.238-.036.329-.081l.536-.464.71-.614Zm-8.651-88.803.052.024.163.071c.609.303.631.807.066 1.511l-.108-1.178v-.004l-.024-.263c-.084-.07-.172-.14-.259-.209l.11.048Zm-45.527 92.122v.033h.004l1.49-.66c1.788-.76 3.565-.372 5.327.011l.22.048.135.029c1.772.378 3.394 1.152 4.914 2.157.946.631 1.918 1.247 2.948 1.72.631.289 1.307.479 1.982.67.303.085.606.171.904.265l1.53.139h.003l.027.002 1.56.142.001.011.003.061.002.049.002.102h-3.106l-.292.016-.008.001c-.203.01-.405.021-.606.038-1.293.107-2.386-.121-3.493-1.023-1.527-1.251-3.353-2.083-5.26-2.729-2.679-.909-5.29-1.049-7.921.099-.76.329-1.308.906-1.855 1.481l-.061.065-.072.075c-.25.263-.459.563-.679.878-.105.151-.213.305-.33.461l-.577-.028c-.413-.019-.814-.039-1.201-.056l.444-1.785c.073-.014.149-.023.224-.033.19-.023.38-.047.526-.141.27-.172.515-.385.76-.598.108-.095.217-.19.329-.282l2.126-1.218Zm-4.798 3.079-.02.019-.005.005-.002.001-.032.032-.747.737c-.418-.034-.854-.071-1.33-.112l-.012-.001-.06-.005-.98-.083c.082-.145.154-.282.222-.412.14-.267.263-.502.428-.7 2.258-2.71 4.983-4.768 8.462-5.549.209-.047.42-.097.63-.148l.003-.001h.003c1.463-.35 2.964-.709 4.482-.104 2.411-.073 4.64.524 6.69 1.804 1.253.325 2.219 1.118 3.179 1.905.3.246.599.491.905.722 1.619 1.217 3.332 1.841 5.364 1.811 3.459-.051 6.923-.025 10.383.037 1.253.026 2.506.249 3.748.554a58.51 58.51 0 0 0-1.092.155c-.822.121-1.644.243-2.47.289-1.588.084-3.178.143-4.767.202-1.313.049-2.627.098-3.939.161-.556.026-1.012-.07-1.535-.286-.65-.272-1.41-.349-2.126-.363-2.795-.055-5.283-.851-7.614-2.469-2.93-2.035-6.236-3.271-9.853-2.982-2.898.231-5.473 1.335-7.11 3.98l.008-.002-.813.803Zm49.088 2.914c-.478.931-.957 1.863-2.249 1.728l.007.018c-.424.018-.846.038-1.269.057l-.02.001-.724.033-.273.012-.253.011-2.59.286h-1.681c-.181.029-.366.054-.55.08l-.005.001-2.298.313-2.298.314-1.131.34-.016.005-1.148.344-.546.145-.248.066-.298.079c-.215.131-.472.19-.729.249-.498.114-.995.228-1.193.866l.393.406.499.518c.223.059.449.118.676.176l3.655.349 3.655.348.966-.031.513-.016.695-.022.071-.003h.002l2.101-.067h3.62l.029.592v.003l.001.009c.02.425.042.885.069 1.402-5.018 1.221-9.853 3.004-14.743 4.806l-1.942.714c-.022.036-.049.075-.079.119a1.889 1.889 0 0 0-.239.428c-.3.839-.055 1.375.782 1.397l.867.025c2.735.08 5.467.16 8.186-.414 1.461-.31 2.942-.526 4.424-.742.712-.103 1.424-.207 2.134-.321.107-.018.211-.029.314-.041.381-.042.746-.082 1.151-.4.599-.469 1.578-.575 2.382.264-.634.413-1.262.825-1.887 1.235l-.008.005-.018.012h-.001l-.004.003a278.937 278.937 0 0 1-4.563 2.949c-2.298 1.437-4.414 3.095-6.262 5.109-.099.752.244 1.218.993 1.155.176-.014.362 0 .548.015.523.042 1.058.085 1.44-.51.099-.154.435-.224.658-.216.995.037 1.829-.377 2.665-.792.312-.154.624-.309.944-.441.313-.127.624-.26.936-.392 1.071-.455 2.145-.912 3.262-1.17.912-.212 1.707-.637 2.501-1.061.455-.243.91-.487 1.386-.689.791-.335 1.502-.862 2.177-1.362h.001c.286-.212.565-.418.84-.604.512.152.993.292 1.479.434l1.334.392c-1.07 1.373-2.457 2.321-3.814 3.248l-.168.115c-1.527 1.045-3.12 2.065-4.823 2.751l-.441.177c-2.883 1.161-5.78 2.327-8.842 2.962-2.517.521-5.038 1.02-7.574 1.442-.71.117-1.432.168-2.153.22-.722.051-1.444.103-2.154.22-2.133.349-4.277.356-6.42.364a92.11 92.11 0 0 0-2.831.039c-.548.02-1.1.081-1.65.142-.894.099-1.787.198-2.665.119-1.251-.112-2.507-.162-3.762-.213h-.001c-2.406-.096-4.814-.192-7.197-.723-.67-.147-1.355-.225-2.044-.304-.92-.105-1.847-.211-2.75-.484-.79-.238-1.595-.433-2.4-.629-1.17-.284-2.34-.568-3.463-.981-2.174-.8-4.333-1.64-6.401-2.762-2.5-1.353-4.797-2.945-7-4.691-3.15-2.498-5.733-5.571-8.001-8.858-1.222-1.769-2.248-3.675-3.273-5.58-.388-.721-.776-1.442-1.174-2.155-.296-.531-.548-1.084-.8-1.637-.12-.264-.24-.529-.365-.791l-1.436-3.114-.056-.096c-.596-1.02-1.192-2.041-1.135-3.293-.276-.554-.552-1.112-.828-1.669l-.005-.011c-.439-.781-.815-1.584-.826-2.692.139.02.273.027.401.034.26.014.489.027.655.135 3.106 2.021 6.54 3.242 10.044 4.328a40.7 40.7 0 0 1 1.682.574c.798.285 1.596.569 2.413.783 1.121.291 2.259.519 3.397.746h.004c.622.125 1.244.249 1.864.384 2.575.557 5.155 1.107 7.774 1.426l1.623.2.008.001.008.001.007.001.026.003h.002c1.59.197 3.182.394 4.775.557 1.43.146 2.861.273 4.293.401h.006c1.267.113 2.534.226 3.8.351 5.37.531 10.75.463 16.129.395 2.576-.032 5.153-.065 7.729-.032a35.4 35.4 0 0 0 7.205-.642c.524-.103 1.073-.089 1.62-.075.189.005.377.009.564.009a21.05 21.05 0 0 0 5.199-.612c.416-.103.858-.113 1.298-.123.171-.003.342-.007.511-.016l.168-.009c1.023-.055 2.024-.108 3.029-.501.539-.211 1.151-.233 1.875-.26.36-.013.748-.028 1.168-.067l-1.151 1.425-.764.945-.001.003Zm16.899-16.794c-.42.216-.84.418-1.246-.03v.008l-.975-.022c-.303.038-.605.074-.908.11-.705.082-1.409.165-2.107.286-.856.144-1.708.321-2.577.501-.387.08-.778.161-1.175.24-.321-.525-.592-1.027.249-1.236a46.19 46.19 0 0 1 2.398-.508l.009-.002a79.5 79.5 0 0 0 1.082-.213l.057-.01.082-.014.137-.024h.001l.002-.001h.002c.109-.019.217-.037.325-.057.201-.029.403-.064.604-.098.444-.077.888-.154 1.333-.166a92.765 92.765 0 0 1 4.187-.011c1.31.021 2.537-.307 3.788-.642l.11-.029c1.333-.356 2.086-1.115 2.312-2.469.301.182.593.361.887.541l.363.222c.006.06.016.119.026.178.023.128.044.25.014.361-.329 1.233-1.169 1.966-2.382 2.204a73.696 73.696 0 0 1-3.043.513h-.003l-.002.001h-.005l-.002.001h-.001c-.465.072-.93.143-1.394.219-.165.027-.33.062-.554.11-.142.03-.308.065-.513.106.723.34 1.381.286 1.997.235.43-.036.841-.069 1.24.033l-.142.094c-1.358.888-1.416.927-3.204.841-2.865-.135-5.678.044-8.363 1.167a50.28 50.28 0 0 0-1.042.45c-.24.106-.498.22-.789.346.068-.27.126-.505.182-.736l.209-.849c.62-.095 1.237-.199 1.854-.303 1.53-.259 3.052-.516 4.584-.621.274-.02.552.002.83.024.607.047 1.218.095 1.811-.284-.08-.155-.164-.312-.248-.466Zm-55.367-49.995.031-.07-.007.004.855-2.861.243-1.015.466-1.942.002-.007.018-.075.41-1.711h1.126a.84.84 0 0 0 .071.092c.056.065.113.132.108.194-.289 2.957-.654 5.902-1.74 8.693a17.064 17.064 0 0 0-1.143 5.483l-.016.365v.021c-.055 1.212-.11 2.431-.027 3.638.244 3.583-.486 7.005-1.63 10.35-1.227 3.591-1.746 7.284-1.852 11.058-.008.29-.037.594-.14.862-.92 2.406-2.082 4.644-4.31 6.125-.823.547-1.637 1.107-2.45 1.666l-1.149.788c-2.945 2.006-6.13 2.344-9.51 1.39-.427-.121-.862-.213-1.297-.305-.45-.096-.9-.192-1.34-.318-1.85-.536-3.588-.29-5.31.693-.507-.268-1.034-.544-1.63-.857l-.507-.266c1.612-1.419 3.23-2.219 5.287-1.368.106 0 .2.03.285.088.25.083.505.158.758.233.548.162 1.096.324 1.613.56 2.828 1.287 5.63 1.14 8.367-.173l.707-.338.003-.002.003-.001.019-.009.01-.005c1.924-.917 3.85-1.834 5.57-3.14 1.56-1.185 2.577-2.67 3.08-4.548.424-1.581.71-3.173.757-4.823.03-.999.158-1.995.286-2.99.058-.445.115-.889.163-1.334.045-1.977.73-3.772 1.416-5.568.26-.68.519-1.36.744-2.05.648-2.712.657-5.462.666-8.217.002-.506.004-1.012.01-1.517.025-2.054.16-4.108.774-6.093a.347.347 0 0 1 .051-.341l.095-.214.065-.145Zm-36.822 54.675.07-.022-.004-.004c.239-.443.602-.412.965-.381.143.012.285.024.42.007a.372.372 0 0 1 .281-.081 34.82 34.82 0 0 0 1.134-.23h.002c.848-.182 1.697-.364 2.55-.397l.042-.001c2.887-.11 5.785-.22 8.657.339 2.704.524 5.283 1.261 7.147 3.539a2.807 2.807 0 0 0-.065.188c-.04.123-.075.236-.144.322-.07.091-.173.159-.302.244a4.908 4.908 0 0 0-.21.145c-6.367-2.905-12.973-3.877-19.845-1.875.161.143.318.286.475.429 2.616-.539 5.232-1.056 7.928-.759 1.153-.317 2.268-.025 3.351.258.243.064.484.127.723.182 1.627.379 3.219.907 4.893 1.461l.002.001.005.002.006.002c.72.238 1.455.482 2.215.72l-1.034 1.478-.347.496-1.267-.538c-1.54-.654-3.022-1.283-4.502-1.924-1.535-.663-3.146-.803-4.79-.803-.517 0-1.033-.018-1.55-.037h-.008a62.698 62.698 0 0 0-.612-.021l-.531.036h-.008l-.539.037-2.464.815-.006.002-.072.024-.059.019-3.877 1.282-.595-.292-1.272-.625c-.029-.194-.054-.389-.08-.583l-.117.05-.119.051-.107.046-.02.009-.583.251-.764-.322-.014-.006-.003-.001-.026-.011-1.48-.625c2.195-1.437 4.183-2.574 6.55-2.897Zm30.218-9.316.03-.008-.004-.011c1.903-.829 3.906-.81 5.919-.663l.123.005.236.013.36.018c2.643-.18 5.011.817 7.357 1.804l.133.056c2.132.896 4.011 2.232 5.889 3.567.297.212.594.423.892.632l.159.112c1.773 1.247 3.537 2.488 5.701 3.061 1.253.334 2.474.488 3.749.297.31 1.045.025 1.511-.936 1.408a10.295 10.295 0 0 1-1.94-.418 37.275 37.275 0 0 1-7.453-3.249c-3.31-1.882-6.704-3.573-10.361-4.754-4.487-1.452-8.794-1.137-13.076.66-3.094 1.299-5.882 3.1-8.52 5.19-.792-.327-.59-.769-.388-1.207.085-.187.17-.373.18-.549.072-.041.148-.079.224-.116.174-.086.347-.171.477-.299 3.142-3.096 7.033-4.654 11.25-5.549Zm-11.97 5.955c.081-.351.165-.703.267-1.134l.122-.512c-.354-.115-.7-.265-1.055-.419-.821-.355-1.685-.73-2.785-.732l1.49 1.86.874 1.092 1.087-.155Zm43.412-54.982c.07.103.099.213.092.338l.003.003.134.374.133.374.033.36c.085.402.189.803.294 1.205.234.897.468 1.794.48 2.694.02 1.591-.065 3.185-.151 4.779-.055 1.022-.11 2.044-.137 3.066-.051 2.025.329 4.02 1.227 5.813 1.411 2.817 1.447 5.755 1.085 8.737-.372 3.07-.029 6.074.559 9.063.263 1.342 1.012 2.498 2.189 3.246l.188.12c1.109.707 2.237 1.426 3.443 1.915 1.367.558 2.613 1.247 3.742 2.183 2.762 2.288 6.068 3.469 9.426 4.441 1.069.31 2.221.344 3.371.377.43.013.859.026 1.283.052 1.333.086 2.668.156 4.002.226l.008.001c.843.044 1.686.088 2.53.137.745.044 1.421.249 1.944.872-.584 1.123-1.636 1.198-2.614 1.267-.124.009-.247.017-.368.028-.902.081-1.813.071-2.724.06a41.566 41.566 0 0 0-1.835.006c-.496.017-.99.076-1.485.134-.462.055-.923.109-1.387.13-.588.026-1.187-.051-1.768-.154a90.848 90.848 0 0 1-2.453-.473l-.006-.001c-.417-.085-.851-.172-1.312-.263a106.91 106.91 0 0 0-.269-.373l-.006-.008-.616-.851.794.111.657.092.379.053c-.012-.087-.019-.169-.025-.237-.008-.107-.014-.18-.037-.184-3.281-.745-6.01-2.476-8.542-4.625-.957-.811-2.042-1.534-3.178-2.062-.568-.266-1.214-.36-1.95-.467-.356-.052-.734-.106-1.134-.186-2.027-1.588-3.091-4.045-3.73-6.763-.697-2.95-.693-5.937-.688-8.928 0-.537.001-1.075-.002-1.613-.011-1.386-.198-2.78-.41-4.152-.083-.542-.323-1.066-.558-1.58l-.128-.283c-1.023-2.307-1.615-4.651-1.265-7.233.161-1.186.154-2.394.148-3.602a52.9 52.9 0 0 1 .006-1.643l-.044-1.448c-.025-.025-.056-.05-.088-.076-.071-.055-.142-.112-.142-.17-.037-2.516-1.056-4.717-2.181-6.873l-.164-.313c-.773-1.464-1.531-2.902-.961-4.624-.142-.121-.286-.226-.422-.327-.292-.215-.551-.406-.693-.663-.115-.211-.088-.5-.059-.808.013-.143.026-.291.026-.436 1.137.063 1.772.756 2.273 1.486 1.589 2.321 2.725 4.848 3.083 7.676Zm-52.186 43.162-3.252 1.221v.004c-.157.172-.314.346-.466.515l-.002.001-.001.002c-.158.175-.312.345-.459.505-.41-.107-.785-.203-1.208-.311l-.005-.001-.898-.23 1.965-1.137c2.207-1.453 4.596-1.981 7.198-1.427l.287.111c1.752.675 3.497 1.347 5.354 1.73.825.172 1.57.165 2.305-.128 2.992-1.196 5.794-2.715 8.165-4.959 1.688-1.599 2.404-3.639 2.576-5.854.46-5.872 1.034-11.737 1.87-17.568.142-.979.367-1.944.593-2.91.201-.862.403-1.724.544-2.596.244-1.502.435-3.013.627-4.525.122-.957.243-1.914.378-2.869l.02-.143.02-.146.016-.121.034-.247v-.002c.279-2.054.559-4.115 1.572-6.053h1.4l-.427 1.597c-.223.84-.44 1.654-.662 2.467-.133.483-.28.964-.425 1.445-.31 1.025-.621 2.05-.81 3.096-.34 1.903-.534 3.847-.669 5.78-.072 1.033-.058 2.072-.044 3.111.007.489.014.978.011 1.467-.014 2.516-.453 4.958-1.49 7.254-.863 1.911-1.199 3.932-1.418 5.982-.085.796-.135 1.597-.184 2.397-.064 1.025-.128 2.049-.265 3.065l-.004.025c-.324 2.394-.657 4.859-2.67 6.544-3.07 2.571-6.577 4.335-10.512 5.054-.805.147-1.693-.081-2.553-.302a25.2 25.2 0 0 0-.633-.157c-.465-.107-.908-.302-1.352-.496-.221-.097-.443-.195-.668-.281-1.246-.477-2.506-.888-3.858-.91Zm49.698-14.961c-.024-.253-.048-.506.04-.737h.004l.03-.124.038-.165c.044-.186.099-.425.192-.811 1.189 2.238 1.169 4.355 1.148 6.659a72.32 72.32 0 0 0-.005 1.237 212.15 212.15 0 0 0-1.18-1.261l-.04-.122c-.07-.216-.14-.432-.223-.645-.06-.15-.13-.296-.2-.442-.041-.086-.082-.171-.122-.258l-.023.242c-.016.161-.031.322-.053.484a.32.32 0 0 1-.059.12l-.03.047-.025.042c-.588-.268-.902-.686-.902-1.357v-10.457c.612.182.624.6.636 1 .001.061.003.122.007.181.118 1.872.23 3.746.342 5.62l.001.008.004.073.106 1.767c.39-.311.352-.706.314-1.101Zm-14.944-35.65c-.64.04-1.266.079-1.865-.304h-.004l-.196-.032-.057-.009-.06-.01a5.113 5.113 0 0 0-.122-.019c-.654.473-1.308.623-2.006-.044.73-.593 1.603-.821 2.474-1.047.803-.209 1.603-.417 2.287-.912.186-.133.469-.133.831-.133.193 0 .409 0 .645-.021l-.437 1.108-.001.002-.005.011v.002l-.551 1.397a6.31 6.31 0 0 0-.933.011Zm10.914 12.56.001-.002v.004l-.001-.002Zm-.281-2.834.281 2.834-.256 1.691-.001.005-.001.011-.293 1.937c-.84 2.637-1.023 5.34-.83 8.087a114.176 114.176 0 0 1-.431.019c-.526-1.731-.409-3.474-.12-5.223.1-.617.242-1.228.384-1.839.295-1.274.591-2.548.515-3.879l.025-.022c.028-.105.063-.21.097-.314.076-.228.152-.455.152-.684.014-3.106-.548-6.14-1.151-9.279-.431.021-.819.043-1.207.064l-.426.024c.052.448.104.877.155 1.294.087.715.169 1.396.243 2.077.416 3.876.771 7.742-.72 11.516-.837 2.117-.763 4.31 0 6.43 1.345 3.745 1.604 7.563 1.078 11.48-.054.411.028.841.112 1.279.04.21.081.422.107.635h1.323l.253-5.059.001-.02.003-.057.003-.052.178-3.57.186-.794.002-.008.001-.005.002-.005.185-.791c.049-.275.109-.551.17-.826.135-.616.27-1.232.272-1.848.008-2.626.435-5.179 1.027-7.72.044-.189.029-.391.015-.595a3.914 3.914 0 0 1-.015-.304l.056-.338.054-.326c1.125-2.729.31-5.285-.698-7.819l-.047-.12c-.165-.43-.345-.897-.98-.86.102 1.014.199 2 .296 2.973v.001Zm-8.787-10.065c.212-1.195.395-2.221 1.721-2.57.76-.454 1.52-.506 2.269.026.197.844.395 1.684.621 2.645-.995.283-1.949.265-2.92.248-.576-.011-1.159-.022-1.76.03a12.252 12.252 0 0 0 .054-.294l.015-.085ZM43.36 171.132c.302-.135.603-.27.9-.411v-.004l1.78-.75 1.059-.446-.008.07c-.094.793-.154 1.306-.833 1.559-2.301.865-3.847 2.604-5.118 4.621-1.078-.744-1.264-1.232-.873-2.178.1-.15.191-.316.282-.481.199-.363.397-.726.7-.917.666-.416 1.389-.74 2.111-1.063Zm82.374-5.966-.012-.006a94.905 94.905 0 0 0 .687.95c-.099.054-.21.128-.32.201-.232.155-.458.307-.55.247-.891-.572-1.728-.294-2.6-.005-.197.066-.395.131-.597.188-.208-.382-.405-.746-.594-1.097l-.005-.007-.028-.052-.006-.013-.013-.023-.154-.285-.124-.228.132-.115c.21-.182.385-.334.559-.487-.585-.063-1.027-.387-1.327-.972 2.141-1.261 4.9-1.375 7.881 2.047l-1.266.293-.13.03a235.22 235.22 0 0 0-1.533-.666ZM105.5 142.621c.074-.311.149-.623.237-.927h-.003v-3.433l.024-.001.024-.002.026-.002.048-.004.086-.009.192 1.726.192 1.725v7.659h-2.12a24.488 24.488 0 0 0-.012-.386v-.012c-.049-1.502-.097-2.936.655-4.348.323-.604.487-1.295.651-1.986Zm-27.69 36.065c.145-.123.287-.241.413-.373h.004l-.333-.334-1.68 1.431-.126-.141c-.15-.169-.314-.352-.51-.575 1.147-1.36 2.572-2.285 4.008-3.128 2.393-1.412 4.892-2.549 7.72-2.909 1.739-.22 3.383.052 5.03.389 5.535 1.137 10.705 3.18 15.36 6.47.625.444 1.324.786 2.059 1.146.347.17.701.343 1.061.534-1.137.298-1.985-.154-2.812-.595-.17-.09-.339-.18-.509-.263-.819-.403-1.631-.822-2.443-1.242-1.655-.855-3.308-1.709-5.021-2.415-1.136-.468-2.363-.711-3.588-.954h-.002a44.17 44.17 0 0 1-1.646-.348c-.075.045-.15.102-.225.16-.163.125-.326.251-.491.251-1.188.014-2.373-.006-3.56-.026l-.952-.015c-4.589.363-8.783 1.907-12.864 4.603.181-.891.663-1.295 1.106-1.666Zm34.801-55.299-.038-.409-.058-.62-.008.004c-.862-2.018-1.728-4.035-2.617-6.109l-.521-1.216c.489-.036 1.001-.077 1.648-.128.163.29.329.578.494.867l.001.002c1.438 2.511 2.866 5.004 3.092 8.007-.227.82-.105 1.634.017 2.448.111.744.223 1.488.067 2.235.152 1.365-.211 2.658-.57 3.937-.081.289-.162.577-.237.865-.179.687-.377 1.37-.574 2.053-.491 1.699-.982 3.397-1.191 5.168-.028.243-.069.485-.11.727-.07.416-.141.831-.145 1.247a470.446 470.446 0 0 0-.014 5.954v.002c.001.787.003 1.582.003 2.388l-1.215-.341a277.36 277.36 0 0 0-.978-.276l.16-2.505.085-1.342c.008-.115.019-.229.031-.343.024-.251.049-.5.039-.75a21.777 21.777 0 0 1 1.242-8.245c1.385-3.873 1.655-7.827 1.417-11.869-.01-.166.017-.335.045-.503.012-.073.023-.146.032-.219l-.095-1.013-.002-.016ZM65.14 183.235a10.487 10.487 0 0 1 5.074 2.538h.004l.318.065.006.001.01.002.335.068.367.074.062.013.372.075.033.331v.002l.001.006.034.342c-.182-.022-.364-.041-.546-.061-.828-.088-1.655-.176-2.442-.555-3.106-.268-6.105-1.019-9.346-1.9 2.028-.891 3.825-1.368 5.718-1.001Zm6.55 2.828c-2.116-1.836-4.379-3.312-7.325-3.349-2.013-.022-3.993-.014-5.845.954-.34.18-.826.191-1.224.136-.476-.064-.945-.181-1.496-.318a38.417 38.417 0 0 0-.802-.196c1.131-1.16 2.459-1.433 3.756-1.699.298-.061.595-.122.887-.193l.139-.007.145-.006c.139-.005.278-.01.418-.017 2.94-.832 5.732-.183 8.457.924 1.086.441 2.153.931 3.233 1.427l.01.005.008.004.006.002c.46.212.923.424 1.39.635l-.242.617-.01.025-.489 1.239-.358-.064-.446-.08-.213-.039Zm23.734-32.969.01-.011.008-.011c.142-.558.526-.756 1.067-.723 1.903-1.097 3.88-1.852 6.148-1.885 2.193-.033 4.333.081 6.478.583 2.89.679 5.082 2.186 6.361 4.922.176.356.349.714.523 1.072.422.872.844 1.744 1.311 2.592.551 1.005 1.138 1.991 1.725 2.977l.001.002c.276.464.552.927.824 1.393l.021.036 1.882 3.225-1.052 3.132a4.84 4.84 0 0 0-.301-.206c-.223-.144-.44-.284-.561-.484a7.482 7.482 0 0 1-.472-.979c-.117-.275-.234-.55-.376-.81-.679-1.266-1.293-1.49-2.659-.928a217.207 217.207 0 0 0-5.137 2.2c-1.564.689-3.123 1.391-4.696 2.099l-.012.005-.437.197-.386.174-.581.261-.357-.253-.241-.171-.052-.038-.242-.172.027-.047.044-.087c.04-.084.075-.156.13-.185 1.845-.994 3.727-1.885 5.718-2.575 1.633-.565 2.882-1.771 3.942-3.129.767-.979.877-2.119.504-3.278l-.06-.19c-.254-.799-.514-1.616-.934-2.33l-.12-.206c-.965-1.65-1.938-3.312-3.102-4.815-2.276-2.942-4.563-2.909-7.764-1.765-.48.169-.88.655-1.236 1.088l-.068.083c-.216.26-.365.578-.513.895-.06.128-.12.257-.185.381-.435.832-.95 1.544-1.987 1.687-.253.037-.494.147-.736.258-.147.067-.294.135-.444.186-3.01 1.027-4.319 3.301-4.509 6.327-.042.649.012 1.304.07 1.996.026.324.054.656.073 1H91.65c-2.397-4.647-.285-10.255 3.773-13.493Zm-11.129 35.092c.132-1.25 1.038-1.701 1.947-2.152 1.78-1.361 3.785-1.244 5.828-.899 2.74.433 5.078 1.727 7.566 3.466h-4.245c-1.06-1.456-2.62-2.08-4.469-2.12-1.772-.04-3.375.312-4.475 1.705h-2.152Zm52.398-15.669.501-.126c.886-.223 1.774-.447 2.66-.673l-.013-.095a1.154 1.154 0 0 1-.013-.095l-1.461-.262c-.533-.095-1.084-.193-1.674-.3v1.551Zm-.025.006c-.072-.105-.147-.21-.222-.314-.177-.245-.353-.49-.48-.758-.077-.165-.146-.335-.216-.505-.262-.638-.53-1.292-1.231-1.795v3.721l.111.043c.111.04.221.08.258.157.706 1.474.654 2.886-.537 4.122 1.224 1.662 1.301 3.206-.014 4.442l.447 2.446.002.008.094.514c1.006-.181 1.663-.842 2.346-1.53l.002-.002a20.2 20.2 0 0 1 .207-.207l-.571-.867-.236-.358c1.549-1.552 1.348-3.265.138-4.959.947-1.456.567-2.813-.106-4.156l.008-.002Zm-2.191.347.008.253c.005.212.011.423.042.631.175 1.185.168 2.318-.961 3.169l.026.049c.835 1.593 1.66 3.167-.289 4.528.519 1.027.742 2.006.358 3.11l-1.188-.674-.047-.026-.06-.034-1.884-1.07-1.096-.418c-.367-.014-.734-.031-1.102-.046l-.323-.013-.215-.04-.182-.034-.346-.065-.743-.14-.388.045c-2.066.237-4.133.475-6.203-.015l-1.823.143c-.362-.004-.72-.004-1.082-.004l-.486-.077h-1.487c-.672-1.878.431-2.916 1.579-3.833.029-3.176.135-3.337 2.531-3.675l.001-.445a72.19 72.19 0 0 0-.001-.93c-.018-1.621.11-1.797 1.674-2.315.114-.037.223-.096.328-.153.05-.027.099-.054.147-.078 1.216-3.667 1.856-4.173 4.26-3.396 2.652-1.577 2.941-1.537 5.111.693 3.014-.095 3.712.859 3.087 4.343.153.107.322.222.495.341l.002.001.003.001.254.174Zm-75.718-59.245.002.004h-.004l.002-.004Zm.787-1.192-.787 1.192a91.202 91.202 0 0 1-.245-.654v-.001l-.188-.5H44.991a849.4 849.4 0 0 1-.903 2.208l.723.002h.002c.384.001.707.002 1.029-.002.758-.01 1.517-.023 2.276-.036h.005l1.139-.019 4.599-.075h.041l.001-.001h.007c1.54-.024 3.081-.049 4.62-.075.944.005 1.887.017 2.83.029h.002c2.201.029 4.402.058 6.598-.014 1.516-.051 2.93-.649 4.041-2.054H59.546Zm34.58 12.774c.17-.4.342-.8.486-1.202h.004l.031-.117.037-.143c.031-.117.061-.233.093-.349.1-.642.199-1.284.297-1.927v-.001c.25-1.623.498-3.247.78-4.865a4.47 4.47 0 0 0 .03-.224c.052-.436.111-.938.8-1.162.272.806.203 1.592.134 2.366-.024.275-.049.549-.057.821-.01.323-.056.646-.103.969-.057.399-.114.798-.102 1.195.099 3.081-.46 6.059-1.53 8.909-.82 2.186-.804 4.412-.76 6.653.018.939-.176 1.75-.516 2.623-.32.822-.487 1.709-.653 2.594-.058.306-.116.613-.18.916-.062.298-.106.603-.15.907-.076.533-.152 1.064-.328 1.561-.508 1.427-1.001 2.828-1.173 4.357-.058.497-.326.971-.594 1.444-.122.215-.243.43-.345.647l-.376-.092c.015-.168.022-.338.03-.508.017-.366.033-.732.123-1.08l.308-1.197c.559-2.174 1.118-4.349 1.778-6.49.563-1.831.713-3.675.746-5.568l.018-1.075c.04-2.442.08-4.885.329-7.306.092-.904.468-1.78.843-2.656Zm21.645 12.645c.279.672.558 1.343.77 2.034v-.004l.409 2.256c.503.25.433.657.368 1.039-.023.134-.046.264-.043.384.021 1.097.017 2.195.012 3.291-.007 1.525-.014 3.05.05 4.573.113 2.677.672 5.292 1.918 7.684.378.729.871 1.397 1.378 2.084.233.316.469.636.697.967l-.92.525a40.363 40.363 0 0 0-.583-.755c-.755-.96-1.477-1.879-1.843-3.093-.226-.747-.607-1.444-.99-2.144-.231-.424-.463-.848-.662-1.285-.215-.473-.449-1.056-.365-1.537.541-3.084-.029-6.015-.99-8.923-.72-2.179-1.421-4.361-1.308-6.723.084-1.765.373-3.47.986-5.172-.149 1.756.484 3.278 1.116 4.799Zm-32.075-23.68c-1.948.008-3.895.016-5.842.022l.004.011a6.446 6.446 0 0 0-.22-.103c-.16-.072-.318-.143-.46-.238-.117-.079-.215-.188-.314-.296l-.033-.037-.03-.031-.026-.029-.02-.02-.023-.024c-3.246 2.654-6.492 5.31-9.702 7.938l-.036.029-.036.03-.017.014-.318.26-3.232-.649-.014-.002-2.059-.413c1.893-2.365 13.693-8.967 17.5-9.635l-.932 1.353-.004.007-.006.008.173.22.002.003.172.217.201-.069h.002l.202-.07c.098-.031.196-.07.295-.109.218-.087.436-.174.655-.174 10.332-.011 20.664-.003 30.997.019.202 0 .402.104.603.209.094.049.187.097.281.136v1.093c-.378 0-.749-.004-1.117-.008a48.157 48.157 0 0 0-2.347.015 19.64 19.64 0 0 0-1.461.127c-.906.1-1.809.201-2.678.067-.921-.142-1.812-.065-2.699.012-.532.046-1.062.092-1.598.091-5.281-.016-10.56.005-15.84.026h-.023Zm-3.628-19.593c-.077-1.34.04-2.648.72-3.848l-.008.004-.939.02h-.015l-.92.02c-.012-.288-.024-.574-.038-.872v-.01l-.024-.545h1.845l.046.379c.032.262.062.501.09.74.777-.682 1.636-.609 2.524-.279 1.574.587 3.145 1.17 4.621 1.717l-.056 1.206c-.045.981-.088 1.923-.148 2.865-.055.87-.73 1.621-1.59 1.695a5.847 5.847 0 0 1-1.614-.118c-.755-.15-1.5-.349-2.244-.547l-.383-.102c-1.264-.334-1.79-.994-1.867-2.325Zm-1.165-3.802c.475.764.326 1.514.173 2.288-.085.427-.17.86-.155 1.308l-.23.087-.005.002c-.69.26-1.344.507-2.001.748l-.183.066c-.604.218-1.205.436-1.775.762 1.221.393 2.221-.11 3.248-.625.26-.13.521-.262.789-.38.328.485.486.932-.187 1.126l-.06.018c-1.719.496-3.445.995-5.194 1.369-.92.198-1.943.356-2.666-.473 0-.507-.01-1.008-.018-1.504-.019-1.117-.038-2.21.043-3.297.117-1.581 1.728-2.88 3.328-3.008 1.848-.146 3.444.418 4.893 1.513ZM75.841 170.4c-.461-.062-.936-.125-1.158-.744l.003-.004c-.029-.154-.062-.308-.095-.462-.176.005-.343.043-.51.08-.321.072-.645.144-1.046-.01a16.403 16.403 0 0 0-6.222-1.104c-.904.013-1.489-.512-2.105-1.065-.22-.198-.445-.4-.69-.582 2.114-1.035 4.048-.501 6.027.046l.034.009c4.268 1.185 8.465 1.332 12.367-1.258 1.827-1.214 3.826-2.05 5.945-2.6.22-.058.452-.07.72-.084.141-.007.292-.015.456-.03l.027.279.097.964-.352.174c-.292.144-.587.29-.886.428-.34.159-.68.316-1.02.473l-.005.002c-.753.347-1.506.693-2.245 1.069-.129.067-.199.25-.27.435-.029.077-.058.154-.093.223-.14.06-.289.11-.437.16-.343.115-.684.23-.921.458-.775.741-1.6 1.207-2.696 1.244-.446.014-.914.227-1.316.455-.238.135-.451.314-.665.493-.18.151-.36.302-.555.427-.312.203-.644.373-1.012.564-.166.085-.34.175-.522.272-.219-.227-.534-.269-.855-.312Zm8.995-3.747 2.017-.919c.959-.438 1.939-.884 2.97-1.356l.559 2.083-3.084.487-.018.003-2.824.446.087-.17.106-.208.002-.004.185-.362Zm-23.93 2.352-.213.193c1.685.594 3.08 1.646 4.41 2.794 1.13.976 1.79 2.208 2.02 3.793-.59-.003-1.18-.011-1.77-.019-3.566-.049-7.097-.097-10.575.954-1.092-2.406-.332-4.423.863-6.382-.091-.089-.184-.176-.276-.263l-.134-.125c-1.815 2.039-2.126 4.401-1.41 7.02l-.355.139-.654.257-.029.012c-.486.191-.98.386-1.53.6-1.75-1.929-2.945-4.32-3.117-6.91-.146-2.164 1.323-3.858 3.321-4.845 2.978-1.471 6.025-1.32 8.977-.022 1.651.726 3.266 1.643 4.695 2.74a27.373 27.373 0 0 1 6.393 6.972c.057.089.088.195.135.353.03.097.064.214.114.359l-3.362-.568-.038-.007-.023-.004-.008-.001-.278-.047c-.88-3.778-3.36-6.03-6.945-7.185l-.212.192Zm40.94-20.567c-.679 1.247-1.742 1.739-3.09 1.757v-.004l-.14.15-.081.087-.006.006c.01-.041.022-.082.033-.122l.018-.063v-.001a7.366 7.366 0 0 0 .051-.185c.234-.386.45-.79.665-1.194.474-.889.948-1.778 1.619-2.474 2.181-2.255 2.652-4.933 2.089-7.775-.511-2.597-.175-5.073.264-7.592v-.003c.292-1.671.584-3.343.833-5.022.08-.539.054-1.101.011-1.647-.196-2.375-.406-4.753-.618-7.163l-.172-1.955c.399-.308.828-.284 1.284-.258.262.015.534.03.813-.017.048.284.096.551.141.807a32.3 32.3 0 0 1 .323 2.123l.042.335c.367 2.943.735 5.887.09 8.846a19.602 19.602 0 0 1-.771 2.604c-.767 2.065-.851 4.137-.281 6.264.102.384.117.792.133 1.199.007.192.015.384.031.573.154 2.072.128 4.13-.617 6.107-.072.189-.183.363-.294.537l-.064.101c-.03.049-.06.097-.088.147-.227.391-.457.78-.687 1.17l-.003.005c-.52.881-1.04 1.761-1.528 2.657Zm-1.323-22.208v-.002c.004-.221.007-.441.008-.662l-.004.004-.059-.442-.039-.289-.029-.219c-.444-2.226-.285-4.461-.126-6.691.018-.251.036-.501.052-.751.027-.4.104-.797.188-1.23.042-.219.086-.446.127-.688l.306-.044.693-.101.517-.075c.057.332.115.647.171.949v.003c.122.66.234 1.264.304 1.872.119 1.053.211 2.108.302 3.163.04.459.08.918.122 1.378.288 3.128-.263 6.183-.83 9.235a45.64 45.64 0 0 1-.173.881c-.134.658-.267 1.315-.338 1.98-.227 2.087-1.023 3.957-2.035 5.751-.976 1.72-1.378 3.605-1.674 5.524-.072.472-.128.949-.184 1.425-.079.67-.157 1.34-.283 2l-.019.1-.028.158c-.16.901-.331 1.856-1.718 1.983.328-1.32.333-2.67.338-4.018.006-1.805.013-3.606.795-5.327a75.032 75.032 0 0 0 1.768-4.189c1.286-3.381 1.882-6.895 1.841-10.515-.004-.388.002-.775.007-1.163Zm-1.046 53.721c.121.085.243.17.367.242l-.003-.003c.481.252.977.485 1.472.719 1.088.511 2.175 1.023 3.109 1.738 2.148 1.647 4.56 2.194 7.121 2.289 3.981.149 7.963.242 11.944.335l3.346.079c1.15.03 2.276.107 3.496 1.013-.602.088-1.181.175-1.744.259-1.321.198-2.551.383-3.784.548-.347.047-.796.08-1.056-.096-1.314-.891-2.809-.92-4.28-.948l-.075-.002-.237-.004h-.001c-3.446-.065-6.896-.129-10.338-.043-2.437.058-4.483-.712-6.306-2.256-2.7-2.289-5.766-3.587-9.317-4.042-6.521-.836-11.596 1.541-15.545 6.595-.427.544-.928.729-1.52.948a9.82 9.82 0 0 0-.8.324l.115-.379c.084-.278.147-.485.217-.688.106-.311.33-.565.556-.818.367-.412.733-.824.584-1.486.472.176.71-.117.94-.402.065-.079.128-.157.196-.225 1.425-1.412 2.978-2.67 4.805-3.506 1.194-.546 2.451-.972 3.712-1.357.53-.161 1.092-.238 1.72-.084.367.09.775-.004 1.187-.099a5.02 5.02 0 0 1 .731-.132c.197-.016.395-.035.592-.054 1.105-.105 2.213-.211 3.288.259.428.075.855.148 1.283.221 1.138.193 2.276.386 3.405.626.29.061.555.245.82.429Zm-22.714 4.306-.026.029-2.588 2.788h-1.088c.84-2.248 1.848-4.306 3.602-5.729 1.48-1.199 3.244-2.083 4.976-2.916l.158-.076c1.346-.649 2.743-1.322 4.343-1.072.175.026.376.019.54-.047 4.732-1.867 11.374-1.24 15.404 1.122 1.576.922 3.186 1.779 4.795 2.637l.455.242c1.67.891 3.471 1.31 5.349 1.574 2.784.392 5.568.355 8.359.308.462-.009.924-.068 1.386-.126.32-.041.639-.081.959-.105 3.131-.228 6.164.014 8.875 1.841.301.206.622.379.973.569.168.091.342.186.525.289-1.075.495-2.046.844-3.095.066-1.008-.748-2.192-.998-3.42-1.027a64.957 64.957 0 0 0-1.873-.007h-.002c-.713.003-1.427.007-2.14-.015l-1.655-.046h-.007c-3.454-.097-6.907-.193-10.358-.357-2.323-.11-4.519-.73-6.426-2.175-5.017-3.796-10.785-4.75-16.854-4.306-2.36.172-4.625.979-6.605 2.303-1.164.778-2.232 1.707-3.298 2.633l-.001.001v.001c-.266.23-.53.46-.797.688-.164.14-.25.369-.337.6-.04.107-.08.215-.129.313Zm15.353-31.188c.132-.223.26-.448.388-.674.31-.543.62-1.087.968-1.606.998-1.489 1.787-3.026 1.6-4.9-.02-.211.021-.429.062-.647.016-.085.032-.17.045-.255.343-2.307 1.267-4.42 2.21-6.514 2.002-4.456 2.43-9.14 1.947-13.919-.19-1.893-.259-3.741-.022-5.626.104-.816.078-1.646.053-2.481a36.58 36.58 0 0 1-.023-1.125h-1.41c-.037.521-.08 1.034-.123 1.544-.093 1.087-.183 2.154-.195 3.221-.04 3.235-.011 6.47.022 9.705.018 1.789-.315 3.51-1.03 5.138-.4.911-.857 1.797-1.313 2.684-.181.352-.362.704-.54 1.057-.555 1.104-.844 2.259-.804 3.51.03 1.02.021 2.041.012 3.061l-.008.966c-.004 1.196-.303 2.282-1.144 3.18-.2.215-.383.447-.566.678-.119.151-.238.302-.362.448-1.037 1.222-1.72 2.586-2.016 4.2-.205 1.115-.654 2.204-1.111 3.253-.734 1.695-1.805 3.184-3.347 4.691 1.432-.18 2.317-.488 3.007-1.537 1.114-1.698 1.984-3.433 2.335-5.461.163-.953.498-1.949 1.365-2.591Zm-.303 1.232.002-.007.314-1.198.028.004.068.014c.09.018.18.037.203.004.709-.957 1.408-1.925 2.161-2.968l.447-.619c-.029 1.262-.095 2.37-1.012 3.364-.34.369-.658.76-.978 1.156-.507.625-1.02 1.259-1.645 1.825l.412-1.575Zm-5.696-12.815-.182.981-.007-.007v3.385c-.508.072-.993.139-1.464.204l-.003.001h-.002c-.819.113-1.594.219-2.367.338-.869.134-1.734.281-2.644.436h-.001l-1.177.199.073.238.078.257.123.407a9.472 9.472 0 0 0-.474.221c-.354.173-.718.351-1.1.424-.518.099-1.03.227-1.542.354-1.225.307-2.45.613-3.752.512-.873-.07-1.746.07-2.353.909-.186.261-.606.466-.932.488-1.651.107-3.12.745-4.592 1.42-.175.08-.386.083-.598.086-.1.002-.198.003-.294.013l-.57.337-.102-.253.65-.11c-.014-.675.41-1.04.834-1.407.215-.185.43-.37.588-.596.652-.928 1.342-1.832 2.029-2.733.282-.37.564-.74.842-1.11 4.26 1.085 6.449.964 9.262.084l-4.61-.424h-.004l-3.884-.357c.552-1.566 1.381-2.663 2.287-3.712.253-.571.737-.438 1.114-.334h.001l.153.041c2.2.514 4.292.019 6.386-.477.25-.06.5-.119.75-.176 2.184-.503 4.387-.891 6.637-.891h1.078l-.231 1.252Zm61.613 18.784a85.459 85.459 0 0 0-.23-.051l.004.004c-.805-.22-1.608-.444-2.412-.668l-.002-.001h-.001l-.002-.001h-.002l-.001-.001h-.004l-.001-.001h-.002l-.001-.001c-1.811-.505-3.623-1.011-5.449-1.462a110.413 110.413 0 0 0-13.733-2.487c-1.134-.131-2.264-.294-3.419-.46-.558-.08-1.121-.161-1.693-.24-.507-2.982-.697-5.924-.142-9.052 2.338.473 4.611.931 6.927 1.397l-.319.421-.005.006-.104.139-.066.087-.076.099c1.586 1.141 3.215 2.006 5.016 2.542l.951.28.011.003c2.519.74 5.042 1.48 7.375 2.798l-.016.287-.008.155-.012.214c2.883 1.379 5.261 3.393 7.438 5.678l.138.243.026.046.045.078-.076-.017-.155-.035ZM51.599 74.952l.057-.017.043-.014.135-.042-.12-.154c-.04.075-.079.15-.115.227Zm61.254 23.436c.227-.188.463-.385.71-.596l.011-.008c.972.913 2.086 1.258 3.46.833.961-.297 1.874.106 2.7.598 2.133 1.272 3.602 3.213 4.906 5.259.558.873 1.019 1.807 1.485 2.752.206.418.414.839.631 1.257.23-1.02.128-1.977-.366-2.978-1.169-2.377-2.685-4.468-4.691-6.184-.356-.306-.756-.562-1.168-.827a22.609 22.609 0 0 1-.607-.398 592.716 592.716 0 0 1 2.057-1.342c.36.12.722.243 1.084.367.973.332 1.953.667 2.949.953.672.19 1.005.587.756 1.181-.584 1.39-.069 2.604.479 3.811.563 1.243 1.41 2.226 2.875 2.497 0 .242.004.473.008.697.009.49.016.946-.019 1.401-.08 1.035.384 1.889.87 2.718.303.514.742.866 1.45.954.607.076 1.198.278 1.803.486.27.092.542.186.821.269.318.329.505.762.704 1.219.342.788.716 1.649 1.842 2.178l-.46-1.244-.771-2.083c.318-.078.634-.165.949-.252.668-.185 1.332-.369 2.01-.456 1.896-.249 2.653-1.445 2.886-3.169.017-.134.04-.266.068-.426l.027-.157c2.013 5.15 3.175 9.32 3.004 10.904a4.374 4.374 0 0 0-.283-.036c-.197-.02-.391-.04-.554-.121-2.452-1.229-4.801-.584-7.132.374-.599.245-.95.634-1.081 1.331-.064.335-.27.643-.508.997-.114.17-.235.351-.351.551a26.14 26.14 0 0 1-.695-.529c-.479-.372-.927-.722-1.424-.982-.319-.168-.635-.347-.951-.525-1.041-.588-2.085-1.177-3.279-1.408-.899-.173-1.257-.668-1.498-1.552-.881-3.209-2.101-6.246-4.165-8.942-2.364-3.084-5.185-5.42-9.017-6.253-1.213-.264-2.569-.323-3.774-.066-2.152.458-3.182 2.226-3.869 4.163-.179.501-.277 1.031-.371 1.537-.041.219-.081.435-.126.641-.425.047-.848.073-1.267.098-.945.059-1.864.115-2.705.398-.463.157-.949.163-1.427.168-.737.009-1.454.018-2.032.583-.83-.377-1.064-.927-1.17-1.745-.248-1.915-1.033-3.536-2.794-4.625-1.495-.921-3.102-.782-4.593-.514-2.82.51-5.341 1.772-7.42 3.855-.188.188-.377.374-.566.559l-.001.001c-.883.866-1.76 1.726-2.407 2.807-.292.488-.756.656-1.344.785-.818.177-1.617.451-2.415.725-.392.135-.785.27-1.18.393l-.165.052-.059.019c-.382.122-.773.247-1.161.256-1.072.028-2.144.024-3.36.019h-.002c-.503-.002-1.03-.004-1.592-.004 1.41-.518 2.29-1.086 2.455-2.318.14-1.063.288-2.125.454-3.321l.032-.23c2.89-1.449 4.092-3.855 3.138-7.273 1.604-.594 3.164-1.174 4.673-1.735l1.073.625.007.004c.56.327 1.123.654 1.693.985-3.27 2.729-5.466 6.243-6.266 10.596.622-.974 1.172-2 1.724-3.026 1.525-2.84 3.05-5.681 6.073-7.427 1.527.437 3.058.657 4.33-.814.949 1.196 2.027 2.124 3.521 2.465.426.097.855.206 1.285.316 1.945.497 3.92 1.001 5.825.391 1.761-.561 3.204-.322 4.855.066 1.652.393 3.372.044 5.002-.425.332-.096.681-.134 1.03-.173.721-.08 1.444-.161 2.028-.744.407-.409.852-.778 1.343-1.186ZM70.962 221.556c-.046-1.343-.093-2.698.597-4.086l.004-.008c.233.076.46.152.683.227l.003.001.001.001.004.001h.001c.397.133.782.262 1.17.379.487.147.974.288 1.461.429l.002.001h.002l.002.001c.701.203 1.401.405 2.096.625 1.83.584 3.701.994 5.6 1.214.911.104 1.814.266 2.716.428 1.52.273 3.04.545 4.6.541 1.652-.004 3.304.002 4.957.008h.002c3.155.01 6.309.021 9.464-.034 1.245-.022 2.487-.197 3.73-.371.607-.085 1.213-.17 1.82-.238.205-.021.41-.029.615-.038.22-.009.439-.018.656-.042l.208-.023.342-.037c.889-.095 1.78-.191 2.662-.337.471-.077.943-.15 1.416-.222 1.544-.237 3.091-.474 4.59-.882.648-.177 1.31-.314 1.973-.452 1.614-.336 3.232-.673 4.673-1.583.095-.059.22-.068.346-.077.125-.009.251-.019.348-.077.694-.415 1.11-.198 1.304.532l.043.162c.141.524.285 1.059.315 1.594.041.728.032 1.46.022 2.171-.003.299-.007.595-.007.885-.982 1.759-2.651 2.337-4.304 2.909-.425.148-.849.295-1.261.461-.681.277-1.41.431-2.14.586-.374.079-.747.159-1.115.254-.512.134-1.022.279-1.533.424l-.001.001c-1.044.297-2.088.594-3.15.793-1.521.284-3.058.487-4.595.69l-.007.001c-.605.08-1.209.159-1.813.244-1.6.224-3.201.448-4.804.653a8.698 8.698 0 0 1-1.142.048h-.134l-3.284.013c-1.826.007-3.653.013-5.48.027-2.352.017-4.67-.267-7-.552l-.002-.001-.729-.089c-2.634-.319-5.199-.895-7.724-1.617-2.298-.657-4.585-1.438-6.664-2.67-.376-.224-.714-.514-1.057-.808l-.002-.001c-.156-.134-.313-.269-.475-.398.033-.553.014-1.106-.005-1.661Zm35.708-52.641c-1.157.531-2.305 1.059-3.424 1.571l-1.565-.699a587.859 587.859 0 0 0-3.989-1.773c-.438-.194-.898-.396-1.366-.462-1.973-.279-2.495-.646-2.411-3.239.029-.847.062-1.709.255-2.527.446-1.863 1.666-3.033 3.486-3.594.142-.042.278-.106.414-.169a3.19 3.19 0 0 1 .415-.169c1.516-.436 2.521-1.47 3.065-2.886.516-1.343 1.535-1.757 2.799-1.885.077-.008.155-.007.232-.007.107.001.214.002.316-.019 2.466-.495 4.081.88 5.349 2.663 1.118 1.57 2.049 3.29 2.923 5.017 1.366 2.703.555 4.464-1.827 6.004-.687.446-1.455.764-2.224 1.082-.351.145-.702.29-1.046.448l-1.402.644Zm12.013-37.896c-.069-.021-.144-.044-.228-.064h.004c0-.293-.012-.586-.024-.877-.026-.629-.052-1.249.046-1.848.416-2.567.007-5.047-.676-7.497-.201-.722-.029-1.206.584-1.526a7.673 7.673 0 0 1 1.498-.597c3.215-.892 6.354-.488 9.35.825l.274.12c2.447 1.074 4.925 2.162 6.601 4.435.043.057.092.109.141.159l.064.067.013.014.007.009a.22.22 0 0 1 .02.023c1.776 2.109 1.6 3.249-.789 4.482-.473.245-.864.548-1.27.862l-.166.128a6.43 6.43 0 0 1-1.874.972c-1.095.356-2.213.645-3.33.934l-.652.17c-.505.132-.961.249-1.546.073-2.51-.752-5.093-.957-7.709-.799-.104.007-.211-.026-.338-.065ZM39.247 172.95c2.037-2.181 4.34-3.44 7.103-3.869.749-.117 1.392-.477 1.768-1.327.526-1.189 1.516-2.003 2.715-2.564 1.607-.752 3.244-1.262 5.052-1.13l.089.007c.604.047 1.225.095 1.782-.447 1.352-1.317 3.032-2.061 4.808-2.696 2.006-.715 3.873-.598 5.798.217 1.323.561 2.675 1.118 4.07 1.408 1.027.213 2.17.33 3.212-.227.36-.193.723-.384 1.086-.575 1.973-1.039 3.948-2.079 5.716-3.464.72-.564 1.381-1.199 1.685-2.329-.8.056-1.576.059-2.336.062-1.29.004-2.535.009-3.784.272-.934.197-1.893.273-2.852.349-.487.039-.973.077-1.456.132-.407.047-.815.124-1.22.2l-.2.038a51.51 51.51 0 0 0-.86.174c-.48.1-.96.199-1.442.277-.673.107-1.35.194-2.027.282-1.295.166-2.59.333-3.852.639-.422.103-.845.204-1.267.306l-.005.002-.004.001-.005.001c-3.692.891-7.383 1.782-10.965 3.13-3.57 1.343-6.997 2.846-9.96 5.289-1.774 1.462-2.702 3.297-2.649 5.842Zm19.835-14.614c-1.478.344-2.956.688-4.439 1.004v-.004c3.19-3.206 6.905-5.406 11.089-6.833a24.988 24.988 0 0 1 5.655-1.236c.64-.059 1.21-.121 1.126-.788.59-.146 1.174-.283 1.754-.418 1.461-.342 2.888-.675 4.277-1.127.17-.054.365-.086.566-.118.66-.106 1.383-.223 1.473-1.209.302-.075.603-.153.904-.232h.003c.69-.18 1.38-.359 2.078-.495.399-.077.81-.088 1.28-.101h.002c.223-.006.46-.013.716-.027 0 .16.004.316.007.47.006.319.012.628-.01.935l-.003.036c-.127 1.686-.254 3.376-.417 5.058-.027.299-.138.589-.222.809-.03.077-.056.146-.074.204-1.621.214-3.229.429-4.826.643-3.566.476-7.084.946-10.603 1.392-3.492.443-6.915 1.24-10.336 2.037Zm41.643-64.722c3.945-.235 7.793-1.02 11.866-2.032l-.003.004c.015.49.037.952.058 1.395v.002c.045.959.086 1.827.044 2.692-.084 1.79-.998 2.898-2.722 3.4-1.984.58-4.011.95-6.094.83a6.515 6.515 0 0 1-1.253-.17c-1.114-.286-1.282-.491-1.341-1.606a15.937 15.937 0 0 1-.015-.928c.001-.363.002-.725-.025-1.086-.017-.21-.09-.414-.184-.675a9.774 9.774 0 0 1-.163-.48c-.627.788-.628 1.632-.629 2.451-.001.675-.002 1.333-.354 1.928-1.38.807-2.93.661-4.447.519a105.9 105.9 0 0 0-.292-.027c-1.036-.094-2.06-.355-3.079-.614l-.647-.164c-1.535-.381-2.364-1.5-2.558-2.974-.11-.852-.084-1.722-.058-2.642.013-.422.026-.855.026-1.301 1.138.173 2.253.383 3.355.59 2.866.538 5.644 1.06 8.515.888Zm57.309 73.606.005.005c.728.678 1.473 1.372 1.825 2.557v.003l-.527.081-.433.066-.447.068-.282.043-.237.036c-1.472-1.838-3.47-2.872-5.644-3.598-.422-.143-.897-.157-1.353-.17l-.076-.003c-.28-.007-.56-.012-.84-.016h-.004c-1.527-.024-3.051-.049-4.519-.64-.399-.161-.896-.114-1.352-.072l-.099.01c-2.148.201-4.252-.217-6.236-.873-1.14-.377-2.193-1.017-3.246-1.657a36.036 36.036 0 0 0-1.343-.793c-.74-.41-1.432-.892-2.125-1.375-.536-.373-1.072-.746-1.631-1.086-1.775-1.082-3.562-1.732-5.615-1.607-1.158.073-2.002-.319-2.55-1.57.107-.034.217-.083.323-.132.217-.098.423-.191.579-.139.984.328 2.013.351 3.042.374 1.272.028 2.543.056 3.728.66.189.095.426.088.665.081a2.75 2.75 0 0 1 .417.007l.683.079.002.001c.789.09 1.579.18 2.358.316.35.062.7.122 1.05.182 1.661.284 3.323.569 4.949.996l.236.062.233.062c.814.215 1.633.431 2.439.668 2.919.854 5.849 1.735 8.659 2.897 2.55 1.053 5.06 2.289 7.11 4.237l.119.112.137.128Zm-27.979-27.081c.183-2.637.208-5.153-1.304-7.636.767-.151 1.512-.355 2.25-.557 1.787-.489 3.533-.967 5.451-.661 1.483.239 2.346 1.046 2.726 2.315.387 1.296.668 2.621.951 3.952.12.563.239 1.128.368 1.692-3.497 1.841-6.942 1.423-10.442.895ZM88.24 121.015c.337-.032.696-.066 1.09-.098-.266 2.122-.525 4.202-.788 6.317l-.4 3.208c-.168 0-.323.007-.468.014-.285.014-.53.026-.76-.025-1.717-.378-3.397-.503-5.173-.162-2.016.385-4.052.173-5.842-.737l1.966-1.724.009-.008.001-.002c2.288-2.006 4.566-4.003 6.822-6.023.493-.44.979-.616 1.622-.627.608-.008 1.215-.066 1.921-.133Zm48.86-19.449v.001c-.004.383-.008.763-.008 1.139h-.004c-1.64 1.308-3.511 1.618-5.371 1.926l-.288.048c-1.75.293-3.281-1.097-3.705-2.575-.332-1.159-.457-2.37.037-3.628l.502.001h.001c.323.001.637.002.951 0 1.925-.023 2.648-.672 2.689-2.583.018-.832.175-1.547.76-2.16.639-.668.975-.7 1.687-.125 1.696 1.368 2.635 3.14 2.73 5.322.038.881.028 1.764.019 2.634Zm-15.783 37.597-.021-.002-.07-.007-.013-.001-1.497-.158c-.914-2.12-1.652-4.218-1.535-6.591.973-.769 2.103-.655 3.202-.543.2.02.4.04.598.055 1.323.097 2.637.34 3.948.583l.006.001.255.047.259.048c1.9.348 2.539 1.155 2.524 3.136-.003.315-.039.631-.074.947a8.33 8.33 0 0 0-.075 1.044c.005.438.062.875.129 1.384l.001.002c.032.249.067.515.1.807l-1.491-.137h-.007a325.56 325.56 0 0 1-6.239-.615Zm-50.902-34.498c-2.097-.202-4.183-.558-5.98-1.966l.003-.004-.012-.344c-.06-1.709-.12-3.4.308-5.095.395-1.566 1.352-2.7 2.514-3.7.665-.573 1.194-.532 1.666.212.328.52.503 1.145.67 1.748l.024.082c.062.224.082.46.102.695.02.25.042.5.114.736.27.906.884 1.434 1.866 1.441h1.959c.957 1.383.515 2.762.01 4.031-.551 1.386-1.665 2.318-3.244 2.164Zm43.801 74.743c.081.052.175.114.293.181v.008l-.261.895-.006.02-.237.812c-2.133-.594-4.176-1.251-5.984-2.476-4.034-2.736-8.385-4.786-13.113-5.963-1.808-.451-3.653-.877-5.502-1.013-2.634-.194-5.137.591-7.526 1.669a26.678 26.678 0 0 0-6.127 3.866l-.172.143-.16.132-.008.007-.01.008c-.165.136-.337.277-.523.433l-.49-.26-.022-.011-.865-.459c.042-.083.077-.167.11-.246.065-.16.125-.303.23-.396 2.327-2.069 4.972-3.642 7.781-4.948a20.174 20.174 0 0 1 6.62-1.782c2.456-.235 4.808.432 7.114 1.151 2.94.917 5.699 2.274 8.384 3.807 3.197 1.823 6.46 3.536 10.132 4.248.106.02.203.084.342.174Zm-35.551-39.683c-.227-2.978.146-5.85 1.713-8.385v-.007c2.675-.84 5.042-.583 7.625-.07-.665.624-1.367.599-2.037.574-.334-.012-.66-.024-.97.046-.491.109-.996.16-1.505.21-.501.05-1.007.101-1.509.208.713.349 1.465.325 2.216.301.15-.004.299-.009.448-.011.584-.005 1.167-.003 1.79-.002l1.026.002-.032.217c-.318 2.096-.628 4.147-.932 6.136l-4.853.484-.016.002-2.964.295Zm-8.68-34.085c.154.027.306.053.456.081h-.004c.413 4.449-1.154 5.278-4.738 5.172-1.116-.036-2.228-.214-3.336-.392l-.214-.034-.228-.036c-.906-.147-1.487-.796-1.538-1.772l-.018-.33c-.115-2.068-.23-4.131 1.026-6.019a15.6 15.6 0 0 0 .694-1.186c.358-.653.722-1.32 1.243-1.928 0 .229-.002.457-.004.685v.002c-.005.534-.01 1.068.01 1.602.041 1.089.414 1.896 1.451 2.527 1.165.709 2.415 1.008 3.68 1.31l.409.098c.369.091.743.156 1.111.22Zm61 .881c-.026-.198-.054-.409-.082-.638l.003-.004c.344-.085.684-.163 1.02-.24.796-.183 1.568-.361 2.316-.611.666-.224 1.308-.527 1.949-.83.284-.134.567-.268.853-.395.833-.37 1.107-1.086 1.125-1.922.015-.646.012-1.293.008-2.047v-.016a219.38 219.38 0 0 1-.004-1.209c1.381 2.263 2.521 4.317 3.105 6.529.271 1.021.066 2.189-.133 3.323-.048.275-.096.549-.137.818-.106.697-.738 1.126-1.458 1.199-.417.044-.835.096-1.254.148-1.21.152-2.423.304-3.623.241-2.532-.132-3.365-.807-3.555-3.206-.03-.362-.078-.724-.133-1.14Zm-20.626 64.011c2.434-1.118 4.872-2.238 7.504-3.076v-.003l1.279 2.699-.235.939-.239.955-.48 1.913c-1.249.114-2.133.965-2.374 2.615-3.807.011-6.993-1.349-9.865-4.096 1.495-.607 2.951-1.276 4.408-1.945l.002-.001Zm-31.812-39.428c.264.07.544.145.852.225-1.863 2.766-1.8 5.726-1.61 8.66-2.306.876-4.867 1.089-6.906.546l.365-.967.006-.016v-.002l.001-.002c.36-.951.718-1.899 1.06-2.853.472-1.309.936-2.611.965-4.045.033-1.625 1.008-2.395 2.58-2.15.474.074.953.165 1.42.275.406.098.81.206 1.267.329Zm63.053 7.672-.157.102h-.004c-.114-.522-.211-1.046-.308-1.566-.5-2.699-.982-5.294-3.674-6.819.808-.213 1.622-.294 2.426-.373 1.143-.113 2.265-.224 3.321-.713-1.347-.384-2.688-.184-4.004.013l-.238.035c-.683.103-1.357.262-2.032.422-.647.153-1.296.307-1.954.411 2.28-1.665 4.885-2.278 7.618-2.469 1.286-.088 2.294.415 2.7 1.676.405 1.262.767 2.561.917 3.87.051.441-.227.936-.493 1.407-.074.133-.148.263-.212.39-.836 1.638-2.295 2.577-3.906 3.614Zm-18.952-43.665.005-.07v.003c.351.128.693.287 1.039.447.973.452 1.969.915 3.25.72-.672-.578-1.453-.81-2.22-1.037-.763-.226-1.512-.449-2.128-1.003l-.003-.029c-.05-.466-.107-.994-.157-1.522-.121-1.287.336-2.168 1.461-2.597 1.991-.759 3.95-.583 5.747.528.449.275.804.928.924 1.471.274 1.24.475 2.513.527 3.782.058 1.437-.432 1.929-1.838 1.808-1.201-.104-2.392-.376-3.575-.646l-.338-.077c-.662-.15-1.31-.375-1.955-.598l-.003-.001-.464-.16c-.332-.11-.329-.141-.272-1.02Zm-9.08-2.373c-.037-.454-.075-.924-.111-1.42h.004c.483-.13.966-.266 1.451-.401 1.07-.3 2.146-.6 3.233-.853 1.614-.378 2.999.62 3.211 2.288.076.601.078 1.215.08 1.827v.002l.001.228.003.309c.018 1.14-.606 1.826-1.633 2.127-1.096.323-2.207.627-3.332.818-1.787.305-2.674-.524-2.737-2.355-.029-.834-.097-1.668-.17-2.569v-.001ZM84.613 120.82c-2.664 2.802-9.733 8.612-11.26 9.258l-.453-1.972c-.15-.647-.298-1.294-.453-1.971.734-.481 1.461-.975 2.191-1.471 3.426-2.328 6.898-4.687 11.268-5.769-.183.842-.629 1.274-1.037 1.67-.088.086-.175.169-.256.255Zm42.336 82.443-.008.002c-4.995.923-9.924 1.835-15.007 1.616 5.063-2.373 10.372-3.994 15.68-5.586a854.518 854.518 0 0 1 1.926 3.495c-.866.155-1.73.314-2.591.473Zm.589 4.333c1.408-.864 2.82-1.73 4.139-2.737l1.444.896.042.026.008.005.038.023 2.07 1.284c-4.782 2.739-9.692 4.812-14.92 6.154 1.982-2.461 4.575-4.053 7.179-5.651Zm25.887-39.499h.001c.198.068.419.144.676.228l.004-.004-.246.723-.085.248-.201.588-.108.312c-.548-1.603-1.647-1.948-2.798-2.047-2.294-.194-4.596-.378-6.894-.392-4.49-.03-8.549-1.424-12.272-3.819-.516-.33-1.005-.703-1.494-1.075-.905-.69-1.811-1.38-2.89-1.811-.728-.29-1.458-.583-2.16-.928a4.708 4.708 0 0 1-1.293-.95c2.298-.132 4.322.58 6.182 1.834.537.363 1.069.736 1.6 1.109h.001l.001.001.002.001c1.101.773 2.203 1.546 3.357 2.23 2.269 1.343 4.757 1.933 7.42 2.065 3.431.169 6.854.569 10.208 1.379.305.073.602.175.989.308Zm-77.833-52.364h3.2l-.087.153c-1.995 3.469-3.895 6.772-6.704 9.548l-.703-.625-.045-.04-1.857-1.649c1.176-1.866 2.657-3.478 4.152-5.105.688-.749 1.379-1.501 2.044-2.282Zm63.286 11.683c-.19.03-.395.062-.621.094l-.004.008c.755-4 1.067-4.027 3.069-4.199.48-.042 1.057-.091 1.761-.206 1.21-.198 2.433-.077 3.486.961.436 1.483.402 3.051.365 4.744a52.395 52.395 0 0 0-.018 1.956l-.05-.083-.108-.181-.07-.117c-.12-.198-.2-.33-.269-.469-.069-.141-.127-.287-.186-.433-.031-.078-.062-.157-.095-.235-.643-1.511-1.827-2.219-3.42-2.201-.729.006-1.457.083-2.183.16-.235.024-.469.049-.703.071-.303.029-.605.076-.954.13Zm-11.061 65.218.353-.022v.004l-.304 1.225c-.12.482-.235.943-.361 1.456-.129 0-.266-.002-.407-.004a18.436 18.436 0 0 0-.938.004c-.815.031-1.63.07-2.445.109-1.733.083-3.467.166-5.201.166-1.381 0-2.762-.148-4.141-.296l-.006-.001-.005-.001h-.006l-.924-.098c-.265-.026-.521-.135-.827-.265a10.332 10.332 0 0 0-.525-.212c5.247-1.435 10.438-1.747 15.737-2.065Zm9.237-68.835-.752-.822h.004c.322-1.1.607-2.08.895-3.074 1.575-.95 3.347-1.14 5.068-1.21 1.658-.066 2.941.968 3.88 2.307.137.192.136.482.135.805a5.1 5.1 0 0 0 .014.49c-.266 0-.521-.004-.766-.008a18.654 18.654 0 0 0-1.466.015c-.552.034-1.103.089-1.655.144h-.001c-.469.047-.939.094-1.409.127-1.374.096-2.474.591-3.022 2.238l-.925-1.012Zm-79.083-7.755c2.751-.157 5.457-.312 8.243.038a67.81 67.81 0 0 0-.53.342c-.352.228-.704.456-1.06.681-.106.066-.22.125-.334.183-.206.105-.412.21-.572.363-1.253 1.203-2.809 1.559-4.457 1.625-.87.036-1.741.027-2.641.019h-.003c-.403-.004-.812-.008-1.228-.008.083-.61.164-1.188.246-1.773v-.008l.188-1.347c.72-.033 1.435-.074 2.146-.114l.002-.001Zm31.932 1.75c-.762-.536-1.51-.52-2.356-.238a6.242 6.242 0 0 1-2.123.326c-2.32-.07-4.575.316-6.858.707l-.672.115-.483.843c-.252.441-.508.888-.785 1.369 1.973.022 3.497-.532 5.057-1.357 1.414-.749 3.021-1.526 4.819-.837l.169.582.189.647c.175-.038.335-.079.487-.117.31-.078.583-.147.86-.169 1.159-.099 1.674-.741 1.696-1.871Zm-31.924 3.059a15.895 15.895 0 0 1-.018-.4 20.687 20.687 0 0 0-4.297.268c-.929.161-1.875.223-2.822.284-.561.037-1.124.073-1.683.131-.402.041-.812.039-1.225.036-1.02-.006-2.061-.012-3.06.639l.087.188v.001c.288.619.55 1.186.79 1.696l12.228-2.843Zm40.502 27.053c-.003-3.763 1.44-7.001 3.493-10.089h.004c.038.359.082.718.126 1.076.096.781.192 1.562.225 2.346.047 1.188-.399 2.27-1.1 3.209-.609.812-1.249 1.602-1.903 2.41-.28.345-.561.694-.844 1.048Zm-56.808 28.612c1.115-2.167 2.547-3.84 5.13-4.881v.003c-.081 1.339-.598 2.465-1.107 3.575-.526 1.146-1.045 2.275-1.067 3.603-.882-.688-1.666-1.297-2.462-1.916l-.003-.002-.018-.014-.473-.368Zm68.774-64.691h-4.293l-.219-1.369v-.002l-.242-1.512c1.159-.436 2.353-.286 3.519-.132.632.084 1.034.616 1.118 1.284.048.37.066.746.086 1.158.009.183.018.373.031.573Zm-43.203 57.451c.08-.124.16-.253.241-.377v.003c2.88.015 5.495 1.035 8.294 2.219l-.182.158-.268.235-.181.159-.01.008-.22.193-.187.163-.162.14-2.03-.601c-1.213-.359-2.37-.702-3.527-1.049a1.694 1.694 0 0 1-.49-.238 32.434 32.434 0 0 1-.906-.715l-.013-.01-.359-.288Zm79.741 6.558c-3.113-.08-5.911.855-8.578 2.692l-.004-.003c-.237-.536-.38-.862-.581-1.31 3.234-2.01 6.704-2.585 10.46-1.885a4.81 4.81 0 0 0-.409.2c-.298.157-.595.314-.888.306Zm-7.942 3.048c2.038-1.606 4.406-2.285 7.193-2.318-1.443 1.086-2.689 1.951-4.26 2.38-.833.227-1.613.649-2.517 1.137-.44.237-.91.491-1.429.745.159-.316.279-.608.386-.869.198-.483.351-.858.627-1.075Zm-42.25-52.654c-1.786 5.414-2.312 7.27-1.8 9.958 1.768-3.092 1.892-6.338 1.8-9.958Zm-34.196-14.667H57.46v.004c-.123-1.095.368-1.896.85-2.685.377-.614.748-1.221.82-1.951l.09.015.113.019.202.035.025.427c.02.335.04.67.048 1.007.04 1.801.614 2.458 2.507 2.857.067.014.128.053.231.119.064.04.144.091.25.153Zm27.052 76.862a45.735 45.735 0 0 0-2.362-.192c2.733-1.471 4.973-1.339 6.938.294-1.54.199-3.022.052-4.576-.102Zm-42.58-11.604c.324 1.065.65 2.132.161 3.321h-.003l-.482-.274-1.24-.705c-.185-1.4.366-2.584.92-3.775.08-.169.159-.339.235-.509.018.663.213 1.302.408 1.942Zm1.766 2.036c-.52-1.606-1.002-3.099-.896-4.939l.84 1.439 1.725 2.955c-.442.253-.94.539-1.556.895l-.113-.35Zm73.529-88.3c-.711.358-1.056-.033-1.54-.579a9.892 9.892 0 0 0-.367-.4l1.032-.202.875-.172v1.354ZM70.71 120.122c-.497.618-.956 1.186-2.081.942.295-.198.529-.453.76-.705.493-.539.972-1.061 2.005-.971-.267.217-.479.48-.684.734Zm21.897 25.729c-.26 1.005-.52 2.01-.826 3.209 1.136-.961 1.176-2.021.826-3.209Zm10.863 3.169c-.007.119-.016.252-.023.403h-1.517c.394-.569.722-1.04 1.134-1.631l.291-.419.066.406v.001l.001.001c.04.242.067.401.072.56.005.204-.007.408-.024.679Zm8.082-19.83.001-.001c.053-.215.11-.442.169-.687v2.854c-.092.026-.187.048-.282.07a1.883 1.883 0 0 0-.105-.204c-.083-.147-.165-.293-.143-.42.086-.509.211-1.012.36-1.61v-.002ZM69.388 92.953a249.17 249.17 0 0 1-.726-.623l.776-.444.806-.462a311.693 311.693 0 0 1-.512 1.823l-.134-.115-.21-.18Zm-5.94 5.691a6.214 6.214 0 0 0-.018.127c-.004-.013-.01-.025-.015-.038-.013-.032-.027-.065-.022-.094.003-.03.024-.057.046-.084.01-.012.02-.025.027-.037l-.018.126Z" fill="#FA1B7A"/><path d="m185.726 178.83-.395-2.296c-.179-1.056-.358-2.112-.775-3.168 0 .685-.098 1.393.026 2.053.135.716-.603 1.303-.128 2.084.176.289-.201.887-.241 1.349-.369 4.435-1.421 8.671-3.255 12.75-.987 2.196-2.024 4.316-3.668 6.231-.366.015-.837.037-1.338.059.516.979-.226 1.327-.781 1.716-.428.301-.932.488-1.396.737-.811.437-1.549 1.225-2.587.47-.073-.051-.296.11-.643.249.329.25.537.411.749.576-.88 1.159-2.385.426-3.434 1.119.066.062.106.11.157.143.095.058.201.11.439.242l-6.562 2.212c.018.128.033.256.051.388.435.03.866.055 1.301.085-.468.807-1.155.341-1.765.308.077-.503-.194-.646-.628-.594-1.294.154-2.598.26-3.88.484-2.32.41-4.648.821-6.938 1.371-1.783.43-3.57.29-5.356.316-.22 0-.446-.253-.665-.389.5-.293.979-.634 1.505-.877 2.663-1.236 5.345-2.435 8.005-3.682.701-.33 1.359-.774 2.009-1.199 1.692-1.104 3.372-2.23 5.053-3.349.183.275.34.506.603.899 1.49-1.676 3.189-2.953 4.431-4.702.377-.529.928-.947 1.447-1.354 1.86-1.459 3.734-2.912 4.991-4.966 1.476-2.413 2.714-4.984 4.833-6.95.234-.217.263-.649.399-.979.858-2.113 1.571-4.299 2.619-6.313a21.647 21.647 0 0 0 2.39-8.237c.285-3.371.303-6.793-.523-10.145-.373-1.511-.57-3.063-.847-4.596.252 0 .5.007.752.011.212.671.475 1.331.625 2.021.267 1.24.299 2.556.734 3.73.45 1.214.154 2.461.599 3.715.632 1.794.603 3.819.874 5.74.518 3.657.639 7.38 1.655 10.96.201.707.19 1.313-.442 1.789v-.011Zm-20.518 24.127.27.165c-.091-.052-.186-.107-.278-.158.599-.422 1.199-.84 1.801-1.262-1.958-.058-3.66.782-5.447 1.262-.15.04-.252.279-.555.638 1.604-.245 2.908-.447 4.212-.645h-.003Zm4.194-3.532c-1.279-.008-2.276.003-3.062.836-.047.051.11.301.216.565.803-.642 2.009-.235 2.846-1.401Z" fill="#FA1B7A"/><path d="M164.072 205.564c.135-.011.271-.019.406-.03-.117.283-.249.312-.406.03ZM111.544 195.665c.227.058.453.117.676.176-.113.612-.226 1.225-.358 1.955 2.802.161 5.407-.228 7.997-.829 1.133.029 2.269.051 3.402.088.464.015.643-.22.621-.657h3.621c.029.594.062 1.233.098 2.007-5.681 1.382-11.132 3.48-16.685 5.52-.081.132-.238.326-.318.546-.3.844-.055 1.375.782 1.397 3.021.081 6.046.246 9.053-.388 2.167-.455 4.373-.712 6.558-1.064.501-.081.95-.037 1.465-.44.599-.47 1.578-.576 2.382.264-2.192 1.427-4.318 2.846-6.481 4.203-2.298 1.442-4.413 3.096-6.262 5.109-.099.752.245 1.218.994 1.156.668-.055 1.468.311 1.987-.496.099-.154.435-.223.658-.216 1.366.051 2.429-.748 3.609-1.232 1.385-.565 2.755-1.229 4.198-1.563 1.436-.333 2.583-1.195 3.888-1.749 1.125-.477 2.086-1.343 3.017-1.966.972.286 1.831.539 2.814.825-1.118 1.431-2.573 2.399-3.983 3.363-1.527 1.042-3.12 2.065-4.822 2.751-3.029 1.218-6.065 2.472-9.284 3.14-2.517.521-5.038 1.023-7.574 1.441-1.421.235-2.886.209-4.307.44-3.073.503-6.163.297-9.251.404-1.443.051-2.897.389-4.314.26-3.65-.326-7.333-.128-10.96-.935-1.565-.348-3.216-.315-4.794-.789-1.94-.583-3.968-.913-5.864-1.61-2.174-.799-4.33-1.639-6.401-2.762-2.495-1.353-4.797-2.945-7-4.691-3.15-2.497-5.733-5.571-8.001-8.857-1.685-2.439-2.996-5.135-4.447-7.735-.434-.782-.778-1.618-1.165-2.428.31-.364.64-.686 1.184-.54.537.928 1.509.969 2.484 1.387v-3.327c-.406-.183-.811-.367-1.611-.726.373.884.58 1.383.789 1.867-.68.29-1.166.194-1.18-.308-.022-.752-.318-1.607.5-2.208l5.974 2.035c0 .393.018.756-.004 1.112-.029.41-.098.818-.16 1.316a98.188 98.188 0 0 1-1.119-.242c.212-.557.625-1.093.497-1.408-.28-.69-.968-.77-1.684-.521-.036.213-.07.385-.091.558-.285 2.303-.281 2.31 1.97 3.007.379.118.766.209 1.212.33.128-.898.281-1.665.336-2.435.055-.77.011-1.548.011-2.388-1.392-.48-2.678-.968-3.99-1.368-1.282-.392-2.385-1.324-3.8-1.397-.054.308-.087.484-.12.664-.11-.188-.27-.36-.318-.558-.295-1.247-.35-1.287-1.914-1.082v1.94c-.12-.473-.237-.946-.358-1.419v-1.519c-.702-.326-1.381-.638-2.057-.953-.438-.785-.815-1.585-.826-2.692.42.062.808.007 1.056.168 3.106 2.021 6.54 3.243 10.044 4.328 1.373.426 2.707.998 4.095 1.357 1.736.455 3.511.749 5.265 1.13 2.576.561 5.155 1.111 7.774 1.427 2.149.26 4.297.543 6.449.763 2.696.278 5.4.484 8.1.752 7.942.785 15.903.264 23.857.363 2.419.029 4.823-.18 7.205-.642.705-.136 1.457-.066 2.184-.066a21.068 21.068 0 0 0 5.199-.613c.578-.146 1.202-.106 1.809-.139 1.081-.062 2.137-.095 3.197-.51.807-.315 1.775-.209 3.043-.326-.778.961-1.344 1.665-1.914 2.369-.885-.209-1.473.506-2.225.712-.852-.037-1.71-.154-2.565.198v.935l-2.59.286c-.026-.337-.048-.675-.099-1.375-.661.601-1.589.293-1.582 1.379l-.555.077c-.245-.958-.998-.704-1.633-.664-.687.044-1.367.147-2.39.26-.08.147-.329.591-.573 1.031-.764.231-1.531.458-2.295.689.066-.502.081-.986-.416-1.17-2.587.228-5.082.448-7.559.668-.424 1.434-.519 3.745-.223 5.692 1.87-.11 3.788.242 5.681-.524l.391-2.333-.004.015Zm-45.453-4.053c.157-.15.314-.297.471-.448.22.055.439.107.79.191-.198.858-.366 1.599-.56 2.443-3.057-.657-6.1-.902-8.885-1.937v-2.391c.859-.136 1.571-.154 2.192.627-.54.275-1.589-.191-1.183 1.005.665.382 1.351.719 2.345.253.04-.803.08-1.672.132-2.714l-4.315-.312c-.128.154-.365.308-.365.462-.004 1.057.04 2.113.069 3.166v.935c3.665 1.346 7.424 1.9 11.33 2.402l.89-4.691c-2.049-.616-4.073-1.261-6.36-1.177v2.824c1.198.154 2.298.297 3.508.451-.03-.506-.044-.796-.063-1.085l.004-.004Zm35.194 2.692-.19 2.901c-2.919.429-5.085.283-6.437-.425.084-1.163.168-2.359.252-3.551-2.474-.557-7.508-.755-9.331-.355l-.391 4.665c2.272.154 4.355.297 6.54.444v-2.626c-1.151-.147-2.174-.275-3.2-.407-.385 1.657 1.333 1.052 1.833 1.87-1.257.532-2.28.128-3.208-.224v-2.864l3.033.385c.99.121 2.024-.139 2.915.224-.098 1.305-.186 2.49-.285 3.836 3.519-.099 6.788.752 10.212.173v-5.249h-6.832c-.475 1.262-.5 1.728-.194 3.18h3.365c.687-1.86-1.432-.935-1.797-1.981h3.722l-.007.004Zm-29.867.348c.172-1.173.296-2.02.416-2.864 1.224.268 2.324.51 3.468.759-.074 1.229-.14 2.362-.209 3.565 2.598.759 5.214.928 8.016 1.189.314-1.633.252-3.235.249-4.794-1.261-.572-4.118-.712-5.733-.319v2.255c1.082.283 2.046.686 3.087.272.344-1.354-1.154-.932-1.67-1.717 1.067.099 1.966-.11 2.76.253v2.755c-1.798-.62-3.702-.04-5.233-1.133.077-1.104.143-2.109.216-3.151-1.984-.594-3.873-.638-5.857-.935l-.599 4.705c1.29.268 2.466.917 3.884.701v-3.151c-.665-.124-1.33-.253-1.893-.359-.866 1.078.8 1.185.377 2.127l-1.283-.165.004.007Z" fill="#FA1B7A"/><path fill-rule="evenodd" clip-rule="evenodd" d="M28.522 169.153c-.457-.427-.993-.929-1.78-.673v.011h-.003l-.067.238-.134.484a380.51 380.51 0 0 0-2.177-1.331c-1.68-1.022-3.322-2.021-4.918-3.085l-.115-.076c-1.25-.829-2.518-1.671-3.309-3.056-.231-.406-.577-.747-.923-1.087-.156-.154-.312-.308-.458-.468.142.45.28.902.417 1.353.348 1.143.695 2.286 1.114 3.4.358.947.866 1.849 1.425 2.693 1.282 1.94 2.73 3.726 4.34 5.435 1.915 2.032 4.081 3.319 6.705 3.921 2.155.495 4.27 1.071 6.232 2.113.212.111.406.252.692.461.157.115.342.25.573.412l5.56 1.148c-.134-.313-.379-.578-.61-.829-.102-.111-.202-.219-.289-.327.066-1.151.008-2.255-.632-3.257a86.431 86.431 0 0 1-.76.602c.256-.859.059-1.515-.398-2.084-.628-.784-.877-1.683-.964-2.655-.252-.038-.504-.071-.755-.104a19.539 19.539 0 0 1-1.51-.237l-.152-.032c-2.433-.517-4.851-1.031-6.852-2.741a7.553 7.553 0 0 1-.252-.229Z" fill="#FA1B7A"/><path d="M113.561 97.791c.968.914 2.086 1.258 3.46.833.961-.297 1.878.103 2.7.598 2.137 1.276 3.606 3.213 4.906 5.259.8 1.258 1.403 2.645 2.116 4.009.233-1.023.127-1.98-.366-2.978-1.169-2.373-2.685-4.467-4.691-6.184-.53-.455-1.154-.8-1.775-1.225a598.03 598.03 0 0 1 2.057-1.342c1.329.44 2.667.928 4.033 1.32.672.194 1.005.587.756 1.181-.584 1.394-.069 2.604.479 3.811.566 1.243 1.41 2.226 2.875 2.498 0 .766.044 1.434-.011 2.098-.08 1.038.384 1.892.87 2.717.303.514.741.866 1.45.954.877.11 1.721.48 2.623.756.866.894.764 2.563 2.547 3.396-.497-1.339-.859-2.318-1.231-3.327.993-.245 1.962-.579 2.959-.708 1.896-.245 2.652-1.445 2.886-3.169.022-.176.059-.348.095-.583 2.017 5.15 3.179 9.32 3.003 10.904-.285-.051-.595-.036-.836-.157-2.452-1.229-4.801-.583-7.132.374-.595.246-.95.634-1.081 1.331-.095.495-.501.932-.859 1.548-.767-.557-1.392-1.13-2.119-1.511-1.37-.723-2.674-1.629-4.231-1.933-.898-.172-1.253-.668-1.498-1.551-.88-3.206-2.1-6.247-4.165-8.942-2.363-3.085-5.184-5.421-9.016-6.254-1.213-.264-2.569-.323-3.774-.066-2.152.459-3.179 2.226-3.87 4.163-.255.719-.347 1.493-.496 2.179-1.385.15-2.759.084-3.972.495-1.18.396-2.506-.184-3.46.752-.825-.378-1.063-.928-1.169-1.746-.248-1.911-1.034-3.536-2.795-4.625-1.49-.921-3.101-.785-4.592-.514-2.817.51-5.341 1.772-7.42 3.855-1.063 1.067-2.192 2.054-2.974 3.367-.293.488-.757.657-1.345.785-1.22.264-2.396.745-3.595 1.119-.453.139-.92.315-1.384.326-1.517.04-3.033.015-4.955.015 1.41-.517 2.291-1.086 2.456-2.318.15-1.13.31-2.26.486-3.551 2.89-1.452 4.091-3.858 3.138-7.273 1.604-.598 3.164-1.173 4.673-1.735.92.536 1.837 1.068 2.773 1.614-3.27 2.725-5.466 6.243-6.266 10.596 2.342-3.671 3.683-8.076 7.797-10.453 1.527.433 3.058.657 4.329-.814.95 1.196 2.028 2.124 3.522 2.465 2.353.535 4.782 1.452 7.11.708 1.761-.562 3.204-.327 4.855.066 1.655.392 3.372.044 5.002-.426 1.019-.293 2.192-.051 3.058-.917.595-.594 1.271-1.107 2.053-1.782l.011-.008ZM71.551 217.47c.654.217 1.257.426 1.864.609 1.183.359 2.381.679 3.562 1.056a29.7 29.7 0 0 0 5.6 1.214c2.445.283 4.83.976 7.315.969 4.808-.011 9.616.058 14.424-.026 1.852-.033 3.701-.403 5.549-.609.42-.048.848-.037 1.272-.081 1.074-.121 2.148-.22 3.211-.396 2.01-.33 4.048-.572 6.006-1.104 2.233-.605 4.615-.752 6.646-2.035.19-.118.501-.041.694-.154.695-.415 1.111-.198 1.305.532.153.579.325 1.166.358 1.756.058 1.035.014 2.073.014 3.056-1.235 2.211-3.555 2.552-5.564 3.37-1.03.418-2.17.558-3.255.84-1.564.404-3.102.921-4.684 1.218-2.123.396-4.275.634-6.416.935-1.6.224-3.2.448-4.804.653-.42.055-.847.044-1.275.048-2.923.014-5.842.018-8.765.04-2.597.018-5.155-.33-7.73-.642-2.638-.319-5.2-.895-7.724-1.617-2.298-.657-4.585-1.438-6.664-2.67-.548-.327-1.015-.793-1.534-1.207.11-1.889-.384-3.785.591-5.747l.004-.008ZM103.243 170.482c-1.834-.818-3.686-1.654-5.553-2.472-.439-.194-.899-.396-1.367-.462-1.972-.275-2.491-.646-2.41-3.239.025-.847.058-1.709.255-2.527.446-1.863 1.666-3.033 3.485-3.594.285-.088.545-.257.83-.338 1.516-.44 2.521-1.47 3.065-2.886.515-1.342 1.534-1.757 2.799-1.885.182-.019.369.007.548-.026 2.462-.491 4.08.88 5.348 2.663 1.118 1.573 2.05 3.293 2.923 5.017 1.366 2.703.555 4.464-1.827 6.004-1.001.649-2.174 1.027-3.27 1.53l-4.826 2.215Zm3.76-14.873c-1.085-1.426-2.287-.983-3.292-1.045-.241.191-.424.275-.519.418-1.107 1.691-2.693 2.854-4.296 4.005-.136.099-.147.371-.216.569 1.549.623 2.554-.796 3.924-.649.785-1.897 1.728-3.565 4.399-3.301v.003Z" fill="#FA1B7A"/><path d="M118.451 130.956c0-.928-.121-1.849.022-2.726.42-2.571.007-5.046-.676-7.496-.201-.719-.029-1.203.584-1.526a7.87 7.87 0 0 1 1.498-.598c3.215-.891 6.354-.492 9.35.825 2.535 1.112 5.136 2.197 6.875 4.556.073.099.168.176.245.271 1.776 2.109 1.597 3.25-.789 4.482-.537.279-.968.634-1.436.99a6.263 6.263 0 0 1-1.874.972c-1.308.426-2.649.756-3.982 1.104-.501.132-.958.25-1.546.073-2.51-.751-5.093-.957-7.709-.799-.16.011-.328-.073-.566-.128h.004ZM39.236 172.958c-.055-2.549.873-4.391 2.649-5.85 2.966-2.443 6.39-3.947 9.959-5.289 3.997-1.504 8.129-2.439 12.247-3.441 1.921-.465 3.916-.612 5.878-.92.77-.121 1.534-.305 2.302-.451.471-.088.942-.184 1.42-.239 1.437-.161 2.902-.183 4.308-.48 1.984-.422 3.96-.187 6.12-.334-.303 1.13-.96 1.764-1.684 2.329-2.094 1.643-4.472 2.795-6.803 4.038-1.041.558-2.181.44-3.212.228-1.395-.29-2.747-.848-4.07-1.409-1.925-.814-3.792-.935-5.798-.216-1.772.634-3.452 1.379-4.808 2.696-.584.568-1.238.487-1.87.44-1.809-.132-3.445.378-5.053 1.129-1.198.562-2.188 1.376-2.715 2.564-.38.851-1.019 1.211-1.768 1.328-2.762.433-5.07 1.691-7.11 3.877h.008ZM115.499 155.977c.606 1.221 1.176 2.468 1.834 3.664.811 1.478 1.699 2.916 2.55 4.372l1.903 3.26c-.38 1.134-.683 2.04-1.052 3.133-.307-.235-.687-.4-.862-.69-.34-.561-.534-1.21-.848-1.79-.683-1.265-1.293-1.489-2.659-.928a201.76 201.76 0 0 0-5.137 2.201c-2.032.895-4.056 1.812-6.113 2.736l-.891-.635c.08-.135.117-.275.201-.319 1.845-.994 3.73-1.881 5.718-2.574 1.633-.569 2.882-1.776 3.942-3.129.763-.979.877-2.12.504-3.279-.274-.862-.541-1.749-.994-2.52-1.005-1.716-2.009-3.451-3.222-5.021-2.276-2.941-4.563-2.908-7.764-1.764-.511.183-.931.723-1.304 1.17-.303.367-.475.844-.698 1.276-.435.833-.946 1.541-1.987 1.688-.406.055-.782.308-1.18.443-3.011 1.027-4.315 3.301-4.509 6.327-.058.954.084 1.918.142 2.997h-1.42c-2.401-4.647-.286-10.259 3.773-13.494l.07.833c.468-.169.789-.272 1.096-.4.924-.389 1.867-.737 2.758-1.192 1.491-.759 3.153-.664 4.724-1.012 1.582-.356 3.175-.327 4.611.686.427.304.968.476 1.483.623 1.82.528 3.318 1.467 4.344 3.121.124.202.647.158.983.231l.004-.014ZM159.862 169.779c-.698.106-1.268.194-1.926.293-1.472-1.841-3.471-2.876-5.644-3.598-.446-.15-.95-.158-1.429-.172-1.808-.052-3.624.044-5.363-.657-.424-.172-.968-.106-1.451-.062-2.148.205-4.252-.213-6.236-.873-1.622-.539-3.069-1.607-4.589-2.45-1.308-.727-2.473-1.68-3.756-2.461-1.775-1.082-3.562-1.735-5.615-1.607-1.158.07-2.002-.323-2.55-1.57.325-.106.668-.352.902-.271 2.2.73 4.622-.062 6.77 1.034.3.151.72.048 1.082.088 1.015.121 2.034.22 3.043.396 2.006.356 4.03.664 5.999 1.178.972.253 1.951.51 2.908.792 2.919.855 5.849 1.738 8.659 2.897 2.546 1.053 5.06 2.289 7.11 4.237.8.763 1.691 1.474 2.086 2.802v.004ZM139.967 140.968c2.268.059 4.15-.876 5.827-2.314.851-.73 1.677-1.485 2.565-2.27-.008 1.511-.519 2.901-1.228 4.24-.548-.129-.913.154-1.264.528-1.797 1.922-4.033 3.18-6.43 4.17-2.47 1.02-4.991 1.618-7.676.877-.238-.066-.577.253-1.049.476.797.217 1.356.452 1.937.514 2.937.326 5.706-.293 8.359-1.563.584-.278 1.22-.447 1.834-.667.318 1.188-.289 2.142-.921 2.989-.953 1.28-2.053 2.45-3.091 3.668-.785-.25-1.571-.495-2.352-.748-1.462-.473-2.923-.939-4.381-1.423-.727-.242-1.447-.514-2.305-.822.274-.396.486-.697.789-1.133-1.399-.58-2.755-1.093-4.18-1.361-1.629-.308-3.277-.517-4.914-.77-.562-.085-.855-.404-.84-.983.011-.422.044-.847.066-1.269 1.611.062 3.233.025 4.768.653.149.062.336.04.504.029 1.191-.081 2.378-.213 3.569-.242 2.441-.062 4.943.323 7.187-1.082.135-.084.394.029.529-.055.885-.539 2.163-.341 2.73-1.471l-.03.018-.003.011ZM62.893 152.33c-.022-1.016.95-1.335 1.421-2.002.92-1.313 1.915-2.575 2.872-3.844 4.26 1.085 6.448.964 9.261.084-2.886-.264-5.6-.513-8.498-.781.552-1.566 1.381-2.663 2.288-3.712.982.77 1.98 1.471 3.204 1.882 2.126.711 4.18.055 6.207-.264 2.104-.334 4.161-.987 6.295-1.222v3.386c-1.392.194-2.616.352-3.836.542-1.235.191-2.463.408-3.822.635.077.253.154.502.274.902-.504.213-1.02.539-1.575.646-1.753.334-3.448 1.008-5.293.865-.877-.069-1.75.07-2.353.91-.187.26-.607.466-.932.488-1.651.106-3.124.744-4.592 1.419-.26.118-.592.07-.892.099l-.025-.029-.004-.004ZM89.326 120.917c-.398 3.184-.781 6.275-1.187 9.525-.5 0-.88.066-1.227-.011-1.718-.378-3.402-.502-5.174-.161-2.013.385-4.048.172-5.842-.738 2.952-2.593 5.89-5.156 8.798-7.757.493-.44.979-.62 1.622-.627.895-.015 1.79-.132 3.01-.231Z" fill="#FA1B7A"/><path d="m117.855 167.452 1.279 2.7c-.362 1.441-.632 2.523-.953 3.807-1.25.113-2.134.964-2.375 2.615-3.807.011-6.993-1.35-9.865-4.097 3.994-1.621 7.706-3.682 11.914-5.021v-.004Zm-.025 3.187c-.826-1.639-.903-1.672-2.035-1.206-1.045.429-2.094.851-3.146 1.258-.533.205-.566.535-.237 1.1 1.856.275 3.405-1.086 5.414-1.148l.004-.004ZM78.225 112.803c.135-.047.27-.091.405-.139 1.52.015 3.04.033 4.56.04 1.582.008 3.163 0 4.745 0H92.5c1.582 0 3.167.07 4.742-.014 1.461-.081 2.893.172 4.369.088 3.274-.191 6.566-.044 9.85-.037v1.093c-1.194 0-2.331-.033-3.463.007-1.385.052-2.802.404-4.14.195-1.472-.228-2.868.106-4.296.102-7.234-.022-14.468.026-21.706.048.121-.466.245-.928.366-1.394l.004.011ZM66.204 116.078c-.53.342-1.056.69-1.59 1.024-.299.187-.657.308-.905.546-1.253 1.2-2.81 1.559-4.457 1.625-1.26.048-2.525.011-3.873.011.15-1.067.285-2.039.435-3.129 3.503-.157 6.883-.517 10.39-.077ZM58.231 36.027c.212.17.545.297.618.51 1.253 3.73 2.455 7.475 3.719 11.201.16.47.6.84.91 1.258.551-.168.939-.315 1.34-.403.472-.103.644.202.702.612-1.33.565-2.737.738-4.161.818-.581.033-.88-.297-.994-.832-.493-2.318-1.009-4.629-1.465-6.954a71.02 71.02 0 0 1-.709-4.398c-.077-.59.022-1.206.037-1.812h.003ZM58.537 114.472c.077-.283.154-.561.23-.844l.79-1.195H72.01c-1.114 1.404-2.524 2.006-4.04 2.054-3.143.102-6.288 0-9.43-.015h-.004ZM89.904 117.791c-.022 1.13-.537 1.772-1.695 1.871-.413.036-.815.168-1.349.286-.12-.411-.24-.833-.358-1.229-1.797-.69-3.405.088-4.819.836-1.56.825-3.083 1.379-5.056 1.357.453-.788.851-1.489 1.268-2.211 2.513-.426 4.987-.899 7.53-.822a6.341 6.341 0 0 0 2.122-.326c.848-.279 1.597-.294 2.36.242l-.003-.004ZM138.111 49.575c1.71-2.343 2.781-4.94 3.398-7.786.325-1.49.698-3.037 1.743-4.27-.252 1.893-.45 3.793-.771 5.67-.259 1.52-.676 3.016-1.012 4.523-.168.745-.311 1.493-.479 2.3-1.048-.051-2.02.23-2.875-.437h-.004Z" fill="#FA1B7A"/><path d="M111.461 112.745c-3.284-.007-6.576-.154-9.85.037-1.476.084-2.908-.165-4.37-.088-1.578.084-3.163.015-4.742.015h-4.563c-1.582 0-3.164.003-4.746 0-1.52-.008-3.04-.026-4.56-.041.319-.099.637-.282.95-.282 10.333-.011 20.665-.004 30.997.018.296 0 .588.224.884.345v-.004ZM89.57 175.749c.507-.095 1.011-.238 1.523-.275.654-.048 1.311-.011 1.962-.176-2.92-.228-5.857-.569-8.714.425-1.578.547-3.116 1.207-4.687 1.786-.314.118-.68.096-1.023.136.31-.858 1.169-.964 1.834-1.243 3.449-1.442 7.007-2.421 10.792-2.054 1.038.099 2.05.455 3.076.689-.073.11-.146.217-.215.327l.617.055.066-.041c-.237.144-.475.408-.716.411-1.501.019-3.007-.022-4.512-.04h-.004ZM110.653 194.737c-.198-.158-.402-.455-.585-.444-.464.029-.917.202-1.37.315-.259.43-.362.815.223 1.005.322.107.672.129 1.195.22-.983 1.299-2.13.712-3.212.793.103-.947.194-1.768.296-2.722 1.758-.407 3.544-.638 5.378-.282-.632.385-1.626.143-1.922 1.115h-.003ZM57.453 111.556c-.22-1.948 1.505-2.967 1.67-4.636.135.022.27.048.405.07.026.476.062.957.073 1.434.04 1.801.617 2.461 2.506 2.857.106.022.201.11.483.271h-5.137v.004ZM60.702 169.203c-.537 0-1.078.029-1.615-.011-1.312-.099-2.462.256-3.442 1.148-.135-.129-.274-.257-.409-.389.925-1.005 1.875-1.841 3.405-1.141.293.136.779-.169 1.18-.257.468-.102.958-.271 1.301.261-.142.128-.281.257-.424.385l.004.004ZM56.059 179.93c-.033.088-.07.176-.11.261-1.57.132-2.9.935-4.296 1.551-.026-.194-.051-.389-.08-.583 1.187-.921 2.59-1.313 4.014-1.658.157.143.315.286.475.429h-.003ZM108.648 136.196c.226.939.449 1.882.69 2.817.037.143.172.264.263.393-.124.535-.252 1.067-.376 1.602-.431-1.577-1.198-3.084-1.005-4.797.143-.007.289-.011.432-.018l-.004.003ZM114.094 146.825c.11.187.311.374.311.561-.007 1.658-.055 3.32-.088 4.977-.087-.256-.164-.517-.263-.766-.095-.238-.212-.47-.321-.701 0-.744.003-1.485.007-2.23.639-.509.128-1.247.354-1.837v-.004ZM80.834 90.467a.257.257 0 0 1-.04.264c-.625.015-1.254.026-1.878.04v.008c-.022-.458-.04-.917-.063-1.43H80.7c.05.421.09.77.135 1.118ZM120.455 89.576c.793-.157 1.286-.253 1.907-.374v1.353c-.877.44-1.202-.256-1.907-.979ZM68.629 121.059c.928-.623 1.25-1.808 2.766-1.676-.921.741-1.177 2.021-2.766 1.676ZM74.59 169.196c.698-.242 1.385-.547 2.1-.693.224-.044.534.33.8.509-.982.228-1.895.437-2.805.646a21.03 21.03 0 0 1-.095-.462ZM78.225 112.803c-.12.466-.245.928-.365 1.394-.227-.11-.472-.202-.68-.341-.172-.114-.3-.286-.446-.436.38-.353.764-.705 1.144-1.057.117.147.23.294.347.44ZM68.662 92.327c.581-.33.976-.558 1.582-.906-.197.697-.332 1.185-.511 1.823-.326-.279-.61-.525-1.07-.917ZM57.764 33.18c.69.518.398 1.358.639 2.021.015.037-.267.18-.41.275l-.23-2.296ZM131.628 91.791c.609.3.631.805.066 1.511l-.132-1.445.066-.066ZM96.506 152.36l-1.067.722c.143-.557.53-.755 1.067-.722ZM145.826 172.991c.409-.048.815-.092 1.224-.139-.055.066-.047.121.022.168-.42.217-.84.418-1.246-.029ZM78.607 177.663c.153.382.015.591-.38.649l-.333-.333c.238-.107.475-.21.713-.316ZM62.916 152.36l-.57.337-.102-.253.65-.11.026.029-.004-.003ZM96.809 111.534c.08-.198.157-.396.237-.597l.197.667c-.146-.022-.292-.048-.434-.07ZM57.982 35.627c.077.125.15.253.227.378-.077-.125-.15-.253-.227-.378ZM131.562 91.856c-.088-.07-.175-.139-.259-.209.109.048.215.096.325.143l-.066.066ZM165.209 202.956c-1.305.202-2.613.4-4.213.646.307-.359.406-.598.555-.638 1.791-.477 3.493-1.321 5.448-1.262-.599.422-1.199.84-1.801 1.262l.007-.008h.004ZM169.403 199.424c-.836 1.166-2.042.759-2.846 1.401-.106-.264-.266-.514-.215-.565.785-.832 1.783-.843 3.061-.836Z" fill="#FA1B7A"/><path d="m165.201 202.964.278.158-.271-.165-.007.007ZM91.434 84.98c.24-1.09 1.015-1.53 1.735-1.915 4.545-2.435 9.181-2.677 13.876-.433 1.122.536 2.375.925 3.025 2.267-.771.98-1.776 1.03-3.014.95l.303-1.306c-.058-.018-.245-.146-.376-.106-1.483.466-2.978.91-4.435 1.452-1.546.576-3.04.657-4.553-.073-.701-.341-1.414-.675-2.148-.928-.3-.103-.862-.114-.99.066-.87 1.207-1.896.598-2.894.334-.164-.044-.306-.172-.526-.304l-.003-.004Zm6.82-2.469c.468 1.343 1.466.745 2.174.848.549.077.95-.176.749-.873-.902-.683-1.8-.338-2.926.025h.004ZM90.119 82.893c-3.416-.598-5.886-2.953-9.013-4.343.836-.209 1.29-.22 2.104-.03-.277-.391-.405-.718-.64-.872-1.157-.755-2.3-1.551-3.536-2.168-1.724-.862-3.46-1.79-5.297-2.296-2.54-.704-5.177-1.052-7.775-1.53-.585-.105-1.231 0-1.706-.74.332-.125.632-.341.92-.326 1.809.091 3.632.113 5.411.4 2.127.34 4.25.814 6.314 1.433 3.66 1.1 6.718 3.257 9.477 5.858a6.253 6.253 0 0 1 1.198 1.595c.632 1.189 1.26 2.351 2.543 3.026v-.007Zm-6.09-3.954.022-.264c-.198.007-.395.018-.592.033-.004 0-.011.117 0 .117.19.044.38.077.573.114h-.004ZM116.694 79.808l3.372-.65c.285-.055.813.062 1.585.353l-9.612 2.758c.552-.572 1.012-.891 1.268-1.335 2.031-3.525 5.25-5.66 8.717-7.453 1.315-.682 2.788-1.104 4.227-1.485 3.208-.847 6.449-1.563 9.799-1.445.358.01.72.058 1.074.12.091.015.157.166.256.283-.19.69-.789.565-1.294.65-2.192.37-4.398.682-6.572 1.147-4.023.859-7.578 2.758-10.884 5.157-.731.528-1.407 1.134-2.108 1.706-.19.088-.38.172-.57.26l.088.213c.219-.092.434-.184.654-.279ZM142.844 144.962c-.613.22-1.249.389-1.834.668-2.652 1.269-5.421 1.889-8.359 1.562-.581-.066-1.14-.297-1.936-.513.471-.224.811-.543 1.048-.477 2.686.737 5.21.143 7.676-.877 2.397-.99 4.633-2.244 6.431-4.17.35-.374.716-.656 1.264-.528-.647 1.339-1.802 2.171-2.93 3.048-.486.378-1.257.495-1.363 1.287h.003ZM106.208 79.676c-2.094-.484-4.008-1.614-6.142-1.357-2.035.242-4.037.774-6.043 1.178 2.364-2.421 9.386-2.667 12.185.18ZM150.566 122.376c.296 1.086.632 2.164.884 3.261.468 2.01.826 4.056.541 6.106-.179 1.284-.716 2.52-1.118 3.771-.037.113-.263.161-.683.403.895-2.384 1.428-4.592 1.129-6.873-.289-2.19-.727-4.361-1.1-6.54.117-.04.234-.084.351-.124l-.004-.004ZM150.911 137.539c.607 2.072.062 3.22-2.13 4.577.146-.425.183-.689.314-.891.603-.902 1.191-1.797 1.265-2.938.014-.194.266-.374.548-.748h.003ZM176.762 151.003c.986 1.031 1.311 2.296 1.194 4.016-.931-1.368-.803-2.762-1.194-4.016ZM162.864 164.369c-.701-.551-1.293-1.145-1.764-2.036 1.476.506 1.636.708 1.764 2.036ZM101.517 76.112c-2.302.48-3.373.455-3.91 0h3.91ZM47.022 158.565c-2.408 1.911-5.005 2.689-7.08 2.186 2.579-.796 4.83-1.489 7.08-2.186ZM14.525 153.761c-.632-1.573-.519-1.969 1.027-3.88-.278.979-.46 1.577-.618 2.182-.15.561-.274 1.13-.41 1.698ZM26.734 168.487a16.296 16.296 0 0 0-.256-.143c.052-.044.1-.088.15-.132l.11.268h-.004v.007ZM148.369 169.658c.504-.022 1.045-.249 1.538.279-.172.15-.292.348-.413.348-2.415.015-4.83.011-7.245-.007-.153 0-.306-.154-.46-.238 1.882-.03 3.76-.048 5.637-.103.318-.011.629-.18.943-.279Z" fill="#FA1B7A"/><path d="M148.36 169.657c-.314.096-.625.268-.942.279-1.878.055-3.76.073-5.638.103l-2.469-.151c.003-.077.01-.154.014-.231h9.035ZM68.528 102.087c-1.037-.114-1.837-.202-2.637-.286 1.512-.62 1.523-.616 2.637.286ZM64.177 108.688c-.803.099-1.647.899-2.517-.216l2.419-.855 3.905 1.768c-1.501.891-2.623-.106-3.807-.697ZM133.388 109.437c1.517-.671 2.646-1.167 4.074-1.797.537.176 1.414.469 2.357.781-.578.504-1.4.598-2.467.282-1.128.583-2.21 1.405-3.967.734h.003ZM94.729 175.416l-.618-.055c.073-.11.146-.217.216-.327.131.129.267.253.398.382h.004ZM140.797 124.97c1.41-.202 2.824-.4 4.238-.602-2.061 1.445-3.043 1.533-4.238.602ZM139.338 120.308c1.14-.19 2.28-.378 3.46-.576-.705 1.207-1.385 1.368-3.46.576ZM124.312 164.463h-2.24c.746-.612 1.491-.495 2.24 0Z" fill="#FA1B7A"/><path d="M125.763 165.201c-.573-.11-1.14-.246-1.501-.77.614.036 1.275-.022 1.501.77ZM46.09 187.177v-.414c.248-.077.686-.121.708-.239.066-.344-.04-.718-.106-1.32.724.825.424 1.555.424 2.406-.427-.18-.73-.308-1.03-.433h.004Z" fill="#FA1B7A"/></svg>