<svg xmlns="http://www.w3.org/2000/svg" width="93" height="94" fill="none"><path d="M55.615 14.668c-7.688-4.534-9.127-5.998-8.245-8.398.587-1.6 2.273-2.975 3.747-3.057 1.473-.084 6.654-.802 11.51-1.598 9.975-1.634 18.985-1.703 18.241-.14-.272.575-2.364.906-4.646.738-2.282-.169-9.054.373-15.051 1.203-14.774 2.045-15.785 4.696-3.915 10.26 7.451 3.493 9.483 3.738 14.14 1.707 2.991-1.304 5.3-2.705 5.126-3.112-1.033-2.458-7.41-4.843-13.002-4.867-11.4-.049-1.894-1.971 11.715-2.37 14.768-.432 18.2-1.13 11.55-2.35-5.171-.95-3.946-2.094 1.36-1.273 1.913.296 3.802 1.463 4.201 2.593.89 2.52-2.303 4.683-16.448 11.145l-10.97 5.011-9.313-5.492ZM20.273 73.68c-5.511-3.506-7.28-7.812-5.23-12.734 2.028-4.87 6.626-6.274 12.314-3.76 4.897 2.168 9.233 10.616 6.924 13.492-.674.841-.353 2.689.716 4.108 1.069 1.418 1.524 2.727 1.012 2.908-2.54.896-11.682-1.436-15.736-4.014ZM59.705 62.21c-3.021 1.77-15.114-1.098-16.09-3.816-.931-2.59 4.404-4.245 7.567-2.347 1.416.85 4.13 1.233 6.031.853 4.174-.834 6.073 3.21 2.492 5.31ZM1.675 92.122c-.845-.995-1.057-3.12-.47-4.722 1.272-3.463 1.423-3.535 5.884-2.847 3.227.5 6.061 4.594 4.886 7.06-.932 1.962-8.737 2.346-10.3.509Z" fill="#FA007A"/></svg>