<?xml version="1.0" encoding="UTF-8"?> <svg xmlns="http://www.w3.org/2000/svg" width="191" height="256" viewBox="0 0 191 256" fill="none"> <path d="M125.74 238.086L163.928 255.515L148.351 204.92C165.411 193.883 179.738 176.732 190.157 153.903L158.154 139.296C152.27 152.188 145.239 162.609 137.453 170.414L118.146 108.056C150.096 102.842 167.694 92.0509 176.642 72.4446C188.287 46.9295 176.477 20.1204 147.701 6.98717C118.656 -6.26883 88.8298 2.83522 76.9395 28.8874C70.1976 43.6593 70.5981 58.4457 77.837 83.1682C41.0972 83.9245 16.5508 96.4119 5.64121 120.315C-9.4361 153.351 9.04297 189.045 51.8032 208.561C75.4693 219.362 98.3122 221.999 119.304 217.3L125.74 238.086ZM108.258 42.8568C113.529 31.3079 123.977 27.6388 135.81 33.0394C147.106 38.1945 151.033 48.1003 145.762 59.6492C139.633 73.0782 127.884 81.0214 110.491 82.819C104.471 62.5469 103.845 52.5257 108.258 42.8568ZM41.8045 132.926C48.7915 117.617 62.2768 110.142 85.6137 108.136L110.016 187.099C97.1711 190.323 83.2304 188.829 68.4392 182.078C43.1595 170.54 33.1013 151.995 41.8045 132.926Z" fill="#FA007A"></path> </svg> 