<svg xmlns="http://www.w3.org/2000/svg" width="81" height="80" fill="none"><g clip-path="url(#a)"><path fill-rule="evenodd" clip-rule="evenodd" d="M49.447 2.311c1.24 1.231 1.657 4.635 3.351 6.59 2.29 2.642 6.232 3.75 11.4 3.205 3.784-.4 5.207.006 7.26 2.068 2.34 2.353 2.423 3.069.991 8.629-1.779 6.912-.817 9.88 4.284 13.226 4.338 2.843 5.401 5.318 3.861 8.986-.954 2.273-2.008 3.235-5.171 4.718-5.413 2.54-7.017 5.612-6.456 12.37.69 8.31-3.196 11.544-10.925 9.09-6.036-1.916-9.125-1-12.99 3.85-4.02 5.045-5.63 5.795-9.235 4.3-2.512-1.043-3.363-1.979-4.997-5.49-2.536-5.448-5.166-6.748-12.107-5.983-7.718.851-11.857-3.697-9.263-10.178 1.26-3.144 1.296-8.794-.183-10.569-2.095-2.515-3.322-3.036-5.216-4.36-1.128-.788-1.698-.992-2.815-2.323-1.695-2.532-1.759-3.744-.664-6.03.981-2.046 3.282-3.255 6.262-4.544 5.274-2.282 7.78-7.088 6.432-12.337-1.203-4.69.554-8.294 4.75-9.596 1.699-.527 4.27.363 6.73.931 2.001.462 3.526.867 5.57.512 3.36-.582 4.063-1.093 7.292-5.31 2.2-2.875 4.145-4.868 7.303-4.062 2.119.342 3.297 1.076 4.536 2.307Zm6.624 47.699c2.73-4.887 3.321-7.266 1.419-12.414-1.75-4.737-2.724-5.608-5.873-7.884-6.392-3.567-14.948-1.56-17.307 4.06-2.14 5.1-1.736 8.047 1.575 11.45 1.655 1.704 3.528 2.889 4.16 2.635.803-.323.223-1.304-1.93-3.265-2.525-2.3-3.041-3.414-2.879-6.207.297-5.07 4.902-8.6 10.588-8.116 4.026.342 5.247.571 8.299 4.89 2.75 3.895 2.483 5.377 1.865 8.474-1.067 5.358-4.516 9.96-8.727 11.646-11.017 4.41-23.38-3.116-25.126-15.297-.675-4.701-2.587-5.578-2.523-1.156.097 6.706 6.284 15.606 12.738 18.328 9.49 4 19.115 1.102 23.721-7.144Z" fill="#FA007A"/></g><defs><clipPath id="a"><path fill="#fff" d="M0 0h81v80H0z"/></clipPath></defs></svg>