<svg xmlns="http://www.w3.org/2000/svg" width="61" height="37" fill="none"><path d="M5.513 26.477H2.58V2.973H1V.32h6.094v2.653H5.513v23.504ZM11.854 26.477h-2.97V.32h2.97v11.21h1.312V.32h2.97v26.157h-2.97V14.22h-1.312v12.257ZM21.384 3.01v8.52h2.006v2.69h-2.006v9.566h2.585v2.69h-5.555V.32h5.555v2.69h-2.585ZM33.136 3.645v19.506c0 .324.025.548.077.672.077.1.231.15.463.15h.193c.231 0 .385-.05.462-.15.078-.124.116-.348.116-.672v-8.072h2.739v8.408c0 1.246-.193 2.093-.579 2.541-.386.424-1.157.635-2.314.635h-1.196c-1.157 0-1.941-.211-2.353-.635-.385-.448-.578-1.295-.578-2.54V3.307c0-1.245.193-2.08.578-2.503.412-.448 1.196-.672 2.353-.672h1.196c1.157 0 1.928.224 2.314.672.386.424.579 1.258.579 2.504v7.286h-2.739v-6.95c0-.324-.038-.535-.116-.635-.077-.125-.23-.187-.462-.187h-.193c-.232 0-.386.062-.463.187-.052.1-.077.311-.077.635ZM42.364.32v22.83c0 .325.039.549.116.673.077.1.232.15.463.15h.154c.232 0 .386-.05.463-.15.077-.124.116-.348.116-.672V.32h2.777v23.167c0 1.246-.206 2.093-.617 2.541-.386.424-1.157.635-2.314.635h-1.196c-1.157 0-1.942-.211-2.353-.635-.386-.448-.579-1.295-.579-2.54V.32h2.97ZM48.7 26.477V.32h2.97v23.466h2.198v2.69h-5.169ZM58.775 26.477h-2.931V2.973h-1.582V.32h6.095v2.653h-1.582v23.504ZM.607 33.735c0 .787.478 1.34 1.347 1.34.812 0 1.36-.516 1.36-1.334v-3.293h-.617v3.268c0 .472-.227.787-.743.787-.503 0-.749-.321-.749-.768v-.227H.607v.227Zm4.535 1.34c.497 0 .919-.22 1.076-.572l.063.497h.504v-1.933c0-.83-.517-1.234-1.278-1.234-.794 0-1.322.422-1.322 1.064H4.7c0-.371.283-.591.78-.591.416 0 .724.182.724.698v.089l-.969.075c-.724.057-1.146.41-1.146.976 0 .56.39.931 1.052.931Zm.17-.459c-.384 0-.624-.164-.624-.491 0-.302.214-.504.737-.554l.787-.063v.164c0 .579-.34.944-.9.944Zm2.292 1.763h.592v-1.883c.201.378.61.586 1.102.586.912 0 1.429-.705 1.429-1.643 0-.945-.548-1.606-1.43-1.606-.49 0-.906.22-1.114.642l-.044-.553h-.535v4.457Zm.598-2.915c0-.642.365-1.09.97-1.09.604 0 .963.454.963 1.09 0 .63-.359 1.083-.963 1.083-.605 0-.97-.453-.97-1.083Zm4.077 1.611c.498 0 .92-.22 1.077-.572l.063.497h.503v-1.933c0-.83-.516-1.234-1.278-1.234-.793 0-1.322.422-1.322 1.064h.517c0-.371.283-.591.78-.591.416 0 .724.182.724.698v.089l-.97.075c-.723.057-1.145.41-1.145.976 0 .56.39.931 1.051.931Zm.17-.459c-.384 0-.623-.164-.623-.491 0-.302.214-.504.736-.554l.787-.063v.164c0 .579-.34.944-.9.944Zm2.885.384v-1.63c0-.599.32-.995.875-.995.453 0 .742.252.742.875V35h.592v-1.882c0-.787-.371-1.285-1.183-1.285-.435 0-.825.208-1.02.56l-.063-.471h-.535V35h.592Zm4.357.075c.762 0 1.278-.37 1.43-1.032h-.555c-.1.353-.403.541-.862.541-.586 0-.926-.358-.97-1.007l2.38-.006v-.22c0-.913-.573-1.518-1.448-1.518-.894 0-1.505.668-1.505 1.63 0 .958.624 1.612 1.53 1.612Zm-.025-2.744c.523 0 .856.34.856.85h-1.775c.076-.542.403-.85.92-.85Zm1.857 1.775c0 .585.46.97 1.184.97.73 0 1.234-.372 1.234-.957 0-.46-.258-.7-.781-.825l-.541-.132c-.303-.076-.454-.214-.454-.422 0-.283.208-.447.58-.447.358 0 .566.195.579.504h.566c-.012-.586-.453-.964-1.127-.964-.68 0-1.158.36-1.158.926 0 .453.258.724.806.856l.541.126c.321.082.422.208.422.415 0 .284-.24.454-.655.454-.39 0-.63-.19-.63-.504h-.566Zm4.402.97c.762 0 1.278-.372 1.43-1.033H26.8c-.1.353-.403.541-.862.541-.586 0-.926-.358-.97-1.007l2.38-.006v-.22c0-.913-.573-1.518-1.448-1.518-.894 0-1.505.668-1.505 1.63 0 .958.624 1.612 1.53 1.612ZM25.9 32.33c.523 0 .856.34.856.85h-1.775c.075-.542.403-.85.919-.85ZM30.448 35v-1.8h1.165l.85 1.8h.686l-.926-1.92c.567-.183.882-.636.882-1.265 0-.85-.58-1.367-1.555-1.367H29.83V35h.617Zm0-3.998h1.102c.566 0 .906.29.906.819 0 .522-.327.83-.9.83h-1.108v-1.649Zm4.508 4.073c.762 0 1.278-.37 1.43-1.032h-.555c-.1.353-.403.541-.862.541-.586 0-.925-.358-.97-1.007l2.38-.006v-.22c0-.913-.573-1.518-1.448-1.518-.894 0-1.504.668-1.504 1.63 0 .958.623 1.612 1.53 1.612Zm-.025-2.744c.523 0 .856.34.856.85h-1.775c.076-.542.403-.85.92-.85Zm1.857 1.775c0 .585.46.97 1.184.97.73 0 1.234-.372 1.234-.957 0-.46-.258-.7-.78-.825l-.542-.132c-.303-.076-.454-.214-.454-.422 0-.283.208-.447.58-.447.358 0 .566.195.579.504h.566c-.012-.586-.453-.964-1.127-.964-.68 0-1.158.36-1.158.926 0 .453.258.724.806.856l.541.126c.321.082.422.208.422.415 0 .284-.24.454-.655.454-.39 0-.63-.19-.63-.504h-.566Zm3.943.894v-2.581h.604v-.497h-.604v-.964h-.592v.964h-.604v.497h.604V35h.592Zm1.998.075c.498 0 .92-.22 1.077-.572l.063.497h.504v-1.933c0-.83-.517-1.234-1.278-1.234-.794 0-1.322.422-1.322 1.064h.516c0-.371.283-.591.78-.591.416 0 .724.182.724.698v.089l-.97.075c-.723.057-1.145.41-1.145.976 0 .56.39.931 1.052.931Zm.17-.459c-.383 0-.623-.164-.623-.491 0-.302.214-.504.737-.554l.787-.063v.164c0 .579-.34.944-.9.944Zm4.421-2.694v1.624c0 .66-.296 1.007-.837 1.007-.454 0-.737-.252-.737-.913v-1.718h-.592v1.913c0 .756.403 1.24 1.121 1.24.453 0 .862-.22 1.039-.54l.063.465h.529v-3.078h-.586Zm3.207-.026a1.428 1.428 0 0 0-.315-.037c-.422 0-.73.214-.856.535l-.038-.466h-.554V35h.592v-1.63c0-.592.346-.932.906-.932h.265v-.542Zm1.332 3.18c.497 0 .92-.22 1.077-.573l.063.497h.503v-1.933c0-.83-.516-1.234-1.278-1.234-.793 0-1.322.422-1.322 1.064h.516c0-.371.284-.591.781-.591.416 0 .724.182.724.698v.089l-.97.075c-.724.057-1.145.41-1.145.976 0 .56.39.931 1.051.931Zm.17-.46c-.384 0-.623-.164-.623-.491 0-.302.214-.504.736-.554l.787-.063v.164c0 .579-.34.944-.9.944Zm2.884.384v-1.63c0-.599.322-.995.876-.995.453 0 .742.252.742.875V35h.592v-1.882c0-.787-.371-1.285-1.183-1.285-.435 0-.825.208-1.02.56l-.063-.471h-.535V35h.591Zm3.899 0v-2.581h.604v-.497h-.604v-.964h-.592v.964h-.605v.497h.605V35h.592Z" fill="#201B19"/></svg>