<svg xmlns="http://www.w3.org/2000/svg" width="417" height="381" fill="none"><path fill-rule="evenodd" clip-rule="evenodd" d="M137.122 4.594c-.739.208-1.499 2.09-1.687 4.18-.306 3.376.509 4.814 7.293 12.865 13.67 16.223 19.633 27.497 20.586 38.92.405 4.852.882 6.157 2.125 5.808.881-.247 1.188-.775.683-1.173-.506-.397-1.089-2.62-1.297-4.939-.954-10.614-7.941-23.754-21.115-39.702-5.9-7.145-7.509-9.796-7.07-11.652.859-3.625 4.484-3.18 19.864 2.44 15.704 5.737 17.743 6.106 19.019 3.441.869-1.812 1.224-2.015 3.283-1.867.43.03.171-.413-.575-.987-1.083-.83-.882-1.241.992-2.03 2.111-.89 3.211-.062 10.904 8.204 12.17 13.073 29.496 28.285 37.966 33.333 3.986 2.375 7.765 4.366 8.399 4.424.634.059 6.456 7.062 12.937 15.562 14.545 19.078 32.436 39.703 51.881 59.807 2.369 2.45 7.508 8.12 11.42 12.6s10.279 11.186 14.149 14.903c3.87 3.716 7.625 8.2 8.342 9.962.718 1.763 4.593 7.336 8.611 12.386 4.018 5.049 7.065 9.702 6.771 10.339-.294.638 1.112 1.874 3.124 2.747 3.486 1.513 7.2 6.745 6.932 9.764-.068.763-3.635-.956-8.778-4.228-10.219-6.503-22.332-11.5-34.69-14.309-8.675-1.973-8.954-2.128-10.266-5.673-1.72-4.649-1.606-5.581.603-4.915 10.407 3.138 26.171 8.715 30.433 10.767 2.927 1.409 5.875 2.434 6.55 2.275 1.434-.335-12.582-6.706-19.296-8.774a401.253 401.253 0 0 1-8.653-2.786 158.597 158.597 0 0 0-7.952-2.423c-3.672-.988-4.047-1.503-6.775-9.288-1.588-4.532-3.055-9.31-3.259-10.618-.712-4.559-3.442-6.182-13.527-8.041-18.492-3.409-38.574-9.268-57.316-16.722-5.495-2.185-10.164-3.988-10.375-4.008-.212-.019-.328-.644-.26-1.388.382-4.167-39.277-52.909-46.905-57.648-.925-.575.899 1.66 4.055 4.967 15.549 16.297 42.054 49.932 41.772 53.008-.235 2.555-6.689-3.61-14.177-13.541-7.621-10.106-24.559-29.554-33.286-38.216-1.748-1.736-2.848-3.596-2.443-4.132.426-.566.032-.778-.934-.508-2.459.693-2.149 1.4 2.55 5.819 2.344 2.206 4.07 4.168 3.835 4.363-.972.808-38.316-14.304-47.784-19.335-9.254-4.92-10.84-5.445-16.427-5.452l-6.183-.009-7.977-7.924C88.805 40.83 79.77 30.832 73.116 22.968L61.015 8.672 53.08 6.677c-4.364-1.098-10.613-2.939-13.886-4.09-3.272-1.152-6.126-1.948-6.34-1.77-.595.494 1.66 9.052 3.565 13.526.926 2.179 2.35 6.14 3.164 8.802 4.25 13.91 4 13.497 10.037 16.524 10.87 5.451 15.192 8.131 14.747 9.144-1.03 2.344-11.608 7.064-19.543 8.718-4.691.979-16.58 2.596-26.419 3.594C3.921 62.593.484 63.265.347 64.647c-.092.941 4.7 6.376 10.67 12.102 10.008 9.597 14.857 15.23 32.228 37.427 3.497 4.47 7.376 8.451 8.62 8.848 1.244.397 6.839 1.63 12.432 2.742 25.483 5.061 62.124 18.092 75.953 27.012 3.46 2.232 6.144 2.948 14.613 3.897 10.815 1.212 28.3 6.704 32.897 10.334 3.032 2.393 17.734 30.198 23.761 44.938 3.67 8.976 5.133 14.294 5.897 21.438l1.015 9.501 11.47 8.491c13.653 10.109 39.19 36.546 49.516 51.26 1.774 2.53 3.286 3.334 7.864 4.19 3.117.582 9.746 2.849 14.733 5.038 4.986 2.188 10.564 4.312 12.394 4.719 3.276.727 32.034 17.888 49.446 29.505 13.699 9.14 34.331 23.649 35.934 25.27.791.799 3.778 3.412 6.638 5.804 4.969 4.158 5.294 4.279 7.347 2.742 2.241-1.678 3.236-5.365 1.491-5.525-.553-.051-.823.554-.599 1.345.224.791-.335 1.945-1.242 2.566-1.373.939-2.814-.35-8.594-7.678-16.772-21.264-32.727-44.631-48.506-71.038-6.223-10.413-11.558-19.19-11.855-19.505-.768-.812 3.329 7.823 4.667 9.837 4.425 6.658 9.405 16.78 8.71 17.702-.495.656-.356.873.338.528 1.407-.697 5.277 4.856 4.292 6.162-.375.497-.035 2.119.756 3.604.791 1.485 1.076 2.681.632 2.657-.443-.023-.031.508.916 1.182.946.673 1.678 1.695 1.626 2.27-.053.575-.65.656-1.327.181-.715-.502-.904-.436-.452.159.43.562 1.281 1.068 1.894 1.125.612.056 1.16.956 1.216 1.999.089 1.613-.122 1.672-1.407.394-.831-.827-1.765-1.292-2.075-1.033-.309.259-.633-.712-.719-2.157-.085-1.445-.598-2.826-1.139-3.068-.542-.243-.707-.808-.369-1.257.339-.449-.362-1.778-1.555-2.954-1.195-1.176-2.261-2.841-2.37-3.698-.109-.859-.618-1.758-1.133-1.998s-.688-.765-.384-1.168c.303-.402-.128-.794-.957-.87-1.196-.11-1.142.56.265 3.248 2.81 5.371 4.406 10.427 3.62 11.468-.397.527-.165.881.517.785.681-.095 1.581.564 1.999 1.464.418.901 2.739 5.65 5.159 10.554 2.42 4.905 4.089 9.174 3.71 9.488-.377.314-.191.617.413.672.606.056 1.31.837 1.565 1.736.377 1.334.102 1.398-1.493.349-1.074-.707-1.91-1.763-1.856-2.347.053-.584-.363-.833-.925-.554-.563.28-1.277-.001-1.588-.624-.31-.622-.99-.92-1.511-.661-.52.258-1.179.002-1.464-.568a1.16 1.16 0 0 1 .522-1.554c.572-.284 1.294-.008 1.604.615.311.622 1.102.865 1.758.539.761-.378.843-.129.226.688-.646.857-.537 1.067.33.637 1.586-.788-3.594-9.215-5.592-9.098-3.33.196-4.232 1.478-2.581 3.671 1.509 2.005 1.748 2.044 3.682.596 1.137-.852 2.024-1.067 1.97-.478-.054.588-.773 1.532-1.598 2.096-1.952 1.334-13.146-5.811-11.857-7.568.462-.632-.009-.58-1.049.115-1.742 1.163-2.313.7-1.743-1.411.126-.463-.268-.594-.875-.293-.606.302-7.472-3.393-15.256-8.208-9.578-5.927-16.004-9.201-19.882-10.134-3.151-.758-7.733-2.519-10.18-3.914-2.448-1.396-6.595-3.29-9.217-4.21-2.621-.921-4.712-2.246-4.648-2.947.199-2.163-11.554-17.906-18.413-24.665-23.69-23.345-32.689-34.063-44.968-53.558-3.546-5.631-6.572-10.136-6.724-10.01-.152.125.349 3.101 1.113 6.613a499.868 499.868 0 0 1 2.5 12.387l1.112 6.001 15.99 13.725c18.029 15.475 39.403 37.956 38.27 40.25-.394.797-.352 1.27.094 1.051.447-.219 2.962 1.86 5.591 4.618l4.78 5.018-3.219-.275c-1.82-.154-3.89-1.166-4.765-2.327-2.498-3.318-1.615-4.05 1.243-1.031l2.627 2.775-2.23-3.047c-1.228-1.676-2.588-2.871-3.023-2.654-1.38.685-4.084-3.825-3.114-5.193.502-.709.508-.986.012-.616-1.104.826-5.635-3.421-19.269-18.065-12.333-13.247-19.426-19.912-25.808-24.248-11.247-7.643-12.293-8.866-12.528-14.648-.491-12.069-5.845-26.64-18.799-51.163-4.15-7.856-10.5-19.023-14.112-24.816a2674.298 2674.298 0 0 1-12.961-21.052c-7.226-11.888-6.454-10.801-19.913-28.074-10.433-13.39-19.019-26.42-17.978-27.285.334-.277 4.487 2.627 9.228 6.456 11.582 9.35 24.086 17.955 37.296 25.665 12.018 7.014 33.199 17.667 36.825 18.52 1.265.297 4.73 1.547 7.701 2.776 2.97 1.229 5.602 2.068 5.847 1.864.246-.205-3.072-1.812-7.373-3.572-29.068-11.894-55.457-27.384-81.01-47.55-9.368-7.394-10.395-8.61-7.876-9.317 1.05-.296 5.713 2.606 12.208 7.599 22.481 17.28 52.319 34.106 78.766 44.415 19.254 7.506 37.238 12.675 60.832 17.484l6.053 1.233-2.319 1.924c-3.086 2.56-9.995 1.746-29.058-3.422-8.016-2.174-14.917-3.943-15.335-3.932-3.207.085 22.484 7.485 36.2 10.426 5.991 1.285 6.421 1.233 7.663-.935 1.44-2.516 3.751-2.812 5.055-.646.458.761 2.455 6.236 4.44 12.167 4.604 13.767 19.241 51.694 22.166 57.439 1.229 2.413 3.909 8.304 5.957 13.091 4.228 9.891 5.439 12.282 19.835 39.171 11.443 21.372 24.926 43.553 37.604 61.861 11.782 17.014 26.703 36.827 27.337 36.301.299-.247-1.591-3.104-4.199-6.348-4.985-6.198-24.539-33.677-30.022-42.19-18.761-29.127-37.85-63.646-49.935-90.306-8.781-19.368-19.341-45.549-19.162-47.504.077-.831.977-1.058 2.415-.61 1.26.394 5.522 1.49 9.47 2.438 9.766 2.342 21.866 7.666 30.426 13.387 3.912 2.614 7.603 4.798 8.201 4.853 3.03.278.214-8.332-4.353-13.311-9.339-10.18-17.159-20.02-18.974-23.872-1.139-2.416-5.876-8.094-10.527-12.618-4.651-4.524-11.007-11.261-14.125-14.968-3.118-3.709-9.969-11.28-15.225-16.825-17.369-18.327-34.178-37.829-46.46-53.898-7.284-9.533-13.129-16.198-14.657-16.717-3.514-1.194-12.774-7.007-18.467-11.595-5.029-4.054-20.412-18.53-24.559-23.113-12.136-13.41-12.668-13.649-17.407-7.756-1.722 2.141-3.754 3.836-4.514 3.767-.76-.07-3.889-1.253-6.955-2.632-3.067-1.377-9.185-3.61-13.596-4.964-11.073-3.4-11.93-3.601-13.458-3.172Zm4.951 7.259c2.576 2.65 6.7 7.26 9.163 10.246 2.464 2.986 4.519 5.006 4.566 4.49.114-1.242-16.048-19.335-17.38-19.458-.568-.052 1.074 2.073 3.651 4.722ZM34.3 2.945c-.053.578 2.348 8.24 5.334 17.028 5.27 15.502 5.555 16.044 9.596 18.2 2.29 1.222 7.079 3.877 10.64 5.898 4.99 2.833 8.374 3.942 14.754 4.833 4.553.636 11.06 1.67 14.462 2.298l6.183 1.141-2.98-3.17c-1.64-1.742-6.146-6.047-10.016-9.565C71.146 29.495 69.87 28.09 64.704 20.258c-4.747-7.196-5.052-7.444-11.378-9.217-8.12-2.278-17.504-5.982-16.744-6.612.314-.26 2.67.458 5.233 1.597 2.564 1.14 6.407 2.161 8.538 2.27 3.53.182 3.601.134.798-.53-1.693-.403-6.155-1.888-9.916-3.302-4.054-1.523-6.878-2.142-6.935-1.519Zm125.424 30.93c.435.79 2.277 4.98 4.095 9.31 1.819 4.33 3.352 7.511 3.408 7.068.182-1.44-4.768-13.161-6.555-15.52-.956-1.262-1.383-1.65-.948-.858Zm-69.02 11.117c3.657 4.115 7.05 7.522 7.54 7.572.983.1-7.584-9.362-11.634-12.851-1.406-1.211.437 1.165 4.094 5.28Zm76.958 8.729c.254 1.46.614 4.551.8 6.868l.339 4.213.416-3.62c.229-1.992-.131-5.083-.8-6.87-.974-2.602-1.124-2.719-.755-.591ZM63.689 51.87c-7.265 5.008-18.606 7.867-39.875 10.055-15.626 1.607-22.436 2.793-22.54 3.924a.806.806 0 0 0 .715.883C3.37 66.86 21.89 85.57 27.597 92.605c3.023 3.727 9.065 11.482 13.426 17.234 5.047 6.657 8.485 10.301 9.458 10.026.842-.236 1.226-.026.854.467-.932 1.235 1.529 2.054 11.15 3.709 9.902 1.704 36.279 9.195 49.27 13.996 10.922 4.034 26.523 11.511 30.936 14.824 1.694 1.271 3.425 2.025 3.847 1.675 1.903-1.58 26.25 3.484 34.437 7.16 3.03 1.361 5.638 2.368 5.793 2.237.156-.131-.506-1.416-1.472-2.856s-4.369-3.749-7.561-5.129c-5.029-2.175-3.126-2.205 2.282-.036 1.575.632 1.338-.265-1.22-4.604-1.747-2.964-4.73-8.118-6.63-11.455-3.542-6.223-7.269-11.404-18.114-25.184-8.337-10.591-15.585-21.086-19.851-28.743-3.477-6.24-3.494-6.34-1.358-8.3 1.632-1.496 2.904-1.762 5.194-1.082 1.669.496 3.255 1.313 3.526 1.816 1.362 2.537 20.262 15.818 36.477 25.632 11.742 7.108 14.215 8.522 21.41 12.244 1.651.854 3.824 2.077 4.83 2.717 3.42 2.175 2.703.463-2.16-5.159-2.667-3.086-4.537-4.92-4.155-4.077.469 1.033.321 1.251-.454.669-.631-.474-.793-1.331-.361-1.904.434-.575-4.465-7.071-10.923-14.485-9.706-11.143-12.128-13.379-14.148-13.066-1.501.233-2.394-.089-2.325-.836.061-.669-.72-1.156-1.735-1.084-1.015.073-2.412-.298-3.105-.826-.691-.527-4.313-2.18-8.047-3.673-7.035-2.815-8.754-3.476-18.946-7.282-3.344-1.25-6.483-2.754-6.977-3.345-.493-.59-1.622-1.142-2.508-1.227-.885-.084-4.647-2.076-8.358-4.427-4.84-3.065-7.269-4.058-8.587-3.506-1.071.447-8.097-.173-16.829-1.487-24.954-3.755-27.357-3.86-30.974-1.367Zm10.676.419c.5.52 2.956 1.77 5.457 2.774 2.502 1.005 5.664 2.525 7.027 3.377 3.746 2.345 18.103 9.056 21.857 10.218 3.591 1.112 4.063.788 2.214-1.52-.656-.818-2.792-3.87-4.744-6.78-2.077-3.099-4.405-5.37-5.613-5.482-1.408-.129-1.92.323-1.61 1.42.66 2.33-5.625 1.542-14.951-1.87-8.19-2.997-11.078-3.638-9.637-2.137ZM9.984 68.638C12.647 70.676 23.004 82.21 33 94.272c18.435 22.245 25.3 29.62 11.946 12.835-19.094-24-35.43-41.773-38.667-42.07-.627-.058 1.04 1.563 3.705 3.6Zm155.724 11.964c-.934.463-.598 1.155 1.103 2.274 1.345.885 2.579 2.376 2.744 3.315.164.938.365.47.448-1.039.106-1.952-.302-2.618-1.416-2.305-.962.27-1.253.026-.754-.636 1.048-1.388-.385-2.472-2.125-1.609Zm7.068 2.728c-1.207.617-1.215.874-.046 1.448.811.4 1.479.074 1.556-.756.073-.801.093-1.453.045-1.449-.048.005-.748.346-1.555.758Zm3.514 2.153c-.337.279.237 1.528 1.275 2.773 2.443 2.928 3.126 2.36.989-.823-.907-1.353-1.926-2.231-2.264-1.95Zm-5.06 1.372c-.02.218.878.727 1.994 1.13 1.117.404 1.808.287 1.534-.259-.476-.954-3.453-1.69-3.528-.871Zm5.797 5.358c.507 1.197 1.155 2.197 1.441 2.223.286.026.106-.93-.402-2.127-.507-1.197-1.155-2.197-1.441-2.223-.286-.027-.106.93.402 2.127Zm3.635-.94c-.746.389-.978 1.479-.591 2.788.348 1.182.72 1.57.826.86.105-.709.944-1.22 1.863-1.136 1.274.117 1.47.819.819 2.95-.469 1.537-.546 2.24-.172 1.56.504-.915 1.19-.9 2.645.057 1.837 1.21 1.843 1.444.079 3.658-2.184 2.741-1.769 3.133.94.887 1.469-1.218 2.039-1.256 2.58-.174.382.765.984 1.005 1.339.535.971-1.287-8.892-12.731-10.328-11.984Zm-4.21 4.153c.641.774 1.45 1.17 1.798.88.35-.29-.174-.923-1.163-1.407-1.429-.698-1.56-.59-.635.527Zm5.313 6.062c-.077.83.282 1.301.794 1.046.513-.255.704-.922.424-1.483-.716-1.433-1.058-1.311-1.218.437Zm8.402 4.084c-.71.589 4.645 6.088 5.973 6.134.319.011-.204-.695-1.163-1.57-1.29-1.175-1.38-1.682-.345-1.945.769-.196 1.058-.792.644-1.323-.415-.532-1.2-.377-1.744.345-.797 1.056-1.144.963-1.791-.486-.441-.987-1.148-1.507-1.574-1.155Zm-54.157-.399c-.052.57.4 1.082 1.005 1.137.605.056.855-.392.554-.994-.301-.603-.753-1.115-1.006-1.138-.252-.023-.501.424-.553.995Zm61.368 6.993c-.963.964-.676 1.297 1.263 1.475 1.939.178 2.282-.097 1.51-1.22-.548-.798-1.117-1.462-1.263-1.475-.145-.013-.825.536-1.51 1.22Zm-142.989 8.045c-2.08 1.37-2.068 1.39.277.511 1.344-.504 2.462-1.133 2.487-1.397.072-.793-.488-.614-2.764.886Zm9.983.389c2.53.693 6.24 1.382 8.244 1.532 2.98.223 2.71.039-1.48-1.012-7.036-1.765-12.979-2.221-6.764-.52Zm12.848 2.753c.551.28 5.146 1.605 10.21 2.946 5.066 1.341 10.59 2.81 12.278 3.265 2.574.693 2.724.635.93-.363-2.374-1.321-19.727-6.137-22.593-6.271-1.005-.047-1.376.144-.825.423Zm29.09 8.505c12.037 4.741 29.465 12.579 33.605 15.113 2.669 1.633 5.031 2.821 5.249 2.639 1.639-1.36-29.678-16.257-38.288-18.213l-4.107-.933 3.541 1.394Zm117.59 10.077c-.095.537 2.608 4.086 6.006 7.886 3.397 3.8 6.133 7.392 6.079 7.981-.123 1.347-4.362 2.354-17.143 4.076-17.228 2.321-17.2 2.321-20.963.015-1.91-1.169-4.642-2.237-6.071-2.374-1.928-.183-1.26.481 2.597 2.58 6.826 3.713 7.03 4.101 2.391 4.535l-3.925.368 4.15 2.882c3.862 2.681 4.714 2.868 12.241 2.691 4.45-.105 10.732-.702 13.96-1.328 3.228-.624 8.991-.952 12.808-.728 3.817.225 6.722-.027 6.457-.557-.715-1.432-27.931-2.238-32.94-.975-5.934 1.495-8.232 1.139-8.014-1.237.099-1.08.915-2.169 1.814-2.421 3.583-1.008 30.925-.129 39.115 1.255 7.89 1.335 9.129 1.858 13.029 5.507 2.371 2.219 5.048 4.142 5.95 4.275.901.134 3.965.594 6.808 1.024l5.169.78-5.038-2.204c-9.92-4.341-26.401-16.316-35.148-25.541-3.434-3.62-6.717-6.627-7.296-6.68-.579-.054-1.235-.701-1.459-1.441-.222-.739-.483-.905-.577-.369Zm6.708 11.647c.93 1.235 1.925 2.267 2.211 2.293.286.027-.242-.963-1.171-2.198-.93-1.235-1.925-2.267-2.211-2.293-.286-.027.242.963 1.171 2.198Zm58.875 3.716c-.106 1.16 15.475 40.614 23.071 58.417 5.818 13.638 10.396 23.478 21.091 45.329.958 1.957 1.975 3.579 2.261 3.605.286.026-.386-1.799-1.492-4.057-9.612-19.616-25.412-55.626-33.78-76.987-9.862-25.176-11.006-27.878-11.151-26.307Zm-137.862-8.117c-7.662.095-3.939 1.484 5.064 1.89 6.628.298 8.299.126 6.086-.625-3.323-1.128-5.179-1.339-11.15-1.265Zm228.758 28.445c-.462 5.075-.141 11.192.89 16.97 1.432 8.031 2.023 9.392 5.324 12.249 2.042 1.768 3.989 3.239 4.326 3.27.337.031.793-1.894 1.012-4.278.399-4.349-4.959-24.26-7.446-27.673-.674-.924-1.429-2.997-1.678-4.606-.833-5.386-1.7-3.934-2.428 4.068Zm-214.106-25.37c-.02.219 1.098.724 2.486 1.123 1.386.399 2.311.304 2.054-.211-.454-.909-4.466-1.713-4.54-.912Zm215.253 29.92c-.678 7.39 1.996 18.991 5.206 22.586 1.54 1.724 3.059 3.159 3.376 3.188 1.325.122 1.035-6.548-.448-10.275-.88-2.213-2.198-6.792-2.93-10.173-.73-3.381-2.106-6.991-3.056-8.021-1.644-1.783-1.749-1.651-2.148 2.695Zm1.179-.892c-.112.933.534 3.815 1.436 6.404 2.118 6.077 2.336 4.231.322-2.731-.854-2.953-1.645-4.606-1.758-3.673Zm-30.893 10.606c.301.602 1.015 1.138 1.587 1.191.571.052.793-.398.492-1-.301-.603-1.015-1.139-1.587-1.191-.571-.053-.793.397-.492 1Zm34.802 3.718c-.053.57.294 1.778.769 2.684.475.906.907 1.181.959.611.053-.57-.293-1.778-.769-2.684-.475-.906-.907-1.181-.959-.611Zm1.592 6.941c-.131 1.425.051 2.03.405 1.344.354-.686.461-1.852.238-2.592-.223-.738-.512-.178-.643 1.248Zm-206.423-4.415c2.433 3.045 6.066 8 8.073 11.01 3.116 4.675 4.452 5.742 9.151 7.295 3.026 1.001 6.234 2.16 7.128 2.576.895.416-1.229-2.832-4.72-7.217-4.124-5.179-6.084-8.505-5.596-9.493.534-1.081 2.459 1.036 6.667 7.336 3.255 4.872 5.875 9.312 5.824 9.868-.051.555.375 1.053.946 1.105 1.906.175 1.26-1.93-1.896-6.182-1.718-2.315-4.659-6.673-6.536-9.684-3.903-6.264-11.699-11.058-19.106-11.746l-4.357-.405 4.422 5.537Zm-.595-2.537c.648.941 1.708 1.572 2.358 1.401.65-.17 3.44.775 6.2 2.102 5.835 2.803 5.515 2.714 5.621 1.565.095-1.041-6.9-4.47-11.907-5.837-3.014-.823-3.3-.726-2.272.769Zm12.478 11.123c-.851.434-1.204.888-.782 1.007.422.119 1.223.377 1.782.571.559.195 1.359.461 1.78.589.421.129-.199.832-1.377 1.561-1.178.73-1.834 1.697-1.457 2.149 1 1.198 9.712 4.141 9.788 3.306.036-.388-1.791-2.792-4.06-5.34-2.942-3.305-4.569-4.406-5.674-3.843Zm177.62 74.8c.167 3.426 1.029 5.015 4.513 8.32 3.937 3.732 4.434 3.942 5.763 2.441 1.797-2.033 1.045-4.03-3.838-10.19-4.757-6.004-6.71-6.177-6.438-.571Zm1.337-1.217c.019.433 2.249 3.107 4.957 5.943 4.627 4.848 4.26 3.566-1-3.489-2.217-2.972-4.028-4.096-3.957-2.454Zm-.404 3.237c-.052.57.346 1.368.885 1.773.539.405 1.024.269 1.076-.301.052-.57-.346-1.368-.885-1.773-.54-.405-1.024-.269-1.076.301Zm-86.964 6.598c-.338.449.045.876.852.951.808.074 1.262-.277 1.012-.779s-.635-.929-.853-.949c-.218-.02-.674.33-1.011.777Zm119.075 17.51c-5.917 3.596-3.598 11.039 3.646 11.704 1.63.15 3.119.975 3.372 1.872.862 3.044 2.133.754 2.7-4.866.405-4.014.11-6.119-1.025-7.312-2.782-2.922-5.473-3.355-8.693-1.398Zm-95.051 3.119c-.076.83.282 1.301.795 1.046.513-.255.704-.922.424-1.483-.716-1.433-1.058-1.311-1.219.437Zm53.931 4.186c.393 2.126 8.194 14.704 8.806 14.198.604-.503-2.799-6.706-6.663-12.144-1.312-1.846-2.276-2.769-2.143-2.054Zm-40.758-3.058c-.02.214.724 1.106 1.652 1.981 1.53 1.439 1.57 1.407.429-.356-1.2-1.852-2.003-2.479-2.081-1.625Zm25.187 3.439c-.076.83.282 1.301.795 1.046.513-.255.704-.922.423-1.483-.715-1.433-1.058-1.311-1.218.437Zm-18.999 3.962a1.16 1.16 0 1 0 1.627-.229 1.168 1.168 0 0 0-1.627.229Zm7.168 1.72c-.378.501-.311 1.192.147 1.536.457.344.895-.054.972-.884.16-1.748-.154-1.93-1.119-.652Zm2.928 1.147c.049.903.811 1.816 1.692 2.029.946.228 1.566-.287 1.514-1.256-.05-.902-.812-1.816-1.692-2.028-.946-.228-1.566.287-1.514 1.255Zm11.26.689c.379.538.148 1.518-.512 2.178-.727.726-.838 1.471-.283 1.888.505.379 1.501.104 2.216-.61.991-.992.896-1.67-.405-2.866-.936-.863-1.393-1.127-1.016-.59Zm.468 7.376c-.077.831.282 1.302.794 1.046.513-.255.705-.922.424-1.483-.715-1.433-1.058-1.31-1.218.437Zm5.154.351c-1.177 1.545-1.636 3.633-.79 3.599.38-.016.917.084 1.192.221 2.743 1.368 3.754.985 3.847-1.457.107-2.819-2.707-4.384-4.249-2.363Zm.125.758c-.293.387.112 1.344.899 2.127.786.783 1.481 1.253 1.545 1.044.911-3.004.841-3.622-.426-3.738-.818-.075-1.726.18-2.018.567Zm11.182 2.371c-.441.628-.386.829.12.45.506-.38 1.462-.152 2.124.507.834.83 1.441.883 1.977.173.424-.564.632-1.074.459-1.135-2.705-.937-4.019-.936-4.68.005Zm-176.411-13.991c-2.755.505-5.243.637-5.529.294-.285-.343-.566-.115-.623.505-.057.621 1.641 2.919 3.772 5.105 3.238 3.322 5.157 4.288 11.672 5.875 6.645 1.618 8.177 1.695 10.384.526 3.297-1.747 3.311-2.373.123-5.914-2.306-2.56-4.486-3.688-12.758-6.594-1.117-.392-4.285-.301-7.041.203Zm.12 1.598-4.789 1.4 4.09 3.131c2.268 1.736 5.605 3.27 7.495 3.444 1.873.172 4.995.932 6.94 1.688 2.904 1.132 3.787 1.095 4.95-.211 1.998-2.244-.384-6.125-4.085-6.656-8.877-1.269-9.099-1.332-6.951-1.951 1.925-.556 1.947-.661.31-1.466-2.19-1.077-2.144-1.08-7.96.621Zm180.408 15.481c-.378.5-.311 1.191.147 1.535.457.344.895-.053.972-.884.16-1.747-.154-1.93-1.119-.651Zm-10.617 1.163c-.323.428-.002 1.363.714 2.075.986.98 1.656.944 2.752-.152.796-.795 1.277-1.498 1.068-1.563-3.132-.946-4.037-1.018-4.534-.36Zm-169.751-14.842c.976.353 2.614.504 3.637.334 1.024-.168.226-.457-1.775-.64-2.001-.184-2.838-.046-1.862.306Zm170.778 16.198c.256.511.925.702 1.487.423 1.436-.713 1.313-1.055-.439-1.216-.832-.076-1.304.281-1.048.793Zm-154.57-12.944c-.02.215.724 1.107 1.652 1.981 1.53 1.44 1.57 1.407.429-.355-1.2-1.852-2.002-2.479-2.081-1.626Zm166.956 17.81c2.331 4.059 2.556 4.234 2.749 2.127.076-.83-.357-1.263-.964-.962-.682.339-.747-.17-.17-1.336.511-1.036.567-1.583.124-1.215-.444.368-1.48.023-2.303-.766-.822-.789-.569.179.564 2.152Z" fill="#FA007A"/></svg>