<svg xmlns="http://www.w3.org/2000/svg" width="569" height="507" fill="none"><path fill-rule="evenodd" clip-rule="evenodd" d="m489.058 195.932-.596 2.744-7.336 7.689c-4.035 4.23-8.12 9.108-9.08 10.841-1.884 3.405-6.663 6.902-8.422 6.165-.6-.25-1.981.17-3.07.932-1.091.764-2.317.995-2.725.513-1.242-1.469 2.528-4.407 6.311-4.918 2.085-.282 5.092-2.378 7.235-5.043 2.017-2.51 6.821-7.794 10.675-11.742l7.008-7.181Zm1.245-51.597 2.272 2.776c-.427-.506-8.45 3.419-17.829 8.72-9.38 5.302-18.893 10.393-21.141 11.314-16.502 6.763-26.31 11.255-33.485 15.336-4.572 2.599-12.136 6.205-16.81 8.01-4.672 1.806-11.992 6.164-16.264 9.684-4.272 3.52-10.846 7.819-14.608 9.556-3.763 1.736-10.301 5.61-14.53 8.609-4.229 2.999-12.048 7.571-17.375 10.162-5.327 2.59-10.912 5.676-12.412 6.858-1.499 1.182-5.964 3.629-9.923 5.436-7.152 3.266-30.455 16.891-49.813 29.123-5.564 3.516-10.358 6.107-10.655 5.757-.559-.663 15.101-10.859 22.28-14.506 2.267-1.152 10.056-5.83 17.31-10.396 7.254-4.566 15.249-9.161 17.766-10.21 2.518-1.05 8.41-4.275 13.095-7.167 4.685-2.891 10.969-6.257 13.966-7.48 2.996-1.223 8.275-4.192 11.732-6.599 8.104-5.642 20.461-12.826 21.861-12.71.599.049 4.553-2.922 8.784-6.605 4.622-4.021 11.506-8.256 17.231-10.603 5.245-2.149 13.691-6.129 18.771-8.844 5.079-2.715 15.22-7.485 22.535-10.599 12.563-5.349 44.188-22.501 47.242-25.622ZM316.709 10.91c-11.526 12.146-17.094 16.514-31.613 24.797-6.202 3.536-10.03 6.771-12.077 10.202-6.635 11.116-23.719 35.752-33.569 48.406-7.883 10.129-10.94 15.205-12.469 20.712-1.115 4.012-3.102 10.313-4.415 14.001-2.718 7.633-1.657 9.713 2.61 5.116 1.601-1.723 13.368-12.468 26.15-23.876 26.033-23.236 37.641-33.8 42.079-38.294 1.653-1.675 8.572-12.074 15.373-23.108 10.667-17.304 12.521-21.137 13.478-27.877.611-4.299 2.253-10.658 3.648-14.133 1.396-3.475 2.337-6.555 2.091-6.844-.244-.289-5.323 4.615-11.286 10.898Zm2.342.186c-9.257 10.288-24.333 22.152-32.789 25.806-6.381 2.755-8.533 4.527-11.447 9.42-9.712 16.313-28.164 42.656-36.033 51.445-5.378 6.008-7.815 10.695-10.833 20.848-1.683 5.659-3.634 11.37-4.336 12.689-1.265 2.382 37.553-30.858 48.28-41.341 3.076-3.008 9.754-9.167 14.838-13.687 5.085-4.522 10.087-10.038 11.114-12.26 1.028-2.222 6.367-11.283 11.864-20.138 7.687-12.378 10.102-17.381 10.456-21.657.252-3.058 1.511-8.237 2.796-11.507 1.285-3.27 2.222-5.956 2.081-5.968-.143-.011-2.837 2.846-5.991 6.35Zm-.352 2.966c-.491 1.023-.705 2.635-.473 3.585.233.95.866.132 1.409-1.817 1.059-3.804.528-4.808-.936-1.768Zm-3.463 10.63c-.712 2.659-2.587 6.951-4.166 9.538-3.57 5.854-2.79 6.244 1.198.599 2.85-4.036 6.436-14.793 4.972-14.914-.389-.032-1.292 2.118-2.004 4.776Zm-13.764 23.83c-3.122 4.672-6.64 9.75-7.815 11.283-1.176 1.533-1.815 2.815-1.422 2.848 1.134.093 16.156-21.158 15.503-21.93-.324-.381-3.142 3.128-6.266 7.8ZM285.339 69.62l-2.597 3.45 3.267-2.658c1.796-1.462 2.964-3.015 2.596-3.45-.369-.436-1.838.76-3.266 2.658Zm-8.099 7.957c-6.795 5.11-17.786 15.615-15.38 14.699 1.924-.732 22.082-18.465 21.045-18.514-.307-.014-2.857 1.703-5.665 3.815Zm288.108 26.08c-.828.702-6.751 2.593-13.162 4.201-13.924 3.493-19.082 5.522-24.868 9.781-2.388 1.758-10.034 6.48-16.989 10.494-6.956 4.013-12.691 7.836-12.746 8.496-.054.66 2.249-.332 5.117-2.202 2.87-1.87 9.784-5.92 15.367-8.998 5.583-3.078 10.517-6.357 10.964-7.288 1.039-2.157 8.624-5.219 18.061-7.291 4.055-.89 8.439-2.092 9.743-2.669 4.173-1.849 5.62-.873 2.435 1.64-1.695 1.337-3.15 3.261-3.234 4.274-.084 1.012-4.086 5.106-8.894 9.097-5.635 4.676-7.96 7.32-6.538 7.437 3.314.274 2.413 1.666-4.317 6.676-8.132 6.054-10.788 4.15-3.47-2.486 4.701-4.261 4.384-4.13-2.26.934-9.759 7.439-14.04 12.458-20.453 23.982-.578 1.039-2.237 3.867-3.687 6.284-2.633 4.392-2.633 4.393.145 1.498 2.478-2.582 2.852-2.643 3.457-.569.554 1.903-3.294 9.155-5.646 11.352l2.602-1.435c2.012-2.233 4.887-6.742 6.387-10.019 5.083-11.1 8.296-14.692 27.663-30.911 20.618-17.268 28.392-26.229 26.772-30.861-.666-1.904-1.386-2.319-2.449-1.417Zm-4.004 5.93c-2.149 1.908-3.954 4.052-4.013 4.764-.059.712-3.325 4.522-7.257 8.466-3.932 3.946-6.931 7.43-6.665 7.745 2.089 2.468 22.586-18.257 22.095-22.342-.199-1.642-1.108-1.345-4.16 1.367Zm-308.786-9.82c-3.146 3.031-6.459 6.184-7.361 7.004-4.075 3.703-15.852 16.108-16.903 17.804-1.285 2.073 1.865-.842 12.573-11.64 3.905-3.938 9.988-9.738 13.519-12.888 3.531-3.15 5.851-5.743 5.155-5.761-.695-.017-3.838 2.449-6.983 5.48Zm271.153 43.014c-1.606 1.475-5.403 6.457-8.437 11.071-4.334 6.589-5.269 8.916-4.352 10.842 1.119 2.352 1.176 2.356 1.401.103.254-2.545 9.346-15.097 11.867-16.383.85-.433 1.337-2.089 1.084-3.679-.253-1.59-.184-2.128.155-1.194.84 2.32 2.975 2.328 3.167.01.267-3.234-1.841-3.567-4.885-.77Zm-238.159 11.566c-.059.72.48 1.358 1.199 1.417a1.316 1.316 0 0 0 1.415-1.201c.06-.72-.48-1.357-1.199-1.417a1.317 1.317 0 0 0-1.415 1.201Zm-36.486 3.572c-.504.684-.293 1.294.468 1.357.761.063 1.433-.475 1.492-1.194.06-.72-.15-1.331-.468-1.357-.318-.026-.988.511-1.492 1.194Zm1.178 11.457c-1.787.722-3.812 2.06-4.504 2.975-3.666 4.855.375 12.998 6.71 13.522 6.805.563 22.055-7.976 20.324-11.379-.433-.849-1.315-1.275-1.962-.945-1.434.731-7.688-2.62-7.569-4.057.127-1.537-9.272-1.621-12.999-.116Zm230.816 23.841c-1.983 2.096-7.336 7.996-11.895 13.109-4.559 5.114-8.809 9.848-9.445 10.521-4.822 5.101-15.169 18.138-14.769 18.61.272.323 4.727-4.501 9.9-10.718 8.312-9.992 23.839-27.148 30.01-33.158 1.201-1.17 1.648-2.137.994-2.152-.655-.013-2.812 1.69-4.795 3.788ZM211.696 171.38c-2.91 2.974-.809 8.669 3.816 10.344 2.889 1.047 4.666.874 7.214-.707 5.106-3.166 5.014-4.511-.553-8.029-6.078-3.839-8.003-4.135-10.477-1.608Zm82.612 35.873c-4.151 2.266-11.702 6.696-16.779 9.845-5.076 3.15-14.987 7.861-22.025 10.473-7.037 2.609-15.56 6.512-18.939 8.672-7.823 5-28.759 15.685-38.42 19.609-4.09 1.661-15.188 7.255-24.664 12.432-9.476 5.177-25.07 12.801-34.652 16.943-15.814 6.834-17.849 8.111-22.047 13.827-2.545 3.462-12.474 13.071-22.065 21.349C79.922 333.172 75.437 338 65.14 352.242c-19.977 27.634-32.35 41.948-55.165 63.822-5.6 5.368-9.477 10.179-9.664 11.988-.222 2.16.155 2.694 1.323 1.876.899-.629 2.44-.755 3.428-.279.986.477 7.35-2.172 14.143-5.885 13.007-7.109 36.284-17.7 36.182-16.461-.064.769-13.155 33.476-18.177 45.418-1.622 3.852-3.855 13.312-4.967 21.024-1.74 12.087-3.84 19.188-9.217 31.174-1.005 2.241-.914 2.315.771.624 1.052-1.055 3.583-2.821 5.626-3.923 2.042-1.103 6.88-6.292 10.75-11.532 9.407-12.739 14.343-18.141 23.404-25.615 7.863-6.484 22.284-13.121 28.198-12.975 3.132.077 3.417-.375 3.898-6.189.611-7.381 4.982-22.881 9.585-33.994 2.535-6.117 2.994-8.519 2.05-10.703l-.026-.059c-.506-1.17-.816-1.886-1.34-2.371-.828-.768-2.191-.958-5.708-1.451l-.111-.015c-4.717-.662-7.504-2.94-8.155-6.669-.344-1.959 1.084-3.374 5.937-5.883 8.329-4.306 54.901-24.193 69.999-29.89 11.147-4.207 12.102-4.884 18.042-12.809 6.071-8.1 16.99-20.687 20.731-23.9 1.006-.863 3.135-3.446 4.732-5.74 1.735-2.494 5.56-5.261 9.509-6.88 3.634-1.49 6.311-3.058 5.951-3.484-.361-.426-2.985.413-5.831 1.865l-5.175 2.64 4.161-4.618c2.288-2.539 7.322-6.377 11.186-8.528 7.917-4.406 25.302-17.002 23.655-17.138-.589-.049-4.96 2.778-9.712 6.282-10.055 7.415-17.192 11.821-17.087 10.55.041-.491 3.19-3.979 6.997-7.748 3.809-3.77 9.613-9.893 12.901-13.608 11.955-13.507 28.958-31.963 38.004-41.249 17.516-17.982 18.782-19.602 18.18-23.256-.305-1.856-.946-3.407-1.423-3.446-.479-.04-4.266 1.782-8.418 4.046Zm.925 2.959c-6.071 5.797-14.438 14.247-25.178 25.429a14525.25 14525.25 0 0 1-19.982 20.75c-6.372 6.604-13.188 13.95-15.15 16.324-1.961 2.375-4.37 5.141-5.353 6.147-5.136 5.25-28.199 31.115-34.14 38.288-3.763 4.543-8.989 10.7-11.612 13.684-2.624 2.984-5.926 7.19-7.336 9.348-1.412 2.156-3.205 3.869-3.985 3.804-.781-.064-.113-1.307 1.482-2.762 1.596-1.453 2.944-3.15 2.995-3.77.118-1.422 27.137-32.983 48.215-56.319 8.834-9.779 17.793-19.712 19.913-22.074 4.886-5.446 8.017-8.631 16.049-16.335 3.546-3.401 10.132-10.031 14.636-14.732 4.504-4.701 10.535-10.873 13.403-13.717 2.867-2.844 4.895-5.196 4.504-5.228-.39-.032-5.985 3.281-12.434 7.362-6.448 4.082-17.133 9.479-23.745 11.993-6.612 2.513-19.777 8.82-29.254 14.014-9.477 5.194-23.689 12.339-31.582 15.877-7.892 3.54-18.088 8.784-22.658 11.654-4.57 2.872-11.077 6.364-14.46 7.763-3.383 1.398-12.191 7.529-19.571 13.624-7.38 6.096-17.164 13.401-21.741 16.235-4.577 2.833-8.81 5.793-9.407 6.577-.774 1.017-1.05.934-.963-.291.067-.943-.506-1.393-1.274-1.002-.768.392-1.126 1.246-.794 1.898.332.652-.12 1.554-1.005 2.005-1.005.513-1.212.283-.551-.612.581-.789.474-1.483-.24-1.542-.712-.059-1.762 1.03-2.332 2.419-.57 1.389-3.647 4.097-6.838 6.017-8.048 4.843-16.052 13.115-25.407 26.262-8.984 12.624-30.275 39.264-38.037 47.591-7.651 8.207-23.117 23.383-26.873 26.369-1.814 1.441-2.822 2.972-2.24 3.402.582.43 4.11-1.955 7.84-5.299 3.73-3.345 10.068-8.163 14.083-10.708 4.017-2.544 9.084-6.795 11.26-9.443 3.65-4.441 15.487-13.247 17.576-13.074.494.041 4.079-3.368 7.966-7.577 7.039-7.623 17.728-17.191 18.28-16.362.158.239.8 2.501 1.426 5.026 1.384 5.581.318 7.111-1.474 2.117l-1.29-3.594-3.995 5.952a777.346 777.346 0 0 1-7.487 10.936l-3.493 4.982 5.28-4.175c4.727-3.738 5.097-3.843 3.526-1.003-.965 1.745-3.91 4.405-6.543 5.91-2.634 1.503-4.56 3.008-4.275 3.343.696.824 8.914-2.667 9.072-3.855.069-.518 1.739-2.589 3.713-4.6 2.503-2.551 3.254-2.887 2.482-1.113-.926 2.135-.787 2.294.863.994 1.082-.853 2.086-2.105 2.233-2.78.147-.676.396-1.911.556-2.744.16-.832.627-1.113 1.043-.624.413.489 3.29-.292 6.394-1.737 38.847-18.082 47.313-21.884 48.515-21.785.773.064 6.56-2.126 12.862-4.866 6.3-2.741 12.267-4.893 13.259-4.781.992.111-.341 1.09-2.965 2.178-2.623 1.086-10.778 5.281-18.122 9.321-7.345 4.039-18.005 9.628-23.691 12.419-5.685 2.792-10.39 5.515-10.456 6.054-.065.539-.719.929-1.452.869-.733-.061-3.64 1.081-6.461 2.539-9.163 4.733-20.966 9.689-22.726 9.543-.947-.078-2.599.755-3.672 1.853-2.217 2.265-4.825 3.671-34.127 18.406-11.622 5.845-22.087 11.437-23.256 12.43-1.17.992-3.59 2.6-5.378 3.572-1.788.972-3.296 2.308-3.35 2.966-.055.66 4.403-1.32 9.904-4.398 5.502-3.079 12.774-6.859 16.158-8.4 16.299-7.428 34.593-16.341 44.567-21.712 25.998-14.004 29.611-15.655 76.71-35.018 6.812-2.8 14.95-5.888 18.085-6.863 5.007-1.554 5.562-2.095 4.55-4.433-.878-2.033-.688-2.798.803-3.234 1.076-.314 2.257.021 2.625.744.368.724.011 1.261-.792 1.195-.804-.067-1.114.561-.691 1.395.444.873 2.468-1.059 4.766-4.548 2.196-3.337 7.892-10.416 12.655-15.733 4.764-5.316 11.951-13.649 15.973-18.515 7.889-9.548 19.127-21.936 23.428-25.825 1.47-1.328 6.387-6.555 10.93-11.616 27.876-31.054 36.771-40.585 52.422-56.165 3.958-3.94 5.428-8.895 2.706-9.12-.583-.048-3.224 1.979-5.87 4.504Zm164.6 16.254c-5.644 3.268-11.886 8.859-15.991 14.324-3.691 4.91-6.826 7.624-6.674 5.775.039-.469 1.371-2.254 2.96-3.965 1.589-1.712 2.943-3.752 3.007-4.535.065-.784-.77-.327-1.856 1.012-5.545 6.845-7.423 9.693-5.873 8.904 2.572-1.309 1.873 1.334-.845 3.192-2.01 1.373-2.173 1.355-1.101-.134.835-1.16.745-1.485-.269-.967-.839.427-1.248 1.819-.907 3.093.341 1.273.173 1.837-.372 1.253-1.426-1.527-4.77 2.964-4.459 5.987l.329 3.217c.035.366.709-.172 1.495-1.194 1.165-1.514 1.389-1.331 1.214.985l-.022.314c-.038.566-.068 1.013-.254 1.38-.695 1.374-3.565 1.648-17.163 2.947l-2.023.194c-30.57 2.925-68.807 9.48-104.127 17.849-33.073 7.839-86.03 24.776-94.545 30.239-5.156 3.308.238 1.944 9.78-2.475 9.931-4.598 44.841-15.732 71.862-22.92 32.431-8.627 91.082-18.881 122.049-21.337 13.994-1.11 14.535-1.275 17.552-5.361 1.713-2.319 9.232-12.033 16.708-21.585 7.478-9.553 13.445-17.546 13.261-17.765-.185-.219-1.866.49-3.736 1.573Zm-43.519 33.573c-4.546.571-4.562.595-.74.99 2.153.223 5.133-.004 6.622-.504 3.255-1.092.646-1.308-5.882-.486Zm-22.556 2.216c-6.221.832-17.907 2.497-25.969 3.699-24.067 3.589-72.527 13.997-68.206 14.647.782.117 4.89-.67 9.13-1.749 13.449-3.424 54.386-11.034 70.945-13.189 25.801-3.357 32.149-4.388 28.68-4.662-1.798-.142-8.359.423-14.58 1.254Zm-105.65 20.351a5300.926 5300.926 0 0 1-17.189 4.566c-5.382 1.42-9.597 2.804-9.369 3.076.487.574 31.488-7.154 34.534-8.608 3.289-1.572.012-1.173-7.976.966Zm-35.013 9.629c-2.606.877-9.18 3.021-14.61 4.765-5.429 1.744-9.661 3.42-9.403 3.723.455.539 29.263-8.487 30.532-9.564 1.193-1.011-1.782-.521-6.519 1.076Zm-110.452-7.588c-.425.578-4.77 2.625-9.655 4.551-6.757 2.665-9.993 4.89-13.519 9.301-2.548 3.189-5.934 7.024-7.523 8.525-6.576 6.204 4.634 1.113 15.689-7.127 8.144-6.068 18.124-14.661 18.208-15.678.074-.901-2.47-.559-3.2.428ZM40.391 323.741c-3.813 1.917-4.603 3.24-6.74 11.305-1.332 5.024-2.086 9.531-1.678 10.014.41.483 2.548-.948 4.752-3.179 2.205-2.231 5.607-5.268 7.56-6.748 2.93-2.218 3.54-3.619 3.485-8.007-.074-5.982-1.192-6.494-7.379-3.385Zm.566 1.165c-1.453.17-3.114 2.994-4.977 8.463-3.522 10.342-3.525 10.481-.136 7.885 1.546-1.184 2.878-2.975 2.961-3.979.083-1.004 1.216-3.526 2.517-5.606 2.802-4.477 2.66-7.118-.365-6.763Zm47.547 64.518c-.103.899-.785 1.583-1.514 1.522-2.61-.215-16.384 8.234-15.68 9.619.407.801.111.964-.684.376-.771-.571-3.746.067-6.61 1.417-4.66 2.196-5.698 3.609-9.857 13.409-20.586 48.514-21.544 51.899-16.602 58.636 2.691 3.669 3.171 3.884 4.448 1.984 3.04-4.519 15.545-16.413 22.06-20.981 6.761-4.742 13.013-8.004 12.907-6.734-.03.363-1.518 1.298-3.307 2.079-6.382 2.786-18.117 12.187-25.021 20.046-3.86 4.392-7.61 8.589-8.332 9.325-2.278 2.32-10.768 19.406-9.687 19.495.567.047 3.897-3.977 7.398-8.942 15.04-21.32 31.649-35.26 46.727-39.216 5.007-1.314 6.211-2.106 5.134-3.379-.8-.945-.843-1.616-.1-1.555.719.059 1.954.873 2.746 1.808 1.118 1.322 1.573.116 2.048-5.431.664-7.777 4.05-19.295 9.369-31.875 3.315-7.841 3.346-8.119 1.16-10.446-2.322-2.474-7.597-3.446-10.541-1.943-.926.471-1.73.522-1.786.113-.057-.409-.162-1.194-.235-1.745-.316-2.387-3.872-9.058-4.041-7.582Zm-6.393 5.071c-1.322 1.24-1.817 2.559-1.146 3.056.648.48 1.986.049 2.97-.957 1.297-1.325 2.222-1.408 3.349-.305.998.98 1.877 1.091 2.452.311.917-1.244-1.031-3.273-3.77-3.925-.84-.2-2.575.62-3.855 1.82Zm.404 1.023c-1.797 1.942-1.755 1.991.453.536 2.32-1.531 3.1-2.548 2.023-2.637-.27-.022-1.385.924-2.476 2.101Zm17.64 6.573c.281.964-1.013 5.354-2.873 9.755-3.494 8.268-8.312 26.437-7.322 27.609.31.366 1.195-2.128 1.967-5.541 1.251-5.535 8.589-27.21 10.688-31.572.448-.929-.037-1.761-1.079-1.847-1.041-.086-1.662.632-1.381 1.596Z" fill="#FA007A"/></svg>