<svg xmlns="http://www.w3.org/2000/svg" width="123" height="138" fill="none"><path d="M9.25 66.62c-.664 2.112-7.199 4.963-8.833 3.854-.417-.283.17-1.132 1.302-1.89C19.141 56.948 43.83 36.37 54.84 24.307c6.136-6.722 6.303-6.8 20.732-9.709 8-1.613 21.45-5.406 29.887-8.43C113.895 3.145 121.375.73 122.077.8c.703.073.72 2.605.038 5.63-.682 3.024-1.038 6.014-.79 6.645.248.63-6.359 6.608-14.683 13.28-14.77 11.842-22.008 18.839-32.84 31.75l-5.325 6.349-7.504-.983c-12.277-1.607-31.54-.766-41.863 1.827-5.313 1.335-9.232 1.795-8.709 1.024 2.719-4.008 34.162-6.656 52.177-4.395 5.479.687 6.056.432 9.069-4.008 4.855-7.157 17.35-19.28 32.832-31.856 15.302-12.43 15.655-12.776 13.581-13.36-1.831-.516-17.942 11.385-28.302 20.907l-7.936 7.296 6.093-7.754c3.446-4.385 8.424-9.185 11.46-11.053 3.742-2.3 5.973-4.625 7.37-7.68 1.369-2.995 2.987-4.713 5.119-5.434 1.714-.58 3.955-2.258 4.978-3.727 1.696-2.431 1.338-2.461-4.002-.337-16.388 6.52-35.892 12.097-45.336 12.962-4.353.399-5.842 1.459-12.616 8.975-4.224 4.688-14.084 13.69-21.91 20.003-7.828 6.314-14.844 12.135-15.592 12.935-.747.8-2.726 2.159-4.396 3.021-1.67.861-3.353 2.572-3.74 3.803Z" fill="#FA007A"/><path d="M32.415 57.63a778.08 778.08 0 0 1-10.698 2.728c-2.908.715-4.02.65-2.555-.149 1.424-.777 6.423-2.378 11.11-3.557 7.219-1.815 8.585-1.76 8.938.353.28 1.677.145 1.95-.413.828-.496-.997-3.064-1.078-6.382-.202ZM54.498 58.03c-5.3-.108-9.967-.421-10.372-.697-.978-.663 5.756-.996 12.662-.627 9.566.512 7.805 1.532-2.29 1.325ZM78.82 42.91c3.433-2.674-4.238 6.393-9.33 11.027-2.514 2.29-2.084 1.492 1.534-2.845 2.765-3.312 6.272-6.995 7.797-8.183ZM94.59 125.889c2.29 11.902-9.761 16.573-13.481 5.224-.991-3.021 3.16-8.135 7.237-8.913 4.432-.847 5.493-.22 6.245 3.689Z" fill="#FA007A"/></svg>